<svg width="100%" height="100%" viewBox="0 0 328 160" xmlns="http://www.w3.org/2000/svg"    preserveAspectRatio="none">
<rect width="328" height="160" rx="1.19273" fill="#FCFCFC"/>
<g filter="url(#filter0_dd_610_26890)">
<rect x="64.1074" y="40.2839" width="88.9506" height="30.2097" rx="1.67831" fill="white"/>
</g>
<path d="M98.994 51.4703H97.7451V60.4191H98.994V51.4703ZM91.5104 57.8918L91.6776 58.9145C93.2707 58.9195 95.38 58.8998 97.3419 58.5605L97.2534 57.6361C96.5355 57.7296 95.7832 57.7886 95.0309 57.823V57.11C96.0143 56.9281 96.6535 56.3184 96.6535 55.4825C96.6535 54.4844 95.7291 53.8009 94.4016 53.8009C93.0838 53.8009 92.1742 54.4844 92.1791 55.4825C92.1742 56.3233 92.8134 56.933 93.7919 57.11V57.8672C92.9756 57.8869 92.1939 57.8869 91.5104 57.8918ZM91.6874 53.4469H97.1255V52.4635H95.0408V51.5096H93.7919V52.4635H91.6874V53.4469ZM93.369 55.4825C93.3641 55.0203 93.7919 54.7597 94.4016 54.7548C95.0309 54.7597 95.4538 55.0203 95.4538 55.4825C95.4538 55.9545 95.0309 56.2102 94.4016 56.2102C93.7919 56.2102 93.3641 55.9545 93.369 55.4825ZM107.655 51.4801H106.397V56.6724H104.685V57.528H106.397V58.236H107.655V51.4801ZM100.044 55.4432L100.191 56.4364C100.87 56.4364 101.632 56.4315 102.433 56.402V57.587H101.185V60.2618H107.852V59.2587H102.433V58.0295H103.692V56.3282C104.415 56.2741 105.148 56.1906 105.856 56.0725L105.787 55.1777C103.894 55.4088 101.681 55.4333 100.044 55.4432ZM100.703 53.3879C100.703 54.3467 101.622 54.9662 102.955 54.9613C104.253 54.9662 105.182 54.3467 105.187 53.3879C105.182 52.434 104.253 51.7801 102.955 51.785C101.622 51.7801 100.703 52.434 100.703 53.3879ZM101.893 53.3879C101.888 52.9454 102.315 52.6995 102.955 52.6995C103.555 52.6995 103.987 52.9454 103.997 53.3879C103.987 53.8206 103.555 54.0615 102.955 54.0566C102.315 54.0615 101.888 53.8206 101.893 53.3879ZM115.736 51.4703H114.478V60.3995H115.736V55.9349H117.005V54.9023H115.736V51.4703ZM108.577 57.8918L109.285 58.8555C112.294 57.3755 113.337 55.0597 113.347 52.3848H109.089V53.4076H112.073C111.837 55.4038 110.696 56.8298 108.577 57.8918ZM124.771 51.4703H123.513V56.2791H124.771V51.4703ZM117.416 53.9681C117.416 55.1875 118.468 56.0627 119.864 56.0627C121.256 56.0627 122.308 55.1875 122.313 53.9681C122.308 52.7094 121.256 51.8342 119.864 51.844C118.468 51.8342 117.416 52.7094 117.416 53.9681ZM118.645 53.9681C118.635 53.2945 119.146 52.8815 119.864 52.8864C120.562 52.8815 121.069 53.2945 121.074 53.9681C121.069 54.6319 120.562 55.0302 119.864 55.0302C119.146 55.0302 118.635 54.6319 118.645 53.9681ZM118.782 60.3208H124.771V56.6724H123.522V57.5083H120.022V56.6724H118.782V60.3208ZM120.022 59.3079V58.4818H123.522V59.3079H120.022Z" fill="#374151"/>
<g filter="url(#filter1_dd_610_26890)">
<rect x="174.875" y="40.2839" width="88.9506" height="30.2097" rx="1.67831" fill="white"/>
</g>
<path d="M204.397 51.4703H203.148V60.4191H204.397V51.4703ZM196.913 57.8918L197.08 58.9145C198.673 58.9195 200.783 58.8998 202.745 58.5605L202.656 57.6361C201.938 57.7296 201.186 57.7886 200.434 57.823V57.11C201.417 56.9281 202.056 56.3184 202.056 55.4825C202.056 54.4844 201.132 53.8009 199.804 53.8009C198.487 53.8009 197.577 54.4844 197.582 55.4825C197.577 56.3233 198.216 56.933 199.195 57.11V57.8672C198.378 57.8869 197.597 57.8869 196.913 57.8918ZM197.09 53.4469H202.528V52.4635H200.444V51.5096H199.195V52.4635H197.09V53.4469ZM198.772 55.4825C198.767 55.0203 199.195 54.7597 199.804 54.7548C200.434 54.7597 200.857 55.0203 200.857 55.4825C200.857 55.9545 200.434 56.2102 199.804 56.2102C199.195 56.2102 198.767 55.9545 198.772 55.4825ZM208.377 52.0702C206.966 52.0652 205.884 52.9798 205.889 54.2631C205.884 55.5514 206.966 56.461 208.377 56.4659C209.798 56.461 210.85 55.5514 210.855 54.2631C210.85 52.9798 209.798 52.0652 208.377 52.0702ZM205.515 57.587L205.663 58.6097C207.227 58.6097 209.351 58.5949 211.337 58.2065L211.239 57.3018C209.326 57.5722 207.113 57.5919 205.515 57.587ZM207.138 54.2631C207.133 53.5649 207.669 53.1519 208.377 53.1519C209.09 53.1519 209.631 53.5649 209.636 54.2631C209.631 54.9712 209.09 55.3793 208.377 55.3743C207.669 55.3793 207.133 54.9712 207.138 54.2631ZM211.75 60.4388H212.999V51.4703H211.75V60.4388ZM221.562 51.4703H220.313V56.0037H221.562V51.4703ZM214.039 55.04L214.659 56.0234C215.726 55.7038 216.458 55.0203 216.861 54.15C217.269 54.9466 217.978 55.571 219.005 55.866L219.615 54.9023C218.15 54.4795 217.501 53.442 217.51 52.3553V51.667H216.203V52.3553C216.203 53.4666 215.534 54.5926 214.039 55.04ZM215.563 57.3608H220.323V57.882H215.583V60.3601H221.818V59.3669H216.812V58.8162H221.572V56.3872H215.563V57.3608ZM232.66 51.4703H231.46V60.4191H232.66V51.4703ZM224.979 55.3448C224.979 57.3559 225.742 58.5999 226.927 58.5999C227.679 58.5999 228.264 58.1032 228.598 57.2329H229.651V60.0061H230.831V51.5981H229.651V53.4567H228.593C228.264 52.5963 227.674 52.1046 226.927 52.1095C225.742 52.1046 224.979 53.3437 224.979 55.3448ZM226.12 55.3448C226.11 53.973 226.4 53.2896 226.927 53.2896C227.443 53.2896 227.758 53.973 227.762 55.3448C227.758 56.7216 227.443 57.4001 226.927 57.3903C226.4 57.4001 226.11 56.7216 226.12 55.3448ZM228.844 54.4598H229.651V56.2201H228.849C228.883 55.9496 228.903 55.6546 228.903 55.3448C228.903 55.0302 228.883 54.7351 228.844 54.4598ZM241.763 52.6504H240.603V51.4703H239.344V56.7511H240.603V55.6202H241.763V54.5778H240.603V53.6633H241.763V52.6504ZM233.562 54.1353C233.557 55.4284 234.619 56.3331 236.021 56.3282C237.407 56.3331 238.459 55.4284 238.459 54.1353C238.459 52.8716 237.407 51.9571 236.021 51.962C234.619 51.9571 233.557 52.8716 233.562 54.1353ZM234.575 58.118H239.344V60.4191H240.603V57.1051H234.575V58.118ZM234.801 54.1353C234.791 53.4371 235.317 53.029 236.021 53.0339C236.709 53.029 237.235 53.4371 237.24 54.1353C237.235 54.8581 236.709 55.2711 236.021 55.2662C235.317 55.2711 234.791 54.8581 234.801 54.1353Z" fill="#374151"/>
<circle cx="108.582" cy="36.5078" r="8.39157" fill="#008DFF"/>
<path d="M109.649 33.0941H108.253L106.493 34.2152V35.5231L108.125 34.5004H108.165V40.2139H109.649V33.0941Z" fill="white"/>
<circle cx="219.351" cy="36.5078" r="8.39157" fill="#008DFF"/>
<path d="M216.987 40H222.081V38.7806H219.043V38.7413L220.124 37.689C221.59 36.3615 221.983 35.6977 221.983 34.8864C221.983 33.6522 220.97 32.7819 219.446 32.7819C217.946 32.7819 216.914 33.6719 216.919 35.0634H218.325C218.32 34.3799 218.758 33.9571 219.426 33.962C220.08 33.9571 220.557 34.3504 220.557 34.9847C220.557 35.5502 220.198 35.9435 219.534 36.5778L216.978 38.9281L216.987 40Z" fill="white"/>
<path d="M161.449 50.5635L166.274 55.3886L161.449 60.2138" stroke="#008DFF" stroke-width="1.25874" stroke-linecap="round" stroke-linejoin="round"/>
<g filter="url(#filter2_dd_610_26890)">
<rect x="64.1074" y="100.79" width="88.9506" height="30.2097" rx="1.67831" fill="white"/>
</g>
<path d="M91.1201 112.626H86.5178V113.648H89.8958C89.8859 114.184 89.8466 114.838 89.6843 115.694L90.9136 115.812C91.1201 114.701 91.1201 113.806 91.1201 113.186V112.626ZM85.9868 116.461L86.095 117.464C87.6536 117.459 89.7482 117.425 91.6118 117.08L91.5429 116.176C90.7021 116.299 89.7925 116.367 88.8976 116.407V114.691H87.6487V116.446C87.0538 116.461 86.4883 116.461 85.9868 116.461ZM87.3045 120.768H93.5884V119.765H88.5633V118.074H87.3045V120.768ZM92.0248 118.674H93.313V115.753H94.3948V114.701H93.313V111.977H92.0248V118.674ZM102.21 111.977H100.961V120.945H102.21V111.977ZM95.1791 113.737H98.1588V115.182H95.1889V118.851H95.9953C97.6277 118.851 98.9602 118.796 100.43 118.536L100.322 117.523C99.0094 117.739 97.8539 117.808 96.487 117.818V116.176H99.4372V112.724H95.1791V113.737ZM106.614 114.415V113.865H108.413V112.842H103.457V113.865H105.355V114.415C105.345 115.895 104.593 117.557 103.103 118.251L103.831 119.244C104.863 118.757 105.601 117.754 105.999 116.574C106.402 117.646 107.11 118.56 108.108 119.018L108.806 118.034C107.336 117.351 106.609 115.777 106.614 114.415ZM109.111 120.925H110.37V116.441H111.688V115.389H110.37V111.977H109.111V120.925ZM118.862 112.409V112.114H117.574V112.409C117.564 113.353 116.521 114.391 114.535 114.622L115.007 115.605C116.531 115.404 117.642 114.75 118.218 113.87C118.793 114.75 119.909 115.404 121.428 115.605L121.881 114.622C119.904 114.391 118.862 113.348 118.862 112.409ZM114.132 117.08H122.294V116.097H114.132V117.08ZM115.066 119.313C115.066 120.35 116.241 120.935 118.203 120.935C120.135 120.935 121.31 120.35 121.32 119.313C121.31 118.26 120.135 117.685 118.203 117.69C116.241 117.685 115.066 118.26 115.066 119.313ZM116.344 119.313C116.339 118.851 116.964 118.639 118.203 118.634C119.417 118.639 120.057 118.851 120.062 119.313C120.057 119.77 119.417 119.981 118.203 119.981C116.964 119.981 116.339 119.77 116.344 119.313ZM130.227 111.986H128.969V118.418H130.227V111.986ZM122.872 114.809C122.872 116.141 123.944 117.08 125.32 117.08C126.692 117.08 127.764 116.141 127.769 114.809C127.764 113.496 126.692 112.552 125.32 112.557C123.944 112.552 122.872 113.496 122.872 114.809ZM124.101 114.809C124.091 114.081 124.617 113.643 125.32 113.648C125.999 113.643 126.525 114.081 126.53 114.809C126.525 115.556 125.999 115.989 125.32 115.989C124.617 115.989 124.091 115.556 124.101 114.809ZM124.229 120.768H130.463V119.765H125.497V117.769H124.229V120.768Z" fill="#374151"/>
<g filter="url(#filter3_dd_610_26890)">
<rect x="174.875" y="100.79" width="88.9506" height="30.2097" rx="1.67831" fill="white"/>
</g>
<path d="M204.397 111.977H203.148V120.925H204.397V111.977ZM196.913 118.398L197.08 119.421C198.673 119.426 200.783 119.406 202.745 119.067L202.656 118.142C201.938 118.236 201.186 118.295 200.434 118.329V117.616C201.417 117.434 202.056 116.825 202.056 115.989C202.056 114.991 201.132 114.307 199.804 114.307C198.487 114.307 197.577 114.991 197.582 115.989C197.577 116.83 198.216 117.439 199.195 117.616V118.374C198.378 118.393 197.597 118.393 196.913 118.398ZM197.09 113.953H202.528V112.97H200.444V112.016H199.195V112.97H197.09V113.953ZM198.772 115.989C198.767 115.527 199.195 115.266 199.804 115.261C200.434 115.266 200.857 115.527 200.857 115.989C200.857 116.461 200.434 116.717 199.804 116.717C199.195 116.717 198.767 116.461 198.772 115.989ZM208.377 112.577C206.966 112.572 205.884 113.486 205.889 114.769C205.884 116.058 206.966 116.967 208.377 116.972C209.798 116.967 210.85 116.058 210.855 114.769C210.85 113.486 209.798 112.572 208.377 112.577ZM205.515 118.093L205.663 119.116C207.227 119.116 209.351 119.101 211.337 118.713L211.239 117.808C209.326 118.079 207.113 118.098 205.515 118.093ZM207.138 114.769C207.133 114.071 207.669 113.658 208.377 113.658C209.09 113.658 209.631 114.071 209.636 114.769C209.631 115.478 209.09 115.886 208.377 115.881C207.669 115.886 207.133 115.478 207.138 114.769ZM211.75 120.945H212.999V111.977H211.75V120.945ZM221.562 111.977H220.313V116.51H221.562V111.977ZM214.039 115.546L214.659 116.53C215.726 116.21 216.458 115.527 216.861 114.656C217.269 115.453 217.978 116.077 219.005 116.372L219.615 115.409C218.15 114.986 217.501 113.948 217.51 112.862V112.173H216.203V112.862C216.203 113.973 215.534 115.099 214.039 115.546ZM215.563 117.867H220.323V118.388H215.583V120.866H221.818V119.873H216.812V119.323H221.572V116.894H215.563V117.867ZM232.394 111.977H231.126V120.945H232.394V111.977ZM225.166 115.792C225.161 117.759 226.159 118.988 227.536 118.988C228.883 118.988 229.887 117.759 229.887 115.792C229.887 113.84 228.883 112.606 227.536 112.606C226.159 112.606 225.161 113.84 225.166 115.792ZM226.376 115.792C226.371 114.465 226.838 113.737 227.536 113.737C228.215 113.737 228.672 114.465 228.677 115.792C228.672 117.125 228.215 117.852 227.536 117.847C226.838 117.852 226.371 117.125 226.376 115.792ZM241.665 116.215H239.787V115.153C240.456 114.868 240.834 114.42 240.839 113.835C240.834 112.754 239.561 112.109 237.584 112.104C235.593 112.109 234.319 112.754 234.319 113.835C234.319 114.411 234.688 114.853 235.342 115.143V116.215H233.503V117.218H241.665V116.215ZM234.437 119.293C234.437 120.35 235.612 120.916 237.574 120.916C239.507 120.916 240.682 120.35 240.692 119.293C240.682 118.26 239.507 117.685 237.574 117.69C235.612 117.685 234.437 118.26 234.437 119.293ZM235.627 113.835C235.617 113.334 236.32 113.068 237.584 113.068C238.833 113.068 239.541 113.334 239.541 113.835C239.541 114.327 238.833 114.578 237.584 114.573C236.32 114.578 235.617 114.327 235.627 113.835ZM235.716 119.293C235.711 118.851 236.335 118.639 237.574 118.634C238.789 118.639 239.428 118.851 239.433 119.293C239.428 119.75 238.789 119.981 237.574 119.981C236.335 119.981 235.711 119.75 235.716 119.293ZM236.611 116.215V115.463C236.91 115.497 237.235 115.517 237.584 115.517C237.923 115.517 238.243 115.502 238.538 115.463V116.215H236.611Z" fill="#374151"/>
<circle cx="108.582" cy="97.0141" r="8.39157" fill="#008DFF"/>
<path d="M108.48 100.819C110.088 100.819 111.244 99.9433 111.234 98.7239C111.244 97.834 110.668 97.1997 109.621 97.0718V97.0128C110.418 96.8703 110.973 96.3048 110.968 95.5083C110.973 94.3823 109.985 93.5022 108.5 93.5022C107.04 93.5022 105.938 94.3528 105.914 95.5771H107.33C107.354 95.0313 107.871 94.6773 108.5 94.6822C109.129 94.6773 109.547 95.051 109.542 95.5968C109.547 96.1573 109.056 96.5408 108.352 96.5408H107.694V97.6324H108.352C109.188 97.6373 109.705 98.0454 109.7 98.6256C109.705 99.2009 109.198 99.5942 108.49 99.5992C107.802 99.5942 107.286 99.2451 107.261 98.7141H105.766C105.796 99.9581 106.917 100.819 108.48 100.819Z" fill="white"/>
<circle cx="219.352" cy="97.0141" r="8.39157" fill="#008DFF"/>
<path d="M216.433 99.4615H219.895V100.72H221.301V99.4615H222.206V98.2716H221.301V93.6005H219.442L216.433 98.2912V99.4615ZM217.928 98.2716V98.2126L219.846 95.2231H219.914V98.2716H217.928Z" fill="white"/>
<path d="M161.45 111.07L166.275 115.895L161.45 120.72" stroke="#008DFF" stroke-width="1.25874" stroke-linecap="round" stroke-linejoin="round"/>
<defs>
<filter id="filter0_dd_610_26890" x="58.4789" y="37.4697" width="100.208" height="41.4667" filterUnits="userSpaceOnUse" color-interpolation-filters="sRGB">
<feFlood flood-opacity="0" result="BackgroundImageFix"/>
<feColorMatrix in="SourceAlpha" type="matrix" values="0 0 0 0 0 0 0 0 0 0 0 0 0 0 0 0 0 0 127 0" result="hardAlpha"/>
<feOffset dy="2.81425"/>
<feGaussianBlur stdDeviation="2.81425"/>
<feColorMatrix type="matrix" values="0 0 0 0 0.458824 0 0 0 0 0.458824 0 0 0 0 0.458824 0 0 0 0.16 0"/>
<feBlend mode="normal" in2="BackgroundImageFix" result="effect1_dropShadow_610_26890"/>
<feColorMatrix in="SourceAlpha" type="matrix" values="0 0 0 0 0 0 0 0 0 0 0 0 0 0 0 0 0 0 127 0" result="hardAlpha"/>
<feOffset/>
<feGaussianBlur stdDeviation="0.703561"/>
<feColorMatrix type="matrix" values="0 0 0 0 0.258824 0 0 0 0 0.258824 0 0 0 0 0.258824 0 0 0 0.04 0"/>
<feBlend mode="normal" in2="effect1_dropShadow_610_26890" result="effect2_dropShadow_610_26890"/>
<feBlend mode="normal" in="SourceGraphic" in2="effect2_dropShadow_610_26890" result="shape"/>
</filter>
<filter id="filter1_dd_610_26890" x="169.247" y="37.4697" width="100.208" height="41.4667" filterUnits="userSpaceOnUse" color-interpolation-filters="sRGB">
<feFlood flood-opacity="0" result="BackgroundImageFix"/>
<feColorMatrix in="SourceAlpha" type="matrix" values="0 0 0 0 0 0 0 0 0 0 0 0 0 0 0 0 0 0 127 0" result="hardAlpha"/>
<feOffset dy="2.81425"/>
<feGaussianBlur stdDeviation="2.81425"/>
<feColorMatrix type="matrix" values="0 0 0 0 0.458824 0 0 0 0 0.458824 0 0 0 0 0.458824 0 0 0 0.16 0"/>
<feBlend mode="normal" in2="BackgroundImageFix" result="effect1_dropShadow_610_26890"/>
<feColorMatrix in="SourceAlpha" type="matrix" values="0 0 0 0 0 0 0 0 0 0 0 0 0 0 0 0 0 0 127 0" result="hardAlpha"/>
<feOffset/>
<feGaussianBlur stdDeviation="0.703561"/>
<feColorMatrix type="matrix" values="0 0 0 0 0.258824 0 0 0 0 0.258824 0 0 0 0 0.258824 0 0 0 0.04 0"/>
<feBlend mode="normal" in2="effect1_dropShadow_610_26890" result="effect2_dropShadow_610_26890"/>
<feBlend mode="normal" in="SourceGraphic" in2="effect2_dropShadow_610_26890" result="shape"/>
</filter>
<filter id="filter2_dd_610_26890" x="58.4789" y="97.976" width="100.208" height="41.4667" filterUnits="userSpaceOnUse" color-interpolation-filters="sRGB">
<feFlood flood-opacity="0" result="BackgroundImageFix"/>
<feColorMatrix in="SourceAlpha" type="matrix" values="0 0 0 0 0 0 0 0 0 0 0 0 0 0 0 0 0 0 127 0" result="hardAlpha"/>
<feOffset dy="2.81425"/>
<feGaussianBlur stdDeviation="2.81425"/>
<feColorMatrix type="matrix" values="0 0 0 0 0.458824 0 0 0 0 0.458824 0 0 0 0 0.458824 0 0 0 0.16 0"/>
<feBlend mode="normal" in2="BackgroundImageFix" result="effect1_dropShadow_610_26890"/>
<feColorMatrix in="SourceAlpha" type="matrix" values="0 0 0 0 0 0 0 0 0 0 0 0 0 0 0 0 0 0 127 0" result="hardAlpha"/>
<feOffset/>
<feGaussianBlur stdDeviation="0.703561"/>
<feColorMatrix type="matrix" values="0 0 0 0 0.258824 0 0 0 0 0.258824 0 0 0 0 0.258824 0 0 0 0.04 0"/>
<feBlend mode="normal" in2="effect1_dropShadow_610_26890" result="effect2_dropShadow_610_26890"/>
<feBlend mode="normal" in="SourceGraphic" in2="effect2_dropShadow_610_26890" result="shape"/>
</filter>
<filter id="filter3_dd_610_26890" x="169.247" y="97.976" width="100.208" height="41.4667" filterUnits="userSpaceOnUse" color-interpolation-filters="sRGB">
<feFlood flood-opacity="0" result="BackgroundImageFix"/>
<feColorMatrix in="SourceAlpha" type="matrix" values="0 0 0 0 0 0 0 0 0 0 0 0 0 0 0 0 0 0 127 0" result="hardAlpha"/>
<feOffset dy="2.81425"/>
<feGaussianBlur stdDeviation="2.81425"/>
<feColorMatrix type="matrix" values="0 0 0 0 0.458824 0 0 0 0 0.458824 0 0 0 0 0.458824 0 0 0 0.16 0"/>
<feBlend mode="normal" in2="BackgroundImageFix" result="effect1_dropShadow_610_26890"/>
<feColorMatrix in="SourceAlpha" type="matrix" values="0 0 0 0 0 0 0 0 0 0 0 0 0 0 0 0 0 0 127 0" result="hardAlpha"/>
<feOffset/>
<feGaussianBlur stdDeviation="0.703561"/>
<feColorMatrix type="matrix" values="0 0 0 0 0.258824 0 0 0 0 0.258824 0 0 0 0 0.258824 0 0 0 0.04 0"/>
<feBlend mode="normal" in2="effect1_dropShadow_610_26890" result="effect2_dropShadow_610_26890"/>
<feBlend mode="normal" in="SourceGraphic" in2="effect2_dropShadow_610_26890" result="shape"/>
</filter>
</defs>
</svg>
