<svg width="1100" height="320" viewBox="0 0 1100 320" fill="none" xmlns="http://www.w3.org/2000/svg">
<rect width="1100" height="320" rx="4" fill="#FCFCFC"/>
<g filter="url(#filter0_dd_610_26844)">
<rect x="48" y="138" width="212" height="72" rx="4" fill="white"/>
<path d="M130.938 164.828H127.962V186.156H130.938V164.828ZM113.102 180.133L113.501 182.57C117.298 182.582 122.325 182.535 127.001 181.727L126.79 179.523C125.079 179.746 123.286 179.887 121.493 179.969V178.27C123.837 177.836 125.36 176.383 125.36 174.391C125.36 172.012 123.157 170.383 119.993 170.383C116.852 170.383 114.684 172.012 114.696 174.391C114.684 176.395 116.208 177.848 118.54 178.27V180.074C116.594 180.121 114.731 180.121 113.102 180.133ZM113.524 169.539H126.485V167.195H121.516V164.922H118.54V167.195H113.524V169.539ZM117.532 174.391C117.52 173.289 118.54 172.668 119.993 172.656C121.493 172.668 122.501 173.289 122.501 174.391C122.501 175.516 121.493 176.125 119.993 176.125C118.54 176.125 117.52 175.516 117.532 174.391ZM151.581 164.852H148.581V177.227H144.503V179.266H148.581V180.953H151.581V164.852ZM133.44 174.297L133.792 176.664C135.409 176.664 137.225 176.652 139.136 176.582V179.406H136.159V185.781H152.05V183.391H139.136V180.461H142.136V176.406C143.858 176.277 145.604 176.078 147.292 175.797L147.128 173.664C142.616 174.215 137.343 174.273 133.44 174.297ZM135.011 169.398C135.011 171.684 137.202 173.16 140.378 173.148C143.472 173.16 145.686 171.684 145.698 169.398C145.686 167.125 143.472 165.566 140.378 165.578C137.202 165.566 135.011 167.125 135.011 169.398ZM137.847 169.398C137.835 168.344 138.854 167.758 140.378 167.758C141.808 167.758 142.839 168.344 142.862 169.398C142.839 170.43 141.808 171.004 140.378 170.992C138.854 171.004 137.835 170.43 137.847 169.398ZM170.841 164.828H167.841V186.109H170.841V175.469H173.864V173.008H170.841V164.828ZM153.778 180.133L155.466 182.43C162.638 178.902 165.122 173.383 165.146 167.008H154.997V169.445H162.11C161.548 174.203 158.829 177.602 153.778 180.133ZM192.374 164.828H189.374V176.289H192.374V164.828ZM174.843 170.781C174.843 173.688 177.351 175.773 180.679 175.773C183.995 175.773 186.503 173.688 186.515 170.781C186.503 167.781 183.995 165.695 180.679 165.719C177.351 165.695 174.843 167.781 174.843 170.781ZM177.773 170.781C177.749 169.176 178.968 168.191 180.679 168.203C182.343 168.191 183.55 169.176 183.562 170.781C183.55 172.363 182.343 173.312 180.679 173.312C178.968 173.312 177.749 172.363 177.773 170.781ZM178.101 185.922H192.374V177.227H189.398V179.219H181.054V177.227H178.101V185.922ZM181.054 183.508V181.539H189.398V183.508H181.054Z" fill="#374151"/>
</g>
<g filter="url(#filter1_dd_610_26844)">
<rect x="312" y="138" width="212" height="72" rx="4" fill="white"/>
<path d="M382.041 164.828H379.065V186.156H382.041V164.828ZM364.205 180.133L364.604 182.57C368.401 182.582 373.428 182.535 378.104 181.727L377.893 179.523C376.182 179.746 374.389 179.887 372.596 179.969V178.27C374.94 177.836 376.463 176.383 376.463 174.391C376.463 172.012 374.26 170.383 371.096 170.383C367.955 170.383 365.787 172.012 365.799 174.391C365.787 176.395 367.311 177.848 369.643 178.27V180.074C367.698 180.121 365.834 180.121 364.205 180.133ZM364.627 169.539H377.588V167.195H372.62V164.922H369.643V167.195H364.627V169.539ZM368.635 174.391C368.623 173.289 369.643 172.668 371.096 172.656C372.596 172.668 373.604 173.289 373.604 174.391C373.604 175.516 372.596 176.125 371.096 176.125C369.643 176.125 368.623 175.516 368.635 174.391ZM391.528 166.258C388.165 166.246 385.587 168.426 385.598 171.484C385.587 174.555 388.165 176.723 391.528 176.734C394.915 176.723 397.422 174.555 397.434 171.484C397.422 168.426 394.915 166.246 391.528 166.258ZM384.708 179.406L385.059 181.844C388.786 181.844 393.848 181.809 398.583 180.883L398.348 178.727C393.79 179.371 388.516 179.418 384.708 179.406ZM388.575 171.484C388.563 169.82 389.84 168.836 391.528 168.836C393.227 168.836 394.516 169.82 394.528 171.484C394.516 173.172 393.227 174.145 391.528 174.133C389.84 174.145 388.563 173.172 388.575 171.484ZM399.567 186.203H402.544V164.828H399.567V186.203ZM422.952 164.828H419.975V175.633H422.952V164.828ZM405.022 173.336L406.499 175.68C409.042 174.918 410.788 173.289 411.749 171.215C412.722 173.113 414.409 174.602 416.858 175.305L418.311 173.008C414.819 172 413.272 169.527 413.296 166.938V165.297H410.179V166.938C410.179 169.586 408.585 172.27 405.022 173.336ZM408.655 178.867H419.999V180.109H408.702V186.016H423.561V183.648H411.632V182.336H422.975V176.547H408.655V178.867ZM449.402 164.828H446.542V186.156H449.402V164.828ZM431.097 174.062C431.097 178.855 432.913 181.82 435.738 181.82C437.531 181.82 438.925 180.637 439.722 178.562H442.23V185.172H445.042V165.133H442.23V169.562H439.71C438.925 167.512 437.519 166.34 435.738 166.352C432.913 166.34 431.097 169.293 431.097 174.062ZM433.816 174.062C433.792 170.793 434.484 169.164 435.738 169.164C436.968 169.164 437.718 170.793 437.73 174.062C437.718 177.344 436.968 178.961 435.738 178.938C434.484 178.961 433.792 177.344 433.816 174.062ZM440.308 171.953H442.23V176.148H440.32C440.402 175.504 440.449 174.801 440.449 174.062C440.449 173.312 440.402 172.609 440.308 171.953ZM471.099 167.641H468.334V164.828H465.334V177.414H468.334V174.719H471.099V172.234H468.334V170.055H471.099V167.641ZM451.552 171.18C451.541 174.262 454.072 176.418 457.412 176.406C460.716 176.418 463.224 174.262 463.224 171.18C463.224 168.168 460.716 165.988 457.412 166C454.072 165.988 451.541 168.168 451.552 171.18ZM453.966 180.672H465.334V186.156H468.334V178.258H453.966V180.672ZM454.505 171.18C454.482 169.516 455.736 168.543 457.412 168.555C459.052 168.543 460.306 169.516 460.318 171.18C460.306 172.902 459.052 173.887 457.412 173.875C455.736 173.887 454.482 172.902 454.505 171.18Z" fill="#374151"/>
</g>
<g filter="url(#filter2_dd_610_26844)">
<rect x="576" y="138" width="212" height="72" rx="4" fill="white"/>
<path d="M640.065 166.375H629.096V168.812H637.147C637.123 170.09 637.03 171.648 636.643 173.688L639.573 173.969C640.065 171.32 640.065 169.188 640.065 167.711V166.375ZM627.83 175.516L628.088 177.906C631.803 177.895 636.795 177.812 641.237 176.992L641.073 174.836C639.069 175.129 636.901 175.293 634.768 175.387V171.297H631.791V175.48C630.373 175.516 629.026 175.516 627.83 175.516ZM630.971 185.781H645.948V183.391H633.971V179.359H630.971V185.781ZM642.221 180.789H645.291V173.828H647.87V171.32H645.291V164.828H642.221V180.789ZM666.497 164.828H663.52V186.203H666.497V164.828ZM649.739 169.023H656.84V172.469H649.762V181.211H651.684C655.575 181.211 658.751 181.082 662.255 180.461L661.997 178.047C658.868 178.562 656.114 178.727 652.856 178.75V174.836H659.887V166.609H649.739V169.023ZM676.991 170.641V169.328H681.28V166.891H669.468V169.328H673.991V170.641C673.968 174.168 672.175 178.129 668.624 179.781L670.358 182.148C672.819 180.988 674.577 178.598 675.526 175.785C676.487 178.34 678.175 180.52 680.554 181.609L682.218 179.266C678.714 177.637 676.979 173.887 676.991 170.641ZM682.944 186.156H685.944V175.469H689.085V172.961H685.944V164.828H682.944V186.156ZM706.183 165.859V165.156H703.113V165.859C703.089 168.109 700.605 170.582 695.87 171.133L696.995 173.477C700.628 172.996 703.277 171.438 704.648 169.34C706.019 171.438 708.679 172.996 712.3 173.477L713.378 171.133C708.667 170.582 706.183 168.098 706.183 165.859ZM694.91 176.992H714.363V174.648H694.91V176.992ZM697.136 182.312C697.136 184.785 699.937 186.18 704.613 186.18C709.218 186.18 712.019 184.785 712.042 182.312C712.019 179.805 709.218 178.434 704.613 178.445C699.937 178.434 697.136 179.805 697.136 182.312ZM700.183 182.312C700.171 181.211 701.66 180.707 704.613 180.695C707.507 180.707 709.031 181.211 709.042 182.312C709.031 183.402 707.507 183.906 704.613 183.906C701.66 183.906 700.171 183.402 700.183 182.312ZM733.271 164.852H730.271V180.18H733.271V164.852ZM715.74 171.578C715.74 174.754 718.295 176.992 721.576 176.992C724.845 176.992 727.4 174.754 727.412 171.578C727.4 168.449 724.845 166.199 721.576 166.211C718.295 166.199 715.74 168.449 715.74 171.578ZM718.67 171.578C718.646 169.844 719.9 168.801 721.576 168.812C723.193 168.801 724.447 169.844 724.459 171.578C724.447 173.359 723.193 174.391 721.576 174.391C719.9 174.391 718.646 173.359 718.67 171.578ZM718.974 185.781H733.834V183.391H721.998V178.633H718.974V185.781Z" fill="#374151"/>
</g>
<g filter="url(#filter3_dd_610_26844)">
<rect x="840" y="138" width="212" height="72" rx="4" fill="white"/>
<path d="M910.041 164.828H907.065V186.156H910.041V164.828ZM892.205 180.133L892.604 182.57C896.401 182.582 901.428 182.535 906.104 181.727L905.893 179.523C904.182 179.746 902.389 179.887 900.596 179.969V178.27C902.94 177.836 904.463 176.383 904.463 174.391C904.463 172.012 902.26 170.383 899.096 170.383C895.955 170.383 893.787 172.012 893.799 174.391C893.787 176.395 895.311 177.848 897.643 178.27V180.074C895.698 180.121 893.834 180.121 892.205 180.133ZM892.627 169.539H905.588V167.195H900.62V164.922H897.643V167.195H892.627V169.539ZM896.635 174.391C896.623 173.289 897.643 172.668 899.096 172.656C900.596 172.668 901.604 173.289 901.604 174.391C901.604 175.516 900.596 176.125 899.096 176.125C897.643 176.125 896.623 175.516 896.635 174.391ZM919.528 166.258C916.165 166.246 913.587 168.426 913.598 171.484C913.587 174.555 916.165 176.723 919.528 176.734C922.915 176.723 925.422 174.555 925.434 171.484C925.422 168.426 922.915 166.246 919.528 166.258ZM912.708 179.406L913.059 181.844C916.786 181.844 921.848 181.809 926.583 180.883L926.348 178.727C921.79 179.371 916.516 179.418 912.708 179.406ZM916.575 171.484C916.563 169.82 917.84 168.836 919.528 168.836C921.227 168.836 922.516 169.82 922.528 171.484C922.516 173.172 921.227 174.145 919.528 174.133C917.84 174.145 916.563 173.172 916.575 171.484ZM927.567 186.203H930.544V164.828H927.567V186.203ZM950.952 164.828H947.975V175.633H950.952V164.828ZM933.022 173.336L934.499 175.68C937.042 174.918 938.788 173.289 939.749 171.215C940.722 173.113 942.409 174.602 944.858 175.305L946.311 173.008C942.819 172 941.272 169.527 941.296 166.938V165.297H938.179V166.938C938.179 169.586 936.585 172.27 933.022 173.336ZM936.655 178.867H947.999V180.109H936.702V186.016H951.561V183.648H939.632V182.336H950.975V176.547H936.655V178.867ZM976.769 164.828H973.745V186.203H976.769V164.828ZM959.542 173.922C959.531 178.609 961.91 181.539 965.191 181.539C968.402 181.539 970.792 178.609 970.792 173.922C970.792 169.27 968.402 166.328 965.191 166.328C961.91 166.328 959.531 169.27 959.542 173.922ZM962.425 173.922C962.413 170.758 963.527 169.023 965.191 169.023C966.808 169.023 967.898 170.758 967.91 173.922C967.898 177.098 966.808 178.832 965.191 178.82C963.527 178.832 962.413 177.098 962.425 173.922ZM998.865 174.93H994.388V172.398C995.982 171.719 996.884 170.652 996.896 169.258C996.884 166.68 993.849 165.145 989.138 165.133C984.392 165.145 981.357 166.68 981.357 169.258C981.357 170.629 982.236 171.684 983.795 172.375V174.93H979.412V177.32H998.865V174.93ZM981.638 182.266C981.638 184.785 984.439 186.133 989.115 186.133C993.72 186.133 996.521 184.785 996.545 182.266C996.521 179.805 993.72 178.434 989.115 178.445C984.439 178.434 981.638 179.805 981.638 182.266ZM984.474 169.258C984.451 168.062 986.127 167.43 989.138 167.43C992.115 167.43 993.802 168.062 993.802 169.258C993.802 170.43 992.115 171.027 989.138 171.016C986.127 171.027 984.451 170.43 984.474 169.258ZM984.685 182.266C984.673 181.211 986.162 180.707 989.115 180.695C992.009 180.707 993.533 181.211 993.545 182.266C993.533 183.355 992.009 183.906 989.115 183.906C986.162 183.906 984.673 183.355 984.685 182.266ZM986.818 174.93V173.137C987.533 173.219 988.306 173.266 989.138 173.266C989.947 173.266 990.709 173.23 991.412 173.137V174.93H986.818Z" fill="#374151"/>
</g>
<circle cx="154" cy="129" r="20" fill="#008DFF"/>
<path d="M157.023 121.031H153.695L149.5 123.703V126.82L153.391 124.383H153.484V138H157.023V121.031Z" fill="white"/>
<circle cx="418" cy="129" r="20" fill="#008DFF"/>
<path d="M412.512 138H424.652V135.094H417.41V135L419.988 132.492C423.48 129.328 424.418 127.746 424.418 125.812C424.418 122.871 422.004 120.797 418.371 120.797C414.797 120.797 412.336 122.918 412.348 126.234H415.699C415.688 124.605 416.73 123.598 418.324 123.609C419.883 123.598 421.02 124.535 421.02 126.047C421.02 127.395 420.164 128.332 418.582 129.844L412.488 135.445L412.512 138Z" fill="white"/>
<circle cx="682" cy="129" r="20" fill="#008DFF"/>
<path d="M681.953 138.234C685.785 138.234 688.539 136.148 688.516 133.242C688.539 131.121 687.168 129.609 684.672 129.305V129.164C686.57 128.824 687.895 127.477 687.883 125.578C687.895 122.895 685.539 120.797 682 120.797C678.52 120.797 675.895 122.824 675.836 125.742H679.211C679.27 124.441 680.5 123.598 682 123.609C683.5 123.598 684.496 124.488 684.484 125.789C684.496 127.125 683.324 128.039 681.648 128.039H680.078V130.641H681.648C683.641 130.652 684.871 131.625 684.859 133.008C684.871 134.379 683.664 135.316 681.977 135.328C680.336 135.316 679.105 134.484 679.047 133.219H675.484C675.555 136.184 678.227 138.234 681.953 138.234Z" fill="white"/>
<circle cx="946" cy="129" r="20" fill="#008DFF"/>
<path d="M939.168 135H947.418V138H950.77V135H952.926V132.164H950.77V121.031H946.34L939.168 132.211V135ZM942.73 132.164V132.023L947.301 124.898H947.465V132.164H942.73Z" fill="white"/>
<path d="M280 162.5L291.5 174L280 185.5" stroke="#008DFF" stroke-width="3" stroke-linecap="round" stroke-linejoin="round"/>
<path d="M544 162.5L555.5 174L544 185.5" stroke="#008DFF" stroke-width="3" stroke-linecap="round" stroke-linejoin="round"/>
<path d="M808 162.5L819.5 174L808 185.5" stroke="#008DFF" stroke-width="3" stroke-linecap="round" stroke-linejoin="round"/>
<defs>
<filter id="filter0_dd_610_26844" x="40" y="134" width="228" height="88" filterUnits="userSpaceOnUse" color-interpolation-filters="sRGB">
<feFlood flood-opacity="0" result="BackgroundImageFix"/>
<feColorMatrix in="SourceAlpha" type="matrix" values="0 0 0 0 0 0 0 0 0 0 0 0 0 0 0 0 0 0 127 0" result="hardAlpha"/>
<feOffset dy="4"/>
<feGaussianBlur stdDeviation="4"/>
<feColorMatrix type="matrix" values="0 0 0 0 0.458824 0 0 0 0 0.458824 0 0 0 0 0.458824 0 0 0 0.16 0"/>
<feBlend mode="normal" in2="BackgroundImageFix" result="effect1_dropShadow_610_26844"/>
<feColorMatrix in="SourceAlpha" type="matrix" values="0 0 0 0 0 0 0 0 0 0 0 0 0 0 0 0 0 0 127 0" result="hardAlpha"/>
<feOffset dy="1"/>
<feGaussianBlur stdDeviation="1"/>
<feColorMatrix type="matrix" values="0 0 0 0 0.258824 0 0 0 0 0.258824 0 0 0 0 0.258824 0 0 0 0.04 0"/>
<feBlend mode="normal" in2="effect1_dropShadow_610_26844" result="effect2_dropShadow_610_26844"/>
<feBlend mode="normal" in="SourceGraphic" in2="effect2_dropShadow_610_26844" result="shape"/>
</filter>
<filter id="filter1_dd_610_26844" x="304" y="134" width="228" height="88" filterUnits="userSpaceOnUse" color-interpolation-filters="sRGB">
<feFlood flood-opacity="0" result="BackgroundImageFix"/>
<feColorMatrix in="SourceAlpha" type="matrix" values="0 0 0 0 0 0 0 0 0 0 0 0 0 0 0 0 0 0 127 0" result="hardAlpha"/>
<feOffset dy="4"/>
<feGaussianBlur stdDeviation="4"/>
<feColorMatrix type="matrix" values="0 0 0 0 0.458824 0 0 0 0 0.458824 0 0 0 0 0.458824 0 0 0 0.16 0"/>
<feBlend mode="normal" in2="BackgroundImageFix" result="effect1_dropShadow_610_26844"/>
<feColorMatrix in="SourceAlpha" type="matrix" values="0 0 0 0 0 0 0 0 0 0 0 0 0 0 0 0 0 0 127 0" result="hardAlpha"/>
<feOffset dy="1"/>
<feGaussianBlur stdDeviation="1"/>
<feColorMatrix type="matrix" values="0 0 0 0 0.258824 0 0 0 0 0.258824 0 0 0 0 0.258824 0 0 0 0.04 0"/>
<feBlend mode="normal" in2="effect1_dropShadow_610_26844" result="effect2_dropShadow_610_26844"/>
<feBlend mode="normal" in="SourceGraphic" in2="effect2_dropShadow_610_26844" result="shape"/>
</filter>
<filter id="filter2_dd_610_26844" x="568" y="134" width="228" height="88" filterUnits="userSpaceOnUse" color-interpolation-filters="sRGB">
<feFlood flood-opacity="0" result="BackgroundImageFix"/>
<feColorMatrix in="SourceAlpha" type="matrix" values="0 0 0 0 0 0 0 0 0 0 0 0 0 0 0 0 0 0 127 0" result="hardAlpha"/>
<feOffset dy="4"/>
<feGaussianBlur stdDeviation="4"/>
<feColorMatrix type="matrix" values="0 0 0 0 0.458824 0 0 0 0 0.458824 0 0 0 0 0.458824 0 0 0 0.16 0"/>
<feBlend mode="normal" in2="BackgroundImageFix" result="effect1_dropShadow_610_26844"/>
<feColorMatrix in="SourceAlpha" type="matrix" values="0 0 0 0 0 0 0 0 0 0 0 0 0 0 0 0 0 0 127 0" result="hardAlpha"/>
<feOffset dy="1"/>
<feGaussianBlur stdDeviation="1"/>
<feColorMatrix type="matrix" values="0 0 0 0 0.258824 0 0 0 0 0.258824 0 0 0 0 0.258824 0 0 0 0.04 0"/>
<feBlend mode="normal" in2="effect1_dropShadow_610_26844" result="effect2_dropShadow_610_26844"/>
<feBlend mode="normal" in="SourceGraphic" in2="effect2_dropShadow_610_26844" result="shape"/>
</filter>
<filter id="filter3_dd_610_26844" x="832" y="134" width="228" height="88" filterUnits="userSpaceOnUse" color-interpolation-filters="sRGB">
<feFlood flood-opacity="0" result="BackgroundImageFix"/>
<feColorMatrix in="SourceAlpha" type="matrix" values="0 0 0 0 0 0 0 0 0 0 0 0 0 0 0 0 0 0 127 0" result="hardAlpha"/>
<feOffset dy="4"/>
<feGaussianBlur stdDeviation="4"/>
<feColorMatrix type="matrix" values="0 0 0 0 0.458824 0 0 0 0 0.458824 0 0 0 0 0.458824 0 0 0 0.16 0"/>
<feBlend mode="normal" in2="BackgroundImageFix" result="effect1_dropShadow_610_26844"/>
<feColorMatrix in="SourceAlpha" type="matrix" values="0 0 0 0 0 0 0 0 0 0 0 0 0 0 0 0 0 0 127 0" result="hardAlpha"/>
<feOffset dy="1"/>
<feGaussianBlur stdDeviation="1"/>
<feColorMatrix type="matrix" values="0 0 0 0 0.258824 0 0 0 0 0.258824 0 0 0 0 0.258824 0 0 0 0.04 0"/>
<feBlend mode="normal" in2="effect1_dropShadow_610_26844" result="effect2_dropShadow_610_26844"/>
<feBlend mode="normal" in="SourceGraphic" in2="effect2_dropShadow_610_26844" result="shape"/>
</filter>
</defs>
</svg>
