<svg width="144" height="144" viewBox="0 0 144 144" fill="none" xmlns="http://www.w3.org/2000/svg">
<g clip-path="url(#clip0_278_10579)">
<rect width="144" height="144" rx="72" fill="white"/>
<rect x="108" y="115.2" width="2.06397" height="33.0235" rx="1.03198" transform="rotate(-35.5596 108 115.2)" fill="#222222"/>
<circle cx="107.527" cy="44.3796" r="4.6919" transform="rotate(-35.5596 107.527 44.3796)" stroke="#008DFF" stroke-width="3"/>
<circle cx="65.183" cy="54.3528" r="4.6919" transform="rotate(-35.5596 65.183 54.3528)" stroke="#008DFF" stroke-width="3"/>
<circle cx="43.8441" cy="93.7097" r="4.6919" transform="rotate(-35.5596 43.8441 93.7097)" stroke="#008DFF" stroke-width="3"/>
<circle cx="67.83" cy="74.0264" r="4.12793" transform="rotate(-35.5596 67.83 74.0264)" fill="#008DFF"/>
<circle cx="64.4513" cy="23.1621" r="4.12793" transform="rotate(-35.5596 64.4513 23.1621)" fill="#008DFF"/>
<circle cx="28.955" cy="58.6856" r="4.12793" transform="rotate(-35.5596 28.955 58.6856)" fill="#008DFF"/>
<path fill-rule="evenodd" clip-rule="evenodd" d="M39.3817 74.7148C40.1335 74.3077 41.0729 74.5872 41.48 75.339C41.6427 75.6395 42.008 76.0011 42.5128 76.0982C42.962 76.1847 43.9072 76.133 45.4064 74.841C46.4166 73.9704 47.4527 73.4277 48.512 73.2798C49.6042 73.1274 50.5638 73.4174 51.3349 73.9291C52.7718 74.8827 53.5347 76.5749 53.847 77.6953C54.0766 78.5188 53.595 79.3725 52.7715 79.602C51.948 79.8316 51.0943 79.35 50.8647 78.5265C50.6365 77.7077 50.1569 76.863 49.623 76.5087C49.4086 76.3664 49.2007 76.3097 48.94 76.346C48.6464 76.387 48.1442 76.5686 47.4275 77.1863C45.4728 78.8708 43.5991 79.46 41.9277 79.1384C40.312 78.8274 39.2551 77.732 38.7575 76.8131C38.3505 76.0613 38.6299 75.1219 39.3817 74.7148Z" fill="#222222"/>
<path fill-rule="evenodd" clip-rule="evenodd" d="M84.4718 50.894C83.8898 51.5202 83.9257 52.4997 84.5519 53.0817C84.8023 53.3143 85.0612 53.7583 85.0291 54.2714C85.0006 54.7279 84.7144 55.6303 83.0889 56.7592C81.9935 57.5198 81.2091 58.3875 80.8013 59.3763C80.3809 60.3957 80.4219 61.3973 80.7247 62.2718C81.2891 63.9014 82.737 65.0629 83.7439 65.6452C84.484 66.0732 85.4309 65.8202 85.8589 65.0801C86.2869 64.3401 86.0339 63.3932 85.2938 62.9651C84.558 62.5396 83.8599 61.8641 83.6502 61.2586C83.566 61.0155 83.563 60.8 83.6634 60.5567C83.7764 60.2826 84.0777 59.8417 84.8548 59.302C86.9743 57.8302 88.0129 56.1631 88.119 54.4644C88.2216 52.8222 87.4249 51.5251 86.6595 50.8138C86.0333 50.2318 85.0538 50.2677 84.4718 50.894Z" fill="#222222"/>
<path fill-rule="evenodd" clip-rule="evenodd" d="M86.5627 26.1569C85.763 26.4592 85.3599 27.3526 85.6622 28.1523C85.7831 28.472 85.8176 28.9847 85.5609 29.4301C85.3325 29.8264 84.675 30.5076 82.7172 30.7964C81.3979 30.991 80.3096 31.4196 79.5048 32.1242C78.6751 32.8505 78.2667 33.766 78.1494 34.684C77.9307 36.3946 78.7116 38.0786 79.3548 39.0477C79.8275 39.7601 80.7882 39.9543 81.5005 39.4815C82.2128 39.0088 82.4071 38.0481 81.9343 37.3358C81.4642 36.6275 81.1391 35.7122 81.2204 35.0766C81.253 34.8214 81.346 34.627 81.5441 34.4536C81.7672 34.2583 82.233 33.9973 83.169 33.8592C85.7218 33.4826 87.3931 32.4508 88.2431 30.9763C89.0649 29.5507 88.9276 28.0347 88.5581 27.0574C88.2557 26.2577 87.3624 25.8545 86.5627 26.1569Z" fill="#222222"/>
<path d="M115.659 118.842C116.134 122.064 112.764 124.474 109.869 122.981L66.9434 100.851C64.2841 99.4795 64.0162 95.7811 66.4502 94.0412L102.327 68.3945C104.761 66.6545 108.173 68.1048 108.61 71.0647L115.659 118.842Z" fill="#008DFF"/>
<mask id="mask0_278_10579" style="mask-type:alpha" maskUnits="userSpaceOnUse" x="64" y="67" width="52" height="57">
<path d="M115.659 118.842C116.134 122.064 112.764 124.474 109.869 122.981L66.9434 100.851C64.2841 99.4795 64.0162 95.7811 66.4502 94.0412L102.327 68.3945C104.761 66.6545 108.173 68.1048 108.61 71.0647L115.659 118.842Z" fill="#1852FD"/>
</mask>
<g mask="url(#mask0_278_10579)">
<circle cx="97.5917" cy="99.6874" r="3.09595" transform="rotate(-35.5596 97.5917 99.6874)" fill="white"/>
<circle cx="110.906" cy="95.2439" r="4.6919" transform="rotate(-35.5596 110.906 95.2439)" stroke="white" stroke-width="3"/>
<circle cx="97.5915" cy="99.6874" r="3.09595" transform="rotate(-35.5596 97.5915 99.6874)" fill="white"/>
<circle cx="99.0378" cy="117.682" r="4.12793" transform="rotate(-35.5596 99.0378 117.682)" fill="white"/>
<path fill-rule="evenodd" clip-rule="evenodd" d="M76.9601 106.839C77.7119 106.432 78.6513 106.712 79.0584 107.463C79.2211 107.764 79.5864 108.126 80.0911 108.223C80.5403 108.309 81.4856 108.257 82.9848 106.966C83.995 106.095 85.0311 105.552 86.0904 105.404C87.1825 105.252 88.1421 105.542 88.9132 106.054C90.3502 107.007 91.1131 108.699 91.4254 109.82C91.6549 110.643 91.1734 111.497 90.3499 111.727C89.5263 111.956 88.6727 111.475 88.4431 110.651C88.2149 109.832 87.7352 108.987 87.2013 108.633C86.987 108.491 86.7791 108.434 86.5183 108.471C86.2248 108.512 85.7226 108.693 85.0058 109.311C83.0511 110.995 81.1775 111.585 79.5061 111.263C77.8903 110.952 76.8334 109.856 76.3359 108.938C75.9288 108.186 76.2083 107.246 76.9601 106.839Z" fill="white"/>
<path fill-rule="evenodd" clip-rule="evenodd" d="M94.6213 80.0187C93.8216 80.321 93.4185 81.2144 93.7208 82.0141C93.8417 82.3338 93.8762 82.8466 93.6195 83.2919C93.3911 83.6882 92.7336 84.3694 90.7758 84.6582C89.4565 84.8528 88.3682 85.2814 87.5634 85.986C86.7337 86.7123 86.3253 87.6278 86.208 88.5458C85.9893 90.2565 86.7702 91.9404 87.4134 92.9095C87.8861 93.6219 88.8468 93.8161 89.5591 93.3433C90.2714 92.8706 90.4657 91.9099 89.9929 91.1976C89.5228 90.4893 89.1977 89.574 89.2789 88.9384C89.3116 88.6832 89.4046 88.4888 89.6027 88.3154C89.8257 88.1201 90.2916 87.8591 91.2276 87.721C93.7804 87.3444 95.4517 86.3126 96.3017 84.8381C97.1235 83.4125 96.9862 81.8965 96.6167 80.9192C96.3143 80.1195 95.421 79.7163 94.6213 80.0187Z" fill="white"/>
<path fill-rule="evenodd" clip-rule="evenodd" d="M114.45 104.68C113.601 104.776 112.99 105.542 113.085 106.392C113.124 106.731 113.031 107.237 112.672 107.605C112.353 107.933 111.548 108.431 109.579 108.228C108.253 108.091 107.092 108.238 106.139 108.722C105.156 109.221 104.534 110.008 104.194 110.869C103.56 112.473 103.901 114.297 104.286 115.395C104.568 116.202 105.451 116.627 106.258 116.344C107.065 116.062 107.49 115.179 107.208 114.372C106.927 113.57 106.838 112.602 107.073 112.006C107.168 111.767 107.306 111.602 107.541 111.483C107.805 111.348 108.321 111.21 109.262 111.307C111.829 111.572 113.703 110.984 114.89 109.765C116.038 108.586 116.279 107.083 116.162 106.045C116.066 105.195 115.3 104.584 114.45 104.68Z" fill="white"/>
<path fill-rule="evenodd" clip-rule="evenodd" d="M116.382 77.5093C115.54 77.361 114.737 77.9232 114.589 78.7652C114.53 79.1018 114.298 79.5603 113.849 79.8121C113.451 80.0362 112.538 80.2862 110.707 79.5348C109.473 79.0285 108.318 78.8413 107.267 79.0361C106.182 79.237 105.364 79.8156 104.794 80.5449C103.733 81.9041 103.544 83.7507 103.602 84.9124C103.645 85.7662 104.372 86.4238 105.226 86.381C106.08 86.3383 106.737 85.6115 106.694 84.7576C106.652 83.9086 106.84 82.9556 107.234 82.4506C107.393 82.2478 107.572 82.1282 107.831 82.0803C108.122 82.0263 108.656 82.0397 109.531 82.3989C111.918 83.3786 113.882 83.3449 115.366 82.5111C116.801 81.7051 117.457 80.3315 117.638 79.3025C117.786 78.4605 117.224 77.6577 116.382 77.5093Z" fill="white"/>
</g>
</g>
<rect x="0.5" y="0.5" width="143" height="143" rx="71.5" stroke="#EEEEEE"/>
<defs>
<clipPath id="clip0_278_10579">
<rect width="144" height="144" rx="72" fill="white"/>
</clipPath>
</defs>
</svg>
