<svg width="164" height="164" viewBox="0 0 164 164" fill="none" xmlns="http://www.w3.org/2000/svg">
<rect width="164" height="164" rx="4" fill="white"/>
<path fill-rule="evenodd" clip-rule="evenodd" d="M126.631 61.8492C128.193 60.2871 128.193 57.7545 126.631 56.1924L120.267 49.8284C118.705 48.2663 116.173 48.2663 114.61 49.8284L71.477 92.9619L48.8496 70.3345C47.2875 68.7724 44.7549 68.7724 43.1928 70.3345L36.8288 76.6985C35.2667 78.2606 35.2667 80.7933 36.8288 82.3554L59.4561 104.983L68.6485 114.175C69.039 114.566 69.4902 114.859 69.9717 115.054C70.8829 115.423 71.9028 115.443 72.8257 115.113C73.3659 114.92 73.8729 114.608 74.3055 114.175L83.4978 104.983L126.631 61.8492Z" fill="#008DFF"/>
</svg>
