<svg width="328" height="480" viewBox="0 0 328 480" fill="none" xmlns="http://www.w3.org/2000/svg">
<circle cx="28" cy="39" r="12" fill="#008DFF"/>
<path d="M65.7278 44.1406H60.1809V41.2344H64.2747V34.2656H54.0872V41.2344H58.1966V44.1406H52.7122V45.7812H65.7278V44.1406ZM56.0559 39.6719V35.8594H62.3059V39.6719H56.0559ZM74.7866 34H66.9741V35.5938H69.8881C69.7944 37.2031 68.6928 38.7891 66.4272 39.4375L67.4272 41C69.1147 40.4844 70.2866 39.4141 70.9272 38.0703C71.5756 39.3047 72.7084 40.2812 74.3334 40.75L75.3334 39.2031C73.1147 38.5938 72.0288 37.1016 71.935 35.5938H74.7866V34ZM68.7709 47.2812H78.2866V41.5312H76.3022V42.8594H70.7397V41.5312H68.7709V47.2812ZM70.7397 45.6875V44.4062H76.3022V45.6875H70.7397ZM76.2866 40.9375H78.2866V33.2188H76.2866V40.9375ZM89.9822 42.0781C86.8963 42.0781 84.9119 43.0625 84.9197 44.7656C84.9119 46.4453 86.8963 47.4453 89.9822 47.4375C93.0916 47.4453 95.0447 46.4453 95.0603 44.7656C95.0447 43.0625 93.0916 42.0781 89.9822 42.0781ZM83.6072 41.1719H96.5134V39.5625H90.4197V37.0781H88.4509V39.5625H83.6072V41.1719ZM85.0603 35.4219H92.9978C92.9822 36.3906 92.9431 37.3516 92.6228 38.6406L94.5759 38.8281C94.99 37.3672 94.99 36.1484 94.9822 35.0156V33.8594H85.0603V35.4219ZM86.9041 44.7656C86.8963 43.9766 88.0213 43.5547 89.9822 43.5625C91.9431 43.5547 93.0759 43.9766 93.0759 44.7656C93.0759 45.5312 91.9431 45.9219 89.9822 45.9219C88.0213 45.9219 86.8963 45.5312 86.9041 44.7656ZM108.963 34.4531H98.5878V36.0312H106.963C106.955 37.7031 106.932 39.7031 106.385 42.3906L108.385 42.5938C108.955 39.5781 108.955 37.5781 108.963 35.7969V34.4531ZM97.2441 45.7031H110.213V44.0781H103.869V39.1875H101.885V44.0781H97.2441V45.7031ZM122.112 34.0781H115.158V40.0625H122.112V34.0781ZM115.908 45.9062L116.596 47.4062C118.971 47.1797 120.666 46.3438 121.541 45.2188C122.408 46.3281 124.088 47.1875 126.455 47.4062L127.127 45.9062C124.307 45.6328 122.815 44.5156 122.596 43.5469H126.58V42.0625H122.533V40.8906H120.533V42.0625H116.487V43.5469H120.471C120.252 44.5469 118.752 45.6719 115.908 45.9062ZM117.127 38.5V35.625H120.127V38.5H117.127ZM124.346 41.2812H126.33V33.2188H124.346V41.2812ZM136.823 35.4531V33.9688H134.823V35.2656C134.807 37.2266 133.792 39.1172 131.417 39.9062L132.495 41.4688C134.12 40.9219 135.221 39.7969 135.838 38.3672C136.448 39.6094 137.503 40.5781 139.01 41.0781L140.073 39.5312C137.823 38.8359 136.815 37.1797 136.823 35.4531ZM133.385 44.6875C133.378 46.4297 135.26 47.4453 138.26 47.4375C141.206 47.4453 143.049 46.4297 143.057 44.6875C143.049 42.9609 141.206 41.9375 138.26 41.9375C135.26 41.9375 133.378 42.9609 133.385 44.6875ZM135.385 44.6875C135.37 43.9141 136.393 43.5 138.26 43.5C140.104 43.5 141.088 43.9141 141.088 44.6875C141.088 45.4922 140.104 45.875 138.26 45.875C136.393 45.875 135.37 45.4922 135.385 44.6875ZM140.917 41.6562H142.917V38.2031H144.838V36.5469H142.917V33.2188H140.917V41.6562ZM156.585 33.2188H154.585V41.2031H156.585V38.0625H158.507V36.4219H156.585V33.2188ZM145.85 40.6719H147.053C150.202 40.6719 151.842 40.6172 153.632 40.2031L153.428 38.6406C151.842 38.9609 150.428 39.0625 147.85 39.0781V35.6875H152.194V34.1094H145.85V40.6719ZM147.288 47.2656H156.585V41.7969H147.288V47.2656ZM149.257 45.7031V43.375H154.616V45.7031H149.257Z" fill="#4B5563"/>
<circle cx="28" cy="120.5" r="12" fill="#008DFF"/>
<path d="M64.3822 103.219H62.3822V110.859H64.3822V103.219ZM52.6947 107.188C52.6947 109.125 54.3666 110.516 56.5853 110.516C58.7962 110.516 60.4681 109.125 60.4759 107.188C60.4681 105.188 58.7962 103.797 56.5853 103.812C54.3666 103.797 52.6947 105.188 52.6947 107.188ZM54.6478 107.188C54.6322 106.117 55.4447 105.461 56.5853 105.469C57.6947 105.461 58.4994 106.117 58.5072 107.188C58.4994 108.242 57.6947 108.875 56.5853 108.875C55.4447 108.875 54.6322 108.242 54.6478 107.188ZM54.8666 117.281H64.3822V111.484H62.3978V112.812H56.8353V111.484H54.8666V117.281ZM56.8353 115.672V114.359H62.3978V115.672H56.8353ZM79.1128 111.062H66.1441V112.656H71.6128V117.438H73.5816V112.656H79.1128V111.062ZM66.7847 108.672L67.5191 110.234C69.9956 109.898 71.7691 108.836 72.6362 107.375C73.4956 108.836 75.2847 109.898 77.7847 110.234L78.5034 108.672C75.5816 108.32 74.0112 106.93 73.8081 105.531H77.9566V103.969H67.3159V105.531H71.4644C71.2534 106.93 69.6597 108.32 66.7847 108.672ZM95.2459 103.234H93.2459V113.609H95.2459V103.234ZM83.2928 110.094L84.3241 111.672C85.9881 111.102 87.1209 109.93 87.7616 108.477C88.3944 109.828 89.4959 110.891 91.1053 111.422L92.1209 109.859C89.785 109.109 88.7772 107.273 88.7928 105.391V104.016H86.7147V105.391C86.7147 107.32 85.6756 109.297 83.2928 110.094ZM85.7147 117.188H95.6209V115.594H87.7303V112.609H85.7147V117.188ZM105.117 104.703H102.273V103.156H100.258V104.703H97.3984V106.266H100.258C100.242 107.875 99.1875 109.5 96.9141 110.156L97.8516 111.703C99.5312 111.219 100.672 110.18 101.289 108.867C101.938 110.023 103.07 110.922 104.695 111.328L105.617 109.797C103.328 109.211 102.266 107.727 102.242 106.266H105.117V104.703ZM99.2422 114.719C99.2422 116.445 101.117 117.445 104.133 117.438C107.164 117.445 109.031 116.445 109.039 114.719C109.031 113.016 107.164 112.055 104.133 112.047C101.117 112.055 99.2422 113.016 99.2422 114.719ZM101.227 114.719C101.227 113.961 102.25 113.578 104.133 113.578C106.055 113.578 107.047 113.961 107.055 114.719C107.047 115.5 106.055 115.922 104.133 115.922C102.25 115.922 101.227 115.5 101.227 114.719ZM104.695 108.625H107.008V111.812H108.992V103.219H107.008V107.031H104.695V108.625ZM116.051 106.438V104.312H114.035V106.438C114.02 109.109 112.91 111.852 110.473 112.953L111.723 114.578C113.348 113.781 114.442 112.25 115.051 110.383C115.645 112.141 116.707 113.562 118.285 114.328L119.504 112.734C117.137 111.711 116.059 109.109 116.051 106.438ZM117.91 109.297H120.707V117.469H122.676V103.219H120.707V107.688H117.91V109.297ZM139.856 103.219H137.872V106.406H135.622V108.031H137.872V111H139.856V103.219ZM127.793 109.688L128.809 111.25C130.489 110.703 131.622 109.562 132.254 108.141C132.872 109.414 133.957 110.438 135.528 110.953L136.512 109.422C134.364 108.711 133.34 107.07 133.254 105.484H136.075V103.859H128.356V105.484H131.207C131.106 107.219 130.036 108.938 127.793 109.688ZM130.372 117.281H139.856V111.547H137.872V112.891H132.34V111.547H130.372V117.281ZM132.34 115.688V114.422H137.872V115.688H132.34ZM149.087 104.328V103.641H146.993V104.328C146.985 106.008 145.274 107.859 142.04 108.266L142.837 109.875C145.29 109.516 147.102 108.359 148.04 106.828C148.969 108.367 150.79 109.516 153.274 109.875L154.055 108.266C150.798 107.859 149.079 106.008 149.087 104.328ZM141.54 112.578H147.008V117.438H148.977V112.578H154.508V110.953H141.54V112.578Z" fill="#4B5563"/>
<path d="M53.3937 135.484C53.3937 137.564 53.9504 139.293 54.9992 140.77H56.1477C55.3332 139.674 54.6887 137.453 54.6828 135.484C54.6887 133.516 55.3332 131.289 56.1477 130.199H54.9992C53.9504 131.676 53.3937 133.404 53.3937 135.484ZM65.2269 136.832H57.973V139.867H65.2269V136.832ZM56.8245 136.117H66.3987V135.238H62.1683V134.523C64.0316 134.447 65.057 133.949 65.0511 133.047C65.057 132.068 63.8206 131.564 61.6058 131.559C59.4027 131.564 58.1546 132.068 58.1605 133.047C58.1546 133.949 59.1976 134.447 61.055 134.523V135.238H56.8245V136.117ZM57.3167 131.184H65.8597V130.328H62.1683V129.355H61.055V130.328H57.3167V131.184ZM59.0745 139.012V137.688H64.1487V139.012H59.0745ZM59.3441 133.047C59.3382 132.566 60.1409 132.332 61.6058 132.32C63.0823 132.332 63.8675 132.566 63.8675 133.047C63.8675 133.521 63.0823 133.773 61.6058 133.773C60.1409 133.773 59.3382 133.521 59.3441 133.047ZM76.1577 129.496H75.0912V139.996H76.1577V129.496ZM66.9584 136.527L67.0873 137.465C68.4467 137.465 70.6264 137.418 72.2905 137.09L72.2084 136.281C71.892 136.322 71.5463 136.363 71.1889 136.393V131.699H71.9975V130.785H67.1811V131.699H67.9897V136.521C67.6147 136.527 67.2631 136.527 66.9584 136.527ZM68.9975 136.504V131.699H70.1577V136.463C69.7709 136.48 69.3784 136.498 68.9975 136.504ZM71.7162 134.43H73.0287V139.457H74.0834V129.73H73.0287V133.434H71.7162V134.43ZM86.022 129.496H84.9087V140.02H86.022V129.496ZM77.69 133.961C77.69 136.229 78.8209 137.658 80.4087 137.652C81.9673 137.658 83.1158 136.229 83.1158 133.961C83.1158 131.717 81.9673 130.287 80.4087 130.281C78.8209 130.287 77.69 131.717 77.69 133.961ZM78.7681 133.961C78.7623 132.314 79.4302 131.283 80.4087 131.277C81.3697 131.283 82.0377 132.314 82.0377 133.961C82.0377 135.631 81.3697 136.656 80.4087 136.656C79.4302 136.656 78.7623 135.631 78.7681 133.961ZM91.445 132.59V131.477H93.8356V130.551H87.9177V131.477H90.32V132.59C90.3083 134.4 89.1364 136.369 87.5544 137.113L88.1989 137.992C89.4235 137.395 90.4079 136.117 90.8942 134.617C91.3805 136.018 92.3649 137.178 93.6012 137.723L94.2106 136.855C92.5934 136.164 91.4391 134.348 91.445 132.59ZM95.1598 139.996H96.2731V129.496H95.1598V139.996ZM100.606 135.484C100.606 133.404 100.05 131.676 99.0008 130.199H97.8523C98.6668 131.295 99.3113 133.516 99.3172 135.484C99.3113 137.453 98.6668 139.68 97.8523 140.77H99.0008C100.05 139.293 100.606 137.564 100.606 135.484Z" fill="#4B5563"/>
<circle cx="28" cy="199" r="12" fill="#008DFF"/>
<path d="M64.6184 193.219H62.6184V200.859H64.6184V193.219ZM52.9309 197.188C52.9309 199.125 54.6028 200.516 56.8216 200.516C59.0325 200.516 60.7044 199.125 60.7122 197.188C60.7044 195.188 59.0325 193.797 56.8216 193.812C54.6028 193.797 52.9309 195.188 52.9309 197.188ZM54.8841 197.188C54.8684 196.117 55.6809 195.461 56.8216 195.469C57.9309 195.461 58.7356 196.117 58.7434 197.188C58.7356 198.242 57.9309 198.875 56.8216 198.875C55.6809 198.875 54.8684 198.242 54.8841 197.188ZM55.1028 207.281H64.6184V201.484H62.6341V202.812H57.0716V201.484H55.1028V207.281ZM57.0716 205.672V204.359H62.6341V205.672H57.0716ZM79.3491 201.062H66.3803V202.656H71.8491V207.438H73.8178V202.656H79.3491V201.062ZM67.0209 198.672L67.7553 200.234C70.2319 199.898 72.0053 198.836 72.8725 197.375C73.7319 198.836 75.5209 199.898 78.0209 200.234L78.7397 198.672C75.8178 198.32 74.2475 196.93 74.0444 195.531H78.1928V193.969H67.5522V195.531H71.7006C71.4897 196.93 69.8959 198.32 67.0209 198.672ZM95.4822 193.234H93.4822V201.25H95.4822V193.234ZM83.5291 199.438L84.4978 201C86.1931 200.469 87.3494 199.375 87.9978 197.992C88.6384 199.266 89.7634 200.25 91.3884 200.734L92.3572 199.219C90.0603 198.508 89.0134 196.852 89.0291 195.125V193.75H86.9509V195.125C86.9509 196.898 85.9119 198.719 83.5291 199.438ZM85.9509 207.281H95.4822V201.906H85.9509V207.281ZM87.9197 205.688V203.484H93.5291V205.688H87.9197ZM102.478 196.438V194.312H100.478V196.438C100.478 199.078 99.3456 201.797 96.9316 202.906L98.1659 204.516C99.7753 203.719 100.869 202.211 101.494 200.375C102.08 202.086 103.111 203.492 104.635 204.25L105.838 202.656C103.557 201.555 102.471 198.984 102.478 196.438ZM106.463 207.438H108.463V200.391H110.557V198.703H108.463V193.219H106.463V207.438ZM122.112 194.078H115.158V200.062H122.112V194.078ZM115.908 205.906L116.596 207.406C118.971 207.18 120.666 206.344 121.541 205.219C122.408 206.328 124.088 207.188 126.455 207.406L127.127 205.906C124.307 205.633 122.815 204.516 122.596 203.547H126.58V202.062H122.533V200.891H120.533V202.062H116.487V203.547H120.471C120.252 204.547 118.752 205.672 115.908 205.906ZM117.127 198.5V195.625H120.127V198.5H117.127ZM124.346 201.281H126.33V193.219H124.346V201.281ZM136.963 195.656V194.094H134.948V195.641C134.94 197.68 133.917 199.625 131.542 200.406L132.62 201.969C134.268 201.375 135.378 200.211 135.987 198.719C136.588 200.039 137.628 201.086 139.135 201.641L140.213 200.078C137.948 199.32 136.963 197.492 136.963 195.656ZM134.151 207.188H143.917V205.594H136.167V202.625H134.151V207.188ZM138.963 197.859H141.635V203.734H143.62V193.234H141.635V196.25H138.963V197.859ZM157.288 193.219H155.303V196.688H153.085V198.297H155.303V201.656H157.288V193.219ZM145.21 200.094L146.241 201.672C147.928 201.094 149.069 199.93 149.694 198.484C150.311 199.758 151.397 200.789 152.96 201.297L153.944 199.734C151.733 199 150.717 197.328 150.678 195.672H153.507V194.078H145.788V195.672H148.647C148.6 197.453 147.538 199.312 145.21 200.094ZM147.538 204.719C147.538 206.445 149.397 207.453 152.428 207.453C155.467 207.453 157.327 206.445 157.335 204.719C157.327 202.992 155.467 201.977 152.428 201.969C149.397 201.977 147.538 202.992 147.538 204.719ZM149.522 204.719C149.522 203.898 150.546 203.492 152.428 203.5C154.319 203.492 155.342 203.898 155.35 204.719C155.342 205.531 154.319 205.938 152.428 205.938C150.546 205.938 149.522 205.531 149.522 204.719Z" fill="#4B5563"/>
<circle cx="28" cy="279" r="12" fill="#008DFF"/>
<path d="M64.48 273.219H62.48V280.859H64.48V273.219ZM52.7925 277.188C52.7925 279.125 54.4644 280.516 56.6831 280.516C58.8941 280.516 60.5659 279.125 60.5737 277.188C60.5659 275.188 58.8941 273.797 56.6831 273.812C54.4644 273.797 52.7925 275.188 52.7925 277.188ZM54.7456 277.188C54.73 276.117 55.5425 275.461 56.6831 275.469C57.7925 275.461 58.5972 276.117 58.605 277.188C58.5972 278.242 57.7925 278.875 56.6831 278.875C55.5425 278.875 54.73 278.242 54.7456 277.188ZM54.9644 287.281H64.48V281.484H62.4956V282.812H56.9331V281.484H54.9644V287.281ZM56.9331 285.672V284.359H62.4956V285.672H56.9331ZM79.2106 281.062H66.2419V282.656H71.7106V287.438H73.6794V282.656H79.2106V281.062ZM66.8825 278.672L67.6169 280.234C70.0934 279.898 71.8669 278.836 72.7341 277.375C73.5934 278.836 75.3825 279.898 77.8825 280.234L78.6012 278.672C75.6794 278.32 74.1091 276.93 73.9059 275.531H78.0544V273.969H67.4137V275.531H71.5622C71.3512 276.93 69.7575 278.32 66.8825 278.672ZM87.4256 273.906V273.438H85.3787V273.906C85.3631 275.406 83.7069 277.055 80.5506 277.422L81.3006 278.984C83.7225 278.664 85.4881 277.625 86.4022 276.227C87.3162 277.625 89.0897 278.664 91.5037 278.984L92.2225 277.422C89.0819 277.055 87.4256 275.398 87.4256 273.906ZM79.91 281.328H92.8787V279.766H79.91V281.328ZM81.3944 284.875C81.3944 286.523 83.2616 287.453 86.3787 287.453C89.4491 287.453 91.3162 286.523 91.3319 284.875C91.3162 283.203 89.4491 282.289 86.3787 282.297C83.2616 282.289 81.3944 283.203 81.3944 284.875ZM83.4256 284.875C83.4178 284.141 84.41 283.805 86.3787 283.797C88.3084 283.805 89.3241 284.141 89.3319 284.875C89.3241 285.602 88.3084 285.938 86.3787 285.938C84.41 285.938 83.4178 285.602 83.4256 284.875ZM105.484 273.234H103.484V283.453H105.484V273.234ZM93.7969 277.719C93.7969 279.836 95.5 281.328 97.6875 281.328C99.8672 281.328 101.57 279.836 101.578 277.719C101.57 275.633 99.8672 274.133 97.6875 274.141C95.5 274.133 93.7969 275.633 93.7969 277.719ZM95.75 277.719C95.7344 276.562 96.5703 275.867 97.6875 275.875C98.7656 275.867 99.6016 276.562 99.6094 277.719C99.6016 278.906 98.7656 279.594 97.6875 279.594C96.5703 279.594 95.7344 278.906 95.75 277.719ZM95.9531 287.188H105.859V285.594H97.9688V282.422H95.9531V287.188ZM123.743 280.547H118.243V279.672H122.352V278.141H114.368V277.328H121.899V275.891H114.368V275.094H122.227V273.562H112.368V279.672H116.243V280.547H110.743V282.109H123.743V280.547ZM112.258 285.094C112.258 286.625 114.055 287.445 117.243 287.438C120.375 287.445 122.18 286.625 122.196 285.094C122.18 283.594 120.375 282.75 117.243 282.766C114.055 282.75 112.258 283.594 112.258 285.094ZM114.258 285.094C114.243 284.5 115.196 284.227 117.243 284.234C119.243 284.227 120.188 284.5 120.196 285.094C120.188 285.703 119.243 285.969 117.243 285.969C115.196 285.969 114.243 285.703 114.258 285.094ZM137.458 284.156H131.911V281.531H136.004V274.125H134.02V276.328H127.817V274.125H125.817V281.531H129.926V284.156H124.442V285.781H137.458V284.156ZM127.817 279.938V277.922H134.02V279.938H127.817Z" fill="#4B5563"/>
<circle cx="28" cy="360.5" r="12" fill="#008DFF"/>
<path d="M64.48 343.219H62.48V350.859H64.48V343.219ZM52.7925 347.188C52.7925 349.125 54.4644 350.516 56.6831 350.516C58.8941 350.516 60.5659 349.125 60.5737 347.188C60.5659 345.188 58.8941 343.797 56.6831 343.812C54.4644 343.797 52.7925 345.188 52.7925 347.188ZM54.7456 347.188C54.73 346.117 55.5425 345.461 56.6831 345.469C57.7925 345.461 58.5972 346.117 58.605 347.188C58.5972 348.242 57.7925 348.875 56.6831 348.875C55.5425 348.875 54.73 348.242 54.7456 347.188ZM54.9644 357.281H64.48V351.484H62.4956V352.812H56.9331V351.484H54.9644V357.281ZM56.9331 355.672V354.359H62.4956V355.672H56.9331ZM79.2106 351.062H66.2419V352.656H71.7106V357.438H73.6794V352.656H79.2106V351.062ZM66.8825 348.672L67.6169 350.234C70.0934 349.898 71.8669 348.836 72.7341 347.375C73.5934 348.836 75.3825 349.898 77.8825 350.234L78.6012 348.672C75.6794 348.32 74.1091 346.93 73.9059 345.531H78.0544V343.969H67.4137V345.531H71.5622C71.3512 346.93 69.7575 348.32 66.8825 348.672ZM92.2381 343.219H90.3631V357.438H92.2381V343.219ZM79.6912 353.078L80.8631 354.484C83.5194 352.906 84.9725 350.93 85.6366 348.578H87.3787V350.516H85.3631V352.125H87.3787V356.812H89.2694V343.531H87.3787V346.969H85.9647C86.0506 346.305 86.0975 345.617 86.0975 344.906H80.5194V346.516H84.1131C83.8397 349.305 82.5741 351.375 79.6912 353.078ZM106.703 345.094H104.859V343.219H102.859V351.609H104.859V349.812H106.703V348.156H104.859V346.703H106.703V345.094ZM93.6719 347.453C93.6641 349.508 95.3516 350.945 97.5781 350.938C99.7812 350.945 101.453 349.508 101.453 347.453C101.453 345.445 99.7812 343.992 97.5781 344C95.3516 343.992 93.6641 345.445 93.6719 347.453ZM95.2812 353.781H102.859V357.438H104.859V352.172H95.2812V353.781ZM95.6406 347.453C95.625 346.344 96.4609 345.695 97.5781 345.703C98.6719 345.695 99.5078 346.344 99.5156 347.453C99.5078 348.602 98.6719 349.258 97.5781 349.25C96.4609 349.258 95.625 348.602 95.6406 347.453ZM115.211 347.547V347.219H117.446V345.625H115.196V343.703H113.336V345.625H111.039V347.219H113.336V347.547C113.321 349.742 112.563 352.062 110.508 353.25L111.649 354.75C112.938 354 113.789 352.727 114.282 351.219C114.782 352.602 115.633 353.75 116.914 354.406L118.008 352.953C115.985 351.867 115.211 349.703 115.211 347.547ZM116.618 350.234H118.289V356.781H120.164V343.453H118.289V348.609H116.618V350.234ZM121.18 357.438H123.071V343.219H121.18V357.438ZM136.426 343.219H134.442V345H131.754C131.817 344.609 131.848 344.195 131.848 343.766H125.411V345.375H129.637C129.372 347.086 127.872 348.438 124.614 349.078L125.286 350.703C128.434 350.016 130.465 348.648 131.348 346.516H134.442V347.766H131.192V349.281H134.442V350.375H136.426V343.219ZM126.973 352.453H134.426V353.312H126.989V357.297H136.739V355.719H128.989V354.781H136.426V350.891H126.973V352.453Z" fill="#4B5563"/>
<path d="M53.53 375.484C53.53 377.564 54.0866 379.293 55.1355 380.77H56.2839C55.4695 379.674 54.8249 377.453 54.8191 375.484C54.8249 373.516 55.4695 371.289 56.2839 370.199H55.1355C54.0866 371.676 53.53 373.404 53.53 375.484ZM65.6678 369.496H64.5545V375.133H65.6678V369.496ZM57.1717 372.414C57.1776 373.85 58.3612 374.852 59.9725 374.84C61.578 374.852 62.7616 373.85 62.7616 372.414C62.7616 370.973 61.578 369.971 59.9725 369.977C58.3612 369.971 57.1776 370.973 57.1717 372.414ZM58.2616 372.414C58.2557 371.518 58.9764 370.908 59.9725 370.914C60.9569 370.908 61.6717 371.518 61.6717 372.414C61.6717 373.322 60.9569 373.926 59.9725 373.926C58.9764 373.926 58.2557 373.322 58.2616 372.414ZM58.8006 379.867H65.6678V375.637H64.5662V376.82H59.8905V375.637H58.8006V379.867ZM59.8905 378.953V377.699H64.5662V378.953H59.8905ZM76.7861 375.414H67.2119V376.316H71.4306V379.984H72.5205V376.316H76.7861V375.414ZM67.7509 373.738L68.1728 374.617C69.872 374.348 71.3545 373.498 71.999 372.303C72.6377 373.498 74.1259 374.348 75.8486 374.617L76.2587 373.738C74.2724 373.469 72.6552 372.303 72.6377 371.008H75.8837V370.117H68.1025V371.008H71.372C71.3369 372.303 69.708 373.469 67.7509 373.738ZM85.6281 370.105V369.672H84.4914V370.105C84.4855 371.383 82.8156 372.566 80.8 372.812L81.2336 373.691C82.9211 373.445 84.3977 372.631 85.0656 371.482C85.7453 372.619 87.2219 373.445 88.8977 373.691L89.3078 372.812C87.3098 372.566 85.634 371.359 85.6281 370.105ZM80.2727 375.344H89.8469V374.453H80.2727V375.344ZM81.4094 378.109C81.4094 379.311 82.7687 379.99 85.0539 379.996C87.3098 379.99 88.6691 379.311 88.675 378.109C88.6691 376.896 87.3098 376.234 85.0539 376.234C82.7687 376.234 81.4094 376.896 81.4094 378.109ZM82.5344 378.109C82.5285 377.453 83.4484 377.09 85.0539 377.09C86.6359 377.09 87.5617 377.453 87.5617 378.109C87.5617 378.771 86.6359 379.129 85.0539 379.117C83.4484 379.129 82.5285 378.771 82.5344 378.109ZM99.2308 369.508H98.1175V377.137H99.2308V369.508ZM90.7347 372.812C90.7405 374.354 91.9476 375.426 93.5355 375.426C95.1175 375.426 96.3245 374.354 96.3245 372.812C96.3245 371.295 95.1175 370.217 93.5355 370.211C91.9476 370.217 90.7405 371.295 90.7347 372.812ZM91.8245 372.812C91.8187 371.846 92.557 371.184 93.5355 371.184C94.4964 371.184 95.2347 371.846 95.2347 372.812C95.2347 373.803 94.4964 374.453 93.5355 374.453C92.557 374.453 91.8187 373.803 91.8245 372.812ZM92.3636 379.773H99.5472V378.871H93.4886V376.363H92.3636V379.773ZM107.17 370.516H105.905L103.795 371.898V373.129L105.823 371.805H105.87V379H107.17V370.516ZM112.16 379.117C114.123 379.117 115.271 377.535 115.277 374.758C115.271 371.998 114.105 370.398 112.16 370.398C110.209 370.398 109.043 371.998 109.043 374.758C109.043 377.535 110.197 379.117 112.16 379.117ZM110.332 374.758C110.332 372.648 111.017 371.494 112.16 371.488C113.297 371.494 113.988 372.648 113.988 374.758C113.988 376.873 113.302 378.004 112.16 378.004C111.011 378.004 110.326 376.873 110.332 374.758ZM119.106 369.848C117.507 369.859 116.346 370.826 116.341 372.203C116.346 373.586 117.507 374.547 119.106 374.547C120.688 374.547 121.854 373.586 121.86 372.203C121.854 370.826 120.688 369.859 119.106 369.848ZM117.43 372.203C117.425 371.348 118.139 370.773 119.106 370.785C120.067 370.773 120.782 371.348 120.782 372.203C120.782 373.07 120.067 373.645 119.106 373.645C118.139 373.645 117.425 373.07 117.43 372.203ZM117.934 376.211H123.735V377.137H117.97V379.867H125.188V378.977H119.048V377.969H124.837V375.32H117.934V376.211ZM123.723 374.84H124.837V369.496H123.723V374.84ZM137.886 369.496H136.772V380.02H137.886V369.496ZM129.554 373.961C129.554 376.229 130.685 377.658 132.272 377.652C133.831 377.658 134.98 376.229 134.98 373.961C134.98 371.717 133.831 370.287 132.272 370.281C130.685 370.287 129.554 371.717 129.554 373.961ZM130.632 373.961C130.626 372.314 131.294 371.283 132.272 371.277C133.233 371.283 133.901 372.314 133.901 373.961C133.901 375.631 133.233 376.656 132.272 376.656C131.294 376.656 130.626 375.631 130.632 373.961ZM148.43 369.496H147.363V373.703H146.016V369.707H144.973V379.457H146.016V374.617H147.363V379.996H148.43V369.496ZM139.934 377.324H140.613C141.744 377.33 142.945 377.254 144.387 376.996L144.27 376.023C143.074 376.258 142.014 376.334 141.047 376.346V370.738H139.934V377.324ZM152.47 375.484C152.47 373.404 151.913 371.676 150.865 370.199H149.716C150.531 371.295 151.175 373.516 151.181 375.484C151.175 377.453 150.531 379.68 149.716 380.77H150.865C151.913 379.293 152.47 377.564 152.47 375.484Z" fill="#4B5563"/>
<circle cx="28" cy="440.5" r="12" fill="#008DFF"/>
<path d="M64.58 423.219H62.58V430.859H64.58V423.219ZM52.8925 427.188C52.8925 429.125 54.5644 430.516 56.7831 430.516C58.9941 430.516 60.6659 429.125 60.6737 427.188C60.6659 425.188 58.9941 423.797 56.7831 423.812C54.5644 423.797 52.8925 425.188 52.8925 427.188ZM54.8456 427.188C54.83 426.117 55.6425 425.461 56.7831 425.469C57.8925 425.461 58.6972 426.117 58.705 427.188C58.6972 428.242 57.8925 428.875 56.7831 428.875C55.6425 428.875 54.83 428.242 54.8456 427.188ZM55.0644 437.281H64.58V431.484H62.5956V432.812H57.0331V431.484H55.0644V437.281ZM57.0331 435.672V434.359H62.5956V435.672H57.0331ZM79.3106 431.062H66.3419V432.656H71.8106V437.438H73.7794V432.656H79.3106V431.062ZM66.9825 428.672L67.7169 430.234C70.1934 429.898 71.9669 428.836 72.8341 427.375C73.6934 428.836 75.4825 429.898 77.9825 430.234L78.7013 428.672C75.7794 428.32 74.2091 426.93 74.0059 425.531H78.1544V423.969H67.5138V425.531H71.6622C71.4513 426.93 69.8575 428.32 66.9825 428.672Z" fill="#4B5563"/>
<path d="M53.2683 455.766C53.28 457.98 53.907 459.814 55.0027 461.391H56.1511C55.3425 460.225 54.5691 457.863 54.5691 455.766C54.5691 453.674 55.3425 451.312 56.1511 450.152H55.0027C53.907 451.723 53.28 453.557 53.2683 455.766ZM60.6717 452.59V451.477H63.0623V450.551H57.1444V451.477H59.5467V452.59C59.535 454.4 58.3631 456.369 56.7811 457.113L57.4256 457.992C58.6502 457.395 59.6346 456.117 60.1209 454.617C60.6073 456.018 61.5916 457.178 62.828 457.723L63.4373 456.855C61.8202 456.164 60.6659 454.348 60.6717 452.59ZM64.3866 459.996H65.4998V449.496H64.3866V459.996ZM75.8095 449.496H74.6962V452.168H72.7392V453.082H74.6962V455.742H75.8095V449.496ZM67.0556 454.793L67.6416 455.684C68.8955 455.221 69.8154 454.277 70.2724 453.105C70.7295 454.143 71.5966 454.986 72.7744 455.391L73.3486 454.512C71.7607 453.973 70.8115 452.678 70.8173 451.348V451.125H73.0673V450.223H67.4072V451.125H69.6806V451.359C69.6865 452.807 68.6845 454.225 67.0556 454.793ZM68.7431 458.016C68.7373 459.264 70.0849 459.99 72.2939 459.996C74.4912 459.99 75.8388 459.264 75.8447 458.016C75.8388 456.768 74.4912 456.041 72.2939 456.035C70.0849 456.041 68.7373 456.768 68.7431 458.016ZM69.8447 458.016C69.8388 457.301 70.7529 456.896 72.2939 456.902C73.8232 456.896 74.7373 457.301 74.7431 458.016C74.7373 458.725 73.8232 459.129 72.2939 459.117C70.7529 459.129 69.8388 458.725 69.8447 458.016ZM86.0137 449.496H84.9005V455.133H86.0137V449.496ZM77.5177 452.414C77.5235 453.85 78.7071 454.852 80.3184 454.84C81.9239 454.852 83.1075 453.85 83.1075 452.414C83.1075 450.973 81.9239 449.971 80.3184 449.977C78.7071 449.971 77.5235 450.973 77.5177 452.414ZM78.6075 452.414C78.6016 451.518 79.3223 450.908 80.3184 450.914C81.3028 450.908 82.0177 451.518 82.0177 452.414C82.0177 453.322 81.3028 453.926 80.3184 453.926C79.3223 453.926 78.6016 453.322 78.6075 452.414ZM79.1466 459.867H86.0137V455.637H84.9122V456.82H80.2364V455.637H79.1466V459.867ZM80.2364 458.953V457.699H84.9122V458.953H80.2364ZM97.132 455.414H87.5578V456.316H91.7766V459.984H92.8664V456.316H97.132V455.414ZM88.0969 453.738L88.5187 454.617C90.218 454.348 91.7004 453.498 92.3449 452.303C92.9836 453.498 94.4719 454.348 96.1945 454.617L96.6047 453.738C94.6184 453.469 93.0012 452.303 92.9836 451.008H96.2297V450.117H88.4484V451.008H91.718C91.6828 452.303 90.0539 453.469 88.0969 453.738ZM100.785 449.848C99.1859 449.859 98.0257 450.826 98.0198 452.203C98.0257 453.586 99.1859 454.547 100.785 454.547C102.368 454.547 103.534 453.586 103.539 452.203C103.534 450.826 102.368 449.859 100.785 449.848ZM99.1097 452.203C99.1038 451.348 99.8187 450.773 100.785 450.785C101.746 450.773 102.461 451.348 102.461 452.203C102.461 453.07 101.746 453.645 100.785 453.645C99.8187 453.645 99.1038 453.07 99.1097 452.203ZM99.6136 456.211H105.414V457.137H99.6488V459.867H106.868V458.977H100.727V457.969H106.516V455.32H99.6136V456.211ZM105.403 454.84H106.516V449.496H105.403V454.84ZM114.456 450.516H113.19L111.081 451.898V453.129L113.108 451.805H113.155V459H114.456V450.516ZM119.375 459.117C121.144 459.117 122.398 457.916 122.398 456.246C122.398 454.611 121.22 453.428 119.621 453.422C118.976 453.428 118.379 453.656 118.027 453.996H117.945L118.226 451.617H121.965V450.516H117.16L116.609 455.238H117.828C118.115 454.717 118.636 454.488 119.316 454.488C120.382 454.5 121.144 455.25 121.144 456.281C121.144 457.289 120.406 458.033 119.375 458.039C118.519 458.033 117.828 457.506 117.757 456.785H116.504C116.562 458.139 117.769 459.117 119.375 459.117ZM126.262 449.848C124.663 449.859 123.503 450.826 123.497 452.203C123.503 453.586 124.663 454.547 126.262 454.547C127.845 454.547 129.011 453.586 129.016 452.203C129.011 450.826 127.845 449.859 126.262 449.848ZM124.587 452.203C124.581 451.348 125.296 450.773 126.262 450.785C127.223 450.773 127.938 451.348 127.938 452.203C127.938 453.07 127.223 453.645 126.262 453.645C125.296 453.645 124.581 453.07 124.587 452.203ZM125.091 456.211H130.891V457.137H125.126V459.867H132.345V458.977H126.204V457.969H131.993V455.32H125.091V456.211ZM130.88 454.84H131.993V449.496H130.88V454.84ZM145.042 449.496H143.929V460.02H145.042V449.496ZM136.71 453.961C136.71 456.229 137.841 457.658 139.429 457.652C140.987 457.658 142.136 456.229 142.136 453.961C142.136 451.717 140.987 450.287 139.429 450.281C137.841 450.287 136.71 451.717 136.71 453.961ZM137.788 453.961C137.782 452.314 138.45 451.283 139.429 451.277C140.39 451.283 141.058 452.314 141.058 453.961C141.058 455.631 140.39 456.656 139.429 456.656C138.45 456.656 137.782 455.631 137.788 453.961ZM155.586 449.496H154.52V453.703H153.172V449.707H152.129V459.457H153.172V454.617H154.52V459.996H155.586V449.496ZM147.09 457.324H147.77C148.901 457.33 150.102 457.254 151.543 456.996L151.426 456.023C150.231 456.258 149.17 456.334 148.203 456.346V450.738H147.09V457.324ZM159.732 455.766C159.72 453.557 159.093 451.723 157.997 450.152H156.849C157.658 451.312 158.431 453.674 158.431 455.766C158.431 457.863 157.658 460.225 156.849 461.391H157.997C159.093 459.814 159.72 457.98 159.732 455.766Z" fill="#4B5563"/>
<rect x="27" y="41" width="2" height="401" fill="#008DFF"/>
</svg>
