<svg width="1100" height="140" viewBox="0 0 1100 140" fill="none" xmlns="http://www.w3.org/2000/svg">
<circle cx="85" cy="51" r="12" fill="#008DFF"/>
<path d="M44.7278 92.1406H39.1809V89.2344H43.2747V82.2656H33.0872V89.2344H37.1966V92.1406H31.7122V93.7812H44.7278V92.1406ZM35.0559 87.6719V83.8594H41.3059V87.6719H35.0559ZM53.7866 82H45.9741V83.5938H48.8881C48.7944 85.2031 47.6928 86.7891 45.4272 87.4375L46.4272 89C48.1147 88.4844 49.2866 87.4141 49.9272 86.0703C50.5756 87.3047 51.7084 88.2812 53.3334 88.75L54.3334 87.2031C52.1147 86.5938 51.0288 85.1016 50.935 83.5938H53.7866V82ZM47.7709 95.2812H57.2866V89.5312H55.3022V90.8594H49.7397V89.5312H47.7709V95.2812ZM49.7397 93.6875V92.4062H55.3022V93.6875H49.7397ZM55.2866 88.9375H57.2866V81.2188H55.2866V88.9375ZM68.9822 90.0781C65.8963 90.0781 63.9119 91.0625 63.9197 92.7656C63.9119 94.4453 65.8963 95.4453 68.9822 95.4375C72.0916 95.4453 74.0447 94.4453 74.0603 92.7656C74.0447 91.0625 72.0916 90.0781 68.9822 90.0781ZM62.6072 89.1719H75.5134V87.5625H69.4197V85.0781H67.4509V87.5625H62.6072V89.1719ZM64.0603 83.4219H71.9978C71.9822 84.3906 71.9431 85.3516 71.6228 86.6406L73.5759 86.8281C73.99 85.3672 73.99 84.1484 73.9822 83.0156V81.8594H64.0603V83.4219ZM65.9041 92.7656C65.8963 91.9766 67.0213 91.5547 68.9822 91.5625C70.9431 91.5547 72.0759 91.9766 72.0759 92.7656C72.0759 93.5312 70.9431 93.9219 68.9822 93.9219C67.0213 93.9219 65.8963 93.5312 65.9041 92.7656ZM87.9628 82.4531H77.5878V84.0312H85.9628C85.955 85.7031 85.9316 87.7031 85.3847 90.3906L87.3847 90.5938C87.955 87.5781 87.955 85.5781 87.9628 83.7969V82.4531ZM76.2441 93.7031H89.2128V92.0781H82.8691V87.1875H80.8847V92.0781H76.2441V93.7031ZM101.112 82.0781H94.1584V88.0625H101.112V82.0781ZM94.9084 93.9062L95.5959 95.4062C97.9709 95.1797 99.6663 94.3438 100.541 93.2188C101.408 94.3281 103.088 95.1875 105.455 95.4062L106.127 93.9062C103.307 93.6328 101.815 92.5156 101.596 91.5469H105.58V90.0625H101.533V88.8906H99.5334V90.0625H95.4866V91.5469H99.4709C99.2522 92.5469 97.7522 93.6719 94.9084 93.9062ZM96.1272 86.5V83.625H99.1272V86.5H96.1272ZM103.346 89.2812H105.33V81.2188H103.346V89.2812ZM115.823 83.4531V81.9688H113.823V83.2656C113.807 85.2266 112.792 87.1172 110.417 87.9062L111.495 89.4688C113.12 88.9219 114.221 87.7969 114.838 86.3672C115.448 87.6094 116.503 88.5781 118.01 89.0781L119.073 87.5312C116.823 86.8359 115.815 85.1797 115.823 83.4531ZM112.385 92.6875C112.378 94.4297 114.26 95.4453 117.26 95.4375C120.206 95.4453 122.049 94.4297 122.057 92.6875C122.049 90.9609 120.206 89.9375 117.26 89.9375C114.26 89.9375 112.378 90.9609 112.385 92.6875ZM114.385 92.6875C114.37 91.9141 115.393 91.5 117.26 91.5C119.104 91.5 120.088 91.9141 120.088 92.6875C120.088 93.4922 119.104 93.875 117.26 93.875C115.393 93.875 114.37 93.4922 114.385 92.6875ZM119.917 89.6562H121.917V86.2031H123.838V84.5469H121.917V81.2188H119.917V89.6562ZM135.585 81.2188H133.585V89.2031H135.585V86.0625H137.507V84.4219H135.585V81.2188ZM124.85 88.6719H126.053C129.202 88.6719 130.842 88.6172 132.632 88.2031L132.428 86.6406C130.842 86.9609 129.428 87.0625 126.85 87.0781V83.6875H131.194V82.1094H124.85V88.6719ZM126.288 95.2656H135.585V89.7969H126.288V95.2656ZM128.257 93.7031V91.375H133.616V93.7031H128.257Z" fill="#4B5563"/>
<circle cx="271" cy="51" r="12" fill="#008DFF"/>
<path d="M231.382 81.2188H229.382V88.8594H231.382V81.2188ZM219.695 85.1875C219.695 87.125 221.367 88.5156 223.585 88.5156C225.796 88.5156 227.468 87.125 227.476 85.1875C227.468 83.1875 225.796 81.7969 223.585 81.8125C221.367 81.7969 219.695 83.1875 219.695 85.1875ZM221.648 85.1875C221.632 84.1172 222.445 83.4609 223.585 83.4688C224.695 83.4609 225.499 84.1172 225.507 85.1875C225.499 86.2422 224.695 86.875 223.585 86.875C222.445 86.875 221.632 86.2422 221.648 85.1875ZM221.867 95.2812H231.382V89.4844H229.398V90.8125H223.835V89.4844H221.867V95.2812ZM223.835 93.6719V92.3594H229.398V93.6719H223.835ZM246.113 89.0625H233.144V90.6562H238.613V95.4375H240.582V90.6562H246.113V89.0625ZM233.785 86.6719L234.519 88.2344C236.996 87.8984 238.769 86.8359 239.636 85.375C240.496 86.8359 242.285 87.8984 244.785 88.2344L245.503 86.6719C242.582 86.3203 241.011 84.9297 240.808 83.5312H244.957V81.9688H234.316V83.5312H238.464C238.253 84.9297 236.66 86.3203 233.785 86.6719ZM262.246 81.2344H260.246V91.6094H262.246V81.2344ZM250.293 88.0938L251.324 89.6719C252.988 89.1016 254.121 87.9297 254.762 86.4766C255.394 87.8281 256.496 88.8906 258.105 89.4219L259.121 87.8594C256.785 87.1094 255.777 85.2734 255.793 83.3906V82.0156H253.715V83.3906C253.715 85.3203 252.676 87.2969 250.293 88.0938ZM252.715 95.1875H262.621V93.5938H254.73V90.6094H252.715V95.1875ZM272.117 82.7031H269.273V81.1562H267.258V82.7031H264.398V84.2656H267.258C267.242 85.875 266.188 87.5 263.914 88.1562L264.852 89.7031C266.531 89.2188 267.672 88.1797 268.289 86.8672C268.938 88.0234 270.07 88.9219 271.695 89.3281L272.617 87.7969C270.328 87.2109 269.266 85.7266 269.242 84.2656H272.117V82.7031ZM266.242 92.7188C266.242 94.4453 268.117 95.4453 271.133 95.4375C274.164 95.4453 276.031 94.4453 276.039 92.7188C276.031 91.0156 274.164 90.0547 271.133 90.0469C268.117 90.0547 266.242 91.0156 266.242 92.7188ZM268.227 92.7188C268.227 91.9609 269.25 91.5781 271.133 91.5781C273.055 91.5781 274.047 91.9609 274.055 92.7188C274.047 93.5 273.055 93.9219 271.133 93.9219C269.25 93.9219 268.227 93.5 268.227 92.7188ZM271.695 86.625H274.008V89.8125H275.992V81.2188H274.008V85.0312H271.695V86.625ZM283.051 84.4375V82.3125H281.035V84.4375C281.02 87.1094 279.91 89.8516 277.473 90.9531L278.723 92.5781C280.348 91.7812 281.442 90.25 282.051 88.3828C282.645 90.1406 283.707 91.5625 285.285 92.3281L286.504 90.7344C284.137 89.7109 283.059 87.1094 283.051 84.4375ZM284.91 87.2969H287.707V95.4688H289.676V81.2188H287.707V85.6875H284.91V87.2969ZM306.856 81.2188H304.872V84.4062H302.622V86.0312H304.872V89H306.856V81.2188ZM294.793 87.6875L295.809 89.25C297.489 88.7031 298.622 87.5625 299.254 86.1406C299.872 87.4141 300.957 88.4375 302.528 88.9531L303.512 87.4219C301.364 86.7109 300.34 85.0703 300.254 83.4844H303.075V81.8594H295.356V83.4844H298.207C298.106 85.2188 297.036 86.9375 294.793 87.6875ZM297.372 95.2812H306.856V89.5469H304.872V90.8906H299.34V89.5469H297.372V95.2812ZM299.34 93.6875V92.4219H304.872V93.6875H299.34ZM316.087 82.3281V81.6406H313.993V82.3281C313.985 84.0078 312.274 85.8594 309.04 86.2656L309.837 87.875C312.29 87.5156 314.102 86.3594 315.04 84.8281C315.969 86.3672 317.79 87.5156 320.274 87.875L321.055 86.2656C317.798 85.8594 316.079 84.0078 316.087 82.3281ZM308.54 90.5781H314.008V95.4375H315.977V90.5781H321.508V88.9531H308.54V90.5781Z" fill="#4B5563"/>
<path d="M246.894 115.484C246.894 117.564 247.45 119.293 248.499 120.77H249.648C248.833 119.674 248.189 117.453 248.183 115.484C248.189 113.516 248.833 111.289 249.648 110.199H248.499C247.45 111.676 246.894 113.404 246.894 115.484ZM258.727 116.832H251.473V119.867H258.727V116.832ZM250.325 116.117H259.899V115.238H255.668V114.523C257.532 114.447 258.557 113.949 258.551 113.047C258.557 112.068 257.321 111.564 255.106 111.559C252.903 111.564 251.655 112.068 251.66 113.047C251.655 113.949 252.698 114.447 254.555 114.523V115.238H250.325V116.117ZM250.817 111.184H259.36V110.328H255.668V109.355H254.555V110.328H250.817V111.184ZM252.575 119.012V117.688H257.649V119.012H252.575ZM252.844 113.047C252.838 112.566 253.641 112.332 255.106 112.32C256.582 112.332 257.367 112.566 257.367 113.047C257.367 113.521 256.582 113.773 255.106 113.773C253.641 113.773 252.838 113.521 252.844 113.047ZM269.658 109.496H268.591V119.996H269.658V109.496ZM260.458 116.527L260.587 117.465C261.947 117.465 264.126 117.418 265.79 117.09L265.708 116.281C265.392 116.322 265.046 116.363 264.689 116.393V111.699H265.497V110.785H260.681V111.699H261.49V116.521C261.115 116.527 260.763 116.527 260.458 116.527ZM262.497 116.504V111.699H263.658V116.463C263.271 116.48 262.878 116.498 262.497 116.504ZM265.216 114.43H266.529V119.457H267.583V109.73H266.529V113.434H265.216V114.43ZM279.522 109.496H278.409V120.02H279.522V109.496ZM271.19 113.961C271.19 116.229 272.321 117.658 273.909 117.652C275.467 117.658 276.616 116.229 276.616 113.961C276.616 111.717 275.467 110.287 273.909 110.281C272.321 110.287 271.19 111.717 271.19 113.961ZM272.268 113.961C272.262 112.314 272.93 111.283 273.909 111.277C274.87 111.283 275.538 112.314 275.538 113.961C275.538 115.631 274.87 116.656 273.909 116.656C272.93 116.656 272.262 115.631 272.268 113.961ZM284.945 112.59V111.477H287.336V110.551H281.418V111.477H283.82V112.59C283.808 114.4 282.636 116.369 281.054 117.113L281.699 117.992C282.924 117.395 283.908 116.117 284.394 114.617C284.881 116.018 285.865 117.178 287.101 117.723L287.711 116.855C286.093 116.164 284.939 114.348 284.945 112.59ZM288.66 119.996H289.773V109.496H288.66V119.996ZM294.106 115.484C294.106 113.404 293.55 111.676 292.501 110.199H291.352C292.167 111.295 292.811 113.516 292.817 115.484C292.811 117.453 292.167 119.68 291.352 120.77H292.501C293.55 119.293 294.106 117.564 294.106 115.484Z" fill="#4B5563"/>
<circle cx="457" cy="51" r="12" fill="#008DFF"/>
<path d="M415.618 81.2188H413.618V88.8594H415.618V81.2188ZM403.931 85.1875C403.931 87.125 405.603 88.5156 407.822 88.5156C410.033 88.5156 411.704 87.125 411.712 85.1875C411.704 83.1875 410.033 81.7969 407.822 81.8125C405.603 81.7969 403.931 83.1875 403.931 85.1875ZM405.884 85.1875C405.868 84.1172 406.681 83.4609 407.822 83.4688C408.931 83.4609 409.736 84.1172 409.743 85.1875C409.736 86.2422 408.931 86.875 407.822 86.875C406.681 86.875 405.868 86.2422 405.884 85.1875ZM406.103 95.2812H415.618V89.4844H413.634V90.8125H408.072V89.4844H406.103V95.2812ZM408.072 93.6719V92.3594H413.634V93.6719H408.072ZM430.349 89.0625H417.38V90.6562H422.849V95.4375H424.818V90.6562H430.349V89.0625ZM418.021 86.6719L418.755 88.2344C421.232 87.8984 423.005 86.8359 423.873 85.375C424.732 86.8359 426.521 87.8984 429.021 88.2344L429.74 86.6719C426.818 86.3203 425.248 84.9297 425.044 83.5312H429.193V81.9688H418.552V83.5312H422.701C422.49 84.9297 420.896 86.3203 418.021 86.6719ZM446.482 81.2344H444.482V89.25H446.482V81.2344ZM434.529 87.4375L435.498 89C437.193 88.4688 438.349 87.375 438.998 85.9922C439.638 87.2656 440.763 88.25 442.388 88.7344L443.357 87.2188C441.06 86.5078 440.013 84.8516 440.029 83.125V81.75H437.951V83.125C437.951 84.8984 436.912 86.7188 434.529 87.4375ZM436.951 95.2812H446.482V89.9062H436.951V95.2812ZM438.92 93.6875V91.4844H444.529V93.6875H438.92ZM453.478 84.4375V82.3125H451.478V84.4375C451.478 87.0781 450.346 89.7969 447.932 90.9062L449.166 92.5156C450.775 91.7188 451.869 90.2109 452.494 88.375C453.08 90.0859 454.111 91.4922 455.635 92.25L456.838 90.6562C454.557 89.5547 453.471 86.9844 453.478 84.4375ZM457.463 95.4375H459.463V88.3906H461.557V86.7031H459.463V81.2188H457.463V95.4375ZM473.112 82.0781H466.158V88.0625H473.112V82.0781ZM466.908 93.9062L467.596 95.4062C469.971 95.1797 471.666 94.3438 472.541 93.2188C473.408 94.3281 475.088 95.1875 477.455 95.4062L478.127 93.9062C475.307 93.6328 473.815 92.5156 473.596 91.5469H477.58V90.0625H473.533V88.8906H471.533V90.0625H467.487V91.5469H471.471C471.252 92.5469 469.752 93.6719 466.908 93.9062ZM468.127 86.5V83.625H471.127V86.5H468.127ZM475.346 89.2812H477.33V81.2188H475.346V89.2812ZM487.963 83.6562V82.0938H485.948V83.6406C485.94 85.6797 484.917 87.625 482.542 88.4062L483.62 89.9688C485.268 89.375 486.378 88.2109 486.987 86.7188C487.588 88.0391 488.628 89.0859 490.135 89.6406L491.213 88.0781C488.948 87.3203 487.963 85.4922 487.963 83.6562ZM485.151 95.1875H494.917V93.5938H487.167V90.625H485.151V95.1875ZM489.963 85.8594H492.635V91.7344H494.62V81.2344H492.635V84.25H489.963V85.8594ZM508.288 81.2188H506.303V84.6875H504.085V86.2969H506.303V89.6562H508.288V81.2188ZM496.21 88.0938L497.241 89.6719C498.928 89.0938 500.069 87.9297 500.694 86.4844C501.311 87.7578 502.397 88.7891 503.96 89.2969L504.944 87.7344C502.733 87 501.717 85.3281 501.678 83.6719H504.507V82.0781H496.788V83.6719H499.647C499.6 85.4531 498.538 87.3125 496.21 88.0938ZM498.538 92.7188C498.538 94.4453 500.397 95.4531 503.428 95.4531C506.467 95.4531 508.327 94.4453 508.335 92.7188C508.327 90.9922 506.467 89.9766 503.428 89.9688C500.397 89.9766 498.538 90.9922 498.538 92.7188ZM500.522 92.7188C500.522 91.8984 501.546 91.4922 503.428 91.5C505.319 91.4922 506.342 91.8984 506.35 92.7188C506.342 93.5312 505.319 93.9375 503.428 93.9375C501.546 93.9375 500.522 93.5312 500.522 92.7188Z" fill="#4B5563"/>
<circle cx="643" cy="51" r="12" fill="#008DFF"/>
<path d="M612.48 81.2188H610.48V88.8594H612.48V81.2188ZM600.792 85.1875C600.792 87.125 602.464 88.5156 604.683 88.5156C606.894 88.5156 608.566 87.125 608.574 85.1875C608.566 83.1875 606.894 81.7969 604.683 81.8125C602.464 81.7969 600.792 83.1875 600.792 85.1875ZM602.746 85.1875C602.73 84.1172 603.542 83.4609 604.683 83.4688C605.792 83.4609 606.597 84.1172 606.605 85.1875C606.597 86.2422 605.792 86.875 604.683 86.875C603.542 86.875 602.73 86.2422 602.746 85.1875ZM602.964 95.2812H612.48V89.4844H610.496V90.8125H604.933V89.4844H602.964V95.2812ZM604.933 93.6719V92.3594H610.496V93.6719H604.933ZM627.211 89.0625H614.242V90.6562H619.711V95.4375H621.679V90.6562H627.211V89.0625ZM614.882 86.6719L615.617 88.2344C618.093 87.8984 619.867 86.8359 620.734 85.375C621.593 86.8359 623.382 87.8984 625.882 88.2344L626.601 86.6719C623.679 86.3203 622.109 84.9297 621.906 83.5312H626.054V81.9688H615.414V83.5312H619.562C619.351 84.9297 617.757 86.3203 614.882 86.6719ZM635.426 81.9062V81.4375H633.379V81.9062C633.363 83.4062 631.707 85.0547 628.551 85.4219L629.301 86.9844C631.722 86.6641 633.488 85.625 634.402 84.2266C635.316 85.625 637.09 86.6641 639.504 86.9844L640.222 85.4219C637.082 85.0547 635.426 83.3984 635.426 81.9062ZM627.91 89.3281H640.879V87.7656H627.91V89.3281ZM629.394 92.875C629.394 94.5234 631.262 95.4531 634.379 95.4531C637.449 95.4531 639.316 94.5234 639.332 92.875C639.316 91.2031 637.449 90.2891 634.379 90.2969C631.262 90.2891 629.394 91.2031 629.394 92.875ZM631.426 92.875C631.418 92.1406 632.41 91.8047 634.379 91.7969C636.308 91.8047 637.324 92.1406 637.332 92.875C637.324 93.6016 636.308 93.9375 634.379 93.9375C632.41 93.9375 631.418 93.6016 631.426 92.875ZM653.484 81.2344H651.484V91.4531H653.484V81.2344ZM641.797 85.7188C641.797 87.8359 643.5 89.3281 645.688 89.3281C647.867 89.3281 649.57 87.8359 649.578 85.7188C649.57 83.6328 647.867 82.1328 645.688 82.1406C643.5 82.1328 641.797 83.6328 641.797 85.7188ZM643.75 85.7188C643.734 84.5625 644.57 83.8672 645.688 83.875C646.766 83.8672 647.602 84.5625 647.609 85.7188C647.602 86.9062 646.766 87.5938 645.688 87.5938C644.57 87.5938 643.734 86.9062 643.75 85.7188ZM643.953 95.1875H653.859V93.5938H645.969V90.4219H643.953V95.1875ZM671.743 88.5469H666.243V87.6719H670.352V86.1406H662.368V85.3281H669.899V83.8906H662.368V83.0938H670.227V81.5625H660.368V87.6719H664.243V88.5469H658.743V90.1094H671.743V88.5469ZM660.258 93.0938C660.258 94.625 662.055 95.4453 665.243 95.4375C668.375 95.4453 670.18 94.625 670.196 93.0938C670.18 91.5938 668.375 90.75 665.243 90.7656C662.055 90.75 660.258 91.5938 660.258 93.0938ZM662.258 93.0938C662.243 92.5 663.196 92.2266 665.243 92.2344C667.243 92.2266 668.188 92.5 668.196 93.0938C668.188 93.7031 667.243 93.9688 665.243 93.9688C663.196 93.9688 662.243 93.7031 662.258 93.0938ZM685.458 92.1562H679.911V89.5312H684.004V82.125H682.02V84.3281H675.817V82.125H673.817V89.5312H677.926V92.1562H672.442V93.7812H685.458V92.1562ZM675.817 87.9375V85.9219H682.02V87.9375H675.817Z" fill="#4B5563"/>
<circle cx="829" cy="51" r="12" fill="#008DFF"/>
<path d="M798.48 81.2188H796.48V88.8594H798.48V81.2188ZM786.792 85.1875C786.792 87.125 788.464 88.5156 790.683 88.5156C792.894 88.5156 794.566 87.125 794.574 85.1875C794.566 83.1875 792.894 81.7969 790.683 81.8125C788.464 81.7969 786.792 83.1875 786.792 85.1875ZM788.746 85.1875C788.73 84.1172 789.542 83.4609 790.683 83.4688C791.792 83.4609 792.597 84.1172 792.605 85.1875C792.597 86.2422 791.792 86.875 790.683 86.875C789.542 86.875 788.73 86.2422 788.746 85.1875ZM788.964 95.2812H798.48V89.4844H796.496V90.8125H790.933V89.4844H788.964V95.2812ZM790.933 93.6719V92.3594H796.496V93.6719H790.933ZM813.211 89.0625H800.242V90.6562H805.711V95.4375H807.679V90.6562H813.211V89.0625ZM800.882 86.6719L801.617 88.2344C804.093 87.8984 805.867 86.8359 806.734 85.375C807.593 86.8359 809.382 87.8984 811.882 88.2344L812.601 86.6719C809.679 86.3203 808.109 84.9297 807.906 83.5312H812.054V81.9688H801.414V83.5312H805.562C805.351 84.9297 803.757 86.3203 800.882 86.6719ZM826.238 81.2188H824.363V95.4375H826.238V81.2188ZM813.691 91.0781L814.863 92.4844C817.519 90.9062 818.972 88.9297 819.637 86.5781H821.379V88.5156H819.363V90.125H821.379V94.8125H823.269V81.5312H821.379V84.9688H819.965C820.051 84.3047 820.097 83.6172 820.097 82.9062H814.519V84.5156H818.113C817.84 87.3047 816.574 89.375 813.691 91.0781ZM840.703 83.0938H838.859V81.2188H836.859V89.6094H838.859V87.8125H840.703V86.1562H838.859V84.7031H840.703V83.0938ZM827.672 85.4531C827.664 87.5078 829.352 88.9453 831.578 88.9375C833.781 88.9453 835.453 87.5078 835.453 85.4531C835.453 83.4453 833.781 81.9922 831.578 82C829.352 81.9922 827.664 83.4453 827.672 85.4531ZM829.281 91.7812H836.859V95.4375H838.859V90.1719H829.281V91.7812ZM829.641 85.4531C829.625 84.3438 830.461 83.6953 831.578 83.7031C832.672 83.6953 833.508 84.3438 833.516 85.4531C833.508 86.6016 832.672 87.2578 831.578 87.25C830.461 87.2578 829.625 86.6016 829.641 85.4531ZM849.211 85.5469V85.2188H851.446V83.625H849.196V81.7031H847.336V83.625H845.039V85.2188H847.336V85.5469C847.321 87.7422 846.563 90.0625 844.508 91.25L845.649 92.75C846.938 92 847.789 90.7266 848.282 89.2188C848.782 90.6016 849.633 91.75 850.914 92.4062L852.008 90.9531C849.985 89.8672 849.211 87.7031 849.211 85.5469ZM850.618 88.2344H852.289V94.7812H854.164V81.4531H852.289V86.6094H850.618V88.2344ZM855.18 95.4375H857.071V81.2188H855.18V95.4375ZM870.426 81.2188H868.442V83H865.754C865.817 82.6094 865.848 82.1953 865.848 81.7656H859.411V83.375H863.637C863.372 85.0859 861.872 86.4375 858.614 87.0781L859.286 88.7031C862.434 88.0156 864.465 86.6484 865.348 84.5156H868.442V85.7656H865.192V87.2812H868.442V88.375H870.426V81.2188ZM860.973 90.4531H868.426V91.3125H860.989V95.2969H870.739V93.7188H862.989V92.7812H870.426V88.8906H860.973V90.4531Z" fill="#4B5563"/>
<path d="M779.425 115.766C779.436 117.98 780.063 119.814 781.159 121.391H782.307C781.499 120.225 780.725 117.863 780.725 115.766C780.725 113.674 781.499 111.312 782.307 110.152H781.159C780.063 111.723 779.436 113.557 779.425 115.766ZM791.668 109.496H790.555V115.133H791.668V109.496ZM783.172 112.414C783.178 113.85 784.361 114.852 785.972 114.84C787.578 114.852 788.762 113.85 788.762 112.414C788.762 110.973 787.578 109.971 785.972 109.977C784.361 109.971 783.178 110.973 783.172 112.414ZM784.262 112.414C784.256 111.518 784.976 110.908 785.972 110.914C786.957 110.908 787.672 111.518 787.672 112.414C787.672 113.322 786.957 113.926 785.972 113.926C784.976 113.926 784.256 113.322 784.262 112.414ZM784.801 119.867H791.668V115.637H790.566V116.82H785.89V115.637H784.801V119.867ZM785.89 118.953V117.699H790.566V118.953H785.89ZM802.786 115.414H793.212V116.316H797.431V119.984H798.52V116.316H802.786V115.414ZM793.751 113.738L794.173 114.617C795.872 114.348 797.354 113.498 797.999 112.303C798.638 113.498 800.126 114.348 801.849 114.617L802.259 113.738C800.272 113.469 798.655 112.303 798.638 111.008H801.884V110.117H794.102V111.008H797.372C797.337 112.303 795.708 113.469 793.751 113.738ZM811.628 110.105V109.672H810.491V110.105C810.486 111.383 808.816 112.566 806.8 112.812L807.234 113.691C808.921 113.445 810.398 112.631 811.066 111.482C811.745 112.619 813.222 113.445 814.898 113.691L815.308 112.812C813.31 112.566 811.634 111.359 811.628 110.105ZM806.273 115.344H815.847V114.453H806.273V115.344ZM807.409 118.109C807.409 119.311 808.769 119.99 811.054 119.996C813.31 119.99 814.669 119.311 814.675 118.109C814.669 116.896 813.31 116.234 811.054 116.234C808.769 116.234 807.409 116.896 807.409 118.109ZM808.534 118.109C808.529 117.453 809.448 117.09 811.054 117.09C812.636 117.09 813.562 117.453 813.562 118.109C813.562 118.771 812.636 119.129 811.054 119.117C809.448 119.129 808.529 118.771 808.534 118.109ZM825.231 109.508H824.118V117.137H825.231V109.508ZM816.735 112.812C816.741 114.354 817.948 115.426 819.535 115.426C821.118 115.426 822.325 114.354 822.325 112.812C822.325 111.295 821.118 110.217 819.535 110.211C817.948 110.217 816.741 111.295 816.735 112.812ZM817.825 112.812C817.819 111.846 818.557 111.184 819.535 111.184C820.496 111.184 821.235 111.846 821.235 112.812C821.235 113.803 820.496 114.453 819.535 114.453C818.557 114.453 817.819 113.803 817.825 112.812ZM818.364 119.773H825.547V118.871H819.489V116.363H818.364V119.773ZM833.17 110.516H831.905L829.795 111.898V113.129L831.823 111.805H831.87V119H833.17V110.516ZM838.16 119.117C840.123 119.117 841.271 117.535 841.277 114.758C841.271 111.998 840.105 110.398 838.16 110.398C836.209 110.398 835.043 111.998 835.043 114.758C835.043 117.535 836.197 119.117 838.16 119.117ZM836.332 114.758C836.332 112.648 837.017 111.494 838.16 111.488C839.297 111.494 839.988 112.648 839.988 114.758C839.988 116.873 839.302 118.004 838.16 118.004C837.011 118.004 836.326 116.873 836.332 114.758ZM845.106 109.848C843.507 109.859 842.346 110.826 842.341 112.203C842.346 113.586 843.507 114.547 845.106 114.547C846.688 114.547 847.854 113.586 847.86 112.203C847.854 110.826 846.688 109.859 845.106 109.848ZM843.43 112.203C843.425 111.348 844.139 110.773 845.106 110.785C846.067 110.773 846.782 111.348 846.782 112.203C846.782 113.07 846.067 113.645 845.106 113.645C844.139 113.645 843.425 113.07 843.43 112.203ZM843.934 116.211H849.735V117.137H843.97V119.867H851.188V118.977H845.048V117.969H850.837V115.32H843.934V116.211ZM849.723 114.84H850.837V109.496H849.723V114.84ZM863.886 109.496H862.772V120.02H863.886V109.496ZM855.554 113.961C855.554 116.229 856.685 117.658 858.272 117.652C859.831 117.658 860.98 116.229 860.98 113.961C860.98 111.717 859.831 110.287 858.272 110.281C856.685 110.287 855.554 111.717 855.554 113.961ZM856.632 113.961C856.626 112.314 857.294 111.283 858.272 111.277C859.233 111.283 859.901 112.314 859.901 113.961C859.901 115.631 859.233 116.656 858.272 116.656C857.294 116.656 856.626 115.631 856.632 113.961ZM874.43 109.496H873.363V113.703H872.016V109.707H870.973V119.457H872.016V114.617H873.363V119.996H874.43V109.496ZM865.934 117.324H866.613C867.744 117.33 868.945 117.254 870.387 116.996L870.27 116.023C869.074 116.258 868.014 116.334 867.047 116.346V110.738H865.934V117.324ZM878.575 115.766C878.564 113.557 877.937 111.723 876.841 110.152H875.693C876.501 111.312 877.275 113.674 877.275 115.766C877.275 117.863 876.501 120.225 875.693 121.391H876.841C877.937 119.814 878.564 117.98 878.575 115.766Z" fill="#4B5563"/>
<circle cx="1015" cy="51" r="12" fill="#008DFF"/>
<path d="M1014.08 81.2188H1012.08V88.8594H1014.08V81.2188ZM1002.39 85.1875C1002.39 87.125 1004.06 88.5156 1006.28 88.5156C1008.49 88.5156 1010.17 87.125 1010.17 85.1875C1010.17 83.1875 1008.49 81.7969 1006.28 81.8125C1004.06 81.7969 1002.39 83.1875 1002.39 85.1875ZM1004.35 85.1875C1004.33 84.1172 1005.14 83.4609 1006.28 83.4688C1007.39 83.4609 1008.2 84.1172 1008.2 85.1875C1008.2 86.2422 1007.39 86.875 1006.28 86.875C1005.14 86.875 1004.33 86.2422 1004.35 85.1875ZM1004.56 95.2812H1014.08V89.4844H1012.1V90.8125H1006.53V89.4844H1004.56V95.2812ZM1006.53 93.6719V92.3594H1012.1V93.6719H1006.53ZM1028.81 89.0625H1015.84V90.6562H1021.31V95.4375H1023.28V90.6562H1028.81V89.0625ZM1016.48 86.6719L1017.22 88.2344C1019.69 87.8984 1021.47 86.8359 1022.33 85.375C1023.19 86.8359 1024.98 87.8984 1027.48 88.2344L1028.2 86.6719C1025.28 86.3203 1023.71 84.9297 1023.51 83.5312H1027.65V81.9688H1017.01V83.5312H1021.16C1020.95 84.9297 1019.36 86.3203 1016.48 86.6719Z" fill="#4B5563"/>
<path d="M962.268 115.766C962.28 117.98 962.907 119.814 964.003 121.391H965.151C964.342 120.225 963.569 117.863 963.569 115.766C963.569 113.674 964.342 111.312 965.151 110.152H964.003C962.907 111.723 962.28 113.557 962.268 115.766ZM969.672 112.59V111.477H972.062V110.551H966.144V111.477H968.547V112.59C968.535 114.4 967.363 116.369 965.781 117.113L966.426 117.992C967.65 117.395 968.635 116.117 969.121 114.617C969.607 116.018 970.592 117.178 971.828 117.723L972.437 116.855C970.82 116.164 969.666 114.348 969.672 112.59ZM973.387 119.996H974.5V109.496H973.387V119.996ZM984.81 109.496H983.696V112.168H981.739V113.082H983.696V115.742H984.81V109.496ZM976.056 114.793L976.642 115.684C977.895 115.221 978.815 114.277 979.272 113.105C979.729 114.143 980.597 114.986 981.774 115.391L982.349 114.512C980.761 113.973 979.811 112.678 979.817 111.348V111.125H982.067V110.223H976.407V111.125H978.681V111.359C978.686 112.807 977.685 114.225 976.056 114.793ZM977.743 118.016C977.737 119.264 979.085 119.99 981.294 119.996C983.491 119.99 984.839 119.264 984.845 118.016C984.839 116.768 983.491 116.041 981.294 116.035C979.085 116.041 977.737 116.768 977.743 118.016ZM978.845 118.016C978.839 117.301 979.753 116.896 981.294 116.902C982.823 116.896 983.737 117.301 983.743 118.016C983.737 118.725 982.823 119.129 981.294 119.117C979.753 119.129 978.839 118.725 978.845 118.016ZM995.014 109.496H993.9V115.133H995.014V109.496ZM986.518 112.414C986.524 113.85 987.707 114.852 989.318 114.84C990.924 114.852 992.107 113.85 992.107 112.414C992.107 110.973 990.924 109.971 989.318 109.977C987.707 109.971 986.524 110.973 986.518 112.414ZM987.607 112.414C987.602 111.518 988.322 110.908 989.318 110.914C990.303 110.908 991.018 111.518 991.018 112.414C991.018 113.322 990.303 113.926 989.318 113.926C988.322 113.926 987.602 113.322 987.607 112.414ZM988.147 119.867H995.014V115.637H993.912V116.82H989.236V115.637H988.147V119.867ZM989.236 118.953V117.699H993.912V118.953H989.236ZM1006.13 115.414H996.558V116.316H1000.78V119.984H1001.87V116.316H1006.13V115.414ZM997.097 113.738L997.519 114.617C999.218 114.348 1000.7 113.498 1001.34 112.303C1001.98 113.498 1003.47 114.348 1005.19 114.617L1005.6 113.738C1003.62 113.469 1002 112.303 1001.98 111.008H1005.23V110.117H997.448V111.008H1000.72C1000.68 112.303 999.054 113.469 997.097 113.738ZM1009.79 109.848C1008.19 109.859 1007.03 110.826 1007.02 112.203C1007.03 113.586 1008.19 114.547 1009.79 114.547C1011.37 114.547 1012.53 113.586 1012.54 112.203C1012.53 110.826 1011.37 109.859 1009.79 109.848ZM1008.11 112.203C1008.1 111.348 1008.82 110.773 1009.79 110.785C1010.75 110.773 1011.46 111.348 1011.46 112.203C1011.46 113.07 1010.75 113.645 1009.79 113.645C1008.82 113.645 1008.1 113.07 1008.11 112.203ZM1008.61 116.211H1014.41V117.137H1008.65V119.867H1015.87V118.977H1009.73V117.969H1015.52V115.32H1008.61V116.211ZM1014.4 114.84H1015.52V109.496H1014.4V114.84ZM1023.46 110.516H1022.19L1020.08 111.898V113.129L1022.11 111.805H1022.15V119H1023.46V110.516ZM1028.37 119.117C1030.14 119.117 1031.4 117.916 1031.4 116.246C1031.4 114.611 1030.22 113.428 1028.62 113.422C1027.98 113.428 1027.38 113.656 1027.03 113.996H1026.94L1027.23 111.617H1030.96V110.516H1026.16L1025.61 115.238H1026.83C1027.11 114.717 1027.64 114.488 1028.32 114.488C1029.38 114.5 1030.14 115.25 1030.14 116.281C1030.14 117.289 1029.41 118.033 1028.37 118.039C1027.52 118.033 1026.83 117.506 1026.76 116.785H1025.5C1025.56 118.139 1026.77 119.117 1028.37 119.117ZM1035.26 109.848C1033.66 109.859 1032.5 110.826 1032.5 112.203C1032.5 113.586 1033.66 114.547 1035.26 114.547C1036.84 114.547 1038.01 113.586 1038.02 112.203C1038.01 110.826 1036.84 109.859 1035.26 109.848ZM1033.59 112.203C1033.58 111.348 1034.3 110.773 1035.26 110.785C1036.22 110.773 1036.94 111.348 1036.94 112.203C1036.94 113.07 1036.22 113.645 1035.26 113.645C1034.3 113.645 1033.58 113.07 1033.59 112.203ZM1034.09 116.211H1039.89V117.137H1034.13V119.867H1041.34V118.977H1035.2V117.969H1040.99V115.32H1034.09V116.211ZM1039.88 114.84H1040.99V109.496H1039.88V114.84ZM1054.04 109.496H1052.93V120.02H1054.04V109.496ZM1045.71 113.961C1045.71 116.229 1046.84 117.658 1048.43 117.652C1049.99 117.658 1051.14 116.229 1051.14 113.961C1051.14 111.717 1049.99 110.287 1048.43 110.281C1046.84 110.287 1045.71 111.717 1045.71 113.961ZM1046.79 113.961C1046.78 112.314 1047.45 111.283 1048.43 111.277C1049.39 111.283 1050.06 112.314 1050.06 113.961C1050.06 115.631 1049.39 116.656 1048.43 116.656C1047.45 116.656 1046.78 115.631 1046.79 113.961ZM1064.59 109.496H1063.52V113.703H1062.17V109.707H1061.13V119.457H1062.17V114.617H1063.52V119.996H1064.59V109.496ZM1056.09 117.324H1056.77C1057.9 117.33 1059.1 117.254 1060.54 116.996L1060.43 116.023C1059.23 116.258 1058.17 116.334 1057.2 116.346V110.738H1056.09V117.324ZM1068.73 115.766C1068.72 113.557 1068.09 111.723 1067 110.152H1065.85C1066.66 111.312 1067.43 113.674 1067.43 115.766C1067.43 117.863 1066.66 120.225 1065.85 121.391H1067C1068.09 119.814 1068.72 117.98 1068.73 115.766Z" fill="#4B5563"/>
<rect x="86" y="50" width="939" height="2" fill="#008DFF"/>
</svg>
