<svg width="1100" height="219" viewBox="0 0 1100 219" fill="none" xmlns="http://www.w3.org/2000/svg">
<g filter="url(#filter0_dd_1133_26696)">
<rect x="8" y="83" width="150.068" height="82" rx="4" fill="white"/>
<path d="M49.8591 115.441H35.3395V117.076H41.4743V118.078H36.9919V119.678H45.904V120.469H37.0094V124.512H48.5407V122.859H39.2067V121.98H48.1188V118.078H43.7067V117.076H49.8591V115.441ZM35.902 113.35L36.5173 115.002C39.5143 114.853 41.571 114.105 42.5817 112.901C43.5925 114.105 45.6579 114.853 48.6286 115.002L49.279 113.35C46.0534 113.209 44.4186 112.444 43.9616 111.521H48.488V109.869H43.6891V108.604H41.4743V109.869H36.7106V111.521H41.193C40.7272 112.444 39.1012 113.209 35.902 113.35ZM56.5873 112.98V111.996H59.8041V110.168H50.9447V111.996H54.3373V112.98C54.3197 115.626 52.975 118.597 50.3119 119.836L51.6126 121.611C53.4584 120.741 54.7767 118.948 55.4886 116.839C56.2093 118.755 57.475 120.39 59.2591 121.207L60.5072 119.449C57.8792 118.228 56.5785 115.415 56.5873 112.98ZM61.0521 124.617H63.3021V116.602H65.6576V114.721H63.3021V108.621H61.0521V124.617ZM79.8916 108.621H77.7647V114.791H76.2178V108.885H74.1612V123.844H76.2178V116.584H77.7647V124.617H79.8916V108.621ZM66.5147 120.996H67.6221C69.7315 120.987 71.4366 120.926 73.3877 120.557L73.2295 118.729C71.6826 119.001 70.3116 119.089 68.7647 119.115V112.277H72.4737V110.467H66.5147V120.996ZM87.2702 111.135V109.465H85.0202V110.924C85.0026 113.13 83.8601 115.257 81.1882 116.145L82.4011 117.902C84.2292 117.287 85.4685 116.021 86.1628 114.413C86.8484 115.811 88.0349 116.9 89.7312 117.463L90.9265 115.723C88.3952 114.94 87.2614 113.077 87.2702 111.135ZM83.403 121.523C83.3942 123.483 85.5124 124.626 88.8874 124.617C92.2009 124.626 94.2751 123.483 94.2839 121.523C94.2751 119.581 92.2009 118.43 88.8874 118.43C85.5124 118.43 83.3942 119.581 83.403 121.523ZM85.653 121.523C85.6355 120.653 86.7868 120.188 88.8874 120.188C90.9616 120.188 92.0691 120.653 92.0691 121.523C92.0691 122.429 90.9616 122.859 88.8874 122.859C86.7868 122.859 85.6355 122.429 85.653 121.523ZM91.8757 118.113H94.1257V114.229H96.2878V112.365H94.1257V108.621H91.8757V118.113ZM114.227 108.621H111.959V124.617H114.227V108.621ZM100.832 120.082L102.01 121.875C107.723 119.177 109.419 115.143 109.428 110.291H101.693V112.049H107.143C106.782 115.6 104.963 118.131 100.832 120.082ZM124.611 109.043V108.709H122.308V109.043C122.291 110.607 120.463 112.181 116.877 112.559L117.633 114.246C120.375 113.938 122.405 112.893 123.442 111.425C124.47 112.893 126.51 113.938 129.287 114.246L130.025 112.559C126.448 112.181 124.611 110.607 124.611 109.043ZM116.156 116.672H122.308V117.727H117.844V119.432H126.756V120.275H117.861V124.512H129.392V122.824H120.058V121.857H128.97V117.727H124.558V116.672H130.746V114.914H116.156V116.672ZM74.036 134.363V132.605H71.7684V134.346C71.7596 136.64 70.6083 138.828 67.9364 139.707L69.1493 141.465C71.0038 140.797 72.2518 139.487 72.9374 137.809C73.6141 139.294 74.7831 140.472 76.4794 141.096L77.6923 139.338C75.1434 138.485 74.036 136.429 74.036 134.363ZM70.8719 147.336H81.8583V145.543H73.1395V142.203H70.8719V147.336ZM76.286 136.842H79.2919V143.451H81.5243V131.639H79.2919V135.031H76.286V136.842ZM96.9009 131.621H94.6685V135.523H92.1724V137.334H94.6685V141.113H96.9009V131.621ZM83.313 139.355L84.4732 141.131C86.3716 140.48 87.6548 139.171 88.358 137.545C89.0523 138.978 90.274 140.138 92.0318 140.709L93.1392 138.951C90.6519 138.125 89.5093 136.244 89.4654 134.381H92.647V132.588H83.9634V134.381H87.1802C87.1275 136.385 85.9322 138.477 83.313 139.355ZM85.9322 144.559C85.9322 146.501 88.024 147.635 91.4341 147.635C94.8531 147.635 96.9449 146.501 96.9537 144.559C96.9449 142.616 94.8531 141.474 91.4341 141.465C88.024 141.474 85.9322 142.616 85.9322 144.559ZM88.1646 144.559C88.1646 143.636 89.316 143.179 91.4341 143.188C93.5611 143.179 94.7125 143.636 94.7212 144.559C94.7125 145.473 93.5611 145.93 91.4341 145.93C89.316 145.93 88.1646 145.473 88.1646 144.559Z" fill="#374151"/>
</g>
<circle cx="83.0337" cy="74" r="20" fill="#008DFF"/>
<path d="M86.0571 66.0312H82.729L78.5337 68.7031V71.8203L82.4243 69.3828H82.5181V83H86.0571V66.0312Z" fill="white"/>
<g filter="url(#filter1_dd_1133_26696)">
<rect x="194.787" y="83" width="150.068" height="82" rx="4" fill="white"/>
<path d="M245.246 108.639H243.014V110.871H239.348C238.575 110.054 237.468 109.562 236.228 109.553C233.803 109.562 231.957 111.311 231.974 113.719C231.957 116.092 233.803 117.85 236.228 117.85C237.476 117.85 238.584 117.349 239.357 116.531H243.014V120.328H245.246V108.639ZM234.101 113.719C234.093 112.365 234.98 111.557 236.228 111.557C237.406 111.557 238.311 112.365 238.32 113.719C238.311 115.055 237.406 115.863 236.228 115.863C234.98 115.863 234.093 115.055 234.101 113.719ZM234.629 124.336H245.633V122.543H236.879V119.15H234.629V124.336ZM240.315 112.664H243.014V114.738H240.324C240.403 114.413 240.447 114.07 240.447 113.719C240.447 113.35 240.403 112.998 240.315 112.664ZM260.025 109.553H248.81V111.346H257.793C257.784 112.726 257.749 114.299 257.335 116.355H247.14V118.166H253.24V124.635H255.49V118.166H261.73V116.355H259.612C260.016 114.114 260.016 112.488 260.025 110.994V109.553ZM277.159 120.908H270.866V117.287H268.634V120.908H262.517V122.701H277.159V120.908ZM262.868 115.934L263.818 117.797C266.613 117.296 268.696 115.775 269.741 113.789C270.796 115.784 272.888 117.287 275.7 117.797L276.65 115.934C272.993 115.371 270.928 112.963 270.937 110.678V109.535H268.546V110.678C268.529 112.937 266.489 115.371 262.868 115.934ZM291.341 108.621H289.073V124.617H291.341V108.621ZM277.946 120.082L279.124 121.875C284.837 119.177 286.533 115.143 286.542 110.291H278.808V112.049H284.257C283.896 115.6 282.077 118.131 277.946 120.082ZM297.735 109.307C295.274 109.289 293.463 110.897 293.481 113.086C293.463 115.318 295.274 116.918 297.735 116.918C299.792 116.918 301.435 115.723 301.848 113.965H304.52V117.217H306.753V108.621H304.52V112.172H301.839C301.4 110.458 299.774 109.289 297.735 109.307ZM295.608 113.086C295.599 111.891 296.478 111.161 297.735 111.17C298.948 111.161 299.818 111.891 299.827 113.086C299.818 114.281 298.948 115.037 297.735 115.037C296.478 115.037 295.599 114.281 295.608 113.086ZM296.083 124.441H306.753V117.92H304.52V119.467H298.297V117.92H296.083V124.441ZM298.297 122.631V121.189H304.52V122.631H298.297ZM227.885 131.621H225.653V134.012H222.647V135.787H225.653V139.76H227.885V131.621ZM214.28 138.107L215.44 139.883C217.312 139.294 218.569 138.099 219.272 136.561C219.966 137.932 221.161 139.004 222.875 139.549L224.053 137.826C221.504 137.07 220.388 135.216 220.397 133.309V132.148H218.129V133.309C218.12 135.374 216.934 137.325 214.28 138.107ZM217.25 142.15H225.67V143.064H217.268V147.441H228.342V145.684H219.483V144.699H227.885V140.428H217.25V142.15ZM243.174 131.639H240.924V140.551H243.174V131.639ZM230.605 134.135H235.791V135.4H230.623V140.27H232.029C235.202 140.27 237.364 140.208 239.816 139.795L239.535 138.002C237.382 138.371 235.492 138.424 232.82 138.441V137.105H238.023V132.342H230.605V134.135ZM232.469 147.441H243.174V141.219H240.941V142.59H234.701V141.219H232.469V147.441ZM234.701 145.648V144.33H240.941V145.648H234.701ZM259.025 131.621H256.916V147.617H259.025V131.621ZM244.91 142.713L246.228 144.295C249.216 142.52 250.851 140.296 251.598 137.65H253.558V139.83H251.291V141.641H253.558V146.914H255.685V131.973H253.558V135.84H251.967C252.064 135.093 252.117 134.319 252.117 133.52H245.841V135.33H249.884C249.577 138.468 248.153 140.797 244.91 142.713ZM270.57 132.799H266.931V131.516H264.699V132.799H261.078V134.434H270.57V132.799ZM260.603 140.428L260.902 142.133C263.714 142.124 267.458 142.071 270.869 141.482L270.71 139.988C269.497 140.138 268.214 140.234 266.931 140.305V139.531C268.68 139.285 269.814 138.45 269.831 137.229C269.814 135.743 268.188 134.794 265.824 134.803C263.398 134.794 261.807 135.743 261.816 137.229C261.807 138.459 262.914 139.285 264.699 139.531V140.384C263.24 140.428 261.842 140.428 260.603 140.428ZM262.853 144.805H271.695V147.617H273.98V143.082H262.853V144.805ZM263.978 137.229C263.969 136.604 264.681 136.297 265.824 136.297C266.922 136.297 267.669 136.604 267.669 137.229C267.669 137.809 266.922 138.116 265.824 138.107C264.681 138.116 263.969 137.809 263.978 137.229ZM271.695 142.449H273.98V131.656H271.695V142.449ZM281.956 135.242V132.852H279.689V135.242C279.671 138.248 278.423 141.333 275.681 142.572L277.087 144.4C278.915 143.504 280.146 141.781 280.831 139.681C281.499 141.658 282.694 143.258 284.47 144.119L285.841 142.326C283.178 141.175 281.965 138.248 281.956 135.242ZM284.048 138.459H287.194V147.652H289.409V131.621H287.194V136.648H284.048V138.459ZM304.342 132.553H295.623V134.346H298.893C298.867 136.341 297.654 138.397 295.008 139.25L296.204 140.973C298.058 140.366 299.341 139.118 300.053 137.562C300.747 138.986 301.969 140.129 303.745 140.709L304.887 138.969C302.294 138.143 301.169 136.218 301.161 134.346H304.342V132.553ZM297.17 143.732H305.696V147.617H307.946V141.957H297.17V143.732ZM305.696 141.271H307.946V137.369H310.108V135.506H307.946V131.621H305.696V141.271ZM316.678 133.801V132.447H314.41V133.906C314.401 136.139 313.224 138.283 310.49 139.162L311.668 140.955C313.593 140.305 314.885 138.995 315.588 137.325C316.265 138.767 317.434 139.865 319.156 140.463L320.334 138.705C317.768 137.914 316.669 135.937 316.678 133.801ZM313.145 144.523C313.145 146.501 315.236 147.626 318.647 147.617C322.066 147.626 324.157 146.501 324.166 144.523C324.157 142.555 322.066 141.403 318.647 141.412C315.236 141.403 313.145 142.555 313.145 144.523ZM315.377 144.523C315.377 143.609 316.528 143.152 318.647 143.152C320.774 143.152 321.925 143.609 321.934 144.523C321.925 145.411 320.774 145.877 318.647 145.877C316.528 145.877 315.377 145.411 315.377 144.523ZM318.875 136.385H321.881V140.99H324.113V131.621H321.881V134.557H318.875V136.385Z" fill="#374151"/>
</g>
<circle cx="269.82" cy="74" r="20" fill="#008DFF"/>
<path d="M264.332 83H276.473V80.0938H269.23V80L271.809 77.4922C275.301 74.3281 276.238 72.7461 276.238 70.8125C276.238 67.8711 273.824 65.7969 270.191 65.7969C266.617 65.7969 264.156 67.918 264.168 71.2344H267.52C267.508 69.6055 268.551 68.5977 270.145 68.6094C271.703 68.5977 272.84 69.5352 272.84 71.0469C272.84 72.3945 271.984 73.332 270.402 74.8438L264.309 80.4453L264.332 83Z" fill="white"/>
<g filter="url(#filter2_dd_1133_26696)">
<rect x="381.573" y="83" width="150.068" height="82" rx="4" fill="white"/>
<path d="M424.251 120.621H422.089V126.809H420.595V120.885H418.486V135.844H420.595V128.619H422.089V136.617H424.251V120.621ZM411.103 132.715H412.193C413.845 132.724 415.673 132.609 417.818 132.24L417.589 130.307C416.051 130.605 414.636 130.72 413.353 130.755V122.396H411.103V132.715ZM440.454 129.85H425.812V131.607H431.981V136.617H434.196V131.607H440.454V129.85ZM427.534 128.303H438.714V121.236H436.464V123.082H429.749V121.236H427.534V128.303ZM429.749 126.51V124.84H436.464V126.51H429.749ZM451.186 122.273H448.69L445.543 124.277V126.615L448.461 124.787H448.532V135H451.186V122.273ZM459.215 125.631V125.016H462.484V123.223H459.232V120.973H456.982V123.223H453.695V125.016H457V125.631C456.982 128.03 455.743 130.755 453.133 131.906L454.363 133.646C456.174 132.847 457.431 131.229 458.125 129.305C458.793 131.089 459.98 132.592 461.693 133.365L462.941 131.678C460.393 130.474 459.215 127.907 459.215 125.631ZM463.803 136.617H466.053V128.707H468.408V126.826H466.053V120.621H463.803V136.617ZM486.171 120.639H483.921V129.656H486.171V120.639ZM472.724 127.617L473.814 129.375C475.721 128.777 477.022 127.547 477.751 125.991C478.472 127.424 479.738 128.531 481.566 129.076L482.656 127.371C480.072 126.571 478.894 124.708 478.912 122.766V121.219H476.574V122.766C476.574 124.761 475.405 126.809 472.724 127.617ZM475.449 136.441H486.171V130.395H475.449V136.441ZM477.663 134.648V132.17H483.974V134.648H477.663ZM493.339 121.693C490.816 121.685 488.883 123.319 488.892 125.613C488.883 127.916 490.816 129.542 493.339 129.551C495.879 129.542 497.76 127.916 497.769 125.613C497.76 123.319 495.879 121.685 493.339 121.693ZM488.224 131.555L488.487 133.383C491.282 133.383 495.079 133.356 498.63 132.662L498.454 131.045C495.035 131.528 491.08 131.563 488.224 131.555ZM491.124 125.613C491.115 124.365 492.073 123.627 493.339 123.627C494.613 123.627 495.58 124.365 495.589 125.613C495.58 126.879 494.613 127.608 493.339 127.6C492.073 127.608 491.115 126.879 491.124 125.613ZM499.368 136.652H501.601V120.621H499.368V136.652Z" fill="#374151"/>
</g>
<circle cx="456.606" cy="74" r="20" fill="#008DFF"/>
<path d="M456.56 83.2344C460.392 83.2344 463.146 81.1484 463.122 78.2422C463.146 76.1211 461.774 74.6094 459.278 74.3047V74.1641C461.177 73.8242 462.501 72.4766 462.489 70.5781C462.501 67.8945 460.146 65.7969 456.606 65.7969C453.126 65.7969 450.501 67.8242 450.442 70.7422H453.817C453.876 69.4414 455.106 68.5977 456.606 68.6094C458.106 68.5977 459.103 69.4883 459.091 70.7891C459.103 72.125 457.931 73.0391 456.255 73.0391H454.685V75.6406H456.255C458.247 75.6523 459.478 76.625 459.466 78.0078C459.478 79.3789 458.271 80.3164 456.583 80.3281C454.942 80.3164 453.712 79.4844 453.653 78.2188H450.091C450.161 81.1836 452.833 83.2344 456.56 83.2344Z" fill="white"/>
<g filter="url(#filter3_dd_1133_26696)">
<rect x="568.359" y="83" width="150.068" height="82" rx="4" fill="white"/>
<path d="M609.111 120.621H606.843V136.617H609.111V120.621ZM595.716 132.082L596.894 133.875C602.607 131.177 604.303 127.143 604.312 122.291H596.578V124.049H602.027C601.667 127.6 599.847 130.131 595.716 132.082ZM619.495 121.043V120.709H617.193V121.043C617.175 122.607 615.347 124.181 611.761 124.559L612.517 126.246C615.259 125.938 617.289 124.893 618.327 123.425C619.355 124.893 621.394 125.938 624.171 126.246L624.91 124.559C621.332 124.181 619.495 122.607 619.495 121.043ZM611.04 128.672H617.193V129.727H612.728V131.432H621.64V132.275H612.745V136.512H624.277V134.824H614.943V133.857H623.855V129.727H619.443V128.672H625.63V126.914H611.04V128.672ZM639.038 120.621H636.788V136.582H639.038V128.602H641.306V126.756H639.038V120.621ZM626.241 132.1L627.507 133.822C632.886 131.177 634.749 127.037 634.767 122.256H627.155V124.084H632.49C632.068 127.652 630.029 130.201 626.241 132.1ZM655.171 120.621H652.921V136.617H655.171V120.621ZM641.882 131.906L643.077 133.629C644.94 132.847 646.25 131.212 646.962 129.27C647.691 131.106 648.992 132.636 650.811 133.383L652.024 131.66C649.361 130.562 648.051 127.951 648.051 125.631V125.016H651.374V123.223H648.034V120.973H645.801V123.223H642.409V125.016H645.819V125.631C645.81 128.065 644.509 130.755 641.882 131.906ZM670.068 121.676H661.543V123.469H662.844V127.969L661.139 127.986L661.367 129.797C663.907 129.797 667.397 129.735 670.402 129.234L670.315 127.582C669.814 127.644 669.286 127.696 668.75 127.731V123.469H670.068V121.676ZM663.652 133.646C663.652 135.51 665.727 136.626 669.154 136.617C672.591 136.626 674.665 135.51 674.674 133.646C674.665 131.73 672.591 130.649 669.154 130.641C665.727 130.649 663.652 131.73 663.652 133.646ZM665.006 127.925V123.469H666.606V127.872C666.069 127.89 665.533 127.916 665.006 127.925ZM665.885 133.646C665.885 132.776 667.019 132.354 669.154 132.363C671.29 132.354 672.433 132.776 672.441 133.646C672.433 134.49 671.29 134.912 669.154 134.912C667.019 134.912 665.885 134.49 665.885 133.646ZM670.42 128.004H672.389V130.395H674.621V120.621H672.389V123.223H670.42V124.98H672.389V126.211H670.42V128.004ZM689.136 120.621H686.886V136.582H689.136V128.602H691.404V126.756H689.136V120.621ZM676.34 132.1L677.605 133.822C682.984 131.177 684.847 127.037 684.865 122.256H677.254V124.084H682.589C682.167 127.652 680.128 130.201 676.34 132.1Z" fill="#374151"/>
</g>
<circle cx="643.393" cy="74" r="20" fill="#008DFF"/>
<path d="M636.561 80H644.811V83H648.163V80H650.319V77.1641H648.163V66.0312H643.733L636.561 77.2109V80ZM640.124 77.1641V77.0234L644.694 69.8984H644.858V77.1641H640.124Z" fill="white"/>
<g filter="url(#filter4_dd_1133_26696)">
<rect x="755.146" y="83" width="150.068" height="82" rx="4" fill="white"/>
<path d="M800.762 121.43H798.512V128.918H806.123V126.105H809.077V129.375H811.309V120.621H809.077V124.277H806.123V121.43H803.909V123.486H800.762V121.43ZM800.639 136.406H811.309V130.043H809.077V131.52H802.854V130.043H800.639V136.406ZM800.762 127.125V125.209H803.909V127.125H800.762ZM802.854 134.613V133.242H809.077V134.613H802.854ZM826.598 120.639H824.348V132.135H826.598V120.639ZM813.449 125.684C813.449 128.065 815.365 129.744 817.826 129.744C820.278 129.744 822.194 128.065 822.203 125.684C822.194 123.337 820.278 121.649 817.826 121.658C815.365 121.649 813.449 123.337 813.449 125.684ZM815.647 125.684C815.629 124.383 816.569 123.601 817.826 123.609C819.039 123.601 819.98 124.383 819.988 125.684C819.98 127.02 819.039 127.793 817.826 127.793C816.569 127.793 815.629 127.02 815.647 125.684ZM815.875 136.336H827.02V134.543H818.143V130.975H815.875V136.336ZM846.031 120.621H843.798V123.012H840.792V124.787H843.798V128.76H846.031V120.621ZM832.425 127.107L833.585 128.883C835.457 128.294 836.714 127.099 837.417 125.561C838.112 126.932 839.307 128.004 841.021 128.549L842.199 126.826C839.65 126.07 838.534 124.216 838.542 122.309V121.148H836.275V122.309C836.266 124.374 835.079 126.325 832.425 127.107ZM835.396 131.15H843.816V132.064H835.413V136.441H846.488V134.684H837.628V133.699H846.031V129.428H835.396V131.15ZM861.319 120.639H859.069V129.551H861.319V120.639ZM848.751 123.135H853.937V124.4H848.769V129.27H850.175C853.348 129.27 855.51 129.208 857.962 128.795L857.681 127.002C855.527 127.371 853.638 127.424 850.966 127.441V126.105H856.169V121.342H848.751V123.135ZM850.614 136.441H861.319V130.219H859.087V131.59H852.847V130.219H850.614V136.441ZM852.847 134.648V133.33H859.087V134.648H852.847Z" fill="#374151"/>
</g>
<circle cx="830.179" cy="74" r="20" fill="#008DFF"/>
<path d="M830.226 83.2344C834.046 83.2344 836.648 80.7852 836.648 77.3516C836.648 74.0938 834.328 71.7617 831.21 71.7734C829.722 71.7617 828.433 72.3711 827.812 73.2031H827.671L828.14 68.9141H835.687V66.0312H825.234L824.32 75.8047H827.507C828.011 74.8555 828.902 74.375 830.179 74.375C831.96 74.3867 833.238 75.6406 833.226 77.4453C833.238 79.2148 831.984 80.457 830.226 80.4453C828.75 80.457 827.542 79.543 827.46 78.2188H824.039C824.097 81.1484 826.687 83.2344 830.226 83.2344Z" fill="white"/>
<g filter="url(#filter5_dd_1133_26696)">
<rect x="941.932" y="83" width="150.068" height="82" rx="4" fill="white"/>
<path d="M992.391 108.639H990.159V110.871H986.494C985.721 110.054 984.613 109.562 983.374 109.553C980.948 109.562 979.102 111.311 979.12 113.719C979.102 116.092 980.948 117.85 983.374 117.85C984.622 117.85 985.729 117.349 986.503 116.531H990.159V120.328H992.391V108.639ZM981.247 113.719C981.238 112.365 982.126 111.557 983.374 111.557C984.552 111.557 985.457 112.365 985.466 113.719C985.457 115.055 984.552 115.863 983.374 115.863C982.126 115.863 981.238 115.055 981.247 113.719ZM981.774 124.336H992.778V122.543H984.024V119.15H981.774V124.336ZM987.461 112.664H990.159V114.738H987.47C987.549 114.413 987.593 114.07 987.593 113.719C987.593 113.35 987.549 112.998 987.461 112.664ZM1007.17 109.553H995.956V111.346H1004.94C1004.93 112.726 1004.89 114.299 1004.48 116.355H994.286V118.166H1000.39V124.635H1002.64V118.166H1008.88V116.355H1006.76C1007.16 114.114 1007.16 112.488 1007.17 110.994V109.553ZM1024.3 120.908H1018.01V117.287H1015.78V120.908H1009.66V122.701H1024.3V120.908ZM1010.01 115.934L1010.96 117.797C1013.76 117.296 1015.84 115.775 1016.89 113.789C1017.94 115.784 1020.03 117.287 1022.85 117.797L1023.8 115.934C1020.14 115.371 1018.07 112.963 1018.08 110.678V109.535H1015.69V110.678C1015.67 112.937 1013.63 115.371 1010.01 115.934ZM1038.49 108.621H1036.22V124.617H1038.49V108.621ZM1025.09 120.082L1026.27 121.875C1031.98 119.177 1033.68 115.143 1033.69 110.291H1025.95V112.049H1031.4C1031.04 115.6 1029.22 118.131 1025.09 120.082ZM1044.88 109.307C1042.42 109.289 1040.61 110.897 1040.63 113.086C1040.61 115.318 1042.42 116.918 1044.88 116.918C1046.94 116.918 1048.58 115.723 1048.99 113.965H1051.67V117.217H1053.9V108.621H1051.67V112.172H1048.98C1048.55 110.458 1046.92 109.289 1044.88 109.307ZM1042.75 113.086C1042.74 111.891 1043.62 111.161 1044.88 111.17C1046.09 111.161 1046.96 111.891 1046.97 113.086C1046.96 114.281 1046.09 115.037 1044.88 115.037C1043.62 115.037 1042.74 114.281 1042.75 113.086ZM1043.23 124.441H1053.9V117.92H1051.67V119.467H1045.44V117.92H1043.23V124.441ZM1045.44 122.631V121.189H1051.67V122.631H1045.44ZM999.238 138.934H984.613V140.762H999.238V138.934ZM986.283 144.664C986.283 146.554 988.392 147.626 991.89 147.617C995.362 147.626 997.445 146.554 997.463 144.664C997.445 142.783 995.362 141.72 991.89 141.729C988.392 141.72 986.283 142.783 986.283 144.664ZM986.389 137.809H997.568V136.033H988.621V133.854H997.48V132.043H986.389V137.809ZM988.568 144.664C988.559 143.855 989.676 143.434 991.89 143.434C994.061 143.434 995.204 143.855 995.213 144.664C995.204 145.508 994.061 145.912 991.89 145.912C989.676 145.912 988.559 145.508 988.568 144.664ZM1014.61 140.199H1008.41V139.039H1013.14V137.316H1004.03V136.262H1012.84V131.92H1001.77V133.66H1010.59V134.645H1001.8V139.039H1006.18V140.199H999.972V141.992H1014.61V140.199ZM1001.61 144.664H1010.66V147.547H1012.93V142.906H1001.61V144.664ZM1032.73 131.639H1030.48V143.311H1032.73V131.639ZM1019.28 139.355L1020.44 141.131C1022.31 140.489 1023.59 139.171 1024.31 137.536C1025.02 139.057 1026.26 140.252 1028.07 140.85L1029.21 139.092C1026.59 138.248 1025.45 136.183 1025.47 134.064V132.518H1023.13V134.064C1023.13 136.235 1021.96 138.459 1019.28 139.355ZM1022.01 147.336H1033.15V145.543H1024.27V142.186H1022.01V147.336ZM1043.83 133.291H1040.64V131.551H1038.37V133.291H1035.15V135.049H1038.37C1038.35 136.859 1037.16 138.688 1034.61 139.426L1035.66 141.166C1037.55 140.621 1038.83 139.452 1039.53 137.976C1040.26 139.276 1041.53 140.287 1043.36 140.744L1044.4 139.021C1041.82 138.362 1040.63 136.692 1040.6 135.049H1043.83V133.291ZM1037.23 144.559C1037.23 146.501 1039.33 147.626 1042.73 147.617C1046.14 147.626 1048.24 146.501 1048.25 144.559C1048.24 142.643 1046.14 141.562 1042.73 141.553C1039.33 141.562 1037.23 142.643 1037.23 144.559ZM1039.46 144.559C1039.46 143.706 1040.61 143.275 1042.73 143.275C1044.89 143.275 1046.01 143.706 1046.01 144.559C1046.01 145.438 1044.89 145.912 1042.73 145.912C1040.61 145.912 1039.46 145.438 1039.46 144.559ZM1043.36 137.703H1045.96V141.289H1048.19V131.621H1045.96V135.91H1043.36V137.703Z" fill="#374151"/>
</g>
<circle cx="1016.97" cy="74" r="20" fill="#008DFF"/>
<path d="M1017.15 83.2344C1020.99 83.2461 1023.59 80.7734 1023.58 77.3281C1023.59 74.1289 1021.31 71.8438 1018.25 71.8438C1016.38 71.8438 1014.7 72.7227 1013.92 74.2344H1013.75C1013.78 70.8945 1014.99 68.8203 1017.29 68.8203C1018.67 68.8203 1019.64 69.5586 1019.92 70.7422H1023.39C1023.05 67.9531 1020.7 65.7969 1017.29 65.7969C1013.05 65.7969 1010.32 69.1836 1010.31 74.9141C1010.3 81.125 1013.65 83.2227 1017.15 83.2344ZM1014.11 77.4219C1014.13 75.7695 1015.44 74.4102 1017.18 74.3984C1018.9 74.4102 1020.15 75.7227 1020.15 77.4219C1020.15 79.1328 1018.88 80.457 1017.13 80.4453C1015.4 80.457 1014.13 79.0859 1014.11 77.4219Z" fill="white"/>
<defs>
<filter id="filter0_dd_1133_26696" x="0" y="79" width="166.068" height="98" filterUnits="userSpaceOnUse" color-interpolation-filters="sRGB">
<feFlood flood-opacity="0" result="BackgroundImageFix"/>
<feColorMatrix in="SourceAlpha" type="matrix" values="0 0 0 0 0 0 0 0 0 0 0 0 0 0 0 0 0 0 127 0" result="hardAlpha"/>
<feOffset dy="4"/>
<feGaussianBlur stdDeviation="4"/>
<feColorMatrix type="matrix" values="0 0 0 0 0.458824 0 0 0 0 0.458824 0 0 0 0 0.458824 0 0 0 0.16 0"/>
<feBlend mode="normal" in2="BackgroundImageFix" result="effect1_dropShadow_1133_26696"/>
<feColorMatrix in="SourceAlpha" type="matrix" values="0 0 0 0 0 0 0 0 0 0 0 0 0 0 0 0 0 0 127 0" result="hardAlpha"/>
<feOffset dy="1"/>
<feGaussianBlur stdDeviation="1"/>
<feColorMatrix type="matrix" values="0 0 0 0 0.258824 0 0 0 0 0.258824 0 0 0 0 0.258824 0 0 0 0.04 0"/>
<feBlend mode="normal" in2="effect1_dropShadow_1133_26696" result="effect2_dropShadow_1133_26696"/>
<feBlend mode="normal" in="SourceGraphic" in2="effect2_dropShadow_1133_26696" result="shape"/>
</filter>
<filter id="filter1_dd_1133_26696" x="186.787" y="79" width="166.068" height="98" filterUnits="userSpaceOnUse" color-interpolation-filters="sRGB">
<feFlood flood-opacity="0" result="BackgroundImageFix"/>
<feColorMatrix in="SourceAlpha" type="matrix" values="0 0 0 0 0 0 0 0 0 0 0 0 0 0 0 0 0 0 127 0" result="hardAlpha"/>
<feOffset dy="4"/>
<feGaussianBlur stdDeviation="4"/>
<feColorMatrix type="matrix" values="0 0 0 0 0.458824 0 0 0 0 0.458824 0 0 0 0 0.458824 0 0 0 0.16 0"/>
<feBlend mode="normal" in2="BackgroundImageFix" result="effect1_dropShadow_1133_26696"/>
<feColorMatrix in="SourceAlpha" type="matrix" values="0 0 0 0 0 0 0 0 0 0 0 0 0 0 0 0 0 0 127 0" result="hardAlpha"/>
<feOffset dy="1"/>
<feGaussianBlur stdDeviation="1"/>
<feColorMatrix type="matrix" values="0 0 0 0 0.258824 0 0 0 0 0.258824 0 0 0 0 0.258824 0 0 0 0.04 0"/>
<feBlend mode="normal" in2="effect1_dropShadow_1133_26696" result="effect2_dropShadow_1133_26696"/>
<feBlend mode="normal" in="SourceGraphic" in2="effect2_dropShadow_1133_26696" result="shape"/>
</filter>
<filter id="filter2_dd_1133_26696" x="373.573" y="79" width="166.068" height="98" filterUnits="userSpaceOnUse" color-interpolation-filters="sRGB">
<feFlood flood-opacity="0" result="BackgroundImageFix"/>
<feColorMatrix in="SourceAlpha" type="matrix" values="0 0 0 0 0 0 0 0 0 0 0 0 0 0 0 0 0 0 127 0" result="hardAlpha"/>
<feOffset dy="4"/>
<feGaussianBlur stdDeviation="4"/>
<feColorMatrix type="matrix" values="0 0 0 0 0.458824 0 0 0 0 0.458824 0 0 0 0 0.458824 0 0 0 0.16 0"/>
<feBlend mode="normal" in2="BackgroundImageFix" result="effect1_dropShadow_1133_26696"/>
<feColorMatrix in="SourceAlpha" type="matrix" values="0 0 0 0 0 0 0 0 0 0 0 0 0 0 0 0 0 0 127 0" result="hardAlpha"/>
<feOffset dy="1"/>
<feGaussianBlur stdDeviation="1"/>
<feColorMatrix type="matrix" values="0 0 0 0 0.258824 0 0 0 0 0.258824 0 0 0 0 0.258824 0 0 0 0.04 0"/>
<feBlend mode="normal" in2="effect1_dropShadow_1133_26696" result="effect2_dropShadow_1133_26696"/>
<feBlend mode="normal" in="SourceGraphic" in2="effect2_dropShadow_1133_26696" result="shape"/>
</filter>
<filter id="filter3_dd_1133_26696" x="560.359" y="79" width="166.068" height="98" filterUnits="userSpaceOnUse" color-interpolation-filters="sRGB">
<feFlood flood-opacity="0" result="BackgroundImageFix"/>
<feColorMatrix in="SourceAlpha" type="matrix" values="0 0 0 0 0 0 0 0 0 0 0 0 0 0 0 0 0 0 127 0" result="hardAlpha"/>
<feOffset dy="4"/>
<feGaussianBlur stdDeviation="4"/>
<feColorMatrix type="matrix" values="0 0 0 0 0.458824 0 0 0 0 0.458824 0 0 0 0 0.458824 0 0 0 0.16 0"/>
<feBlend mode="normal" in2="BackgroundImageFix" result="effect1_dropShadow_1133_26696"/>
<feColorMatrix in="SourceAlpha" type="matrix" values="0 0 0 0 0 0 0 0 0 0 0 0 0 0 0 0 0 0 127 0" result="hardAlpha"/>
<feOffset dy="1"/>
<feGaussianBlur stdDeviation="1"/>
<feColorMatrix type="matrix" values="0 0 0 0 0.258824 0 0 0 0 0.258824 0 0 0 0 0.258824 0 0 0 0.04 0"/>
<feBlend mode="normal" in2="effect1_dropShadow_1133_26696" result="effect2_dropShadow_1133_26696"/>
<feBlend mode="normal" in="SourceGraphic" in2="effect2_dropShadow_1133_26696" result="shape"/>
</filter>
<filter id="filter4_dd_1133_26696" x="747.146" y="79" width="166.068" height="98" filterUnits="userSpaceOnUse" color-interpolation-filters="sRGB">
<feFlood flood-opacity="0" result="BackgroundImageFix"/>
<feColorMatrix in="SourceAlpha" type="matrix" values="0 0 0 0 0 0 0 0 0 0 0 0 0 0 0 0 0 0 127 0" result="hardAlpha"/>
<feOffset dy="4"/>
<feGaussianBlur stdDeviation="4"/>
<feColorMatrix type="matrix" values="0 0 0 0 0.458824 0 0 0 0 0.458824 0 0 0 0 0.458824 0 0 0 0.16 0"/>
<feBlend mode="normal" in2="BackgroundImageFix" result="effect1_dropShadow_1133_26696"/>
<feColorMatrix in="SourceAlpha" type="matrix" values="0 0 0 0 0 0 0 0 0 0 0 0 0 0 0 0 0 0 127 0" result="hardAlpha"/>
<feOffset dy="1"/>
<feGaussianBlur stdDeviation="1"/>
<feColorMatrix type="matrix" values="0 0 0 0 0.258824 0 0 0 0 0.258824 0 0 0 0 0.258824 0 0 0 0.04 0"/>
<feBlend mode="normal" in2="effect1_dropShadow_1133_26696" result="effect2_dropShadow_1133_26696"/>
<feBlend mode="normal" in="SourceGraphic" in2="effect2_dropShadow_1133_26696" result="shape"/>
</filter>
<filter id="filter5_dd_1133_26696" x="933.932" y="79" width="166.068" height="98" filterUnits="userSpaceOnUse" color-interpolation-filters="sRGB">
<feFlood flood-opacity="0" result="BackgroundImageFix"/>
<feColorMatrix in="SourceAlpha" type="matrix" values="0 0 0 0 0 0 0 0 0 0 0 0 0 0 0 0 0 0 127 0" result="hardAlpha"/>
<feOffset dy="4"/>
<feGaussianBlur stdDeviation="4"/>
<feColorMatrix type="matrix" values="0 0 0 0 0.458824 0 0 0 0 0.458824 0 0 0 0 0.458824 0 0 0 0.16 0"/>
<feBlend mode="normal" in2="BackgroundImageFix" result="effect1_dropShadow_1133_26696"/>
<feColorMatrix in="SourceAlpha" type="matrix" values="0 0 0 0 0 0 0 0 0 0 0 0 0 0 0 0 0 0 127 0" result="hardAlpha"/>
<feOffset dy="1"/>
<feGaussianBlur stdDeviation="1"/>
<feColorMatrix type="matrix" values="0 0 0 0 0.258824 0 0 0 0 0.258824 0 0 0 0 0.258824 0 0 0 0.04 0"/>
<feBlend mode="normal" in2="effect1_dropShadow_1133_26696" result="effect2_dropShadow_1133_26696"/>
<feBlend mode="normal" in="SourceGraphic" in2="effect2_dropShadow_1133_26696" result="shape"/>
</filter>
</defs>
</svg>
