<svg width="1100" height="373" viewBox="0 0 1100 373" fill="none" xmlns="http://www.w3.org/2000/svg">
<path d="M148.055 36.8281H145.055V49.3203H148.055V44.4453H150.938V41.9609H148.055V36.8281ZM131.133 41.0469H143.789V38.7031H138.961V36.6875H135.984V38.7031H131.133V41.0469ZM132.164 45.4297C132.164 47.7031 134.32 49.2031 137.461 49.2031C140.566 49.2031 142.711 47.7031 142.711 45.4297C142.711 43.1562 140.566 41.6562 137.461 41.6562C134.32 41.6562 132.164 43.1562 132.164 45.4297ZM134.086 57.9219H148.055V50.1406H145.055V51.7578H137.062V50.1406H134.086V57.9219ZM135.094 45.4297C135.082 44.4336 136.031 43.8359 137.461 43.8594C138.902 43.8359 139.875 44.4336 139.875 45.4297C139.875 46.4609 138.902 47.0117 137.461 47.0234C136.031 47.0117 135.082 46.4609 135.094 45.4297ZM137.062 55.5781V54.0547H145.055V55.5781H137.062ZM163.752 38.0703H152.127V40.4609H156.487C156.451 43.1211 154.834 45.8633 151.307 47L152.901 49.2969C155.373 48.4883 157.084 46.8242 158.033 44.75C158.959 46.6484 160.588 48.1719 162.955 48.9453L164.479 46.625C161.022 45.5234 159.522 42.957 159.51 40.4609H163.752V38.0703ZM154.19 52.9766H165.557V58.1562H168.557V50.6094H154.19V52.9766ZM165.557 49.6953H168.557V44.4922H171.44V42.0078H168.557V36.8281H165.557V49.6953ZM191.637 49.4609H172.114V51.8984H180.364V58.1562H183.317V51.8984H191.637V49.4609ZM174.575 47.9141H189.551V45.5469H177.504V43.9297H188.872V41.6328H177.504V40.0391H189.317V37.6953H174.575V47.9141ZM200.514 42.6406V41.3281H204.803V38.8906H192.991V41.3281H197.514V42.6406C197.491 46.168 195.698 50.1289 192.147 51.7812L193.882 54.1484C196.342 52.9883 198.1 50.5977 199.05 47.7852C200.01 50.3398 201.698 52.5195 204.077 53.6094L205.741 51.2656C202.237 49.6367 200.503 45.8867 200.514 42.6406ZM206.467 58.1562H209.467V47.4688H212.608V44.9609H209.467V36.8281H206.467V58.1562ZM225.048 38.7969H220.759V36.6406H217.782V38.7969H213.188V41.1641H225.048V38.7969ZM214.243 45.875C214.22 48.2656 216.294 49.8477 219.235 49.8359C222.165 49.8477 224.274 48.2656 224.298 45.875C224.274 43.5078 222.165 41.8789 219.235 41.8672C216.294 41.8789 214.22 43.5078 214.243 45.875ZM216.517 54.4297C216.505 56.75 219.317 58.168 223.876 58.1562C228.411 58.168 231.224 56.75 231.235 54.4297C231.224 52.0625 228.411 50.668 223.876 50.6797C219.317 50.668 216.505 52.0625 216.517 54.4297ZM217.032 45.875C217.02 44.7383 217.888 44.1055 219.235 44.0938C220.571 44.1055 221.509 44.7383 221.509 45.875C221.509 47.0234 220.571 47.6328 219.235 47.6328C217.888 47.6328 217.02 47.0234 217.032 45.875ZM219.657 54.4297C219.657 53.4102 221.145 52.9531 223.876 52.9297C226.548 52.9531 228.024 53.4102 228.024 54.4297C228.024 55.4023 226.548 55.9062 223.876 55.9062C221.145 55.9062 219.657 55.4023 219.657 54.4297ZM225.235 48.1719H228.142V50.4219H231.118V36.8281H228.142V41.5156H225.282V43.9062H228.142V45.7812H225.235V48.1719Z" fill="#111827"/>
<g filter="url(#filter0_dd_1133_26741)">
<rect x="30" y="79" width="140" height="125" rx="4" fill="white"/>
<path d="M61.4617 116.588C57.99 116.588 55.7576 117.695 55.7664 119.611C55.7576 121.501 57.99 122.626 61.4617 122.617C64.9598 122.626 67.157 121.501 67.1746 119.611C67.157 117.695 64.9598 116.588 61.4617 116.588ZM54.2898 115.568H68.8094V113.758H61.9539V110.963H59.7391V113.758H54.2898V115.568ZM55.9246 109.1H64.8543C64.8367 110.189 64.7928 111.271 64.4324 112.721L66.6297 112.932C67.0955 111.288 67.0955 109.917 67.0867 108.643V107.342H55.9246V109.1ZM57.9988 119.611C57.99 118.724 59.2557 118.249 61.4617 118.258C63.6678 118.249 64.9422 118.724 64.9422 119.611C64.9422 120.473 63.6678 120.912 61.4617 120.912C59.2557 120.912 57.99 120.473 57.9988 119.611ZM76.8384 116.588C73.3667 116.588 71.1343 117.695 71.143 119.611C71.1343 121.501 73.3667 122.626 76.8384 122.617C80.3364 122.626 82.5337 121.501 82.5513 119.611C82.5337 117.695 80.3364 116.588 76.8384 116.588ZM69.6665 115.568H84.186V113.758H77.3305V110.963H75.1157V113.758H69.6665V115.568ZM71.3013 109.1H80.2309C80.2134 110.189 80.1694 111.271 79.8091 112.721L82.0063 112.932C82.4721 111.288 82.4721 109.917 82.4634 108.643V107.342H71.3013V109.1ZM73.3755 119.611C73.3667 118.724 74.6323 118.249 76.8384 118.258C79.0444 118.249 80.3188 118.724 80.3188 119.611C80.3188 120.473 79.0444 120.912 76.8384 120.912C74.6323 120.912 73.3667 120.473 73.3755 119.611ZM98.4904 106.639H96.258V108.871H92.5929C91.8195 108.054 90.7121 107.562 89.4728 107.553C87.047 107.562 85.2013 109.311 85.2189 111.719C85.2013 114.092 87.047 115.85 89.4728 115.85C90.7209 115.85 91.8283 115.349 92.6017 114.531H96.258V118.328H98.4904V106.639ZM87.3459 111.719C87.3371 110.365 88.2248 109.557 89.4728 109.557C90.6505 109.557 91.5558 110.365 91.5646 111.719C91.5558 113.055 90.6505 113.863 89.4728 113.863C88.2248 113.863 87.3371 113.055 87.3459 111.719ZM87.8732 122.336H98.8771V120.543H90.1232V117.15H87.8732V122.336ZM93.5597 110.664H96.258V112.738H93.5685C93.6476 112.413 93.6916 112.07 93.6916 111.719C93.6916 111.35 93.6476 110.998 93.5597 110.664ZM113.269 107.553H102.055V109.346H111.037C111.028 110.726 110.993 112.299 110.58 114.355H100.385V116.166H106.484V122.635H108.734V116.166H114.974V114.355H112.856C113.261 112.114 113.261 110.488 113.269 108.994V107.553ZM129.209 106.621H126.941V122.617H129.209V106.621ZM115.814 118.082L116.992 119.875C122.705 117.177 124.401 113.143 124.41 108.291H116.675V110.049H122.125C121.764 113.6 119.945 116.131 115.814 118.082ZM140.103 107.781H131.876V109.609H137.914C137.897 110.567 137.826 111.736 137.536 113.266L139.734 113.477C140.103 111.49 140.103 109.891 140.103 108.783V107.781ZM130.927 114.637L131.12 116.43C133.906 116.421 137.651 116.359 140.982 115.744L140.859 114.127C139.356 114.347 137.73 114.47 136.13 114.54V111.473H133.898V114.61C132.834 114.637 131.823 114.637 130.927 114.637ZM133.282 122.336H144.515V120.543H135.532V117.52H133.282V122.336ZM141.72 118.592H144.023V113.371H145.956V111.49H144.023V106.621H141.72V118.592Z" fill="#374151"/>
<line x1="46" y1="141.5" x2="154" y2="141.5" stroke="#D1D5DB"/>
<path d="M87.8539 162.912H86.5414V175.162H87.8539V162.912ZM77.7914 171.881L78.475 172.934C82.6791 170.917 84.2035 167.813 84.2035 164.225H78.3793V165.264H82.891C82.6381 168.121 81.0453 170.329 77.7914 171.881ZM95.876 163.377V162.967H94.5498V163.377C94.543 164.785 92.6084 165.968 90.2159 166.234L90.667 167.219C92.6563 166.973 94.4131 166.125 95.2061 164.874C95.9922 166.125 97.7491 166.973 99.7588 167.219L100.21 166.234C97.8243 165.968 95.8829 164.785 95.876 163.377ZM89.628 168.969H94.5498V170.062H90.9678V171.061H98.1045V172.018H90.9815V175.039H99.7315V174.041H92.253V172.961H99.3897V170.062H95.8487V168.969H100.798V167.93H89.628V168.969ZM102.449 169.898C102.449 172.325 103.098 174.342 104.322 176.064H105.662C104.712 174.786 103.96 172.195 103.953 169.898C103.96 167.602 104.712 165.004 105.662 163.732H104.322C103.098 165.455 102.449 167.472 102.449 169.898ZM108.516 164.102H107.012V174H108.516V164.102ZM110.386 174H111.89V170.527H113.913C116.21 170.527 117.345 169.14 117.345 167.314C117.345 165.482 116.217 164.102 113.913 164.102H110.386V174ZM111.89 169.242V165.387H113.763C115.219 165.394 115.827 166.193 115.827 167.314C115.827 168.429 115.219 169.249 113.763 169.242H111.89ZM121.47 169.898C121.47 167.472 120.821 165.455 119.597 163.732H118.257C119.208 165.011 119.96 167.602 119.966 169.898C119.96 172.195 119.208 174.793 118.257 176.064H119.597C120.821 174.342 121.47 172.325 121.47 169.898Z" fill="#9CA3AF"/>
</g>
<g filter="url(#filter1_dd_1133_26741)">
<rect x="30" y="286" width="304" height="55" rx="4" fill="white"/>
<path d="M155.441 305.639H153.209V307.871H149.544C148.77 307.054 147.663 306.562 146.424 306.553C143.998 306.562 142.152 308.311 142.17 310.719C142.152 313.092 143.998 314.85 146.424 314.85C147.672 314.85 148.779 314.349 149.553 313.531H153.209V317.328H155.441V305.639ZM144.297 310.719C144.288 309.365 145.176 308.557 146.424 308.557C147.601 308.557 148.507 309.365 148.515 310.719C148.507 312.055 147.601 312.863 146.424 312.863C145.176 312.863 144.288 312.055 144.297 310.719ZM144.824 321.336H155.828V319.543H147.074V316.15H144.824V321.336ZM150.511 309.664H153.209V311.738H150.519C150.598 311.413 150.642 311.07 150.642 310.719C150.642 310.35 150.598 309.998 150.511 309.664ZM170.22 306.553H159.005V308.346H167.988C167.979 309.726 167.944 311.299 167.531 313.355H157.335V315.166H163.435V321.635H165.685V315.166H171.925V313.355H169.807C170.211 311.114 170.211 309.488 170.22 307.994V306.553ZM187.355 317.908H181.062V314.287H178.829V317.908H172.712V319.701H187.355V317.908ZM173.064 312.934L174.013 314.797C176.808 314.296 178.891 312.775 179.937 310.789C180.991 312.784 183.083 314.287 185.896 314.797L186.845 312.934C183.189 312.371 181.123 309.963 181.132 307.678V306.535H178.741V307.678C178.724 309.937 176.685 312.371 173.064 312.934ZM205.504 305.621H203.237V321.617H205.504V305.621ZM192.11 317.082L193.288 318.875C199.001 316.177 200.697 312.143 200.706 307.291H192.971V309.049H198.42C198.06 312.6 196.241 315.131 192.11 317.082ZM211.899 306.307C209.438 306.289 207.627 307.897 207.645 310.086C207.627 312.318 209.438 313.918 211.899 313.918C213.955 313.918 215.599 312.723 216.012 310.965H218.684V314.217H220.916V305.621H218.684V309.172H216.003C215.564 307.458 213.938 306.289 211.899 306.307ZM209.772 310.086C209.763 308.891 210.642 308.161 211.899 308.17C213.112 308.161 213.982 308.891 213.99 310.086C213.982 311.281 213.112 312.037 211.899 312.037C210.642 312.037 209.763 311.281 209.772 310.086ZM210.246 321.441H220.916V314.92H218.684V316.467H212.461V314.92H210.246V321.441ZM212.461 319.631V318.189H218.684V319.631H212.461Z" fill="#374151"/>
</g>
<path d="M76.7071 219.293C76.3166 218.902 75.6834 218.902 75.2929 219.293L68.9289 225.657C68.5384 226.047 68.5384 226.681 68.9289 227.071C69.3195 227.462 69.9526 227.462 70.3431 227.071L76 221.414L81.6569 227.071C82.0474 227.462 82.6805 227.462 83.0711 227.071C83.4616 226.681 83.4616 226.047 83.0711 225.657L76.7071 219.293ZM75 270C75 270.552 75.4477 271 76 271C76.5523 271 77 270.552 77 270L75 270ZM75 220L75 270L77 270L77 220L75 220Z" fill="#008DFF"/>
<g filter="url(#filter2_dd_1133_26741)">
<rect x="45" y="235" width="61" height="21" rx="2" fill="#008DFF"/>
<path d="M57.9147 244.641H51.4616V245.367H54.1881V245.812H52.1959V246.523H56.1569V246.875H52.2038V248.672H57.3288V247.938H53.1803V247.547H57.1413V245.812H55.1803V245.367H57.9147V244.641ZM51.7116 243.711L51.985 244.445C53.317 244.379 54.2311 244.047 54.6803 243.512C55.1295 244.047 56.0475 244.379 57.3678 244.445L57.6569 243.711C56.2233 243.648 55.4967 243.309 55.2936 242.898H57.3053V242.164H55.1725V241.602H54.1881V242.164H52.0709V242.898H54.0631C53.8561 243.309 53.1334 243.648 51.7116 243.711ZM60.905 243.547V243.109H62.3347V242.297H58.3972V243.109H59.905V243.547C59.8972 244.723 59.2995 246.043 58.1159 246.594L58.6941 247.383C59.5144 246.996 60.1003 246.199 60.4167 245.262C60.737 246.113 61.2995 246.84 62.0925 247.203L62.6472 246.422C61.4792 245.879 60.9011 244.629 60.905 243.547ZM62.8894 248.719H63.8894V245.156H64.9363V244.32H63.8894V241.609H62.8894V248.719ZM66.6141 247.422H65.5047L65.1141 249.648H65.9422L66.6141 247.422ZM71.5947 243.547V243.109H73.0791V242.297H69.0634V243.109H70.5713V243.547C70.5713 244.75 69.9619 246.066 68.7822 246.594L69.3525 247.383C70.1923 246.996 70.7822 246.215 71.1025 245.281C71.4228 246.141 72.0009 246.848 72.8369 247.203L73.3759 246.422C72.1845 245.926 71.5908 244.695 71.5947 243.547ZM73.7822 248.719H74.79V241.609H73.7822V248.719ZM81.6944 241.617H80.6944V245.742H79.335V246.422H80.6944V246.984H81.6944V241.617ZM75.6475 244.766L75.7647 245.555C76.3038 245.555 76.9092 245.551 77.5459 245.527V246.469H76.5538V248.594H81.8506V247.797H77.5459V246.82H78.5459V245.469C79.1202 245.426 79.7022 245.359 80.2647 245.266L80.21 244.555C78.7061 244.738 76.9483 244.758 75.6475 244.766ZM76.1709 243.133C76.1709 243.895 76.9014 244.387 77.96 244.383C78.9913 244.387 79.7295 243.895 79.7334 243.133C79.7295 242.375 78.9913 241.855 77.96 241.859C76.9014 241.855 76.1709 242.375 76.1709 243.133ZM77.1163 243.133C77.1123 242.781 77.4522 242.586 77.96 242.586C78.4366 242.586 78.7803 242.781 78.7881 243.133C78.7803 243.477 78.4366 243.668 77.96 243.664C77.4522 243.668 77.1123 243.477 77.1163 243.133ZM84.005 247.422H82.8956L82.505 249.648H83.3331L84.005 247.422ZM90.2122 242.125H86.5559V242.938H89.2395C89.2317 243.363 89.2005 243.883 89.0716 244.562L90.0481 244.656C90.2122 243.773 90.2122 243.062 90.2122 242.57V242.125ZM86.1341 245.172L86.22 245.969C87.4583 245.965 89.1223 245.938 90.6028 245.664L90.5481 244.945C89.8802 245.043 89.1575 245.098 88.4466 245.129V243.766H87.4544V245.16C86.9817 245.172 86.5325 245.172 86.1341 245.172ZM87.1809 248.594H92.1731V247.797H88.1809V246.453H87.1809V248.594ZM90.9309 246.93H91.9544V244.609H92.8138V243.773H91.9544V241.609H90.9309V246.93ZM99.0228 241.609H98.0306V248.734H99.0228V241.609ZM93.4369 243.008H95.8041V244.156H93.4447V247.07H94.0853C95.3822 247.07 96.4408 247.027 97.6087 246.82L97.5228 246.016C96.4798 246.188 95.5619 246.242 94.4759 246.25V244.945H96.8197V242.203H93.4369V243.008Z" fill="white"/>
</g>
<path d="M230.707 219.293C230.317 218.902 229.683 218.902 229.293 219.293L222.929 225.657C222.538 226.047 222.538 226.681 222.929 227.071C223.319 227.462 223.953 227.462 224.343 227.071L230 221.414L235.657 227.071C236.047 227.462 236.681 227.462 237.071 227.071C237.462 226.681 237.462 226.047 237.071 225.657L230.707 219.293ZM229 270C229 270.552 229.448 271 230 271C230.552 271 231 270.552 231 270L229 270ZM229 220L229 270L231 270L231 220L229 220Z" fill="#008DFF"/>
<g filter="url(#filter3_dd_1133_26741)">
<rect x="199" y="235" width="61" height="21" rx="2" fill="#008DFF"/>
<path d="M229.337 245.82H222.829V246.633H225.579V248.719H226.563V246.633H229.337V245.82ZM223.649 245.305H228.642V244.516H224.626V243.977H228.415V243.211H224.626V242.68H228.563V241.898H223.649V245.305ZM232.296 243.547V243.109H233.726V242.297H229.788V243.109H231.296V243.547C231.288 244.723 230.69 246.043 229.507 246.594L230.085 247.383C230.905 246.996 231.491 246.199 231.808 245.262C232.128 246.113 232.69 246.84 233.483 247.203L234.038 246.422C232.87 245.879 232.292 244.629 232.296 243.547ZM234.28 248.719H235.28V245.156H236.327V244.32H235.28V241.609H234.28V248.719Z" fill="white"/>
</g>
<g filter="url(#filter4_dd_1133_26741)">
<rect x="194" y="79" width="140" height="125" rx="4" fill="white"/>
<path d="M262.455 106.621H260.188V122.617H262.455V106.621ZM249.061 118.082L250.238 119.875C255.951 117.177 257.648 113.143 257.656 108.291H249.922V110.049H255.371C255.011 113.6 253.192 116.131 249.061 118.082ZM268.849 107.307C266.389 107.289 264.578 108.897 264.596 111.086C264.578 113.318 266.389 114.918 268.849 114.918C270.906 114.918 272.55 113.723 272.963 111.965H275.635V115.217H277.867V106.621H275.635V110.172H272.954C272.514 108.458 270.889 107.289 268.849 107.307ZM266.722 111.086C266.714 109.891 267.593 109.161 268.849 109.17C270.062 109.161 270.932 109.891 270.941 111.086C270.932 112.281 270.062 113.037 268.849 113.037C267.593 113.037 266.714 112.281 266.722 111.086ZM267.197 122.441H277.867V115.92H275.635V117.467H269.412V115.92H267.197V122.441ZM269.412 120.631V119.189H275.635V120.631H269.412Z" fill="#374151"/>
<line x1="210" y1="141.5" x2="318" y2="141.5" stroke="#D1D5DB"/>
<path d="M256.687 166.521V165.223H259.353V164.143H252.64V165.223H255.402V166.521C255.395 168.593 254.049 170.903 252.189 171.799L252.955 172.824C254.349 172.127 255.498 170.616 256.058 168.873C256.612 170.473 257.706 171.854 259.08 172.51L259.818 171.498C257.959 170.616 256.68 168.456 256.687 166.521ZM260.666 175.162H261.965V168.859H263.933V167.766H261.965V162.912H260.666V175.162ZM267.129 163.377H265.844V168.326H269.317V169.529H264.381V170.596H275.551V169.529H270.602V168.326H274.102V163.377H272.803V164.826H267.129V163.377ZM265.789 174.902H274.293V173.85H267.102V171.471H265.789V174.902ZM267.129 167.273V165.838H272.803V167.273H267.129Z" fill="#9CA3AF"/>
</g>
<path d="M144.293 270.707C144.683 271.098 145.317 271.098 145.707 270.707L152.071 264.343C152.462 263.953 152.462 263.319 152.071 262.929C151.681 262.538 151.047 262.538 150.657 262.929L145 268.586L139.343 262.929C138.953 262.538 138.319 262.538 137.929 262.929C137.538 263.319 137.538 263.953 137.929 264.343L144.293 270.707ZM146 220C146 219.448 145.552 219 145 219C144.448 219 144 219.448 144 220L146 220ZM146 270L146 220L144 220L144 270L146 270Z" fill="#111827"/>
<g filter="url(#filter5_dd_1133_26741)">
<rect x="114" y="235" width="61" height="21" rx="2" fill="#111827"/>
<path d="M138.977 242.242H138.04V247.031H140.868V242.242H139.946V243.844H138.977V242.242ZM138.977 246.234V244.625H139.946V246.234H138.977ZM141.462 248.391H142.407V245.133H143.048V248.719H144.001V241.609H143.048V244.32H142.407V241.711H141.462V248.391ZM150.327 241.609H149.312V245.727H150.327V244.109H151.273V243.297H150.327V241.609ZM144.921 245.344H145.515C147.12 245.34 147.956 245.309 148.835 245.117L148.749 244.32C147.956 244.488 147.233 244.531 145.913 244.539V242.883H148.116V242.086H144.921V245.344ZM145.546 247.273C145.542 248.188 146.495 248.723 147.983 248.719C149.444 248.723 150.378 248.188 150.382 247.273C150.378 246.379 149.444 245.852 147.983 245.852C146.495 245.852 145.542 246.379 145.546 247.273ZM146.53 247.273C146.526 246.855 147.05 246.637 147.983 246.641C148.886 246.637 149.409 246.855 149.413 247.273C149.409 247.703 148.886 247.93 147.983 247.93C147.05 247.93 146.526 247.703 146.53 247.273Z" fill="white"/>
</g>
<path d="M298.293 270.707C298.683 271.098 299.317 271.098 299.707 270.707L306.071 264.343C306.462 263.953 306.462 263.319 306.071 262.929C305.681 262.538 305.047 262.538 304.657 262.929L299 268.586L293.343 262.929C292.953 262.538 292.319 262.538 291.929 262.929C291.538 263.319 291.538 263.953 291.929 264.343L298.293 270.707ZM300 220C300 219.448 299.552 219 299 219C298.448 219 298 219.448 298 220L300 220ZM300 270L300 220L298 220L298 270L300 270Z" fill="#111827"/>
<g filter="url(#filter6_dd_1133_26741)">
<rect x="268" y="235" width="61" height="21" rx="2" fill="#111827"/>
<path d="M292.977 242.242H292.04V247.031H294.868V242.242H293.946V243.844H292.977V242.242ZM292.977 246.234V244.625H293.946V246.234H292.977ZM295.462 248.391H296.407V245.133H297.048V248.719H298.001V241.609H297.048V244.32H296.407V241.711H295.462V248.391ZM304.327 241.609H303.312V245.727H304.327V244.109H305.273V243.297H304.327V241.609ZM298.921 245.344H299.515C301.12 245.34 301.956 245.309 302.835 245.117L302.749 244.32C301.956 244.488 301.233 244.531 299.913 244.539V242.883H302.116V242.086H298.921V245.344ZM299.546 247.273C299.542 248.188 300.495 248.723 301.983 248.719C303.444 248.723 304.378 248.188 304.382 247.273C304.378 246.379 303.444 245.852 301.983 245.852C300.495 245.852 299.542 246.379 299.546 247.273ZM300.53 247.273C300.526 246.855 301.05 246.637 301.983 246.641C302.886 246.637 303.409 246.855 303.413 247.273C303.409 247.703 302.886 247.93 301.983 247.93C301.05 247.93 300.526 247.703 300.53 247.273Z" fill="white"/>
</g>
<path d="M473.062 36.8281H470.039V58.1562H473.062V36.8281ZM455.203 52.1094L456.773 54.5C464.391 50.9023 466.652 45.5234 466.664 39.0547H456.352V41.3984H463.617C463.137 46.1328 460.711 49.5078 455.203 52.1094ZM493.33 37.7188H477.416V40.1094H483.252C482.889 41.8789 480.709 43.6953 476.502 44.1406L477.58 46.5078C481.565 46.0391 484.213 44.375 485.338 42.1484C486.463 44.375 489.123 46.0391 493.119 46.5078L494.221 44.1406C490.014 43.6953 487.799 41.9023 487.448 40.1094H493.33V37.7188ZM475.635 50.3516H495.088V47.9375H486.815V44.9844H483.862V47.9375H475.635V50.3516ZM477.979 57.7812H492.885V55.3906H480.979V51.6406H477.979V57.7812ZM514.067 36.8281H511.043V58.1562H514.067V36.8281ZM496.208 52.1094L497.778 54.5C505.395 50.9023 507.657 45.5234 507.668 39.0547H497.356V41.3984H504.622C504.141 46.1328 501.715 49.5078 496.208 52.1094ZM522.592 37.7422C519.311 37.7188 516.897 39.8633 516.921 42.7812C516.897 45.7578 519.311 47.8906 522.592 47.8906C525.335 47.8906 527.526 46.2969 528.077 43.9531H531.639V48.2891H534.616V36.8281H531.639V41.5625H528.065C527.479 39.2773 525.311 37.7188 522.592 37.7422ZM519.757 42.7812C519.745 41.1875 520.917 40.2148 522.592 40.2266C524.21 40.2148 525.37 41.1875 525.382 42.7812C525.37 44.375 524.21 45.3828 522.592 45.3828C520.917 45.3828 519.745 44.375 519.757 42.7812ZM520.389 57.9219H534.616V49.2266H531.639V51.2891H523.342V49.2266H520.389V57.9219ZM523.342 55.5078V53.5859H531.639V55.5078H523.342ZM560.363 36.8281H557.339V58.1562H560.363V36.8281ZM542.503 52.1094L544.073 54.5C551.691 50.9023 553.952 45.5234 553.964 39.0547H543.652V41.3984H550.917C550.437 46.1328 548.011 49.5078 542.503 52.1094ZM574.208 37.3906V36.9453H571.138V37.3906C571.115 39.4766 568.677 41.5742 563.896 42.0781L564.904 44.3281C568.56 43.918 571.267 42.5234 572.65 40.5664C574.021 42.5234 576.74 43.918 580.443 44.3281L581.427 42.0781C576.658 41.5742 574.208 39.4766 574.208 37.3906ZM562.935 47.5625H571.138V48.9688H565.185V51.2422H577.068V52.3672H565.208V58.0156H580.583V55.7656H568.138V54.4766H580.021V48.9688H574.138V47.5625H582.388V45.2188H562.935V47.5625ZM602.843 45.9219H583.484V48.1016H591.664V49.4375H585.687V51.5703H597.57V52.625H585.711V58.0156H601.086V55.8125H588.64V54.6406H600.523V49.4375H594.64V48.1016H602.843V45.9219ZM584.234 43.1328L585.054 45.3359C589.05 45.1367 591.793 44.1406 593.14 42.5352C594.488 44.1406 597.242 45.1367 601.203 45.3359L602.07 43.1328C597.769 42.9453 595.59 41.9258 594.98 40.6953H601.015V38.4922H594.617V36.8047H591.664V38.4922H585.312V40.6953H591.289C590.668 41.9258 588.5 42.9453 584.234 43.1328ZM611.814 42.6406V41.3281H616.103V38.8906H604.291V41.3281H608.814V42.6406C608.791 46.168 606.998 50.1289 603.447 51.7812L605.182 54.1484C607.643 52.9883 609.4 50.5977 610.35 47.7852C611.31 50.3398 612.998 52.5195 615.377 53.6094L617.041 51.2656C613.537 49.6367 611.803 45.8867 611.814 42.6406ZM617.768 58.1562H620.768V47.4688H623.908V44.9609H620.768V36.8281H617.768V58.1562ZM636.348 38.7969H632.059V36.6406H629.082V38.7969H624.488V41.1641H636.348V38.7969ZM625.543 45.875C625.52 48.2656 627.594 49.8477 630.535 49.8359C633.465 49.8477 635.574 48.2656 635.598 45.875C635.574 43.5078 633.465 41.8789 630.535 41.8672C627.594 41.8789 625.52 43.5078 625.543 45.875ZM627.817 54.4297C627.805 56.75 630.617 58.168 635.176 58.1562C639.711 58.168 642.524 56.75 642.535 54.4297C642.524 52.0625 639.711 50.668 635.176 50.6797C630.617 50.668 627.805 52.0625 627.817 54.4297ZM628.332 45.875C628.32 44.7383 629.188 44.1055 630.535 44.0938C631.871 44.1055 632.809 44.7383 632.809 45.875C632.809 47.0234 631.871 47.6328 630.535 47.6328C629.188 47.6328 628.32 47.0234 628.332 45.875ZM630.957 54.4297C630.957 53.4102 632.445 52.9531 635.176 52.9297C637.848 52.9531 639.324 53.4102 639.324 54.4297C639.324 55.4023 637.848 55.9062 635.176 55.9062C632.445 55.9062 630.957 55.4023 630.957 54.4297ZM636.535 48.1719H639.442V50.4219H642.418V36.8281H639.442V41.5156H636.582V43.9062H639.442V45.7812H636.535V48.1719Z" fill="#111827"/>
<g filter="url(#filter7_dd_1133_26741)">
<rect x="398" y="79" width="140" height="125" rx="4" fill="white"/>
<path d="M429.462 116.588C425.99 116.588 423.758 117.695 423.766 119.611C423.758 121.501 425.99 122.626 429.462 122.617C432.96 122.626 435.157 121.501 435.175 119.611C435.157 117.695 432.96 116.588 429.462 116.588ZM422.29 115.568H436.809V113.758H429.954V110.963H427.739V113.758H422.29V115.568ZM423.925 109.1H432.854C432.837 110.189 432.793 111.271 432.432 112.721L434.63 112.932C435.096 111.288 435.096 109.917 435.087 108.643V107.342H423.925V109.1ZM425.999 119.611C425.99 118.724 427.256 118.249 429.462 118.258C431.668 118.249 432.942 118.724 432.942 119.611C432.942 120.473 431.668 120.912 429.462 120.912C427.256 120.912 425.99 120.473 425.999 119.611ZM444.838 116.588C441.367 116.588 439.134 117.695 439.143 119.611C439.134 121.501 441.367 122.626 444.838 122.617C448.336 122.626 450.534 121.501 450.551 119.611C450.534 117.695 448.336 116.588 444.838 116.588ZM437.666 115.568H452.186V113.758H445.331V110.963H443.116V113.758H437.666V115.568ZM439.301 109.1H448.231C448.213 110.189 448.169 111.271 447.809 112.721L450.006 112.932C450.472 111.288 450.472 109.917 450.463 108.643V107.342H439.301V109.1ZM441.375 119.611C441.367 118.724 442.632 118.249 444.838 118.258C447.044 118.249 448.319 118.724 448.319 119.611C448.319 120.473 447.044 120.912 444.838 120.912C442.632 120.912 441.367 120.473 441.375 119.611ZM466.49 106.639H464.258V108.871H460.593C459.819 108.054 458.712 107.562 457.473 107.553C455.047 107.562 453.201 109.311 453.219 111.719C453.201 114.092 455.047 115.85 457.473 115.85C458.721 115.85 459.828 115.349 460.602 114.531H464.258V118.328H466.49V106.639ZM455.346 111.719C455.337 110.365 456.225 109.557 457.473 109.557C458.651 109.557 459.556 110.365 459.565 111.719C459.556 113.055 458.651 113.863 457.473 113.863C456.225 113.863 455.337 113.055 455.346 111.719ZM455.873 122.336H466.877V120.543H458.123V117.15H455.873V122.336ZM461.56 110.664H464.258V112.738H461.569C461.648 112.413 461.692 112.07 461.692 111.719C461.692 111.35 461.648 110.998 461.56 110.664ZM481.269 107.553H470.055V109.346H479.037C479.028 110.726 478.993 112.299 478.58 114.355H468.385V116.166H474.484V122.635H476.734V116.166H482.974V114.355H480.856C481.261 112.114 481.261 110.488 481.269 108.994V107.553ZM497.209 106.621H494.941V122.617H497.209V106.621ZM483.814 118.082L484.992 119.875C490.705 117.177 492.401 113.143 492.41 108.291H484.675V110.049H490.125C489.764 113.6 487.945 116.131 483.814 118.082ZM508.103 107.781H499.876V109.609H505.914C505.897 110.567 505.826 111.736 505.536 113.266L507.734 113.477C508.103 111.49 508.103 109.891 508.103 108.783V107.781ZM498.927 114.637L499.12 116.43C501.906 116.421 505.651 116.359 508.982 115.744L508.859 114.127C507.356 114.347 505.73 114.47 504.13 114.54V111.473H501.898V114.61C500.834 114.637 499.823 114.637 498.927 114.637ZM501.282 122.336H512.515V120.543H503.532V117.52H501.282V122.336ZM509.72 118.592H512.023V113.371H513.956V111.49H512.023V106.621H509.72V118.592Z" fill="#374151"/>
<line x1="414" y1="141.5" x2="522" y2="141.5" stroke="#D1D5DB"/>
<path d="M455.854 162.912H454.541V175.162H455.854V162.912ZM445.791 171.881L446.475 172.934C450.679 170.917 452.204 167.813 452.204 164.225H446.379V165.264H450.891C450.638 168.121 449.045 170.329 445.791 171.881ZM463.876 163.377V162.967H462.55V163.377C462.543 164.785 460.608 165.968 458.216 166.234L458.667 167.219C460.656 166.973 462.413 166.125 463.206 164.874C463.992 166.125 465.749 166.973 467.759 167.219L468.21 166.234C465.824 165.968 463.883 164.785 463.876 163.377ZM457.628 168.969H462.55V170.062H458.968V171.061H466.105V172.018H458.981V175.039H467.731V174.041H460.253V172.961H467.39V170.062H463.849V168.969H468.798V167.93H457.628V168.969ZM470.449 169.898C470.449 172.325 471.098 174.342 472.322 176.064H473.662C472.712 174.786 471.96 172.195 471.953 169.898C471.96 167.602 472.712 165.004 473.662 163.732H472.322C471.098 165.455 470.449 167.472 470.449 169.898ZM476.516 164.102H475.012V174H476.516V164.102ZM478.386 174H479.89V170.527H481.913C484.21 170.527 485.345 169.14 485.345 167.314C485.345 165.482 484.217 164.102 481.913 164.102H478.386V174ZM479.89 169.242V165.387H481.763C483.219 165.394 483.827 166.193 483.827 167.314C483.827 168.429 483.219 169.249 481.763 169.242H479.89ZM489.47 169.898C489.47 167.472 488.821 165.455 487.597 163.732H486.257C487.208 165.011 487.96 167.602 487.966 169.898C487.96 172.195 487.208 174.793 486.257 176.064H487.597C488.821 174.342 489.47 172.325 489.47 169.898Z" fill="#9CA3AF"/>
</g>
<g filter="url(#filter8_dd_1133_26741)">
<rect x="398" y="286" width="304" height="55" rx="4" fill="white"/>
<path d="M523.441 305.639H521.209V307.871H517.544C516.77 307.054 515.663 306.562 514.424 306.553C511.998 306.562 510.152 308.311 510.17 310.719C510.152 313.092 511.998 314.85 514.424 314.85C515.672 314.85 516.779 314.349 517.553 313.531H521.209V317.328H523.441V305.639ZM512.297 310.719C512.288 309.365 513.176 308.557 514.424 308.557C515.601 308.557 516.507 309.365 516.515 310.719C516.507 312.055 515.601 312.863 514.424 312.863C513.176 312.863 512.288 312.055 512.297 310.719ZM512.824 321.336H523.828V319.543H515.074V316.15H512.824V321.336ZM518.511 309.664H521.209V311.738H518.519C518.598 311.413 518.642 311.07 518.642 310.719C518.642 310.35 518.598 309.998 518.511 309.664ZM538.22 306.553H527.005V308.346H535.988C535.979 309.726 535.944 311.299 535.531 313.355H525.335V315.166H531.435V321.635H533.685V315.166H539.925V313.355H537.807C538.211 311.114 538.211 309.488 538.22 307.994V306.553ZM555.355 317.908H549.062V314.287H546.829V317.908H540.712V319.701H555.355V317.908ZM541.064 312.934L542.013 314.797C544.808 314.296 546.891 312.775 547.937 310.789C548.991 312.784 551.083 314.287 553.896 314.797L554.845 312.934C551.189 312.371 549.123 309.963 549.132 307.678V306.535H546.741V307.678C546.724 309.937 544.685 312.371 541.064 312.934ZM573.504 305.621H571.237V321.617H573.504V305.621ZM560.11 317.082L561.288 318.875C567.001 316.177 568.697 312.143 568.706 307.291H560.971V309.049H566.42C566.06 312.6 564.241 315.131 560.11 317.082ZM579.899 306.307C577.438 306.289 575.627 307.897 575.645 310.086C575.627 312.318 577.438 313.918 579.899 313.918C581.955 313.918 583.599 312.723 584.012 310.965H586.684V314.217H588.916V305.621H586.684V309.172H584.003C583.564 307.458 581.938 306.289 579.899 306.307ZM577.772 310.086C577.763 308.891 578.642 308.161 579.899 308.17C581.112 308.161 581.982 308.891 581.99 310.086C581.982 311.281 581.112 312.037 579.899 312.037C578.642 312.037 577.763 311.281 577.772 310.086ZM578.246 321.441H588.916V314.92H586.684V316.467H580.461V314.92H578.246V321.441ZM580.461 319.631V318.189H586.684V319.631H580.461Z" fill="#374151"/>
</g>
<path d="M434.707 219.293C434.317 218.902 433.683 218.902 433.293 219.293L426.929 225.657C426.538 226.047 426.538 226.681 426.929 227.071C427.319 227.462 427.953 227.462 428.343 227.071L434 221.414L439.657 227.071C440.047 227.462 440.681 227.462 441.071 227.071C441.462 226.681 441.462 226.047 441.071 225.657L434.707 219.293ZM433 270C433 270.552 433.448 271 434 271C434.552 271 435 270.552 435 270L433 270ZM433 220L433 270L435 270L435 220L433 220Z" fill="#008DFF"/>
<g filter="url(#filter9_dd_1133_26741)">
<rect x="403" y="235" width="61" height="21" rx="2" fill="#008DFF"/>
<path d="M420.899 243.547V243.109H422.384V242.297H418.368V243.109H419.876V243.547C419.876 244.75 419.266 246.066 418.087 246.594L418.657 247.383C419.497 246.996 420.087 246.215 420.407 245.281C420.727 246.141 421.305 246.848 422.141 247.203L422.68 246.422C421.489 245.926 420.895 244.695 420.899 243.547ZM423.087 248.719H424.095V241.609H423.087V248.719ZM430.999 241.617H429.999V245.742H428.64V246.422H429.999V246.984H430.999V241.617ZM424.952 244.766L425.069 245.555C425.608 245.555 426.214 245.551 426.85 245.527V246.469H425.858V248.594H431.155V247.797H426.85V246.82H427.85V245.469C428.425 245.426 429.007 245.359 429.569 245.266L429.515 244.555C428.011 244.738 426.253 244.758 424.952 244.766ZM425.475 243.133C425.475 243.895 426.206 244.387 427.265 244.383C428.296 244.387 429.034 243.895 429.038 243.133C429.034 242.375 428.296 241.855 427.265 241.859C426.206 241.855 425.475 242.375 425.475 243.133ZM426.421 243.133C426.417 242.781 426.757 242.586 427.265 242.586C427.741 242.586 428.085 242.781 428.093 243.133C428.085 243.477 427.741 243.668 427.265 243.664C426.757 243.668 426.417 243.477 426.421 243.133ZM433.31 247.422H432.2L431.81 249.648H432.638L433.31 247.422ZM439.517 242.125H435.86V242.938H438.544C438.536 243.363 438.505 243.883 438.376 244.562L439.353 244.656C439.517 243.773 439.517 243.062 439.517 242.57V242.125ZM435.439 245.172L435.525 245.969C436.763 245.965 438.427 245.938 439.907 245.664L439.853 244.945C439.185 245.043 438.462 245.098 437.751 245.129V243.766H436.759V245.16C436.286 245.172 435.837 245.172 435.439 245.172ZM436.485 248.594H441.478V247.797H437.485V246.453H436.485V248.594ZM440.235 246.93H441.259V244.609H442.118V243.773H441.259V241.609H440.235V246.93ZM448.327 241.609H447.335V248.734H448.327V241.609ZM442.741 243.008H445.109V244.156H442.749V247.07H443.39C444.687 247.07 445.745 247.027 446.913 246.82L446.827 246.016C445.784 246.188 444.866 246.242 443.78 246.25V244.945H446.124V242.203H442.741V243.008Z" fill="white"/>
</g>
<g filter="url(#filter10_dd_1133_26741)">
<rect x="562" y="79" width="140" height="125" rx="4" fill="white"/>
<path d="M613.094 106.621H610.827V122.617H613.094V106.621ZM599.7 118.082L600.878 119.875C606.59 117.177 608.287 113.143 608.296 108.291H600.561V110.049H606.01C605.65 113.6 603.831 116.131 599.7 118.082ZM628.295 107.289H616.36V109.082H620.737C620.464 110.409 618.829 111.771 615.674 112.105L616.483 113.881C619.471 113.529 621.457 112.281 622.301 110.611C623.145 112.281 625.14 113.529 628.137 113.881L628.963 112.105C625.808 111.771 624.147 110.427 623.883 109.082H628.295V107.289ZM615.024 116.764H629.614V114.953H623.409V112.738H621.194V114.953H615.024V116.764ZM616.782 122.336H627.961V120.543H619.032V117.73H616.782V122.336ZM647.816 106.621H645.549V122.617H647.816V106.621ZM634.422 118.082L635.599 119.875C641.312 117.177 643.008 113.143 643.017 108.291H635.283V110.049H640.732C640.372 113.6 638.552 116.131 634.422 118.082ZM654.21 107.307C651.749 107.289 649.939 108.897 649.956 111.086C649.939 113.318 651.749 114.918 654.21 114.918C656.267 114.918 657.911 113.723 658.324 111.965H660.995V115.217H663.228V106.621H660.995V110.172H658.315C657.875 108.458 656.249 107.289 654.21 107.307ZM652.083 111.086C652.075 109.891 652.953 109.161 654.21 109.17C655.423 109.161 656.293 109.891 656.302 111.086C656.293 112.281 655.423 113.037 654.21 113.037C652.953 113.037 652.075 112.281 652.083 111.086ZM652.558 122.441H663.228V115.92H660.995V117.467H654.773V115.92H652.558V122.441ZM654.773 120.631V119.189H660.995V120.631H654.773Z" fill="#374151"/>
<line x1="578" y1="141.5" x2="686" y2="141.5" stroke="#D1D5DB"/>
<path d="M624.687 166.521V165.223H627.353V164.143H620.64V165.223H623.402V166.521C623.395 168.593 622.049 170.903 620.189 171.799L620.955 172.824C622.349 172.127 623.498 170.616 624.058 168.873C624.612 170.473 625.706 171.854 627.08 172.51L627.818 171.498C625.959 170.616 624.68 168.456 624.687 166.521ZM628.666 175.162H629.965V168.859H631.933V167.766H629.965V162.912H628.666V175.162ZM635.129 163.377H633.844V168.326H637.317V169.529H632.381V170.596H643.551V169.529H638.602V168.326H642.102V163.377H640.803V164.826H635.129V163.377ZM633.789 174.902H642.293V173.85H635.102V171.471H633.789V174.902ZM635.129 167.273V165.838H640.803V167.273H635.129Z" fill="#9CA3AF"/>
</g>
<path d="M502.293 270.707C502.683 271.098 503.317 271.098 503.707 270.707L510.071 264.343C510.462 263.953 510.462 263.319 510.071 262.929C509.681 262.538 509.047 262.538 508.657 262.929L503 268.586L497.343 262.929C496.953 262.538 496.319 262.538 495.929 262.929C495.538 263.319 495.538 263.953 495.929 264.343L502.293 270.707ZM504 220C504 219.448 503.552 219 503 219C502.448 219 502 219.448 502 220L504 220ZM504 270L504 220L502 220L502 270L504 270Z" fill="#111827"/>
<g filter="url(#filter11_dd_1133_26741)">
<rect x="472" y="235" width="61" height="21" rx="2" fill="#111827"/>
<path d="M496.977 242.242H496.04V247.031H498.868V242.242H497.946V243.844H496.977V242.242ZM496.977 246.234V244.625H497.946V246.234H496.977ZM499.462 248.391H500.407V245.133H501.048V248.719H502.001V241.609H501.048V244.32H500.407V241.711H499.462V248.391ZM508.327 241.609H507.312V245.727H508.327V244.109H509.273V243.297H508.327V241.609ZM502.921 245.344H503.515C505.12 245.34 505.956 245.309 506.835 245.117L506.749 244.32C505.956 244.488 505.233 244.531 503.913 244.539V242.883H506.116V242.086H502.921V245.344ZM503.546 247.273C503.542 248.188 504.495 248.723 505.983 248.719C507.444 248.723 508.378 248.188 508.382 247.273C508.378 246.379 507.444 245.852 505.983 245.852C504.495 245.852 503.542 246.379 503.546 247.273ZM504.53 247.273C504.526 246.855 505.05 246.637 505.983 246.641C506.886 246.637 507.409 246.855 507.413 247.273C507.409 247.703 506.886 247.93 505.983 247.93C505.05 247.93 504.526 247.703 504.53 247.273Z" fill="white"/>
</g>
<path d="M631.293 270.707C631.683 271.098 632.317 271.098 632.707 270.707L639.071 264.343C639.462 263.953 639.462 263.319 639.071 262.929C638.681 262.538 638.047 262.538 637.657 262.929L632 268.586L626.343 262.929C625.953 262.538 625.319 262.538 624.929 262.929C624.538 263.319 624.538 263.953 624.929 264.343L631.293 270.707ZM633 220C633 219.448 632.552 219 632 219C631.448 219 631 219.448 631 220L633 220ZM633 270L633 220L631 220L631 270L633 270Z" fill="#111827"/>
<path d="M572.707 141.707C573.098 141.317 573.098 140.683 572.707 140.293L566.343 133.929C565.953 133.538 565.319 133.538 564.929 133.929C564.538 134.319 564.538 134.953 564.929 135.343L570.586 141L564.929 146.657C564.538 147.047 564.538 147.681 564.929 148.071C565.319 148.462 565.953 148.462 566.343 148.071L572.707 141.707ZM528 140C527.448 140 527 140.448 527 141C527 141.552 527.448 142 528 142L528 140ZM572 140L528 140L528 142L572 142L572 140Z" fill="#111827"/>
<g filter="url(#filter12_dd_1133_26741)">
<rect x="537" y="131" width="25" height="21" rx="2" fill="#111827"/>
<path d="M549.306 140.641H542.852V141.367H545.579V141.812H543.587V142.523H547.548V142.875H543.595V144.672H548.72V143.938H544.571V143.547H548.532V141.812H546.571V141.367H549.306V140.641ZM543.102 139.711L543.376 140.445C544.708 140.379 545.622 140.047 546.071 139.512C546.52 140.047 547.438 140.379 548.759 140.445L549.048 139.711C547.614 139.648 546.888 139.309 546.685 138.898H548.696V138.164H546.563V137.602H545.579V138.164H543.462V138.898H545.454C545.247 139.309 544.524 139.648 543.102 139.711ZM552.296 139.547V139.109H553.726V138.297H549.788V139.109H551.296V139.547C551.288 140.723 550.69 142.043 549.507 142.594L550.085 143.383C550.905 142.996 551.491 142.199 551.808 141.262C552.128 142.113 552.69 142.84 553.483 143.203L554.038 142.422C552.87 141.879 552.292 140.629 552.296 139.547ZM554.28 144.719H555.28V141.156H556.327V140.32H555.28V137.609H554.28V144.719Z" fill="white"/>
</g>
<path d="M884.992 36.8516H881.992V52.4141H884.992V36.8516ZM867.062 47.1406L868.609 49.5078C871.105 48.6523 872.805 46.8945 873.766 44.7148C874.715 46.7422 876.367 48.3359 878.781 49.1328L880.305 46.7891C876.801 45.6641 875.289 42.9102 875.312 40.0859V38.0234H872.195V40.0859C872.195 42.9805 870.637 45.9453 867.062 47.1406ZM870.695 57.7812H885.555V55.3906H873.719V50.9141H870.695V57.7812ZM904.58 38H889.955V40.4141H901.662C901.639 42.0898 901.545 44.3047 900.994 47.1875H887.635V49.6016H892.065V58.1562H895.065V49.6016H899.494V58.1562H902.471V49.6016H907.088V47.1875H904.018C904.569 43.6719 904.569 41.2227 904.58 39.4297V38ZM920.301 39.0781H916.036V36.7344H913.012V39.0781H908.723V41.4219H913.012C912.989 43.8594 911.407 46.2734 907.973 47.2109L909.403 49.5547C911.911 48.8047 913.622 47.2578 914.559 45.3125C915.52 47.0234 917.196 48.3711 919.622 49.0156L920.981 46.6719C917.547 45.7812 916.024 43.6016 915.989 41.4219H920.301V39.0781ZM910.762 54.1484C910.75 56.668 913.528 58.1328 918.075 58.1328C922.528 58.1328 925.258 56.668 925.27 54.1484C925.258 51.5586 922.528 50.0938 918.075 50.0938C913.528 50.0938 910.75 51.5586 910.762 54.1484ZM913.762 54.1484C913.739 52.9297 915.239 52.3906 918.075 52.3906C920.84 52.3906 922.317 52.9297 922.317 54.1484C922.317 55.3086 920.84 55.8828 918.075 55.8828C915.239 55.8828 913.739 55.3086 913.762 54.1484ZM922.059 49.6953H925.059V44.3047H927.942V41.8906H925.059V36.8281H922.059V49.6953ZM934.592 37.7422C931.311 37.7188 928.897 39.8633 928.921 42.7812C928.897 45.7578 931.311 47.8906 934.592 47.8906C937.335 47.8906 939.526 46.2969 940.077 43.9531H943.639V48.2891H946.616V36.8281H943.639V41.5625H940.065C939.479 39.2773 937.311 37.7188 934.592 37.7422ZM931.757 42.7812C931.745 41.1875 932.917 40.2148 934.592 40.2266C936.21 40.2148 937.37 41.1875 937.382 42.7812C937.37 44.375 936.21 45.3828 934.592 45.3828C932.917 45.3828 931.745 44.375 931.757 42.7812ZM932.389 57.9219H946.616V49.2266H943.639V51.2891H935.342V49.2266H932.389V57.9219ZM935.342 55.5078V53.5859H943.639V55.5078H935.342ZM961.048 38.7969H956.759V36.6406H953.782V38.7969H949.188V41.1641H961.048V38.7969ZM950.243 45.875C950.22 48.2656 952.294 49.8477 955.235 49.8359C958.165 49.8477 960.274 48.2656 960.298 45.875C960.274 43.5078 958.165 41.8789 955.235 41.8672C952.294 41.8789 950.22 43.5078 950.243 45.875ZM952.517 54.4297C952.505 56.75 955.317 58.168 959.876 58.1562C964.411 58.168 967.224 56.75 967.235 54.4297C967.224 52.0625 964.411 50.668 959.876 50.6797C955.317 50.668 952.505 52.0625 952.517 54.4297ZM953.032 45.875C953.02 44.7383 953.888 44.1055 955.235 44.0938C956.571 44.1055 957.509 44.7383 957.509 45.875C957.509 47.0234 956.571 47.6328 955.235 47.6328C953.888 47.6328 953.02 47.0234 953.032 45.875ZM955.657 54.4297C955.657 53.4102 957.145 52.9531 959.876 52.9297C962.548 52.9531 964.024 53.4102 964.024 54.4297C964.024 55.4023 962.548 55.9062 959.876 55.9062C957.145 55.9062 955.657 55.4023 955.657 54.4297ZM961.235 48.1719H964.142V50.4219H967.118V36.8281H964.142V41.5156H961.282V43.9062H964.142V45.7812H961.235V48.1719Z" fill="#111827"/>
<g filter="url(#filter13_dd_1133_26741)">
<rect x="766" y="79" width="140" height="125" rx="4" fill="white"/>
<path d="M797.462 116.588C793.99 116.588 791.758 117.695 791.766 119.611C791.758 121.501 793.99 122.626 797.462 122.617C800.96 122.626 803.157 121.501 803.175 119.611C803.157 117.695 800.96 116.588 797.462 116.588ZM790.29 115.568H804.809V113.758H797.954V110.963H795.739V113.758H790.29V115.568ZM791.925 109.1H800.854C800.837 110.189 800.793 111.271 800.432 112.721L802.63 112.932C803.096 111.288 803.096 109.917 803.087 108.643V107.342H791.925V109.1ZM793.999 119.611C793.99 118.724 795.256 118.249 797.462 118.258C799.668 118.249 800.942 118.724 800.942 119.611C800.942 120.473 799.668 120.912 797.462 120.912C795.256 120.912 793.99 120.473 793.999 119.611ZM812.838 116.588C809.367 116.588 807.134 117.695 807.143 119.611C807.134 121.501 809.367 122.626 812.838 122.617C816.336 122.626 818.534 121.501 818.551 119.611C818.534 117.695 816.336 116.588 812.838 116.588ZM805.666 115.568H820.186V113.758H813.331V110.963H811.116V113.758H805.666V115.568ZM807.301 109.1H816.231C816.213 110.189 816.169 111.271 815.809 112.721L818.006 112.932C818.472 111.288 818.472 109.917 818.463 108.643V107.342H807.301V109.1ZM809.375 119.611C809.367 118.724 810.632 118.249 812.838 118.258C815.044 118.249 816.319 118.724 816.319 119.611C816.319 120.473 815.044 120.912 812.838 120.912C810.632 120.912 809.367 120.473 809.375 119.611ZM834.49 106.639H832.258V108.871H828.593C827.819 108.054 826.712 107.562 825.473 107.553C823.047 107.562 821.201 109.311 821.219 111.719C821.201 114.092 823.047 115.85 825.473 115.85C826.721 115.85 827.828 115.349 828.602 114.531H832.258V118.328H834.49V106.639ZM823.346 111.719C823.337 110.365 824.225 109.557 825.473 109.557C826.651 109.557 827.556 110.365 827.565 111.719C827.556 113.055 826.651 113.863 825.473 113.863C824.225 113.863 823.337 113.055 823.346 111.719ZM823.873 122.336H834.877V120.543H826.123V117.15H823.873V122.336ZM829.56 110.664H832.258V112.738H829.569C829.648 112.413 829.692 112.07 829.692 111.719C829.692 111.35 829.648 110.998 829.56 110.664ZM849.269 107.553H838.055V109.346H847.037C847.028 110.726 846.993 112.299 846.58 114.355H836.385V116.166H842.484V122.635H844.734V116.166H850.974V114.355H848.856C849.261 112.114 849.261 110.488 849.269 108.994V107.553ZM865.209 106.621H862.941V122.617H865.209V106.621ZM851.814 118.082L852.992 119.875C858.705 117.177 860.401 113.143 860.41 108.291H852.675V110.049H858.125C857.764 113.6 855.945 116.131 851.814 118.082ZM876.103 107.781H867.876V109.609H873.914C873.897 110.567 873.826 111.736 873.536 113.266L875.734 113.477C876.103 111.49 876.103 109.891 876.103 108.783V107.781ZM866.927 114.637L867.12 116.43C869.906 116.421 873.651 116.359 876.982 115.744L876.859 114.127C875.356 114.347 873.73 114.47 872.13 114.54V111.473H869.898V114.61C868.834 114.637 867.823 114.637 866.927 114.637ZM869.282 122.336H880.515V120.543H871.532V117.52H869.282V122.336ZM877.72 118.592H880.023V113.371H881.956V111.49H880.023V106.621H877.72V118.592Z" fill="#374151"/>
<line x1="782" y1="141.5" x2="890" y2="141.5" stroke="#D1D5DB"/>
<path d="M823.854 162.912H822.541V175.162H823.854V162.912ZM813.791 171.881L814.475 172.934C818.679 170.917 820.204 167.813 820.204 164.225H814.379V165.264H818.891C818.638 168.121 817.045 170.329 813.791 171.881ZM831.876 163.377V162.967H830.55V163.377C830.543 164.785 828.608 165.968 826.216 166.234L826.667 167.219C828.656 166.973 830.413 166.125 831.206 164.874C831.992 166.125 833.749 166.973 835.759 167.219L836.21 166.234C833.824 165.968 831.883 164.785 831.876 163.377ZM825.628 168.969H830.55V170.062H826.968V171.061H834.105V172.018H826.981V175.039H835.731V174.041H828.253V172.961H835.39V170.062H831.849V168.969H836.798V167.93H825.628V168.969ZM838.449 169.898C838.449 172.325 839.098 174.342 840.322 176.064H841.662C840.712 174.786 839.96 172.195 839.953 169.898C839.96 167.602 840.712 165.004 841.662 163.732H840.322C839.098 165.455 838.449 167.472 838.449 169.898ZM844.516 164.102H843.012V174H844.516V164.102ZM846.386 174H847.89V170.527H849.913C852.21 170.527 853.345 169.14 853.345 167.314C853.345 165.482 852.217 164.102 849.913 164.102H846.386V174ZM847.89 169.242V165.387H849.763C851.219 165.394 851.827 166.193 851.827 167.314C851.827 168.429 851.219 169.249 849.763 169.242H847.89ZM857.47 169.898C857.47 167.472 856.821 165.455 855.597 163.732H854.257C855.208 165.011 855.96 167.602 855.966 169.898C855.96 172.195 855.208 174.793 854.257 176.064H855.597C856.821 174.342 857.47 172.325 857.47 169.898Z" fill="#9CA3AF"/>
</g>
<g filter="url(#filter14_dd_1133_26741)">
<rect x="766" y="286" width="304" height="55" rx="4" fill="white"/>
<path d="M891.441 305.639H889.209V307.871H885.544C884.77 307.054 883.663 306.562 882.424 306.553C879.998 306.562 878.152 308.311 878.17 310.719C878.152 313.092 879.998 314.85 882.424 314.85C883.672 314.85 884.779 314.349 885.553 313.531H889.209V317.328H891.441V305.639ZM880.297 310.719C880.288 309.365 881.176 308.557 882.424 308.557C883.601 308.557 884.507 309.365 884.515 310.719C884.507 312.055 883.601 312.863 882.424 312.863C881.176 312.863 880.288 312.055 880.297 310.719ZM880.824 321.336H891.828V319.543H883.074V316.15H880.824V321.336ZM886.511 309.664H889.209V311.738H886.519C886.598 311.413 886.642 311.07 886.642 310.719C886.642 310.35 886.598 309.998 886.511 309.664ZM906.22 306.553H895.005V308.346H903.988C903.979 309.726 903.944 311.299 903.531 313.355H893.335V315.166H899.435V321.635H901.685V315.166H907.925V313.355H905.807C906.211 311.114 906.211 309.488 906.22 307.994V306.553ZM923.355 317.908H917.062V314.287H914.829V317.908H908.712V319.701H923.355V317.908ZM909.064 312.934L910.013 314.797C912.808 314.296 914.891 312.775 915.937 310.789C916.991 312.784 919.083 314.287 921.896 314.797L922.845 312.934C919.189 312.371 917.123 309.963 917.132 307.678V306.535H914.741V307.678C914.724 309.937 912.685 312.371 909.064 312.934ZM941.504 305.621H939.237V321.617H941.504V305.621ZM928.11 317.082L929.288 318.875C935.001 316.177 936.697 312.143 936.706 307.291H928.971V309.049H934.42C934.06 312.6 932.241 315.131 928.11 317.082ZM947.899 306.307C945.438 306.289 943.627 307.897 943.645 310.086C943.627 312.318 945.438 313.918 947.899 313.918C949.955 313.918 951.599 312.723 952.012 310.965H954.684V314.217H956.916V305.621H954.684V309.172H952.003C951.564 307.458 949.938 306.289 947.899 306.307ZM945.772 310.086C945.763 308.891 946.642 308.161 947.899 308.17C949.112 308.161 949.982 308.891 949.99 310.086C949.982 311.281 949.112 312.037 947.899 312.037C946.642 312.037 945.763 311.281 945.772 310.086ZM946.246 321.441H956.916V314.92H954.684V316.467H948.461V314.92H946.246V321.441ZM948.461 319.631V318.189H954.684V319.631H948.461Z" fill="#374151"/>
</g>
<path d="M802.707 219.293C802.317 218.902 801.683 218.902 801.293 219.293L794.929 225.657C794.538 226.047 794.538 226.681 794.929 227.071C795.319 227.462 795.953 227.462 796.343 227.071L802 221.414L807.657 227.071C808.047 227.462 808.681 227.462 809.071 227.071C809.462 226.681 809.462 226.047 809.071 225.657L802.707 219.293ZM801 270C801 270.552 801.448 271 802 271C802.552 271 803 270.552 803 270L801 270ZM801 220L801 270L803 270L803 220L801 220Z" fill="#008DFF"/>
<g filter="url(#filter15_dd_1133_26741)">
<rect x="771" y="235" width="61" height="21" rx="2" fill="#008DFF"/>
<path d="M783.915 244.641H777.462V245.367H780.188V245.812H778.196V246.523H782.157V246.875H778.204V248.672H783.329V247.938H779.18V247.547H783.141V245.812H781.18V245.367H783.915V244.641ZM777.712 243.711L777.985 244.445C779.317 244.379 780.231 244.047 780.68 243.512C781.13 244.047 782.048 244.379 783.368 244.445L783.657 243.711C782.223 243.648 781.497 243.309 781.294 242.898H783.305V242.164H781.173V241.602H780.188V242.164H778.071V242.898H780.063C779.856 243.309 779.133 243.648 777.712 243.711ZM786.905 243.547V243.109H788.335V242.297H784.397V243.109H785.905V243.547C785.897 244.723 785.3 246.043 784.116 246.594L784.694 247.383C785.514 246.996 786.1 246.199 786.417 245.262C786.737 246.113 787.3 246.84 788.093 247.203L788.647 246.422C787.479 245.879 786.901 244.629 786.905 243.547ZM788.889 248.719H789.889V245.156H790.936V244.32H789.889V241.609H788.889V248.719ZM792.614 247.422H791.505L791.114 249.648H791.942L792.614 247.422ZM797.595 243.547V243.109H799.079V242.297H795.063V243.109H796.571V243.547C796.571 244.75 795.962 246.066 794.782 246.594L795.353 247.383C796.192 246.996 796.782 246.215 797.103 245.281C797.423 246.141 798.001 246.848 798.837 247.203L799.376 246.422C798.185 245.926 797.591 244.695 797.595 243.547ZM799.782 248.719H800.79V241.609H799.782V248.719ZM807.694 241.617H806.694V245.742H805.335V246.422H806.694V246.984H807.694V241.617ZM801.648 244.766L801.765 245.555C802.304 245.555 802.909 245.551 803.546 245.527V246.469H802.554V248.594H807.851V247.797H803.546V246.82H804.546V245.469C805.12 245.426 805.702 245.359 806.265 245.266L806.21 244.555C804.706 244.738 802.948 244.758 801.648 244.766ZM802.171 243.133C802.171 243.895 802.901 244.387 803.96 244.383C804.991 244.387 805.73 243.895 805.733 243.133C805.73 242.375 804.991 241.855 803.96 241.859C802.901 241.855 802.171 242.375 802.171 243.133ZM803.116 243.133C803.112 242.781 803.452 242.586 803.96 242.586C804.437 242.586 804.78 242.781 804.788 243.133C804.78 243.477 804.437 243.668 803.96 243.664C803.452 243.668 803.112 243.477 803.116 243.133ZM810.005 247.422H808.896L808.505 249.648H809.333L810.005 247.422ZM816.212 242.125H812.556V242.938H815.24C815.232 243.363 815.2 243.883 815.072 244.562L816.048 244.656C816.212 243.773 816.212 243.062 816.212 242.57V242.125ZM812.134 245.172L812.22 245.969C813.458 245.965 815.122 245.938 816.603 245.664L816.548 244.945C815.88 245.043 815.158 245.098 814.447 245.129V243.766H813.454V245.16C812.982 245.172 812.533 245.172 812.134 245.172ZM813.181 248.594H818.173V247.797H814.181V246.453H813.181V248.594ZM816.931 246.93H817.954V244.609H818.814V243.773H817.954V241.609H816.931V246.93ZM825.023 241.609H824.031V248.734H825.023V241.609ZM819.437 243.008H821.804V244.156H819.445V247.07H820.085C821.382 247.07 822.441 247.027 823.609 246.82L823.523 246.016C822.48 246.188 821.562 246.242 820.476 246.25V244.945H822.82V242.203H819.437V243.008Z" fill="white"/>
</g>
<path d="M966.707 219.293C966.317 218.902 965.683 218.902 965.293 219.293L958.929 225.657C958.538 226.047 958.538 226.681 958.929 227.071C959.319 227.462 959.953 227.462 960.343 227.071L966 221.414L971.657 227.071C972.047 227.462 972.681 227.462 973.071 227.071C973.462 226.681 973.462 226.047 973.071 225.657L966.707 219.293ZM965 270C965 270.552 965.448 271 966 271C966.552 271 967 270.552 967 270L965 270ZM965 220L965 270L967 270L967 220L965 220Z" fill="#008DFF"/>
<g filter="url(#filter16_dd_1133_26741)">
<rect x="935" y="235" width="61" height="21" rx="2" fill="#008DFF"/>
<path d="M965.337 245.82H958.829V246.633H961.579V248.719H962.563V246.633H965.337V245.82ZM959.649 245.305H964.642V244.516H960.626V243.977H964.415V243.211H960.626V242.68H964.563V241.898H959.649V245.305ZM968.296 243.547V243.109H969.726V242.297H965.788V243.109H967.296V243.547C967.288 244.723 966.69 246.043 965.507 246.594L966.085 247.383C966.905 246.996 967.491 246.199 967.808 245.262C968.128 246.113 968.69 246.84 969.483 247.203L970.038 246.422C968.87 245.879 968.292 244.629 968.296 243.547ZM970.28 248.719H971.28V245.156H972.327V244.32H971.28V241.609H970.28V248.719Z" fill="white"/>
</g>
<g filter="url(#filter17_dd_1133_26741)">
<rect x="930" y="79" width="140" height="125" rx="4" fill="white"/>
<path d="M986.443 108.309H983.243V106.551H980.976V108.309H977.759V110.066H980.976C980.958 111.895 979.772 113.705 977.197 114.408L978.269 116.166C980.15 115.604 981.433 114.443 982.136 112.984C982.857 114.268 984.114 115.278 985.933 115.762L986.952 114.004C984.377 113.336 983.235 111.701 983.208 110.066H986.443V108.309ZM979.288 119.611C979.28 121.501 981.363 122.6 984.773 122.6C988.113 122.6 990.16 121.501 990.169 119.611C990.16 117.669 988.113 116.57 984.773 116.57C981.363 116.57 979.28 117.669 979.288 119.611ZM981.538 119.611C981.521 118.697 982.646 118.293 984.773 118.293C986.847 118.293 987.954 118.697 987.954 119.611C987.954 120.481 986.847 120.912 984.773 120.912C982.646 120.912 981.521 120.481 981.538 119.611ZM987.761 116.271H990.011V112.229H992.173V110.418H990.011V106.621H987.761V116.271ZM997.161 107.307C994.7 107.289 992.89 108.897 992.907 111.086C992.89 113.318 994.7 114.918 997.161 114.918C999.218 114.918 1000.86 113.723 1001.27 111.965H1003.95V115.217H1006.18V106.621H1003.95V110.172H1001.27C1000.83 108.458 999.2 107.289 997.161 107.307ZM995.034 111.086C995.025 109.891 995.904 109.161 997.161 109.17C998.374 109.161 999.244 109.891 999.253 111.086C999.244 112.281 998.374 113.037 997.161 113.037C995.904 113.037 995.025 112.281 995.034 111.086ZM995.509 122.441H1006.18V115.92H1003.95V117.467H997.724V115.92H995.509V122.441ZM997.724 120.631V119.189H1003.95V120.631H997.724ZM1013.98 110.98V109.996H1017.2V108.168H1008.34V109.996H1011.73V110.98C1011.71 113.626 1010.37 116.597 1007.7 117.836L1009 119.611C1010.85 118.741 1012.17 116.948 1012.88 114.839C1013.6 116.755 1014.87 118.39 1016.65 119.207L1017.9 117.449C1015.27 116.228 1013.97 113.415 1013.98 110.98ZM1018.44 122.617H1020.69V114.602H1023.05V112.721H1020.69V106.621H1018.44V122.617Z" fill="#374151"/>
<line x1="946" y1="141.5" x2="1054" y2="141.5" stroke="#D1D5DB"/>
<path d="M992.687 166.521V165.223H995.353V164.143H988.64V165.223H991.402V166.521C991.395 168.593 990.049 170.903 988.189 171.799L988.955 172.824C990.349 172.127 991.498 170.616 992.058 168.873C992.612 170.473 993.706 171.854 995.08 172.51L995.818 171.498C993.959 170.616 992.68 168.456 992.687 166.521ZM996.666 175.162H997.965V168.859H999.933V167.766H997.965V162.912H996.666V175.162ZM1003.13 163.377H1001.84V168.326H1005.32V169.529H1000.38V170.596H1011.55V169.529H1006.6V168.326H1010.1V163.377H1008.8V164.826H1003.13V163.377ZM1001.79 174.902H1010.29V173.85H1003.1V171.471H1001.79V174.902ZM1003.13 167.273V165.838H1008.8V167.273H1003.13Z" fill="#9CA3AF"/>
</g>
<path d="M870.293 270.707C870.683 271.098 871.317 271.098 871.707 270.707L878.071 264.343C878.462 263.953 878.462 263.319 878.071 262.929C877.681 262.538 877.047 262.538 876.657 262.929L871 268.586L865.343 262.929C864.953 262.538 864.319 262.538 863.929 262.929C863.538 263.319 863.538 263.953 863.929 264.343L870.293 270.707ZM872 220C872 219.448 871.552 219 871 219C870.448 219 870 219.448 870 220L872 220ZM872 270L872 220L870 220L870 270L872 270Z" fill="#111827"/>
<g filter="url(#filter18_dd_1133_26741)">
<rect x="840" y="235" width="61" height="21" rx="2" fill="#111827"/>
<path d="M864.977 242.242H864.04V247.031H866.868V242.242H865.946V243.844H864.977V242.242ZM864.977 246.234V244.625H865.946V246.234H864.977ZM867.462 248.391H868.407V245.133H869.048V248.719H870.001V241.609H869.048V244.32H868.407V241.711H867.462V248.391ZM876.327 241.609H875.312V245.727H876.327V244.109H877.273V243.297H876.327V241.609ZM870.921 245.344H871.515C873.12 245.34 873.956 245.309 874.835 245.117L874.749 244.32C873.956 244.488 873.233 244.531 871.913 244.539V242.883H874.116V242.086H870.921V245.344ZM871.546 247.273C871.542 248.188 872.495 248.723 873.983 248.719C875.444 248.723 876.378 248.188 876.382 247.273C876.378 246.379 875.444 245.852 873.983 245.852C872.495 245.852 871.542 246.379 871.546 247.273ZM872.53 247.273C872.526 246.855 873.05 246.637 873.983 246.641C874.886 246.637 875.409 246.855 875.413 247.273C875.409 247.703 874.886 247.93 873.983 247.93C873.05 247.93 872.526 247.703 872.53 247.273Z" fill="white"/>
</g>
<path d="M1034.29 270.707C1034.68 271.098 1035.32 271.098 1035.71 270.707L1042.07 264.343C1042.46 263.953 1042.46 263.319 1042.07 262.929C1041.68 262.538 1041.05 262.538 1040.66 262.929L1035 268.586L1029.34 262.929C1028.95 262.538 1028.32 262.538 1027.93 262.929C1027.54 263.319 1027.54 263.953 1027.93 264.343L1034.29 270.707ZM1036 220C1036 219.448 1035.55 219 1035 219C1034.45 219 1034 219.448 1034 220L1036 220ZM1036 270L1036 220L1034 220L1034 270L1036 270Z" fill="#111827"/>
<g filter="url(#filter19_dd_1133_26741)">
<rect x="1004" y="235" width="61" height="21" rx="2" fill="#111827"/>
<path d="M1028.98 242.242H1028.04V247.031H1030.87V242.242H1029.95V243.844H1028.98V242.242ZM1028.98 246.234V244.625H1029.95V246.234H1028.98ZM1031.46 248.391H1032.41V245.133H1033.05V248.719H1034V241.609H1033.05V244.32H1032.41V241.711H1031.46V248.391ZM1040.33 241.609H1039.31V245.727H1040.33V244.109H1041.27V243.297H1040.33V241.609ZM1034.92 245.344H1035.51C1037.12 245.34 1037.96 245.309 1038.84 245.117L1038.75 244.32C1037.96 244.488 1037.23 244.531 1035.91 244.539V242.883H1038.12V242.086H1034.92V245.344ZM1035.55 247.273C1035.54 248.188 1036.5 248.723 1037.98 248.719C1039.44 248.723 1040.38 248.188 1040.38 247.273C1040.38 246.379 1039.44 245.852 1037.98 245.852C1036.5 245.852 1035.54 246.379 1035.55 247.273ZM1036.53 247.273C1036.53 246.855 1037.05 246.637 1037.98 246.641C1038.89 246.637 1039.41 246.855 1039.41 247.273C1039.41 247.703 1038.89 247.93 1037.98 247.93C1037.05 247.93 1036.53 247.703 1036.53 247.273Z" fill="white"/>
</g>
<defs>
<filter id="filter0_dd_1133_26741" x="22" y="75" width="156" height="141" filterUnits="userSpaceOnUse" color-interpolation-filters="sRGB">
<feFlood flood-opacity="0" result="BackgroundImageFix"/>
<feColorMatrix in="SourceAlpha" type="matrix" values="0 0 0 0 0 0 0 0 0 0 0 0 0 0 0 0 0 0 127 0" result="hardAlpha"/>
<feOffset dy="4"/>
<feGaussianBlur stdDeviation="4"/>
<feColorMatrix type="matrix" values="0 0 0 0 0.458824 0 0 0 0 0.458824 0 0 0 0 0.458824 0 0 0 0.16 0"/>
<feBlend mode="normal" in2="BackgroundImageFix" result="effect1_dropShadow_1133_26741"/>
<feColorMatrix in="SourceAlpha" type="matrix" values="0 0 0 0 0 0 0 0 0 0 0 0 0 0 0 0 0 0 127 0" result="hardAlpha"/>
<feOffset dy="1"/>
<feGaussianBlur stdDeviation="1"/>
<feColorMatrix type="matrix" values="0 0 0 0 0.258824 0 0 0 0 0.258824 0 0 0 0 0.258824 0 0 0 0.04 0"/>
<feBlend mode="normal" in2="effect1_dropShadow_1133_26741" result="effect2_dropShadow_1133_26741"/>
<feBlend mode="normal" in="SourceGraphic" in2="effect2_dropShadow_1133_26741" result="shape"/>
</filter>
<filter id="filter1_dd_1133_26741" x="22" y="282" width="320" height="71" filterUnits="userSpaceOnUse" color-interpolation-filters="sRGB">
<feFlood flood-opacity="0" result="BackgroundImageFix"/>
<feColorMatrix in="SourceAlpha" type="matrix" values="0 0 0 0 0 0 0 0 0 0 0 0 0 0 0 0 0 0 127 0" result="hardAlpha"/>
<feOffset dy="4"/>
<feGaussianBlur stdDeviation="4"/>
<feColorMatrix type="matrix" values="0 0 0 0 0.458824 0 0 0 0 0.458824 0 0 0 0 0.458824 0 0 0 0.16 0"/>
<feBlend mode="normal" in2="BackgroundImageFix" result="effect1_dropShadow_1133_26741"/>
<feColorMatrix in="SourceAlpha" type="matrix" values="0 0 0 0 0 0 0 0 0 0 0 0 0 0 0 0 0 0 127 0" result="hardAlpha"/>
<feOffset dy="1"/>
<feGaussianBlur stdDeviation="1"/>
<feColorMatrix type="matrix" values="0 0 0 0 0.258824 0 0 0 0 0.258824 0 0 0 0 0.258824 0 0 0 0.04 0"/>
<feBlend mode="normal" in2="effect1_dropShadow_1133_26741" result="effect2_dropShadow_1133_26741"/>
<feBlend mode="normal" in="SourceGraphic" in2="effect2_dropShadow_1133_26741" result="shape"/>
</filter>
<filter id="filter2_dd_1133_26741" x="37" y="231" width="77" height="37" filterUnits="userSpaceOnUse" color-interpolation-filters="sRGB">
<feFlood flood-opacity="0" result="BackgroundImageFix"/>
<feColorMatrix in="SourceAlpha" type="matrix" values="0 0 0 0 0 0 0 0 0 0 0 0 0 0 0 0 0 0 127 0" result="hardAlpha"/>
<feOffset dy="4"/>
<feGaussianBlur stdDeviation="4"/>
<feColorMatrix type="matrix" values="0 0 0 0 0.458824 0 0 0 0 0.458824 0 0 0 0 0.458824 0 0 0 0.16 0"/>
<feBlend mode="normal" in2="BackgroundImageFix" result="effect1_dropShadow_1133_26741"/>
<feColorMatrix in="SourceAlpha" type="matrix" values="0 0 0 0 0 0 0 0 0 0 0 0 0 0 0 0 0 0 127 0" result="hardAlpha"/>
<feOffset dy="1"/>
<feGaussianBlur stdDeviation="1"/>
<feColorMatrix type="matrix" values="0 0 0 0 0.258824 0 0 0 0 0.258824 0 0 0 0 0.258824 0 0 0 0.04 0"/>
<feBlend mode="normal" in2="effect1_dropShadow_1133_26741" result="effect2_dropShadow_1133_26741"/>
<feBlend mode="normal" in="SourceGraphic" in2="effect2_dropShadow_1133_26741" result="shape"/>
</filter>
<filter id="filter3_dd_1133_26741" x="191" y="231" width="77" height="37" filterUnits="userSpaceOnUse" color-interpolation-filters="sRGB">
<feFlood flood-opacity="0" result="BackgroundImageFix"/>
<feColorMatrix in="SourceAlpha" type="matrix" values="0 0 0 0 0 0 0 0 0 0 0 0 0 0 0 0 0 0 127 0" result="hardAlpha"/>
<feOffset dy="4"/>
<feGaussianBlur stdDeviation="4"/>
<feColorMatrix type="matrix" values="0 0 0 0 0.458824 0 0 0 0 0.458824 0 0 0 0 0.458824 0 0 0 0.16 0"/>
<feBlend mode="normal" in2="BackgroundImageFix" result="effect1_dropShadow_1133_26741"/>
<feColorMatrix in="SourceAlpha" type="matrix" values="0 0 0 0 0 0 0 0 0 0 0 0 0 0 0 0 0 0 127 0" result="hardAlpha"/>
<feOffset dy="1"/>
<feGaussianBlur stdDeviation="1"/>
<feColorMatrix type="matrix" values="0 0 0 0 0.258824 0 0 0 0 0.258824 0 0 0 0 0.258824 0 0 0 0.04 0"/>
<feBlend mode="normal" in2="effect1_dropShadow_1133_26741" result="effect2_dropShadow_1133_26741"/>
<feBlend mode="normal" in="SourceGraphic" in2="effect2_dropShadow_1133_26741" result="shape"/>
</filter>
<filter id="filter4_dd_1133_26741" x="186" y="75" width="156" height="141" filterUnits="userSpaceOnUse" color-interpolation-filters="sRGB">
<feFlood flood-opacity="0" result="BackgroundImageFix"/>
<feColorMatrix in="SourceAlpha" type="matrix" values="0 0 0 0 0 0 0 0 0 0 0 0 0 0 0 0 0 0 127 0" result="hardAlpha"/>
<feOffset dy="4"/>
<feGaussianBlur stdDeviation="4"/>
<feColorMatrix type="matrix" values="0 0 0 0 0.458824 0 0 0 0 0.458824 0 0 0 0 0.458824 0 0 0 0.16 0"/>
<feBlend mode="normal" in2="BackgroundImageFix" result="effect1_dropShadow_1133_26741"/>
<feColorMatrix in="SourceAlpha" type="matrix" values="0 0 0 0 0 0 0 0 0 0 0 0 0 0 0 0 0 0 127 0" result="hardAlpha"/>
<feOffset dy="1"/>
<feGaussianBlur stdDeviation="1"/>
<feColorMatrix type="matrix" values="0 0 0 0 0.258824 0 0 0 0 0.258824 0 0 0 0 0.258824 0 0 0 0.04 0"/>
<feBlend mode="normal" in2="effect1_dropShadow_1133_26741" result="effect2_dropShadow_1133_26741"/>
<feBlend mode="normal" in="SourceGraphic" in2="effect2_dropShadow_1133_26741" result="shape"/>
</filter>
<filter id="filter5_dd_1133_26741" x="106" y="231" width="77" height="37" filterUnits="userSpaceOnUse" color-interpolation-filters="sRGB">
<feFlood flood-opacity="0" result="BackgroundImageFix"/>
<feColorMatrix in="SourceAlpha" type="matrix" values="0 0 0 0 0 0 0 0 0 0 0 0 0 0 0 0 0 0 127 0" result="hardAlpha"/>
<feOffset dy="4"/>
<feGaussianBlur stdDeviation="4"/>
<feColorMatrix type="matrix" values="0 0 0 0 0.458824 0 0 0 0 0.458824 0 0 0 0 0.458824 0 0 0 0.16 0"/>
<feBlend mode="normal" in2="BackgroundImageFix" result="effect1_dropShadow_1133_26741"/>
<feColorMatrix in="SourceAlpha" type="matrix" values="0 0 0 0 0 0 0 0 0 0 0 0 0 0 0 0 0 0 127 0" result="hardAlpha"/>
<feOffset dy="1"/>
<feGaussianBlur stdDeviation="1"/>
<feColorMatrix type="matrix" values="0 0 0 0 0.258824 0 0 0 0 0.258824 0 0 0 0 0.258824 0 0 0 0.04 0"/>
<feBlend mode="normal" in2="effect1_dropShadow_1133_26741" result="effect2_dropShadow_1133_26741"/>
<feBlend mode="normal" in="SourceGraphic" in2="effect2_dropShadow_1133_26741" result="shape"/>
</filter>
<filter id="filter6_dd_1133_26741" x="260" y="231" width="77" height="37" filterUnits="userSpaceOnUse" color-interpolation-filters="sRGB">
<feFlood flood-opacity="0" result="BackgroundImageFix"/>
<feColorMatrix in="SourceAlpha" type="matrix" values="0 0 0 0 0 0 0 0 0 0 0 0 0 0 0 0 0 0 127 0" result="hardAlpha"/>
<feOffset dy="4"/>
<feGaussianBlur stdDeviation="4"/>
<feColorMatrix type="matrix" values="0 0 0 0 0.458824 0 0 0 0 0.458824 0 0 0 0 0.458824 0 0 0 0.16 0"/>
<feBlend mode="normal" in2="BackgroundImageFix" result="effect1_dropShadow_1133_26741"/>
<feColorMatrix in="SourceAlpha" type="matrix" values="0 0 0 0 0 0 0 0 0 0 0 0 0 0 0 0 0 0 127 0" result="hardAlpha"/>
<feOffset dy="1"/>
<feGaussianBlur stdDeviation="1"/>
<feColorMatrix type="matrix" values="0 0 0 0 0.258824 0 0 0 0 0.258824 0 0 0 0 0.258824 0 0 0 0.04 0"/>
<feBlend mode="normal" in2="effect1_dropShadow_1133_26741" result="effect2_dropShadow_1133_26741"/>
<feBlend mode="normal" in="SourceGraphic" in2="effect2_dropShadow_1133_26741" result="shape"/>
</filter>
<filter id="filter7_dd_1133_26741" x="390" y="75" width="156" height="141" filterUnits="userSpaceOnUse" color-interpolation-filters="sRGB">
<feFlood flood-opacity="0" result="BackgroundImageFix"/>
<feColorMatrix in="SourceAlpha" type="matrix" values="0 0 0 0 0 0 0 0 0 0 0 0 0 0 0 0 0 0 127 0" result="hardAlpha"/>
<feOffset dy="4"/>
<feGaussianBlur stdDeviation="4"/>
<feColorMatrix type="matrix" values="0 0 0 0 0.458824 0 0 0 0 0.458824 0 0 0 0 0.458824 0 0 0 0.16 0"/>
<feBlend mode="normal" in2="BackgroundImageFix" result="effect1_dropShadow_1133_26741"/>
<feColorMatrix in="SourceAlpha" type="matrix" values="0 0 0 0 0 0 0 0 0 0 0 0 0 0 0 0 0 0 127 0" result="hardAlpha"/>
<feOffset dy="1"/>
<feGaussianBlur stdDeviation="1"/>
<feColorMatrix type="matrix" values="0 0 0 0 0.258824 0 0 0 0 0.258824 0 0 0 0 0.258824 0 0 0 0.04 0"/>
<feBlend mode="normal" in2="effect1_dropShadow_1133_26741" result="effect2_dropShadow_1133_26741"/>
<feBlend mode="normal" in="SourceGraphic" in2="effect2_dropShadow_1133_26741" result="shape"/>
</filter>
<filter id="filter8_dd_1133_26741" x="390" y="282" width="320" height="71" filterUnits="userSpaceOnUse" color-interpolation-filters="sRGB">
<feFlood flood-opacity="0" result="BackgroundImageFix"/>
<feColorMatrix in="SourceAlpha" type="matrix" values="0 0 0 0 0 0 0 0 0 0 0 0 0 0 0 0 0 0 127 0" result="hardAlpha"/>
<feOffset dy="4"/>
<feGaussianBlur stdDeviation="4"/>
<feColorMatrix type="matrix" values="0 0 0 0 0.458824 0 0 0 0 0.458824 0 0 0 0 0.458824 0 0 0 0.16 0"/>
<feBlend mode="normal" in2="BackgroundImageFix" result="effect1_dropShadow_1133_26741"/>
<feColorMatrix in="SourceAlpha" type="matrix" values="0 0 0 0 0 0 0 0 0 0 0 0 0 0 0 0 0 0 127 0" result="hardAlpha"/>
<feOffset dy="1"/>
<feGaussianBlur stdDeviation="1"/>
<feColorMatrix type="matrix" values="0 0 0 0 0.258824 0 0 0 0 0.258824 0 0 0 0 0.258824 0 0 0 0.04 0"/>
<feBlend mode="normal" in2="effect1_dropShadow_1133_26741" result="effect2_dropShadow_1133_26741"/>
<feBlend mode="normal" in="SourceGraphic" in2="effect2_dropShadow_1133_26741" result="shape"/>
</filter>
<filter id="filter9_dd_1133_26741" x="395" y="231" width="77" height="37" filterUnits="userSpaceOnUse" color-interpolation-filters="sRGB">
<feFlood flood-opacity="0" result="BackgroundImageFix"/>
<feColorMatrix in="SourceAlpha" type="matrix" values="0 0 0 0 0 0 0 0 0 0 0 0 0 0 0 0 0 0 127 0" result="hardAlpha"/>
<feOffset dy="4"/>
<feGaussianBlur stdDeviation="4"/>
<feColorMatrix type="matrix" values="0 0 0 0 0.458824 0 0 0 0 0.458824 0 0 0 0 0.458824 0 0 0 0.16 0"/>
<feBlend mode="normal" in2="BackgroundImageFix" result="effect1_dropShadow_1133_26741"/>
<feColorMatrix in="SourceAlpha" type="matrix" values="0 0 0 0 0 0 0 0 0 0 0 0 0 0 0 0 0 0 127 0" result="hardAlpha"/>
<feOffset dy="1"/>
<feGaussianBlur stdDeviation="1"/>
<feColorMatrix type="matrix" values="0 0 0 0 0.258824 0 0 0 0 0.258824 0 0 0 0 0.258824 0 0 0 0.04 0"/>
<feBlend mode="normal" in2="effect1_dropShadow_1133_26741" result="effect2_dropShadow_1133_26741"/>
<feBlend mode="normal" in="SourceGraphic" in2="effect2_dropShadow_1133_26741" result="shape"/>
</filter>
<filter id="filter10_dd_1133_26741" x="554" y="75" width="156" height="141" filterUnits="userSpaceOnUse" color-interpolation-filters="sRGB">
<feFlood flood-opacity="0" result="BackgroundImageFix"/>
<feColorMatrix in="SourceAlpha" type="matrix" values="0 0 0 0 0 0 0 0 0 0 0 0 0 0 0 0 0 0 127 0" result="hardAlpha"/>
<feOffset dy="4"/>
<feGaussianBlur stdDeviation="4"/>
<feColorMatrix type="matrix" values="0 0 0 0 0.458824 0 0 0 0 0.458824 0 0 0 0 0.458824 0 0 0 0.16 0"/>
<feBlend mode="normal" in2="BackgroundImageFix" result="effect1_dropShadow_1133_26741"/>
<feColorMatrix in="SourceAlpha" type="matrix" values="0 0 0 0 0 0 0 0 0 0 0 0 0 0 0 0 0 0 127 0" result="hardAlpha"/>
<feOffset dy="1"/>
<feGaussianBlur stdDeviation="1"/>
<feColorMatrix type="matrix" values="0 0 0 0 0.258824 0 0 0 0 0.258824 0 0 0 0 0.258824 0 0 0 0.04 0"/>
<feBlend mode="normal" in2="effect1_dropShadow_1133_26741" result="effect2_dropShadow_1133_26741"/>
<feBlend mode="normal" in="SourceGraphic" in2="effect2_dropShadow_1133_26741" result="shape"/>
</filter>
<filter id="filter11_dd_1133_26741" x="464" y="231" width="77" height="37" filterUnits="userSpaceOnUse" color-interpolation-filters="sRGB">
<feFlood flood-opacity="0" result="BackgroundImageFix"/>
<feColorMatrix in="SourceAlpha" type="matrix" values="0 0 0 0 0 0 0 0 0 0 0 0 0 0 0 0 0 0 127 0" result="hardAlpha"/>
<feOffset dy="4"/>
<feGaussianBlur stdDeviation="4"/>
<feColorMatrix type="matrix" values="0 0 0 0 0.458824 0 0 0 0 0.458824 0 0 0 0 0.458824 0 0 0 0.16 0"/>
<feBlend mode="normal" in2="BackgroundImageFix" result="effect1_dropShadow_1133_26741"/>
<feColorMatrix in="SourceAlpha" type="matrix" values="0 0 0 0 0 0 0 0 0 0 0 0 0 0 0 0 0 0 127 0" result="hardAlpha"/>
<feOffset dy="1"/>
<feGaussianBlur stdDeviation="1"/>
<feColorMatrix type="matrix" values="0 0 0 0 0.258824 0 0 0 0 0.258824 0 0 0 0 0.258824 0 0 0 0.04 0"/>
<feBlend mode="normal" in2="effect1_dropShadow_1133_26741" result="effect2_dropShadow_1133_26741"/>
<feBlend mode="normal" in="SourceGraphic" in2="effect2_dropShadow_1133_26741" result="shape"/>
</filter>
<filter id="filter12_dd_1133_26741" x="529" y="127" width="41" height="37" filterUnits="userSpaceOnUse" color-interpolation-filters="sRGB">
<feFlood flood-opacity="0" result="BackgroundImageFix"/>
<feColorMatrix in="SourceAlpha" type="matrix" values="0 0 0 0 0 0 0 0 0 0 0 0 0 0 0 0 0 0 127 0" result="hardAlpha"/>
<feOffset dy="4"/>
<feGaussianBlur stdDeviation="4"/>
<feColorMatrix type="matrix" values="0 0 0 0 0.458824 0 0 0 0 0.458824 0 0 0 0 0.458824 0 0 0 0.16 0"/>
<feBlend mode="normal" in2="BackgroundImageFix" result="effect1_dropShadow_1133_26741"/>
<feColorMatrix in="SourceAlpha" type="matrix" values="0 0 0 0 0 0 0 0 0 0 0 0 0 0 0 0 0 0 127 0" result="hardAlpha"/>
<feOffset dy="1"/>
<feGaussianBlur stdDeviation="1"/>
<feColorMatrix type="matrix" values="0 0 0 0 0.258824 0 0 0 0 0.258824 0 0 0 0 0.258824 0 0 0 0.04 0"/>
<feBlend mode="normal" in2="effect1_dropShadow_1133_26741" result="effect2_dropShadow_1133_26741"/>
<feBlend mode="normal" in="SourceGraphic" in2="effect2_dropShadow_1133_26741" result="shape"/>
</filter>
<filter id="filter13_dd_1133_26741" x="758" y="75" width="156" height="141" filterUnits="userSpaceOnUse" color-interpolation-filters="sRGB">
<feFlood flood-opacity="0" result="BackgroundImageFix"/>
<feColorMatrix in="SourceAlpha" type="matrix" values="0 0 0 0 0 0 0 0 0 0 0 0 0 0 0 0 0 0 127 0" result="hardAlpha"/>
<feOffset dy="4"/>
<feGaussianBlur stdDeviation="4"/>
<feColorMatrix type="matrix" values="0 0 0 0 0.458824 0 0 0 0 0.458824 0 0 0 0 0.458824 0 0 0 0.16 0"/>
<feBlend mode="normal" in2="BackgroundImageFix" result="effect1_dropShadow_1133_26741"/>
<feColorMatrix in="SourceAlpha" type="matrix" values="0 0 0 0 0 0 0 0 0 0 0 0 0 0 0 0 0 0 127 0" result="hardAlpha"/>
<feOffset dy="1"/>
<feGaussianBlur stdDeviation="1"/>
<feColorMatrix type="matrix" values="0 0 0 0 0.258824 0 0 0 0 0.258824 0 0 0 0 0.258824 0 0 0 0.04 0"/>
<feBlend mode="normal" in2="effect1_dropShadow_1133_26741" result="effect2_dropShadow_1133_26741"/>
<feBlend mode="normal" in="SourceGraphic" in2="effect2_dropShadow_1133_26741" result="shape"/>
</filter>
<filter id="filter14_dd_1133_26741" x="758" y="282" width="320" height="71" filterUnits="userSpaceOnUse" color-interpolation-filters="sRGB">
<feFlood flood-opacity="0" result="BackgroundImageFix"/>
<feColorMatrix in="SourceAlpha" type="matrix" values="0 0 0 0 0 0 0 0 0 0 0 0 0 0 0 0 0 0 127 0" result="hardAlpha"/>
<feOffset dy="4"/>
<feGaussianBlur stdDeviation="4"/>
<feColorMatrix type="matrix" values="0 0 0 0 0.458824 0 0 0 0 0.458824 0 0 0 0 0.458824 0 0 0 0.16 0"/>
<feBlend mode="normal" in2="BackgroundImageFix" result="effect1_dropShadow_1133_26741"/>
<feColorMatrix in="SourceAlpha" type="matrix" values="0 0 0 0 0 0 0 0 0 0 0 0 0 0 0 0 0 0 127 0" result="hardAlpha"/>
<feOffset dy="1"/>
<feGaussianBlur stdDeviation="1"/>
<feColorMatrix type="matrix" values="0 0 0 0 0.258824 0 0 0 0 0.258824 0 0 0 0 0.258824 0 0 0 0.04 0"/>
<feBlend mode="normal" in2="effect1_dropShadow_1133_26741" result="effect2_dropShadow_1133_26741"/>
<feBlend mode="normal" in="SourceGraphic" in2="effect2_dropShadow_1133_26741" result="shape"/>
</filter>
<filter id="filter15_dd_1133_26741" x="763" y="231" width="77" height="37" filterUnits="userSpaceOnUse" color-interpolation-filters="sRGB">
<feFlood flood-opacity="0" result="BackgroundImageFix"/>
<feColorMatrix in="SourceAlpha" type="matrix" values="0 0 0 0 0 0 0 0 0 0 0 0 0 0 0 0 0 0 127 0" result="hardAlpha"/>
<feOffset dy="4"/>
<feGaussianBlur stdDeviation="4"/>
<feColorMatrix type="matrix" values="0 0 0 0 0.458824 0 0 0 0 0.458824 0 0 0 0 0.458824 0 0 0 0.16 0"/>
<feBlend mode="normal" in2="BackgroundImageFix" result="effect1_dropShadow_1133_26741"/>
<feColorMatrix in="SourceAlpha" type="matrix" values="0 0 0 0 0 0 0 0 0 0 0 0 0 0 0 0 0 0 127 0" result="hardAlpha"/>
<feOffset dy="1"/>
<feGaussianBlur stdDeviation="1"/>
<feColorMatrix type="matrix" values="0 0 0 0 0.258824 0 0 0 0 0.258824 0 0 0 0 0.258824 0 0 0 0.04 0"/>
<feBlend mode="normal" in2="effect1_dropShadow_1133_26741" result="effect2_dropShadow_1133_26741"/>
<feBlend mode="normal" in="SourceGraphic" in2="effect2_dropShadow_1133_26741" result="shape"/>
</filter>
<filter id="filter16_dd_1133_26741" x="927" y="231" width="77" height="37" filterUnits="userSpaceOnUse" color-interpolation-filters="sRGB">
<feFlood flood-opacity="0" result="BackgroundImageFix"/>
<feColorMatrix in="SourceAlpha" type="matrix" values="0 0 0 0 0 0 0 0 0 0 0 0 0 0 0 0 0 0 127 0" result="hardAlpha"/>
<feOffset dy="4"/>
<feGaussianBlur stdDeviation="4"/>
<feColorMatrix type="matrix" values="0 0 0 0 0.458824 0 0 0 0 0.458824 0 0 0 0 0.458824 0 0 0 0.16 0"/>
<feBlend mode="normal" in2="BackgroundImageFix" result="effect1_dropShadow_1133_26741"/>
<feColorMatrix in="SourceAlpha" type="matrix" values="0 0 0 0 0 0 0 0 0 0 0 0 0 0 0 0 0 0 127 0" result="hardAlpha"/>
<feOffset dy="1"/>
<feGaussianBlur stdDeviation="1"/>
<feColorMatrix type="matrix" values="0 0 0 0 0.258824 0 0 0 0 0.258824 0 0 0 0 0.258824 0 0 0 0.04 0"/>
<feBlend mode="normal" in2="effect1_dropShadow_1133_26741" result="effect2_dropShadow_1133_26741"/>
<feBlend mode="normal" in="SourceGraphic" in2="effect2_dropShadow_1133_26741" result="shape"/>
</filter>
<filter id="filter17_dd_1133_26741" x="922" y="75" width="156" height="141" filterUnits="userSpaceOnUse" color-interpolation-filters="sRGB">
<feFlood flood-opacity="0" result="BackgroundImageFix"/>
<feColorMatrix in="SourceAlpha" type="matrix" values="0 0 0 0 0 0 0 0 0 0 0 0 0 0 0 0 0 0 127 0" result="hardAlpha"/>
<feOffset dy="4"/>
<feGaussianBlur stdDeviation="4"/>
<feColorMatrix type="matrix" values="0 0 0 0 0.458824 0 0 0 0 0.458824 0 0 0 0 0.458824 0 0 0 0.16 0"/>
<feBlend mode="normal" in2="BackgroundImageFix" result="effect1_dropShadow_1133_26741"/>
<feColorMatrix in="SourceAlpha" type="matrix" values="0 0 0 0 0 0 0 0 0 0 0 0 0 0 0 0 0 0 127 0" result="hardAlpha"/>
<feOffset dy="1"/>
<feGaussianBlur stdDeviation="1"/>
<feColorMatrix type="matrix" values="0 0 0 0 0.258824 0 0 0 0 0.258824 0 0 0 0 0.258824 0 0 0 0.04 0"/>
<feBlend mode="normal" in2="effect1_dropShadow_1133_26741" result="effect2_dropShadow_1133_26741"/>
<feBlend mode="normal" in="SourceGraphic" in2="effect2_dropShadow_1133_26741" result="shape"/>
</filter>
<filter id="filter18_dd_1133_26741" x="832" y="231" width="77" height="37" filterUnits="userSpaceOnUse" color-interpolation-filters="sRGB">
<feFlood flood-opacity="0" result="BackgroundImageFix"/>
<feColorMatrix in="SourceAlpha" type="matrix" values="0 0 0 0 0 0 0 0 0 0 0 0 0 0 0 0 0 0 127 0" result="hardAlpha"/>
<feOffset dy="4"/>
<feGaussianBlur stdDeviation="4"/>
<feColorMatrix type="matrix" values="0 0 0 0 0.458824 0 0 0 0 0.458824 0 0 0 0 0.458824 0 0 0 0.16 0"/>
<feBlend mode="normal" in2="BackgroundImageFix" result="effect1_dropShadow_1133_26741"/>
<feColorMatrix in="SourceAlpha" type="matrix" values="0 0 0 0 0 0 0 0 0 0 0 0 0 0 0 0 0 0 127 0" result="hardAlpha"/>
<feOffset dy="1"/>
<feGaussianBlur stdDeviation="1"/>
<feColorMatrix type="matrix" values="0 0 0 0 0.258824 0 0 0 0 0.258824 0 0 0 0 0.258824 0 0 0 0.04 0"/>
<feBlend mode="normal" in2="effect1_dropShadow_1133_26741" result="effect2_dropShadow_1133_26741"/>
<feBlend mode="normal" in="SourceGraphic" in2="effect2_dropShadow_1133_26741" result="shape"/>
</filter>
<filter id="filter19_dd_1133_26741" x="996" y="231" width="77" height="37" filterUnits="userSpaceOnUse" color-interpolation-filters="sRGB">
<feFlood flood-opacity="0" result="BackgroundImageFix"/>
<feColorMatrix in="SourceAlpha" type="matrix" values="0 0 0 0 0 0 0 0 0 0 0 0 0 0 0 0 0 0 127 0" result="hardAlpha"/>
<feOffset dy="4"/>
<feGaussianBlur stdDeviation="4"/>
<feColorMatrix type="matrix" values="0 0 0 0 0.458824 0 0 0 0 0.458824 0 0 0 0 0.458824 0 0 0 0.16 0"/>
<feBlend mode="normal" in2="BackgroundImageFix" result="effect1_dropShadow_1133_26741"/>
<feColorMatrix in="SourceAlpha" type="matrix" values="0 0 0 0 0 0 0 0 0 0 0 0 0 0 0 0 0 0 127 0" result="hardAlpha"/>
<feOffset dy="1"/>
<feGaussianBlur stdDeviation="1"/>
<feColorMatrix type="matrix" values="0 0 0 0 0.258824 0 0 0 0 0.258824 0 0 0 0 0.258824 0 0 0 0.04 0"/>
<feBlend mode="normal" in2="effect1_dropShadow_1133_26741" result="effect2_dropShadow_1133_26741"/>
<feBlend mode="normal" in="SourceGraphic" in2="effect2_dropShadow_1133_26741" result="shape"/>
</filter>
</defs>
</svg>
