<svg width="1100" height="278" viewBox="0 0 1100 278" fill="none" xmlns="http://www.w3.org/2000/svg">
<g filter="url(#filter0_dd_1133_26855)">
<rect x="8" y="87" width="180" height="132" rx="4" fill="white"/>
<path d="M79.0418 112.639H76.7918V124.311H79.0418V112.639ZM65.5946 120.355L66.7547 122.131C68.6268 121.489 69.9012 120.171 70.6219 118.536C71.3338 120.057 72.5731 121.252 74.3836 121.85L75.5262 120.092C72.8983 119.248 71.7645 117.183 71.7821 115.064V113.518H69.4442V115.064C69.4442 117.235 68.2752 119.459 65.5946 120.355ZM68.3192 128.336H79.4637V126.543H70.5868V123.186H68.3192V128.336ZM90.147 114.291H86.9478V112.551H84.6802V114.291H81.4634V116.049H84.6802C84.6626 117.859 83.4761 119.688 80.9185 120.426L81.9732 122.166C83.8628 121.621 85.146 120.452 85.8404 118.976C86.5699 120.276 87.8443 121.287 89.6724 121.744L90.7095 120.021C88.1343 119.362 86.939 117.692 86.9126 116.049H90.147V114.291ZM83.5376 125.559C83.5376 127.501 85.647 128.626 89.0396 128.617C92.4497 128.626 94.5503 127.501 94.5591 125.559C94.5503 123.643 92.4497 122.562 89.0396 122.553C85.647 122.562 83.5376 123.643 83.5376 125.559ZM85.7701 125.559C85.7701 124.706 86.9214 124.275 89.0396 124.275C91.2017 124.275 92.3179 124.706 92.3267 125.559C92.3179 126.438 91.2017 126.912 89.0396 126.912C86.9214 126.912 85.7701 126.438 85.7701 125.559ZM89.6724 118.703H92.274V122.289H94.5064V112.621H92.274V116.91H89.6724V118.703ZM102.447 116.242V113.852H100.18V116.242C100.162 119.248 98.9143 122.333 96.1721 123.572L97.5783 125.4C99.4065 124.504 100.637 122.781 101.322 120.681C101.99 122.658 103.186 124.258 104.961 125.119L106.332 123.326C103.669 122.175 102.456 119.248 102.447 116.242ZM104.539 119.459H107.686V128.652H109.901V112.621H107.686V117.648H104.539V119.459ZM124.377 113.588H116.554V120.32H124.377V113.588ZM117.398 126.895L118.171 128.582C120.843 128.327 122.751 127.387 123.735 126.121C124.711 127.369 126.6 128.336 129.263 128.582L130.019 126.895C126.846 126.587 125.168 125.33 124.921 124.24H129.404V122.57H124.851V121.252H122.601V122.57H118.048V124.24H122.531C122.285 125.365 120.597 126.631 117.398 126.895ZM118.769 118.562V115.328H122.144V118.562H118.769ZM126.89 121.691H129.123V112.621H126.89V121.691ZM63.1554 136.553H51.9406V138.346H60.923C60.9142 139.726 60.8791 141.299 60.466 143.355H50.2707V145.166H56.3703V151.635H58.6203V145.166H64.8605V143.355H62.7424C63.1467 141.114 63.1467 139.488 63.1554 137.994V136.553ZM79.0418 135.621H76.7743V151.652H79.0418V135.621ZM66.4383 147.908H74.3485V136.887H72.1336V140.789H68.6883V136.887H66.4383V147.908ZM68.6883 146.098V142.529H72.1336V146.098H68.6883ZM87.0708 139.242V136.852H84.8033V139.242C84.7857 142.248 83.5376 145.333 80.7954 146.572L82.2017 148.4C84.0298 147.504 85.2603 145.781 85.9458 143.681C86.6138 145.658 87.8091 147.258 89.5845 148.119L90.9556 146.326C88.2925 145.175 87.0796 142.248 87.0708 139.242ZM89.1626 142.459H92.3091V151.652H94.524V135.621H92.3091V140.648H89.1626V142.459ZM111.026 145.008H96.383V146.766H99.8108V151.617H102.043V146.766H105.383V151.617H107.651V146.766H111.026V145.008ZM98.0705 137.924H107.035V139.119H98.1233V143.848H109.707V142.055H100.391V140.754H109.338V136.096H98.0705V137.924ZM129.58 135.621H127.453V151.617H129.58V135.621ZM115.412 146.941L116.765 148.594C118.233 147.697 119.2 146.115 119.745 144.252C120.29 145.975 121.221 147.398 122.654 148.242L123.972 146.59C121.634 145.254 120.799 142.564 120.808 139.91V139.049H123.234V137.256H116.027V139.049H118.646V139.91C118.646 142.626 117.767 145.491 115.412 146.941ZM122.091 142.916H124.201V150.879H126.31V135.885H124.201V141.105H122.091V142.916ZM145.677 142.441H131.157V144.076H137.292V145.078H132.81V146.678H141.722V147.469H132.827V151.512H144.359V149.859H135.025V148.98H143.937V145.078H139.525V144.076H145.677V142.441ZM131.72 140.35L132.335 142.002C135.332 141.853 137.389 141.105 138.4 139.901C139.41 141.105 141.476 141.853 144.447 142.002L145.097 140.35C141.871 140.209 140.237 139.444 139.78 138.521H144.306V136.869H139.507V135.604H137.292V136.869H132.529V138.521H137.011C136.545 139.444 134.919 140.209 131.72 140.35Z" fill="#374151"/>
<line x1="24" y1="168.5" x2="172" y2="168.5" stroke="#D1D5DB"/>
<path d="M84.6202 187.926H83.3213V196.895H84.6202V187.926ZM74.5303 194.133L75.2276 195.158C76.6631 194.604 77.7227 193.47 78.2627 192.048C78.8096 193.374 79.8555 194.413 81.2705 194.939L81.9405 193.9C80.0469 193.244 78.9121 191.604 78.919 189.812V188.596H77.5928V189.812C77.586 191.658 76.4512 193.422 74.5303 194.133ZM76.6084 199.902H84.9893V198.85H77.9209V196.047H76.6084V199.902ZM90.7145 190.523V190.373H93.3805V189.334H90.7282V187.857H89.4294V189.334H86.7634V190.373H89.4294V190.523C89.4294 192.103 88.2809 193.565 86.4216 194.16L87.0368 195.158C88.4997 194.7 89.5661 193.695 90.0993 192.431C90.6598 193.565 91.7262 194.44 93.1481 194.844L93.7634 193.832C91.8971 193.312 90.7145 191.966 90.7145 190.523ZM88.3903 197.865C88.3835 199.308 89.9626 200.142 92.5329 200.135C95.0964 200.142 96.6686 199.308 96.6755 197.865C96.6686 196.43 95.0964 195.616 92.5329 195.609C89.9626 195.616 88.3835 196.43 88.3903 197.865ZM89.6755 197.865C89.6686 197.072 90.735 196.621 92.5329 196.621C94.3307 196.621 95.3835 197.072 95.3903 197.865C95.3835 198.658 94.3307 199.13 92.5329 199.137C90.735 199.13 89.6686 198.658 89.6755 197.865ZM92.9977 192.41H95.3356V195.336H96.6345V187.912H95.3356V191.344H92.9977V192.41ZM108.567 187.912H107.254V200.162H108.567V187.912ZM98.5042 196.881L99.1878 197.934C103.392 195.917 104.916 192.813 104.916 189.225H99.0921V190.264H103.604C103.351 193.121 101.758 195.329 98.5042 196.881ZM113.731 188.473C111.858 188.459 110.512 189.648 110.519 191.316C110.512 193.005 111.858 194.188 113.731 194.188C115.358 194.188 116.616 193.244 116.869 191.836H119.255V194.488H120.554V187.912H119.255V190.77H116.862C116.596 189.396 115.345 188.459 113.731 188.473ZM111.763 191.316C111.756 190.264 112.576 189.546 113.731 189.553C114.866 189.546 115.673 190.264 115.673 191.316C115.673 192.362 114.866 193.094 113.731 193.094C112.576 193.094 111.756 192.362 111.763 191.316ZM112.569 200.012H120.554V195.076H119.255V196.498H113.854V195.076H112.569V200.012ZM113.854 198.945V197.523H119.255V198.945H113.854Z" fill="#9CA3AF"/>
</g>
<circle cx="98" cy="78" r="20" fill="#008DFF"/>
<path d="M101.023 70.0312H97.6953L93.5 72.7031V75.8203L97.3906 73.3828H97.4844V87H101.023V70.0312Z" fill="white"/>
<g filter="url(#filter1_dd_1133_26855)">
<rect x="234" y="87" width="180" height="132" rx="4" fill="white"/>
<path d="M295.457 124.621H293.225V128.207H290.694V130.035H293.225V133.375H295.457V124.621ZM281.887 131.898L283.029 133.656C284.919 133.041 286.194 131.758 286.905 130.158C287.6 131.591 288.821 132.742 290.588 133.322L291.695 131.6C289.278 130.8 288.127 128.954 288.03 127.17H291.203V125.342H282.52V127.17H285.728C285.613 129.121 284.409 131.055 281.887 131.898ZM284.787 140.441H295.457V133.99H293.225V135.502H287.002V133.99H284.787V140.441ZM287.002 138.648V137.225H293.225V138.648H287.002ZM305.842 125.869V125.096H303.486V125.869C303.477 127.759 301.553 129.842 297.914 130.299L298.81 132.109C301.57 131.705 303.609 130.404 304.664 128.682C305.71 130.413 307.758 131.705 310.553 132.109L311.431 130.299C307.766 129.842 305.833 127.759 305.842 125.869ZM297.351 135.15H303.504V140.617H305.719V135.15H311.941V133.322H297.351V135.15ZM325.327 125.588H317.505V132.32H325.327V125.588ZM318.349 138.895L319.122 140.582C321.794 140.327 323.701 139.387 324.686 138.121C325.661 139.369 327.551 140.336 330.214 140.582L330.97 138.895C327.797 138.587 326.118 137.33 325.872 136.24H330.355V134.57H325.802V133.252H323.552V134.57H318.999V136.24H323.482C323.236 137.365 321.548 138.631 318.349 138.895ZM319.72 130.562V127.328H323.095V130.562H319.72ZM327.841 133.691H330.073V124.621H327.841V133.691ZM348.838 124.639H346.588V135.502H348.838V131.055H350.878V129.209H348.838V124.639ZM335.866 133.445L336.094 135.186C338.916 135.186 342.625 135.15 346.008 134.553L345.85 133.006C344.62 133.164 343.301 133.261 341.983 133.331V132.505C343.697 132.259 344.769 131.415 344.778 130.193C344.769 128.708 343.213 127.794 340.858 127.803C338.485 127.794 336.929 128.708 336.938 130.193C336.929 131.415 338.01 132.268 339.751 132.514V133.41C338.362 133.445 337.035 133.445 335.866 133.445ZM336.288 127.434H345.446V125.799H341.983V124.498H339.751V125.799H336.288V127.434ZM337.905 137.875H346.588V140.617H348.838V136.152H337.905V137.875ZM339.083 130.193C339.074 129.569 339.715 129.297 340.858 129.297C341.983 129.297 342.625 129.569 342.633 130.193C342.625 130.773 341.983 131.116 340.858 131.107C339.715 131.116 339.074 130.773 339.083 130.193ZM364.813 124.639H362.563V136.135H364.813V124.639ZM351.664 129.684C351.664 132.065 353.58 133.744 356.041 133.744C358.493 133.744 360.409 132.065 360.418 129.684C360.409 127.337 358.493 125.649 356.041 125.658C353.58 125.649 351.664 127.337 351.664 129.684ZM353.862 129.684C353.844 128.383 354.784 127.601 356.041 127.609C357.254 127.601 358.195 128.383 358.203 129.684C358.195 131.02 357.254 131.793 356.041 131.793C354.784 131.793 353.844 131.02 353.862 129.684ZM354.09 140.336H365.235V138.543H356.358V134.975H354.09V140.336Z" fill="#374151"/>
<line x1="250" y1="168.5" x2="398" y2="168.5" stroke="#D1D5DB"/>
<path d="M274.796 187.926H273.497V189.771H270.442C269.867 189.088 268.985 188.671 267.974 188.664C266.128 188.678 264.754 189.97 264.761 191.781C264.754 193.579 266.128 194.871 267.974 194.871C268.992 194.871 269.881 194.454 270.455 193.764H273.497V196.949H274.796V187.926ZM266.005 191.781C265.998 190.626 266.825 189.833 267.974 189.826C269.074 189.833 269.915 190.626 269.915 191.781C269.915 192.937 269.074 193.729 267.974 193.723C266.825 193.729 265.998 192.937 266.005 191.781ZM266.839 199.902H275.124V198.85H268.138V196.006H266.839V199.902ZM271.016 190.824H273.497V192.711H271.023C271.111 192.424 271.159 192.109 271.159 191.781C271.159 191.439 271.111 191.125 271.016 190.824ZM286.291 188.678H277.91V189.744H285.006V189.758C284.999 190.899 284.999 192.178 284.636 193.928H276.543V194.994H281.437V200.176H282.75V194.994H287.713V193.928H285.949C286.291 192.185 286.291 190.92 286.291 189.758V188.678ZM298.989 187.912H297.745V192.752H296.227V188.24H295.01V199.574H296.227V193.805H297.745V200.162H298.989V187.912ZM288.461 196.662L289.213 197.564C292.72 195.589 293.787 192.69 293.793 189.471H288.981V190.537H292.529C292.324 193.032 291.182 195.117 288.461 196.662ZM302.212 188.432H300.94V193.777H306.71V188.432H305.425V190.1H302.212V188.432ZM302.171 195.773H308.802V196.881H302.198V200.039H310.511V199H303.47V197.838H310.087V194.748H302.171V195.773ZM302.212 192.738V191.098H305.425V192.738H302.212ZM308.788 194.215H310.087V191.535H311.864V190.482H310.087V187.912H308.788V194.215ZM323.591 194.352H312.394V195.377H323.591V194.352ZM313.666 197.482H320.843V200.162H322.17V196.443H313.666V197.482ZM313.857 193.312H322.306V192.314H315.17V191.234H321.91V190.25H315.17V189.252H322.224V188.227H313.857V193.312ZM334.129 188.678H325.748V189.744H332.844V189.758C332.837 190.899 332.837 192.178 332.475 193.928H324.381V194.994H329.276V200.176H330.588V194.994H335.551V193.928H333.787C334.129 192.185 334.129 190.92 334.129 189.758V188.678ZM340.88 190.469V189.936H343.573V188.883H336.819V189.936H339.567V190.469C339.561 192.144 338.385 193.729 336.478 194.379L337.147 195.404C338.603 194.892 339.697 193.839 340.244 192.506C340.805 193.729 341.864 194.693 343.272 195.158L343.942 194.146C342.049 193.545 340.88 192.055 340.88 190.469ZM338.487 199.902H346.868V198.85H339.8V196.02H338.487V199.902ZM345.2 196.867H346.499V187.926H345.2V196.867ZM353.879 196.361C351.151 196.361 349.627 197.011 349.627 198.262C349.627 199.506 351.151 200.155 353.879 200.162C356.572 200.155 358.096 199.506 358.103 198.262C358.096 197.011 356.572 196.361 353.879 196.361ZM348.3 195.623H359.47V194.611H348.3V195.623ZM348.875 189.908H358.841V188.924H354.535V187.748H353.236V188.924H348.875V189.908ZM349.859 192.137C349.852 193.285 351.308 193.894 353.879 193.887C356.462 193.894 357.905 193.285 357.898 192.137C357.905 190.975 356.462 190.353 353.879 190.359C351.308 190.353 349.852 190.975 349.859 192.137ZM350.953 198.262C350.953 197.64 351.971 197.312 353.879 197.305C355.772 197.312 356.791 197.64 356.791 198.262C356.791 198.877 355.772 199.198 353.879 199.191C351.971 199.198 350.953 198.877 350.953 198.262ZM351.24 192.137C351.233 191.556 352.17 191.241 353.879 191.248C355.601 191.241 356.517 191.556 356.517 192.137C356.517 192.69 355.601 192.978 353.879 192.984C352.17 192.978 351.233 192.69 351.24 192.137ZM370.842 187.912H369.598V192.779H368.135V188.145H366.905V199.561H368.135V193.873H369.598V200.162H370.842V187.912ZM360.096 196.703L360.903 197.688C362.154 196.949 362.96 195.664 363.377 194.058C363.815 195.466 364.621 196.607 365.824 197.264L366.59 196.266C364.806 195.35 363.979 193.354 363.979 191.152V190.359H366.112V189.307H360.424V190.359H362.721V191.152C362.721 193.586 361.887 195.698 360.096 196.703ZM381.845 187.898H380.546V196.771H381.845V192.533H383.636V191.453H381.845V187.898ZM372.766 194.652H373.737C376.362 194.652 377.811 194.57 379.466 194.242L379.315 193.189C377.777 193.504 376.437 193.579 374.052 193.572V190.004H378.235V188.951H372.766V194.652ZM374.079 199.902H382.364V198.85H375.378V195.855H374.079V199.902Z" fill="#9CA3AF"/>
</g>
<circle cx="324" cy="78" r="20" fill="#008DFF"/>
<path d="M318.512 87H330.652V84.0938H323.41V84L325.988 81.4922C329.48 78.3281 330.418 76.7461 330.418 74.8125C330.418 71.8711 328.004 69.7969 324.371 69.7969C320.797 69.7969 318.336 71.918 318.348 75.2344H321.699C321.688 73.6055 322.73 72.5977 324.324 72.6094C325.883 72.5977 327.02 73.5352 327.02 75.0469C327.02 76.3945 326.164 77.332 324.582 78.8438L318.488 84.4453L318.512 87Z" fill="white"/>
<g filter="url(#filter2_dd_1133_26855)">
<rect x="460" y="87" width="180" height="132" rx="4" fill="white"/>
<path d="M533.114 124.639H530.882V128.611H528.719V130.422H530.882V132.021H528.719V133.797H530.882V136.82H533.114V124.639ZM519.667 128.084H528.561V126.309H525.344V124.604H523.112V126.309H519.667V128.084ZM520.458 131.793C520.44 133.639 522.031 134.922 524.202 134.922C526.399 134.922 527.981 133.639 527.999 131.793C527.981 129.947 526.399 128.646 524.202 128.646C522.031 128.646 520.44 129.947 520.458 131.793ZM522.462 140.336H533.448V138.543H524.729V135.783H522.462V140.336ZM522.55 131.793C522.541 130.896 523.226 130.396 524.202 130.387C525.169 130.396 525.881 130.896 525.889 131.793C525.881 132.716 525.169 133.217 524.202 133.217C523.226 133.217 522.541 132.716 522.55 131.793ZM544.096 125.693H535.377V127.486H538.647C538.62 129.517 537.416 131.591 534.762 132.426L535.905 134.201C537.821 133.568 539.121 132.285 539.833 130.677C540.536 132.039 541.767 133.12 543.534 133.656L544.606 131.898C542.057 131.151 540.923 129.35 540.914 127.486H544.096V125.693ZM536.977 137.506C536.968 139.466 539.078 140.626 542.461 140.617C545.792 140.626 547.849 139.466 547.858 137.506C547.849 135.555 545.792 134.421 542.461 134.43C539.078 134.421 536.968 135.555 536.977 137.506ZM539.227 137.506C539.209 136.609 540.361 136.161 542.461 136.17C544.536 136.161 545.643 136.609 545.643 137.506C545.643 138.42 544.536 138.877 542.461 138.877C540.361 138.877 539.209 138.42 539.227 137.506ZM545.45 134.113H547.7V130.158H549.862V128.33H547.7V124.621H545.45V134.113ZM563.762 124.621H561.529V132.725H563.762V124.621ZM550.315 131.002L551.422 132.76C553.329 132.188 554.639 130.967 555.359 129.411C556.089 130.835 557.355 131.951 559.191 132.479L560.281 130.756C557.662 130 556.502 128.146 556.52 126.203V124.973H554.182V126.203C554.182 128.189 552.986 130.202 550.315 131.002ZM553.039 135.15H561.547V136.082H553.074V140.512H564.219V138.736H555.272V137.752H563.779V133.41H553.039V135.15ZM571.65 128.242V125.852H569.4V128.242C569.4 131.213 568.126 134.271 565.41 135.52L566.799 137.33C568.609 136.434 569.84 134.737 570.543 132.672C571.202 134.597 572.362 136.179 574.076 137.031L575.429 135.238C572.863 133.999 571.641 131.107 571.65 128.242ZM576.133 140.617H578.383V132.689H580.738V130.791H578.383V124.621H576.133V140.617Z" fill="#374151"/>
<line x1="476" y1="168.5" x2="624" y2="168.5" stroke="#D1D5DB"/>
<path d="M517.069 187.912H515.757V200.162H517.069V187.912ZM507.007 196.881L507.69 197.934C511.894 195.917 513.419 192.813 513.419 189.225H507.594V190.264H512.106C511.853 193.121 510.261 195.329 507.007 196.881ZM525.091 188.377V187.967H523.765V188.377C523.758 189.785 521.824 190.968 519.431 191.234L519.882 192.219C521.871 191.973 523.628 191.125 524.421 189.874C525.207 191.125 526.964 191.973 528.974 192.219L529.425 191.234C527.039 190.968 525.098 189.785 525.091 188.377ZM518.843 193.969H523.765V195.062H520.183V196.061H527.32V197.018H520.197V200.039H528.947V199.041H521.468V197.961H528.605V195.062H525.064V193.969H530.013V192.93H518.843V193.969ZM542.014 197.564H537.023V195.049H540.688V188.746H539.402V190.852H533.387V188.746H532.088V195.049H535.738V197.564H530.803V198.645H542.014V197.564ZM533.387 193.996V191.904H539.402V193.996H533.387ZM553.932 193.682H542.762V194.734H553.932V193.682ZM543.35 192.014L543.801 193.039C545.927 192.793 547.671 191.897 548.347 190.605C549.01 191.897 550.767 192.793 552.893 193.039L553.358 192.014C551.089 191.774 549.359 190.77 549.209 189.58H552.934V188.514H543.788V189.58H547.472C547.329 190.776 545.572 191.774 543.35 192.014ZM544.089 197.92C544.089 199.342 545.681 200.142 548.341 200.135C550.979 200.142 552.558 199.342 552.565 197.92C552.558 196.498 550.979 195.678 548.341 195.678C545.681 195.678 544.089 196.498 544.089 197.92ZM545.401 197.92C545.394 197.127 546.467 196.703 548.341 196.689C550.186 196.703 551.266 197.127 551.266 197.92C551.266 198.692 550.186 199.116 548.341 199.109C546.467 199.116 545.394 198.692 545.401 197.92ZM564.908 187.912H563.595V200.162H564.908V187.912ZM554.845 196.881L555.529 197.934C559.733 195.917 561.257 192.813 561.257 189.225H555.433V190.264H559.945C559.692 193.121 558.099 195.329 554.845 196.881ZM576.471 188.527H568.09V189.594H575.186C575.186 190.523 575.172 191.569 574.844 192.998H566.682V194.064H577.893V192.998H576.156C576.478 191.521 576.478 190.414 576.471 189.457V188.527ZM568.049 200.012H576.484V195.623H568.049V200.012ZM569.32 198.959V196.648H575.199V198.959H569.32ZM593.103 193.668H581.919V194.734H593.103V193.668ZM583.245 197.92C583.245 199.342 584.838 200.142 587.497 200.135C590.136 200.142 591.715 199.342 591.722 197.92C591.715 196.498 590.136 195.691 587.497 195.691C584.838 195.691 583.245 196.498 583.245 197.92ZM583.314 192.602H591.804V191.549H584.599V189.416H591.722V188.35H583.314V192.602ZM584.558 197.92C584.551 197.141 585.624 196.703 587.497 196.689C589.343 196.703 590.423 197.141 590.423 197.92C590.423 198.706 589.343 199.13 587.497 199.137C585.624 199.13 584.551 198.706 584.558 197.92Z" fill="#9CA3AF"/>
</g>
<circle cx="550" cy="78" r="20" fill="#008DFF"/>
<path d="M549.953 87.2344C553.785 87.2344 556.539 85.1484 556.516 82.2422C556.539 80.1211 555.168 78.6094 552.672 78.3047V78.1641C554.57 77.8242 555.895 76.4766 555.883 74.5781C555.895 71.8945 553.539 69.7969 550 69.7969C546.52 69.7969 543.895 71.8242 543.836 74.7422H547.211C547.27 73.4414 548.5 72.5977 550 72.6094C551.5 72.5977 552.496 73.4883 552.484 74.7891C552.496 76.125 551.324 77.0391 549.648 77.0391H548.078V79.6406H549.648C551.641 79.6523 552.871 80.625 552.859 82.0078C552.871 83.3789 551.664 84.3164 549.977 84.3281C548.336 84.3164 547.105 83.4844 547.047 82.2188H543.484C543.555 85.1836 546.227 87.2344 549.953 87.2344Z" fill="white"/>
<g filter="url(#filter3_dd_1133_26855)">
<rect x="686" y="87" width="180" height="132" rx="4" fill="white"/>
<path d="M751.837 128.98V127.996H755.176V126.168H746.141V127.996H749.534V128.98C749.534 131.688 748.163 134.649 745.508 135.836L746.792 137.611C748.681 136.741 750.008 134.983 750.729 132.883C751.45 134.816 752.751 136.407 754.632 137.207L755.844 135.449C753.164 134.333 751.828 131.564 751.837 128.98ZM756.758 140.617H759.026V124.621H756.758V140.617ZM774.491 124.621H772.258V128.523H769.762V130.334H772.258V134.113H774.491V124.621ZM760.903 132.355L762.063 134.131C763.961 133.48 765.245 132.171 765.948 130.545C766.642 131.978 767.864 133.138 769.621 133.709L770.729 131.951C768.242 131.125 767.099 129.244 767.055 127.381H770.237V125.588H761.553V127.381H764.77C764.717 129.385 763.522 131.477 760.903 132.355ZM763.522 137.559C763.522 139.501 765.614 140.635 769.024 140.635C772.443 140.635 774.535 139.501 774.543 137.559C774.535 135.616 772.443 134.474 769.024 134.465C765.614 134.474 763.522 135.616 763.522 137.559ZM765.754 137.559C765.754 136.636 766.906 136.179 769.024 136.188C771.151 136.179 772.302 136.636 772.311 137.559C772.302 138.473 771.151 138.93 769.024 138.93C766.906 138.93 765.754 138.473 765.754 137.559ZM784.84 125.395V124.867H782.537V125.395C782.52 127.082 780.656 128.937 777.106 129.35L777.949 131.107C780.674 130.747 782.66 129.578 783.689 128.005C784.717 129.578 786.712 130.747 789.428 131.107L790.236 129.35C786.703 128.937 784.84 127.073 784.84 125.395ZM776.385 133.744H790.975V131.986H776.385V133.744ZM778.055 137.734C778.055 139.589 780.155 140.635 783.662 140.635C787.116 140.635 789.217 139.589 789.234 137.734C789.217 135.854 787.116 134.825 783.662 134.834C780.155 134.825 778.055 135.854 778.055 137.734ZM780.34 137.734C780.331 136.908 781.447 136.53 783.662 136.521C785.833 136.53 786.976 136.908 786.984 137.734C786.976 138.552 785.833 138.93 783.662 138.93C781.447 138.93 780.331 138.552 780.34 137.734ZM805.156 124.639H802.906V136.135H805.156V124.639ZM792.008 129.684C792.008 132.065 793.924 133.744 796.385 133.744C798.837 133.744 800.753 132.065 800.761 129.684C800.753 127.337 798.837 125.649 796.385 125.658C793.924 125.649 792.008 127.337 792.008 129.684ZM794.205 129.684C794.187 128.383 795.128 127.601 796.385 127.609C797.597 127.601 798.538 128.383 798.547 129.684C798.538 131.02 797.597 131.793 796.385 131.793C795.128 131.793 794.187 131.02 794.205 129.684ZM794.433 140.336H805.578V138.543H796.701V134.975H794.433V140.336Z" fill="#374151"/>
<line x1="702" y1="168.5" x2="850" y2="168.5" stroke="#D1D5DB"/>
<path d="M729.385 189.225H723.123V190.277H728.1C728.093 191.296 728.059 192.725 727.745 194.68L729.03 194.775C729.378 192.588 729.378 191.009 729.385 189.977V189.225ZM722.44 196.471L722.59 197.523C724.764 197.537 727.615 197.482 730.164 197.072L730.096 196.102C728.873 196.259 727.539 196.341 726.241 196.396V192.725H724.956V196.437C724.06 196.457 723.206 196.464 722.44 196.471ZM730.793 200.162H732.106V194.078H733.979V192.971H732.106V187.912H730.793V200.162ZM741.837 189.156H738.843V187.857H737.544V189.156H734.536V190.195H741.837V189.156ZM735.206 192.971C735.199 194.317 736.416 195.199 738.187 195.199C739.95 195.199 741.153 194.317 741.153 192.971C741.153 191.631 739.95 190.756 738.187 190.742C736.416 190.756 735.199 191.631 735.206 192.971ZM736.054 197.25H742.849V200.162H744.148V196.197H736.054V197.25ZM736.464 192.971C736.45 192.219 737.148 191.747 738.187 191.74C739.226 191.747 739.923 192.219 739.937 192.971C739.923 193.729 739.226 194.188 738.187 194.188C737.148 194.188 736.45 193.729 736.464 192.971ZM742.849 195.568H744.148V192.314H745.925V191.234H744.148V187.912H742.849V195.568ZM756.668 187.912H755.355V200.162H756.668V187.912ZM746.605 196.881L747.289 197.934C751.493 195.917 753.017 192.813 753.017 189.225H747.193V190.264H751.705C751.452 193.121 749.859 195.329 746.605 196.881ZM764.69 188.377V187.967H763.364V188.377C763.357 189.785 761.422 190.968 759.03 191.234L759.481 192.219C761.47 191.973 763.227 191.125 764.02 189.874C764.806 191.125 766.563 191.973 768.573 192.219L769.024 191.234C766.638 190.968 764.697 189.785 764.69 188.377ZM758.442 193.969H763.364V195.062H759.782V196.061H766.918V197.018H759.795V200.039H768.545V199.041H761.067V197.961H768.203V195.062H764.662V193.969H769.612V192.93H758.442V193.969ZM780.614 187.912H779.315V191.029H777.032V192.096H779.315V195.199H780.614V187.912ZM770.401 194.092L771.085 195.131C772.548 194.591 773.621 193.49 774.154 192.123C774.688 193.333 775.699 194.317 777.073 194.789L777.743 193.764C775.891 193.135 774.783 191.624 774.79 190.072V189.812H777.415V188.76H770.812V189.812H773.464V190.086C773.471 191.774 772.302 193.429 770.401 194.092ZM772.37 197.852C772.363 199.308 773.936 200.155 776.513 200.162C779.076 200.155 780.648 199.308 780.655 197.852C780.648 196.396 779.076 195.548 776.513 195.541C773.936 195.548 772.363 196.396 772.37 197.852ZM773.655 197.852C773.648 197.018 774.715 196.546 776.513 196.553C778.297 196.546 779.363 197.018 779.37 197.852C779.363 198.679 778.297 199.15 776.513 199.137C774.715 199.15 773.648 198.679 773.655 197.852ZM793.572 197.564H788.582V195.049H792.246V188.746H790.961V190.852H784.945V188.746H783.646V195.049H787.297V197.564H782.361V198.645H793.572V197.564ZM784.945 193.996V191.904H790.961V193.996H784.945ZM805.491 194.352H800.541V193.285H804.205V192.273H797.069V191.234H803.809V190.264H797.069V189.266H804.123V188.24H795.756V193.285H799.242V194.352H794.293V195.377H805.491V194.352ZM795.647 198.166C795.647 199.458 797.171 200.142 799.899 200.135C802.585 200.142 804.116 199.458 804.123 198.166C804.116 196.881 802.585 196.177 799.899 196.184C797.171 196.177 795.647 196.881 795.647 198.166ZM796.946 198.166C796.939 197.503 797.964 197.154 799.899 197.154C801.806 197.154 802.824 197.503 802.824 198.166C802.824 198.829 801.806 199.164 799.899 199.15C797.964 199.164 796.939 198.829 796.946 198.166ZM816.438 187.926H815.14V196.895H816.438V187.926ZM806.349 194.133L807.046 195.158C808.481 194.604 809.541 193.47 810.081 192.048C810.628 193.374 811.674 194.413 813.089 194.939L813.759 193.9C811.865 193.244 810.73 191.604 810.737 189.812V188.596H809.411V189.812C809.404 191.658 808.269 193.422 806.349 194.133ZM808.427 199.902H816.808V198.85H809.739V196.047H808.427V199.902ZM829.437 195.117H818.226V196.143H823.162V200.162H824.433V196.143H829.437V195.117ZM819.621 193.723H828.029V188.404H826.73V190.004H820.906V188.404H819.621V193.723ZM820.906 192.684V191.043H826.73V192.684H820.906Z" fill="#9CA3AF"/>
</g>
<circle cx="776" cy="78" r="20" fill="#008DFF"/>
<path d="M769.168 84H777.418V87H780.77V84H782.926V81.1641H780.77V70.0312H776.34L769.168 81.2109V84ZM772.73 81.1641V81.0234L777.301 73.8984H777.465V81.1641H772.73Z" fill="white"/>
<g filter="url(#filter4_dd_1133_26855)">
<rect x="912" y="87" width="180" height="132" rx="4" fill="white"/>
<path d="M968.164 128.98V127.996H971.504V126.168H962.469V127.996H965.861V128.98C965.861 131.688 964.49 134.649 961.836 135.836L963.119 137.611C965.009 136.741 966.336 134.983 967.057 132.883C967.777 134.816 969.078 136.407 970.959 137.207L972.172 135.449C969.491 134.333 968.155 131.564 968.164 128.98ZM973.086 140.617H975.354V124.621H973.086V140.617ZM990.818 124.621H988.586V128.523H986.09V130.334H988.586V134.113H990.818V124.621ZM977.23 132.355L978.39 134.131C980.289 133.48 981.572 132.171 982.275 130.545C982.969 131.978 984.191 133.138 985.949 133.709L987.056 131.951C984.569 131.125 983.426 129.244 983.383 127.381H986.564V125.588H977.881V127.381H981.097C981.045 129.385 979.849 131.477 977.23 132.355ZM979.849 137.559C979.849 139.501 981.941 140.635 985.351 140.635C988.77 140.635 990.862 139.501 990.871 137.559C990.862 135.616 988.77 134.474 985.351 134.465C981.941 134.474 979.849 135.616 979.849 137.559ZM982.082 137.559C982.082 136.636 983.233 136.179 985.351 136.188C987.478 136.179 988.63 136.636 988.638 137.559C988.63 138.473 987.478 138.93 985.351 138.93C983.233 138.93 982.082 138.473 982.082 137.559ZM998.759 128.242V125.852H996.492V128.242C996.474 131.248 995.226 134.333 992.484 135.572L993.89 137.4C995.718 136.504 996.949 134.781 997.634 132.681C998.302 134.658 999.497 136.258 1001.27 137.119L1002.64 135.326C999.981 134.175 998.768 131.248 998.759 128.242ZM1000.85 131.459H1004V140.652H1006.21V124.621H1004V129.648H1000.85V131.459ZM1025.33 126.01H1013.5V127.785H1023.08C1023.07 129.64 1023.05 131.811 1022.53 134.746L1024.73 134.939C1025.32 131.714 1025.32 129.525 1025.33 127.574V126.01ZM1012.06 138.666H1026.65V136.838H1021.37V131.811H1019.16V136.838H1017.4V131.811H1015.17V136.838H1012.06V138.666ZM1042.06 133.85H1027.42V135.607H1033.59V140.617H1035.8V135.607H1042.06V133.85ZM1029.14 132.303H1040.32V125.236H1038.07V127.082H1031.35V125.236H1029.14V132.303ZM1031.35 130.51V128.84H1038.07V130.51H1031.35Z" fill="#374151"/>
<line x1="928" y1="168.5" x2="1076" y2="168.5" stroke="#D1D5DB"/>
<path d="M952.796 187.926H951.497V189.771H948.442C947.867 189.088 946.985 188.671 945.974 188.664C944.128 188.678 942.754 189.97 942.761 191.781C942.754 193.579 944.128 194.871 945.974 194.871C946.992 194.871 947.881 194.454 948.455 193.764H951.497V196.949H952.796V187.926ZM944.005 191.781C943.998 190.626 944.825 189.833 945.974 189.826C947.074 189.833 947.915 190.626 947.915 191.781C947.915 192.937 947.074 193.729 945.974 193.723C944.825 193.729 943.998 192.937 944.005 191.781ZM944.839 199.902H953.124V198.85H946.138V196.006H944.839V199.902ZM949.016 190.824H951.497V192.711H949.023C949.111 192.424 949.159 192.109 949.159 191.781C949.159 191.439 949.111 191.125 949.016 190.824ZM964.291 188.678H955.91V189.744H963.006V189.758C962.999 190.899 962.999 192.178 962.636 193.928H954.543V194.994H959.437V200.176H960.75V194.994H965.713V193.928H963.949C964.291 192.185 964.291 190.92 964.291 189.758V188.678ZM976.989 187.912H975.745V192.752H974.227V188.24H973.01V199.574H974.227V193.805H975.745V200.162H976.989V187.912ZM966.461 196.662L967.213 197.564C970.72 195.589 971.787 192.69 971.793 189.471H966.981V190.537H970.529C970.324 193.032 969.182 195.117 966.461 196.662ZM980.212 188.432H978.94V193.777H984.71V188.432H983.425V190.1H980.212V188.432ZM980.171 195.773H986.802V196.881H980.198V200.039H988.511V199H981.47V197.838H988.087V194.748H980.171V195.773ZM980.212 192.738V191.098H983.425V192.738H980.212ZM986.788 194.215H988.087V191.535H989.864V190.482H988.087V187.912H986.788V194.215ZM1001.59 194.352H990.394V195.377H1001.59V194.352ZM991.666 197.482H998.843V200.162H1000.17V196.443H991.666V197.482ZM991.857 193.312H1000.31V192.314H993.17V191.234H999.91V190.25H993.17V189.252H1000.22V188.227H991.857V193.312ZM1012.13 188.678H1003.75V189.744H1010.84V189.758C1010.84 190.899 1010.84 192.178 1010.47 193.928H1002.38V194.994H1007.28V200.176H1008.59V194.994H1013.55V193.928H1011.79C1012.13 192.185 1012.13 190.92 1012.13 189.758V188.678ZM1018.88 190.469V189.936H1021.57V188.883H1014.82V189.936H1017.57V190.469C1017.56 192.144 1016.38 193.729 1014.48 194.379L1015.15 195.404C1016.6 194.892 1017.7 193.839 1018.24 192.506C1018.8 193.729 1019.86 194.693 1021.27 195.158L1021.94 194.146C1020.05 193.545 1018.88 192.055 1018.88 190.469ZM1016.49 199.902H1024.87V198.85H1017.8V196.02H1016.49V199.902ZM1023.2 196.867H1024.5V187.926H1023.2V196.867ZM1031.88 196.361C1029.15 196.361 1027.63 197.011 1027.63 198.262C1027.63 199.506 1029.15 200.155 1031.88 200.162C1034.57 200.155 1036.1 199.506 1036.1 198.262C1036.1 197.011 1034.57 196.361 1031.88 196.361ZM1026.3 195.623H1037.47V194.611H1026.3V195.623ZM1026.87 189.908H1036.84V188.924H1032.53V187.748H1031.24V188.924H1026.87V189.908ZM1027.86 192.137C1027.85 193.285 1029.31 193.894 1031.88 193.887C1034.46 193.894 1035.9 193.285 1035.9 192.137C1035.9 190.975 1034.46 190.353 1031.88 190.359C1029.31 190.353 1027.85 190.975 1027.86 192.137ZM1028.95 198.262C1028.95 197.64 1029.97 197.312 1031.88 197.305C1033.77 197.312 1034.79 197.64 1034.79 198.262C1034.79 198.877 1033.77 199.198 1031.88 199.191C1029.97 199.198 1028.95 198.877 1028.95 198.262ZM1029.24 192.137C1029.23 191.556 1030.17 191.241 1031.88 191.248C1033.6 191.241 1034.52 191.556 1034.52 192.137C1034.52 192.69 1033.6 192.978 1031.88 192.984C1030.17 192.978 1029.23 192.69 1029.24 192.137ZM1048.84 187.912H1047.6V192.779H1046.13V188.145H1044.9V199.561H1046.13V193.873H1047.6V200.162H1048.84V187.912ZM1038.1 196.703L1038.9 197.688C1040.15 196.949 1040.96 195.664 1041.38 194.058C1041.81 195.466 1042.62 196.607 1043.82 197.264L1044.59 196.266C1042.81 195.35 1041.98 193.354 1041.98 191.152V190.359H1044.11V189.307H1038.42V190.359H1040.72V191.152C1040.72 193.586 1039.89 195.698 1038.1 196.703ZM1059.84 187.898H1058.55V196.771H1059.84V192.533H1061.64V191.453H1059.84V187.898ZM1050.77 194.652H1051.74C1054.36 194.652 1055.81 194.57 1057.47 194.242L1057.32 193.189C1055.78 193.504 1054.44 193.579 1052.05 193.572V190.004H1056.24V188.951H1050.77V194.652ZM1052.08 199.902H1060.36V198.85H1053.38V195.855H1052.08V199.902Z" fill="#9CA3AF"/>
</g>
<circle cx="1002" cy="78" r="20" fill="#008DFF"/>
<path d="M1002.05 87.2344C1005.87 87.2344 1008.47 84.7852 1008.47 81.3516C1008.47 78.0938 1006.15 75.7617 1003.03 75.7734C1001.54 75.7617 1000.25 76.3711 999.633 77.2031H999.492L999.961 72.9141H1007.51V70.0312H997.055L996.141 79.8047H999.328C999.832 78.8555 1000.72 78.375 1002 78.375C1003.78 78.3867 1005.06 79.6406 1005.05 81.4453C1005.06 83.2148 1003.8 84.457 1002.05 84.4453C1000.57 84.457 999.363 83.543 999.281 82.2188H995.859C995.918 85.1484 998.508 87.2344 1002.05 87.2344Z" fill="white"/>
<defs>
<filter id="filter0_dd_1133_26855" x="0" y="83" width="196" height="148" filterUnits="userSpaceOnUse" color-interpolation-filters="sRGB">
<feFlood flood-opacity="0" result="BackgroundImageFix"/>
<feColorMatrix in="SourceAlpha" type="matrix" values="0 0 0 0 0 0 0 0 0 0 0 0 0 0 0 0 0 0 127 0" result="hardAlpha"/>
<feOffset dy="4"/>
<feGaussianBlur stdDeviation="4"/>
<feColorMatrix type="matrix" values="0 0 0 0 0.458824 0 0 0 0 0.458824 0 0 0 0 0.458824 0 0 0 0.16 0"/>
<feBlend mode="normal" in2="BackgroundImageFix" result="effect1_dropShadow_1133_26855"/>
<feColorMatrix in="SourceAlpha" type="matrix" values="0 0 0 0 0 0 0 0 0 0 0 0 0 0 0 0 0 0 127 0" result="hardAlpha"/>
<feOffset dy="1"/>
<feGaussianBlur stdDeviation="1"/>
<feColorMatrix type="matrix" values="0 0 0 0 0.258824 0 0 0 0 0.258824 0 0 0 0 0.258824 0 0 0 0.04 0"/>
<feBlend mode="normal" in2="effect1_dropShadow_1133_26855" result="effect2_dropShadow_1133_26855"/>
<feBlend mode="normal" in="SourceGraphic" in2="effect2_dropShadow_1133_26855" result="shape"/>
</filter>
<filter id="filter1_dd_1133_26855" x="226" y="83" width="196" height="148" filterUnits="userSpaceOnUse" color-interpolation-filters="sRGB">
<feFlood flood-opacity="0" result="BackgroundImageFix"/>
<feColorMatrix in="SourceAlpha" type="matrix" values="0 0 0 0 0 0 0 0 0 0 0 0 0 0 0 0 0 0 127 0" result="hardAlpha"/>
<feOffset dy="4"/>
<feGaussianBlur stdDeviation="4"/>
<feColorMatrix type="matrix" values="0 0 0 0 0.458824 0 0 0 0 0.458824 0 0 0 0 0.458824 0 0 0 0.16 0"/>
<feBlend mode="normal" in2="BackgroundImageFix" result="effect1_dropShadow_1133_26855"/>
<feColorMatrix in="SourceAlpha" type="matrix" values="0 0 0 0 0 0 0 0 0 0 0 0 0 0 0 0 0 0 127 0" result="hardAlpha"/>
<feOffset dy="1"/>
<feGaussianBlur stdDeviation="1"/>
<feColorMatrix type="matrix" values="0 0 0 0 0.258824 0 0 0 0 0.258824 0 0 0 0 0.258824 0 0 0 0.04 0"/>
<feBlend mode="normal" in2="effect1_dropShadow_1133_26855" result="effect2_dropShadow_1133_26855"/>
<feBlend mode="normal" in="SourceGraphic" in2="effect2_dropShadow_1133_26855" result="shape"/>
</filter>
<filter id="filter2_dd_1133_26855" x="452" y="83" width="196" height="148" filterUnits="userSpaceOnUse" color-interpolation-filters="sRGB">
<feFlood flood-opacity="0" result="BackgroundImageFix"/>
<feColorMatrix in="SourceAlpha" type="matrix" values="0 0 0 0 0 0 0 0 0 0 0 0 0 0 0 0 0 0 127 0" result="hardAlpha"/>
<feOffset dy="4"/>
<feGaussianBlur stdDeviation="4"/>
<feColorMatrix type="matrix" values="0 0 0 0 0.458824 0 0 0 0 0.458824 0 0 0 0 0.458824 0 0 0 0.16 0"/>
<feBlend mode="normal" in2="BackgroundImageFix" result="effect1_dropShadow_1133_26855"/>
<feColorMatrix in="SourceAlpha" type="matrix" values="0 0 0 0 0 0 0 0 0 0 0 0 0 0 0 0 0 0 127 0" result="hardAlpha"/>
<feOffset dy="1"/>
<feGaussianBlur stdDeviation="1"/>
<feColorMatrix type="matrix" values="0 0 0 0 0.258824 0 0 0 0 0.258824 0 0 0 0 0.258824 0 0 0 0.04 0"/>
<feBlend mode="normal" in2="effect1_dropShadow_1133_26855" result="effect2_dropShadow_1133_26855"/>
<feBlend mode="normal" in="SourceGraphic" in2="effect2_dropShadow_1133_26855" result="shape"/>
</filter>
<filter id="filter3_dd_1133_26855" x="678" y="83" width="196" height="148" filterUnits="userSpaceOnUse" color-interpolation-filters="sRGB">
<feFlood flood-opacity="0" result="BackgroundImageFix"/>
<feColorMatrix in="SourceAlpha" type="matrix" values="0 0 0 0 0 0 0 0 0 0 0 0 0 0 0 0 0 0 127 0" result="hardAlpha"/>
<feOffset dy="4"/>
<feGaussianBlur stdDeviation="4"/>
<feColorMatrix type="matrix" values="0 0 0 0 0.458824 0 0 0 0 0.458824 0 0 0 0 0.458824 0 0 0 0.16 0"/>
<feBlend mode="normal" in2="BackgroundImageFix" result="effect1_dropShadow_1133_26855"/>
<feColorMatrix in="SourceAlpha" type="matrix" values="0 0 0 0 0 0 0 0 0 0 0 0 0 0 0 0 0 0 127 0" result="hardAlpha"/>
<feOffset dy="1"/>
<feGaussianBlur stdDeviation="1"/>
<feColorMatrix type="matrix" values="0 0 0 0 0.258824 0 0 0 0 0.258824 0 0 0 0 0.258824 0 0 0 0.04 0"/>
<feBlend mode="normal" in2="effect1_dropShadow_1133_26855" result="effect2_dropShadow_1133_26855"/>
<feBlend mode="normal" in="SourceGraphic" in2="effect2_dropShadow_1133_26855" result="shape"/>
</filter>
<filter id="filter4_dd_1133_26855" x="904" y="83" width="196" height="148" filterUnits="userSpaceOnUse" color-interpolation-filters="sRGB">
<feFlood flood-opacity="0" result="BackgroundImageFix"/>
<feColorMatrix in="SourceAlpha" type="matrix" values="0 0 0 0 0 0 0 0 0 0 0 0 0 0 0 0 0 0 127 0" result="hardAlpha"/>
<feOffset dy="4"/>
<feGaussianBlur stdDeviation="4"/>
<feColorMatrix type="matrix" values="0 0 0 0 0.458824 0 0 0 0 0.458824 0 0 0 0 0.458824 0 0 0 0.16 0"/>
<feBlend mode="normal" in2="BackgroundImageFix" result="effect1_dropShadow_1133_26855"/>
<feColorMatrix in="SourceAlpha" type="matrix" values="0 0 0 0 0 0 0 0 0 0 0 0 0 0 0 0 0 0 127 0" result="hardAlpha"/>
<feOffset dy="1"/>
<feGaussianBlur stdDeviation="1"/>
<feColorMatrix type="matrix" values="0 0 0 0 0.258824 0 0 0 0 0.258824 0 0 0 0 0.258824 0 0 0 0.04 0"/>
<feBlend mode="normal" in2="effect1_dropShadow_1133_26855" result="effect2_dropShadow_1133_26855"/>
<feBlend mode="normal" in="SourceGraphic" in2="effect2_dropShadow_1133_26855" result="shape"/>
</filter>
</defs>
</svg>
