<svg width="328" height="250" viewBox="0 0 328 250" fill="none" xmlns="http://www.w3.org/2000/svg">
<g filter="url(#filter0_dd_1239_26844)">
<rect x="9.86182" y="28.8083" width="68.3771" height="89.8174" rx="2.31787" fill="white"/>
<path d="M28.1828 51.3445H24.5668V49.4499H27.2355V44.9069H20.5943V49.4499H23.2732V51.3445H19.6979V52.414H28.1828V51.3445ZM21.8777 48.4313V45.9459H25.9521V48.4313H21.8777ZM34.0882 44.7338H28.9953V45.7727H30.8949C30.8338 46.8219 30.1157 47.8558 28.6388 48.2785L29.2907 49.2971C30.3907 48.9609 31.1547 48.2632 31.5723 47.3872C31.995 48.1919 32.7335 48.8285 33.7928 49.1341L34.4447 48.1257C32.9983 47.7284 32.2904 46.7557 32.2293 45.7727H34.0882V44.7338ZM30.1666 53.3918H36.3699V49.6434H35.0763V50.5092H31.4501V49.6434H30.1666V53.3918ZM31.4501 52.3529V51.5176H35.0763V52.3529H31.4501ZM35.0661 49.2563H36.3699V44.2245H35.0661V49.2563ZM43.9943 49.9999C41.9825 49.9999 40.6889 50.6416 40.694 51.7519C40.6889 52.8469 41.9825 53.4988 43.9943 53.4937C46.0213 53.4988 47.2945 52.8469 47.3047 51.7519C47.2945 50.6416 46.0213 49.9999 43.9943 49.9999ZM39.8384 49.4091H48.252V48.36H44.2795V46.7404H42.996V48.36H39.8384V49.4091ZM40.7857 45.6607H45.9602C45.95 46.2922 45.9245 46.9187 45.7157 47.759L46.9889 47.8812C47.2589 46.9288 47.2589 46.1343 47.2538 45.3959V44.6421H40.7857V45.6607ZM41.9876 51.7519C41.9825 51.2375 42.7159 50.9625 43.9943 50.9676C45.2726 50.9625 46.0111 51.2375 46.0111 51.7519C46.0111 52.251 45.2726 52.5056 43.9943 52.5056C42.7159 52.5056 41.9825 52.251 41.9876 51.7519ZM56.3677 45.0292H49.6043V46.0579H55.0639C55.0589 47.1478 55.0436 48.4516 54.6871 50.2036L55.9909 50.336C56.3627 48.3702 56.3627 47.0664 56.3677 45.9052V45.0292ZM48.7283 52.363H57.1826V51.3037H53.0471V48.1155H51.7535V51.3037H48.7283V52.363ZM64.9394 44.7847H60.4067V48.6859H64.9394V44.7847ZM60.8956 52.4955L61.3438 53.4733C62.8921 53.3256 63.9972 52.7807 64.5676 52.0473C65.133 52.7705 66.228 53.3307 67.7711 53.4733L68.2091 52.4955C66.3706 52.3172 65.3978 51.5889 65.2552 50.9574H67.8526V49.9897H65.2144V49.2258H63.9106V49.9897H61.2725V50.9574H63.8699C63.7273 51.6093 62.7495 52.3427 60.8956 52.4955ZM61.6901 47.6673V45.7931H63.6458V47.6673H61.6901ZM66.396 49.4804H67.6896V44.2245H66.396V49.4804ZM43.1755 58.2245H41.8819V60.3024H40.4151V61.3617H41.8819V63.2971H43.1755V58.2245ZM35.312 62.4415L35.9741 63.4601C37.069 63.1035 37.8075 62.36 38.2201 61.433C38.6224 62.2632 39.3303 62.9304 40.354 63.2665L40.9957 62.2683C39.5952 61.8048 38.928 60.7353 38.872 59.7014H40.7105V58.6421H35.6787V59.7014H37.5376C37.4714 60.8321 36.7737 61.9525 35.312 62.4415ZM36.9927 67.3918H43.1755V63.6536H41.8819V64.5296H38.2761V63.6536H36.9927V67.3918ZM38.2761 66.3529V65.5278H41.8819V66.3529H38.2761ZM49.193 58.9477V58.4995H47.8281V58.9477C47.823 60.0427 46.7076 61.2497 44.5991 61.5145L45.1186 62.5637C46.7178 62.3294 47.8994 61.5757 48.5105 60.5774C49.1166 61.5807 50.3032 62.3294 51.9228 62.5637L52.4321 61.5145C50.3083 61.2497 49.1879 60.0427 49.193 58.9477ZM44.2732 64.3259H47.8382V67.4937H49.1217V64.3259H52.7275V63.2665H44.2732V64.3259Z" fill="#374151"/>
<path d="M29.0631 90.9862H28.4452V93.3969H27.6574V91.1084H27.0667V96.7582H27.6574V93.9265H28.4452V97.0706H29.0631V90.9862ZM24.0448 95.6106H24.4523C25.3384 95.6038 25.97 95.5801 26.7 95.4273L26.6524 94.8976C26.0005 95.0232 25.4369 95.0572 24.6899 95.0606V92.2425H26.3265V91.7196H24.0448V95.6106ZM31.8796 91.9573V91.3054H31.2413V91.9029C31.2345 92.8129 30.6844 93.6244 29.7337 93.9605L30.0801 94.4766C30.7897 94.2152 31.3058 93.6787 31.5706 92.9962C31.8354 93.5972 32.3346 94.0725 33 94.3068L33.3464 93.7975C32.4398 93.4987 31.8762 92.7552 31.8796 91.9573ZM30.5554 95.9298C30.5554 96.6496 31.3329 97.0604 32.5994 97.057C33.8489 97.0604 34.6162 96.6496 34.6162 95.9298C34.6162 95.2168 33.8489 94.7991 32.5994 94.8025C31.3329 94.7991 30.5554 95.2168 30.5554 95.9298ZM31.2005 95.9298C31.1971 95.5427 31.72 95.3118 32.5994 95.3118C33.472 95.3118 33.9881 95.5427 33.9847 95.9298C33.9881 96.3304 33.472 96.5477 32.5994 96.5545C31.72 96.5477 31.1971 96.3304 31.2005 95.9298ZM33.9168 94.6599H34.5619V93.0573H35.4447V92.5141H34.5619V90.9862H33.9168V94.6599ZM36.4141 96.5409C36.6755 96.5375 36.8928 96.3236 36.8962 96.0588C36.8928 95.794 36.6755 95.5767 36.4141 95.5767C36.1493 95.5767 35.9286 95.794 35.932 96.0588C35.9286 96.3236 36.1493 96.5375 36.4141 96.5409ZM35.9387 93.3765C35.9354 93.6413 36.156 93.8552 36.4209 93.8586C36.6823 93.8552 36.8996 93.6413 36.903 93.3765C36.8996 93.1117 36.6823 92.8944 36.4209 92.8944C36.156 92.8944 35.9354 93.1117 35.9387 93.3765ZM44.3491 90.9862H43.7311V97.0706H44.3491V90.9862ZM39.1814 93.6142C39.1814 94.935 39.6975 95.7634 40.492 95.76C41.0115 95.7634 41.4121 95.4137 41.6328 94.8093H42.5156V96.7718H43.1268V91.1016H42.5156V92.419H41.6294C41.4121 91.8181 41.0115 91.4717 40.492 91.4751C39.6975 91.4717 39.1814 92.2968 39.1814 93.6142ZM39.7722 93.6142C39.7688 92.6431 40.0404 92.0761 40.492 92.0795C40.9402 92.0761 41.2254 92.6431 41.2254 93.6142C41.2254 94.5818 40.9402 95.1523 40.492 95.1489C40.0404 95.1523 39.7688 94.5818 39.7722 93.6142ZM41.7652 92.9419H42.5156V94.2797H41.7652C41.7992 94.0759 41.8162 93.8519 41.8162 93.6142C41.8162 93.3731 41.7992 93.149 41.7652 92.9419ZM50.0923 90.9862H49.4472V97.0842H50.0923V90.9862ZM45.3932 95.6242H48.3132V91.4955H47.6749V93.0573H46.0383V91.4955H45.3932V95.6242ZM46.0383 95.0945V93.5666H47.6749V95.0945H46.0383ZM51.6865 94.8229C51.9479 94.8195 52.1652 94.6056 52.1686 94.3408C52.1652 94.0759 51.9479 93.8586 51.6865 93.8586C51.4217 93.8586 51.201 94.0759 51.2044 94.3408C51.201 94.6056 51.4217 94.8195 51.6865 94.8229ZM58.3261 95.794H55.8543V94.4698H55.216V95.794H52.7578V96.3236H58.3261V95.794ZM53.0294 94.1778L53.2739 94.6803C54.2925 94.5207 55.1379 94.0386 55.5318 93.329C55.929 94.0386 56.7778 94.5207 57.7964 94.6803L58.0409 94.1778C56.7914 93.9945 55.8917 93.2882 55.8611 92.4326H57.81V91.9097H55.8543V91.0949H55.216V91.9097H53.2603V92.4326H55.2092C55.1786 93.2882 54.2789 93.9945 53.0294 94.1778ZM63.757 90.9862H63.1051V97.0706H63.757V90.9862ZM58.7591 95.4409L59.0986 95.9637C61.1867 94.9621 61.9439 93.4206 61.9439 91.6381H59.0511V92.1542H61.292C61.1663 93.5734 60.3752 94.6701 58.7591 95.4409ZM37.4616 103.29V103.215H38.7858V102.692H37.4684V101.959H36.8233V102.692H35.4991V103.215H36.8233V103.29C36.8233 104.078 36.2529 104.794 35.3226 105.069L35.6417 105.578C36.3581 105.344 36.8878 104.859 37.156 104.234C37.4243 104.787 37.9438 105.219 38.6432 105.422L38.942 104.913C38.0117 104.652 37.4616 103.996 37.4616 103.29ZM36.1035 106.95C36.1035 107.65 36.8742 108.054 38.1475 108.057C39.4071 108.054 40.1643 107.65 40.1643 106.95C40.1643 106.237 39.4071 105.833 38.1475 105.836C36.8742 105.833 36.1035 106.237 36.1035 106.95ZM36.7486 106.95C36.7452 106.55 37.2613 106.339 38.1475 106.339C39.0201 106.339 39.5362 106.55 39.5328 106.95C39.5362 107.341 39.0201 107.558 38.1475 107.561C37.2613 107.558 36.7452 107.341 36.7486 106.95ZM39.4649 105.694H40.11V104.051H40.9927V103.521H40.11V101.986H39.4649V105.694ZM42.9536 102.265C42.0233 102.258 41.3544 102.849 41.3578 103.677C41.3544 104.516 42.0233 105.103 42.9536 105.103C43.7617 105.103 44.3864 104.635 44.5121 103.935H45.697V105.253H46.3421V101.986H45.697V103.405H44.5087C44.3762 102.723 43.7549 102.258 42.9536 102.265ZM41.9758 103.677C41.9724 103.154 42.3798 102.798 42.9536 102.801C43.5172 102.798 43.9179 103.154 43.9179 103.677C43.9179 104.197 43.5172 104.56 42.9536 104.56C42.3798 104.56 41.9724 104.197 41.9758 103.677ZM42.3764 107.996H46.3421V105.544H45.697V106.251H43.0147V105.544H42.3764V107.996ZM43.0147 107.466V106.76H45.697V107.466H43.0147ZM49.3284 103.779V103.134H50.6526V102.597H47.3184V103.134H48.6901V103.779C48.6867 104.808 48.0178 105.955 47.0943 106.4L47.4745 106.909C48.1672 106.563 48.7376 105.813 49.016 104.947C49.291 105.741 49.8343 106.427 50.5167 106.753L50.8834 106.251C49.9599 105.813 49.325 104.74 49.3284 103.779ZM51.3045 108.071H51.9496V104.94H52.9274V104.397H51.9496V101.986H51.3045V108.071Z" fill="#9CA3AF"/>
<line x1="17.3945" y1="80.0912" x2="70.7055" y2="80.0912" stroke="#D1D5DB" stroke-width="0.579467"/>
</g>
<circle cx="44.0503" cy="23.5932" r="11.5893" fill="#008DFF"/>
<path d="M45.9785 18.7396H44.05L41.619 20.2879V22.0942L43.8734 20.6817H43.9278V28.5724H45.9785V18.7396Z" fill="white"/>
<g filter="url(#filter1_dd_1239_26844)">
<rect x="89.8281" y="28.8083" width="68.3771" height="89.8174" rx="2.31787" fill="white"/>
<path d="M110.815 45.182H109.369L107.546 46.3432V47.6979L109.237 46.6385H109.277V52.5566H110.815V45.182ZM115.468 47.1275V46.771H117.363V45.732H115.478V44.4282H114.174V45.732H112.27V46.771H114.185V47.1275C114.174 48.5179 113.456 50.0967 111.944 50.7639L112.657 51.7723C113.706 51.3088 114.434 50.3717 114.836 49.2563C115.223 50.2902 115.911 51.1611 116.904 51.6093L117.627 50.6314C116.15 49.9337 115.468 48.4466 115.468 47.1275ZM118.126 53.4937H119.43V48.91H120.795V47.8201H119.43V44.2245H118.126V53.4937ZM126.8 45.8135V44.7949H125.486V45.8033C125.481 47.1326 124.814 48.4007 123.265 48.91L123.968 49.9286C125.043 49.5415 125.766 48.7827 126.163 47.8099C126.556 48.6706 127.233 49.3531 128.216 49.7147L128.919 48.6961C127.442 48.2021 126.8 47.0103 126.8 45.8135ZM124.967 53.3307H131.333V52.2917H126.281V50.3564H124.967V53.3307ZM128.104 47.2497H129.846V51.0796H131.139V44.2347H129.846V46.2006H128.104V47.2497ZM140.049 44.2245H138.756V46.4858H137.309V47.5349H138.756V49.7249H140.049V44.2245ZM132.176 48.7063L132.848 49.7351C133.948 49.3582 134.692 48.5993 135.099 47.6571C135.501 48.4873 136.209 49.1596 137.228 49.4906L137.87 48.472C136.428 47.9933 135.766 46.9034 135.741 45.8237H137.584V44.7847H132.553V45.8237H134.417C134.386 46.9849 133.693 48.197 132.176 48.7063ZM133.693 51.7213C133.693 52.8469 134.906 53.5039 136.882 53.5039C138.863 53.5039 140.075 52.8469 140.08 51.7213C140.075 50.5958 138.863 49.9337 136.882 49.9286C134.906 49.9337 133.693 50.5958 133.693 51.7213ZM134.987 51.7213C134.987 51.1866 135.654 50.9217 136.882 50.9268C138.114 50.9217 138.781 51.1866 138.786 51.7213C138.781 52.251 138.114 52.5158 136.882 52.5158C135.654 52.5158 134.987 52.251 134.987 51.7213Z" fill="#374151"/>
<path d="M101.995 96.5613C103.014 96.5613 103.771 95.9603 103.767 95.1421C103.771 94.5207 103.38 94.0692 102.708 93.9741V93.9401C103.238 93.8077 103.584 93.4071 103.577 92.8468C103.584 92.1202 102.976 91.5091 102.009 91.5091C101.092 91.5091 100.352 92.0523 100.331 92.8536H101.051C101.068 92.4088 101.51 92.1338 102.002 92.1338C102.521 92.1338 102.858 92.4394 102.858 92.8876C102.858 93.3595 102.467 93.6719 101.907 93.6685H101.486V94.2797H101.907C102.61 94.2831 103.014 94.6294 103.014 95.1149C103.014 95.5936 102.583 95.9162 101.988 95.9162C101.438 95.9162 101.01 95.6412 100.983 95.21H100.223C100.253 96.0147 100.977 96.5613 101.995 96.5613ZM106.231 96.5613C107.368 96.5613 108.034 95.6446 108.037 94.0352C108.034 92.436 107.358 91.5091 106.231 91.5091C105.1 91.5091 104.425 92.436 104.425 94.0352C104.425 95.6446 105.093 96.5613 106.231 96.5613ZM105.172 94.0352C105.172 92.8129 105.569 92.144 106.231 92.1406C106.89 92.144 107.29 92.8129 107.29 94.0352C107.29 95.2609 106.893 95.9162 106.231 95.9162C105.565 95.9162 105.168 95.2609 105.172 94.0352ZM113.74 90.9862H113.122V93.3901H112.368V91.1492H111.764V96.7786H112.368V93.913H113.122V97.0706H113.74V90.9862ZM108.511 95.3322L108.884 95.7804C110.626 94.7991 111.156 93.3595 111.159 91.7603H108.769V92.29H110.531C110.429 93.5293 109.862 94.5649 108.511 95.3322ZM117.064 96.3404V96.855H120.992V96.3404H117.064ZM117.335 92.9332V93.4338H120.846V92.9332H117.335ZM118.83 90.708V96.5908H119.358V90.708H118.83ZM114.63 91.9597V92.4395H116.938V91.9597H114.63ZM115.728 94.0457V97.0567H116.243V93.4269L115.728 94.0457ZM115.728 90.6593V92.1961H116.243V90.6593H115.728ZM116.201 93.5659L115.902 93.8302C116.187 94.0805 116.869 94.7411 117.126 95.0401L117.446 94.6159C117.244 94.4421 116.438 93.7328 116.201 93.5659ZM116.744 91.9597V92.0709C116.326 93.1279 115.332 94.1848 114.386 94.7411C114.477 94.8315 114.602 95.0749 114.658 95.207C115.652 94.5673 116.716 93.413 117.244 92.1335L116.945 91.9388L116.848 91.9597H116.744ZM128.192 90.9862H127.574V93.424H126.793V91.1084H126.189V96.7582H126.793V93.9537H127.574V97.0706H128.192V90.9862ZM123.269 95.5223H123.663C124.318 95.5257 125.014 95.4816 125.849 95.3322L125.781 94.7686C125.089 94.9044 124.474 94.9485 123.914 94.9553V91.706H123.269V95.5223ZM130.907 91.3733C129.949 91.3733 129.246 91.9641 129.25 92.8197C129.246 93.5734 129.793 94.1235 130.581 94.2423V95.2304C129.993 95.2473 129.436 95.2507 128.958 95.2507L129.039 95.7804C130.126 95.777 131.603 95.7702 132.978 95.5156L132.93 95.047C132.384 95.1251 131.8 95.176 131.226 95.2032V94.2423C132.017 94.1269 132.56 93.5768 132.564 92.8197C132.56 91.9641 131.868 91.3733 130.907 91.3733ZM129.888 92.8197C129.881 92.2764 130.316 91.9301 130.907 91.9301C131.497 91.9301 131.932 92.2764 131.932 92.8197C131.932 93.3527 131.497 93.716 130.907 93.7092C130.316 93.716 129.881 93.3527 129.888 92.8197ZM133.311 97.0842H133.956V90.9862H133.311V97.0842ZM138.638 92.0999V91.3597H138V92.0795C137.996 92.9962 137.433 93.8417 136.485 94.1778L136.832 94.6871C137.548 94.4121 138.068 93.8586 138.329 93.1592C138.59 93.7873 139.089 94.2898 139.752 94.5445L140.105 94.042C139.188 93.7194 138.641 92.9249 138.638 92.0999ZM137.592 96.9416H141.7V96.4187H138.244V95.0198H137.592V96.9416ZM139.636 92.908H140.92V95.5291H141.565V90.993H140.92V92.3783H139.636V92.908ZM143.301 91.2443H142.67V93.8994H145.536V91.2443H144.897V92.0727H143.301V91.2443ZM143.281 94.8908H146.575V95.4409H143.295V97.0095H147.423V96.4934H143.926V95.9162H147.213V94.3815H143.281V94.8908ZM143.301 93.3833V92.5684H144.897V93.3833H143.301ZM146.568 94.1167H147.213V92.7857H148.096V92.2628H147.213V90.9862H146.568V94.1167Z" fill="#9CA3AF"/>
<line x1="97.3613" y1="80.0912" x2="150.672" y2="80.0912" stroke="#D1D5DB" stroke-width="0.579467"/>
</g>
<circle cx="124.017" cy="23.5932" r="11.5893" fill="#008DFF"/>
<path d="M120.774 28.5724H127.809V26.8884H123.612V26.834L125.106 25.3809C127.13 23.5474 127.673 22.6306 127.673 21.5102C127.673 19.8057 126.274 18.6038 124.169 18.6038C122.098 18.6038 120.672 19.8329 120.679 21.7547H122.621C122.614 20.8108 123.218 20.2268 124.142 20.2336C125.045 20.2268 125.704 20.77 125.704 21.646C125.704 22.4269 125.208 22.9702 124.291 23.8462L120.76 27.0921L120.774 28.5724Z" fill="white"/>
<g filter="url(#filter2_dd_1239_26844)">
<rect x="169.794" y="28.8083" width="68.3771" height="89.8174" rx="2.31787" fill="white"/>
<path d="M190.522 45.2023H188.668V44.1837H187.354V45.2023H185.49V46.2209H187.354C187.344 47.2803 186.656 48.3294 185.164 48.7369L185.786 49.7554C186.875 49.4295 187.619 48.7572 188.026 47.9118C188.444 48.6554 189.172 49.2411 190.227 49.5212L190.817 48.5026C189.325 48.1155 188.663 47.1682 188.648 46.2209H190.522V45.2023ZM186.376 51.7519C186.371 52.8469 187.578 53.4835 189.554 53.4835C191.49 53.4835 192.676 52.8469 192.681 51.7519C192.676 50.6263 191.49 49.9897 189.554 49.9897C187.578 49.9897 186.371 50.6263 186.376 51.7519ZM187.68 51.7519C187.67 51.2222 188.322 50.9879 189.554 50.9879C190.756 50.9879 191.398 51.2222 191.398 51.7519C191.398 52.2561 190.756 52.5056 189.554 52.5056C188.322 52.5056 187.67 52.2561 187.68 51.7519ZM191.286 49.8166H192.59V47.4738H193.843V46.4246H192.59V44.2245H191.286V49.8166ZM196.733 44.6217C195.307 44.6115 194.258 45.5436 194.268 46.8117C194.258 48.1053 195.307 49.0322 196.733 49.0322C197.925 49.0322 198.877 48.3396 199.116 47.321H200.665V49.2054H201.958V44.2245H200.665V46.282H199.111C198.857 45.2889 197.915 44.6115 196.733 44.6217ZM195.5 46.8117C195.495 46.1191 196.005 45.6963 196.733 45.7014C197.436 45.6963 197.94 46.1191 197.945 46.8117C197.94 47.5044 197.436 47.9423 196.733 47.9423C196.005 47.9423 195.495 47.5044 195.5 46.8117ZM195.775 53.3918H201.958V49.6128H200.665V50.5092H197.059V49.6128H195.775V53.3918ZM197.059 52.3427V51.5074H200.665V52.3427H197.059ZM212.964 44.9986H206.323V46.0376H211.691C211.686 46.4043 211.686 46.8015 211.661 47.2395L206.018 47.4229L206.201 48.5331L211.584 48.2276C211.523 48.7929 211.426 49.4193 211.274 50.1221L212.547 50.2546C212.98 48.253 212.959 46.939 212.964 45.8237V44.9986ZM205.356 52.4242H213.81V51.3648H209.674V49.1239H208.381V51.3648H205.356V52.4242ZM222.028 44.2245H220.714V53.5141H222.028V44.2245ZM214.826 51.3037H215.631C217.637 51.3037 218.819 51.263 220.102 51.0185L219.98 49.949C218.814 50.1578 217.79 50.2036 216.13 50.2036V46.0987H219.338V45.0394H214.826V51.3037ZM182.441 59.1107H181.137V65.2732H181.789C182.981 65.2782 183.979 65.2375 185.12 64.9879L184.946 63.898C184.075 64.0814 183.291 64.1425 182.441 64.1578V59.1107ZM183.744 62.2072H185.598V67.0862H186.831V58.3976H185.598V61.158H183.744V62.2072ZM187.595 67.4937H188.817V58.2245H187.595V67.4937ZM197.452 58.2245H196.138V67.5141H197.452V58.2245ZM189.966 62.1766C189.961 64.2138 190.994 65.4871 192.42 65.4871C193.816 65.4871 194.855 64.2138 194.855 62.1766C194.855 60.1547 193.816 58.8764 192.42 58.8764C190.994 58.8764 189.961 60.1547 189.966 62.1766ZM191.218 62.1766C191.213 60.8015 191.697 60.0478 192.42 60.0478C193.123 60.0478 193.597 60.8015 193.602 62.1766C193.597 63.5568 193.123 64.3106 192.42 64.3055C191.697 64.3106 191.213 63.5568 191.218 62.1766ZM206.424 58.2245H205.14V61.4942H203.51V62.5433H205.14V67.5141H206.424V58.2245ZM199.029 65.4158H199.762C201.351 65.4107 202.563 65.3648 203.918 65.1611L203.786 64.1221C202.64 64.3004 201.611 64.3462 200.322 64.3564V62.6044H203.022V61.5858H200.322V60.0478H203.358V58.9986H199.029V65.4158ZM213.192 59.6811V58.7134H211.889V59.5588C211.878 60.8372 211.216 62.0697 209.668 62.5841L210.371 63.6027C211.43 63.2461 212.148 62.5128 212.551 61.5807C212.948 62.3905 213.636 63.0221 214.618 63.348L215.311 62.3396C213.844 61.8863 213.187 60.8066 213.192 59.6811ZM210.952 65.701C210.946 66.8367 212.174 67.4988 214.13 67.4937C216.05 67.4988 217.252 66.8367 217.257 65.701C217.252 64.5754 216.05 63.9082 214.13 63.9082C212.174 63.9082 210.946 64.5754 210.952 65.701ZM212.255 65.701C212.245 65.1968 212.912 64.9268 214.13 64.9268C215.331 64.9268 215.973 65.1968 215.973 65.701C215.973 66.2255 215.331 66.4751 214.13 66.4751C212.912 66.4751 212.245 66.2255 212.255 65.701ZM215.861 63.7249H217.165V61.4738H218.418V60.3941H217.165V58.2245H215.861V63.7249ZM226.075 58.2245H224.771V63.4295H226.075V61.3821H227.328V60.3126H226.075V58.2245ZM219.077 63.0832H219.862C221.914 63.0832 222.984 63.0475 224.15 62.7776L224.018 61.759C222.984 61.9678 222.062 62.034 220.381 62.0442V59.8339H223.213V58.8051H219.077V63.0832ZM220.015 67.3816H226.075V63.8166H220.015V67.3816ZM221.298 66.363V64.8453H224.792V66.363H221.298Z" fill="#374151"/>
<path d="M189.783 90.9862H189.131V97.0706H189.783V90.9862ZM184.785 95.4409L185.124 95.9637C187.212 94.9621 187.97 93.4206 187.97 91.6381H185.077V92.1542H187.318C187.192 93.5734 186.401 94.6701 184.785 95.4409ZM192.348 91.2646C191.418 91.2578 190.749 91.8486 190.752 92.6771C190.749 93.5157 191.418 94.1031 192.348 94.1031C193.156 94.1031 193.781 93.6346 193.906 92.9351H195.091V94.2525H195.736V90.9862H195.091V92.4054H193.903C193.77 91.723 193.149 91.2578 192.348 91.2646ZM191.37 92.6771C191.367 92.1542 191.774 91.7977 192.348 91.8011C192.911 91.7977 193.312 92.1542 193.312 92.6771C193.312 93.1966 192.911 93.5599 192.348 93.5599C191.774 93.5599 191.367 93.1966 191.37 92.6771ZM191.771 96.9959H195.736V94.5445H195.091V95.2507H192.409V94.5445H191.771V96.9959ZM192.409 96.4662V95.76H195.091V96.4662H192.409ZM203.305 90.993H202.66V92.5752H201.682V93.1049H202.66V93.8586H201.682V94.3747H202.66V95.631H203.305V90.993ZM198.239 92.2221H201.661V91.6992H200.303V90.9862H199.665V91.6992H198.239V92.2221ZM198.578 93.6821C198.578 94.3815 199.156 94.8569 199.977 94.8569C200.796 94.8569 201.38 94.3815 201.383 93.6821C201.38 92.986 200.796 92.5107 199.977 92.5141C199.156 92.5107 198.578 92.986 198.578 93.6821ZM199.183 93.6821C199.179 93.2814 199.505 93.0234 199.977 93.0166C200.442 93.0234 200.772 93.2814 200.779 93.6821C200.772 94.0963 200.442 94.3544 199.977 94.3544C199.505 94.3544 199.179 94.0963 199.183 93.6821ZM199.332 96.9416H203.44V96.4187H199.984V95.2236H199.332V96.9416ZM208.96 90.993H208.315V95.1081H208.96V93.3222H209.829V92.7857H208.96V90.993ZM204.131 94.3612L204.199 94.8704C205.279 94.8704 206.719 94.8501 208.023 94.626L207.968 94.1778C207.459 94.2491 206.909 94.2932 206.366 94.3204V93.9028C207.055 93.8281 207.483 93.5157 207.486 93.0506C207.483 92.5073 206.916 92.1848 206.04 92.1881C205.157 92.1848 204.586 92.5073 204.593 93.0506C204.586 93.5191 205.021 93.8315 205.72 93.9028V94.3476C205.15 94.3645 204.603 94.3645 204.131 94.3612ZM204.288 91.9641H207.798V91.4819H206.366V90.9387H205.72V91.4819H204.288V91.9641ZM204.94 96.1267C204.94 96.7379 205.68 97.0672 206.97 97.0706C208.25 97.0672 208.994 96.7379 209 96.1267C208.994 95.5122 208.25 95.1726 206.97 95.176C205.68 95.1726 204.94 95.5122 204.94 96.1267ZM205.204 93.0506C205.204 92.7857 205.52 92.6227 206.04 92.6227C206.552 92.6227 206.872 92.7857 206.868 93.0506C206.872 93.3256 206.552 93.4852 206.04 93.4852C205.52 93.4852 205.204 93.3256 205.204 93.0506ZM205.591 96.1267C205.585 95.8177 206.063 95.648 206.97 95.6514C207.866 95.648 208.342 95.8177 208.342 96.1267C208.342 96.4221 207.866 96.5919 206.97 96.5885C206.063 96.5919 205.585 96.4221 205.591 96.1267ZM213.995 92.2561V91.9912H215.333V91.4683H211.978V91.9912H213.343V92.2561C213.34 93.0879 212.756 93.8756 211.808 94.1982L212.141 94.7075C212.864 94.4528 213.408 93.9299 213.679 93.2679C213.958 93.8756 214.484 94.3544 215.183 94.5852L215.516 94.0827C214.576 93.7839 213.995 93.0438 213.995 92.2561ZM212.807 96.9416H216.969V96.4187H213.459V95.0131H212.807V96.9416ZM216.141 95.4341H216.786V90.993H216.141V95.4341ZM222.461 90.9794H221.816V95.3865H222.461V93.2814H223.351V92.745H222.461V90.9794ZM217.952 94.334H218.434C219.738 94.334 220.458 94.2932 221.28 94.1303L221.205 93.6074C220.441 93.7636 219.776 93.8009 218.591 93.7975V92.0252H220.669V91.5023H217.952V94.334ZM218.604 96.9416H222.719V96.4187H219.249V94.9316H218.604V96.9416Z" fill="#9CA3AF"/>
<line x1="177.328" y1="80.0912" x2="230.639" y2="80.0912" stroke="#D1D5DB" stroke-width="0.579467"/>
</g>
<circle cx="203.983" cy="23.5932" r="11.5893" fill="#008DFF"/>
<path d="M203.708 28.7083C205.929 28.7083 207.525 27.4995 207.511 25.8155C207.525 24.5863 206.73 23.7104 205.284 23.5338V23.4523C206.384 23.2554 207.151 22.4745 207.144 21.3744C207.151 19.8193 205.786 18.6038 203.735 18.6038C201.719 18.6038 200.197 19.7786 200.163 21.4694H202.119C202.153 20.7157 202.866 20.2268 203.735 20.2336C204.605 20.2268 205.182 20.7429 205.175 21.4966C205.182 22.2707 204.503 22.8004 203.532 22.8004H202.622V24.3079H203.532C204.686 24.3147 205.399 24.8783 205.392 25.6796C205.399 26.4741 204.7 27.0174 203.722 27.0242C202.771 27.0174 202.058 26.5353 202.024 25.8019H199.96C200.001 27.5199 201.549 28.7083 203.708 28.7083Z" fill="white"/>
<g filter="url(#filter3_dd_1239_26844)">
<rect x="249.761" y="28.8083" width="68.3771" height="89.8174" rx="2.31787" fill="white"/>
<path d="M274.144 44.2245H272.83V53.4937H274.144V44.2245ZM266.383 50.8657L267.065 51.9047C270.376 50.3411 271.358 48.0035 271.364 45.1921H266.882V46.2107H270.039C269.831 48.2683 268.776 49.7351 266.383 50.8657ZM277.625 44.5606H276.342V48.3498H278.827V49.1341H275.262V50.1731H283.717V49.1341H280.131V48.3498H282.637V44.5606H281.343V45.4875H277.625V44.5606ZM276.281 53.3307H282.759V52.2917H277.585V50.7027H276.281V53.3307ZM277.625 47.3108V46.4858H281.343V47.3108H277.625ZM289.388 45.1514H284.58V46.1904H288.094C288.084 47.0103 288.064 48.0035 287.85 49.348L289.133 49.4499C289.378 47.9067 289.378 46.7659 289.388 45.895V45.1514ZM284.091 50.5601L284.213 51.5991C285.838 51.6093 287.936 51.5736 289.846 51.2528L289.765 50.2851C288.909 50.3972 287.987 50.4634 287.076 50.499V47.8099H285.792V50.5398C285.191 50.555 284.611 50.5601 284.091 50.5601ZM290.203 53.4937H291.517V49.0322H292.78V47.9525H291.517V44.2245H290.203V53.4937ZM300.895 44.2245H299.602V46.4858H298.155V47.5349H299.602V49.7249H300.895V44.2245ZM293.022 48.7063L293.694 49.7351C294.794 49.3582 295.538 48.5993 295.945 47.6571C296.347 48.4873 297.055 49.1596 298.074 49.4906L298.716 48.472C297.274 47.9933 296.612 46.9034 296.587 45.8237H298.43V44.7847H293.399V45.8237H295.263C295.232 46.9849 294.539 48.197 293.022 48.7063ZM294.539 51.7213C294.539 52.8469 295.752 53.5039 297.728 53.5039C299.709 53.5039 300.921 52.8469 300.926 51.7213C300.921 50.5958 299.709 49.9337 297.728 49.9286C295.752 49.9337 294.539 50.5958 294.539 51.7213ZM295.833 51.7213C295.833 51.1866 296.5 50.9217 297.728 50.9268C298.96 50.9217 299.627 51.1866 299.632 51.7213C299.627 52.251 298.96 52.5158 297.728 52.5158C296.5 52.5158 295.833 52.251 295.833 51.7213Z" fill="#374151"/>
<path d="M270.577 94.8908H266.455V95.4001H269.932V97.0706H270.577V94.8908ZM265.593 92.7925C265.589 93.6583 266.272 94.2695 267.189 94.2661C267.705 94.2695 268.146 94.0692 268.431 93.7364H269.932V94.5717H270.577V90.9862H269.932V91.8554H268.431C268.149 91.5227 267.705 91.3223 267.189 91.3257C266.272 91.3223 265.589 91.9335 265.593 92.7925ZM266.211 92.7925C266.207 92.2493 266.618 91.8724 267.189 91.869C267.735 91.8724 268.153 92.2493 268.153 92.7925C268.153 93.3493 267.735 93.7194 267.189 93.7228C266.618 93.7194 266.207 93.3493 266.211 92.7925ZM268.713 93.2067C268.75 93.0777 268.771 92.9385 268.771 92.7925C268.771 92.6499 268.75 92.5141 268.716 92.3851H269.932V93.2067H268.713ZM277.115 91.8962H276.225V90.993H275.58V94.6667H276.225V93.716H277.115V93.1796H276.225V92.4326H277.115V91.8962ZM271.689 91.8826H273.828V92.5684H271.696V94.334H272.185C273.353 94.3408 274.157 94.3034 275.098 94.1371L275.03 93.6142C274.144 93.7636 273.397 93.8043 272.341 93.8043V93.0641H274.46V91.3597H271.689V91.8826ZM272.212 95.9434C272.212 96.6496 272.989 97.057 274.256 97.057C275.505 97.057 276.28 96.6496 276.28 95.9434C276.28 95.2371 275.505 94.8161 274.256 94.8161C272.989 94.8161 272.212 95.2371 272.212 95.9434ZM272.843 95.9434C272.84 95.5495 273.363 95.322 274.256 95.3254C275.135 95.322 275.651 95.5495 275.648 95.9434C275.651 96.3406 275.135 96.5681 274.256 96.5613C273.363 96.5681 272.84 96.3406 272.843 95.9434ZM282.165 90.9862H281.52V94.5988H282.165V93.0438H283.048V92.5209H282.165V90.9862ZM277.378 94.1235L277.643 94.6464C279.425 94.1303 280.495 92.9928 280.495 91.4208H277.65V91.9437H279.795C279.677 92.9283 278.804 93.7228 277.378 94.1235ZM278.206 95.8619C278.2 96.6088 279.001 97.0604 280.223 97.0638C281.449 97.0604 282.233 96.6088 282.233 95.8619C282.233 95.1217 281.449 94.6633 280.223 94.6667C279.001 94.6633 278.2 95.1217 278.206 95.8619ZM278.845 95.8619C278.841 95.4341 279.371 95.1726 280.223 95.176C281.069 95.1726 281.602 95.4341 281.602 95.8619C281.602 96.2897 281.069 96.5511 280.223 96.5545C279.371 96.5511 278.841 96.2897 278.845 95.8619ZM288.092 90.9862H287.447V97.0706H288.092V94.0759H289.009V93.5327H288.092V90.9862ZM283.25 95.4137L283.352 95.9502C284.401 95.9536 285.824 95.94 287.141 95.7057L287.101 95.2304C286.595 95.3017 286.051 95.3458 285.512 95.373V94.7788C286.201 94.6803 286.656 94.2627 286.659 93.6753C286.656 92.9894 286.055 92.5379 285.192 92.5345C284.327 92.5379 283.732 92.9894 283.739 93.6753C283.732 94.2627 284.181 94.6769 284.866 94.7788V95.3967C284.286 95.4137 283.729 95.4137 283.25 95.4137ZM283.366 92.2221H287.012V91.706H285.512V90.9998H284.866V91.706H283.366V92.2221ZM284.344 93.6753C284.344 93.2848 284.683 93.037 285.192 93.037C285.702 93.037 286.038 93.2848 286.041 93.6753C286.038 94.0624 285.702 94.3034 285.192 94.3C284.683 94.3034 284.344 94.0624 284.344 93.6753ZM295.837 91.5702H291.464V92.0931H295.192V92.2221C295.195 92.9691 295.195 93.7839 294.981 94.884L295.613 94.9519C295.83 93.7873 295.83 92.986 295.837 92.2221V91.5702ZM290.893 96.2489H296.441V95.7125H294.356V93.7432H293.725V95.7125H292.849V93.7432H292.204V95.7125H290.893V96.2489ZM302.381 93.8858H296.833V94.4087H298.253V95.1149H297.451V95.6242H301.05V97.0706H301.702V95.1149H300.949V94.4087H302.381V93.8858ZM297.431 92.2968C297.428 93.0302 298.273 93.475 299.604 93.4716C300.932 93.475 301.774 93.0302 301.777 92.2968C301.774 91.56 300.932 91.1186 299.604 91.122C298.273 91.1186 297.428 91.56 297.431 92.2968ZM298.096 92.2968C298.093 91.8758 298.667 91.6279 299.604 91.6313C300.534 91.6279 301.115 91.8758 301.112 92.2968C301.115 92.7212 300.534 92.9691 299.604 92.9691C298.667 92.9691 298.093 92.7212 298.096 92.2968ZM298.898 95.1149V94.4087H300.317V95.1149H298.898Z" fill="#9CA3AF"/>
<line x1="257.294" y1="80.0912" x2="310.605" y2="80.0912" stroke="#D1D5DB" stroke-width="0.579467"/>
</g>
<circle cx="283.949" cy="23.5932" r="11.5893" fill="#008DFF"/>
<path d="M279.243 26.834H284.023V28.5724H285.965V26.834H287.215V25.1907H285.965V18.7396H283.399L279.243 25.2179V26.834ZM281.307 25.1907V25.1092L283.955 20.9805H284.05V25.1907H281.307Z" fill="white"/>
<g filter="url(#filter4_dd_1239_26844)">
<rect x="9.86182" y="148.179" width="68.3771" height="89.8174" rx="2.31787" fill="white"/>
<path d="M26.9326 171.927H32.2089V170.664H29.0615V170.623L30.1819 169.533C31.6996 168.158 32.1071 167.471 32.1071 166.63C32.1071 165.352 31.0579 164.45 29.4791 164.45C27.9257 164.45 26.8562 165.372 26.8613 166.814H28.3179C28.3128 166.106 28.7661 165.668 29.4587 165.673C30.1361 165.668 30.6301 166.075 30.6301 166.732C30.6301 167.318 30.2583 167.725 29.5708 168.382L26.9224 170.817L26.9326 171.927ZM36.2401 166.498V166.141H38.1347V165.102H36.2503V163.799H34.9465V165.102H33.0417V166.141H34.9567V166.498C34.9465 167.888 34.2284 169.467 32.7158 170.134L33.4288 171.143C34.4779 170.679 35.2062 169.742 35.6086 168.627C35.9957 169.661 36.6832 170.531 37.6763 170.98L38.3995 170.002C36.9226 169.304 36.2401 167.817 36.2401 166.498ZM38.8986 172.864H40.2024V168.28H41.5674V167.19H40.2024V163.595H38.8986V172.864ZM47.5722 165.184V164.165H46.2582V165.174C46.2531 166.503 45.5859 167.771 44.0377 168.28L44.7405 169.299C45.8151 168.912 46.5383 168.153 46.9356 167.18C47.3277 168.041 48.0051 168.723 48.988 169.085L49.6909 168.066C48.2139 167.572 47.5722 166.381 47.5722 165.184ZM45.7387 172.701H52.1049V171.662H47.0527V169.727H45.7387V172.701ZM48.876 166.62H50.6178V170.45H51.9114V163.605H50.6178V165.571H48.876V166.62ZM60.8217 163.595H59.528V165.856H58.0816V166.905H59.528V169.095H60.8217V163.595ZM52.9479 168.077L53.6202 169.105C54.7203 168.729 55.4638 167.97 55.8713 167.028C56.2736 167.858 56.9816 168.53 58.0001 168.861L58.6419 167.842C57.2006 167.364 56.5385 166.274 56.513 165.194H58.3567V164.155H53.3248V165.194H55.1888C55.1583 166.355 54.4656 167.567 52.9479 168.077ZM54.4656 171.092C54.4656 172.217 55.6778 172.874 57.6538 172.874C59.635 172.874 60.8471 172.217 60.8522 171.092C60.8471 169.966 59.635 169.304 57.6538 169.299C55.6778 169.304 54.4656 169.966 54.4656 171.092ZM55.7592 171.092C55.7592 170.557 56.4264 170.292 57.6538 170.297C58.8863 170.292 59.5535 170.557 59.5586 171.092C59.5535 171.621 58.8863 171.886 57.6538 171.886C56.4264 171.886 55.7592 171.621 55.7592 171.092Z" fill="#374151"/>
<path d="M26.6278 211.905V210.866H25.9759V211.905C25.9725 213.032 25.3444 214.203 24.4005 214.655L24.808 215.178C25.5108 214.815 26.0405 214.074 26.3087 213.198C26.5769 214.03 27.0998 214.716 27.789 215.062L28.1829 214.546C27.2526 214.129 26.6278 213.018 26.6278 211.905ZM27.5106 212.903H28.8688V216.455H29.5071V210.357H28.8688V212.38H27.5106V212.903ZM33.478 210.873H30.6531V213.752H33.478V213.222H34.8021V214.798H35.4472V210.363H34.8021V211.389H33.478V210.873ZM31.2914 213.243V211.396H32.8464V213.243H31.2914ZM31.4747 216.312H35.5831V215.789H32.1266V214.39H31.4747V216.312ZM33.478 212.693V211.918H34.8021V212.693H33.478ZM38.4063 210.716H37.7612L36.179 216.604H36.8241L38.4063 210.716ZM43.8779 210.357H43.26V212.767H42.4723V210.479H41.8815V216.129H42.4723V213.297H43.26V216.441H43.8779V210.357ZM38.8597 214.981H39.2671C40.1533 214.974 40.7848 214.95 41.5148 214.798L41.4673 214.268C40.8154 214.394 40.2518 214.428 39.5048 214.431V211.613H41.1413V211.09H38.8597V214.981ZM47.6994 210.873H44.8745V213.752H47.6994V213.222H49.0236V214.798H49.6687V210.363H49.0236V211.389H47.6994V210.873ZM45.5129 213.243V211.396H47.0679V213.243H45.5129ZM45.6962 216.312H49.8045V215.789H46.3481V214.39H45.6962V216.312ZM47.6994 212.693V211.918H49.0236V212.693H47.6994ZM55.5733 210.798H52.341V211.321H52.9114V213.239C52.6499 213.243 52.3987 213.243 52.1712 213.243L52.2527 213.779C53.2272 213.779 54.5921 213.759 55.7635 213.575L55.7363 213.086C55.4952 213.117 55.2474 213.141 54.9893 213.161V211.321H55.5733V210.798ZM53.1423 215.327C53.1389 216.023 53.913 216.431 55.1998 216.427C56.4833 216.431 57.254 216.023 57.2574 215.327C57.254 214.618 56.4833 214.214 55.1998 214.214C53.913 214.214 53.1389 214.618 53.1423 215.327ZM53.5361 213.229V211.321H54.3714V213.198C54.0896 213.212 53.8111 213.222 53.5361 213.229ZM53.7806 215.327C53.7772 214.933 54.3001 214.713 55.1998 214.716C56.0928 214.713 56.6157 214.933 56.6191 215.327C56.6157 215.711 56.0928 215.928 55.1998 215.932C54.3001 215.928 53.7772 215.711 53.7806 215.327ZM55.6616 213.039H56.5919V214.098H57.237V210.357H56.5919V211.416H55.6616V211.932H56.5919V212.523H55.6616V213.039ZM62.8445 210.357H62.1993V216.434H62.8445V213.317H63.7883V212.781H62.8445V210.357ZM58.1114 214.811L58.4713 215.314C60.4745 214.326 61.2487 212.754 61.2554 210.995H58.417V211.531H60.5968C60.4643 212.951 59.6359 214.051 58.1114 214.811Z" fill="#9CA3AF"/>
<line x1="17.3945" y1="199.461" x2="70.7055" y2="199.461" stroke="#D1D5DB" stroke-width="0.579467"/>
</g>
<circle cx="44.0503" cy="142.963" r="11.5893" fill="#008DFF"/>
<path d="M43.8294 148.079C46.0432 148.079 47.5507 146.659 47.5507 144.67C47.5507 142.782 46.2061 141.43 44.3998 141.437C43.5374 141.43 42.7904 141.784 42.4305 142.266H42.3491L42.6207 139.78H46.9938V138.11H40.9366L40.4069 143.773H42.254C42.546 143.223 43.0621 142.945 43.8022 142.945C44.8344 142.952 45.5746 143.678 45.5678 144.724C45.5746 145.749 44.848 146.469 43.8294 146.462C42.9738 146.469 42.2744 145.939 42.2268 145.172H40.244C40.2779 146.87 41.7786 148.079 43.8294 148.079Z" fill="white"/>
<g filter="url(#filter5_dd_1239_26844)">
<rect x="89.8281" y="148.179" width="68.3771" height="89.8174" rx="2.31787" fill="white"/>
<path d="M114.181 163.605H112.877V168.83H114.181V163.605ZM106.388 167.649L107.02 168.667C108.125 168.321 108.879 167.608 109.302 166.707C109.719 167.537 110.453 168.179 111.512 168.494L112.143 167.506C110.646 167.043 109.964 165.963 109.974 164.838V163.941H108.619V164.838C108.619 165.994 107.942 167.18 106.388 167.649ZM107.967 172.762H114.181V169.258H107.967V172.762ZM109.251 171.723V170.287H112.907V171.723H109.251ZM122.745 163.595H121.431V172.864H122.745V168.443H123.957V167.364H122.745V163.595ZM115.217 170.246L115.39 171.306C116.954 171.311 119.083 171.295 121.054 170.929L120.972 169.981C120.285 170.078 119.546 170.139 118.813 170.18V169.431C119.791 169.243 120.443 168.611 120.453 167.751C120.443 166.717 119.495 166.009 118.171 166.009C116.821 166.009 115.884 166.717 115.889 167.751C115.884 168.611 116.526 169.238 117.509 169.431V170.226C116.684 170.246 115.895 170.246 115.217 170.246ZM115.401 165.642H120.901V164.624H118.813V163.646H117.509V164.624H115.401V165.642ZM117.122 167.751C117.117 167.272 117.534 167.002 118.171 166.997C118.787 167.002 119.2 167.272 119.2 167.751C119.2 168.24 118.787 168.504 118.171 168.504C117.534 168.504 117.117 168.24 117.122 167.751ZM129.455 164.522H124.647V165.561H128.161C128.151 166.381 128.131 167.374 127.917 168.718L129.2 168.82C129.444 167.277 129.444 166.136 129.455 165.265V164.522ZM124.158 169.93L124.28 170.969C125.905 170.98 128.003 170.944 129.913 170.623L129.832 169.655C128.976 169.768 128.054 169.834 127.142 169.869V167.18H125.859V169.91C125.258 169.925 124.677 169.93 124.158 169.93ZM130.27 172.864H131.584V168.403H132.847V167.323H131.584V163.595H130.27V172.864ZM140.962 163.595H139.669V165.856H138.222V166.905H139.669V169.095H140.962V163.595ZM133.089 168.077L133.761 169.105C134.861 168.729 135.605 167.97 136.012 167.028C136.414 167.858 137.122 168.53 138.141 168.861L138.783 167.842C137.341 167.364 136.679 166.274 136.654 165.194H138.497V164.155H133.465V165.194H135.33C135.299 166.355 134.606 167.567 133.089 168.077ZM134.606 171.092C134.606 172.217 135.818 172.874 137.795 172.874C139.776 172.874 140.988 172.217 140.993 171.092C140.988 169.966 139.776 169.304 137.795 169.299C135.818 169.304 134.606 169.966 134.606 171.092ZM135.9 171.092C135.9 170.557 136.567 170.292 137.795 170.297C139.027 170.292 139.694 170.557 139.699 171.092C139.694 171.621 139.027 171.886 137.795 171.886C136.567 171.886 135.9 171.621 135.9 171.092Z" fill="#374151"/>
<path d="M102.745 210.357H102.106V213.487H102.745V210.357ZM97.7263 212.944L98.0522 213.453C98.7788 213.205 99.3221 212.676 99.5971 212.01C99.8721 212.628 100.405 213.107 101.115 213.338L101.434 212.835C100.5 212.543 99.9162 211.803 99.9196 210.988V210.52H99.261V210.988C99.2576 211.83 98.677 212.628 97.7263 212.944ZM98.7517 214.288H102.113V214.811H98.772V216.38H102.955V215.864H99.3968V215.3H102.751V213.779H98.7517V214.288ZM108.719 210.363H108.074V212.007H106.912V212.53H108.074V214.818H108.719V210.363ZM103.653 213.548L103.986 214.071C104.709 213.813 105.242 213.277 105.507 212.604C105.772 213.209 106.277 213.698 106.96 213.935L107.293 213.419C106.373 213.114 105.822 212.35 105.826 211.592V211.355H107.13V210.825H103.85V211.355H105.167V211.592C105.171 212.431 104.587 213.232 103.653 213.548ZM104.767 216.312H108.882V215.789H105.412V214.417H104.767V216.312ZM114.53 210.941H110.157V211.463H113.885V211.592C113.888 212.339 113.888 213.154 113.674 214.254L114.306 214.322C114.523 213.158 114.523 212.356 114.53 211.592V210.941ZM109.586 215.619H115.134V215.083H113.049V213.114H112.418V215.083H111.542V213.114H110.897V215.083H109.586V215.619ZM121.074 213.256H115.526V213.779H116.946V214.485H116.144V214.995H119.743V216.441H120.395V214.485H119.642V213.779H121.074V213.256ZM116.124 211.667C116.121 212.401 116.966 212.845 118.297 212.842C119.625 212.845 120.467 212.401 120.47 211.667C120.467 210.93 119.625 210.489 118.297 210.492C116.966 210.489 116.121 210.93 116.124 211.667ZM116.789 211.667C116.786 211.246 117.36 210.998 118.297 211.002C119.227 210.998 119.808 211.246 119.805 211.667C119.808 212.092 119.227 212.339 118.297 212.339C117.36 212.339 116.786 212.092 116.789 211.667ZM117.591 214.485V213.779H119.01V214.485H117.591ZM122.56 215.395H121.799L121.439 217.269H122.017L122.56 215.395ZM125.83 210.947H125.083V215.864H125.83V210.947ZM126.758 215.864H127.505V214.01H128.51H128.558L129.556 215.864H130.405L129.318 213.878C129.916 213.65 130.215 213.151 130.215 212.489C130.215 211.582 129.655 210.947 128.51 210.947H126.758V215.864ZM127.505 213.365V211.586H128.436C129.159 211.589 129.461 211.935 129.461 212.489C129.461 213.042 129.159 213.361 128.436 213.365H127.505ZM135.929 212.55H136.683C136.517 211.494 135.692 210.879 134.653 210.879C133.379 210.879 132.439 211.834 132.439 213.406C132.439 214.978 133.373 215.932 134.653 215.932C135.736 215.932 136.527 215.253 136.683 214.282L135.929 214.275C135.8 214.903 135.277 215.249 134.659 215.246C133.814 215.249 133.182 214.604 133.179 213.406C133.182 212.214 133.811 211.562 134.659 211.565C135.284 211.562 135.81 211.915 135.929 212.55ZM137.191 214.825C137.187 215.545 137.734 215.945 138.433 215.945C139.045 215.945 139.384 215.636 139.527 215.361H139.554V215.864H140.26V213.412C140.257 212.343 139.401 212.129 138.814 212.129C137.941 212.129 137.371 212.57 137.306 213.181H138.026C138.101 212.91 138.359 212.713 138.786 212.713C139.279 212.713 139.537 212.954 139.533 213.372L139.537 213.667C139.367 213.674 138.814 213.704 138.569 213.718C137.904 213.765 137.187 213.983 137.191 214.825ZM137.897 214.832C137.897 214.468 138.196 214.288 138.671 214.254C138.844 214.244 139.37 214.207 139.537 214.197L139.54 214.533C139.54 214.971 139.187 215.365 138.596 215.368C138.189 215.365 137.897 215.185 137.897 214.832ZM141.067 215.864H141.793V213.589C141.793 213.093 142.139 212.754 142.547 212.754C142.944 212.754 143.219 213.015 143.219 213.419V215.864H143.939V213.514C143.939 213.073 144.207 212.754 144.672 212.754C145.053 212.754 145.365 212.961 145.365 213.46V215.864H146.092V213.392C146.088 212.547 145.616 212.129 144.951 212.129C144.418 212.129 144.017 212.384 143.844 212.781H143.803C143.647 212.37 143.304 212.129 142.812 212.129C142.326 212.129 141.963 212.37 141.807 212.781H141.766V212.176H141.067V215.864ZM146.898 217.249H147.625V215.287H147.665C147.798 215.528 148.063 215.935 148.732 215.938C149.624 215.935 150.273 215.219 150.273 214.03C150.273 212.828 149.618 212.129 148.725 212.129C148.042 212.129 147.794 212.543 147.665 212.774H147.604V212.176H146.898V217.249ZM147.611 214.017C147.611 213.249 147.944 212.743 148.569 212.747C149.217 212.743 149.54 213.29 149.54 214.017C149.54 214.757 149.207 215.317 148.569 215.321C147.951 215.317 147.611 214.791 147.611 214.017ZM126.791 224.215H121.236V224.745H126.791V224.215ZM121.895 226.327C121.895 227.034 122.686 227.431 124.006 227.427C125.317 227.431 126.101 227.034 126.105 226.327C126.101 225.621 125.317 225.22 124.006 225.22C122.686 225.22 121.895 225.621 121.895 226.327ZM121.928 223.686H126.145V223.163H122.567V222.104H126.105V221.574H121.928V223.686ZM122.546 226.327C122.543 225.94 123.076 225.723 124.006 225.716C124.923 225.723 125.46 225.94 125.46 226.327C125.46 226.718 124.923 226.928 124.006 226.932C123.076 226.928 122.543 226.718 122.546 226.327Z" fill="#9CA3AF"/>
<line x1="97.3613" y1="199.461" x2="150.672" y2="199.461" stroke="#D1D5DB" stroke-width="0.579467"/>
</g>
<circle cx="124.017" cy="142.963" r="11.5893" fill="#008DFF"/>
<path d="M123.878 148.079C126.098 148.085 127.606 146.652 127.599 144.656C127.606 142.802 126.288 141.478 124.516 141.478C123.43 141.478 122.458 141.987 122.003 142.863H121.908C121.922 140.928 122.621 139.726 123.959 139.726C124.754 139.726 125.317 140.154 125.48 140.84H127.49C127.293 139.224 125.935 137.974 123.959 137.974C121.501 137.974 119.919 139.937 119.912 143.257C119.905 146.856 121.847 148.072 123.878 148.079ZM122.112 144.71C122.126 143.753 122.886 142.965 123.891 142.958C124.889 142.965 125.616 143.726 125.616 144.71C125.616 145.702 124.876 146.469 123.864 146.462C122.859 146.469 122.126 145.675 122.112 144.71Z" fill="white"/>
<g filter="url(#filter6_dd_1239_26844)">
<rect x="169.794" y="148.179" width="68.3771" height="89.8174" rx="2.31787" fill="white"/>
<path d="M189.447 172.029C191.113 172.029 192.31 171.122 192.299 169.859C192.31 168.937 191.714 168.28 190.629 168.148V168.087C191.454 167.939 192.029 167.353 192.024 166.528C192.029 165.362 191.006 164.45 189.468 164.45C187.955 164.45 186.814 165.332 186.789 166.6H188.256C188.281 166.034 188.816 165.668 189.468 165.673C190.12 165.668 190.553 166.055 190.547 166.62C190.553 167.201 190.043 167.598 189.315 167.598H188.632V168.729H189.315C190.181 168.734 190.716 169.156 190.71 169.757C190.716 170.353 190.191 170.761 189.458 170.766C188.745 170.761 188.21 170.399 188.184 169.849H186.636C186.667 171.138 187.828 172.029 189.447 172.029ZM196.32 166.498V166.141H198.215V165.102H196.331V163.799H195.027V165.102H193.122V166.141H195.037V166.498C195.027 167.888 194.309 169.467 192.796 170.134L193.509 171.143C194.558 170.679 195.287 169.742 195.689 168.627C196.076 169.661 196.764 170.531 197.757 170.98L198.48 170.002C197.003 169.304 196.32 167.817 196.32 166.498ZM198.979 172.864H200.283V168.28H201.648V167.19H200.283V163.595H198.979V172.864ZM207.652 165.184V164.165H206.339V165.174C206.333 166.503 205.666 167.771 204.118 168.28L204.821 169.299C205.895 168.912 206.619 168.153 207.016 167.18C207.408 168.041 208.085 168.723 209.068 169.085L209.771 168.066C208.294 167.572 207.652 166.381 207.652 165.184ZM205.819 172.701H212.185V171.662H207.133V169.727H205.819V172.701ZM208.956 166.62H210.698V170.45H211.992V163.605H210.698V165.571H208.956V166.62ZM220.902 163.595H219.608V165.856H218.162V166.905H219.608V169.095H220.902V163.595ZM213.028 168.077L213.701 169.105C214.801 168.729 215.544 167.97 215.952 167.028C216.354 167.858 217.062 168.53 218.08 168.861L218.722 167.842C217.281 167.364 216.619 166.274 216.593 165.194H218.437V164.155H213.405V165.194H215.269C215.239 166.355 214.546 167.567 213.028 168.077ZM214.546 171.092C214.546 172.217 215.758 172.874 217.734 172.874C219.715 172.874 220.927 172.217 220.933 171.092C220.927 169.966 219.715 169.304 217.734 169.299C215.758 169.304 214.546 169.966 214.546 171.092ZM215.84 171.092C215.84 170.557 216.507 170.292 217.734 170.297C218.967 170.292 219.634 170.557 219.639 171.092C219.634 171.621 218.967 171.886 217.734 171.886C216.507 171.886 215.84 171.621 215.84 171.092Z" fill="#374151"/>
<path d="M184.464 215.864C185.961 215.864 186.824 214.933 186.827 213.399C186.824 211.867 185.961 210.947 184.511 210.947H182.868V215.864H184.464ZM183.615 215.212V211.599H184.464C185.537 211.599 186.087 212.241 186.087 213.399C186.087 214.56 185.537 215.208 184.423 215.212H183.615ZM189.127 215.938C189.939 215.938 190.506 215.538 190.669 214.94H189.935C189.813 215.164 189.545 215.341 189.134 215.341C188.53 215.341 188.116 214.944 188.095 214.241H190.716V213.983C190.716 212.648 189.918 212.129 189.08 212.129C188.051 212.129 187.372 212.91 187.375 214.044C187.372 215.188 188.041 215.938 189.127 215.938ZM188.099 213.698C188.129 213.178 188.506 212.723 189.087 212.726C189.64 212.723 190.003 213.137 190.003 213.698H188.099ZM191.367 215.864H192.093V213.589C192.093 213.093 192.44 212.754 192.847 212.754C193.244 212.754 193.519 213.015 193.519 213.419V215.864H194.239V213.514C194.239 213.073 194.507 212.754 194.972 212.754C195.353 212.754 195.665 212.961 195.665 213.46V215.864H196.392V213.392C196.388 212.547 195.916 212.129 195.251 212.129C194.718 212.129 194.317 212.384 194.144 212.781H194.103C193.947 212.37 193.604 212.129 193.112 212.129C192.626 212.129 192.263 212.37 192.107 212.781H192.066V212.176H191.367V215.864ZM198.76 215.938C199.799 215.938 200.478 215.178 200.478 214.037C200.478 212.889 199.799 212.129 198.76 212.129C197.714 212.129 197.032 212.889 197.035 214.037C197.032 215.178 197.714 215.938 198.76 215.938ZM197.762 214.037C197.762 213.331 198.084 212.73 198.76 212.726C199.425 212.73 199.745 213.331 199.745 214.037C199.745 214.74 199.425 215.334 198.76 215.334C198.084 215.334 197.762 214.74 197.762 214.037ZM202.5 215.938C203.172 215.935 203.437 215.528 203.573 215.287H203.627V215.864H204.333V210.947H203.607V212.774H203.573C203.44 212.543 203.193 212.129 202.507 212.129C201.621 212.129 200.959 212.828 200.959 214.03C200.959 215.219 201.61 215.935 202.5 215.938ZM201.699 214.017C201.695 213.29 202.021 212.743 202.663 212.747C203.288 212.743 203.627 213.249 203.627 214.017C203.627 214.791 203.281 215.317 202.663 215.321C202.028 215.317 201.695 214.757 201.699 214.017ZM205.038 214.825C205.035 215.545 205.581 215.945 206.281 215.945C206.892 215.945 207.231 215.636 207.374 215.361H207.401V215.864H208.107V213.412C208.104 212.343 207.248 212.129 206.661 212.129C205.788 212.129 205.218 212.57 205.153 213.181H205.873C205.948 212.91 206.206 212.713 206.634 212.713C207.126 212.713 207.384 212.954 207.381 213.372L207.384 213.667C207.214 213.674 206.661 213.704 206.417 213.718C205.751 213.765 205.035 213.983 205.038 214.825ZM205.744 214.832C205.744 214.468 206.043 214.288 206.518 214.254C206.692 214.244 207.218 214.207 207.384 214.197L207.388 214.533C207.388 214.971 207.034 215.365 206.444 215.368C206.036 215.365 205.744 215.185 205.744 214.832ZM209.226 217.249C209.834 217.246 210.207 216.937 210.421 216.353L211.942 212.176H211.162L210.231 215.035H210.19L209.26 212.176H208.486L209.837 215.911L209.749 216.156C209.576 216.621 209.389 216.635 209.165 216.638C209.063 216.635 208.921 216.631 208.839 216.624V217.229C208.931 217.242 209.077 217.246 209.226 217.249ZM219.083 210.357H218.465V212.76H217.711V210.52H217.107V216.149H217.711V213.283H218.465V216.441H219.083V210.357ZM213.854 214.703L214.228 215.151C215.969 214.17 216.499 212.73 216.503 211.131H214.112V211.66H215.874C215.773 212.9 215.206 213.935 213.854 214.703ZM222.171 213.589H221.526V214.669C220.918 214.689 220.338 214.692 219.849 214.696L219.93 215.225C221.017 215.225 222.494 215.215 223.869 214.961L223.821 214.485C223.292 214.563 222.728 214.611 222.171 214.641V213.589ZM220.012 213.297L220.317 213.786C221.047 213.579 221.584 213.114 221.849 212.506C222.124 213.083 222.667 213.524 223.393 213.732L223.692 213.229C222.782 212.985 222.205 212.37 222.171 211.654H223.536V211.131H222.171V210.404H221.526V211.131H220.175V211.654H221.519C221.485 212.401 220.918 213.035 220.012 213.297ZM224.201 216.455H224.847V210.357H224.201V216.455Z" fill="#9CA3AF"/>
<line x1="177.328" y1="199.461" x2="230.639" y2="199.461" stroke="#D1D5DB" stroke-width="0.579467"/>
</g>
<circle cx="203.983" cy="142.963" r="11.5893" fill="#008DFF"/>
<path d="M200.865 147.943H202.983L207.126 139.808V138.11H200.186V139.78H205.007V139.848L200.865 147.943Z" fill="white"/>
<g filter="url(#filter7_dd_1239_26844)">
<rect x="249.761" y="148.179" width="68.3771" height="89.8174" rx="2.31787" fill="white"/>
<path d="M274.368 164.552H271.221V163.585H269.927V164.552H266.759V165.601H274.368V164.552ZM266.352 170.644H269.927V172.874H271.221V170.644H274.837V169.584H266.352V170.644ZM267.381 167.547C267.376 168.571 268.573 169.131 270.579 169.136C272.571 169.131 273.773 168.571 273.778 167.547C273.773 166.518 272.571 165.958 270.579 165.958C268.573 165.958 267.376 166.518 267.381 167.547ZM268.725 167.547C268.725 167.124 269.337 166.921 270.579 166.915C271.807 166.921 272.423 167.124 272.423 167.547C272.423 167.97 271.807 168.168 270.579 168.168C269.337 168.168 268.725 167.97 268.725 167.547ZM283.717 168.107H280.121V166.875H278.838V168.107H275.262V169.146H283.717V168.107ZM275.7 166.416L276.159 167.425C277.722 167.196 278.873 166.528 279.464 165.607C280.05 166.533 281.201 167.19 282.769 167.425L283.268 166.416C281.175 166.157 280.136 165.138 280.141 164.053V163.748H278.817V164.053C278.812 165.097 277.748 166.157 275.7 166.416ZM276.199 170.806H281.394V172.864H282.688V169.798H276.199V170.806ZM291.985 163.605H290.692V164.899H288.568C288.12 164.425 287.478 164.14 286.76 164.135C285.354 164.14 284.285 165.153 284.295 166.549C284.285 167.924 285.354 168.942 286.76 168.942C287.483 168.942 288.125 168.652 288.573 168.179H290.692V170.379H291.985V163.605ZM285.527 166.549C285.522 165.764 286.037 165.296 286.76 165.296C287.442 165.296 287.967 165.764 287.972 166.549C287.967 167.323 287.442 167.791 286.76 167.791C286.037 167.791 285.522 167.323 285.527 166.549ZM285.833 172.701H292.209V171.662H287.137V169.696H285.833V172.701ZM289.128 165.938H290.692V167.14H289.133C289.179 166.951 289.204 166.752 289.204 166.549C289.204 166.335 289.179 166.131 289.128 165.938ZM301.12 163.595H299.897V172.864H301.12V163.595ZM292.94 170.022L293.704 170.939C295.436 169.91 296.383 168.622 296.816 167.089H297.952V168.352H296.638V169.401H297.952V172.457H299.184V163.799H297.952V166.039H297.03C297.086 165.607 297.116 165.158 297.116 164.695H293.48V165.744H295.823C295.645 167.562 294.82 168.912 292.94 170.022ZM278.858 180.121V179.551H280.793V178.491H275.558V179.551H277.524V180.121C277.524 181.69 276.729 183.406 275.191 184.093L275.935 185.122C277.03 184.618 277.799 183.599 278.216 182.382C278.634 183.503 279.388 184.425 280.478 184.888L281.18 183.869C279.627 183.223 278.853 181.618 278.858 180.121ZM281.71 186.864H283.024V177.595H281.71V186.864ZM292.026 177.605H290.722V182.983H288.95V183.869H290.722V184.603H292.026V177.605ZM284.142 181.71L284.295 182.739C284.998 182.739 285.787 182.734 286.617 182.703V183.93H285.324V186.701H292.23V185.662H286.617V184.389H287.921V182.627C288.67 182.571 289.429 182.484 290.162 182.362L290.091 181.435C288.13 181.674 285.838 181.7 284.142 181.71ZM284.824 179.581C284.824 180.574 285.777 181.216 287.157 181.211C288.502 181.216 289.464 180.574 289.469 179.581C289.464 178.593 288.502 177.916 287.157 177.921C285.777 177.916 284.824 178.593 284.824 179.581ZM286.057 179.581C286.052 179.123 286.495 178.868 287.157 178.868C287.778 178.868 288.227 179.123 288.237 179.581C288.227 180.029 287.778 180.279 287.157 180.274C286.495 180.279 286.052 180.029 286.057 179.581Z" fill="#374151"/>
<path d="M269.682 210.363H269.036V211.28H267.519C267.233 210.941 266.795 210.733 266.293 210.73C265.376 210.737 264.694 211.379 264.697 212.278C264.694 213.171 265.376 213.813 266.293 213.813C266.799 213.813 267.24 213.606 267.525 213.263H269.036V214.845H269.682V210.363ZM265.315 212.278C265.312 211.705 265.723 211.311 266.293 211.307C266.84 211.311 267.257 211.705 267.257 212.278C267.257 212.852 266.84 213.246 266.293 213.243C265.723 213.246 265.312 212.852 265.315 212.278ZM265.729 216.312H269.844V215.789H266.374V214.377H265.729V216.312ZM267.804 211.803H269.036V212.74H267.807C267.851 212.597 267.875 212.441 267.875 212.278C267.875 212.109 267.851 211.952 267.804 211.803ZM275.778 210.357H275.167V216.441H275.778V210.357ZM270.515 214.682L270.895 215.144C272.043 214.462 272.692 213.572 272.987 212.55H273.924V213.541H272.885V214.071H273.924V216.142H274.535V210.513H273.924V212.02H273.106C273.153 211.725 273.177 211.423 273.177 211.11H270.814V211.64H272.539C272.427 212.893 271.809 213.915 270.515 214.682ZM278.601 211.905V210.866H277.956V211.905C277.953 213.018 277.321 214.186 276.387 214.635L276.788 215.158C277.481 214.798 278.014 214.068 278.285 213.205C278.554 214.017 279.066 214.696 279.728 215.042L280.129 214.526C279.222 214.085 278.594 212.981 278.601 211.905ZM280.584 216.441H281.229V213.331H282.207V212.781H281.229V210.357H280.584V216.441ZM284.113 210.635C283.183 210.628 282.514 211.219 282.518 212.047C282.514 212.886 283.183 213.473 284.113 213.473C284.922 213.473 285.546 213.005 285.672 212.305H286.857V213.623H287.502V210.357H286.857V211.776H285.669C285.536 211.093 284.915 210.628 284.113 210.635ZM283.136 212.047C283.132 211.525 283.54 211.168 284.113 211.171C284.677 211.168 285.078 211.525 285.078 212.047C285.078 212.567 284.677 212.93 284.113 212.93C283.54 212.93 283.132 212.567 283.136 212.047ZM283.536 216.366H287.502V213.915H286.857V214.621H284.175V213.915H283.536V216.366ZM284.175 215.837V215.13H286.857V215.837H284.175ZM295.546 214.024H289.998V214.553H292.449V216.448H293.087V214.553H295.546V214.024ZM290.324 213.086L290.561 213.602C291.543 213.467 292.378 213.015 292.772 212.387C293.166 213.008 293.997 213.467 294.975 213.602L295.206 213.086C294.048 212.94 293.128 212.289 293.094 211.613H295.016V211.09H293.087V210.357H292.449V211.09H290.521V211.613H292.449C292.408 212.295 291.478 212.94 290.324 213.086ZM298.07 211.803V211.66H299.394V211.137H298.077V210.397H297.432V211.137H296.108V211.66H297.432V211.803C297.432 212.621 296.868 213.372 295.938 213.67L296.25 214.173C296.97 213.935 297.496 213.436 297.761 212.801C298.04 213.395 298.566 213.857 299.265 214.078L299.578 213.569C298.644 213.277 298.07 212.57 298.07 211.803ZM297.058 216.312H301.173V215.789H297.703V214.492H297.058V216.312ZM299.184 212.726H300.365V214.893H301.01V210.363H300.365V212.204H299.184V212.726ZM302.971 215.395H302.211L301.851 217.269H302.428L302.971 215.395ZM280.969 225.56C279.615 225.56 278.858 225.889 278.858 226.504C278.858 227.115 279.615 227.431 280.969 227.427C282.307 227.431 283.064 227.115 283.068 226.504C283.064 225.889 282.307 225.56 280.969 225.56ZM278.199 225.227H283.747V224.718H281.295V224.297C282.375 224.249 282.969 223.954 282.966 223.441C282.969 222.861 282.253 222.565 280.969 222.565C279.693 222.565 278.97 222.861 278.973 223.441C278.97 223.957 279.574 224.249 280.65 224.297V224.718H278.199V225.227ZM278.484 222.341H283.434V221.845H281.295V221.282H280.65V221.845H278.484V222.341ZM279.516 226.504C279.516 226.198 280.022 226.039 280.969 226.035C281.91 226.039 282.416 226.198 282.416 226.504C282.416 226.803 281.91 226.955 280.969 226.952C280.022 226.955 279.516 226.803 279.516 226.504ZM279.659 223.441C279.655 223.153 280.121 223.01 280.969 223.007C281.825 223.01 282.28 223.153 282.28 223.441C282.28 223.706 281.825 223.852 280.969 223.856C280.121 223.852 279.655 223.706 279.659 223.441ZM289.707 226.151H287.229V224.901H289.049V221.771H288.41V222.817H285.422V221.771H284.777V224.901H286.59V226.151H284.139V226.687H289.707V226.151ZM285.422 224.378V223.339H288.41V224.378H285.422Z" fill="#9CA3AF"/>
<line x1="257.294" y1="199.461" x2="310.605" y2="199.461" stroke="#D1D5DB" stroke-width="0.579467"/>
</g>
<circle cx="283.949" cy="142.963" r="11.5893" fill="#008DFF"/>
<path d="M283.695 148.079C285.936 148.079 287.552 146.897 287.552 145.294C287.552 144.058 286.588 143.053 285.393 142.863V142.795C286.425 142.592 287.178 141.702 287.185 140.622C287.178 139.094 285.705 137.974 283.695 137.974C281.685 137.974 280.211 139.094 280.218 140.622C280.211 141.702 280.945 142.592 282.011 142.795V142.863C280.788 143.053 279.838 144.058 279.838 145.294C279.838 146.897 281.447 148.079 283.695 148.079ZM281.97 145.091C281.963 144.235 282.697 143.617 283.695 143.61C284.693 143.617 285.426 144.242 285.42 145.091C285.426 145.933 284.734 146.523 283.695 146.517C282.656 146.523 281.963 145.933 281.97 145.091ZM282.215 140.826C282.208 140.059 282.812 139.522 283.695 139.522C284.571 139.522 285.182 140.059 285.189 140.826C285.182 141.614 284.557 142.164 283.695 142.171C282.826 142.164 282.208 141.614 282.215 140.826Z" fill="white"/>
<defs>
<filter id="filter0_dd_1239_26844" x="5.22608" y="26.4905" width="77.6484" height="99.0889" filterUnits="userSpaceOnUse" color-interpolation-filters="sRGB">
<feFlood flood-opacity="0" result="BackgroundImageFix"/>
<feColorMatrix in="SourceAlpha" type="matrix" values="0 0 0 0 0 0 0 0 0 0 0 0 0 0 0 0 0 0 127 0" result="hardAlpha"/>
<feOffset dy="2.31787"/>
<feGaussianBlur stdDeviation="2.31787"/>
<feColorMatrix type="matrix" values="0 0 0 0 0.458824 0 0 0 0 0.458824 0 0 0 0 0.458824 0 0 0 0.16 0"/>
<feBlend mode="normal" in2="BackgroundImageFix" result="effect1_dropShadow_1239_26844"/>
<feColorMatrix in="SourceAlpha" type="matrix" values="0 0 0 0 0 0 0 0 0 0 0 0 0 0 0 0 0 0 127 0" result="hardAlpha"/>
<feOffset dy="0.579467"/>
<feGaussianBlur stdDeviation="0.579467"/>
<feColorMatrix type="matrix" values="0 0 0 0 0.258824 0 0 0 0 0.258824 0 0 0 0 0.258824 0 0 0 0.04 0"/>
<feBlend mode="normal" in2="effect1_dropShadow_1239_26844" result="effect2_dropShadow_1239_26844"/>
<feBlend mode="normal" in="SourceGraphic" in2="effect2_dropShadow_1239_26844" result="shape"/>
</filter>
<filter id="filter1_dd_1239_26844" x="85.1924" y="26.4905" width="77.6484" height="99.0889" filterUnits="userSpaceOnUse" color-interpolation-filters="sRGB">
<feFlood flood-opacity="0" result="BackgroundImageFix"/>
<feColorMatrix in="SourceAlpha" type="matrix" values="0 0 0 0 0 0 0 0 0 0 0 0 0 0 0 0 0 0 127 0" result="hardAlpha"/>
<feOffset dy="2.31787"/>
<feGaussianBlur stdDeviation="2.31787"/>
<feColorMatrix type="matrix" values="0 0 0 0 0.458824 0 0 0 0 0.458824 0 0 0 0 0.458824 0 0 0 0.16 0"/>
<feBlend mode="normal" in2="BackgroundImageFix" result="effect1_dropShadow_1239_26844"/>
<feColorMatrix in="SourceAlpha" type="matrix" values="0 0 0 0 0 0 0 0 0 0 0 0 0 0 0 0 0 0 127 0" result="hardAlpha"/>
<feOffset dy="0.579467"/>
<feGaussianBlur stdDeviation="0.579467"/>
<feColorMatrix type="matrix" values="0 0 0 0 0.258824 0 0 0 0 0.258824 0 0 0 0 0.258824 0 0 0 0.04 0"/>
<feBlend mode="normal" in2="effect1_dropShadow_1239_26844" result="effect2_dropShadow_1239_26844"/>
<feBlend mode="normal" in="SourceGraphic" in2="effect2_dropShadow_1239_26844" result="shape"/>
</filter>
<filter id="filter2_dd_1239_26844" x="165.159" y="26.4905" width="77.6484" height="99.0889" filterUnits="userSpaceOnUse" color-interpolation-filters="sRGB">
<feFlood flood-opacity="0" result="BackgroundImageFix"/>
<feColorMatrix in="SourceAlpha" type="matrix" values="0 0 0 0 0 0 0 0 0 0 0 0 0 0 0 0 0 0 127 0" result="hardAlpha"/>
<feOffset dy="2.31787"/>
<feGaussianBlur stdDeviation="2.31787"/>
<feColorMatrix type="matrix" values="0 0 0 0 0.458824 0 0 0 0 0.458824 0 0 0 0 0.458824 0 0 0 0.16 0"/>
<feBlend mode="normal" in2="BackgroundImageFix" result="effect1_dropShadow_1239_26844"/>
<feColorMatrix in="SourceAlpha" type="matrix" values="0 0 0 0 0 0 0 0 0 0 0 0 0 0 0 0 0 0 127 0" result="hardAlpha"/>
<feOffset dy="0.579467"/>
<feGaussianBlur stdDeviation="0.579467"/>
<feColorMatrix type="matrix" values="0 0 0 0 0.258824 0 0 0 0 0.258824 0 0 0 0 0.258824 0 0 0 0.04 0"/>
<feBlend mode="normal" in2="effect1_dropShadow_1239_26844" result="effect2_dropShadow_1239_26844"/>
<feBlend mode="normal" in="SourceGraphic" in2="effect2_dropShadow_1239_26844" result="shape"/>
</filter>
<filter id="filter3_dd_1239_26844" x="245.125" y="26.4905" width="77.6484" height="99.0889" filterUnits="userSpaceOnUse" color-interpolation-filters="sRGB">
<feFlood flood-opacity="0" result="BackgroundImageFix"/>
<feColorMatrix in="SourceAlpha" type="matrix" values="0 0 0 0 0 0 0 0 0 0 0 0 0 0 0 0 0 0 127 0" result="hardAlpha"/>
<feOffset dy="2.31787"/>
<feGaussianBlur stdDeviation="2.31787"/>
<feColorMatrix type="matrix" values="0 0 0 0 0.458824 0 0 0 0 0.458824 0 0 0 0 0.458824 0 0 0 0.16 0"/>
<feBlend mode="normal" in2="BackgroundImageFix" result="effect1_dropShadow_1239_26844"/>
<feColorMatrix in="SourceAlpha" type="matrix" values="0 0 0 0 0 0 0 0 0 0 0 0 0 0 0 0 0 0 127 0" result="hardAlpha"/>
<feOffset dy="0.579467"/>
<feGaussianBlur stdDeviation="0.579467"/>
<feColorMatrix type="matrix" values="0 0 0 0 0.258824 0 0 0 0 0.258824 0 0 0 0 0.258824 0 0 0 0.04 0"/>
<feBlend mode="normal" in2="effect1_dropShadow_1239_26844" result="effect2_dropShadow_1239_26844"/>
<feBlend mode="normal" in="SourceGraphic" in2="effect2_dropShadow_1239_26844" result="shape"/>
</filter>
<filter id="filter4_dd_1239_26844" x="5.22608" y="145.861" width="77.6484" height="99.0889" filterUnits="userSpaceOnUse" color-interpolation-filters="sRGB">
<feFlood flood-opacity="0" result="BackgroundImageFix"/>
<feColorMatrix in="SourceAlpha" type="matrix" values="0 0 0 0 0 0 0 0 0 0 0 0 0 0 0 0 0 0 127 0" result="hardAlpha"/>
<feOffset dy="2.31787"/>
<feGaussianBlur stdDeviation="2.31787"/>
<feColorMatrix type="matrix" values="0 0 0 0 0.458824 0 0 0 0 0.458824 0 0 0 0 0.458824 0 0 0 0.16 0"/>
<feBlend mode="normal" in2="BackgroundImageFix" result="effect1_dropShadow_1239_26844"/>
<feColorMatrix in="SourceAlpha" type="matrix" values="0 0 0 0 0 0 0 0 0 0 0 0 0 0 0 0 0 0 127 0" result="hardAlpha"/>
<feOffset dy="0.579467"/>
<feGaussianBlur stdDeviation="0.579467"/>
<feColorMatrix type="matrix" values="0 0 0 0 0.258824 0 0 0 0 0.258824 0 0 0 0 0.258824 0 0 0 0.04 0"/>
<feBlend mode="normal" in2="effect1_dropShadow_1239_26844" result="effect2_dropShadow_1239_26844"/>
<feBlend mode="normal" in="SourceGraphic" in2="effect2_dropShadow_1239_26844" result="shape"/>
</filter>
<filter id="filter5_dd_1239_26844" x="85.1924" y="145.861" width="77.6484" height="99.0889" filterUnits="userSpaceOnUse" color-interpolation-filters="sRGB">
<feFlood flood-opacity="0" result="BackgroundImageFix"/>
<feColorMatrix in="SourceAlpha" type="matrix" values="0 0 0 0 0 0 0 0 0 0 0 0 0 0 0 0 0 0 127 0" result="hardAlpha"/>
<feOffset dy="2.31787"/>
<feGaussianBlur stdDeviation="2.31787"/>
<feColorMatrix type="matrix" values="0 0 0 0 0.458824 0 0 0 0 0.458824 0 0 0 0 0.458824 0 0 0 0.16 0"/>
<feBlend mode="normal" in2="BackgroundImageFix" result="effect1_dropShadow_1239_26844"/>
<feColorMatrix in="SourceAlpha" type="matrix" values="0 0 0 0 0 0 0 0 0 0 0 0 0 0 0 0 0 0 127 0" result="hardAlpha"/>
<feOffset dy="0.579467"/>
<feGaussianBlur stdDeviation="0.579467"/>
<feColorMatrix type="matrix" values="0 0 0 0 0.258824 0 0 0 0 0.258824 0 0 0 0 0.258824 0 0 0 0.04 0"/>
<feBlend mode="normal" in2="effect1_dropShadow_1239_26844" result="effect2_dropShadow_1239_26844"/>
<feBlend mode="normal" in="SourceGraphic" in2="effect2_dropShadow_1239_26844" result="shape"/>
</filter>
<filter id="filter6_dd_1239_26844" x="165.159" y="145.861" width="77.6484" height="99.0889" filterUnits="userSpaceOnUse" color-interpolation-filters="sRGB">
<feFlood flood-opacity="0" result="BackgroundImageFix"/>
<feColorMatrix in="SourceAlpha" type="matrix" values="0 0 0 0 0 0 0 0 0 0 0 0 0 0 0 0 0 0 127 0" result="hardAlpha"/>
<feOffset dy="2.31787"/>
<feGaussianBlur stdDeviation="2.31787"/>
<feColorMatrix type="matrix" values="0 0 0 0 0.458824 0 0 0 0 0.458824 0 0 0 0 0.458824 0 0 0 0.16 0"/>
<feBlend mode="normal" in2="BackgroundImageFix" result="effect1_dropShadow_1239_26844"/>
<feColorMatrix in="SourceAlpha" type="matrix" values="0 0 0 0 0 0 0 0 0 0 0 0 0 0 0 0 0 0 127 0" result="hardAlpha"/>
<feOffset dy="0.579467"/>
<feGaussianBlur stdDeviation="0.579467"/>
<feColorMatrix type="matrix" values="0 0 0 0 0.258824 0 0 0 0 0.258824 0 0 0 0 0.258824 0 0 0 0.04 0"/>
<feBlend mode="normal" in2="effect1_dropShadow_1239_26844" result="effect2_dropShadow_1239_26844"/>
<feBlend mode="normal" in="SourceGraphic" in2="effect2_dropShadow_1239_26844" result="shape"/>
</filter>
<filter id="filter7_dd_1239_26844" x="245.125" y="145.861" width="77.6484" height="99.0889" filterUnits="userSpaceOnUse" color-interpolation-filters="sRGB">
<feFlood flood-opacity="0" result="BackgroundImageFix"/>
<feColorMatrix in="SourceAlpha" type="matrix" values="0 0 0 0 0 0 0 0 0 0 0 0 0 0 0 0 0 0 127 0" result="hardAlpha"/>
<feOffset dy="2.31787"/>
<feGaussianBlur stdDeviation="2.31787"/>
<feColorMatrix type="matrix" values="0 0 0 0 0.458824 0 0 0 0 0.458824 0 0 0 0 0.458824 0 0 0 0.16 0"/>
<feBlend mode="normal" in2="BackgroundImageFix" result="effect1_dropShadow_1239_26844"/>
<feColorMatrix in="SourceAlpha" type="matrix" values="0 0 0 0 0 0 0 0 0 0 0 0 0 0 0 0 0 0 127 0" result="hardAlpha"/>
<feOffset dy="0.579467"/>
<feGaussianBlur stdDeviation="0.579467"/>
<feColorMatrix type="matrix" values="0 0 0 0 0.258824 0 0 0 0 0.258824 0 0 0 0 0.258824 0 0 0 0.04 0"/>
<feBlend mode="normal" in2="effect1_dropShadow_1239_26844" result="effect2_dropShadow_1239_26844"/>
<feBlend mode="normal" in="SourceGraphic" in2="effect2_dropShadow_1239_26844" result="shape"/>
</filter>
</defs>
</svg>
