<svg width="1100" height="320" viewBox="0 0 1100 320" fill="none" xmlns="http://www.w3.org/2000/svg">
<g filter="url(#filter0_dd_1239_26696)">
<rect x="8" y="97" width="118" height="155" rx="4" fill="white"/>
<path d="M38.6171 134.908H32.3769V131.639H36.9824V123.799H25.5214V131.639H30.1445V134.908H23.9746V136.754H38.6171V134.908ZM27.7363 129.881V125.592H34.7675V129.881H27.7363ZM48.8082 123.5H40.0192V125.293H43.2975C43.192 127.104 41.9528 128.888 39.4039 129.617L40.5289 131.375C42.4274 130.795 43.7457 129.591 44.4664 128.079C45.1959 129.468 46.4704 130.566 48.2985 131.094L49.4235 129.354C46.9274 128.668 45.7057 126.989 45.6002 125.293H48.8082V123.5ZM42.0407 138.441H52.7457V131.973H50.5133V133.467H44.2555V131.973H42.0407V138.441ZM44.2555 136.648V135.207H50.5133V136.648H44.2555ZM50.4957 131.305H52.7457V122.621H50.4957V131.305ZM65.9033 132.588C62.4316 132.588 60.1992 133.695 60.208 135.611C60.1992 137.501 62.4316 138.626 65.9033 138.617C69.4014 138.626 71.5986 137.501 71.6162 135.611C71.5986 133.695 69.4014 132.588 65.9033 132.588ZM58.7314 131.568H73.251V129.758H66.3955V126.963H64.1807V129.758H58.7314V131.568ZM60.3662 125.1H69.2959C69.2783 126.189 69.2344 127.271 68.874 128.721L71.0713 128.932C71.5371 127.288 71.5371 125.917 71.5283 124.643V123.342H60.3662V125.1ZM62.4404 135.611C62.4316 134.724 63.6973 134.249 65.9033 134.258C68.1094 134.249 69.3838 134.724 69.3838 135.611C69.3838 136.473 68.1094 136.912 65.9033 136.912C63.6973 136.912 62.4316 136.473 62.4404 135.611ZM87.2565 124.01H75.5846V125.785H85.0065C84.9977 127.666 84.9714 129.916 84.3561 132.939L86.6061 133.168C87.2477 129.775 87.2477 127.525 87.2565 125.521V124.01ZM74.0729 136.666H88.6628V134.838H81.5261V129.336H79.2936V134.838H74.0729V136.666ZM102.049 123.588H94.2266V130.32H102.049V123.588ZM95.0704 136.895L95.8438 138.582C98.5157 138.327 100.423 137.387 101.407 136.121C102.383 137.369 104.272 138.336 106.936 138.582L107.691 136.895C104.519 136.587 102.84 135.33 102.594 134.24H107.076V132.57H102.523V131.252H100.273V132.57H95.7207V134.24H100.203C99.9571 135.365 98.2696 136.631 95.0704 136.895ZM96.4414 128.562V125.328H99.8164V128.562H96.4414ZM104.563 131.691H106.795V122.621H104.563V131.691ZM64.4904 145.621H62.258V149.207H59.7267V151.035H62.258V154.375H64.4904V145.621ZM50.9201 152.898L52.0627 154.656C53.9523 154.041 55.2267 152.758 55.9386 151.158C56.633 152.591 57.8546 153.742 59.6213 154.322L60.7287 152.6C58.3117 151.8 57.1603 149.954 57.0636 148.17H60.2365V146.342H51.5529V148.17H54.7609C54.6466 150.121 53.4425 152.055 50.9201 152.898ZM53.8205 161.441H64.4904V154.99H62.258V156.502H56.0353V154.99H53.8205V161.441ZM56.0353 159.648V158.225H62.258V159.648H56.0353ZM74.8748 146.869V146.096H72.5194V146.869C72.5106 148.759 70.5858 150.842 66.9471 151.299L67.8436 153.109C70.6034 152.705 72.6424 151.404 73.6971 149.682C74.743 151.413 76.7909 152.705 79.5858 153.109L80.4647 151.299C76.7996 150.842 74.8661 148.759 74.8748 146.869ZM66.3846 156.15H72.537V161.617H74.7518V156.15H80.9745V154.322H66.3846V156.15Z" fill="#374151"/>
<path d="M40.6362 204.496H39.5698V208.656H38.2105V204.707H37.1909V214.457H38.2105V209.57H39.5698V214.996H40.6362V204.496ZM31.9761 212.477H32.6792C34.2085 212.465 35.2984 212.424 36.5581 212.16L36.4761 211.246C35.3511 211.463 34.3784 211.521 33.0894 211.527V206.664H35.9136V205.762H31.9761V212.477ZM45.4967 206.172V205.047H44.3952V206.078C44.3834 207.648 43.4342 209.049 41.7936 209.629L42.3912 210.52C43.6159 210.068 44.5065 209.143 44.9635 207.965C45.4205 209.002 46.2819 209.822 47.4303 210.227L48.028 209.348C46.4635 208.832 45.4909 207.549 45.4967 206.172ZM43.2116 213.027C43.2116 214.27 44.5534 214.979 46.7389 214.973C48.8952 214.979 50.2194 214.27 50.2194 213.027C50.2194 211.797 48.8952 211.076 46.7389 211.082C44.5534 211.076 43.2116 211.797 43.2116 213.027ZM44.3248 213.027C44.319 212.359 45.2213 211.961 46.7389 211.961C48.2448 211.961 49.1354 212.359 49.1295 213.027C49.1354 213.719 48.2448 214.094 46.7389 214.105C45.2213 214.094 44.319 213.719 44.3248 213.027ZM49.0123 210.836H50.1256V208.07H51.6491V207.133H50.1256V204.496H49.0123V210.836ZM53.322 214.082C53.7732 214.076 54.1482 213.707 54.1541 213.25C54.1482 212.793 53.7732 212.418 53.322 212.418C52.865 212.418 52.4841 212.793 52.49 213.25C52.4841 213.707 52.865 214.076 53.322 214.082ZM52.5017 208.621C52.4959 209.078 52.8767 209.447 53.3337 209.453C53.7849 209.447 54.1599 209.078 54.1658 208.621C54.1599 208.164 53.7849 207.789 53.3337 207.789C52.8767 207.789 52.4959 208.164 52.5017 208.621ZM67.0156 204.496H65.9492V214.996H67.0156V204.496ZM58.0977 209.031C58.0977 211.311 58.9883 212.74 60.3594 212.734C61.2559 212.74 61.9473 212.137 62.3281 211.094H63.8516V214.48H64.9062V204.695H63.8516V206.969H62.3223C61.9473 205.932 61.2559 205.334 60.3594 205.34C58.9883 205.334 58.0977 206.758 58.0977 209.031ZM59.1172 209.031C59.1113 207.355 59.5801 206.377 60.3594 206.383C61.1328 206.377 61.625 207.355 61.625 209.031C61.625 210.701 61.1328 211.686 60.3594 211.68C59.5801 211.686 59.1113 210.701 59.1172 209.031ZM62.5566 207.871H63.8516V210.18H62.5566C62.6152 209.828 62.6445 209.441 62.6445 209.031C62.6445 208.615 62.6152 208.229 62.5566 207.871ZM76.9269 204.496H75.8136V215.02H76.9269V204.496ZM68.8175 212.5H73.8566V205.375H72.755V208.07H69.9308V205.375H68.8175V212.5ZM69.9308 211.586V208.949H72.755V211.586H69.9308ZM79.678 211.117C80.1291 211.111 80.5041 210.742 80.51 210.285C80.5041 209.828 80.1291 209.453 79.678 209.453C79.2209 209.453 78.8401 209.828 78.8459 210.285C78.8401 210.742 79.2209 211.111 79.678 211.117ZM91.1361 212.793H86.8705V210.508H85.7689V212.793H81.5267V213.707H91.1361V212.793ZM81.9955 210.004L82.4173 210.871C84.1752 210.596 85.6341 209.764 86.3138 208.539C86.9994 209.764 88.4642 210.596 90.222 210.871L90.6439 210.004C88.4877 209.688 86.9349 208.469 86.8822 206.992H90.2455V206.09H86.8705V204.684H85.7689V206.09H82.3939V206.992H85.7572C85.7045 208.469 84.1517 209.688 81.9955 210.004ZM100.508 204.496H99.3833V214.996H100.508V204.496ZM91.8833 212.184L92.4692 213.086C96.0727 211.357 97.3794 208.697 97.3794 205.621H92.3872V206.512H96.2544C96.0376 208.961 94.6723 210.854 91.8833 212.184ZM55.1298 225.746V225.617H57.4149V224.715H55.1415V223.449H54.0282V224.715H51.743V225.617H54.0282V225.746C54.0282 227.105 53.0438 228.342 51.4384 228.816L51.9891 229.695C53.2255 229.291 54.1395 228.453 54.6024 227.375C55.0653 228.33 55.9618 229.074 57.1688 229.426L57.6845 228.547C56.079 228.096 55.1298 226.965 55.1298 225.746ZM52.786 232.062C52.786 233.27 54.1161 233.967 56.3134 233.973C58.4872 233.967 59.7938 233.27 59.7938 232.062C59.7938 230.832 58.4872 230.135 56.3134 230.141C54.1161 230.135 52.786 230.832 52.786 232.062ZM53.8993 232.062C53.8934 231.371 54.7841 231.008 56.3134 231.008C57.8192 231.008 58.7098 231.371 58.704 232.062C58.7098 232.736 57.8192 233.111 56.3134 233.117C54.7841 233.111 53.8934 232.736 53.8993 232.062ZM58.5868 229.895H59.7001V227.059H61.2235V226.145H59.7001V223.496H58.5868V229.895ZM64.6074 223.977C63.002 223.965 61.8477 224.984 61.8535 226.414C61.8477 227.861 63.002 228.875 64.6074 228.875C66.002 228.875 67.0801 228.066 67.2969 226.859H69.3418V229.133H70.4551V223.496H69.3418V225.945H67.291C67.0625 224.768 65.9902 223.965 64.6074 223.977ZM62.9199 226.414C62.9141 225.512 63.6172 224.896 64.6074 224.902C65.5801 224.896 66.2715 225.512 66.2715 226.414C66.2715 227.311 65.5801 227.938 64.6074 227.938C63.6172 227.938 62.9141 227.311 62.9199 226.414ZM63.6113 233.867H70.4551V229.637H69.3418V230.855H64.7129V229.637H63.6113V233.867ZM64.7129 232.953V231.734H69.3418V232.953H64.7129ZM75.6085 226.59V225.477H77.8937V224.551H72.1398V225.477H74.507V226.59C74.5011 228.365 73.3468 230.346 71.753 231.113L72.4093 231.992C73.6046 231.395 74.589 230.1 75.0695 228.605C75.5441 229.977 76.4816 231.16 77.6593 231.723L78.2921 230.855C76.6984 230.1 75.6027 228.248 75.6085 226.59ZM79.0187 233.996H80.132V228.594H81.8195V227.656H80.132V223.496H79.0187V233.996Z" fill="#9CA3AF"/>
<line x1="21" y1="185.5" x2="113" y2="185.5" stroke="#D1D5DB"/>
</g>
<circle cx="67" cy="88" r="20" fill="#008DFF"/>
<path d="M70.0234 80.0312H66.6953L62.5 82.7031V85.8203L66.3906 83.3828H66.4844V97H70.0234V80.0312Z" fill="white"/>
<g filter="url(#filter1_dd_1239_26696)">
<rect x="146" y="97" width="118" height="155" rx="4" fill="white"/>
<path d="M181.718 124.273H179.222L176.076 126.277V128.615L178.994 126.787H179.064V137H181.718V124.273ZM189.747 127.631V127.016H193.017V125.223H189.765V122.973H187.515V125.223H184.228V127.016H187.533V127.631C187.515 130.03 186.276 132.755 183.665 133.906L184.896 135.646C186.706 134.847 187.963 133.229 188.658 131.305C189.326 133.089 190.512 134.592 192.226 135.365L193.474 133.678C190.925 132.474 189.747 129.907 189.747 127.631ZM194.335 138.617H196.585V130.707H198.941V128.826H196.585V122.621H194.335V138.617ZM209.303 125.363V123.605H207.036V125.346C207.027 127.64 205.876 129.828 203.204 130.707L204.417 132.465C206.271 131.797 207.519 130.487 208.205 128.809C208.882 130.294 210.05 131.472 211.747 132.096L212.96 130.338C210.411 129.485 209.303 127.429 209.303 125.363ZM206.139 138.336H217.126V136.543H208.407V133.203H206.139V138.336ZM211.553 127.842H214.559V134.451H216.792V122.639H214.559V126.031H211.553V127.842ZM232.168 122.621H229.936V126.523H227.44V128.334H229.936V132.113H232.168V122.621ZM218.58 130.355L219.741 132.131C221.639 131.48 222.922 130.171 223.625 128.545C224.32 129.978 225.541 131.138 227.299 131.709L228.407 129.951C225.919 129.125 224.777 127.244 224.733 125.381H227.914V123.588H219.231V125.381H222.448C222.395 127.385 221.2 129.477 218.58 130.355ZM221.2 135.559C221.2 137.501 223.291 138.635 226.702 138.635C230.12 138.635 232.212 137.501 232.221 135.559C232.212 133.616 230.12 132.474 226.702 132.465C223.291 132.474 221.2 133.616 221.2 135.559ZM223.432 135.559C223.432 134.636 224.583 134.179 226.702 134.188C228.828 134.179 229.98 134.636 229.989 135.559C229.98 136.473 228.828 136.93 226.702 136.93C224.583 136.93 223.432 136.473 223.432 135.559Z" fill="#374151"/>
<path d="M165.997 214.117C167.755 214.117 169.061 213.08 169.056 211.668C169.061 210.596 168.388 209.816 167.228 209.652V209.594C168.142 209.365 168.739 208.674 168.728 207.707C168.739 206.453 167.69 205.398 166.02 205.398C164.438 205.398 163.161 206.336 163.126 207.719H164.368C164.397 206.951 165.159 206.477 166.009 206.477C166.905 206.477 167.485 207.004 167.485 207.777C167.485 208.592 166.811 209.131 165.845 209.125H165.118V210.18H165.845C167.058 210.186 167.755 210.783 167.755 211.621C167.755 212.447 167.011 213.004 165.985 213.004C165.036 213.004 164.298 212.529 164.251 211.785H162.938C162.991 213.174 164.239 214.117 165.997 214.117ZM173.307 214.117C175.27 214.117 176.418 212.535 176.424 209.758C176.418 206.998 175.252 205.398 173.307 205.398C171.356 205.398 170.19 206.998 170.19 209.758C170.19 212.535 171.344 214.117 173.307 214.117ZM171.479 209.758C171.479 207.648 172.164 206.494 173.307 206.488C174.443 206.494 175.135 207.648 175.135 209.758C175.135 211.873 174.449 213.004 173.307 213.004C172.158 213.004 171.473 211.873 171.479 209.758ZM186.265 204.496H185.198V208.645H183.898V204.777H182.855V214.492H183.898V209.547H185.198V214.996H186.265V204.496ZM177.241 211.996L177.886 212.77C180.892 211.076 181.806 208.592 181.812 205.832H177.687V206.746H180.728C180.552 208.885 179.573 210.672 177.241 211.996ZM192.001 213.736V214.624H198.781V213.736H192.001ZM192.469 207.856V208.72H198.529V207.856H192.469ZM195.049 204.016V214.168H195.961V204.016H195.049ZM187.801 206.176V207.004H191.785V206.176H187.801ZM189.697 209.776V214.972H190.585V208.708L189.697 209.776ZM189.697 203.932V206.584H190.585V203.932H189.697ZM190.513 208.948L189.997 209.404C190.489 209.836 191.665 210.976 192.109 211.492L192.661 210.76C192.313 210.46 190.921 209.236 190.513 208.948ZM191.449 206.176V206.368C190.729 208.192 189.013 210.016 187.381 210.976C187.537 211.132 187.753 211.552 187.849 211.78C189.565 210.676 191.401 208.684 192.313 206.476L191.797 206.14L191.629 206.176H191.449ZM211.206 204.496H210.139V208.703H208.792V204.707H207.749V214.457H208.792V209.617H210.139V214.996H211.206V204.496ZM202.71 212.324H203.389C204.52 212.33 205.721 212.254 207.163 211.996L207.045 211.023C205.85 211.258 204.79 211.334 203.823 211.346V205.738H202.71V212.324ZM215.89 205.164C214.238 205.164 213.025 206.184 213.031 207.66C213.025 208.961 213.968 209.91 215.328 210.115V211.82C214.314 211.85 213.353 211.855 212.527 211.855L212.668 212.77C214.543 212.764 217.091 212.752 219.465 212.312L219.382 211.504C218.439 211.639 217.431 211.727 216.441 211.773V210.115C217.806 209.916 218.744 208.967 218.75 207.66C218.744 206.184 217.549 205.164 215.89 205.164ZM214.132 207.66C214.121 206.723 214.871 206.125 215.89 206.125C216.91 206.125 217.66 206.723 217.66 207.66C217.66 208.58 216.91 209.207 215.89 209.195C214.871 209.207 214.121 208.58 214.132 207.66ZM220.039 215.02H221.152V204.496H220.039V215.02ZM229.232 206.418V205.141H228.131V206.383C228.125 207.965 227.152 209.424 225.518 210.004L226.115 210.883C227.351 210.408 228.248 209.453 228.699 208.246C229.15 209.33 230.012 210.197 231.154 210.637L231.764 209.77C230.182 209.213 229.238 207.842 229.232 206.418ZM227.428 214.773H234.518V213.871H228.553V211.457H227.428V214.773ZM230.955 207.812H233.17V212.336H234.283V204.508H233.17V206.898H230.955V207.812ZM237.28 204.941H236.19V209.523H241.136V204.941H240.034V206.371H237.28V204.941ZM237.245 211.234H242.929V212.184H237.269V214.891H244.394V214H238.358V213.004H244.03V210.355H237.245V211.234ZM237.28 208.633V207.227H240.034V208.633H237.28ZM242.917 209.898H244.03V207.602H245.554V206.699H244.03V204.496H242.917V209.898Z" fill="#9CA3AF"/>
<line x1="159" y1="185.5" x2="251" y2="185.5" stroke="#D1D5DB"/>
</g>
<circle cx="205" cy="88" r="20" fill="#008DFF"/>
<path d="M199.512 97H211.652V94.0938H204.41V94L206.988 91.4922C210.48 88.3281 211.418 86.7461 211.418 84.8125C211.418 81.8711 209.004 79.7969 205.371 79.7969C201.797 79.7969 199.336 81.918 199.348 85.2344H202.699C202.688 83.6055 203.73 82.5977 205.324 82.6094C206.883 82.5977 208.02 83.5352 208.02 85.0469C208.02 86.3945 207.164 87.332 205.582 88.8438L199.488 94.4453L199.512 97Z" fill="white"/>
<g filter="url(#filter2_dd_1239_26696)">
<rect x="284" y="97" width="118" height="155" rx="4" fill="white"/>
<path d="M318.77 124.309H315.571V122.551H313.303V124.309H310.087V126.066H313.303C313.286 127.895 312.099 129.705 309.524 130.408L310.596 132.166C312.477 131.604 313.76 130.443 314.464 128.984C315.184 130.268 316.441 131.278 318.26 131.762L319.28 130.004C316.705 129.336 315.562 127.701 315.536 126.066H318.77V124.309ZM311.616 135.611C311.607 137.501 313.69 138.6 317.1 138.6C320.44 138.6 322.488 137.501 322.497 135.611C322.488 133.669 320.44 132.57 317.1 132.57C313.69 132.57 311.607 133.669 311.616 135.611ZM313.866 135.611C313.848 134.697 314.973 134.293 317.1 134.293C319.174 134.293 320.282 134.697 320.282 135.611C320.282 136.481 319.174 136.912 317.1 136.912C314.973 136.912 313.848 136.481 313.866 135.611ZM320.089 132.271H322.339V128.229H324.501V126.418H322.339V122.621H320.089V132.271ZM329.489 123.307C327.028 123.289 325.217 124.897 325.235 127.086C325.217 129.318 327.028 130.918 329.489 130.918C331.545 130.918 333.189 129.723 333.602 127.965H336.274V131.217H338.506V122.621H336.274V126.172H333.593C333.154 124.458 331.528 123.289 329.489 123.307ZM327.362 127.086C327.353 125.891 328.232 125.161 329.489 125.17C330.701 125.161 331.572 125.891 331.58 127.086C331.572 128.281 330.701 129.037 329.489 129.037C328.232 129.037 327.353 128.281 327.362 127.086ZM327.836 138.441H338.506V131.92H336.274V133.467H330.051V131.92H327.836V138.441ZM330.051 136.631V135.189H336.274V136.631H330.051ZM357.5 123.957H346.039V125.75H355.302C355.294 126.383 355.294 127.068 355.25 127.824L345.511 128.141L345.828 130.057L355.118 129.529C355.012 130.505 354.845 131.586 354.582 132.799L356.779 133.027C357.526 129.573 357.491 127.306 357.5 125.381V123.957ZM344.369 136.771H358.959V134.943H351.822V131.076H349.59V134.943H344.369V136.771ZM373.14 122.621H370.872V138.652H373.14V122.621ZM360.712 134.838H362.101C365.564 134.838 367.603 134.768 369.818 134.346L369.607 132.5C367.594 132.86 365.827 132.939 362.962 132.939V125.855H368.499V124.027H360.712V134.838ZM304.824 147.15H302.574V157.785H303.699C305.756 157.794 307.478 157.724 309.447 157.293L309.148 155.412C307.645 155.729 306.292 155.834 304.824 155.86V147.15ZM307.074 152.494H310.273V160.914H312.4V145.92H310.273V150.684H307.074V152.494ZM313.719 161.617H315.828V145.621H313.719V161.617ZM330.73 145.621H328.462V161.652H330.73V145.621ZM317.81 152.441C317.801 155.957 319.585 158.154 322.046 158.154C324.455 158.154 326.248 155.957 326.248 152.441C326.248 148.952 324.455 146.746 322.046 146.746C319.585 146.746 317.801 148.952 317.81 152.441ZM319.972 152.441C319.963 150.068 320.798 148.768 322.046 148.768C323.259 148.768 324.077 150.068 324.085 152.441C324.077 154.823 323.259 156.124 322.046 156.115C320.798 156.124 319.963 154.823 319.972 152.441ZM346.212 145.621H343.997V151.264H341.185V153.074H343.997V161.652H346.212V145.621ZM333.45 158.031H334.716C337.458 158.022 339.55 157.943 341.888 157.592L341.659 155.799C339.682 156.106 337.906 156.186 335.683 156.203V153.18H340.341V151.422H335.683V148.768H340.921V146.957H333.45V158.031ZM357.893 148.135V146.465H355.643V147.924C355.626 150.13 354.483 152.257 351.811 153.145L353.024 154.902C354.852 154.287 356.091 153.021 356.786 151.413C357.471 152.811 358.658 153.9 360.354 154.463L361.549 152.723C359.018 151.94 357.884 150.077 357.893 148.135ZM354.026 158.523C354.017 160.483 356.135 161.626 359.51 161.617C362.824 161.626 364.898 160.483 364.907 158.523C364.898 156.581 362.824 155.43 359.51 155.43C356.135 155.43 354.017 156.581 354.026 158.523ZM356.276 158.523C356.258 157.653 357.41 157.188 359.51 157.188C361.584 157.188 362.692 157.653 362.692 158.523C362.692 159.429 361.584 159.859 359.51 159.859C357.41 159.859 356.258 159.429 356.276 158.523ZM362.499 155.113H364.749V151.229H366.911V149.365H364.749V145.621H362.499V155.113ZM380.125 145.621H377.875V154.604H380.125V151.07H382.287V149.225H380.125V145.621ZM368.049 154.006H369.403C372.945 154.006 374.79 153.944 376.803 153.479L376.574 151.721C374.79 152.081 373.199 152.195 370.299 152.213V148.398H375.186V146.623H368.049V154.006ZM369.666 161.424H380.125V155.271H369.666V161.424ZM371.881 159.666V157.047H377.91V159.666H371.881Z" fill="#374151"/>
<path d="M317.494 204.496H316.369V214.996H317.494V204.496ZM308.869 212.184L309.455 213.086C313.059 211.357 314.365 208.697 314.365 205.621H309.373V206.512H313.24C313.024 208.961 311.658 210.854 308.869 212.184ZM321.921 204.977C320.316 204.965 319.161 205.984 319.167 207.414C319.161 208.861 320.316 209.875 321.921 209.875C323.316 209.875 324.394 209.066 324.611 207.859H326.655V210.133H327.769V204.496H326.655V206.945H324.605C324.376 205.768 323.304 204.965 321.921 204.977ZM320.234 207.414C320.228 206.512 320.931 205.896 321.921 205.902C322.894 205.896 323.585 206.512 323.585 207.414C323.585 208.311 322.894 208.938 321.921 208.938C320.931 208.938 320.228 208.311 320.234 207.414ZM320.925 214.867H327.769V210.637H326.655V211.855H322.027V210.637H320.925V214.867ZM322.027 213.953V212.734H326.655V213.953H322.027ZM340.83 204.508H339.716V207.238H338.029V208.152H339.716V209.453H338.029V210.344H339.716V212.512H340.83V204.508ZM332.087 206.629H337.994V205.727H335.65V204.496H334.548V205.727H332.087V206.629ZM332.673 209.148C332.673 210.355 333.669 211.176 335.087 211.176C336.499 211.176 337.507 210.355 337.513 209.148C337.507 207.947 336.499 207.127 335.087 207.133C333.669 207.127 332.673 207.947 332.673 209.148ZM333.716 209.148C333.71 208.457 334.273 208.012 335.087 208C335.89 208.012 336.458 208.457 336.47 209.148C336.458 209.863 335.89 210.309 335.087 210.309C334.273 210.309 333.71 209.863 333.716 209.148ZM333.974 214.773H341.064V213.871H335.099V211.809H333.974V214.773ZM350.588 204.508H349.475V211.609H350.588V208.527H352.088V207.602H350.588V204.508ZM342.256 210.32L342.374 211.199C344.237 211.199 346.721 211.164 348.971 210.777L348.877 210.004C347.999 210.127 347.049 210.203 346.112 210.25V209.529C347.301 209.4 348.04 208.861 348.045 208.059C348.04 207.121 347.061 206.564 345.549 206.57C344.026 206.564 343.042 207.121 343.053 208.059C343.042 208.867 343.792 209.406 344.999 209.529V210.297C344.014 210.326 343.071 210.326 342.256 210.32ZM342.526 206.184H348.585V205.352H346.112V204.414H344.999V205.352H342.526V206.184ZM343.651 213.367C343.651 214.422 344.928 214.99 347.155 214.996C349.364 214.99 350.647 214.422 350.659 213.367C350.647 212.307 349.364 211.721 347.155 211.727C344.928 211.721 343.651 212.307 343.651 213.367ZM344.108 208.059C344.108 207.602 344.653 207.32 345.549 207.32C346.434 207.32 346.985 207.602 346.979 208.059C346.985 208.533 346.434 208.809 345.549 208.809C344.653 208.809 344.108 208.533 344.108 208.059ZM344.776 213.367C344.764 212.834 345.59 212.541 347.155 212.547C348.702 212.541 349.522 212.834 349.522 213.367C349.522 213.877 348.702 214.17 347.155 214.164C345.59 214.17 344.764 213.877 344.776 213.367ZM359.278 206.688V206.23H361.587V205.328H355.798V206.23H358.153V206.688C358.147 208.123 357.139 209.482 355.505 210.039L356.079 210.918C357.327 210.479 358.264 209.576 358.733 208.434C359.214 209.482 360.122 210.309 361.329 210.707L361.903 209.84C360.28 209.324 359.278 208.047 359.278 206.688ZM357.227 214.773H364.411V213.871H358.352V211.445H357.227V214.773ZM362.981 212.172H364.095V204.508H362.981V212.172ZM373.889 204.484H372.775V212.09H373.889V208.457H375.424V207.531H373.889V204.484ZM366.107 210.273H366.939C369.189 210.273 370.432 210.203 371.85 209.922L371.721 209.02C370.402 209.289 369.254 209.354 367.209 209.348V206.289H370.795V205.387H366.107V210.273ZM367.232 214.773H374.334V213.871H368.346V211.305H367.232V214.773Z" fill="#9CA3AF"/>
<line x1="297" y1="185.5" x2="389" y2="185.5" stroke="#D1D5DB"/>
</g>
<circle cx="343" cy="88" r="20" fill="#008DFF"/>
<path d="M342.953 97.2344C346.785 97.2344 349.539 95.1484 349.516 92.2422C349.539 90.1211 348.168 88.6094 345.672 88.3047V88.1641C347.57 87.8242 348.895 86.4766 348.883 84.5781C348.895 81.8945 346.539 79.7969 343 79.7969C339.52 79.7969 336.895 81.8242 336.836 84.7422H340.211C340.27 83.4414 341.5 82.5977 343 82.6094C344.5 82.5977 345.496 83.4883 345.484 84.7891C345.496 86.125 344.324 87.0391 342.648 87.0391H341.078V89.6406H342.648C344.641 89.6523 345.871 90.625 345.859 92.0078C345.871 93.3789 344.664 94.3164 342.977 94.3281C341.336 94.3164 340.105 93.4844 340.047 92.2188H336.484C336.555 95.1836 339.227 97.2344 342.953 97.2344Z" fill="white"/>
<g filter="url(#filter3_dd_1239_26696)">
<rect x="422" y="97" width="118" height="155" rx="4" fill="white"/>
<path d="M463.079 122.621H460.811V138.617H463.079V122.621ZM449.684 134.082L450.862 135.875C456.575 133.177 458.271 129.143 458.28 124.291H450.545V126.049H455.995C455.634 129.6 453.815 132.131 449.684 134.082ZM469.086 123.201H466.871V129.74H471.16V131.094H465.008V132.887H479.598V131.094H473.41V129.74H477.735V123.201H475.502V124.801H469.086V123.201ZM466.766 138.336H477.945V136.543H469.016V133.801H466.766V138.336ZM469.086 127.947V126.523H475.502V127.947H469.086ZM489.385 124.221H481.088V126.014H487.152C487.135 127.429 487.099 129.143 486.73 131.463L488.945 131.639C489.367 128.976 489.367 127.007 489.385 125.504V124.221ZM480.244 133.555L480.455 135.348C483.259 135.365 486.88 135.304 490.176 134.75L490.035 133.08C488.558 133.273 486.968 133.388 485.394 133.449V128.809H483.18V133.52C482.142 133.546 481.14 133.555 480.244 133.555ZM490.791 138.617H493.058V130.918H495.238V129.055H493.058V122.621H490.791V138.617ZM509.244 122.621H507.011V126.523H504.515V128.334H507.011V132.113H509.244V122.621ZM495.656 130.355L496.816 132.131C498.714 131.48 499.998 130.171 500.701 128.545C501.395 129.978 502.617 131.138 504.375 131.709L505.482 129.951C502.995 129.125 501.852 127.244 501.808 125.381H504.99V123.588H496.306V125.381H499.523C499.47 127.385 498.275 129.477 495.656 130.355ZM498.275 135.559C498.275 137.501 500.367 138.635 503.777 138.635C507.196 138.635 509.288 137.501 509.296 135.559C509.288 133.616 507.196 132.474 503.777 132.465C500.367 132.474 498.275 133.616 498.275 135.559ZM500.507 135.559C500.507 134.636 501.659 134.179 503.777 134.188C505.904 134.179 507.055 134.636 507.064 135.559C507.055 136.473 505.904 136.93 503.777 136.93C501.659 136.93 500.507 136.473 500.507 135.559Z" fill="#374151"/>
<path d="M457.423 211.234H450.309V212.113H456.309V214.996H457.423V211.234ZM448.821 207.613C448.815 209.107 449.993 210.162 451.575 210.156C452.465 210.162 453.227 209.816 453.719 209.242H456.309V210.684H457.423V204.496H456.309V205.996H453.719C453.233 205.422 452.465 205.076 451.575 205.082C449.993 205.076 448.815 206.131 448.821 207.613ZM449.887 207.613C449.881 206.676 450.59 206.025 451.575 206.02C452.518 206.025 453.239 206.676 453.239 207.613C453.239 208.574 452.518 209.213 451.575 209.219C450.59 209.213 449.881 208.574 449.887 207.613ZM454.206 208.328C454.27 208.105 454.305 207.865 454.305 207.613C454.305 207.367 454.27 207.133 454.212 206.91H456.309V208.328H454.206ZM468.705 206.066H467.17V204.508H466.056V210.848H467.17V209.207H468.705V208.281H467.17V206.992H468.705V206.066ZM459.342 206.043H463.033V207.227H459.353V210.273H460.197C462.213 210.285 463.601 210.221 465.224 209.934L465.107 209.031C463.578 209.289 462.289 209.359 460.467 209.359V208.082H464.123V205.141H459.342V206.043ZM460.244 213.051C460.244 214.27 461.586 214.973 463.771 214.973C465.928 214.973 467.263 214.27 467.263 213.051C467.263 211.832 465.928 211.105 463.771 211.105C461.586 211.105 460.244 211.832 460.244 213.051ZM461.334 213.051C461.328 212.371 462.23 211.979 463.771 211.984C465.289 211.979 466.179 212.371 466.174 213.051C466.179 213.736 465.289 214.129 463.771 214.117C462.23 214.129 461.328 213.736 461.334 213.051ZM477.421 204.496H476.308V210.73H477.421V208.047H478.944V207.145H477.421V204.496ZM469.159 209.91L469.616 210.812C472.692 209.922 474.538 207.959 474.538 205.246H469.628V206.148H473.331C473.126 207.848 471.62 209.219 469.159 209.91ZM470.589 212.91C470.577 214.199 471.96 214.979 474.069 214.984C476.184 214.979 477.538 214.199 477.538 212.91C477.538 211.633 476.184 210.842 474.069 210.848C471.96 210.842 470.577 211.633 470.589 212.91ZM471.69 212.91C471.684 212.172 472.599 211.721 474.069 211.727C475.528 211.721 476.448 212.172 476.448 212.91C476.448 213.648 475.528 214.1 474.069 214.105C472.599 214.1 471.684 213.648 471.69 212.91ZM487.648 204.496H486.535V214.996H487.648V209.828H489.23V208.891H487.648V204.496ZM479.293 212.137L479.469 213.062C481.279 213.068 483.734 213.045 486.008 212.641L485.938 211.82C485.064 211.943 484.127 212.02 483.195 212.066V211.041C484.385 210.871 485.17 210.15 485.176 209.137C485.17 207.953 484.133 207.174 482.645 207.168C481.15 207.174 480.125 207.953 480.137 209.137C480.125 210.15 480.898 210.865 482.082 211.041V212.107C481.08 212.137 480.119 212.137 479.293 212.137ZM479.492 206.629H485.785V205.738H483.195V204.52H482.082V205.738H479.492V206.629ZM481.18 209.137C481.18 208.463 481.766 208.035 482.645 208.035C483.523 208.035 484.104 208.463 484.109 209.137C484.104 209.805 483.523 210.221 482.645 210.215C481.766 210.221 481.18 209.805 481.18 209.137ZM501.014 205.504H493.467V206.406H499.901V206.629C499.906 207.918 499.906 209.324 499.537 211.223L500.627 211.34C501.002 209.33 501.002 207.947 501.014 206.629V205.504ZM492.483 213.578H502.057V212.652H498.459V209.254H497.369V212.652H495.858V209.254H494.744V212.652H492.483V213.578ZM512.308 209.5H502.734V210.402H505.183V211.621H503.8V212.5H510.011V214.996H511.136V211.621H509.835V210.402H512.308V209.5ZM503.765 206.758C503.759 208.023 505.218 208.791 507.515 208.785C509.806 208.791 511.259 208.023 511.265 206.758C511.259 205.486 509.806 204.725 507.515 204.73C505.218 204.725 503.759 205.486 503.765 206.758ZM504.913 206.758C504.908 206.031 505.898 205.604 507.515 205.609C509.12 205.604 510.122 206.031 510.117 206.758C510.122 207.49 509.12 207.918 507.515 207.918C505.898 207.918 504.908 207.49 504.913 206.758ZM506.296 211.621V210.402H508.745V211.621H506.296Z" fill="#9CA3AF"/>
<line x1="435" y1="185.5" x2="527" y2="185.5" stroke="#D1D5DB"/>
</g>
<circle cx="481" cy="88" r="20" fill="#008DFF"/>
<path d="M474.168 94H482.418V97H485.77V94H487.926V91.1641H485.77V80.0312H481.34L474.168 91.2109V94ZM477.73 91.1641V91.0234L482.301 83.8984H482.465V91.1641H477.73Z" fill="white"/>
<g filter="url(#filter4_dd_1239_26696)">
<rect x="560" y="97" width="118" height="155" rx="4" fill="white"/>
<path d="M588.46 137H597.565V134.82H592.133V134.75L594.067 132.869C596.686 130.496 597.389 129.31 597.389 127.859C597.389 125.653 595.579 124.098 592.854 124.098C590.173 124.098 588.328 125.688 588.337 128.176H590.85C590.841 126.954 591.624 126.198 592.819 126.207C593.988 126.198 594.84 126.901 594.84 128.035C594.84 129.046 594.199 129.749 593.012 130.883L588.442 135.084L588.46 137ZM604.522 127.631V127.016H607.791V125.223H604.539V122.973H602.289V125.223H599.002V127.016H602.307V127.631C602.289 130.03 601.05 132.755 598.44 133.906L599.67 135.646C601.481 134.847 602.738 133.229 603.432 131.305C604.1 133.089 605.286 134.592 607 135.365L608.248 133.678C605.7 132.474 604.522 129.907 604.522 127.631ZM609.11 138.617H611.36V130.707H613.715V128.826H611.36V122.621H609.11V138.617ZM624.078 125.363V123.605H621.81V125.346C621.801 127.64 620.65 129.828 617.978 130.707L619.191 132.465C621.046 131.797 622.294 130.487 622.979 128.809C623.656 130.294 624.825 131.472 626.521 132.096L627.734 130.338C625.185 129.485 624.078 127.429 624.078 125.363ZM620.914 138.336H631.9V136.543H623.181V133.203H620.914V138.336ZM626.328 127.842H629.334V134.451H631.566V122.639H629.334V126.031H626.328V127.842ZM646.943 122.621H644.71V126.523H642.214V128.334H644.71V132.113H646.943V122.621ZM633.355 130.355L634.515 132.131C636.413 131.48 637.697 130.171 638.4 128.545C639.094 129.978 640.316 131.138 642.074 131.709L643.181 129.951C640.694 129.125 639.551 127.244 639.507 125.381H642.689V123.588H634.005V125.381H637.222C637.169 127.385 635.974 129.477 633.355 130.355ZM635.974 135.559C635.974 137.501 638.066 138.635 641.476 138.635C644.895 138.635 646.987 137.501 646.995 135.559C646.987 133.616 644.895 132.474 641.476 132.465C638.066 132.474 635.974 133.616 635.974 135.559ZM638.206 135.559C638.206 134.636 639.358 134.179 641.476 134.188C643.603 134.179 644.754 134.636 644.763 135.559C644.754 136.473 643.603 136.93 641.476 136.93C639.358 136.93 638.206 136.473 638.206 135.559Z" fill="#374151"/>
<path d="M588.434 207.168V205.375H587.309V207.168C587.303 209.113 586.219 211.135 584.59 211.914L585.293 212.816C586.506 212.189 587.42 210.912 587.883 209.4C588.346 210.836 589.248 212.02 590.438 212.617L591.117 211.727C589.512 211.006 588.434 209.09 588.434 207.168ZM589.957 208.891H592.301V215.02H593.402V204.496H592.301V207.988H589.957V208.891ZM600.255 205.387H595.38V210.355H600.255V209.441H602.54V212.16H603.654V204.508H602.54V206.277H600.255V205.387ZM596.482 209.477V206.289H599.165V209.477H596.482ZM596.798 214.773H603.888V213.871H597.923V211.457H596.798V214.773ZM600.255 208.527V207.191H602.54V208.527H600.255ZM608.76 205.117H607.647L604.916 215.277H606.03L608.76 205.117ZM618.203 204.496H617.136V208.656H615.777V204.707H614.757V214.457H615.777V209.57H617.136V214.996H618.203V204.496ZM609.542 212.477H610.246C611.775 212.465 612.865 212.424 614.124 212.16L614.042 211.246C612.917 211.463 611.945 211.521 610.656 211.527V206.664H613.48V205.762H609.542V212.477ZM624.797 205.387H619.922V210.355H624.797V209.441H627.083V212.16H628.196V204.508H627.083V206.277H624.797V205.387ZM621.024 209.477V206.289H623.708V209.477H621.024ZM621.34 214.773H628.43V213.871H622.465V211.457H621.34V214.773ZM624.797 208.527V207.191H627.083V208.527H624.797ZM638.386 205.258H632.807V206.16H633.792V209.471C633.341 209.477 632.907 209.477 632.514 209.477L632.655 210.402C634.337 210.402 636.692 210.367 638.714 210.051L638.667 209.207C638.251 209.26 637.823 209.301 637.378 209.336V206.16H638.386V205.258ZM634.19 213.074C634.184 214.275 635.52 214.979 637.741 214.973C639.956 214.979 641.286 214.275 641.292 213.074C641.286 211.85 639.956 211.152 637.741 211.152C635.52 211.152 634.184 211.85 634.19 213.074ZM634.87 209.453V206.16H636.311V209.4C635.825 209.424 635.345 209.441 634.87 209.453ZM635.292 213.074C635.286 212.395 636.188 212.014 637.741 212.02C639.282 212.014 640.184 212.395 640.19 213.074C640.184 213.736 639.282 214.111 637.741 214.117C636.188 214.111 635.286 213.736 635.292 213.074ZM638.538 209.125H640.143V210.953H641.257V204.496H640.143V206.324H638.538V207.215H640.143V208.234H638.538V209.125ZM650.934 204.496H649.82V214.984H650.934V209.605H652.562V208.68H650.934V204.496ZM642.766 212.184L643.387 213.051C646.844 211.346 648.18 208.633 648.191 205.598H643.293V206.523H647.055C646.826 208.973 645.396 210.871 642.766 212.184Z" fill="#9CA3AF"/>
<line x1="573" y1="185.5" x2="665" y2="185.5" stroke="#D1D5DB"/>
</g>
<circle cx="619" cy="88" r="20" fill="#008DFF"/>
<path d="M619.047 97.2344C622.867 97.2344 625.469 94.7852 625.469 91.3516C625.469 88.0938 623.148 85.7617 620.031 85.7734C618.543 85.7617 617.254 86.3711 616.633 87.2031H616.492L616.961 82.9141H624.508V80.0312H614.055L613.141 89.8047H616.328C616.832 88.8555 617.723 88.375 619 88.375C620.781 88.3867 622.059 89.6406 622.047 91.4453C622.059 93.2148 620.805 94.457 619.047 94.4453C617.57 94.457 616.363 93.543 616.281 92.2188H612.859C612.918 95.1484 615.508 97.2344 619.047 97.2344Z" fill="white"/>
<g filter="url(#filter5_dd_1239_26696)">
<rect x="698" y="97" width="118" height="155" rx="4" fill="white"/>
<path d="M739.026 122.639H736.776V131.656H739.026V122.639ZM725.579 129.617L726.668 131.375C728.576 130.777 729.876 129.547 730.606 127.991C731.327 129.424 732.592 130.531 734.42 131.076L735.51 129.371C732.926 128.571 731.749 126.708 731.766 124.766V123.219H729.428V124.766C729.428 126.761 728.259 128.809 725.579 129.617ZM728.303 138.441H739.026V132.395H728.303V138.441ZM730.518 136.648V134.17H736.829V136.648H730.518ZM753.805 122.621H751.537V138.617H753.805V130.988H755.897V129.125H753.805V122.621ZM740.815 134.1L741.113 135.928C743.812 135.937 747.486 135.91 750.887 135.277L750.746 133.643C749.56 133.81 748.285 133.915 747.02 133.985V132.693C748.707 132.368 749.832 131.278 749.85 129.793C749.832 128.009 748.197 126.787 745.912 126.787C743.583 126.787 741.966 128.009 741.975 129.793C741.966 131.278 743.073 132.359 744.77 132.693V134.064C743.346 134.1 741.984 134.1 740.815 134.1ZM741.131 126.154H750.623V124.396H747.02V122.709H744.77V124.396H741.131V126.154ZM744.102 129.793C744.093 128.967 744.814 128.501 745.912 128.492C746.976 128.501 747.688 128.967 747.688 129.793C747.688 130.637 746.976 131.094 745.912 131.094C744.814 131.094 744.093 130.637 744.102 129.793ZM765.385 124.221H757.088V126.014H763.152C763.135 127.429 763.099 129.143 762.73 131.463L764.945 131.639C765.367 128.976 765.367 127.007 765.385 125.504V124.221ZM756.244 133.555L756.455 135.348C759.259 135.365 762.88 135.304 766.176 134.75L766.035 133.08C764.558 133.273 762.968 133.388 761.394 133.449V128.809H759.18V133.52C758.142 133.546 757.14 133.555 756.244 133.555ZM766.791 138.617H769.058V130.918H771.238V129.055H769.058V122.621H766.791V138.617ZM785.244 122.621H783.011V126.523H780.515V128.334H783.011V132.113H785.244V122.621ZM771.656 130.355L772.816 132.131C774.714 131.48 775.998 130.171 776.701 128.545C777.395 129.978 778.617 131.138 780.375 131.709L781.482 129.951C778.995 129.125 777.852 127.244 777.808 125.381H780.99V123.588H772.306V125.381H775.523C775.47 127.385 774.275 129.477 771.656 130.355ZM774.275 135.559C774.275 137.501 776.367 138.635 779.777 138.635C783.196 138.635 785.288 137.501 785.296 135.559C785.288 133.616 783.196 132.474 779.777 132.465C776.367 132.474 774.275 133.616 774.275 135.559ZM776.507 135.559C776.507 134.636 777.659 134.179 779.777 134.188C781.904 134.179 783.055 134.636 783.064 135.559C783.055 136.473 781.904 136.93 779.777 136.93C777.659 136.93 776.507 136.473 776.507 135.559Z" fill="#374151"/>
<path d="M719.29 204.496H718.189V209.898H719.29V204.496ZM710.63 208.961L711.193 209.84C712.447 209.412 713.384 208.498 713.859 207.35C714.333 208.416 715.253 209.242 716.478 209.641L717.029 208.773C715.417 208.27 714.409 206.992 714.415 205.586V204.777H713.279V205.586C713.273 207.039 712.271 208.416 710.63 208.961ZM712.4 211.281H718.2V212.184H712.435V214.891H719.654V214H713.513V213.027H719.302V210.402H712.4V211.281ZM729.6 204.508H728.487V207.344H726.483V208.246H728.487V212.195H729.6V204.508ZM720.858 210.004L721.432 210.906C722.68 210.461 723.6 209.535 724.057 208.375C724.514 209.418 725.387 210.262 726.565 210.672L727.139 209.781C725.551 209.254 724.602 207.936 724.608 206.629V206.219H726.858V205.305H721.198V206.219H723.471V206.629C723.477 208.076 722.469 209.459 720.858 210.004ZM722.78 214.773H729.881V213.871H723.893V211.504H722.78V214.773ZM739.628 205.504H732.082V206.406H738.515V206.629C738.521 207.918 738.521 209.324 738.152 211.223L739.242 211.34C739.617 209.33 739.617 207.947 739.628 206.629V205.504ZM731.097 213.578H740.671V212.652H737.074V209.254H735.984V212.652H734.472V209.254H733.359V212.652H731.097V213.578ZM750.923 209.5H741.348V210.402H743.798V211.621H742.415V212.5H748.626V214.996H749.751V211.621H748.45V210.402H750.923V209.5ZM742.38 206.758C742.374 208.023 743.833 208.791 746.13 208.785C748.421 208.791 749.874 208.023 749.88 206.758C749.874 205.486 748.421 204.725 746.13 204.73C743.833 204.725 742.374 205.486 742.38 206.758ZM743.528 206.758C743.522 206.031 744.512 205.604 746.13 205.609C747.735 205.604 748.737 206.031 748.731 206.758C748.737 207.49 747.735 207.918 746.13 207.918C744.512 207.918 743.522 207.49 743.528 206.758ZM744.911 211.621V210.402H747.36V211.621H744.911ZM753.486 213.191H752.174L751.553 216.426H752.549L753.486 213.191ZM759.129 205.516H757.84V214H759.129V205.516ZM760.732 214H762.021V210.801H763.755H763.837L765.56 214H767.025L765.15 210.572C766.181 210.18 766.696 209.318 766.696 208.176C766.696 206.611 765.73 205.516 763.755 205.516H760.732V214ZM762.021 209.688V206.617H763.626C764.874 206.623 765.396 207.221 765.396 208.176C765.396 209.131 764.874 209.682 763.626 209.688H762.021ZM776.558 208.281H777.859C777.572 206.459 776.148 205.398 774.355 205.398C772.158 205.398 770.535 207.045 770.535 209.758C770.535 212.471 772.146 214.117 774.355 214.117C776.224 214.117 777.589 212.945 777.859 211.27L776.558 211.258C776.335 212.342 775.433 212.939 774.367 212.934C772.908 212.939 771.818 211.826 771.812 209.758C771.818 207.701 772.902 206.576 774.367 206.582C775.445 206.576 776.353 207.186 776.558 208.281ZM778.735 212.207C778.729 213.449 779.672 214.141 780.879 214.141C781.934 214.141 782.52 213.607 782.766 213.133H782.813V214H784.032V209.77C784.026 207.924 782.549 207.555 781.536 207.555C780.03 207.555 779.045 208.316 778.934 209.371H780.176C780.305 208.902 780.75 208.562 781.489 208.562C782.338 208.562 782.784 208.979 782.778 209.699L782.784 210.209C782.491 210.221 781.536 210.273 781.114 210.297C779.965 210.379 778.729 210.754 778.735 212.207ZM779.954 212.219C779.954 211.592 780.469 211.281 781.29 211.223C781.588 211.205 782.497 211.141 782.784 211.123L782.79 211.703C782.79 212.459 782.18 213.139 781.161 213.145C780.458 213.139 779.954 212.828 779.954 212.219ZM785.423 214H786.677V210.074C786.677 209.219 787.275 208.633 787.978 208.633C788.664 208.633 789.138 209.084 789.138 209.781V214H790.38V209.945C790.38 209.184 790.843 208.633 791.646 208.633C792.302 208.633 792.841 208.99 792.841 209.852V214H794.095V209.734C794.089 208.275 793.275 207.555 792.127 207.555C791.207 207.555 790.515 207.994 790.216 208.68H790.146C789.877 207.971 789.285 207.555 788.435 207.555C787.597 207.555 786.97 207.971 786.701 208.68H786.63V207.637H785.423V214ZM795.487 216.391H796.741V213.004H796.811C797.04 213.42 797.497 214.123 798.651 214.129C800.192 214.123 801.311 212.887 801.311 210.836C801.311 208.762 800.18 207.555 798.639 207.555C797.462 207.555 797.034 208.27 796.811 208.668H796.706V207.637H795.487V216.391ZM796.717 210.812C796.717 209.488 797.292 208.615 798.37 208.621C799.489 208.615 800.046 209.559 800.046 210.812C800.046 212.09 799.471 213.057 798.37 213.062C797.303 213.057 796.717 212.148 796.717 210.812ZM760.787 228.43H751.201V229.344H760.787V228.43ZM752.338 232.074C752.338 233.293 753.703 233.979 755.982 233.973C758.244 233.979 759.598 233.293 759.604 232.074C759.598 230.855 758.244 230.164 755.982 230.164C753.703 230.164 752.338 230.855 752.338 232.074ZM752.396 227.516H759.674V226.613H753.498V224.785H759.604V223.871H752.396V227.516ZM753.463 232.074C753.457 231.406 754.377 231.031 755.982 231.02C757.564 231.031 758.49 231.406 758.49 232.074C758.49 232.748 757.564 233.111 755.982 233.117C754.377 233.111 753.457 232.748 753.463 232.074Z" fill="#9CA3AF"/>
<line x1="711" y1="185.5" x2="803" y2="185.5" stroke="#D1D5DB"/>
</g>
<circle cx="757" cy="88" r="20" fill="#008DFF"/>
<path d="M757.188 97.2344C761.02 97.2461 763.621 94.7734 763.609 91.3281C763.621 88.1289 761.348 85.8438 758.289 85.8438C756.414 85.8438 754.738 86.7227 753.953 88.2344H753.789C753.812 84.8945 755.02 82.8203 757.328 82.8203C758.699 82.8203 759.672 83.5586 759.953 84.7422H763.422C763.082 81.9531 760.738 79.7969 757.328 79.7969C753.086 79.7969 750.355 83.1836 750.344 88.9141C750.332 95.125 753.684 97.2227 757.188 97.2344ZM754.141 91.4219C754.164 89.7695 755.477 88.4102 757.211 88.3984C758.934 88.4102 760.188 89.7227 760.188 91.4219C760.188 93.1328 758.91 94.457 757.164 94.4453C755.43 94.457 754.164 93.0859 754.141 91.4219Z" fill="white"/>
<g filter="url(#filter6_dd_1239_26696)">
<rect x="836" y="97" width="118" height="155" rx="4" fill="white"/>
<path d="M868.916 137.176C871.79 137.176 873.855 135.611 873.838 133.432C873.855 131.841 872.827 130.707 870.955 130.479V130.373C872.379 130.118 873.372 129.107 873.363 127.684C873.372 125.671 871.605 124.098 868.951 124.098C866.34 124.098 864.372 125.618 864.328 127.807H866.859C866.903 126.831 867.826 126.198 868.951 126.207C870.076 126.198 870.823 126.866 870.814 127.842C870.823 128.844 869.944 129.529 868.687 129.529H867.509V131.48H868.687C870.181 131.489 871.104 132.219 871.095 133.256C871.104 134.284 870.199 134.987 868.933 134.996C867.703 134.987 866.78 134.363 866.736 133.414H864.064C864.117 135.638 866.121 137.176 868.916 137.176ZM880.777 127.631V127.016H884.046V125.223H880.794V122.973H878.544V125.223H875.257V127.016H878.562V127.631C878.544 130.03 877.305 132.755 874.695 133.906L875.925 135.646C877.736 134.847 878.993 133.229 879.687 131.305C880.355 133.089 881.541 134.592 883.255 135.365L884.503 133.678C881.954 132.474 880.777 129.907 880.777 127.631ZM885.365 138.617H887.615V130.707H889.97V128.826H887.615V122.621H885.365V138.617ZM900.333 125.363V123.605H898.065V125.346C898.056 127.64 896.905 129.828 894.233 130.707L895.446 132.465C897.3 131.797 898.549 130.487 899.234 128.809C899.911 130.294 901.08 131.472 902.776 132.096L903.989 130.338C901.44 129.485 900.333 127.429 900.333 125.363ZM897.169 138.336H908.155V136.543H899.436V133.203H897.169V138.336ZM902.583 127.842H905.589V134.451H907.821V122.639H905.589V126.031H902.583V127.842ZM923.198 122.621H920.965V126.523H918.469V128.334H920.965V132.113H923.198V122.621ZM909.61 130.355L910.77 132.131C912.668 131.48 913.952 130.171 914.655 128.545C915.349 129.978 916.571 131.138 918.328 131.709L919.436 129.951C916.949 129.125 915.806 127.244 915.762 125.381H918.944V123.588H910.26V125.381H913.477C913.424 127.385 912.229 129.477 909.61 130.355ZM912.229 135.559C912.229 137.501 914.321 138.635 917.731 138.635C921.15 138.635 923.242 137.501 923.25 135.559C923.242 133.616 921.15 132.474 917.731 132.465C914.321 132.474 912.229 133.616 912.229 135.559ZM914.461 135.559C914.461 134.636 915.613 134.179 917.731 134.188C919.858 134.179 921.009 134.636 921.018 135.559C921.009 136.473 919.858 136.93 917.731 136.93C915.613 136.93 914.461 136.473 914.461 135.559Z" fill="#374151"/>
<path d="M860.815 214C863.399 214 864.888 212.395 864.894 209.746C864.888 207.104 863.399 205.516 860.897 205.516H858.061V214H860.815ZM859.351 212.875V206.641H860.815C862.667 206.641 863.616 207.748 863.616 209.746C863.616 211.75 862.667 212.869 860.745 212.875H859.351ZM868.863 214.129C870.264 214.129 871.242 213.438 871.524 212.406H870.258C870.047 212.793 869.584 213.098 868.875 213.098C867.832 213.098 867.117 212.412 867.082 211.199H871.606V210.754C871.606 208.451 870.229 207.555 868.781 207.555C867.006 207.555 865.834 208.902 865.84 210.859C865.834 212.834 866.988 214.129 868.863 214.129ZM867.088 210.262C867.141 209.365 867.791 208.58 868.793 208.586C869.748 208.58 870.375 209.295 870.375 210.262H867.088ZM872.728 214H873.982V210.074C873.982 209.219 874.579 208.633 875.282 208.633C875.968 208.633 876.443 209.084 876.443 209.781V214H877.685V209.945C877.685 209.184 878.148 208.633 878.95 208.633C879.607 208.633 880.146 208.99 880.146 209.852V214H881.4V209.734C881.394 208.275 880.579 207.555 879.431 207.555C878.511 207.555 877.82 207.994 877.521 208.68H877.45C877.181 207.971 876.589 207.555 875.739 207.555C874.902 207.555 874.275 207.971 874.005 208.68H873.935V207.637H872.728V214ZM885.487 214.129C887.28 214.129 888.451 212.816 888.451 210.848C888.451 208.867 887.28 207.555 885.487 207.555C883.682 207.555 882.504 208.867 882.51 210.848C882.504 212.816 883.682 214.129 885.487 214.129ZM883.764 210.848C883.764 209.629 884.321 208.592 885.487 208.586C886.635 208.592 887.186 209.629 887.186 210.848C887.186 212.061 886.635 213.086 885.487 213.086C884.321 213.086 883.764 212.061 883.764 210.848ZM891.941 214.129C893.101 214.123 893.558 213.42 893.792 213.004H893.886V214H895.105V205.516H893.851V208.668H893.792C893.564 208.27 893.136 207.555 891.953 207.555C890.423 207.555 889.281 208.762 889.281 210.836C889.281 212.887 890.406 214.123 891.941 214.129ZM890.558 210.812C890.552 209.559 891.115 208.615 892.222 208.621C893.3 208.615 893.886 209.488 893.886 210.812C893.886 212.148 893.289 213.057 892.222 213.062C891.126 213.057 890.552 212.09 890.558 210.812ZM896.321 212.207C896.315 213.449 897.258 214.141 898.465 214.141C899.52 214.141 900.106 213.607 900.352 213.133H900.399V214H901.618V209.77C901.612 207.924 900.135 207.555 899.122 207.555C897.616 207.555 896.631 208.316 896.52 209.371H897.762C897.891 208.902 898.336 208.562 899.075 208.562C899.924 208.562 900.37 208.979 900.364 209.699L900.37 210.209C900.077 210.221 899.122 210.273 898.7 210.297C897.551 210.379 896.315 210.754 896.321 212.207ZM897.54 212.219C897.54 211.592 898.055 211.281 898.876 211.223C899.174 211.205 900.083 211.141 900.37 211.123L900.376 211.703C900.376 212.459 899.766 213.139 898.747 213.145C898.044 213.139 897.54 212.828 897.54 212.219ZM903.549 216.391C904.597 216.385 905.242 215.852 905.611 214.844L908.236 207.637H906.888L905.283 212.57H905.213L903.607 207.637H902.271L904.603 214.082L904.451 214.504C904.152 215.307 903.83 215.33 903.443 215.336C903.267 215.33 903.021 215.324 902.881 215.312V216.355C903.039 216.379 903.291 216.385 903.549 216.391ZM920.559 204.496H919.492V208.645H918.191V204.777H917.148V214.492H918.191V209.547H919.492V214.996H920.559V204.496ZM911.535 211.996L912.18 212.77C915.185 211.076 916.1 208.592 916.105 205.832H911.98V206.746H915.021C914.846 208.885 913.867 210.672 911.535 211.996ZM925.888 210.074H924.774V211.938C923.726 211.973 922.724 211.979 921.88 211.984L922.021 212.898C923.896 212.898 926.444 212.881 928.817 212.441L928.735 211.621C927.821 211.756 926.849 211.838 925.888 211.891V210.074ZM922.161 209.57L922.689 210.414C923.948 210.057 924.874 209.254 925.331 208.205C925.806 209.201 926.743 209.963 927.997 210.32L928.513 209.453C926.942 209.031 925.946 207.971 925.888 206.734H928.243V205.832H925.888V204.578H924.774V205.832H922.442V206.734H924.763C924.704 208.023 923.726 209.119 922.161 209.57ZM929.392 215.02H930.505V204.496H929.392V215.02Z" fill="#9CA3AF"/>
<line x1="849" y1="185.5" x2="941" y2="185.5" stroke="#D1D5DB"/>
</g>
<circle cx="895" cy="88" r="20" fill="#008DFF"/>
<path d="M890.09 97H893.746L900.895 82.9609V80.0312H888.918V82.9141H897.238V83.0312L890.09 97Z" fill="white"/>
<g filter="url(#filter7_dd_1239_26696)">
<rect x="974" y="97" width="118" height="155" rx="4" fill="white"/>
<path d="M1015.47 124.273H1010.03V122.604H1007.8V124.273H1002.33V126.084H1015.47V124.273ZM1001.63 134.785H1007.8V138.635H1010.03V134.785H1016.27V132.957H1001.63V134.785ZM1003.41 129.441C1003.4 131.208 1005.46 132.175 1008.93 132.184C1012.36 132.175 1014.44 131.208 1014.45 129.441C1014.44 127.666 1012.36 126.699 1008.93 126.699C1005.46 126.699 1003.4 127.666 1003.41 129.441ZM1005.73 129.441C1005.73 128.712 1006.78 128.36 1008.93 128.352C1011.04 128.36 1012.11 128.712 1012.11 129.441C1012.11 130.171 1011.04 130.514 1008.93 130.514C1006.78 130.514 1005.73 130.171 1005.73 129.441ZM1031.6 130.408H1025.39V128.281H1023.18V130.408H1017.01V132.201H1031.6V130.408ZM1017.76 127.49L1018.55 129.23C1021.25 128.835 1023.24 127.684 1024.26 126.093C1025.27 127.692 1027.26 128.826 1029.96 129.23L1030.82 127.49C1027.21 127.042 1025.42 125.284 1025.43 123.412V122.885H1023.14V123.412C1023.13 125.214 1021.3 127.042 1017.76 127.49ZM1018.63 135.066H1027.59V138.617H1029.82V133.326H1018.63V135.066ZM1045.87 122.639H1043.63V124.871H1039.97C1039.2 124.054 1038.09 123.562 1036.85 123.553C1034.42 123.562 1032.58 125.311 1032.6 127.719C1032.58 130.092 1034.42 131.85 1036.85 131.85C1038.1 131.85 1039.2 131.349 1039.98 130.531H1043.63V134.328H1045.87V122.639ZM1034.72 127.719C1034.71 126.365 1035.6 125.557 1036.85 125.557C1038.03 125.557 1038.93 126.365 1038.94 127.719C1038.93 129.055 1038.03 129.863 1036.85 129.863C1035.6 129.863 1034.71 129.055 1034.72 127.719ZM1035.25 138.336H1046.25V136.543H1037.5V133.15H1035.25V138.336ZM1040.94 126.664H1043.63V128.738H1040.95C1041.02 128.413 1041.07 128.07 1041.07 127.719C1041.07 127.35 1041.02 126.998 1040.94 126.664ZM1061.63 122.621H1059.52V138.617H1061.63V122.621ZM1047.52 133.713L1048.83 135.295C1051.82 133.52 1053.46 131.296 1054.2 128.65H1056.16V130.83H1053.9V132.641H1056.16V137.914H1058.29V122.973H1056.16V126.84H1054.57C1054.67 126.093 1054.72 125.319 1054.72 124.52H1048.45V126.33H1052.49C1052.18 129.468 1050.76 131.797 1047.52 133.713ZM1023.21 149.98V148.996H1026.55V147.168H1017.52V148.996H1020.91V149.98C1020.91 152.688 1019.54 155.649 1016.88 156.836L1018.17 158.611C1020.06 157.741 1021.38 155.983 1022.11 153.883C1022.83 155.816 1024.13 157.407 1026.01 158.207L1027.22 156.449C1024.54 155.333 1023.2 152.564 1023.21 149.98ZM1028.13 161.617H1030.4V145.621H1028.13V161.617ZM1045.94 145.639H1043.69V154.92H1040.63V156.449H1043.69V157.715H1045.94V145.639ZM1032.33 152.723L1032.6 154.498C1033.81 154.498 1035.17 154.489 1036.6 154.437V156.555H1034.37V161.336H1046.29V159.543H1036.6V157.346H1038.85V154.305C1040.15 154.208 1041.45 154.059 1042.72 153.848L1042.6 152.248C1039.21 152.661 1035.26 152.705 1032.33 152.723ZM1033.51 149.049C1033.51 150.763 1035.15 151.87 1037.53 151.861C1039.86 151.87 1041.52 150.763 1041.53 149.049C1041.52 147.344 1039.86 146.175 1037.53 146.184C1035.15 146.175 1033.51 147.344 1033.51 149.049ZM1035.64 149.049C1035.63 148.258 1036.39 147.818 1037.53 147.818C1038.61 147.818 1039.38 148.258 1039.4 149.049C1039.38 149.822 1038.61 150.253 1037.53 150.244C1036.39 150.253 1035.63 149.822 1035.64 149.049Z" fill="#374151"/>
<path d="M1007.38 204.508H1006.26V206.09H1003.64C1003.15 205.504 1002.4 205.146 1001.53 205.141C999.947 205.152 998.77 206.26 998.775 207.812C998.77 209.354 999.947 210.461 1001.53 210.461C1002.4 210.461 1003.16 210.104 1003.66 209.512H1006.26V212.242H1007.38V204.508ZM999.842 207.812C999.836 206.822 1000.54 206.143 1001.53 206.137C1002.47 206.143 1003.19 206.822 1003.19 207.812C1003.19 208.803 1002.47 209.482 1001.53 209.477C1000.54 209.482 999.836 208.803 999.842 207.812ZM1000.56 214.773H1007.66V213.871H1001.67V211.434H1000.56V214.773ZM1004.14 206.992H1006.26V208.609H1004.14C1004.22 208.363 1004.26 208.094 1004.26 207.812C1004.26 207.52 1004.22 207.25 1004.14 206.992ZM1017.9 204.496H1016.84V214.996H1017.9V204.496ZM1008.82 211.961L1009.47 212.758C1011.45 211.58 1012.57 210.045 1013.08 208.281H1014.7V209.992H1012.91V210.906H1014.7V214.48H1015.75V204.766H1014.7V207.367H1013.29C1013.37 206.857 1013.41 206.336 1013.41 205.797H1009.33V206.711H1012.31C1012.11 208.873 1011.05 210.637 1008.82 211.961ZM1022.77 207.168V205.375H1021.66V207.168C1021.65 209.09 1020.56 211.105 1018.95 211.879L1019.64 212.781C1020.84 212.16 1021.76 210.9 1022.22 209.412C1022.69 210.812 1023.57 211.984 1024.72 212.582L1025.41 211.691C1023.84 210.93 1022.76 209.025 1022.77 207.168ZM1026.19 214.996H1027.3V209.629H1028.99V208.68H1027.3V204.496H1026.19V214.996ZM1032.28 204.977C1030.68 204.965 1029.52 205.984 1029.53 207.414C1029.52 208.861 1030.68 209.875 1032.28 209.875C1033.68 209.875 1034.76 209.066 1034.97 207.859H1037.02V210.133H1038.13V204.496H1037.02V206.945H1034.97C1034.74 205.768 1033.67 204.965 1032.28 204.977ZM1030.6 207.414C1030.59 206.512 1031.29 205.896 1032.28 205.902C1033.26 205.896 1033.95 206.512 1033.95 207.414C1033.95 208.311 1033.26 208.938 1032.28 208.938C1031.29 208.938 1030.59 208.311 1030.6 207.414ZM1031.29 214.867H1038.13V210.637H1037.02V211.855H1032.39V210.637H1031.29V214.867ZM1032.39 213.953V212.734H1037.02V213.953H1032.39ZM1052.01 210.824H1042.44V211.738H1046.67V215.008H1047.77V211.738H1052.01V210.824ZM1043 209.207L1043.41 210.098C1045.1 209.863 1046.54 209.084 1047.22 208C1047.9 209.072 1049.34 209.863 1051.03 210.098L1051.43 209.207C1049.43 208.955 1047.84 207.83 1047.78 206.664H1051.1V205.762H1047.77V204.496H1046.67V205.762H1043.34V206.664H1046.67C1046.6 207.842 1044.99 208.955 1043 209.207ZM1056.37 206.992V206.746H1058.65V205.844H1056.38V204.566H1055.27V205.844H1052.98V206.746H1055.27V206.992C1055.27 208.404 1054.29 209.699 1052.69 210.215L1053.23 211.082C1054.47 210.672 1055.38 209.811 1055.83 208.715C1056.32 209.74 1057.22 210.537 1058.43 210.918L1058.97 210.039C1057.36 209.535 1056.37 208.316 1056.37 206.992ZM1054.62 214.773H1061.72V213.871H1055.74V211.633H1054.62V214.773ZM1058.29 208.586H1060.33V212.324H1061.44V204.508H1060.33V207.684H1058.29V208.586ZM1064.83 213.191H1063.51L1062.89 216.426H1063.89L1064.83 213.191ZM1026.86 230.75C1024.52 230.75 1023.21 231.318 1023.21 232.379C1023.21 233.434 1024.52 233.979 1026.86 233.973C1029.17 233.979 1030.47 233.434 1030.48 232.379C1030.47 231.318 1029.17 230.75 1026.86 230.75ZM1022.08 230.176H1031.65V229.297H1027.42V228.57C1029.28 228.488 1030.31 227.979 1030.3 227.094C1030.31 226.092 1029.07 225.582 1026.86 225.582C1024.65 225.582 1023.41 226.092 1023.41 227.094C1023.41 227.984 1024.45 228.488 1026.31 228.57V229.297H1022.08V230.176ZM1022.57 225.195H1031.11V224.34H1027.42V223.367H1026.31V224.34H1022.57V225.195ZM1024.35 232.379C1024.35 231.852 1025.22 231.576 1026.86 231.57C1028.48 231.576 1029.35 231.852 1029.35 232.379C1029.35 232.895 1028.48 233.158 1026.86 233.152C1025.22 233.158 1024.35 232.895 1024.35 232.379ZM1024.6 227.094C1024.59 226.596 1025.39 226.35 1026.86 226.344C1028.33 226.35 1029.12 226.596 1029.12 227.094C1029.12 227.551 1028.33 227.803 1026.86 227.809C1025.39 227.803 1024.59 227.551 1024.6 227.094ZM1041.94 231.77H1037.66V229.613H1040.8V224.211H1039.7V226.016H1034.54V224.211H1033.43V229.613H1036.56V231.77H1032.33V232.695H1041.94V231.77ZM1034.54 228.711V226.918H1039.7V228.711H1034.54Z" fill="#9CA3AF"/>
<line x1="987" y1="185.5" x2="1079" y2="185.5" stroke="#D1D5DB"/>
</g>
<circle cx="1033" cy="88" r="20" fill="#008DFF"/>
<path d="M1032.99 97.2344C1036.86 97.2344 1039.64 95.1953 1039.64 92.4297C1039.64 90.2969 1037.98 88.5625 1035.92 88.2344V88.1172C1037.7 87.7656 1039 86.2305 1039.01 84.3672C1039 81.7305 1036.46 79.7969 1032.99 79.7969C1029.52 79.7969 1026.98 81.7305 1026.99 84.3672C1026.98 86.2305 1028.24 87.7656 1030.08 88.1172V88.2344C1027.97 88.5625 1026.33 90.2969 1026.33 92.4297C1026.33 95.1953 1029.11 97.2344 1032.99 97.2344ZM1030.01 92.0781C1030 90.6016 1031.27 89.5352 1032.99 89.5234C1034.71 89.5352 1035.98 90.6133 1035.96 92.0781C1035.98 93.5312 1034.78 94.5508 1032.99 94.5391C1031.2 94.5508 1030 93.5312 1030.01 92.0781ZM1030.43 84.7188C1030.42 83.3945 1031.46 82.4688 1032.99 82.4688C1034.5 82.4688 1035.55 83.3945 1035.57 84.7188C1035.55 86.0781 1034.48 87.0273 1032.99 87.0391C1031.49 87.0273 1030.42 86.0781 1030.43 84.7188Z" fill="white"/>
<defs>
<filter id="filter0_dd_1239_26696" x="0" y="93" width="134" height="171" filterUnits="userSpaceOnUse" color-interpolation-filters="sRGB">
<feFlood flood-opacity="0" result="BackgroundImageFix"/>
<feColorMatrix in="SourceAlpha" type="matrix" values="0 0 0 0 0 0 0 0 0 0 0 0 0 0 0 0 0 0 127 0" result="hardAlpha"/>
<feOffset dy="4"/>
<feGaussianBlur stdDeviation="4"/>
<feColorMatrix type="matrix" values="0 0 0 0 0.458824 0 0 0 0 0.458824 0 0 0 0 0.458824 0 0 0 0.16 0"/>
<feBlend mode="normal" in2="BackgroundImageFix" result="effect1_dropShadow_1239_26696"/>
<feColorMatrix in="SourceAlpha" type="matrix" values="0 0 0 0 0 0 0 0 0 0 0 0 0 0 0 0 0 0 127 0" result="hardAlpha"/>
<feOffset dy="1"/>
<feGaussianBlur stdDeviation="1"/>
<feColorMatrix type="matrix" values="0 0 0 0 0.258824 0 0 0 0 0.258824 0 0 0 0 0.258824 0 0 0 0.04 0"/>
<feBlend mode="normal" in2="effect1_dropShadow_1239_26696" result="effect2_dropShadow_1239_26696"/>
<feBlend mode="normal" in="SourceGraphic" in2="effect2_dropShadow_1239_26696" result="shape"/>
</filter>
<filter id="filter1_dd_1239_26696" x="138" y="93" width="134" height="171" filterUnits="userSpaceOnUse" color-interpolation-filters="sRGB">
<feFlood flood-opacity="0" result="BackgroundImageFix"/>
<feColorMatrix in="SourceAlpha" type="matrix" values="0 0 0 0 0 0 0 0 0 0 0 0 0 0 0 0 0 0 127 0" result="hardAlpha"/>
<feOffset dy="4"/>
<feGaussianBlur stdDeviation="4"/>
<feColorMatrix type="matrix" values="0 0 0 0 0.458824 0 0 0 0 0.458824 0 0 0 0 0.458824 0 0 0 0.16 0"/>
<feBlend mode="normal" in2="BackgroundImageFix" result="effect1_dropShadow_1239_26696"/>
<feColorMatrix in="SourceAlpha" type="matrix" values="0 0 0 0 0 0 0 0 0 0 0 0 0 0 0 0 0 0 127 0" result="hardAlpha"/>
<feOffset dy="1"/>
<feGaussianBlur stdDeviation="1"/>
<feColorMatrix type="matrix" values="0 0 0 0 0.258824 0 0 0 0 0.258824 0 0 0 0 0.258824 0 0 0 0.04 0"/>
<feBlend mode="normal" in2="effect1_dropShadow_1239_26696" result="effect2_dropShadow_1239_26696"/>
<feBlend mode="normal" in="SourceGraphic" in2="effect2_dropShadow_1239_26696" result="shape"/>
</filter>
<filter id="filter2_dd_1239_26696" x="276" y="93" width="134" height="171" filterUnits="userSpaceOnUse" color-interpolation-filters="sRGB">
<feFlood flood-opacity="0" result="BackgroundImageFix"/>
<feColorMatrix in="SourceAlpha" type="matrix" values="0 0 0 0 0 0 0 0 0 0 0 0 0 0 0 0 0 0 127 0" result="hardAlpha"/>
<feOffset dy="4"/>
<feGaussianBlur stdDeviation="4"/>
<feColorMatrix type="matrix" values="0 0 0 0 0.458824 0 0 0 0 0.458824 0 0 0 0 0.458824 0 0 0 0.16 0"/>
<feBlend mode="normal" in2="BackgroundImageFix" result="effect1_dropShadow_1239_26696"/>
<feColorMatrix in="SourceAlpha" type="matrix" values="0 0 0 0 0 0 0 0 0 0 0 0 0 0 0 0 0 0 127 0" result="hardAlpha"/>
<feOffset dy="1"/>
<feGaussianBlur stdDeviation="1"/>
<feColorMatrix type="matrix" values="0 0 0 0 0.258824 0 0 0 0 0.258824 0 0 0 0 0.258824 0 0 0 0.04 0"/>
<feBlend mode="normal" in2="effect1_dropShadow_1239_26696" result="effect2_dropShadow_1239_26696"/>
<feBlend mode="normal" in="SourceGraphic" in2="effect2_dropShadow_1239_26696" result="shape"/>
</filter>
<filter id="filter3_dd_1239_26696" x="414" y="93" width="134" height="171" filterUnits="userSpaceOnUse" color-interpolation-filters="sRGB">
<feFlood flood-opacity="0" result="BackgroundImageFix"/>
<feColorMatrix in="SourceAlpha" type="matrix" values="0 0 0 0 0 0 0 0 0 0 0 0 0 0 0 0 0 0 127 0" result="hardAlpha"/>
<feOffset dy="4"/>
<feGaussianBlur stdDeviation="4"/>
<feColorMatrix type="matrix" values="0 0 0 0 0.458824 0 0 0 0 0.458824 0 0 0 0 0.458824 0 0 0 0.16 0"/>
<feBlend mode="normal" in2="BackgroundImageFix" result="effect1_dropShadow_1239_26696"/>
<feColorMatrix in="SourceAlpha" type="matrix" values="0 0 0 0 0 0 0 0 0 0 0 0 0 0 0 0 0 0 127 0" result="hardAlpha"/>
<feOffset dy="1"/>
<feGaussianBlur stdDeviation="1"/>
<feColorMatrix type="matrix" values="0 0 0 0 0.258824 0 0 0 0 0.258824 0 0 0 0 0.258824 0 0 0 0.04 0"/>
<feBlend mode="normal" in2="effect1_dropShadow_1239_26696" result="effect2_dropShadow_1239_26696"/>
<feBlend mode="normal" in="SourceGraphic" in2="effect2_dropShadow_1239_26696" result="shape"/>
</filter>
<filter id="filter4_dd_1239_26696" x="552" y="93" width="134" height="171" filterUnits="userSpaceOnUse" color-interpolation-filters="sRGB">
<feFlood flood-opacity="0" result="BackgroundImageFix"/>
<feColorMatrix in="SourceAlpha" type="matrix" values="0 0 0 0 0 0 0 0 0 0 0 0 0 0 0 0 0 0 127 0" result="hardAlpha"/>
<feOffset dy="4"/>
<feGaussianBlur stdDeviation="4"/>
<feColorMatrix type="matrix" values="0 0 0 0 0.458824 0 0 0 0 0.458824 0 0 0 0 0.458824 0 0 0 0.16 0"/>
<feBlend mode="normal" in2="BackgroundImageFix" result="effect1_dropShadow_1239_26696"/>
<feColorMatrix in="SourceAlpha" type="matrix" values="0 0 0 0 0 0 0 0 0 0 0 0 0 0 0 0 0 0 127 0" result="hardAlpha"/>
<feOffset dy="1"/>
<feGaussianBlur stdDeviation="1"/>
<feColorMatrix type="matrix" values="0 0 0 0 0.258824 0 0 0 0 0.258824 0 0 0 0 0.258824 0 0 0 0.04 0"/>
<feBlend mode="normal" in2="effect1_dropShadow_1239_26696" result="effect2_dropShadow_1239_26696"/>
<feBlend mode="normal" in="SourceGraphic" in2="effect2_dropShadow_1239_26696" result="shape"/>
</filter>
<filter id="filter5_dd_1239_26696" x="690" y="93" width="134" height="171" filterUnits="userSpaceOnUse" color-interpolation-filters="sRGB">
<feFlood flood-opacity="0" result="BackgroundImageFix"/>
<feColorMatrix in="SourceAlpha" type="matrix" values="0 0 0 0 0 0 0 0 0 0 0 0 0 0 0 0 0 0 127 0" result="hardAlpha"/>
<feOffset dy="4"/>
<feGaussianBlur stdDeviation="4"/>
<feColorMatrix type="matrix" values="0 0 0 0 0.458824 0 0 0 0 0.458824 0 0 0 0 0.458824 0 0 0 0.16 0"/>
<feBlend mode="normal" in2="BackgroundImageFix" result="effect1_dropShadow_1239_26696"/>
<feColorMatrix in="SourceAlpha" type="matrix" values="0 0 0 0 0 0 0 0 0 0 0 0 0 0 0 0 0 0 127 0" result="hardAlpha"/>
<feOffset dy="1"/>
<feGaussianBlur stdDeviation="1"/>
<feColorMatrix type="matrix" values="0 0 0 0 0.258824 0 0 0 0 0.258824 0 0 0 0 0.258824 0 0 0 0.04 0"/>
<feBlend mode="normal" in2="effect1_dropShadow_1239_26696" result="effect2_dropShadow_1239_26696"/>
<feBlend mode="normal" in="SourceGraphic" in2="effect2_dropShadow_1239_26696" result="shape"/>
</filter>
<filter id="filter6_dd_1239_26696" x="828" y="93" width="134" height="171" filterUnits="userSpaceOnUse" color-interpolation-filters="sRGB">
<feFlood flood-opacity="0" result="BackgroundImageFix"/>
<feColorMatrix in="SourceAlpha" type="matrix" values="0 0 0 0 0 0 0 0 0 0 0 0 0 0 0 0 0 0 127 0" result="hardAlpha"/>
<feOffset dy="4"/>
<feGaussianBlur stdDeviation="4"/>
<feColorMatrix type="matrix" values="0 0 0 0 0.458824 0 0 0 0 0.458824 0 0 0 0 0.458824 0 0 0 0.16 0"/>
<feBlend mode="normal" in2="BackgroundImageFix" result="effect1_dropShadow_1239_26696"/>
<feColorMatrix in="SourceAlpha" type="matrix" values="0 0 0 0 0 0 0 0 0 0 0 0 0 0 0 0 0 0 127 0" result="hardAlpha"/>
<feOffset dy="1"/>
<feGaussianBlur stdDeviation="1"/>
<feColorMatrix type="matrix" values="0 0 0 0 0.258824 0 0 0 0 0.258824 0 0 0 0 0.258824 0 0 0 0.04 0"/>
<feBlend mode="normal" in2="effect1_dropShadow_1239_26696" result="effect2_dropShadow_1239_26696"/>
<feBlend mode="normal" in="SourceGraphic" in2="effect2_dropShadow_1239_26696" result="shape"/>
</filter>
<filter id="filter7_dd_1239_26696" x="966" y="93" width="134" height="171" filterUnits="userSpaceOnUse" color-interpolation-filters="sRGB">
<feFlood flood-opacity="0" result="BackgroundImageFix"/>
<feColorMatrix in="SourceAlpha" type="matrix" values="0 0 0 0 0 0 0 0 0 0 0 0 0 0 0 0 0 0 127 0" result="hardAlpha"/>
<feOffset dy="4"/>
<feGaussianBlur stdDeviation="4"/>
<feColorMatrix type="matrix" values="0 0 0 0 0.458824 0 0 0 0 0.458824 0 0 0 0 0.458824 0 0 0 0.16 0"/>
<feBlend mode="normal" in2="BackgroundImageFix" result="effect1_dropShadow_1239_26696"/>
<feColorMatrix in="SourceAlpha" type="matrix" values="0 0 0 0 0 0 0 0 0 0 0 0 0 0 0 0 0 0 127 0" result="hardAlpha"/>
<feOffset dy="1"/>
<feGaussianBlur stdDeviation="1"/>
<feColorMatrix type="matrix" values="0 0 0 0 0.258824 0 0 0 0 0.258824 0 0 0 0 0.258824 0 0 0 0.04 0"/>
<feBlend mode="normal" in2="effect1_dropShadow_1239_26696" result="effect2_dropShadow_1239_26696"/>
<feBlend mode="normal" in="SourceGraphic" in2="effect2_dropShadow_1239_26696" result="shape"/>
</filter>
</defs>
</svg>
