<svg width="1100" height="320" viewBox="0 0 1100 320" fill="none" xmlns="http://www.w3.org/2000/svg">
<rect width="1100" height="320" rx="4" fill="#FCFCFC"/>
<g filter="url(#filter0_dd_1239_26816)">
<path d="M22 106C22 103.791 23.7909 102 26 102H252C254.209 102 256 103.791 256 106V134H22V106Z" fill="white"/>
<path d="M22 134H256V214C256 216.209 254.209 218 252 218H26C23.7909 218 22 216.209 22 214V134Z" fill="#FCFCFC"/>
</g>
<path d="M126.769 121.373H121.915V118.83H125.497V112.732H116.583V118.83H120.179V121.373H115.38V122.809H126.769V121.373ZM118.306 117.463V114.127H123.774V117.463H118.306ZM134.695 112.5H127.859V113.895H130.409C130.327 115.303 129.363 116.69 127.381 117.258L128.256 118.625C129.732 118.174 130.757 117.237 131.318 116.062C131.885 117.142 132.877 117.996 134.299 118.406L135.174 117.053C133.232 116.52 132.282 115.214 132.2 113.895H134.695V112.5ZM129.431 124.121H137.757V119.09H136.021V120.252H131.154V119.09H129.431V124.121ZM131.154 122.727V121.605H136.021V122.727H131.154ZM136.007 118.57H137.757V111.816H136.007V118.57ZM144.905 119.568C142.204 119.568 140.468 120.43 140.475 121.92C140.468 123.39 142.204 124.265 144.905 124.258C147.625 124.265 149.334 123.39 149.348 121.92C149.334 120.43 147.625 119.568 144.905 119.568ZM139.326 118.775H150.619V117.367H145.287V115.193H143.565V117.367H139.326V118.775ZM140.598 113.744H147.543C147.53 114.592 147.495 115.433 147.215 116.561L148.924 116.725C149.286 115.446 149.286 114.38 149.28 113.389V112.377H140.598V113.744ZM142.211 121.92C142.204 121.229 143.189 120.86 144.905 120.867C146.62 120.86 147.612 121.229 147.612 121.92C147.612 122.59 146.62 122.932 144.905 122.932C143.189 122.932 142.204 122.59 142.211 121.92ZM161.513 112.896H152.435V114.277H159.763C159.756 115.74 159.735 117.49 159.257 119.842L161.007 120.02C161.506 117.381 161.506 115.631 161.513 114.072V112.896ZM151.259 122.74H162.606V121.318H157.056V117.039H155.319V121.318H151.259V122.74Z" fill="#374151"/>
<path d="M113.835 171.504V170.906H112.886V171.504C112.886 172.998 110.982 174.24 109.101 174.504L109.476 175.254C111.099 174.984 112.698 174.1 113.366 172.811C114.034 174.088 115.64 174.984 117.257 175.254L117.632 174.504C115.751 174.24 113.841 172.975 113.835 171.504ZM108.609 177.176H112.886V180.949H113.788V177.176H118.101V176.402H108.609V177.176ZM127.789 170.531H126.899V180.949H127.789V170.531ZM118.836 173.086H124.028V172.336H121.895V170.812H120.969V172.336H118.836V173.086ZM119.223 176.203C119.217 177.621 120.143 178.605 121.414 178.605C122.375 178.605 123.131 178.055 123.448 177.188H124.965V180.434H125.832V170.766H124.965V174.07H123.5V174.832H124.965V176.449H123.606C123.612 176.367 123.617 176.285 123.617 176.203C123.617 174.779 122.698 173.801 121.414 173.801C120.143 173.801 119.217 174.779 119.223 176.203ZM120.032 176.203C120.032 175.254 120.612 174.598 121.414 174.586C122.223 174.598 122.803 175.254 122.809 176.203C122.803 177.141 122.223 177.814 121.414 177.809C120.612 177.814 120.032 177.141 120.032 176.203ZM137.724 170.531H136.798V180.949H137.724V170.531ZM129.24 178.242L129.744 178.992C133.236 177.316 134.63 174.662 134.642 171.668H129.72V172.418H133.705C133.499 174.908 132.058 176.906 129.24 178.242ZM142.233 171.023C140.645 171.018 139.52 172.014 139.526 173.426C139.52 174.855 140.645 175.84 142.233 175.84C143.645 175.84 144.717 175.02 144.899 173.789H147.073V176.121H147.999V170.531H147.073V173.027H144.893C144.694 171.832 143.627 171.018 142.233 171.023ZM140.405 173.426C140.405 172.465 141.161 171.797 142.233 171.809C143.282 171.797 144.038 172.465 144.038 173.426C144.038 174.375 143.282 175.061 142.233 175.066C141.161 175.061 140.405 174.375 140.405 173.426ZM141.284 180.809H147.999V176.648H147.073V177.973H142.21V176.648H141.284V180.809ZM142.21 180.059V178.711H147.073V180.059H142.21ZM159.152 178.84H154.804V176.297H157.968V171.41H150.738V176.297H153.902V178.84H149.613V179.613H159.152V178.84ZM151.64 175.559V172.148H157.078V175.559H151.64ZM163.614 172.254V171.984H166.016V171.234H160.251V171.984H162.688V172.254C162.682 173.684 161.563 174.967 159.993 175.465L160.473 176.191C161.716 175.77 162.7 174.867 163.163 173.713C163.632 174.791 164.61 175.629 165.829 176.016L166.298 175.289C164.745 174.82 163.62 173.613 163.614 172.254ZM161.716 180.809H168.466V176.684H167.552V177.949H162.63V176.684H161.716V180.809ZM162.63 180.059V178.688H167.552V180.059H162.63ZM167.552 176.168H168.466V170.531H167.552V176.168Z" fill="#4B5563"/>
<g filter="url(#filter1_dd_1239_26816)">
<path d="M296 106C296 103.791 297.791 102 300 102H526C528.209 102 530 103.791 530 106V134H296V106Z" fill="white"/>
<path d="M296 134H530V214C530 216.209 528.209 218 526 218H300C297.791 218 296 216.209 296 214V134Z" fill="#FCFCFC"/>
<path d="M273 153L279 159.5L273 166" stroke="#008DFF" stroke-width="2" stroke-linecap="round" stroke-linejoin="round"/>
<path d="M547 153L553 159.5L547 166" stroke="#008DFF" stroke-width="2" stroke-linecap="round" stroke-linejoin="round"/>
<path d="M821 153L827 159.5L821 166" stroke="#008DFF" stroke-width="2" stroke-linecap="round" stroke-linejoin="round"/>
</g>
<path d="M379.34 111.816H377.604V114.605H375.635V116.027H377.604V118.625H379.34V111.816ZM368.786 117.477L369.674 118.844C371.144 118.365 372.135 117.367 372.689 116.123C373.229 117.237 374.179 118.133 375.553 118.584L376.414 117.244C374.535 116.622 373.639 115.187 373.564 113.799H376.032V112.377H369.278V113.799H371.773C371.684 115.316 370.748 116.82 368.786 117.477ZM371.041 124.121H379.34V119.104H377.604V120.279H372.764V119.104H371.041V124.121ZM372.764 122.727V121.619H377.604V122.727H372.764ZM387.417 112.787V112.186H385.585V112.787C385.578 114.257 384.081 115.877 381.251 116.232L381.948 117.641C384.095 117.326 385.681 116.314 386.501 114.975C387.315 116.321 388.907 117.326 391.081 117.641L391.765 116.232C388.914 115.877 387.41 114.257 387.417 112.787ZM380.814 120.006H385.599V124.258H387.321V120.006H392.161V118.584H380.814V120.006ZM402.573 112.568H396.489V117.805H402.573V112.568ZM397.145 122.918L397.746 124.23C399.825 124.032 401.308 123.301 402.074 122.316C402.832 123.287 404.302 124.039 406.373 124.23L406.961 122.918C404.494 122.679 403.188 121.701 402.996 120.854H406.483V119.555H402.942V118.529H401.192V119.555H397.651V120.854H401.137C400.946 121.729 399.633 122.713 397.145 122.918ZM398.211 116.438V113.922H400.836V116.438H398.211ZM404.528 118.871H406.264V111.816H404.528V118.871ZM415.568 113.949V112.582H413.804V113.936C413.798 115.72 412.902 117.422 410.824 118.105L411.767 119.473C413.21 118.953 414.18 117.935 414.714 116.629C415.24 117.784 416.149 118.7 417.468 119.186L418.412 117.818C416.429 117.155 415.568 115.556 415.568 113.949ZM413.107 124.039H421.652V122.645H414.871V120.047H413.107V124.039ZM417.318 115.877H419.656V121.018H421.392V111.83H419.656V114.469H417.318V115.877ZM433.352 111.816H431.616V114.852H429.674V116.26H431.616V119.199H433.352V111.816ZM422.783 117.832L423.686 119.213C425.162 118.707 426.16 117.688 426.707 116.424C427.247 117.538 428.198 118.44 429.565 118.885L430.426 117.518C428.491 116.875 427.603 115.412 427.569 113.963H430.043V112.568H423.289V113.963H425.791C425.75 115.521 424.821 117.148 422.783 117.832ZM424.821 121.879C424.821 123.39 426.448 124.271 429.1 124.271C431.759 124.271 433.386 123.39 433.393 121.879C433.386 120.368 431.759 119.479 429.1 119.473C426.448 119.479 424.821 120.368 424.821 121.879ZM426.557 121.879C426.557 121.161 427.452 120.806 429.1 120.812C430.754 120.806 431.65 121.161 431.657 121.879C431.65 122.59 430.754 122.945 429.1 122.945C427.452 122.945 426.557 122.59 426.557 121.879ZM441.77 112.637H435.14V114.031H436.151V117.531L434.825 117.545L435.003 118.953C436.978 118.953 439.692 118.905 442.03 118.516L441.962 117.23C441.572 117.278 441.162 117.319 440.745 117.347V114.031H441.77V112.637ZM436.78 121.947C436.78 123.396 438.393 124.265 441.059 124.258C443.732 124.265 445.346 123.396 445.352 121.947C445.346 120.457 443.732 119.616 441.059 119.609C438.393 119.616 436.78 120.457 436.78 121.947ZM437.833 117.497V114.031H439.077V117.456C438.66 117.47 438.243 117.49 437.833 117.497ZM438.517 121.947C438.517 121.271 439.398 120.942 441.059 120.949C442.721 120.942 443.609 121.271 443.616 121.947C443.609 122.604 442.721 122.932 441.059 122.932C439.398 122.932 438.517 122.604 438.517 121.947ZM442.044 117.559H443.575V119.418H445.311V111.816H443.575V113.84H442.044V115.207H443.575V116.164H442.044V117.559ZM456.601 111.816H454.851V124.23H456.601V118.023H458.365V116.588H456.601V111.816ZM446.648 120.744L447.632 122.084C451.816 120.026 453.265 116.807 453.279 113.088H447.359V114.51H451.508C451.18 117.285 449.594 119.268 446.648 120.744Z" fill="#374151"/>
<path d="M380.029 173.332V171.434H379.127V173.332C379.115 175.236 377.908 177.234 376.385 177.984L376.971 178.723C378.143 178.096 379.127 176.777 379.59 175.242C380.053 176.689 381.014 177.926 382.162 178.523L382.725 177.785C381.242 177.059 380.029 175.166 380.029 173.332ZM383.686 180.949H384.6V175.559H386.346V174.762H384.6V170.531H383.686V180.949ZM389.659 171.023C388.071 171.018 386.946 172.014 386.952 173.426C386.946 174.855 388.071 175.84 389.659 175.84C391.071 175.84 392.144 175.02 392.325 173.789H394.499V176.121H395.425V170.531H394.499V173.027H392.32C392.12 171.832 391.054 171.018 389.659 171.023ZM387.831 173.426C387.831 172.465 388.587 171.797 389.659 171.809C390.708 171.797 391.464 172.465 391.464 173.426C391.464 174.375 390.708 175.061 389.659 175.066C388.587 175.061 387.831 174.375 387.831 173.426ZM388.71 180.809H395.425V176.648H394.499V177.973H389.636V176.648H388.71V180.809ZM389.636 180.059V178.711H394.499V180.059H389.636ZM405.957 170.531H405.078V180.949H405.957V170.531ZM397.028 178.031L397.59 178.699C399.559 177.521 400.701 175.963 401.205 174.199H402.969V176.051H401.035V176.812H402.969V180.422H403.848V170.812H402.969V173.438H401.387C401.481 172.928 401.528 172.4 401.528 171.867H397.496V172.629H400.614C400.432 174.809 399.295 176.689 397.028 178.031ZM413.841 171.492H411.216V170.473H410.302V171.492H407.689V172.195H413.841V171.492ZM407.337 176.438L407.478 177.176C409.353 177.176 411.872 177.141 414.158 176.766L414.087 176.109C413.173 176.238 412.189 176.314 411.216 176.361V175.67C412.453 175.564 413.255 175.002 413.267 174.152C413.255 173.186 412.253 172.594 410.771 172.594C409.265 172.594 408.275 173.186 408.287 174.152C408.275 175.002 409.066 175.559 410.302 175.67V176.396C409.242 176.432 408.222 176.438 407.337 176.438ZM408.849 178.734H414.955V180.949H415.88V177.996H408.849V178.734ZM409.154 174.152C409.154 173.584 409.792 173.238 410.771 173.25C411.732 173.238 412.382 173.584 412.376 174.152C412.382 174.686 411.732 175.043 410.771 175.031C409.792 175.043 409.154 174.686 409.154 174.152ZM414.955 177.504H415.88V170.566H414.955V177.504ZM421.21 173.332V171.434H420.272V173.332C420.266 175.254 419.059 177.258 417.53 178.008L418.127 178.746C419.311 178.119 420.29 176.783 420.752 175.225C421.215 176.707 422.194 177.949 423.377 178.559L423.928 177.809C422.417 177.117 421.204 175.219 421.21 173.332ZM422.792 174.844H425.264V180.973H426.178V170.531H425.264V174.094H422.792V174.844ZM436.532 171.328H431.001V172.09H432.055V175.553C431.575 175.559 431.124 175.559 430.708 175.559L430.825 176.332C432.518 176.338 434.886 176.303 436.919 175.992L436.872 175.289C436.421 175.348 435.946 175.389 435.466 175.424V172.09H436.532V171.328ZM432.372 179.051C432.366 180.24 433.684 180.926 435.864 180.926C438.044 180.926 439.356 180.24 439.356 179.051C439.356 177.861 438.044 177.182 435.864 177.188C433.684 177.182 432.366 177.861 432.372 179.051ZM432.946 175.535V172.09H434.575V175.477C434.03 175.506 433.479 175.523 432.946 175.535ZM433.286 179.051C433.28 178.336 434.259 177.902 435.864 177.902C437.464 177.902 438.442 178.336 438.442 179.051C438.442 179.777 437.464 180.199 435.864 180.199C434.259 180.199 433.28 179.777 433.286 179.051ZM436.637 175.031H438.395V176.965H439.321V170.531H438.395V172.406H436.637V173.168H438.395V174.27H436.637V175.031ZM448.998 170.531H448.084V180.949H448.998V175.547H450.685V174.773H448.998V170.531ZM441.006 178.242L441.521 178.969C444.914 177.293 446.297 174.604 446.303 171.656H441.486V172.43H445.371C445.16 174.896 443.695 176.906 441.006 178.242Z" fill="#4B5563"/>
<g filter="url(#filter2_dd_1239_26816)">
<path d="M570 106C570 103.791 571.791 102 574 102H800C802.209 102 804 103.791 804 106V134H570V106Z" fill="white"/>
<path d="M570 134H804V214C804 216.209 802.209 218 800 218H574C571.791 218 570 216.209 570 214V134Z" fill="#FCFCFC"/>
</g>
<path d="M670.325 112.896H667.823V111.707H666.087V112.896H663.407V114.264H670.325V112.896ZM664.022 116.889C664.009 118.235 665.219 119.138 666.935 119.145C668.644 119.138 669.874 118.235 669.888 116.889C669.874 115.549 668.644 114.619 666.935 114.619C665.219 114.619 664.009 115.549 664.022 116.889ZM665.472 124.121H673.866V119.691H672.144V120.607H667.222V119.691H665.472V124.121ZM665.649 116.889C665.643 116.267 666.148 115.925 666.935 115.918C667.714 115.925 668.261 116.267 668.261 116.889C668.261 117.511 667.714 117.88 666.935 117.873C666.148 117.88 665.643 117.511 665.649 116.889ZM667.222 122.781V121.906H672.144V122.781H667.222ZM670.435 118.324H672.13V119.227H673.866V111.816H672.13V114.469H670.462V115.877H672.13V116.93H670.435V118.324ZM686.824 113.457H685.211V111.816H683.461V119.158H685.211V117.586H686.824V116.137H685.211V114.865H686.824V113.457ZM675.422 115.521C675.415 117.319 676.891 118.577 678.84 118.57C680.767 118.577 682.23 117.319 682.23 115.521C682.23 113.765 680.767 112.493 678.84 112.5C676.891 112.493 675.415 113.765 675.422 115.521ZM676.83 121.059H683.461V124.258H685.211V119.65H676.83V121.059ZM677.144 115.521C677.131 114.551 677.862 113.983 678.84 113.99C679.797 113.983 680.528 114.551 680.535 115.521C680.528 116.526 679.797 117.101 678.84 117.094C677.862 117.101 677.131 116.526 677.144 115.521ZM691.182 115.604V115.316H693.137V113.922H691.168V112.24H689.541V113.922H687.532V115.316H689.541V115.604C689.528 117.524 688.865 119.555 687.067 120.594L688.065 121.906C689.193 121.25 689.938 120.136 690.368 118.816C690.806 120.026 691.551 121.031 692.672 121.605L693.629 120.334C691.859 119.384 691.182 117.49 691.182 115.604ZM692.412 117.955H693.875V123.684H695.516V112.021H693.875V116.533H692.412V117.955ZM696.405 124.258H698.059V111.816H696.405V124.258ZM709.745 111.816H708.009V113.375H705.657C705.712 113.033 705.739 112.671 705.739 112.295H700.106V113.703H703.805C703.572 115.2 702.26 116.383 699.409 116.943L699.997 118.365C702.752 117.764 704.529 116.567 705.302 114.701H708.009V115.795H705.165V117.121H708.009V118.078H709.745V111.816ZM701.474 119.896H707.995V120.648H701.487V124.135H710.019V122.754H703.237V121.934H709.745V118.529H701.474V119.896Z" fill="#374151"/>
<path d="M653.556 150.543H652.642V158.348H653.556V154.75H655.126V153.977H653.556V150.543ZM645.435 152.57H651.646V151.82H648.998V150.543H648.084V151.82H645.435V152.57ZM646.033 155.09C646.027 156.262 647.035 157.018 648.541 157.012C650.029 157.018 651.037 156.262 651.048 155.09C651.037 153.906 650.029 153.145 648.541 153.145C647.035 153.145 646.027 153.906 646.033 155.09ZM646.912 155.09C646.906 154.346 647.556 153.865 648.541 153.871C649.513 153.865 650.169 154.346 650.181 155.09C650.169 155.822 649.513 156.297 648.541 156.285C647.556 156.297 646.906 155.822 646.912 155.09ZM647.041 160.727H654.037V159.953H647.943V157.727H647.041V160.727ZM663.948 151.047H656.87V151.797H663.034C663.04 152.57 663.04 153.49 662.764 154.762H655.663V155.512H659.952V157.434H656.647V158.195H663.092V160.949H664.018V157.434H660.866V155.512H665.202V154.762H663.69C663.948 153.508 663.948 152.57 663.948 151.797V151.047ZM669.441 153.73V152.371H671.785V151.609H666.113V152.371H668.539V153.73C668.527 155.506 667.238 157.486 665.738 158.219L666.301 158.945C667.467 158.348 668.51 157 668.99 155.471C669.459 156.883 670.449 158.113 671.621 158.688L672.148 157.961C670.636 157.24 669.429 155.4 669.441 153.73ZM673.062 160.949H673.976V155.535H675.722V154.75H673.976V150.531H673.062V160.949ZM685.669 155.688H681.356V154.469H684.556V153.719H678.274V151.762H684.485V151.023H677.372V154.469H680.466V155.688H676.165V156.426H685.669V155.688ZM677.313 159.062C677.307 160.264 678.661 160.938 680.911 160.949C683.143 160.938 684.485 160.264 684.497 159.062C684.485 157.873 683.143 157.193 680.911 157.188C678.661 157.193 677.307 157.873 677.313 159.062ZM678.251 159.062C678.239 158.342 679.241 157.914 680.911 157.914C682.563 157.914 683.565 158.342 683.571 159.062C683.565 159.795 682.563 160.217 680.911 160.211C679.241 160.217 678.239 159.795 678.251 159.062ZM689.885 153.93V153.098H692.252V152.348H689.908V150.73H688.982V152.348H686.604V153.098H688.994V153.93C688.988 155.723 687.852 157.504 686.322 158.219L686.85 158.934C688.033 158.359 689 157.152 689.457 155.699C689.891 157.041 690.799 158.184 691.947 158.746L692.486 158.031C690.975 157.305 689.891 155.6 689.885 153.93ZM693.564 160.949H694.479V155.594H696.225V154.809H694.479V150.531H693.564V160.949ZM708.196 150.543H707.27V152.172H704.563C704.076 151.568 703.315 151.205 702.43 151.199C700.871 151.205 699.717 152.283 699.723 153.812C699.717 155.336 700.871 156.414 702.43 156.414C703.321 156.414 704.094 156.045 704.574 155.43H707.27V158.242H708.196V150.543ZM700.602 153.812C700.602 152.775 701.364 152.025 702.43 152.02C703.455 152.025 704.235 152.775 704.235 153.812C704.235 154.855 703.455 155.6 702.43 155.594C701.364 155.6 700.602 154.855 700.602 153.812ZM701.504 160.727H708.489V159.953H702.43V157.434H701.504V160.727ZM704.979 152.934H707.27V154.668H704.985C705.072 154.404 705.125 154.117 705.125 153.812C705.125 153.496 705.072 153.203 704.979 152.934ZM718.048 151.211H711.005V151.973H717.134V152.125C717.134 153.098 717.134 154.188 716.818 155.688H709.81V156.449H714.076V160.973H715.001V156.449H719.302V155.688H717.749C718.048 154.193 718.048 153.109 718.048 152.125V151.211ZM728.651 150.543H727.725V156.707H725.569V157.375H727.725V158.453H728.651V150.543ZM720.002 155.371L720.131 156.121C721.004 156.121 722.006 156.121 723.061 156.08V158.09H723.987V156.033C724.942 155.975 725.92 155.881 726.846 155.734L726.788 155.066C724.555 155.342 721.942 155.359 720.002 155.371ZM720.846 152.781C720.84 153.895 721.883 154.586 723.424 154.586C724.954 154.586 725.997 153.895 726.002 152.781C725.997 151.686 724.954 150.965 723.424 150.965C721.883 150.965 720.84 151.686 720.846 152.781ZM721.502 160.727H728.909V159.953H722.428V157.68H721.502V160.727ZM721.725 152.781C721.713 152.113 722.405 151.656 723.424 151.668C724.415 151.656 725.118 152.113 725.124 152.781C725.118 153.461 724.415 153.9 723.424 153.906C722.405 153.9 721.713 153.461 721.725 152.781ZM687.02 178.426H687.969V176.152H690.242V175.203H687.969V172.941H687.02V175.203H684.758V176.152H687.02V178.426ZM638.912 189.504V188.906H637.963V189.504C637.963 190.998 636.058 192.24 634.178 192.504L634.553 193.254C636.176 192.984 637.775 192.1 638.443 190.811C639.111 192.088 640.717 192.984 642.334 193.254L642.709 192.504C640.828 192.24 638.918 190.975 638.912 189.504ZM633.685 195.176H637.963V198.949H638.865V195.176H643.178V194.402H633.685V195.176ZM652.866 188.531H651.976V198.949H652.866V188.531ZM643.913 191.086H649.104V190.336H646.972V188.812H646.046V190.336H643.913V191.086ZM644.3 194.203C644.294 195.621 645.22 196.605 646.491 196.605C647.452 196.605 648.208 196.055 648.524 195.188H650.042V198.434H650.909V188.766H650.042V192.07H648.577V192.832H650.042V194.449H648.683C648.688 194.367 648.694 194.285 648.694 194.203C648.694 192.779 647.774 191.801 646.491 191.801C645.22 191.801 644.294 192.779 644.3 194.203ZM645.108 194.203C645.108 193.254 645.688 192.598 646.491 192.586C647.3 192.598 647.88 193.254 647.886 194.203C647.88 195.141 647.3 195.814 646.491 195.809C645.688 195.814 645.108 195.141 645.108 194.203ZM662.801 188.531H661.875V198.949H662.801V188.531ZM654.316 196.242L654.82 196.992C658.313 195.316 659.707 192.662 659.719 189.668H654.797V190.418H658.781C658.576 192.908 657.135 194.906 654.316 196.242ZM667.31 189.023C665.722 189.018 664.597 190.014 664.603 191.426C664.597 192.855 665.722 193.84 667.31 193.84C668.722 193.84 669.794 193.02 669.976 191.789H672.15V194.121H673.075V188.531H672.15V191.027H669.97C669.771 189.832 668.704 189.018 667.31 189.023ZM665.482 191.426C665.482 190.465 666.237 189.797 667.31 189.809C668.359 189.797 669.114 190.465 669.114 191.426C669.114 192.375 668.359 193.061 667.31 193.066C666.237 193.061 665.482 192.375 665.482 191.426ZM666.361 198.809H673.075V194.648H672.15V195.973H667.286V194.648H666.361V198.809ZM667.286 198.059V196.711H672.15V198.059H667.286ZM676.401 197.215H675.264L674.619 200.402H675.487L676.401 197.215ZM690.024 194.051H680.52V194.789H690.024V194.051ZM681.586 196.547H687.856V198.949H688.794V195.809H681.586V196.547ZM681.786 193.043H688.899V192.328H682.711V191.262H688.559V190.547H682.711V189.551H688.84V188.812H681.786V193.043ZM698.869 188.531H697.943V198.949H698.869V193.746H700.533V192.973H698.869V188.531ZM690.654 196.172L690.806 196.957C692.634 196.957 695.095 196.934 697.369 196.547L697.31 195.844C696.402 195.973 695.418 196.055 694.451 196.102V194.988C695.658 194.848 696.461 194.139 696.466 193.102C696.461 191.924 695.447 191.162 693.994 191.168C692.517 191.162 691.521 191.924 691.533 193.102C691.521 194.133 692.312 194.848 693.525 194.988V196.137C692.494 196.166 691.504 196.172 690.654 196.172ZM690.841 190.559H697.123V189.809H694.451V188.555H693.525V189.809H690.841V190.559ZM692.388 193.102C692.394 192.375 693.027 191.883 693.994 191.883C694.943 191.883 695.582 192.375 695.588 193.102C695.582 193.822 694.943 194.297 693.994 194.285C693.027 194.297 692.394 193.822 692.388 193.102ZM704.761 191.73V190.371H707.245V189.609H701.374V190.371H703.835V191.73C703.829 193.535 702.528 195.504 701.034 196.219L701.585 196.945C702.774 196.348 703.829 195.023 704.315 193.494C704.802 194.936 705.85 196.137 707.069 196.688L707.585 195.961C706.05 195.299 704.766 193.5 704.761 191.73ZM708.698 198.949H709.624V188.531H708.698V198.949ZM719.875 188.543H718.949V194.707H716.793V195.375H718.949V196.453H719.875V188.543ZM711.226 193.371L711.355 194.121C712.228 194.121 713.23 194.121 714.285 194.08V196.09H715.211V194.033C716.166 193.975 717.144 193.881 718.07 193.734L718.012 193.066C715.779 193.342 713.166 193.359 711.226 193.371ZM712.07 190.781C712.064 191.895 713.107 192.586 714.648 192.586C716.178 192.586 717.221 191.895 717.226 190.781C717.221 189.686 716.178 188.965 714.648 188.965C713.107 188.965 712.064 189.686 712.07 190.781ZM712.726 198.727H720.133V197.953H713.652V195.68H712.726V198.727ZM712.949 190.781C712.937 190.113 713.629 189.656 714.648 189.668C715.639 189.656 716.342 190.113 716.348 190.781C716.342 191.461 715.639 191.9 714.648 191.906C713.629 191.9 712.937 191.461 712.949 190.781ZM730.149 188.531H729.224V198.949H730.149V188.531ZM721.665 196.242L722.169 196.992C725.661 195.316 727.056 192.662 727.067 189.668H722.146V190.418H726.13C725.925 192.908 724.483 194.906 721.665 196.242ZM737.565 189.34H732.373V190.113H736.656C736.645 190.775 736.621 191.66 736.369 192.902L737.295 192.973C737.559 191.613 737.559 190.576 737.565 189.891V189.34ZM731.729 193.945L731.822 194.707C733.68 194.701 736.188 194.66 738.373 194.285L738.315 193.605C737.231 193.758 736.035 193.84 734.881 193.887V191.648H733.967V193.916C733.164 193.939 732.402 193.945 731.729 193.945ZM733.334 198.727H740.295V197.953H734.26V195.668H733.334V198.727ZM739.018 196.371H739.955V192.715H741.479V191.93H739.955V188.531H739.018V196.371Z" fill="#4B5563"/>
<g filter="url(#filter3_dd_1239_26816)">
<path d="M844 106C844 103.791 845.791 102 848 102H1074C1076.21 102 1078 103.791 1078 106V134H844V106Z" fill="white"/>
<path d="M844 134H1078V214C1078 216.209 1076.21 218 1074 218H848C845.791 218 844 216.209 844 214V134Z" fill="#FCFCFC"/>
</g>
<path d="M941.96 114.633V112.773H940.21V114.633C940.21 116.943 939.219 119.322 937.106 120.293L938.187 121.701C939.595 121.004 940.552 119.685 941.099 118.078C941.611 119.575 942.514 120.806 943.847 121.469L944.899 120.074C942.903 119.11 941.953 116.861 941.96 114.633ZM945.446 124.258H947.196V118.092H949.028V116.615H947.196V111.816H945.446V124.258ZM952.812 112.35C950.898 112.336 949.49 113.587 949.504 115.289C949.49 117.025 950.898 118.27 952.812 118.27C954.412 118.27 955.69 117.34 956.011 115.973H958.09V118.502H959.826V111.816H958.09V114.578H956.005C955.663 113.245 954.398 112.336 952.812 112.35ZM951.158 115.289C951.151 114.359 951.835 113.792 952.812 113.799C953.756 113.792 954.432 114.359 954.439 115.289C954.432 116.219 953.756 116.807 952.812 116.807C951.835 116.807 951.151 116.219 951.158 115.289ZM951.527 124.121H959.826V119.049H958.09V120.252H953.25V119.049H951.527V124.121ZM953.25 122.713V121.592H958.09V122.713H953.25ZM967.903 112.787V112.186H966.071V112.787C966.064 114.257 964.567 115.877 961.737 116.232L962.434 117.641C964.58 117.326 966.166 116.314 966.987 114.975C967.8 116.321 969.393 117.326 971.567 117.641L972.25 116.232C969.4 115.877 967.896 114.257 967.903 112.787ZM961.299 120.006H966.084V124.258H967.807V120.006H972.647V118.584H961.299V120.006ZM983.95 111.816H982.296V114.893H981.298V112.049H979.671V119.213H981.298V116.314H982.296V119.623H983.95V111.816ZM973.19 114.455H979.302V113.102H977.128V111.926H975.392V113.102H973.19V114.455ZM973.573 117.039C973.566 118.331 974.708 119.192 976.267 119.199C977.846 119.192 978.98 118.331 978.987 117.039C978.98 115.733 977.846 114.865 976.267 114.865C974.708 114.865 973.566 115.733 973.573 117.039ZM975.132 117.039C975.125 116.458 975.59 116.116 976.267 116.123C976.943 116.116 977.408 116.458 977.415 117.039C977.408 117.613 976.943 117.962 976.267 117.955C975.583 117.962 975.125 117.613 975.132 117.039ZM975.392 122.002C975.385 123.438 977.019 124.265 979.698 124.258C982.385 124.265 984.005 123.438 984.019 122.002C984.005 120.56 982.385 119.739 979.698 119.732C977.019 119.739 975.385 120.56 975.392 122.002ZM977.142 122.002C977.128 121.346 978.01 121.038 979.698 121.045C981.394 121.038 982.255 121.346 982.255 122.002C982.255 122.631 981.394 122.945 979.698 122.945C978.01 122.945 977.128 122.631 977.142 122.002Z" fill="#374151"/>
<path d="M946.586 151.504V150.906H945.637V151.504C945.637 152.998 943.733 154.24 941.852 154.504L942.227 155.254C943.85 154.984 945.45 154.1 946.118 152.811C946.785 154.088 948.391 154.984 950.008 155.254L950.383 154.504C948.502 154.24 946.592 152.975 946.586 151.504ZM941.36 157.176H945.637V160.949H946.539V157.176H950.852V156.402H941.36V157.176ZM960.54 150.531H959.65V160.949H960.54V150.531ZM951.587 153.086H956.779V152.336H954.646V150.812H953.72V152.336H951.587V153.086ZM951.974 156.203C951.968 157.621 952.894 158.605 954.165 158.605C955.126 158.605 955.882 158.055 956.199 157.188H957.716V160.434H958.583V150.766H957.716V154.07H956.251V154.832H957.716V156.449H956.357C956.363 156.367 956.369 156.285 956.369 156.203C956.369 154.779 955.449 153.801 954.165 153.801C952.894 153.801 951.968 154.779 951.974 156.203ZM952.783 156.203C952.783 155.254 953.363 154.598 954.165 154.586C954.974 154.598 955.554 155.254 955.56 156.203C955.554 157.141 954.974 157.814 954.165 157.809C953.363 157.814 952.783 157.141 952.783 156.203ZM970.475 150.531H969.549V160.949H970.475V150.531ZM961.991 158.242L962.495 158.992C965.987 157.316 967.381 154.662 967.393 151.668H962.471V152.418H966.456C966.251 154.908 964.809 156.906 961.991 158.242ZM974.984 151.023C973.396 151.018 972.271 152.014 972.277 153.426C972.271 154.855 973.396 155.84 974.984 155.84C976.396 155.84 977.468 155.02 977.65 153.789H979.824V156.121H980.75V150.531H979.824V153.027H977.644C977.445 151.832 976.379 151.018 974.984 151.023ZM973.156 153.426C973.156 152.465 973.912 151.797 974.984 151.809C976.033 151.797 976.789 152.465 976.789 153.426C976.789 154.375 976.033 155.061 974.984 155.066C973.912 155.061 973.156 154.375 973.156 153.426ZM974.035 160.809H980.75V156.648H979.824V157.973H974.961V156.648H974.035V160.809ZM974.961 160.059V158.711H979.824V160.059H974.961ZM961.02 178.426H961.969V176.152H964.242V175.203H961.969V172.941H961.02V175.203H958.758V176.152H961.02V178.426ZM917.178 194.051H907.674V194.789H917.178V194.051ZM908.74 196.547H915.01V198.949H915.947V195.809H908.74V196.547ZM908.939 193.043H916.053V192.328H909.865V191.262H915.713V190.547H909.865V189.551H915.994V188.812H908.939V193.043ZM926.022 188.531H925.097V198.949H926.022V193.746H927.686V192.973H926.022V188.531ZM917.808 196.172L917.96 196.957C919.788 196.957 922.249 196.934 924.522 196.547L924.464 195.844C923.556 195.973 922.571 196.055 921.604 196.102V194.988C922.811 194.848 923.614 194.139 923.62 193.102C923.614 191.924 922.601 191.162 921.147 191.168C919.671 191.162 918.675 191.924 918.686 193.102C918.675 194.133 919.466 194.848 920.679 194.988V196.137C919.647 196.166 918.657 196.172 917.808 196.172ZM917.995 190.559H924.276V189.809H921.604V188.555H920.679V189.809H917.995V190.559ZM919.542 193.102C919.548 192.375 920.181 191.883 921.147 191.883C922.097 191.883 922.735 192.375 922.741 193.102C922.735 193.822 922.097 194.297 921.147 194.285C920.181 194.297 919.548 193.822 919.542 193.102ZM931.914 191.73V190.371H934.399V189.609H928.527V190.371H930.988V191.73C930.983 193.535 929.682 195.504 928.188 196.219L928.738 196.945C929.928 196.348 930.983 195.023 931.469 193.494C931.955 194.936 933.004 196.137 934.223 196.688L934.738 195.961C933.203 195.299 931.92 193.5 931.914 191.73ZM935.852 198.949H936.777V188.531H935.852V198.949ZM947.029 188.543H946.103V194.707H943.946V195.375H946.103V196.453H947.029V188.543ZM938.38 193.371L938.509 194.121C939.382 194.121 940.384 194.121 941.439 194.08V196.09H942.364V194.033C943.32 193.975 944.298 193.881 945.224 193.734L945.165 193.066C942.933 193.342 940.32 193.359 938.38 193.371ZM939.224 190.781C939.218 191.895 940.261 192.586 941.802 192.586C943.331 192.586 944.374 191.895 944.38 190.781C944.374 189.686 943.331 188.965 941.802 188.965C940.261 188.965 939.218 189.686 939.224 190.781ZM939.88 198.727H947.286V197.953H940.806V195.68H939.88V198.727ZM940.103 190.781C940.091 190.113 940.782 189.656 941.802 189.668C942.792 189.656 943.495 190.113 943.501 190.781C943.495 191.461 942.792 191.9 941.802 191.906C940.782 191.9 940.091 191.461 940.103 190.781ZM957.303 188.531H956.377V198.949H957.303V188.531ZM948.819 196.242L949.323 196.992C952.815 195.316 954.209 192.662 954.221 189.668H949.299V190.418H953.284C953.078 192.908 951.637 194.906 948.819 196.242ZM964.718 189.34H959.527V190.113H963.81C963.798 190.775 963.775 191.66 963.523 192.902L964.449 192.973C964.712 191.613 964.712 190.576 964.718 189.891V189.34ZM958.882 193.945L958.976 194.707C960.833 194.701 963.341 194.66 965.527 194.285L965.468 193.605C964.384 193.758 963.189 193.84 962.035 193.887V191.648H961.121V193.916C960.318 193.939 959.556 193.945 958.882 193.945ZM960.488 198.727H967.449V197.953H961.414V195.668H960.488V198.727ZM966.171 196.371H967.109V192.715H968.632V191.93H967.109V188.531H966.171V196.371ZM970.903 197.215H969.766L969.122 200.402H969.989L970.903 197.215ZM980.261 189.504V188.906H979.311V189.504C979.311 190.998 977.407 192.24 975.526 192.504L975.901 193.254C977.524 192.984 979.124 192.1 979.792 190.811C980.46 192.088 982.065 192.984 983.682 193.254L984.057 192.504C982.177 192.24 980.266 190.975 980.261 189.504ZM975.034 195.176H979.311V198.949H980.214V195.176H984.526V194.402H975.034V195.176ZM994.133 188.531H993.254V191.379H991.859V188.742H990.992V194.754H991.859V192.141H993.254V195.129H994.133V188.531ZM985.226 190.523H990.57V189.785H988.367V188.613H987.453V189.785H985.226V190.523ZM985.684 192.867C985.678 193.939 986.598 194.637 987.91 194.637C989.228 194.637 990.143 193.939 990.148 192.867C990.143 191.777 989.228 191.08 987.91 191.086C986.598 191.08 985.678 191.777 985.684 192.867ZM986.504 192.867C986.504 192.205 987.078 191.766 987.91 191.766C988.742 191.766 989.316 192.205 989.316 192.867C989.316 193.506 988.742 193.945 987.91 193.945C987.078 193.945 986.504 193.506 986.504 192.867ZM987.195 197.133C987.184 198.275 988.49 198.926 990.687 198.926C992.879 198.926 994.185 198.275 994.191 197.133C994.185 195.961 992.879 195.305 990.687 195.305C988.49 195.305 987.184 195.961 987.195 197.133ZM988.109 197.133C988.098 196.418 989.064 196.02 990.687 196.031C992.305 196.02 993.266 196.418 993.277 197.133C993.266 197.807 992.305 198.217 990.687 198.211C989.064 198.217 988.098 197.807 988.109 197.133ZM1004.15 188.531H1003.22V198.949H1004.15V188.531ZM995.665 196.242L996.169 196.992C999.661 195.316 1001.06 192.662 1001.07 189.668H996.146V190.418H1000.13C999.925 192.908 998.483 194.906 995.665 196.242ZM1011.56 189.34H1006.37V190.113H1010.66C1010.64 190.775 1010.62 191.66 1010.37 192.902L1011.3 192.973C1011.56 191.613 1011.56 190.576 1011.56 189.891V189.34ZM1005.73 193.945L1005.82 194.707C1007.68 194.701 1010.19 194.66 1012.37 194.285L1012.31 193.605C1011.23 193.758 1010.04 193.84 1008.88 193.887V191.648H1007.97V193.916C1007.16 193.939 1006.4 193.945 1005.73 193.945ZM1007.33 198.727H1014.3V197.953H1008.26V195.668H1007.33V198.727ZM1013.02 196.371H1013.96V192.715H1015.48V191.93H1013.96V188.531H1013.02V196.371Z" fill="#4B5563"/>
<defs>
<filter id="filter0_dd_1239_26816" x="14" y="98" width="250" height="132" filterUnits="userSpaceOnUse" color-interpolation-filters="sRGB">
<feFlood flood-opacity="0" result="BackgroundImageFix"/>
<feColorMatrix in="SourceAlpha" type="matrix" values="0 0 0 0 0 0 0 0 0 0 0 0 0 0 0 0 0 0 127 0" result="hardAlpha"/>
<feOffset dy="4"/>
<feGaussianBlur stdDeviation="4"/>
<feColorMatrix type="matrix" values="0 0 0 0 0.458824 0 0 0 0 0.458824 0 0 0 0 0.458824 0 0 0 0.16 0"/>
<feBlend mode="normal" in2="BackgroundImageFix" result="effect1_dropShadow_1239_26816"/>
<feColorMatrix in="SourceAlpha" type="matrix" values="0 0 0 0 0 0 0 0 0 0 0 0 0 0 0 0 0 0 127 0" result="hardAlpha"/>
<feOffset dy="1"/>
<feGaussianBlur stdDeviation="1"/>
<feColorMatrix type="matrix" values="0 0 0 0 0.258824 0 0 0 0 0.258824 0 0 0 0 0.258824 0 0 0 0.04 0"/>
<feBlend mode="normal" in2="effect1_dropShadow_1239_26816" result="effect2_dropShadow_1239_26816"/>
<feBlend mode="normal" in="SourceGraphic" in2="effect2_dropShadow_1239_26816" result="shape"/>
</filter>
<filter id="filter1_dd_1239_26816" x="264" y="98" width="572" height="132" filterUnits="userSpaceOnUse" color-interpolation-filters="sRGB">
<feFlood flood-opacity="0" result="BackgroundImageFix"/>
<feColorMatrix in="SourceAlpha" type="matrix" values="0 0 0 0 0 0 0 0 0 0 0 0 0 0 0 0 0 0 127 0" result="hardAlpha"/>
<feOffset dy="4"/>
<feGaussianBlur stdDeviation="4"/>
<feColorMatrix type="matrix" values="0 0 0 0 0.458824 0 0 0 0 0.458824 0 0 0 0 0.458824 0 0 0 0.16 0"/>
<feBlend mode="normal" in2="BackgroundImageFix" result="effect1_dropShadow_1239_26816"/>
<feColorMatrix in="SourceAlpha" type="matrix" values="0 0 0 0 0 0 0 0 0 0 0 0 0 0 0 0 0 0 127 0" result="hardAlpha"/>
<feOffset dy="1"/>
<feGaussianBlur stdDeviation="1"/>
<feColorMatrix type="matrix" values="0 0 0 0 0.258824 0 0 0 0 0.258824 0 0 0 0 0.258824 0 0 0 0.04 0"/>
<feBlend mode="normal" in2="effect1_dropShadow_1239_26816" result="effect2_dropShadow_1239_26816"/>
<feBlend mode="normal" in="SourceGraphic" in2="effect2_dropShadow_1239_26816" result="shape"/>
</filter>
<filter id="filter2_dd_1239_26816" x="562" y="98" width="250" height="132" filterUnits="userSpaceOnUse" color-interpolation-filters="sRGB">
<feFlood flood-opacity="0" result="BackgroundImageFix"/>
<feColorMatrix in="SourceAlpha" type="matrix" values="0 0 0 0 0 0 0 0 0 0 0 0 0 0 0 0 0 0 127 0" result="hardAlpha"/>
<feOffset dy="4"/>
<feGaussianBlur stdDeviation="4"/>
<feColorMatrix type="matrix" values="0 0 0 0 0.458824 0 0 0 0 0.458824 0 0 0 0 0.458824 0 0 0 0.16 0"/>
<feBlend mode="normal" in2="BackgroundImageFix" result="effect1_dropShadow_1239_26816"/>
<feColorMatrix in="SourceAlpha" type="matrix" values="0 0 0 0 0 0 0 0 0 0 0 0 0 0 0 0 0 0 127 0" result="hardAlpha"/>
<feOffset dy="1"/>
<feGaussianBlur stdDeviation="1"/>
<feColorMatrix type="matrix" values="0 0 0 0 0.258824 0 0 0 0 0.258824 0 0 0 0 0.258824 0 0 0 0.04 0"/>
<feBlend mode="normal" in2="effect1_dropShadow_1239_26816" result="effect2_dropShadow_1239_26816"/>
<feBlend mode="normal" in="SourceGraphic" in2="effect2_dropShadow_1239_26816" result="shape"/>
</filter>
<filter id="filter3_dd_1239_26816" x="836" y="98" width="250" height="132" filterUnits="userSpaceOnUse" color-interpolation-filters="sRGB">
<feFlood flood-opacity="0" result="BackgroundImageFix"/>
<feColorMatrix in="SourceAlpha" type="matrix" values="0 0 0 0 0 0 0 0 0 0 0 0 0 0 0 0 0 0 127 0" result="hardAlpha"/>
<feOffset dy="4"/>
<feGaussianBlur stdDeviation="4"/>
<feColorMatrix type="matrix" values="0 0 0 0 0.458824 0 0 0 0 0.458824 0 0 0 0 0.458824 0 0 0 0.16 0"/>
<feBlend mode="normal" in2="BackgroundImageFix" result="effect1_dropShadow_1239_26816"/>
<feColorMatrix in="SourceAlpha" type="matrix" values="0 0 0 0 0 0 0 0 0 0 0 0 0 0 0 0 0 0 127 0" result="hardAlpha"/>
<feOffset dy="1"/>
<feGaussianBlur stdDeviation="1"/>
<feColorMatrix type="matrix" values="0 0 0 0 0.258824 0 0 0 0 0.258824 0 0 0 0 0.258824 0 0 0 0.04 0"/>
<feBlend mode="normal" in2="effect1_dropShadow_1239_26816" result="effect2_dropShadow_1239_26816"/>
<feBlend mode="normal" in="SourceGraphic" in2="effect2_dropShadow_1239_26816" result="shape"/>
</filter>
</defs>
</svg>
