<svg width="1100" height="355" viewBox="0 0 1100 355" fill="none" xmlns="http://www.w3.org/2000/svg">
<rect width="1100" height="355" rx="4" fill="#FCFCFC"/>
<g filter="url(#filter0_dd_1239_26774)">
<rect x="375" y="30" width="366" height="50" rx="4" fill="white"/>
<path d="M422.651 51.3828V51.2598H425.885V49.502H422.686V47.7266H420.418V49.502H417.202V51.2598H420.418V51.3828C420.418 53.334 419.258 55.2764 416.657 56.0586L417.746 57.8164C419.601 57.2363 420.867 56.0498 421.578 54.5469C422.299 55.9355 423.565 57.0342 425.358 57.5527L426.43 55.8125C423.828 55.0215 422.66 53.1846 422.651 51.3828ZM419.627 63.3359H430.631V61.543H421.877V58.4844H419.627V63.3359ZM425.358 54.1074H428.012V59.5039H430.244V47.6387H428.012V52.2969H425.358V54.1074ZM444.83 47.6211H442.58V59.2754H444.83V54.0723H446.992V52.209H444.83V47.6211ZM432.244 52.7188C432.235 55.0654 434.178 56.7793 436.639 56.7793C439.091 56.7793 440.998 55.0654 440.998 52.7188C440.998 50.3369 439.091 48.6494 436.639 48.6582C434.178 48.6494 432.235 50.3369 432.244 52.7188ZM434.459 63.3359H445.41V61.543H436.691V58.0449H434.459V63.3359ZM434.459 52.7188C434.441 51.3828 435.417 50.6006 436.639 50.6094C437.869 50.6006 438.81 51.3828 438.818 52.7188C438.81 54.0195 437.869 54.8281 436.639 54.8281C435.417 54.8281 434.441 54.0195 434.459 52.7188ZM451.822 48.7461C449.37 48.7461 447.594 50.9521 447.603 54.4414C447.594 57.957 449.37 60.1543 451.822 60.1543C454.265 60.1543 456.032 57.957 456.041 54.4414C456.032 50.9521 454.265 48.7461 451.822 48.7461ZM449.765 54.4414C449.765 52.0684 450.6 50.7676 451.822 50.7676C453.07 50.7676 453.887 52.0684 453.896 54.4414C453.887 56.8232 453.07 58.124 451.822 58.1152C450.6 58.124 449.765 56.8232 449.765 54.4414ZM457.886 63.6172H460.136V55.5137H462.492V53.6504H460.136V47.6211H457.886V63.6172ZM468.798 50.3633V48.6055H466.548V50.3457C466.531 52.5254 465.362 54.6699 462.628 55.5137L463.876 57.2891C465.722 56.6562 466.996 55.3994 467.708 53.7998C468.403 55.2588 469.616 56.4014 471.365 56.9902L472.542 55.2324C469.95 54.3975 468.789 52.4111 468.798 50.3633ZM465.195 63.3359H476.181V61.543H467.48V58.1855H465.195V63.3359ZM473.333 59.3457H475.583V54.1426H477.746V52.2441H475.583V47.6211H473.333V59.3457ZM491.167 48.9922H487.95V47.4805H485.718V48.9922H482.272V50.75H491.167V48.9922ZM483.063 54.4062C483.046 56.1553 484.654 57.4473 486.807 57.4473C488.978 57.4473 490.587 56.1553 490.604 54.4062C490.587 52.6045 488.978 51.3389 486.807 51.3301C484.654 51.3389 483.046 52.6045 483.063 54.4062ZM484.733 60.3125H493.487V63.6172H495.719V58.5371H484.733V60.3125ZM485.155 54.4062C485.146 53.5361 485.823 53.0176 486.807 53.0176C487.774 53.0176 488.512 53.5361 488.512 54.4062C488.512 55.2324 487.774 55.7422 486.807 55.7422C485.832 55.7422 485.146 55.2324 485.155 54.4062ZM491.307 56.0938H493.487V57.7812H495.719V47.6211H493.487V51.207H491.343V52.9824H493.487V54.2832H491.307V56.0938ZM511.008 47.6387H508.758V59.3105H511.008V47.6387ZM497.561 55.3555L498.721 57.1309C500.593 56.4893 501.868 55.1709 502.588 53.5361C503.3 55.0566 504.539 56.252 506.35 56.8496L507.493 55.0918C504.865 54.248 503.731 52.1826 503.748 50.0645V48.5176H501.411V50.0645C501.411 52.2354 500.242 54.459 497.561 55.3555ZM500.286 63.3359H511.43V61.543H502.553V58.1855H500.286V63.3359ZM515.856 49.1504H513.606V59.7852H514.731C516.787 59.7939 518.51 59.7236 520.479 59.293L520.18 57.4121C518.677 57.7285 517.323 57.834 515.856 57.8604V49.1504ZM518.106 54.4941H521.305V62.9141H523.432V47.9199H521.305V52.6836H518.106V54.4941ZM524.75 63.6172H526.859V47.6211H524.75V63.6172ZM541.41 55.8828H532.375V54.0547H540.918V52.2969H532.375V50.6094H541.287V48.7988H530.09V57.6582H541.41V55.8828ZM528.367 61.7539H543.01V59.9258H528.367V61.7539ZM557.402 47.6387H555.117V58.3965H551.865V60.084H555.117V63.6172H557.402V47.6387ZM543.673 55.7422L543.955 57.5703C545.088 57.5703 546.354 57.5615 547.681 57.5176V63.1426H549.949V57.4033C551.373 57.3066 552.814 57.1484 554.22 56.9023L554.097 55.2676C550.643 55.7246 546.67 55.7422 543.673 55.7422ZM544.798 51.5586C544.79 53.5273 546.512 54.8281 548.912 54.8281C551.276 54.8281 553.016 53.5273 553.025 51.5586C553.016 49.6338 551.276 48.2803 548.912 48.2715C546.512 48.2803 544.79 49.6338 544.798 51.5586ZM546.908 51.5586C546.899 50.583 547.716 49.9766 548.912 49.9766C550.072 49.9766 550.88 50.583 550.898 51.5586C550.88 52.5605 550.063 53.123 548.912 53.123C547.716 53.123 546.899 52.5605 546.908 51.5586ZM572.216 49.0273H560.79V50.8203H570.019V50.8906C570.019 51.7168 570.01 52.543 569.975 53.4219L560.298 53.7734L560.579 55.5664L569.861 55.1094C569.746 56.1904 569.562 57.3682 569.245 58.6953L571.478 58.9062C572.207 55.4346 572.207 53.2197 572.216 50.8906V49.0273ZM559.12 61.7012H573.71V59.873H559.12V61.7012ZM593.055 55.0918H578.465V56.8672H581.911V58.3613H580.083V60.1191H589.047V63.6172H591.28V58.3613H589.54V56.8672H593.055V55.0918ZM579.924 51.084C579.924 53.0439 582.218 54.248 585.76 54.248C589.276 54.248 591.57 53.0439 591.579 51.084C591.57 49.1328 589.276 47.9287 585.76 47.9375C582.218 47.9287 579.924 49.1328 579.924 51.084ZM582.262 51.084C582.245 50.1611 583.519 49.6689 585.76 49.6777C587.966 49.6689 589.258 50.1611 589.258 51.084C589.258 52.0332 587.966 52.5078 585.76 52.5078C583.519 52.5078 582.245 52.0332 582.262 51.084ZM584.178 58.3613V56.8672H587.325V58.3613H584.178ZM599.889 49.8008V48.4473H597.621V49.9062C597.613 52.1387 596.435 54.2832 593.701 55.1621L594.879 56.9551C596.804 56.3047 598.096 54.9951 598.799 53.3252C599.476 54.7666 600.645 55.8652 602.367 56.4629L603.545 54.7051C600.979 53.9141 599.88 51.9365 599.889 49.8008ZM596.356 60.5234C596.356 62.501 598.447 63.626 601.858 63.6172C605.277 63.626 607.368 62.501 607.377 60.5234C607.368 58.5547 605.277 57.4033 601.858 57.4121C598.447 57.4033 596.356 58.5547 596.356 60.5234ZM598.588 60.5234C598.588 59.6094 599.739 59.1523 601.858 59.1523C603.985 59.1523 605.136 59.6094 605.145 60.5234C605.136 61.4111 603.985 61.877 601.858 61.877C599.739 61.877 598.588 61.4111 598.588 60.5234ZM602.086 52.3848H605.092V56.9902H607.324V47.6211H605.092V50.5566H602.086V52.3848ZM621.818 48.5879H613.996V55.3203H621.818V48.5879ZM614.839 61.8945L615.613 63.582C618.285 63.3271 620.192 62.3867 621.176 61.1211C622.152 62.3691 624.042 63.3359 626.705 63.582L627.461 61.8945C624.288 61.5869 622.609 60.3301 622.363 59.2402H626.845V57.5703H622.293V56.252H620.043V57.5703H615.49V59.2402H619.972C619.726 60.3652 618.039 61.6309 614.839 61.8945ZM616.211 53.5625V50.3281H619.586V53.5625H616.211ZM624.332 56.6914H626.564V47.6211H624.332V56.6914ZM645.224 47.6211H642.974V56.9023H645.224V53.2109H647.386V51.3828H645.224V47.6211ZM632.427 55.4434L633.323 57.2539C638.087 55.9268 640.768 52.9385 640.759 48.6758H633.183V50.4688H638.315C637.964 52.6836 635.951 54.5117 632.427 55.4434ZM634.589 60.3652C634.571 62.3867 636.751 63.6348 640.003 63.6348C643.264 63.6348 645.391 62.3867 645.399 60.3652C645.391 58.3613 643.264 57.0957 640.003 57.0957C636.751 57.0957 634.571 58.3613 634.589 60.3652ZM636.804 60.3652C636.795 59.3809 637.99 58.8359 640.003 58.8359C641.989 58.8359 643.184 59.3809 643.184 60.3652C643.184 61.332 641.989 61.8857 640.003 61.877C637.99 61.8857 636.795 61.332 636.804 60.3652ZM660.706 47.6211H658.438V63.6172H660.706V55.9883H662.797V54.125H660.706V47.6211ZM647.715 59.0996L648.014 60.9277C650.712 60.9365 654.386 60.9102 657.788 60.2773L657.647 58.6426C656.461 58.8096 655.186 58.915 653.921 58.9854V57.6934C655.608 57.3682 656.733 56.2783 656.751 54.793C656.733 53.0088 655.098 51.7871 652.813 51.7871C650.484 51.7871 648.867 53.0088 648.876 54.793C648.867 56.2783 649.974 57.3594 651.671 57.6934V59.0645C650.247 59.0996 648.884 59.0996 647.715 59.0996ZM648.032 51.1543H657.524V49.3965H653.921V47.709H651.671V49.3965H648.032V51.1543ZM651.003 54.793C650.994 53.9668 651.714 53.501 652.813 53.4922C653.877 53.501 654.588 53.9668 654.588 54.793C654.588 55.6367 653.877 56.0938 652.813 56.0938C651.714 56.0938 650.994 55.6367 651.003 54.793ZM680.701 47.6211H678.434V63.6172H680.701V47.6211ZM667.307 59.082L668.484 60.875C674.197 58.1768 675.894 54.1426 675.902 49.291H668.168V51.0488H673.617C673.257 54.5996 671.437 57.1309 667.307 59.082ZM695.322 47.6387H693.072V59.416H695.322V53.9844H697.484V52.1387H695.322V47.6387ZM683.105 56.8672H690.857V48.7637H688.607V51.084H685.338V48.7637H683.105V56.8672ZM684.951 63.3359H695.902V61.543H687.183V58.2031H684.951V63.3359ZM685.338 55.1094V52.8066H688.607V55.1094H685.338Z" fill="#374151"/>
</g>
<g filter="url(#filter1_dd_1239_26774)">
<path d="M125 100C125 97.7909 126.791 96 129 96H355C357.209 96 359 97.7909 359 100V128H125V100Z" fill="white"/>
<path d="M125 128H359V208C359 210.209 357.209 212 355 212H129C126.791 212 125 210.209 125 208V128Z" fill="#FCFCFC"/>
</g>
<path d="M217.768 112.283H206.393V113.65H217.768V112.283ZM207.678 115.852H214.61V118.258H216.373V114.471H207.678V115.852ZM207.815 111.504H216.551V110.178H209.565V109.426H216.155V108.141H209.565V107.443H216.442V106.09H207.815V111.504ZM228.401 106.541H219.679V107.936H226.665C226.658 109.009 226.631 110.232 226.31 111.832H218.38V113.24H223.124V118.271H224.874V113.24H229.728V111.832H228.08C228.395 110.089 228.395 108.824 228.401 107.662V106.541ZM232.568 107.006H230.818V115.277H231.693C233.293 115.284 234.632 115.229 236.164 114.895L235.931 113.432C234.762 113.678 233.71 113.76 232.568 113.78V107.006ZM234.318 111.162H236.806V117.711H238.461V106.049H236.806V109.754H234.318V111.162ZM239.486 118.258H241.127V105.816H239.486V118.258ZM252.444 112.242H245.416V110.82H252.061V109.453H245.416V108.141H252.348V106.732H243.639V113.623H252.444V112.242ZM242.299 116.809H253.688V115.387H242.299V116.809ZM264.882 105.83H263.104V114.197H260.575V115.51H263.104V118.258H264.882V105.83ZM254.204 112.133L254.423 113.555C255.305 113.555 256.289 113.548 257.321 113.514V117.889H259.085V113.425C260.192 113.35 261.313 113.227 262.407 113.035L262.311 111.764C259.625 112.119 256.535 112.133 254.204 112.133ZM255.079 108.879C255.072 110.41 256.412 111.422 258.278 111.422C260.117 111.422 261.471 110.41 261.477 108.879C261.471 107.382 260.117 106.329 258.278 106.322C256.412 106.329 255.072 107.382 255.079 108.879ZM256.72 108.879C256.713 108.12 257.349 107.648 258.278 107.648C259.181 107.648 259.81 108.12 259.823 108.879C259.81 109.658 259.174 110.096 258.278 110.096C257.349 110.096 256.713 109.658 256.72 108.879ZM276.404 106.91H267.517V108.305H274.695V108.359C274.695 109.002 274.688 109.645 274.661 110.328L267.134 110.602L267.353 111.996L274.572 111.641C274.483 112.481 274.339 113.397 274.093 114.43L275.83 114.594C276.397 111.894 276.397 110.171 276.404 108.359V106.91ZM266.218 116.768H277.566V115.346H266.218V116.768Z" fill="#374151"/>
<path d="M174.442 158.59V157.477H176.833V156.551H170.915V157.477H173.317V158.59C173.306 160.4 172.134 162.369 170.552 163.113L171.196 163.992C172.421 163.395 173.405 162.117 173.892 160.617C174.378 162.018 175.362 163.178 176.599 163.723L177.208 162.855C175.591 162.164 174.437 160.348 174.442 158.59ZM178.157 165.996H179.271V155.496H178.157V165.996ZM189.58 162.234H182.467V163.113H188.467V165.996H189.58V162.234ZM180.979 158.613C180.973 160.107 182.151 161.162 183.733 161.156C184.623 161.162 185.385 160.816 185.877 160.242H188.467V161.684H189.58V155.496H188.467V156.996H185.877C185.391 156.422 184.623 156.076 183.733 156.082C182.151 156.076 180.973 157.131 180.979 158.613ZM182.045 158.613C182.039 157.676 182.748 157.025 183.733 157.02C184.676 157.025 185.397 157.676 185.397 158.613C185.397 159.574 184.676 160.213 183.733 160.219C182.748 160.213 182.039 159.574 182.045 158.613ZM186.363 159.328C186.428 159.105 186.463 158.865 186.463 158.613C186.463 158.367 186.428 158.133 186.369 157.91H188.467V159.328H186.363ZM202.875 155.496H201.809V159.703H200.461V155.707H199.418V165.457H200.461V160.617H201.809V165.996H202.875V155.496ZM194.379 163.324H195.059C196.19 163.33 197.391 163.254 198.832 162.996L198.715 162.023C197.52 162.258 196.459 162.334 195.493 162.346V156.738H194.379V163.324ZM207.56 156.164C205.908 156.164 204.695 157.184 204.701 158.66C204.695 159.961 205.638 160.91 206.998 161.115V162.82C205.984 162.85 205.023 162.855 204.197 162.855L204.337 163.77C206.212 163.764 208.761 163.752 211.134 163.312L211.052 162.504C210.109 162.639 209.101 162.727 208.111 162.773V161.115C209.476 160.916 210.414 159.967 210.419 158.66C210.414 157.184 209.218 156.164 207.56 156.164ZM205.802 158.66C205.791 157.723 206.541 157.125 207.56 157.125C208.58 157.125 209.33 157.723 209.33 158.66C209.33 159.58 208.58 160.207 207.56 160.195C206.541 160.207 205.791 159.58 205.802 158.66ZM211.709 166.02H212.822V155.496H211.709V166.02ZM220.844 157.418V156.141H219.742V157.383C219.736 158.947 218.781 160.365 217.117 160.934L217.738 161.812C218.969 161.355 219.871 160.441 220.328 159.258C220.791 160.318 221.67 161.156 222.847 161.566L223.422 160.688C221.822 160.148 220.844 158.824 220.844 157.418ZM218.804 165.773H225.906V164.871H219.941V162.48H218.804V165.773ZM224.336 163.23H225.449V159.598H226.972V158.648H225.449V155.484H224.336V163.23ZM233.72 156.562H231.153V155.449H230.04V156.562H227.462V157.453H233.72V156.562ZM228.036 159.832C228.03 160.986 229.073 161.742 230.591 161.742C232.102 161.742 233.134 160.986 233.134 159.832C233.134 158.684 232.102 157.934 230.591 157.922C229.073 157.934 228.03 158.684 228.036 159.832ZM228.763 163.5H234.587V165.996H235.7V162.598H228.763V163.5ZM229.114 159.832C229.102 159.188 229.7 158.783 230.591 158.777C231.481 158.783 232.079 159.188 232.091 159.832C232.079 160.482 231.481 160.875 230.591 160.875C229.7 160.875 229.102 160.482 229.114 159.832ZM234.587 162.059H235.7V159.27H237.224V158.344H235.7V155.496H234.587V162.059ZM246.455 155.508H245.342V157.09H242.723C242.23 156.504 241.475 156.146 240.607 156.141C239.025 156.152 237.848 157.26 237.854 158.812C237.848 160.354 239.025 161.461 240.607 161.461C241.48 161.461 242.242 161.104 242.734 160.512H245.342V163.242H246.455V155.508ZM238.92 158.812C238.914 157.822 239.623 157.143 240.607 157.137C241.551 157.143 242.271 157.822 242.271 158.812C242.271 159.803 241.551 160.482 240.607 160.477C239.623 160.482 238.914 159.803 238.92 158.812ZM239.635 165.773H246.736V164.871H240.748V162.434H239.635V165.773ZM243.215 157.992H245.342V159.609H243.221C243.297 159.363 243.338 159.094 243.338 158.812C243.338 158.52 243.297 158.25 243.215 157.992ZM256.68 156.516H254.336V155.402H253.235V156.516H250.774V157.418H256.68V156.516ZM251.36 159.902C251.36 161.068 252.367 161.877 253.774 161.883C255.18 161.877 256.194 161.068 256.199 159.902C256.194 158.73 255.18 157.934 253.774 157.922C252.367 157.934 251.36 158.73 251.36 159.902ZM252.403 163.629H258.403V165.996H259.516V162.727H252.403V163.629ZM252.403 159.902C252.397 159.229 252.959 158.783 253.774 158.777C254.576 158.783 255.156 159.229 255.168 159.902C255.156 160.576 254.576 161.016 253.774 161.016C252.959 161.016 252.397 160.576 252.403 159.902ZM256.703 160.898H258.403V162.152H259.516V155.496H258.403V158.004H256.715V158.895H258.403V159.984H256.703V160.898ZM269.72 155.508H268.607V163.195H269.72V155.508ZM261.072 160.828L261.669 161.707C262.9 161.232 263.808 160.26 264.271 159.041C264.74 160.178 265.636 161.068 266.849 161.52L267.423 160.629C265.8 160.066 264.827 158.66 264.833 157.125V156.082H263.697V157.125C263.691 158.707 262.718 160.219 261.072 160.828ZM262.853 165.773H270.036V164.871H263.978V162.469H262.853V165.773ZM283.648 161.414H274.074V162.316H278.293V165.984H279.382V162.316H283.648V161.414ZM274.613 159.738L275.035 160.617C276.734 160.348 278.216 159.498 278.861 158.303C279.5 159.498 280.988 160.348 282.711 160.617L283.121 159.738C281.134 159.469 279.517 158.303 279.5 157.008H282.746V156.117H274.964V157.008H278.234C278.199 158.303 276.57 159.469 274.613 159.738ZM287.466 158.719V158.297H289.329V157.383H287.466V155.871H286.423V157.383H284.524V158.297H286.423V158.719C286.411 160.412 285.661 162.211 284.208 163.055L284.864 163.898C285.878 163.289 286.581 162.193 286.956 160.922C287.337 162.111 288.04 163.113 289.059 163.652L289.68 162.832C288.233 162.053 287.466 160.371 287.466 158.719ZM288.637 160.512H290.149V165.469H291.204V155.719H290.149V159.586H288.637V160.512ZM292.27 165.996H293.337V155.496H292.27V165.996ZM303.306 155.496H302.181V165.996H303.306V155.496ZM294.681 163.184L295.267 164.086C298.871 162.357 300.178 159.697 300.178 156.621H295.185V157.512H299.053C298.836 159.961 297.471 161.854 294.681 163.184ZM310.675 156.293H305.378V157.207H309.579C309.567 157.869 309.532 158.719 309.304 159.879L310.405 159.984C310.663 158.625 310.663 157.582 310.675 156.879V156.293ZM304.745 160.887L304.851 161.789C306.702 161.783 309.21 161.742 311.401 161.355L311.331 160.547C310.276 160.699 309.116 160.781 307.991 160.828V158.648H306.89V160.863C306.122 160.881 305.39 160.887 304.745 160.887ZM306.339 165.773H313.476V164.871H307.452V162.668H306.339V165.773ZM311.999 163.383H313.136V159.773H314.577V158.836H313.136V155.496H311.999V163.383ZM188.079 175.293H182.782V176.207H186.983C186.971 176.869 186.936 177.719 186.708 178.879L187.809 178.984C188.067 177.625 188.067 176.582 188.079 175.879V175.293ZM182.149 179.887L182.255 180.789C184.106 180.783 186.614 180.742 188.805 180.355L188.735 179.547C187.68 179.699 186.52 179.781 185.395 179.828V177.648H184.294V179.863C183.526 179.881 182.794 179.887 182.149 179.887ZM183.743 184.773H190.88V183.871H184.856V181.668H183.743V184.773ZM189.403 182.383H190.54V178.773H191.981V177.836H190.54V174.496H189.403V182.383ZM201.506 174.496H200.451V184.996H201.506V174.496ZM192.424 181.961L193.08 182.758C195.06 181.58 196.18 180.045 196.689 178.281H198.306V179.992H196.514V180.906H198.306V184.48H199.361V174.766H198.306V177.367H196.894C196.976 176.857 197.017 176.336 197.017 175.797H192.939V176.711H195.916C195.722 178.873 194.656 180.637 192.424 181.961ZM206.39 177.59V176.477H208.675V175.551H202.921V176.477H205.288V177.59C205.282 179.365 204.128 181.346 202.534 182.113L203.19 182.992C204.386 182.395 205.37 181.1 205.851 179.605C206.325 180.977 207.263 182.16 208.44 182.723L209.073 181.855C207.479 181.1 206.384 179.248 206.39 177.59ZM209.8 184.996H210.913V179.594H212.601V178.656H210.913V174.496H209.8V184.996ZM217.388 175.586H216.275V182.383H216.966C218.267 182.383 219.433 182.33 220.798 182.043L220.646 181.094C219.48 181.34 218.466 181.404 217.388 181.422V175.586ZM219.216 178.867H221.513V184.48H222.568V174.73H221.513V177.953H219.216V178.867ZM223.763 184.996H224.818V174.496H223.763V184.996ZM234.565 180.086H228.377V178.562H234.237V177.684H228.377V176.266H234.459V175.363H227.252V180.977H234.565V180.086ZM226.045 183.672H235.655V182.758H226.045V183.672ZM245.074 174.508H243.949V181.645H241.628V182.488H243.949V184.996H245.074V174.508ZM236.249 179.969L236.402 180.895C237.21 180.895 238.124 180.883 239.085 180.848V184.668H240.199V180.795C241.206 180.73 242.244 180.625 243.246 180.449L243.187 179.629C240.884 179.951 238.242 179.957 236.249 179.969ZM237.023 177.086C237.029 178.352 238.13 179.166 239.706 179.172C241.259 179.166 242.367 178.352 242.367 177.086C242.367 175.844 241.259 174.988 239.706 174.988C238.13 174.988 237.029 175.844 237.023 177.086ZM238.078 177.086C238.072 176.348 238.74 175.85 239.706 175.844C240.644 175.85 241.306 176.348 241.312 177.086C241.306 177.836 240.638 178.322 239.706 178.316C238.74 178.322 238.072 177.836 238.078 177.086ZM254.997 175.516H247.684V176.43H253.919V176.793C253.913 177.332 253.913 177.871 253.889 178.434L247.391 178.68L247.532 179.594L253.836 179.26C253.778 180.039 253.661 180.877 253.438 181.844L254.54 181.949C254.997 179.77 254.997 178.328 254.997 176.793V175.516ZM246.547 183.59H256.122V182.676H246.547V183.59ZM268.339 174.496H267.214V184.996H268.339V174.496ZM259.714 182.184L260.3 183.086C263.903 181.357 265.21 178.697 265.21 175.621H260.218V176.512H264.085C263.868 178.961 262.503 180.854 259.714 182.184ZM278.109 174.508H276.996V182.219H278.109V178.539H279.633V177.602H278.109V174.508ZM270.269 180.484H275.215V175.258H274.113V176.934H271.359V175.258H270.269V180.484ZM271.359 179.594V177.812H274.113V179.594H271.359ZM271.453 184.773H278.555V183.871H272.566V181.457H271.453V184.773ZM288.229 175.539H283.319V182.359H288.229V175.539ZM284.408 181.457V176.418H287.127V181.457H284.408ZM289.986 184.996H291.1V179.547H292.787V178.609H291.1V174.496H289.986V184.996ZM298.175 175.234H293.57V176.125H297.05V177.543H293.593V180.859H294.366C296.359 180.859 297.478 180.83 298.843 180.59L298.726 179.688C297.495 179.898 296.458 179.951 294.706 179.957V178.398H298.175V175.234ZM295.023 184.738H302.23V183.824H296.136V181.656H295.023V184.738ZM298.855 179.477H300.812V182.23H301.925V174.508H300.812V176.219H298.855V177.109H300.812V178.562H298.855V179.477Z" fill="#9CA3AF"/>
<g filter="url(#filter2_dd_1239_26774)">
<path d="M755 100C755 97.7909 756.791 96 759 96H985C987.209 96 989 97.7909 989 100V128H755V100Z" fill="white"/>
<path d="M755 128H989V208C989 210.209 987.209 212 985 212H759C756.791 212 755 210.209 755 208V128Z" fill="#FCFCFC"/>
</g>
<path d="M829.164 107.512V106.459H827.4V107.594C827.393 109.33 826.477 110.998 824.351 111.682L825.267 113.076C826.764 112.57 827.769 111.552 828.316 110.253C828.843 111.374 829.752 112.229 831.092 112.693L832.008 111.326C830.011 110.711 829.157 109.173 829.164 107.512ZM826.416 115.852C826.416 117.39 828.043 118.265 830.695 118.258C833.354 118.265 834.981 117.39 834.988 115.852C834.981 114.32 833.354 113.425 830.695 113.432C828.043 113.425 826.416 114.32 826.416 115.852ZM828.152 115.852C828.152 115.141 829.048 114.785 830.695 114.785C832.349 114.785 833.245 115.141 833.252 115.852C833.245 116.542 832.349 116.904 830.695 116.904C829.048 116.904 828.152 116.542 828.152 115.852ZM830.873 109.521H833.211V113.104H834.947V105.816H833.211V108.1H830.873V109.521ZM843.489 106.65H836.707V108.045H839.25C839.23 109.624 838.293 111.237 836.229 111.887L837.118 113.268C838.608 112.775 839.62 111.777 840.173 110.526C840.72 111.586 841.677 112.427 843.051 112.844L843.885 111.477C841.903 110.896 841.021 109.494 841.014 108.045H843.489V106.65ZM837.952 115.838C837.945 117.362 839.585 118.265 842.217 118.258C844.808 118.265 846.408 117.362 846.414 115.838C846.408 114.32 844.808 113.438 842.217 113.445C839.585 113.438 837.945 114.32 837.952 115.838ZM839.702 115.838C839.688 115.141 840.583 114.792 842.217 114.799C843.83 114.792 844.692 115.141 844.692 115.838C844.692 116.549 843.83 116.904 842.217 116.904C840.583 116.904 839.688 116.549 839.702 115.838ZM844.541 113.199H846.291V110.123H847.973V108.701H846.291V105.816H844.541V113.199ZM853.206 109.207V108.441H855.804V107.02H848.776V108.441H851.415V109.207C851.415 111.312 850.349 113.616 848.284 114.539L849.282 115.92C850.752 115.243 851.784 113.876 852.345 112.242C852.905 113.746 853.917 114.983 855.38 115.605L856.323 114.238C854.238 113.37 853.199 111.217 853.206 109.207ZM857.034 118.258H858.798V105.816H857.034V118.258ZM870.881 105.83H869.131V113.049H866.752V114.238H869.131V115.223H870.881V105.83ZM860.299 111.34L860.504 112.721C861.447 112.721 862.507 112.714 863.621 112.673V114.32H861.884V118.039H871.154V116.645H863.621V114.936H865.371V112.57C866.376 112.495 867.394 112.379 868.379 112.215L868.283 110.971C865.651 111.292 862.575 111.326 860.299 111.34ZM861.215 108.482C861.215 109.815 862.493 110.677 864.345 110.67C866.15 110.677 867.442 109.815 867.449 108.482C867.442 107.156 866.15 106.247 864.345 106.254C862.493 106.247 861.215 107.156 861.215 108.482ZM862.869 108.482C862.862 107.867 863.457 107.525 864.345 107.525C865.179 107.525 865.781 107.867 865.795 108.482C865.781 109.084 865.179 109.419 864.345 109.412C863.457 109.419 862.862 109.084 862.869 108.482ZM874.528 107.006H872.778V115.277H873.653C875.252 115.284 876.592 115.229 878.123 114.895L877.891 113.432C876.722 113.678 875.669 113.76 874.528 113.78V107.006ZM876.278 111.162H878.766V117.711H880.42V106.049H878.766V109.754H876.278V111.162ZM881.446 118.258H883.086V105.816H881.446V118.258ZM894.403 112.242H887.376V110.82H894.02V109.453H887.376V108.141H894.308V106.732H885.599V113.623H894.403V112.242ZM884.259 116.809H895.647V115.387H884.259V116.809ZM906.841 105.83H905.064V114.197H902.535V115.51H905.064V118.258H906.841V105.83ZM896.164 112.133L896.382 113.555C897.264 113.555 898.249 113.548 899.281 113.514V117.889H901.045V113.425C902.152 113.35 903.273 113.227 904.367 113.035L904.271 111.764C901.585 112.119 898.495 112.133 896.164 112.133ZM897.039 108.879C897.032 110.41 898.372 111.422 900.238 111.422C902.077 111.422 903.43 110.41 903.437 108.879C903.43 107.382 902.077 106.329 900.238 106.322C898.372 106.329 897.032 107.382 897.039 108.879ZM898.679 108.879C898.672 108.12 899.308 107.648 900.238 107.648C901.14 107.648 901.769 108.12 901.783 108.879C901.769 109.658 901.133 110.096 900.238 110.096C899.308 110.096 898.672 109.658 898.679 108.879ZM918.364 106.91H909.477V108.305H916.655V108.359C916.655 109.002 916.648 109.645 916.62 110.328L909.094 110.602L909.313 111.996L916.531 111.641C916.443 112.481 916.299 113.397 916.053 114.43L917.789 114.594C918.357 111.894 918.357 110.171 918.364 108.359V106.91ZM908.178 116.768H919.526V115.346H908.178V116.768Z" fill="#374151"/>
<path d="M807.377 155.508H806.264V163.195H807.377V155.508ZM798.729 160.828L799.327 161.707C800.557 161.232 801.465 160.26 801.928 159.041C802.397 160.178 803.293 161.068 804.506 161.52L805.081 160.629C803.457 160.066 802.485 158.66 802.491 157.125V156.082H801.354V157.125C801.348 158.707 800.375 160.219 798.729 160.828ZM800.51 165.773H807.694V164.871H801.635V162.469H800.51V165.773ZM817.195 156.141H810.117V157.055H816.117C816.117 157.957 816.099 159.117 815.783 160.699H808.921V161.613H811.312V165.984H812.425V161.613H814.945V165.984H816.046V161.613H818.496V160.699H816.908C817.201 159.018 817.201 157.828 817.195 156.902V156.141ZM827.903 155.496H826.778V165.996H827.903V155.496ZM819.278 163.184L819.864 164.086C823.467 162.357 824.774 159.697 824.774 156.621H819.782V157.512H823.649C823.432 159.961 822.067 161.854 819.278 163.184ZM834.779 155.895V155.543H833.642V155.895C833.637 157.102 831.978 158.115 829.928 158.344L830.314 159.188C832.019 158.977 833.525 158.25 834.205 157.178C834.879 158.25 836.385 158.977 838.107 159.188L838.494 158.344C836.449 158.115 834.785 157.102 834.779 155.895ZM829.424 160.688H833.642V161.625H830.572V162.48H836.689V163.301H830.584V165.891H838.084V165.035H831.674V164.109H837.791V161.625H834.756V160.688H838.998V159.797H829.424V160.688ZM848.027 156.164H843.035V160.477H848.027V156.164ZM843.727 165.105L844.113 165.961C845.766 165.762 847.143 165.07 847.787 164.133C848.42 165.059 849.779 165.762 851.426 165.961L851.801 165.105C849.891 164.895 848.432 163.934 848.356 163.02H851.426V162.176H848.332V161.191H847.231V162.176H844.149V163.02H847.207C847.131 163.963 845.637 164.918 843.727 165.105ZM844.125 159.609V157.055H846.926V159.609H844.125ZM850.078 161.496H851.18V155.496H850.078V161.496ZM858.358 156.281C856.787 156.287 855.668 157.717 855.674 159.961C855.668 162.229 856.787 163.658 858.358 163.652C859.928 163.658 861.047 162.229 861.053 159.961C861.047 157.717 859.928 156.287 858.358 156.281ZM856.741 159.961C856.735 158.314 857.403 157.283 858.358 157.277C859.33 157.283 859.987 158.314 859.987 159.961C859.987 161.631 859.33 162.656 858.358 162.656C857.403 162.656 856.735 161.631 856.741 159.961ZM862.612 165.996H863.725V160.547H865.412V159.609H863.725V155.496H862.612V165.996ZM874.492 155.496H873.378V166.02H874.492V155.496ZM866.16 159.961C866.16 162.229 867.29 163.658 868.878 163.652C870.437 163.658 871.585 162.229 871.585 159.961C871.585 157.717 870.437 156.287 868.878 156.281C867.29 156.287 866.16 157.717 866.16 159.961ZM867.238 159.961C867.232 158.314 867.9 157.283 868.878 157.277C869.839 157.283 870.507 158.314 870.507 159.961C870.507 161.631 869.839 162.656 868.878 162.656C867.9 162.656 867.232 161.631 867.238 159.961ZM880.512 156.164H876.516V161.227H877.196C878.854 161.227 879.856 161.186 881.063 160.957L880.958 160.078C879.879 160.271 878.971 160.324 877.583 160.336V159.082H880.102V158.215H877.583V157.078H880.512V156.164ZM877.981 165.867H885.001V162.27H877.981V165.867ZM879.094 164.965V163.148H883.911V164.965H879.094ZM880.583 159H881.883V161.719H882.938V155.672H881.883V158.098H880.583V159ZM883.946 161.801H885.001V155.496H883.946V161.801ZM894.956 156.293H889.659V157.207H893.86C893.848 157.869 893.813 158.719 893.585 159.879L894.686 159.984C894.944 158.625 894.944 157.582 894.956 156.879V156.293ZM889.026 160.887L889.132 161.789C890.983 161.783 893.491 161.742 895.682 161.355L895.612 160.547C894.557 160.699 893.397 160.781 892.272 160.828V158.648H891.171V160.863C890.403 160.881 889.671 160.887 889.026 160.887ZM890.62 165.773H897.757V164.871H891.733V162.668H890.62V165.773ZM896.28 163.383H897.417V159.773H898.858V158.836H897.417V155.496H896.28V163.383ZM904.363 156.234H899.758V157.125H903.238V158.543H899.781V161.859H900.555C902.547 161.859 903.666 161.83 905.031 161.59L904.914 160.688C903.684 160.898 902.646 160.951 900.894 160.957V159.398H904.363V156.234ZM901.211 165.738H908.418V164.824H902.324V162.656H901.211V165.738ZM905.043 160.477H907V163.23H908.113V155.508H907V157.219H905.043V158.109H907V159.562H905.043V160.477ZM916.287 158.59V157.477H918.678V156.551H912.76V157.477H915.162V158.59C915.151 160.4 913.979 162.369 912.397 163.113L913.041 163.992C914.266 163.395 915.25 162.117 915.736 160.617C916.223 162.018 917.207 163.178 918.444 163.723L919.053 162.855C917.436 162.164 916.281 160.348 916.287 158.59ZM920.002 165.996H921.115V155.496H920.002V165.996ZM931.425 162.234H924.312V163.113H930.312V165.996H931.425V162.234ZM922.824 158.613C922.818 160.107 923.995 161.162 925.577 161.156C926.468 161.162 927.23 160.816 927.722 160.242H930.312V161.684H931.425V155.496H930.312V156.996H927.722C927.236 156.422 926.468 156.076 925.577 156.082C923.995 156.076 922.818 157.131 922.824 158.613ZM923.89 158.613C923.884 157.676 924.593 157.025 925.577 157.02C926.521 157.025 927.241 157.676 927.241 158.613C927.241 159.574 926.521 160.213 925.577 160.219C924.593 160.213 923.884 159.574 923.89 158.613ZM928.208 159.328C928.273 159.105 928.308 158.865 928.308 158.613C928.308 158.367 928.273 158.133 928.214 157.91H930.312V159.328H928.208ZM941.275 156.164H936.283V160.477H941.275V156.164ZM936.974 165.105L937.361 165.961C939.013 165.762 940.39 165.07 941.035 164.133C941.668 165.059 943.027 165.762 944.673 165.961L945.048 165.105C943.138 164.895 941.679 163.934 941.603 163.02H944.673V162.176H941.58V161.191H940.478V162.176H937.396V163.02H940.455C940.378 163.963 938.884 164.918 936.974 165.105ZM937.373 159.609V157.055H940.173V159.609H937.373ZM943.326 161.496H944.427V155.496H943.326V161.496ZM832.141 174.508H831.028V177.344H829.024V178.246H831.028V182.195H832.141V174.508ZM823.399 180.004L823.973 180.906C825.221 180.461 826.141 179.535 826.598 178.375C827.055 179.418 827.928 180.262 829.106 180.672L829.68 179.781C828.092 179.254 827.143 177.936 827.149 176.629V176.219H829.399V175.305H823.739V176.219H826.012V176.629C826.018 178.076 825.01 179.459 823.399 180.004ZM825.321 184.773H832.422V183.871H826.434V181.504H825.321V184.773ZM842.029 174.988H834.845V175.891H840.927C840.927 176.641 840.916 177.514 840.669 178.691H833.638V179.594H837.869V181.387H834.623V182.277H840.962V184.996H842.076V181.387H838.982V179.594H843.248V178.691H841.789C842.035 177.473 842.035 176.547 842.029 175.773V174.988ZM852.139 174.484H851.026V182.09H852.139V178.457H853.674V177.531H852.139V174.484ZM844.358 180.273H845.19C847.44 180.273 848.682 180.203 850.1 179.922L849.971 179.02C848.653 179.289 847.505 179.354 845.46 179.348V176.289H849.046V175.387H844.358V180.273ZM845.483 184.773H852.585V183.871H846.596V181.305H845.483V184.773ZM857.586 174.977C856.01 174.971 854.873 175.855 854.879 177.156C854.873 178.445 856.01 179.336 857.586 179.324C859.168 179.336 860.31 178.445 860.316 177.156C860.31 175.855 859.168 174.971 857.586 174.977ZM854.129 180.145L854.281 181.07C855.113 181.064 856.074 181.059 857.094 181.012V184.668H858.207V180.947C859.174 180.883 860.164 180.771 861.125 180.59L861.043 179.758C858.746 180.104 856.068 180.145 854.129 180.145ZM855.957 177.156C855.945 176.389 856.631 175.873 857.586 175.879C858.564 175.873 859.25 176.389 859.25 177.156C859.25 177.918 858.564 178.422 857.586 178.41C856.631 178.422 855.945 177.918 855.957 177.156ZM861.769 184.996H862.871V174.508H861.769V184.996ZM875.955 174.508H874.842V177.344H872.838V178.246H874.842V182.195H875.955V174.508ZM867.213 180.004L867.787 180.906C869.035 180.461 869.955 179.535 870.412 178.375C870.869 179.418 871.742 180.262 872.92 180.672L873.494 179.781C871.906 179.254 870.957 177.936 870.963 176.629V176.219H873.213V175.305H867.553V176.219H869.826V176.629C869.832 178.076 868.824 179.459 867.213 180.004ZM869.135 184.773H876.236V183.871H870.248V181.504H869.135V184.773ZM881.308 177.168V175.375H880.183V177.168C880.183 179.172 879.023 181.182 877.37 181.914L878.05 182.852C879.31 182.236 880.276 180.971 880.763 179.43C881.255 180.865 882.21 182.043 883.417 182.617L884.085 181.738C882.456 181.018 881.296 179.084 881.308 177.168ZM885.034 185.02H886.148V174.496H885.034V185.02ZM896.387 174.496H895.274V184.996H896.387V174.496ZM887.762 182.137L887.914 183.062C889.836 183.068 892.379 183.039 894.711 182.652L894.629 181.82C893.703 181.943 892.719 182.014 891.746 182.061V181.041C892.965 180.865 893.756 180.15 893.762 179.137C893.756 177.953 892.707 177.174 891.172 177.168C889.655 177.174 888.623 177.953 888.629 179.137C888.623 180.162 889.42 180.883 890.645 181.047V182.102C889.614 182.125 888.629 182.131 887.762 182.137ZM887.985 176.641H894.395V175.75H891.758V174.52H890.645V175.75H887.985V176.641ZM889.684 179.137C889.672 178.463 890.293 178.035 891.172 178.035C892.08 178.035 892.696 178.463 892.696 179.137C892.696 179.805 892.08 180.221 891.172 180.215C890.293 180.221 889.672 179.805 889.684 179.137ZM904.444 176.664V176.559H906.729V175.668H904.456V174.449H903.342V175.668H901.057V176.559H903.342V176.664C903.342 177.994 902.346 179.189 900.741 179.664L901.28 180.531C902.528 180.145 903.442 179.33 903.905 178.281C904.374 179.236 905.27 179.98 906.483 180.332L906.999 179.465C905.393 179.002 904.444 177.877 904.444 176.664ZM902.311 184.867H909.014V181.164H902.311V184.867ZM903.401 183.965V182.043H907.913V183.965H903.401ZM907.901 180.695H909.014V178.023H910.538V177.098H909.014V174.496H907.901V180.695ZM919.195 174.496H918.082V184.984H919.195V179.605H920.824V178.68H919.195V174.496ZM911.027 182.184L911.648 183.051C915.105 181.346 916.441 178.633 916.453 175.598H911.554V176.523H915.316C915.088 178.973 913.658 180.871 911.027 182.184Z" fill="#9CA3AF"/>
<g filter="url(#filter3_dd_1239_26774)">
<path d="M440 100C440 97.7909 441.791 96 444 96H670C672.209 96 674 97.7909 674 100V128H440V100Z" fill="white"/>
<path d="M440 128H674V208C674 210.209 672.209 212 670 212H444C441.791 212 440 210.209 440 208V128Z" fill="#FCFCFC"/>
</g>
<path d="M531.725 112.229H526.912V111.237C529.148 111.046 530.569 110.123 530.576 108.674C530.569 107.108 528.772 106.131 526.051 106.131C523.31 106.131 521.512 107.108 521.512 108.674C521.512 110.116 522.927 111.039 525.162 111.23V112.229H520.377V113.623H531.725V112.229ZM521.744 118.039H530.44V116.645H523.494V114.402H521.744V118.039ZM523.33 108.674C523.316 107.929 524.321 107.519 526.051 107.512C527.767 107.519 528.772 107.929 528.772 108.674C528.772 109.474 527.767 109.863 526.051 109.863C524.321 109.863 523.316 109.474 523.33 108.674ZM542.153 105.816H540.43V118.285H542.153V111.955H543.985V110.52H542.153V105.816ZM532.842 108.264H536.862V110.301H532.856V115.387H533.909C536.096 115.387 537.805 115.312 539.706 114.963L539.555 113.568C537.901 113.849 536.404 113.931 534.592 113.938V111.682H538.598V106.855H532.842V108.264ZM554.714 105.83H552.964V114.771H554.714V105.83ZM544.488 109.754C544.488 111.606 545.978 112.912 547.892 112.912C549.799 112.912 551.289 111.606 551.296 109.754C551.289 107.929 549.799 106.616 547.892 106.623C545.978 106.616 544.488 107.929 544.488 109.754ZM546.197 109.754C546.183 108.742 546.914 108.134 547.892 108.141C548.835 108.134 549.567 108.742 549.574 109.754C549.567 110.793 548.835 111.395 547.892 111.395C546.914 111.395 546.183 110.793 546.197 109.754ZM546.374 118.039H555.042V116.645H548.138V113.869H546.374V118.039ZM569.678 106.158H560.34V107.457H561.954V109.098H560.422V110.396H569.596V109.098H568.051V107.457H569.678V106.158ZM559.342 112.42H570.69V111.053H559.342V112.42ZM560.655 114.389H567.587V115.018H560.669V118.176H569.637V116.891H562.378V116.207H569.309V113.131H560.655V114.389ZM563.704 109.098V107.457H566.301V109.098H563.704ZM581.993 105.83H580.339V108.838H579.259V106.049H577.632V113.158H579.259V110.246H580.339V114.184H581.993V105.83ZM571.794 108.072H574.857V109.207H571.808V113.062H572.669C574.542 113.056 575.766 113.021 577.195 112.734L577.044 111.367C575.868 111.593 574.85 111.668 573.49 111.688V110.465H576.538V106.678H571.794V108.072ZM572.792 116.85L573.49 118.203C575.458 117.923 576.907 117.082 577.68 115.92C578.439 117.082 579.888 117.923 581.87 118.203L582.568 116.85C579.881 116.515 578.541 115.168 578.548 113.855V113.637H576.798V113.855C576.798 115.168 575.451 116.515 572.792 116.85ZM594.609 111.846H589.797V110.848H593.516V109.453H591.971V107.553H593.598V106.158H584.26V107.553H585.873V109.453H584.342V110.848H588.047V111.846H583.262V113.227H594.609V111.846ZM584.574 118.121H593.256V114.074H584.574V118.121ZM586.297 116.727V115.441H591.547V116.727H586.297ZM587.623 109.453V107.553H590.221V109.453H587.623Z" fill="#374151"/>
<path d="M491.899 152.949C492.637 152.943 493.229 152.352 493.235 151.613C493.229 150.887 492.637 150.295 491.899 150.289C491.172 150.295 490.58 150.887 490.574 151.613C490.58 152.352 491.172 152.943 491.899 152.949ZM510.901 151.027H506.658V150.014C508.615 149.896 509.852 149.129 509.858 147.898C509.852 146.592 508.381 145.795 506.108 145.789C503.822 145.795 502.352 146.592 502.358 147.898C502.352 149.129 503.588 149.896 505.557 150.014V151.027H501.326V151.941H510.901V151.027ZM502.533 155.773H509.822V154.871H503.658V152.727H502.533V155.773ZM503.506 147.898C503.5 147.148 504.496 146.686 506.108 146.691C507.713 146.686 508.715 147.148 508.709 147.898C508.715 148.689 507.713 149.123 506.108 149.129C504.496 149.123 503.5 148.689 503.506 147.898ZM519.757 145.496H518.656V156.02H519.757V150.535H521.445V149.598H519.757V145.496ZM511.988 147.348H515.691V149.398H512.011V153.512H512.866C514.835 153.5 516.253 153.43 517.894 153.125L517.788 152.223C516.253 152.504 514.911 152.568 513.113 152.574V150.301H516.792V146.445H511.988V147.348ZM530.536 145.508H529.422V153.137H530.536V145.508ZM522.039 148.812C522.045 150.354 523.252 151.426 524.84 151.426C526.422 151.426 527.629 150.354 527.629 148.812C527.629 147.295 526.422 146.217 524.84 146.211C523.252 146.217 522.045 147.295 522.039 148.812ZM523.129 148.812C523.123 147.846 523.862 147.184 524.84 147.184C525.801 147.184 526.539 147.846 526.539 148.812C526.539 149.803 525.801 150.453 524.84 150.453C523.862 150.453 523.123 149.803 523.129 148.812ZM523.668 155.773H530.852V154.871H524.793V152.363H523.668V155.773ZM543.421 146.504H535.874V147.406H542.307V147.629C542.313 148.918 542.313 150.324 541.944 152.223L543.034 152.34C543.409 150.33 543.409 148.947 543.421 147.629V146.504ZM534.889 154.578H544.464V153.652H540.866V150.254H539.776V153.652H538.264V150.254H537.151V153.652H534.889V154.578ZM554.738 151.73H545.129V152.609H547.554V155.996H548.668V152.609H551.199V155.996H552.324V152.609H554.738V151.73ZM546.265 146.785H552.465V147.852H546.301V150.746H553.824V149.844H547.414V148.684H553.601V145.871H546.265V146.785ZM564.075 145.496H562.962V155.996H564.075V145.496ZM555.45 153.137L555.602 154.062C557.524 154.068 560.067 154.039 562.399 153.652L562.317 152.82C561.391 152.943 560.407 153.014 559.434 153.061V152.041C560.653 151.865 561.444 151.15 561.45 150.137C561.444 148.953 560.395 148.174 558.86 148.168C557.343 148.174 556.311 148.953 556.317 150.137C556.311 151.162 557.108 151.883 558.333 152.047V153.102C557.302 153.125 556.317 153.131 555.45 153.137ZM555.673 147.641H562.083V146.75H559.446V145.52H558.333V146.75H555.673V147.641ZM557.372 150.137C557.36 149.463 557.981 149.035 558.86 149.035C559.768 149.035 560.384 149.463 560.384 150.137C560.384 150.805 559.768 151.221 558.86 151.215C557.981 151.221 557.36 150.805 557.372 150.137ZM573.995 146.164H569.003V150.477H573.995V146.164ZM569.694 155.105L570.081 155.961C571.734 155.762 573.11 155.07 573.755 154.133C574.388 155.059 575.747 155.762 577.394 155.961L577.769 155.105C575.859 154.895 574.4 153.934 574.323 153.02H577.394V152.176H574.3V151.191H573.198V152.176H570.116V153.02H573.175C573.099 153.963 571.605 154.918 569.694 155.105ZM570.093 149.609V147.055H572.894V149.609H570.093ZM576.046 151.496H577.148V145.496H576.046V151.496ZM591.122 153.793H586.833V151.555H590.208V150.676H588.638V147.371H590.244V146.469H582.333V147.371H583.927V150.676H582.357V151.555H585.732V153.793H581.513V154.742H591.122V153.793ZM585.029 150.676V147.371H587.548V150.676H585.029ZM600.518 152.211H593.545V155.867H600.518V152.211ZM592.186 146.926H595.807V148.18H592.198V151.285H593.018C594.87 151.291 596.211 151.244 597.811 150.992L597.717 150.078C596.235 150.312 594.981 150.371 593.299 150.371V149.023H596.885V146.012H592.186V146.926ZM594.647 154.965V153.078H599.416V154.965H594.647ZM597.506 148.707H599.405V151.672H600.518V145.508H599.405V147.793H597.506V148.707ZM608.692 148.59V147.477H611.083V146.551H605.165V147.477H607.567V148.59C607.555 150.4 606.384 152.369 604.801 153.113L605.446 153.992C606.671 153.395 607.655 152.117 608.141 150.617C608.628 152.018 609.612 153.178 610.848 153.723L611.458 152.855C609.841 152.164 608.686 150.348 608.692 148.59ZM612.407 155.996H613.52V145.496H612.407V155.996ZM623.806 145.508H622.693V151.672H620.584V152.457H622.693V153.465H623.806V145.508ZM615.029 150.301L615.17 151.191C616.019 151.191 616.998 151.191 618.017 151.15V153.137H619.131V151.092C620.056 151.027 621 150.934 621.896 150.781L621.826 149.984C619.588 150.266 616.969 150.283 615.029 150.301ZM615.849 147.758C615.844 148.877 616.91 149.586 618.463 149.586C619.998 149.586 621.064 148.877 621.064 147.758C621.064 146.645 619.998 145.906 618.463 145.906C616.904 145.906 615.844 146.645 615.849 147.758ZM616.482 155.773H624.064V154.871H617.584V152.691H616.482V155.773ZM616.904 147.758C616.898 147.131 617.531 146.727 618.463 146.738C619.359 146.727 620.004 147.131 620.01 147.758C620.004 148.379 619.359 148.766 618.463 148.766C617.531 148.766 616.898 148.379 616.904 147.758ZM488.061 171.949C488.799 171.943 489.391 171.352 489.397 170.613C489.391 169.887 488.799 169.295 488.061 169.289C487.334 169.295 486.742 169.887 486.736 170.613C486.742 171.352 487.334 171.943 488.061 171.949ZM505.668 164.496H504.555V175.02H505.668V169.477H507.356V168.562H505.668V164.496ZM497.934 172.406H498.777C500.729 172.412 502.123 172.359 503.77 172.066L503.629 171.129C502.129 171.398 500.811 171.475 499.047 171.48V166.406H502.844V165.504H497.934V172.406ZM517.478 165.984H515.99V164.496H514.876V170.695H515.99V169.16H517.478V168.234H515.99V166.898H517.478V165.984ZM507.904 167.602C507.892 169.066 509.087 170.092 510.693 170.098C512.304 170.092 513.482 169.066 513.493 167.602C513.482 166.125 512.304 165.105 510.693 165.105C509.087 165.105 507.892 166.125 507.904 167.602ZM508.993 167.602C508.982 166.676 509.708 166.037 510.693 166.043C511.677 166.037 512.398 166.676 512.404 167.602C512.398 168.533 511.677 169.148 510.693 169.16C509.708 169.148 508.982 168.533 508.993 167.602ZM509.075 172.98C509.075 174.234 510.435 174.979 512.603 174.973C514.747 174.979 516.083 174.234 516.083 172.98C516.083 171.721 514.747 170.982 512.603 170.977C510.435 170.982 509.075 171.721 509.075 172.98ZM510.189 172.98C510.183 172.277 511.085 171.873 512.603 171.879C514.109 171.873 514.999 172.277 514.993 172.98C514.999 173.695 514.109 174.088 512.603 174.082C511.085 174.088 510.183 173.695 510.189 172.98ZM526.241 164.508H525.127V172.359H526.241V168.809H527.764V167.883H526.241V164.508ZM518.002 166.629H524.26V165.727H521.694V164.496H520.58V165.727H518.002V166.629ZM518.577 169.113C518.571 170.303 519.608 171.076 521.131 171.082C522.637 171.076 523.674 170.303 523.674 169.113C523.674 167.912 522.637 167.127 521.131 167.133C519.608 167.127 518.571 167.912 518.577 169.113ZM519.584 174.773H526.686V173.871H520.698V171.738H519.584V174.773ZM519.655 169.113C519.643 168.422 520.241 167.994 521.131 167.988C522.022 167.994 522.62 168.422 522.631 169.113C522.62 169.799 522.022 170.221 521.131 170.215C520.241 170.221 519.643 169.799 519.655 169.113ZM539.465 164.965H532.176V165.867H538.364V165.891C538.364 166.219 538.364 166.553 538.352 166.91L531.907 167.086L532.059 168.023L538.305 167.736C538.264 168.205 538.188 168.709 538.071 169.277L539.173 169.371C539.465 167.936 539.465 166.881 539.465 165.891V164.965ZM531.063 170.906H540.614V170.016H535.973V168.539H534.848V170.016H531.063V170.906ZM532.247 174.832H539.688V173.93H533.36V171.715H532.247V174.832ZM550.256 164.508H549.201V172.359H550.256V164.508ZM541.771 170.707H542.451C544.109 170.701 545.111 170.654 546.318 170.426L546.213 169.535C545.135 169.752 544.226 169.787 542.838 169.793V168.422H545.357V167.555H542.838V166.242H545.767V165.34H541.771V170.707ZM543.342 174.773H550.56V173.871H544.467V171.492H543.342V174.773ZM545.838 168.34H547.138V172.102H548.193V164.707H547.138V167.438H545.838V168.34ZM561.163 172.77H551.554V173.684H561.163V172.77ZM552.057 170.238L552.491 171.129C554.225 170.812 555.667 169.928 556.341 168.645C557.02 169.928 558.462 170.812 560.202 171.129L560.647 170.238C558.497 169.893 556.962 168.586 556.909 167.016H560.272V166.113H556.897V164.719H555.796V166.113H552.421V167.016H555.784C555.731 168.586 554.184 169.893 552.057 170.238ZM572.876 164.508H571.763V171.574H572.876V168.539H574.376V167.625H572.876V164.508ZM564.544 170.402L564.661 171.293C566.513 171.293 569.003 171.275 571.259 170.883L571.165 170.086C570.286 170.215 569.337 170.291 568.4 170.338V169.67C569.583 169.529 570.327 168.967 570.333 168.129C570.327 167.168 569.343 166.57 567.837 166.582C566.331 166.57 565.329 167.168 565.341 168.129C565.329 168.973 566.091 169.535 567.286 169.67V170.379C566.302 170.402 565.359 170.402 564.544 170.402ZM564.814 166.23H570.872V165.398H568.4V164.414H567.286V165.398H564.814V166.23ZM565.857 172.934H571.763V174.996H572.876V172.066H565.857V172.934ZM566.396 168.129C566.396 167.625 566.941 167.332 567.837 167.344C568.722 167.332 569.273 167.625 569.267 168.129C569.273 168.621 568.722 168.943 567.837 168.938C566.941 168.943 566.396 168.621 566.396 168.129ZM584.475 172.77H580.197V170.613H583.338V165.211H582.237V167.016H577.08V165.211H575.967V170.613H579.096V172.77H574.865V173.695H584.475V172.77ZM577.08 169.711V167.918H582.237V169.711H577.08ZM586.312 171.117C586.763 171.111 587.138 170.742 587.144 170.285C587.138 169.828 586.763 169.453 586.312 169.453C585.855 169.453 585.474 169.828 585.48 170.285C585.474 170.742 585.855 171.111 586.312 171.117ZM597.758 170.426H588.149V171.34H590.54V174.996H591.688V171.34H594.196V174.996H595.321V171.34H597.758V170.426ZM589.192 167.215C589.198 168.615 590.709 169.5 592.93 169.488C595.151 169.5 596.674 168.615 596.668 167.215C596.674 165.797 595.151 164.895 592.93 164.895C590.709 164.895 589.198 165.797 589.192 167.215ZM590.34 167.215C590.334 166.33 591.372 165.791 592.93 165.785C594.495 165.791 595.526 166.33 595.532 167.215C595.526 168.076 594.495 168.609 592.93 168.609C591.372 168.609 590.334 168.076 590.34 167.215ZM602.279 167.59V166.477H604.67V165.551H598.752V166.477H601.154V167.59C601.142 169.4 599.97 171.369 598.388 172.113L599.033 172.992C600.257 172.395 601.242 171.117 601.728 169.617C602.214 171.018 603.199 172.178 604.435 172.723L605.045 171.855C603.427 171.164 602.273 169.348 602.279 167.59ZM605.994 174.996H607.107V164.496H605.994V174.996ZM614.51 165.293H609.214V166.207H613.415C613.403 166.869 613.368 167.719 613.139 168.879L614.241 168.984C614.499 167.625 614.499 166.582 614.51 165.879V165.293ZM608.581 169.887L608.686 170.789C610.538 170.783 613.046 170.742 615.237 170.355L615.167 169.547C614.112 169.699 612.952 169.781 611.827 169.828V167.648H610.725V169.863C609.958 169.881 609.225 169.887 608.581 169.887ZM610.175 174.773H617.311V173.871H611.288V171.668H610.175V174.773ZM615.835 172.383H616.971V168.773H618.413V167.836H616.971V164.496H615.835V172.383ZM627.633 164.496H626.519V175.02H627.633V164.496ZM619.5 166.348H623.285V168.387H619.512V172.5H620.402C622.26 172.494 623.842 172.424 625.699 172.113L625.594 171.199C623.836 171.486 622.353 171.568 620.648 171.574V169.277H624.422V165.445H619.5V166.348ZM474.976 190.949C475.715 190.943 476.307 190.352 476.312 189.613C476.307 188.887 475.715 188.295 474.976 188.289C474.25 188.295 473.658 188.887 473.652 189.613C473.658 190.352 474.25 190.943 474.976 190.949ZM488.049 186.168V184.375H486.935V186.168C486.93 188.09 485.84 190.105 484.228 190.879L484.92 191.781C486.115 191.16 487.035 189.9 487.504 188.412C487.967 189.812 488.851 190.984 489.994 191.582L490.685 190.691C489.121 189.93 488.037 188.025 488.049 186.168ZM491.471 193.996H492.584V188.629H494.271V187.68H492.584V183.496H491.471V193.996ZM497.562 183.977C495.956 183.965 494.802 184.984 494.808 186.414C494.802 187.861 495.956 188.875 497.562 188.875C498.956 188.875 500.034 188.066 500.251 186.859H502.296V189.133H503.409V183.496H502.296V185.945H500.245C500.017 184.768 498.944 183.965 497.562 183.977ZM495.874 186.414C495.868 185.512 496.571 184.896 497.562 184.902C498.534 184.896 499.226 185.512 499.226 186.414C499.226 187.311 498.534 187.938 497.562 187.938C496.571 187.938 495.868 187.311 495.874 186.414ZM496.565 193.867H503.409V189.637H502.296V190.855H497.667V189.637H496.565V193.867ZM497.667 192.953V191.734H502.296V192.953H497.667ZM514.516 191.746H510.215V189.25H509.113V191.746H504.906V192.66H514.516V191.746ZM505.235 188.523L505.727 189.438C507.42 189.104 508.967 188.043 509.658 186.613C510.35 188.049 511.908 189.104 513.613 189.438L514.094 188.523C512.067 188.184 510.238 186.625 510.238 184.961V184.164H509.067V184.961C509.061 186.625 507.256 188.184 505.235 188.523ZM524.146 183.496H523.079V187.645H521.779V183.777H520.736V193.492H521.779V188.547H523.079V193.996H524.146V183.496ZM515.122 190.996L515.767 191.77C518.773 190.076 519.687 187.592 519.693 184.832H515.568V185.746H518.609C518.433 187.885 517.454 189.672 515.122 190.996ZM527.295 192.191H525.983L525.362 195.426H526.358L527.295 192.191ZM540.743 189.016H531.145V189.895H540.743V189.016ZM532.235 191.699H538.387V193.996H539.524V190.809H532.235V191.699ZM532.399 188.125H539.641V187.27H533.524V186.344H539.301V185.5H533.524V184.645H539.571V183.766H532.399V188.125ZM549.775 184.152H542.592V185.066H548.674V185.078C548.668 186.057 548.668 187.152 548.357 188.652H541.42V189.566H545.615V194.008H546.74V189.566H550.994V188.652H549.482C549.775 187.158 549.775 186.074 549.775 185.078V184.152ZM556.979 184.539H552.069V191.359H556.979V184.539ZM553.159 190.457V185.418H555.878V190.457H553.159ZM558.737 193.996H559.85V188.547H561.538V187.609H559.85V183.496H558.737V193.996ZM570.184 183.496H569.059V189.695H570.184V187.07H571.695V186.156H570.184V183.496ZM562.367 188.934H563.199C565.473 188.934 566.727 188.881 568.133 188.594L568.027 187.691C566.703 187.961 565.537 188.02 563.469 188.031V185.172H567.055V184.27H562.367V188.934ZM563.258 191.934C563.258 193.229 564.617 193.979 566.785 193.973C568.93 193.979 570.266 193.229 570.266 191.934C570.266 190.65 568.93 189.9 566.785 189.895C564.617 189.9 563.258 190.65 563.258 191.934ZM564.359 191.934C564.354 191.207 565.268 190.791 566.785 190.797C568.273 190.791 569.193 191.207 569.199 191.934C569.193 192.66 568.273 193.088 566.785 193.082C565.268 193.088 564.354 192.66 564.359 191.934ZM574.06 192.191H572.747L572.126 195.426H573.122L574.06 192.191ZM586.663 183.496H585.538V193.996H586.663V183.496ZM578.038 191.184L578.624 192.086C582.228 190.357 583.535 187.697 583.535 184.621H578.542V185.512H582.41C582.193 187.961 580.827 189.854 578.038 191.184ZM593.54 183.895V183.543H592.403V183.895C592.397 185.102 590.739 186.115 588.688 186.344L589.075 187.188C590.78 186.977 592.286 186.25 592.965 185.178C593.639 186.25 595.145 186.977 596.868 187.188L597.254 186.344C595.209 186.115 593.545 185.102 593.54 183.895ZM588.184 188.688H592.403V189.625H589.333V190.48H595.45V191.301H589.344V193.891H596.844V193.035H590.434V192.109H596.551V189.625H593.516V188.688H597.758V187.797H588.184V188.688ZM603.744 184.539H598.834V191.359H603.744V184.539ZM599.923 190.457V185.418H602.642V190.457H599.923ZM605.502 193.996H606.615V188.547H608.302V187.609H606.615V183.496H605.502V193.996ZM617.675 183.508H616.62V190.598H617.675V183.508ZM608.733 189.508L609.272 190.316C610.96 189.59 612.044 188.611 612.671 187.422H614.51V189.66H615.565V183.684H614.51V186.52H613.046C613.257 185.852 613.35 185.125 613.35 184.352H609.237V185.254H612.266C612.231 185.641 612.161 186.004 612.044 186.355L608.757 186.543L608.921 187.457L611.68 187.164C611.135 188.107 610.192 188.898 608.733 189.508ZM609.987 193.082L610.432 193.949C612.055 193.68 613.444 192.877 614.106 191.758C614.762 192.877 616.151 193.68 617.78 193.949L618.214 193.082C616.233 192.789 614.651 191.617 614.651 190.293V189.988H613.55V190.293C613.555 191.617 611.973 192.789 609.987 193.082ZM631.345 188.758H621.735V189.66H626.06V191.699H627.185V189.66H631.345V188.758ZM622.79 185.875C622.784 187.182 624.272 187.996 626.528 187.996C628.784 187.996 630.261 187.182 630.255 185.875C630.261 184.562 628.784 183.748 626.528 183.742C624.272 183.748 622.784 184.562 622.79 185.875ZM622.942 193.773H630.278V192.859H624.056V190.691H622.942V193.773ZM623.985 185.875C623.974 185.096 624.993 184.639 626.528 184.633C628.069 184.639 629.077 185.096 629.083 185.875C629.077 186.631 628.069 187.094 626.528 187.094C624.993 187.094 623.974 186.631 623.985 185.875ZM634.904 184.105C633.322 184.1 632.145 185.143 632.15 186.625C632.145 188.09 633.322 189.139 634.904 189.133C635.772 189.139 636.516 188.816 637.008 188.277H639.639V189.695H640.752V183.496H639.639V184.973H637.014C636.522 184.428 635.777 184.1 634.904 184.105ZM633.217 186.625C633.211 185.682 633.92 185.055 634.904 185.066C635.859 185.055 636.568 185.682 636.568 186.625C636.568 187.545 635.859 188.195 634.904 188.184C633.92 188.195 633.211 187.545 633.217 186.625ZM633.686 191.957C633.68 193.234 635.039 193.979 637.236 193.973C639.422 193.979 640.781 193.234 640.787 191.957C640.781 190.674 639.422 189.924 637.236 189.93C635.039 189.924 633.68 190.674 633.686 191.957ZM634.775 191.957C634.77 191.207 635.695 190.791 637.236 190.785C638.777 190.791 639.697 191.207 639.697 191.957C639.697 192.678 638.777 193.1 637.236 193.094C635.695 193.1 634.77 192.678 634.775 191.957ZM637.524 185.863H639.639V187.363H637.524C637.594 187.135 637.635 186.883 637.635 186.625C637.635 186.355 637.594 186.098 637.524 185.863Z" fill="#9CA3AF"/>
<g filter="url(#filter4_dd_1239_26774)">
<path d="M440 243C440 240.791 441.791 239 444 239H670C672.209 239 674 240.791 674 243V271H440V243Z" fill="white"/>
<path d="M440 271H674V322C674 324.209 672.209 326 670 326H444C441.791 326 440 324.209 440 322V271Z" fill="#FCFCFC"/>
</g>
<path d="M513.94 248.816H512.176V261.258H513.94V248.816ZM503.522 257.73L504.438 259.125C508.881 257.026 510.201 253.889 510.207 250.115H504.192V251.482H508.43C508.15 254.244 506.735 256.213 503.522 257.73ZM522.017 249.145V248.885H520.226V249.145C520.212 250.361 518.79 251.585 516.001 251.879L516.589 253.191C518.722 252.952 520.301 252.139 521.108 250.997C521.907 252.139 523.493 252.952 525.653 253.191L526.228 251.879C523.445 251.585 522.017 250.361 522.017 249.145ZM515.441 255.078H520.226V255.898H516.753V257.225H523.685V257.881H516.767V261.176H525.735V259.863H518.476V259.111H525.407V255.898H521.976V255.078H526.788V253.711H515.441V255.078ZM531.98 251.633V249.773H530.23V251.633C530.23 253.943 529.239 256.322 527.127 257.293L528.207 258.701C529.615 258.004 530.572 256.685 531.119 255.078C531.632 256.575 532.534 257.806 533.867 258.469L534.92 257.074C532.924 256.11 531.973 253.861 531.98 251.633ZM535.467 261.258H537.217V255.092H539.049V253.615H537.217V248.816H535.467V261.258ZM542.832 249.35C540.918 249.336 539.51 250.587 539.524 252.289C539.51 254.025 540.918 255.27 542.832 255.27C544.432 255.27 545.71 254.34 546.032 252.973H548.11V255.502H549.846V248.816H548.11V251.578H546.025C545.683 250.245 544.418 249.336 542.832 249.35ZM541.178 252.289C541.171 251.359 541.855 250.792 542.832 250.799C543.776 250.792 544.453 251.359 544.459 252.289C544.453 253.219 543.776 253.807 542.832 253.807C541.855 253.807 541.171 253.219 541.178 252.289ZM541.547 261.121H549.846V256.049H548.11V257.252H543.27V256.049H541.547V261.121ZM543.27 259.713V258.592H548.11V259.713H543.27ZM561.272 248.816H559.509V261.258H561.272V255.324H562.899V253.875H561.272V248.816ZM551.169 257.744L551.401 259.166C553.5 259.173 556.357 259.152 559.003 258.66L558.894 257.389C557.971 257.519 556.979 257.601 555.995 257.655V256.65C557.308 256.397 558.183 255.55 558.196 254.395C558.183 253.007 556.911 252.057 555.134 252.057C553.322 252.057 552.064 253.007 552.071 254.395C552.064 255.55 552.926 256.391 554.245 256.65V257.717C553.138 257.744 552.078 257.744 551.169 257.744ZM551.415 251.564H558.798V250.197H555.995V248.885H554.245V250.197H551.415V251.564ZM553.726 254.395C553.719 253.752 554.279 253.39 555.134 253.383C555.961 253.39 556.515 253.752 556.515 254.395C556.515 255.051 555.961 255.406 555.134 255.406C554.279 255.406 553.719 255.051 553.726 254.395ZM565.507 250.006H563.757V258.277H564.632C566.232 258.284 567.572 258.229 569.103 257.895L568.871 256.432C567.702 256.678 566.649 256.76 565.507 256.78V250.006ZM567.257 254.162H569.746V260.711H571.4V249.049H569.746V252.754H567.257V254.162ZM572.425 261.258H574.066V248.816H572.425V261.258ZM585.383 255.242H578.356V253.82H585V252.453H578.356V251.141H585.287V249.732H576.578V256.623H585.383V255.242ZM575.239 259.809H586.627V258.387H575.239V259.809ZM597.821 248.83H596.044V257.197H593.515V258.51H596.044V261.258H597.821V248.83ZM587.143 255.133L587.362 256.555C588.244 256.555 589.228 256.548 590.261 256.514V260.889H592.024V256.425C593.132 256.35 594.253 256.227 595.347 256.035L595.251 254.764C592.564 255.119 589.475 255.133 587.143 255.133ZM588.018 251.879C588.012 253.41 589.351 254.422 591.218 254.422C593.057 254.422 594.41 253.41 594.417 251.879C594.41 250.382 593.057 249.329 591.218 249.322C589.351 249.329 588.012 250.382 588.018 251.879ZM589.659 251.879C589.652 251.12 590.288 250.648 591.218 250.648C592.12 250.648 592.749 251.12 592.763 251.879C592.749 252.658 592.113 253.096 591.218 253.096C590.288 253.096 589.652 252.658 589.659 251.879ZM609.343 249.91H600.457V251.305H607.634V251.359C607.634 252.002 607.628 252.645 607.6 253.328L600.074 253.602L600.293 254.996L607.511 254.641C607.422 255.481 607.279 256.397 607.033 257.43L608.769 257.594C609.336 254.894 609.336 253.171 609.343 251.359V249.91ZM599.158 259.768H610.505V258.346H599.158V259.768Z" fill="#374151"/>
<path d="M479.012 289.949C479.75 289.943 480.342 289.352 480.348 288.613C480.342 287.887 479.75 287.295 479.012 287.289C478.286 287.295 477.694 287.887 477.688 288.613C477.694 289.352 478.286 289.943 479.012 289.949ZM497.17 282.496H496.045V292.996H497.17V282.496ZM488.545 290.184L489.131 291.086C492.735 289.357 494.041 286.697 494.041 283.621H489.049V284.512H492.916C492.7 286.961 491.334 288.854 488.545 290.184ZM504.046 282.895V282.543H502.91V282.895C502.904 284.102 501.246 285.115 499.195 285.344L499.582 286.188C501.287 285.977 502.793 285.25 503.472 284.178C504.146 285.25 505.652 285.977 507.375 286.188L507.761 285.344C505.716 285.115 504.052 284.102 504.046 282.895ZM498.691 287.688H502.91V288.625H499.839V289.48H505.957V290.301H499.851V292.891H507.351V292.035H500.941V291.109H507.058V288.625H504.023V287.688H508.265V286.797H498.691V287.688ZM512.551 283.117H511.438L508.708 293.277H509.821L512.551 283.117ZM521.736 282.496H520.623V285.168H518.666V286.082H520.623V288.742H521.736V282.496ZM512.982 287.793L513.568 288.684C514.822 288.221 515.742 287.277 516.199 286.105C516.656 287.143 517.523 287.986 518.701 288.391L519.275 287.512C517.687 286.973 516.738 285.678 516.744 284.348V284.125H518.994V283.223H513.334V284.125H515.607V284.359C515.613 285.807 514.611 287.225 512.982 287.793ZM514.67 291.016C514.664 292.264 516.012 292.99 518.221 292.996C520.418 292.99 521.765 292.264 521.771 291.016C521.765 289.768 520.418 289.041 518.221 289.035C516.012 289.041 514.664 289.768 514.67 291.016ZM515.771 291.016C515.765 290.301 516.68 289.896 518.221 289.902C519.75 289.896 520.664 290.301 520.67 291.016C520.664 291.725 519.75 292.129 518.221 292.117C516.68 292.129 515.765 291.725 515.771 291.016ZM526.409 284.805V284.711H528.214V283.82H526.409V282.613H525.354V283.82H523.526V284.711H525.354V284.805C525.349 286.076 524.622 287.277 523.292 287.816L523.819 288.637C524.839 288.221 525.542 287.436 525.911 286.48C526.286 287.359 526.977 288.08 527.968 288.461L528.495 287.617C527.159 287.143 526.409 285.988 526.409 284.805ZM525.05 290.359H531.085V292.996H532.186V289.457H525.05V290.359ZM528.87 288.883H529.936V286.164H531.132V288.93H532.186V282.508H531.132V285.25H529.936V282.684H528.87V288.883ZM537.094 283.117H535.981L533.25 293.277H534.363L537.094 283.117ZM546.22 282.496H545.107V293.02H546.22V282.496ZM538.111 290.5H543.15V283.375H542.048V286.07H539.224V283.375H538.111V290.5ZM539.224 289.586V286.949H542.048V289.586H539.224ZM557.385 290.723H547.776V291.637H557.385V290.723ZM548.221 288.098L548.678 288.988C550.342 288.666 551.895 287.652 552.569 286.258C553.254 287.641 554.819 288.625 556.518 288.941L556.963 288.062C554.965 287.746 553.143 286.328 553.143 284.723V284.395H556.553V283.492H548.573V284.395H551.983V284.723C551.983 286.328 550.172 287.781 548.221 288.098ZM567.636 290.793H563.347V288.555H566.722V287.676H565.152V284.371H566.757V283.469H558.847V284.371H560.441V287.676H558.871V288.555H562.246V290.793H558.027V291.742H567.636V290.793ZM561.542 287.676V284.371H564.062V287.676H561.542ZM577.032 289.211H570.059V292.867H577.032V289.211ZM568.7 283.926H572.321V285.18H568.711V288.285H569.532C571.383 288.291 572.725 288.244 574.325 287.992L574.231 287.078C572.749 287.312 571.495 287.371 569.813 287.371V286.023H573.399V283.012H568.7V283.926ZM571.161 291.965V290.078H575.93V291.965H571.161ZM574.02 285.707H575.919V288.672H577.032V282.508H575.919V284.793H574.02V285.707ZM590.069 282.496H588.944V292.996H590.069V282.496ZM581.444 290.184L582.03 291.086C585.634 289.357 586.94 286.697 586.94 283.621H581.948V284.512H585.815C585.598 286.961 584.233 288.854 581.444 290.184ZM598.187 283.398H595.633V282.426H594.519V283.398H591.976V284.23H598.187V283.398ZM591.637 288.391L591.789 289.258C593.676 289.258 596.184 289.223 598.457 288.848L598.375 288.074C597.502 288.186 596.564 288.262 595.633 288.309V287.682C596.846 287.547 597.631 286.99 597.637 286.152C597.631 285.18 596.6 284.57 595.082 284.582C593.541 284.57 592.533 285.18 592.539 286.152C592.533 286.99 593.301 287.547 594.519 287.682V288.35C593.494 288.385 592.498 288.391 591.637 288.391ZM593.148 290.887H599.184V292.996H600.297V290.02H593.148V290.887ZM593.594 286.152C593.6 285.637 594.18 285.332 595.082 285.344C595.973 285.332 596.57 285.637 596.57 286.152C596.57 286.639 595.973 286.943 595.082 286.938C594.18 286.943 593.6 286.639 593.594 286.152ZM599.184 289.551H600.297V282.52H599.184V289.551ZM610.194 283.164H605.201V287.477H610.194V283.164ZM605.893 292.105L606.279 292.961C607.932 292.762 609.309 292.07 609.953 291.133C610.586 292.059 611.945 292.762 613.592 292.961L613.967 292.105C612.057 291.895 610.598 290.934 610.522 290.02H613.592V289.176H610.498V288.191H609.397V289.176H606.315V290.02H609.373C609.297 290.963 607.803 291.918 605.893 292.105ZM606.291 286.609V284.055H609.092V286.609H606.291ZM612.244 288.496H613.346V282.496H612.244V288.496ZM627.309 287.758H617.7V288.66H622.024V290.699H623.149V288.66H627.309V287.758ZM618.754 284.875C618.748 286.182 620.237 286.996 622.493 286.996C624.748 286.996 626.225 286.182 626.219 284.875C626.225 283.562 624.748 282.748 622.493 282.742C620.237 282.748 618.748 283.562 618.754 284.875ZM618.907 292.773H626.243V291.859H620.02V289.691H618.907V292.773ZM619.95 284.875C619.938 284.096 620.957 283.639 622.493 283.633C624.034 283.639 625.041 284.096 625.047 284.875C625.041 285.631 624.034 286.094 622.493 286.094C620.957 286.094 619.938 285.631 619.95 284.875ZM630.869 283.105C629.287 283.1 628.109 284.143 628.115 285.625C628.109 287.09 629.287 288.139 630.869 288.133C631.736 288.139 632.48 287.816 632.972 287.277H635.603V288.695H636.716V282.496H635.603V283.973H632.978C632.486 283.428 631.742 283.1 630.869 283.105ZM629.181 285.625C629.175 284.682 629.884 284.055 630.869 284.066C631.824 284.055 632.533 284.682 632.533 285.625C632.533 286.545 631.824 287.195 630.869 287.184C629.884 287.195 629.175 286.545 629.181 285.625ZM629.65 290.957C629.644 292.234 631.003 292.979 633.201 292.973C635.386 292.979 636.746 292.234 636.751 290.957C636.746 289.674 635.386 288.924 633.201 288.93C631.003 288.924 629.644 289.674 629.65 290.957ZM630.74 290.957C630.734 290.207 631.66 289.791 633.201 289.785C634.742 289.791 635.662 290.207 635.662 290.957C635.662 291.678 634.742 292.1 633.201 292.094C631.66 292.1 630.734 291.678 630.74 290.957ZM633.488 284.863H635.603V286.363H633.488C633.558 286.135 633.599 285.883 633.599 285.625C633.599 285.355 633.558 285.098 633.488 284.863ZM480.962 308.949C481.7 308.943 482.292 308.352 482.298 307.613C482.292 306.887 481.7 306.295 480.962 306.289C480.235 306.295 479.644 306.887 479.638 307.613C479.644 308.352 480.235 308.943 480.962 308.949ZM499.144 301.508H498.03V304.367H495.997C495.798 303.055 494.69 302.164 493.296 302.164C491.714 302.164 490.536 303.242 490.542 304.777C490.536 306.307 491.714 307.402 493.296 307.402C494.655 307.402 495.745 306.541 495.98 305.281H498.03V309.219H499.144V301.508ZM491.608 304.777C491.603 303.793 492.329 303.143 493.296 303.137C494.239 303.143 494.96 303.793 494.96 304.777C494.96 305.762 494.239 306.436 493.296 306.441C492.329 306.436 491.603 305.762 491.608 304.777ZM492.323 311.773H499.425V310.871H493.437V308.434H492.323V311.773ZM510.238 307.426H505.985V306.383H509.242V305.527H502.961V304.508H509.031V301.801H501.836V302.68H507.918V303.699H501.86V306.383H504.883V307.426H500.629V308.34H510.238V307.426ZM501.883 311.938H509.254V311.035H502.996V308.984H501.883V311.938ZM519.927 301.496H518.861V305.609H517.56V301.695H516.505V311.48H517.56V306.523H518.861V311.996H519.927V301.496ZM511.243 309.23H515.322V302.68H511.243V309.23ZM512.298 308.34V303.559H514.279V308.34H512.298ZM524.284 304.719V304.297H526.147V303.383H524.284V301.871H523.241V303.383H521.342V304.297H523.241V304.719C523.229 306.412 522.479 308.211 521.026 309.055L521.682 309.898C522.696 309.289 523.399 308.193 523.774 306.922C524.155 308.111 524.858 309.113 525.877 309.652L526.498 308.832C525.051 308.053 524.284 306.371 524.284 304.719ZM525.455 306.512H526.967V311.469H528.022V301.719H526.967V305.586H525.455V306.512ZM529.088 311.996H530.155V301.496H529.088V311.996ZM542.934 301.496H541.809V311.996H542.934V301.496ZM534.309 309.184L534.895 310.086C538.499 308.357 539.805 305.697 539.805 302.621H534.813V303.512H538.68C538.464 305.961 537.098 307.854 534.309 309.184ZM548.099 304.168V302.375H546.986V304.168C546.98 306.09 545.89 308.105 544.279 308.879L544.97 309.781C546.166 309.16 547.086 307.9 547.554 306.412C548.017 307.812 548.902 308.984 550.045 309.582L550.736 308.691C549.172 307.93 548.088 306.025 548.099 304.168ZM551.521 311.996H552.635V306.629H554.322V305.68H552.635V301.496H551.521V311.996ZM564.315 309.77H560.038V307.613H563.179V302.211H562.077V304.016H556.921V302.211H555.808V307.613H558.936V309.77H554.706V310.695H564.315V309.77ZM556.921 306.711V304.918H562.077V306.711H556.921ZM573.465 306.336H567.266V303.207H573.371V302.305H566.152V307.227H569.188V309.793H564.957V310.707H574.566V309.793H570.289V307.227H573.465V306.336ZM577.095 310.191H575.782L575.161 313.426H576.157L577.095 310.191ZM585.749 308.75C583.411 308.75 582.105 309.318 582.105 310.379C582.105 311.434 583.411 311.979 585.749 311.973C588.058 311.979 589.365 311.434 589.37 310.379C589.365 309.318 588.058 308.75 585.749 308.75ZM580.968 308.176H590.542V307.297H586.312V306.57C588.175 306.488 589.201 305.979 589.195 305.094C589.201 304.092 587.964 303.582 585.749 303.582C583.546 303.582 582.298 304.092 582.304 305.094C582.298 305.984 583.341 306.488 585.199 306.57V307.297H580.968V308.176ZM581.46 303.195H590.003V302.34H586.312V301.367H585.199V302.34H581.46V303.195ZM583.242 310.379C583.242 309.852 584.115 309.576 585.749 309.57C587.372 309.576 588.245 309.852 588.245 310.379C588.245 310.895 587.372 311.158 585.749 311.152C584.115 311.158 583.242 310.895 583.242 310.379ZM583.488 305.094C583.482 304.596 584.285 304.35 585.749 304.344C587.226 304.35 588.011 304.596 588.011 305.094C588.011 305.551 587.226 305.803 585.749 305.809C584.285 305.803 583.482 305.551 583.488 305.094ZM600.829 309.77H596.551V307.613H599.692V302.211H598.59V304.016H593.434V302.211H592.321V307.613H595.45V309.77H591.219V310.695H600.829V309.77ZM593.434 306.711V304.918H598.59V306.711H593.434ZM605.08 302.117H603.966L601.236 312.277H602.349L605.08 302.117ZM610.819 302.539H605.909V309.359H610.819V302.539ZM606.999 308.457V303.418H609.717V308.457H606.999ZM612.577 311.996H613.69V306.547H615.378V305.609H613.69V301.496H612.577V311.996ZM620.402 302.715H616.312V303.629H619.318C619.283 304.156 619.201 304.666 619.072 305.152L615.797 305.352L615.949 306.312L618.762 306.025C618.24 307.191 617.32 308.217 615.797 309.066L616.43 309.84C618.094 308.914 619.101 307.771 619.687 306.488H621.515V311.48H622.57V301.766H621.515V305.586H620.027C620.297 304.678 620.402 303.711 620.402 302.715ZM623.73 311.996H624.785V301.496H623.73V311.996ZM631.661 302.258H626.61V307.297H627.478C629.774 307.303 631.081 307.262 632.599 307.016L632.481 306.113C631.058 306.359 629.833 306.395 627.735 306.383V305.188H631.368V304.309H627.735V303.148H631.661V302.258ZM627.63 310.039C627.63 311.275 628.972 311.979 631.204 311.973C633.401 311.979 634.772 311.275 634.778 310.039C634.772 308.814 633.401 308.105 631.204 308.105C628.972 308.105 627.63 308.814 627.63 310.039ZM628.743 310.039C628.737 309.371 629.64 308.979 631.204 308.984C632.739 308.979 633.671 309.371 633.665 310.039C633.671 310.725 632.739 311.111 631.204 311.117C629.64 311.111 628.737 310.725 628.743 310.039ZM633.606 307.965H634.72V301.508H633.606V307.965Z" fill="#9CA3AF"/>
<path d="M553 221L557.5 217L562 221" stroke="#008DFF" stroke-linecap="round" stroke-linejoin="round"/>
<path d="M553 90L557.5 86L562 90" stroke="#008DFF" stroke-linecap="round" stroke-linejoin="round"/>
<path d="M562 230L557.5 234L553 230" stroke="#008DFF" stroke-linecap="round" stroke-linejoin="round"/>
<line x1="557.5" y1="217" x2="557.5" y2="234" stroke="#008DFF"/>
<path d="M719 155L723 159.5L719 164" stroke="#008DFF" stroke-linecap="round" stroke-linejoin="round"/>
<path d="M710 164L706 159.5L710 155" stroke="#008DFF" stroke-linecap="round" stroke-linejoin="round"/>
<line x1="723" y1="159.5" x2="706" y2="159.5" stroke="#008DFF"/>
<path d="M404 155L408 159.5L404 164" stroke="#008DFF" stroke-linecap="round" stroke-linejoin="round"/>
<path d="M395 164L391 159.5L395 155" stroke="#008DFF" stroke-linecap="round" stroke-linejoin="round"/>
<line x1="408" y1="159.5" x2="391" y2="159.5" stroke="#008DFF"/>
<defs>
<filter id="filter0_dd_1239_26774" x="367" y="26" width="382" height="66" filterUnits="userSpaceOnUse" color-interpolation-filters="sRGB">
<feFlood flood-opacity="0" result="BackgroundImageFix"/>
<feColorMatrix in="SourceAlpha" type="matrix" values="0 0 0 0 0 0 0 0 0 0 0 0 0 0 0 0 0 0 127 0" result="hardAlpha"/>
<feOffset dy="4"/>
<feGaussianBlur stdDeviation="4"/>
<feColorMatrix type="matrix" values="0 0 0 0 0.458824 0 0 0 0 0.458824 0 0 0 0 0.458824 0 0 0 0.16 0"/>
<feBlend mode="normal" in2="BackgroundImageFix" result="effect1_dropShadow_1239_26774"/>
<feColorMatrix in="SourceAlpha" type="matrix" values="0 0 0 0 0 0 0 0 0 0 0 0 0 0 0 0 0 0 127 0" result="hardAlpha"/>
<feOffset dy="1"/>
<feGaussianBlur stdDeviation="1"/>
<feColorMatrix type="matrix" values="0 0 0 0 0.258824 0 0 0 0 0.258824 0 0 0 0 0.258824 0 0 0 0.04 0"/>
<feBlend mode="normal" in2="effect1_dropShadow_1239_26774" result="effect2_dropShadow_1239_26774"/>
<feBlend mode="normal" in="SourceGraphic" in2="effect2_dropShadow_1239_26774" result="shape"/>
</filter>
<filter id="filter1_dd_1239_26774" x="117" y="92" width="250" height="132" filterUnits="userSpaceOnUse" color-interpolation-filters="sRGB">
<feFlood flood-opacity="0" result="BackgroundImageFix"/>
<feColorMatrix in="SourceAlpha" type="matrix" values="0 0 0 0 0 0 0 0 0 0 0 0 0 0 0 0 0 0 127 0" result="hardAlpha"/>
<feOffset dy="4"/>
<feGaussianBlur stdDeviation="4"/>
<feColorMatrix type="matrix" values="0 0 0 0 0.458824 0 0 0 0 0.458824 0 0 0 0 0.458824 0 0 0 0.16 0"/>
<feBlend mode="normal" in2="BackgroundImageFix" result="effect1_dropShadow_1239_26774"/>
<feColorMatrix in="SourceAlpha" type="matrix" values="0 0 0 0 0 0 0 0 0 0 0 0 0 0 0 0 0 0 127 0" result="hardAlpha"/>
<feOffset dy="1"/>
<feGaussianBlur stdDeviation="1"/>
<feColorMatrix type="matrix" values="0 0 0 0 0.258824 0 0 0 0 0.258824 0 0 0 0 0.258824 0 0 0 0.04 0"/>
<feBlend mode="normal" in2="effect1_dropShadow_1239_26774" result="effect2_dropShadow_1239_26774"/>
<feBlend mode="normal" in="SourceGraphic" in2="effect2_dropShadow_1239_26774" result="shape"/>
</filter>
<filter id="filter2_dd_1239_26774" x="747" y="92" width="250" height="132" filterUnits="userSpaceOnUse" color-interpolation-filters="sRGB">
<feFlood flood-opacity="0" result="BackgroundImageFix"/>
<feColorMatrix in="SourceAlpha" type="matrix" values="0 0 0 0 0 0 0 0 0 0 0 0 0 0 0 0 0 0 127 0" result="hardAlpha"/>
<feOffset dy="4"/>
<feGaussianBlur stdDeviation="4"/>
<feColorMatrix type="matrix" values="0 0 0 0 0.458824 0 0 0 0 0.458824 0 0 0 0 0.458824 0 0 0 0.16 0"/>
<feBlend mode="normal" in2="BackgroundImageFix" result="effect1_dropShadow_1239_26774"/>
<feColorMatrix in="SourceAlpha" type="matrix" values="0 0 0 0 0 0 0 0 0 0 0 0 0 0 0 0 0 0 127 0" result="hardAlpha"/>
<feOffset dy="1"/>
<feGaussianBlur stdDeviation="1"/>
<feColorMatrix type="matrix" values="0 0 0 0 0.258824 0 0 0 0 0.258824 0 0 0 0 0.258824 0 0 0 0.04 0"/>
<feBlend mode="normal" in2="effect1_dropShadow_1239_26774" result="effect2_dropShadow_1239_26774"/>
<feBlend mode="normal" in="SourceGraphic" in2="effect2_dropShadow_1239_26774" result="shape"/>
</filter>
<filter id="filter3_dd_1239_26774" x="432" y="92" width="250" height="132" filterUnits="userSpaceOnUse" color-interpolation-filters="sRGB">
<feFlood flood-opacity="0" result="BackgroundImageFix"/>
<feColorMatrix in="SourceAlpha" type="matrix" values="0 0 0 0 0 0 0 0 0 0 0 0 0 0 0 0 0 0 127 0" result="hardAlpha"/>
<feOffset dy="4"/>
<feGaussianBlur stdDeviation="4"/>
<feColorMatrix type="matrix" values="0 0 0 0 0.458824 0 0 0 0 0.458824 0 0 0 0 0.458824 0 0 0 0.16 0"/>
<feBlend mode="normal" in2="BackgroundImageFix" result="effect1_dropShadow_1239_26774"/>
<feColorMatrix in="SourceAlpha" type="matrix" values="0 0 0 0 0 0 0 0 0 0 0 0 0 0 0 0 0 0 127 0" result="hardAlpha"/>
<feOffset dy="1"/>
<feGaussianBlur stdDeviation="1"/>
<feColorMatrix type="matrix" values="0 0 0 0 0.258824 0 0 0 0 0.258824 0 0 0 0 0.258824 0 0 0 0.04 0"/>
<feBlend mode="normal" in2="effect1_dropShadow_1239_26774" result="effect2_dropShadow_1239_26774"/>
<feBlend mode="normal" in="SourceGraphic" in2="effect2_dropShadow_1239_26774" result="shape"/>
</filter>
<filter id="filter4_dd_1239_26774" x="432" y="235" width="250" height="103" filterUnits="userSpaceOnUse" color-interpolation-filters="sRGB">
<feFlood flood-opacity="0" result="BackgroundImageFix"/>
<feColorMatrix in="SourceAlpha" type="matrix" values="0 0 0 0 0 0 0 0 0 0 0 0 0 0 0 0 0 0 127 0" result="hardAlpha"/>
<feOffset dy="4"/>
<feGaussianBlur stdDeviation="4"/>
<feColorMatrix type="matrix" values="0 0 0 0 0.458824 0 0 0 0 0.458824 0 0 0 0 0.458824 0 0 0 0.16 0"/>
<feBlend mode="normal" in2="BackgroundImageFix" result="effect1_dropShadow_1239_26774"/>
<feColorMatrix in="SourceAlpha" type="matrix" values="0 0 0 0 0 0 0 0 0 0 0 0 0 0 0 0 0 0 127 0" result="hardAlpha"/>
<feOffset dy="1"/>
<feGaussianBlur stdDeviation="1"/>
<feColorMatrix type="matrix" values="0 0 0 0 0.258824 0 0 0 0 0.258824 0 0 0 0 0.258824 0 0 0 0.04 0"/>
<feBlend mode="normal" in2="effect1_dropShadow_1239_26774" result="effect2_dropShadow_1239_26774"/>
<feBlend mode="normal" in="SourceGraphic" in2="effect2_dropShadow_1239_26774" result="shape"/>
</filter>
</defs>
</svg>
