<svg width="1100" height="461" viewBox="0 0 1100 461" fill="none" xmlns="http://www.w3.org/2000/svg">
<rect width="1100" height="461" rx="4" fill="white"/>
<rect x="24" y="24" width="132" height="270" rx="4" fill="#F4F6F8"/>
<path d="M79.625 150.16H77.8477V157.074H75.6797V150.629H73.9414V166.82H75.6797V158.578H77.8477V167.66H79.625V150.16ZM64.5859 162.66L65.6602 163.949C70.6699 161.127 72.1934 156.986 72.2031 152.387H65.3281V153.91H70.3965C70.1035 157.475 68.4727 160.453 64.5859 162.66ZM96.3 150.16H94.4641V152.562H90.6359V150.961H88.8V153.324H84.425V150.961H82.5695V158.617H90.6359V157.172H94.4641V159.262H96.3V150.16ZM84.425 157.133V154.75H88.8V157.133H84.425ZM84.8547 161.488H94.4641V162.953H84.8937V167.445H96.925V165.961H86.7492V164.34H96.3V160.043H84.8547V161.488ZM90.6359 155.746V153.988H94.4641V155.746H90.6359ZM108.678 151.996H104.772V150.004H102.936V151.996H98.8344V153.48H108.678V151.996ZM99.8109 157.543C99.8109 159.496 101.452 160.785 103.834 160.785C106.188 160.785 107.868 159.496 107.877 157.543C107.868 155.59 106.188 154.291 103.834 154.281C101.452 154.291 99.8109 155.59 99.8109 157.543ZM101.549 157.543C101.539 156.41 102.448 155.688 103.834 155.688C105.202 155.688 106.139 156.41 106.159 157.543C106.139 158.676 105.202 159.389 103.834 159.379C102.448 159.389 101.539 158.676 101.549 157.543ZM101.647 164.613C101.637 166.518 103.883 167.631 107.584 167.621C111.246 167.631 113.502 166.518 113.502 164.613C113.502 162.709 111.246 161.605 107.584 161.605C103.883 161.605 101.637 162.709 101.647 164.613ZM103.58 164.613C103.571 163.588 105.065 163.031 107.584 163.031C110.055 163.031 111.53 163.588 111.53 164.613C111.53 165.629 110.055 166.215 107.584 166.195C105.065 166.215 103.571 165.629 103.58 164.613ZM108.717 159.184H111.549V161.43H113.405V150.16H111.549V154.242H108.737V155.746H111.549V157.68H108.717V159.184Z" fill="#4B5563"/>
<rect x="24" y="307" width="132" height="130" rx="4" fill="#F4F6F8"/>
<path d="M56.9723 364.547H49.0621V366.051H55.0191C54.9605 366.705 54.8238 367.33 54.609 367.926L48.1832 368.199L48.4762 369.703L53.9254 369.254C52.9 370.797 51.0934 372.057 48.2418 372.984L48.984 374.449C54.7066 372.555 56.9625 369.186 56.9723 364.547ZM51.2105 380.289H62.9098V378.785H53.0855V374.859H51.2105V380.289ZM56.9137 370.172H60.566V376.129H62.4215V363.18H60.566V368.648H56.9137V370.172ZM80.9324 376.91H73.7645V372.75H71.9285V376.91H64.9168V378.434H80.9324V376.91ZM65.4637 371.539L66.284 373.062C69.1063 372.506 71.6844 370.738 72.8367 368.355C73.9891 370.748 76.5867 372.506 79.4285 373.062L80.2293 371.539C76.8504 370.973 73.8035 368.375 73.8035 365.602V364.273H71.8504V365.602C71.8406 368.375 68.8328 370.973 65.4637 371.539ZM88.4277 367.613V364.625H86.5527V367.613C86.5527 370.953 84.6191 374.303 81.8652 375.523L82.998 377.086C85.0977 376.061 86.709 373.951 87.5195 371.383C88.3398 373.775 89.9316 375.738 91.9434 376.695L93.0566 375.23C90.3418 374.029 88.4082 370.807 88.4277 367.613ZM94.6387 380.699H96.4941V363.16H94.6387V380.699ZM103.931 364.137C101.294 364.137 99.3313 365.865 99.341 368.316C99.3313 370.768 101.294 372.477 103.931 372.477C106.275 372.477 108.081 371.09 108.423 369.02H111.821V373.16H113.677V363.16H111.821V367.496H108.404C108.013 365.484 106.226 364.137 103.931 364.137ZM101.118 368.316C101.109 366.754 102.29 365.689 103.931 365.699C105.523 365.689 106.704 366.754 106.704 368.316C106.704 369.889 105.523 370.904 103.931 370.914C102.29 370.904 101.109 369.889 101.118 368.316ZM102.134 380.445H113.677V374.02H102.134V380.445ZM103.97 378.941V375.504H111.861V378.941H103.97ZM126.036 364.996H122.129V363.004H120.293V364.996H116.192V366.48H126.036V364.996ZM117.168 370.543C117.168 372.496 118.809 373.785 121.192 373.785C123.545 373.785 125.225 372.496 125.235 370.543C125.225 368.59 123.545 367.291 121.192 367.281C118.809 367.291 117.168 368.59 117.168 370.543ZM118.907 370.543C118.897 369.41 119.805 368.688 121.192 368.688C122.559 368.688 123.496 369.41 123.516 370.543C123.496 371.676 122.559 372.389 121.192 372.379C119.805 372.389 118.897 371.676 118.907 370.543ZM119.004 377.613C118.995 379.518 121.241 380.631 124.942 380.621C128.604 380.631 130.86 379.518 130.86 377.613C130.86 375.709 128.604 374.605 124.942 374.605C121.241 374.605 118.995 375.709 119.004 377.613ZM120.938 377.613C120.928 376.588 122.422 376.031 124.942 376.031C127.412 376.031 128.887 376.588 128.887 377.613C128.887 378.629 127.412 379.215 124.942 379.195C122.422 379.215 120.928 378.629 120.938 377.613ZM126.075 372.184H128.907V374.43H130.762V363.16H128.907V367.242H126.094V368.746H128.907V370.68H126.075V372.184Z" fill="#4B5563"/>
<rect x="172" y="24" width="616" height="127" rx="4" fill="#FCFCFC"/>
<path d="M202.172 60C206.488 60 209.096 57.334 209.086 52.9102C209.096 48.5059 206.488 45.8594 202.23 45.8594H197.191V60H202.172ZM200.121 57.4805V48.3789H202.074C204.75 48.3789 206.156 49.7656 206.156 52.9102C206.156 56.084 204.75 57.4805 202.055 57.4805H200.121ZM210.956 60H213.847V53.9648C213.837 52.666 214.804 51.7578 216.113 51.7578C216.513 51.7578 217.07 51.8262 217.343 51.9141V49.3359C217.089 49.2773 216.718 49.2383 216.425 49.2383C215.234 49.2383 214.247 49.9316 213.866 51.2305H213.749V49.3945H210.956V60ZM218.549 60H221.44V49.3945H218.549V60ZM218.413 46.543C218.413 47.3438 219.125 48.0078 219.995 48.0078C220.854 48.0078 221.567 47.3438 221.557 46.543C221.567 45.7227 220.854 45.0684 219.995 45.0586C219.125 45.0684 218.413 45.7227 218.413 46.543ZM233.33 49.3945H230.263L228.037 57.0117H227.92L225.693 49.3945H222.646L226.357 60H229.599L233.33 49.3945ZM238.989 60.2148C241.606 60.2051 243.364 58.9355 243.774 56.9727H241.02C240.737 57.6074 240.034 58.0371 239.048 58.0469C237.554 58.0371 236.606 57.0508 236.606 55.4492H243.852V54.6289C243.852 51.0156 241.655 49.2578 238.872 49.2578C235.766 49.2578 233.745 51.4746 233.755 54.7461C233.745 58.1055 235.737 60.2051 238.989 60.2148ZM236.606 53.6328C236.665 52.4121 237.602 51.416 238.93 51.4258C240.22 51.416 241.108 52.3438 241.118 53.6328H236.606ZM252.051 53.0273H245.605V55.332H252.051V53.0273ZM263.062 45.8594V54.8047C263.071 56.4355 261.919 57.6074 260.152 57.6172C258.404 57.6074 257.251 56.4355 257.241 54.8047V45.8594H254.312V55.0391C254.312 58.1348 256.636 60.2051 260.152 60.1953C263.657 60.2051 266.011 58.1348 266.011 55.0391V45.8594H263.062ZM268.135 63.9844H271.026V58.3008H271.104C271.514 59.1797 272.403 60.1758 274.131 60.1758C276.553 60.1758 278.438 58.252 278.428 54.707C278.438 51.0742 276.475 49.2578 274.131 49.2578C272.344 49.2578 271.504 50.3125 271.104 51.1719H270.987V49.3945H268.135V63.9844ZM270.967 54.6875C270.957 52.7832 271.768 51.5625 273.213 51.5625C274.707 51.5625 275.489 52.8418 275.479 54.6875C275.489 56.5625 274.688 57.8613 273.213 57.8711C271.778 57.8613 270.957 56.6016 270.967 54.6875Z" fill="#111827"/>
<path d="M207.945 91.2656C208.93 91.2578 209.719 90.4688 209.727 89.4844C209.719 88.5156 208.93 87.7266 207.945 87.7188C206.977 87.7266 206.188 88.5156 206.18 89.4844C206.188 90.4688 206.977 91.2578 207.945 91.2656ZM232.156 81.3281H230.656V95.3281H232.156V81.3281ZM220.656 91.5781L221.438 92.7812C226.242 90.4766 227.984 86.9297 227.984 82.8281H221.328V84.0156H226.484C226.195 87.2812 224.375 89.8047 220.656 91.5781ZM241.324 81.8594V81.3906H239.809V81.8594C239.801 83.4688 237.59 84.8203 234.856 85.125L235.371 86.25C237.645 85.9688 239.653 85 240.559 83.5703C241.457 85 243.465 85.9688 245.762 86.25L246.278 85.125C243.551 84.8203 241.332 83.4688 241.324 81.8594ZM234.184 88.25H239.809V89.5H235.715V90.6406H243.871V91.7344H235.731V95.1875H245.731V94.0469H237.184V92.8125H245.34V89.5H241.293V88.25H246.949V87.0625H234.184V88.25ZM252.664 82.1562H251.18L247.539 95.7031H249.024L252.664 82.1562ZM264.911 81.3438H263.426V83.8281H260.387C260.481 83.3594 260.536 82.8594 260.536 82.3438H254.129V83.5625H258.926C258.661 85.8203 256.723 87.6016 253.411 88.5469L254.004 89.7031C257.036 88.8359 259.137 87.25 260.043 85H263.426V86.7031H259.895V87.9219H263.426V89.625H264.911V81.3438ZM255.583 92.5156C255.583 94.2188 257.426 95.2656 260.301 95.2656C263.137 95.2656 264.997 94.2188 265.004 92.5156C264.997 90.8203 263.137 89.7891 260.301 89.7812C257.426 89.7891 255.583 90.8203 255.583 92.5156ZM257.051 92.5156C257.051 91.5156 258.301 90.9453 260.301 90.9531C262.262 90.9453 263.512 91.5156 263.52 92.5156C263.512 93.5 262.262 94.0703 260.301 94.0781C258.301 94.0703 257.051 93.5 257.051 92.5156ZM270.782 82.1406C268.673 82.1328 267.102 83.5234 267.11 85.5C267.102 87.4531 268.673 88.8516 270.782 88.8438C271.938 88.8516 272.93 88.4219 273.587 87.7031H277.094V89.5938H278.579V81.3281H277.094V83.2969H273.594C272.938 82.5703 271.946 82.1328 270.782 82.1406ZM268.532 85.5C268.524 84.2422 269.469 83.4062 270.782 83.4219C272.055 83.4062 273.001 84.2422 273.001 85.5C273.001 86.7266 272.055 87.5938 270.782 87.5781C269.469 87.5938 268.524 86.7266 268.532 85.5ZM269.157 92.6094C269.149 94.3125 270.962 95.3047 273.891 95.2969C276.805 95.3047 278.618 94.3125 278.626 92.6094C278.618 90.8984 276.805 89.8984 273.891 89.9062C270.962 89.8984 269.149 90.8984 269.157 92.6094ZM270.61 92.6094C270.602 91.6094 271.837 91.0547 273.891 91.0469C275.946 91.0547 277.173 91.6094 277.173 92.6094C277.173 93.5703 275.946 94.1328 273.891 94.125C271.837 94.1328 270.602 93.5703 270.61 92.6094ZM274.274 84.4844H277.094V86.4844H274.274C274.368 86.1797 274.423 85.8438 274.423 85.5C274.423 85.1406 274.368 84.7969 274.274 84.4844ZM285.387 82.1562H283.903L280.262 95.7031H281.747L285.387 82.1562ZM296.993 82.1875H287.556V83.4062H295.556C295.556 84.6094 295.532 86.1562 295.11 88.2656H285.962V89.4844H289.149V95.3125H290.634V89.4844H293.993V95.3125H295.462V89.4844H298.728V88.2656H296.61C297.001 86.0234 297.001 84.4375 296.993 83.2031V82.1875ZM311.646 81.3281H310.224V95.3281H311.646V81.3281ZM299.427 91.4688L300.333 92.5781C301.7 91.7266 302.653 90.1641 303.153 88.3359C303.646 90.0234 304.56 91.4531 305.896 92.25L306.786 91.1562C304.817 90.0234 303.849 87.625 303.849 85.2344V84.1094H306.255V82.9062H299.849V84.1094H302.427V85.2344C302.419 87.7266 301.411 90.2734 299.427 91.4688ZM305.224 87.5H307.396V94.625H308.802V81.625H307.396V86.2812H305.224V87.5ZM318.111 82.1562H316.626L312.986 95.7031H314.47L318.111 82.1562ZM323.544 84.8906V82.5H322.06V84.8906C322.052 87.4531 320.599 90.1406 318.451 91.1719L319.372 92.375C320.966 91.5469 322.193 89.8672 322.818 87.8828C323.435 89.75 324.615 91.3125 326.138 92.1094L327.06 90.9219C324.974 89.9062 323.529 87.3672 323.544 84.8906ZM328.107 95.3281H329.591V88.1719H331.841V86.9062H329.591V81.3281H328.107V95.3281ZM336.228 81.9688C334.087 81.9531 332.548 83.3125 332.556 85.2188C332.548 87.1484 334.087 88.5 336.228 88.5C338.087 88.5 339.525 87.4219 339.814 85.8125H342.541V88.8438H344.025V81.3281H342.541V84.5938H339.806C339.502 83.0234 338.072 81.9531 336.228 81.9688ZM333.978 85.2188C333.97 84.0156 334.908 83.1953 336.228 83.2031C337.525 83.1953 338.447 84.0156 338.447 85.2188C338.447 86.4141 337.525 87.25 336.228 87.25C334.908 87.25 333.97 86.4141 333.978 85.2188ZM334.9 95.1562H344.025V89.5156H342.541V91.1406H336.369V89.5156H334.9V95.1562ZM336.369 93.9375V92.3125H342.541V93.9375H336.369ZM356.99 81.3281H355.506V95.3281H356.99V88.4375H359.099V87.1875H356.99V81.3281ZM345.849 91.5156L346.084 92.75C348.498 92.7578 351.771 92.7266 354.803 92.1875L354.709 91.0938C353.545 91.2578 352.295 91.3594 351.053 91.4219V90.0547C352.638 89.8281 353.685 88.8672 353.693 87.5156C353.685 85.9375 352.303 84.8984 350.318 84.8906C348.326 84.8984 346.959 85.9375 346.974 87.5156C346.959 88.8672 347.99 89.8203 349.568 90.0547V91.4766C348.232 91.5156 346.951 91.5156 345.849 91.5156ZM346.115 84.1719H354.506V82.9844H351.053V81.3594H349.568V82.9844H346.115V84.1719ZM348.365 87.5156C348.365 86.6172 349.146 86.0469 350.318 86.0469C351.49 86.0469 352.263 86.6172 352.271 87.5156C352.263 88.4062 351.49 88.9609 350.318 88.9531C349.146 88.9609 348.365 88.4062 348.365 87.5156ZM371.361 81.3438H369.877V85.125H367.205V86.3281H369.877V91.5938H371.361V81.3438ZM359.705 88.6719L360.471 89.875C362.135 89.2812 363.361 88.0469 363.971 86.5C364.58 87.8906 365.744 89.0156 367.314 89.5625L368.08 88.375C365.963 87.6719 364.697 85.9141 364.705 84.1719V83.625H367.705V82.4062H360.158V83.625H363.189V84.1719C363.197 86.1016 361.853 87.9453 359.705 88.6719ZM362.268 95.0312H371.736V93.8281H363.752V90.6719H362.268V95.0312ZM386.389 83.4688H384.357V81.3438H382.873V89.8438H384.357V87.6562H386.389V86.4219H384.357V84.6875H386.389V83.4688ZM373.92 83.3594H378.842V85H373.936V89.1719H375.061C377.748 89.1797 379.6 89.0859 381.764 88.7188L381.607 87.5156C379.568 87.8594 377.85 87.9375 375.42 87.9531V86.1562H380.295V82.1562H373.92V83.3594ZM375.107 91.75H382.873V95.3125H384.357V90.5469H375.107V91.75ZM403.553 87.9062H390.772V89.125H403.553V87.9062ZM392.288 92.7656C392.288 94.3906 394.108 95.3047 397.147 95.2969C400.163 95.3047 401.967 94.3906 401.975 92.7656C401.967 91.1406 400.163 90.2188 397.147 90.2188C394.108 90.2188 392.288 91.1406 392.288 92.7656ZM392.366 86.6875H402.069V85.4844H393.834V83.0469H401.975V81.8281H392.366V86.6875ZM393.788 92.7656C393.78 91.875 395.006 91.375 397.147 91.3594C399.256 91.375 400.491 91.875 400.491 92.7656C400.491 93.6641 399.256 94.1484 397.147 94.1562C395.006 94.1484 393.78 93.6641 393.788 92.7656ZM415.499 82.4375H409.171V83.6406H413.936C413.889 84.1641 413.78 84.6641 413.608 85.1406L408.467 85.3594L408.702 86.5625L413.061 86.2031C412.241 87.4375 410.796 88.4453 408.514 89.1875L409.108 90.3594C413.686 88.8438 415.491 86.1484 415.499 82.4375ZM410.889 95.0312H420.249V93.8281H412.389V90.6875H410.889V95.0312ZM415.452 86.9375H418.374V91.7031H419.858V81.3438H418.374V85.7188H415.452V86.9375ZM433.526 81.3281H432.042V83.7344H429.089V84.9375H432.042V88.5312H433.526V81.3281ZM421.807 87.4062L422.604 88.5938C424.261 88.0234 425.456 86.8516 426.065 85.3438C426.682 86.6797 427.847 87.7344 429.386 88.2656L430.167 87.1094C428.057 86.4375 426.776 84.7812 426.776 83V81.7812H425.307V83C425.3 84.9688 423.995 86.7109 421.807 87.4062ZM424.37 90.3594H432.057V91.5469H424.401V95.1562H434.011V93.9688H425.854V92.6719H433.526V89.1875H424.37V90.3594ZM443.054 82.3438H436.319V89.0625H437.476C440.538 89.0703 442.28 89.0156 444.304 88.6875L444.148 87.4844C442.249 87.8125 440.616 87.8594 437.819 87.8438V86.25H442.663V85.0781H437.819V83.5312H443.054V82.3438ZM437.679 92.7188C437.679 94.3672 439.468 95.3047 442.444 95.2969C445.374 95.3047 447.202 94.3672 447.21 92.7188C447.202 91.0859 445.374 90.1406 442.444 90.1406C439.468 90.1406 437.679 91.0859 437.679 92.7188ZM439.163 92.7188C439.155 91.8281 440.358 91.3047 442.444 91.3125C444.491 91.3047 445.733 91.8281 445.726 92.7188C445.733 93.6328 444.491 94.1484 442.444 94.1562C440.358 94.1484 439.155 93.6328 439.163 92.7188ZM445.648 89.9531H447.132V81.3438H445.648V89.9531ZM454.347 85.4531V83.9688H457.534V82.7344H449.644V83.9688H452.847V85.4531C452.831 87.8672 451.269 90.4922 449.159 91.4844L450.019 92.6562C451.652 91.8594 452.964 90.1562 453.613 88.1562C454.261 90.0234 455.573 91.5703 457.222 92.2969L458.034 91.1406C455.878 90.2188 454.339 87.7969 454.347 85.4531ZM459.3 95.3281H460.784V81.3281H459.3V95.3281ZM474.499 81.3438H473.015V89.5625H470.203V90.6094H473.015V91.9531H474.499V81.3438ZM462.796 87.7344L462.984 88.9219C464.117 88.9219 465.421 88.9219 466.781 88.8672V91.5156H468.265V88.7891C469.499 88.7031 470.757 88.5781 471.953 88.375L471.859 87.3125C468.874 87.6875 465.382 87.7109 462.796 87.7344ZM463.89 84.3438C463.882 85.8359 465.304 86.7812 467.374 86.7812C469.421 86.7812 470.843 85.8359 470.843 84.3438C470.843 82.8594 469.421 81.875 467.374 81.875C465.296 81.875 463.882 82.8594 463.89 84.3438ZM464.734 95.0312H474.843V93.8281H466.203V90.9219H464.734V95.0312ZM465.296 84.3438C465.288 83.5078 466.132 82.9688 467.374 82.9844C468.57 82.9688 469.429 83.5078 469.437 84.3438C469.429 85.1719 468.57 85.6875 467.374 85.6875C466.132 85.6875 465.288 85.1719 465.296 84.3438ZM207.945 117.266C208.93 117.258 209.719 116.469 209.727 115.484C209.719 114.516 208.93 113.727 207.945 113.719C206.977 113.727 206.188 114.516 206.18 115.484C206.188 116.469 206.977 117.258 207.945 117.266ZM228.812 112.375H230.547C230.164 109.945 228.266 108.531 225.875 108.531C222.945 108.531 220.781 110.727 220.781 114.344C220.781 117.961 222.93 120.156 225.875 120.156C228.367 120.156 230.188 118.594 230.547 116.359L228.812 116.344C228.516 117.789 227.312 118.586 225.891 118.578C223.945 118.586 222.492 117.102 222.484 114.344C222.492 111.602 223.938 110.102 225.891 110.109C227.328 110.102 228.539 110.914 228.812 112.375ZM233.965 108.688H232.246V120H233.965V108.688ZM237.977 118.922H236.227L235.399 123.234H236.727L237.977 118.922ZM243.782 120H248.11C250.751 120 251.938 118.688 251.938 116.953C251.938 115.203 250.719 114.219 249.594 114.156V114.047C250.633 113.781 251.501 113.07 251.501 111.656C251.501 109.977 250.337 108.688 247.923 108.688H243.782V120ZM245.501 118.531V114.922H248.016C249.376 114.922 250.235 115.789 250.235 116.875C250.235 117.812 249.579 118.523 247.954 118.531H245.501ZM245.501 113.578V110.156H247.813C249.165 110.156 249.813 110.859 249.813 111.797C249.813 112.883 248.923 113.57 247.782 113.578H245.501ZM255.341 108.688H253.622V120H255.341V108.688ZM272.177 107.328H270.692V121.359H272.177V107.328ZM261.474 117.922H262.63C265.536 117.914 267.364 117.836 269.458 117.453L269.302 116.219C267.325 116.57 265.622 116.648 262.974 116.656V109.859H268.177V108.625H261.474V117.922ZM279.126 111.453V109.969H282.173V108.734H274.501V109.969H277.658V111.453C277.65 113.82 276.111 116.461 273.986 117.484L274.861 118.656C276.454 117.859 277.767 116.133 278.408 114.141C279.04 115.969 280.29 117.547 281.861 118.297L282.704 117.141C280.579 116.133 279.118 113.664 279.126 111.453ZM283.673 121.328H285.158V114.125H287.408V112.875H285.158V107.328H283.673V121.328ZM299.529 107.344H298.044V117.516H299.529V107.344ZM288.201 111.75C288.208 113.805 289.818 115.234 291.935 115.234C294.044 115.234 295.654 113.805 295.654 111.75C295.654 109.727 294.044 108.289 291.935 108.281C289.818 108.289 288.208 109.727 288.201 111.75ZM289.654 111.75C289.646 110.461 290.63 109.578 291.935 109.578C293.216 109.578 294.201 110.461 294.201 111.75C294.201 113.07 293.216 113.938 291.935 113.938C290.63 113.938 289.646 113.07 289.654 111.75ZM290.372 121.031H299.951V119.828H291.872V116.484H290.372V121.031ZM306.4 108.156H304.916L301.275 121.703H302.759L306.4 108.156ZM312.115 110.891V108.5H310.615V110.891C310.615 113.562 309.068 116.242 306.865 117.219L307.771 118.469C309.451 117.648 310.74 115.961 311.388 113.906C312.045 115.82 313.318 117.391 314.927 118.156L315.818 116.984C313.646 116.023 312.099 113.445 312.115 110.891ZM317.084 121.359H318.568V107.328H317.084V121.359ZM325.533 109.906V109.531H328.549V108.328H320.971V109.531H324.049V109.922C324.041 111.867 322.721 113.672 320.533 114.391L321.299 115.578C322.978 114.992 324.205 113.781 324.814 112.25C325.432 113.578 326.596 114.633 328.189 115.141L328.893 113.984C326.768 113.312 325.525 111.688 325.533 109.906ZM322.424 118.672C322.424 120.336 324.213 121.305 327.127 121.297C330.01 121.305 331.768 120.336 331.768 118.672C331.768 117.031 330.01 116.07 327.127 116.078C324.213 116.07 322.424 117.031 322.424 118.672ZM323.908 118.672C323.9 117.758 325.103 117.242 327.127 117.25C329.135 117.242 330.322 117.758 330.314 118.672C330.322 119.609 329.135 120.133 327.127 120.125C325.103 120.133 323.9 119.609 323.908 118.672ZM330.158 115.734H331.643V112.016H333.674V110.797H331.643V107.328H330.158V115.734ZM347.123 118.359H341.451V115.047H339.967V118.359H334.311V119.578H347.123V118.359ZM334.904 114.406L335.514 115.578C337.732 115.141 339.803 113.805 340.701 111.938C341.615 113.781 343.701 115.094 345.967 115.516L346.561 114.344C343.897 113.93 341.467 112.023 341.467 109.875V109.75H346.014V108.531H335.373V109.75H339.92V109.875C339.92 112.023 337.506 113.969 334.904 114.406ZM352.838 110.891V108.5H351.354V110.891C351.346 113.453 349.893 116.141 347.744 117.172L348.666 118.375C350.26 117.547 351.487 115.867 352.112 113.883C352.729 115.75 353.908 117.312 355.432 118.109L356.354 116.922C354.268 115.906 352.822 113.367 352.838 110.891ZM357.401 121.328H358.885V114.172H361.135V112.906H358.885V107.328H357.401V121.328ZM366.459 108.156H364.975L361.334 121.703H362.819L366.459 108.156ZM378.706 107.344H377.221V111.125H374.549V112.328H377.221V117.594H378.706V107.344ZM367.049 114.672L367.815 115.875C369.479 115.281 370.706 114.047 371.315 112.5C371.924 113.891 373.088 115.016 374.659 115.562L375.424 114.375C373.307 113.672 372.042 111.914 372.049 110.172V109.625H375.049V108.406H367.503V109.625H370.534V110.172C370.542 112.102 369.198 113.945 367.049 114.672ZM369.612 121.031H379.081V119.828H371.096V116.672H369.612V121.031ZM385.842 110.891V108.5H384.342V110.891C384.342 113.562 382.796 116.242 380.592 117.219L381.499 118.469C383.178 117.648 384.467 115.961 385.116 113.906C385.772 115.82 387.046 117.391 388.655 118.156L389.546 116.984C387.374 116.023 385.827 113.445 385.842 110.891ZM390.811 121.359H392.296V107.328H390.811V121.359ZM405.948 107.328H404.464V121.328H405.948V107.328ZM394.448 117.516L394.651 118.75C397.214 118.758 400.604 118.719 403.714 118.203L403.604 117.094C402.37 117.258 401.057 117.352 399.761 117.414V116.055C401.386 115.82 402.44 114.867 402.448 113.516C402.44 111.938 401.042 110.898 398.995 110.891C396.972 110.898 395.597 111.938 395.604 113.516C395.597 114.883 396.659 115.844 398.292 116.062V117.469C396.917 117.5 395.604 117.508 394.448 117.516ZM394.745 110.188H403.292V109H399.776V107.359H398.292V109H394.745V110.188ZM397.011 113.516C396.995 112.617 397.823 112.047 398.995 112.047C400.206 112.047 401.026 112.617 401.026 113.516C401.026 114.406 400.206 114.961 398.995 114.953C397.823 114.961 396.995 114.406 397.011 113.516ZM412.851 108.156H411.366L407.726 121.703H409.21L412.851 108.156ZM425.034 107.344H423.55V117.516H425.034V107.344ZM413.706 111.75C413.714 113.805 415.323 115.234 417.441 115.234C419.55 115.234 421.159 113.805 421.159 111.75C421.159 109.727 419.55 108.289 417.441 108.281C415.323 108.289 413.714 109.727 413.706 111.75ZM415.159 111.75C415.152 110.461 416.136 109.578 417.441 109.578C418.722 109.578 419.706 110.461 419.706 111.75C419.706 113.07 418.722 113.938 417.441 113.938C416.136 113.938 415.152 113.07 415.159 111.75ZM415.878 121.031H425.456V119.828H417.378V116.484H415.878V121.031ZM433.765 108.172H427.656V109.359H432.281V111.125H427.671V115.391H428.687C431.476 115.383 432.913 115.336 434.624 115.047L434.484 113.844C432.906 114.133 431.577 114.188 429.14 114.188V112.25H433.765V108.172ZM429.265 117.859H437.281V121.344H438.765V116.656H429.265V117.859ZM434.656 113.484H437.281V115.953H438.765V107.344H437.281V109.375H434.656V110.562H437.281V112.297H434.656V113.484ZM452.136 108.672H442.074V109.875H450.652V110.172C450.66 111.891 450.66 113.766 450.167 116.297L451.621 116.453C452.121 113.773 452.121 111.93 452.136 110.172V108.672ZM440.761 119.438H453.527V118.203H448.73V113.672H447.277V118.203H445.261V113.672H443.777V118.203H440.761V119.438ZM467.195 114H454.429V115.203H457.695V116.828H455.851V118H464.133V121.328H465.633V116.828H463.898V115.203H467.195V114ZM455.804 110.344C455.797 112.031 457.742 113.055 460.804 113.047C463.859 113.055 465.797 112.031 465.804 110.344C465.797 108.648 463.859 107.633 460.804 107.641C457.742 107.633 455.797 108.648 455.804 110.344ZM457.336 110.344C457.328 109.375 458.648 108.805 460.804 108.812C462.945 108.805 464.281 109.375 464.273 110.344C464.281 111.32 462.945 111.891 460.804 111.891C458.648 111.891 457.328 111.32 457.336 110.344ZM459.179 116.828V115.203H462.445V116.828H459.179ZM473.254 111.453V109.969H476.441V108.734H468.551V109.969H471.754V111.453C471.738 113.867 470.176 116.492 468.066 117.484L468.926 118.656C470.558 117.859 471.871 116.156 472.519 114.156C473.168 116.023 474.48 117.57 476.129 118.297L476.941 117.141C474.785 116.219 473.246 113.797 473.254 111.453ZM478.207 121.328H479.691V107.328H478.207V121.328ZM493.406 107.344H491.922V115.562H489.109V116.609H491.922V117.953H493.406V107.344ZM481.703 113.734L481.891 114.922C483.023 114.922 484.328 114.922 485.688 114.867V117.516H487.172V114.789C488.406 114.703 489.664 114.578 490.859 114.375L490.766 113.312C487.781 113.688 484.289 113.711 481.703 113.734ZM482.797 110.344C482.789 111.836 484.211 112.781 486.281 112.781C488.328 112.781 489.75 111.836 489.75 110.344C489.75 108.859 488.328 107.875 486.281 107.875C484.203 107.875 482.789 108.859 482.797 110.344ZM483.641 121.031H493.75V119.828H485.109V116.922H483.641V121.031ZM484.203 110.344C484.195 109.508 485.039 108.969 486.281 108.984C487.477 108.969 488.336 109.508 488.344 110.344C488.336 111.172 487.477 111.688 486.281 111.688C485.039 111.688 484.195 111.172 484.203 110.344Z" fill="#4B5563"/>
<rect x="804" y="24" width="273" height="127" rx="4" fill="#008DFF"/>
<path d="M843.508 44.043H841.027V49.1797H837.844V51.2305H841.027V57.0312H843.508V44.043ZM828.762 53.2812L829.777 55.2539C834.973 53.6426 838 50.1172 838 45.3516H829.68V47.3828H835.285C834.826 50 832.443 52.1289 828.762 53.2812ZM831.789 61.4844H843.957V59.4922H834.328V55.7227H831.789V61.4844ZM859.753 44.0234H857.214V54.3164H859.753V50.2734H862.116V48.2422H859.753V44.0234ZM846.237 53.3594H847.722C851.736 53.3496 853.825 53.2715 856.023 52.793L855.808 50.8008C853.825 51.2207 852.019 51.3281 848.718 51.3477V47.207H854.226V45.2148H846.237V53.3594ZM847.8 58.1836C847.79 60.4688 850.173 61.8066 853.894 61.7969C857.546 61.8066 859.88 60.4688 859.89 58.1836C859.88 55.9473 857.546 54.6289 853.894 54.6289C850.173 54.6289 847.79 55.9473 847.8 58.1836ZM850.261 58.1836C850.251 57.1387 851.56 56.5918 853.894 56.6016C856.15 56.5918 857.458 57.1387 857.468 58.1836C857.458 59.2578 856.15 59.8242 853.894 59.8242C851.56 59.8242 850.251 59.2578 850.261 58.1836ZM874.002 48.8672V47.7734H877.713V45.7422H867.673V47.7734H871.443V48.8672C871.443 51.875 869.92 55.166 866.97 56.4844L868.396 58.457C870.496 57.4902 871.97 55.5371 872.771 53.2031C873.572 55.3516 875.017 57.1191 877.107 58.0078L878.455 56.0547C875.476 54.8145 873.992 51.7383 874.002 48.8672ZM879.47 61.7969H881.99V44.0234H879.47V61.7969ZM899.251 44.043H896.751V54.3555H893.352V56.0547H896.751V57.4609H899.251V44.043ZM884.134 51.9141L884.427 53.8867C885.774 53.8867 887.288 53.877 888.88 53.8184V56.1719H886.399V61.4844H899.641V59.4922H888.88V57.0508H891.38V53.6719C892.815 53.5645 894.27 53.3984 895.677 53.1641L895.54 51.3867C891.78 51.8457 887.386 51.8945 884.134 51.9141ZM885.442 47.832C885.442 49.7363 887.268 50.9668 889.915 50.957C892.493 50.9668 894.339 49.7363 894.348 47.832C894.339 45.9375 892.493 44.6387 889.915 44.6484C887.268 44.6387 885.442 45.9375 885.442 47.832ZM887.805 47.832C887.796 46.9531 888.645 46.4648 889.915 46.4648C891.106 46.4648 891.966 46.9531 891.985 47.832C891.966 48.6914 891.106 49.1699 889.915 49.1602C888.645 49.1699 887.796 48.6914 887.805 47.832ZM915.613 44.8242H903.27V46.8164H913.133C913.113 48.0664 913.064 49.4434 912.684 51.2109H901.277V53.2227H917.547V51.2109H915.193C915.623 49.1699 915.623 47.6367 915.613 46.25V44.8242ZM903.211 61.6016H915.555V55.0977H903.211V61.6016ZM905.652 59.6094V57.0508H913.074V59.6094H905.652ZM922.523 45.0977C920.15 45.0879 918.431 46.8848 918.441 49.4336C918.431 52.002 920.15 53.75 922.523 53.75C924.886 53.75 926.634 52.002 926.644 49.4336C926.634 46.8848 924.886 45.0879 922.523 45.0977ZM920.667 49.4336C920.657 48.0273 921.429 47.2168 922.523 47.207C923.607 47.2168 924.368 48.0273 924.378 49.4336C924.368 50.8301 923.607 51.6797 922.523 51.6797C921.429 51.6797 920.657 50.8301 920.667 49.4336ZM921.351 57.4219H931.155V61.7969H933.636V55.4297H921.351V57.4219ZM927.503 54.5508H929.808V50.332H931.273V54.6484H933.636V44.043H931.273V48.3398H929.808V44.3555H927.503V54.5508Z" fill="#111827"/>
<path d="M843.508 44.043H841.027V49.1797H837.844V51.2305H841.027V57.0312H843.508V44.043ZM828.762 53.2812L829.777 55.2539C834.973 53.6426 838 50.1172 838 45.3516H829.68V47.3828H835.285C834.826 50 832.443 52.1289 828.762 53.2812ZM831.789 61.4844H843.957V59.4922H834.328V55.7227H831.789V61.4844ZM859.753 44.0234H857.214V54.3164H859.753V50.2734H862.116V48.2422H859.753V44.0234ZM846.237 53.3594H847.722C851.736 53.3496 853.825 53.2715 856.023 52.793L855.808 50.8008C853.825 51.2207 852.019 51.3281 848.718 51.3477V47.207H854.226V45.2148H846.237V53.3594ZM847.8 58.1836C847.79 60.4688 850.173 61.8066 853.894 61.7969C857.546 61.8066 859.88 60.4688 859.89 58.1836C859.88 55.9473 857.546 54.6289 853.894 54.6289C850.173 54.6289 847.79 55.9473 847.8 58.1836ZM850.261 58.1836C850.251 57.1387 851.56 56.5918 853.894 56.6016C856.15 56.5918 857.458 57.1387 857.468 58.1836C857.458 59.2578 856.15 59.8242 853.894 59.8242C851.56 59.8242 850.251 59.2578 850.261 58.1836ZM874.002 48.8672V47.7734H877.713V45.7422H867.673V47.7734H871.443V48.8672C871.443 51.875 869.92 55.166 866.97 56.4844L868.396 58.457C870.496 57.4902 871.97 55.5371 872.771 53.2031C873.572 55.3516 875.017 57.1191 877.107 58.0078L878.455 56.0547C875.476 54.8145 873.992 51.7383 874.002 48.8672ZM879.47 61.7969H881.99V44.0234H879.47V61.7969ZM899.251 44.043H896.751V54.3555H893.352V56.0547H896.751V57.4609H899.251V44.043ZM884.134 51.9141L884.427 53.8867C885.774 53.8867 887.288 53.877 888.88 53.8184V56.1719H886.399V61.4844H899.641V59.4922H888.88V57.0508H891.38V53.6719C892.815 53.5645 894.27 53.3984 895.677 53.1641L895.54 51.3867C891.78 51.8457 887.386 51.8945 884.134 51.9141ZM885.442 47.832C885.442 49.7363 887.268 50.9668 889.915 50.957C892.493 50.9668 894.339 49.7363 894.348 47.832C894.339 45.9375 892.493 44.6387 889.915 44.6484C887.268 44.6387 885.442 45.9375 885.442 47.832ZM887.805 47.832C887.796 46.9531 888.645 46.4648 889.915 46.4648C891.106 46.4648 891.966 46.9531 891.985 47.832C891.966 48.6914 891.106 49.1699 889.915 49.1602C888.645 49.1699 887.796 48.6914 887.805 47.832ZM915.613 44.8242H903.27V46.8164H913.133C913.113 48.0664 913.064 49.4434 912.684 51.2109H901.277V53.2227H917.547V51.2109H915.193C915.623 49.1699 915.623 47.6367 915.613 46.25V44.8242ZM903.211 61.6016H915.555V55.0977H903.211V61.6016ZM905.652 59.6094V57.0508H913.074V59.6094H905.652ZM922.523 45.0977C920.15 45.0879 918.431 46.8848 918.441 49.4336C918.431 52.002 920.15 53.75 922.523 53.75C924.886 53.75 926.634 52.002 926.644 49.4336C926.634 46.8848 924.886 45.0879 922.523 45.0977ZM920.667 49.4336C920.657 48.0273 921.429 47.2168 922.523 47.207C923.607 47.2168 924.368 48.0273 924.378 49.4336C924.368 50.8301 923.607 51.6797 922.523 51.6797C921.429 51.6797 920.657 50.8301 920.667 49.4336ZM921.351 57.4219H931.155V61.7969H933.636V55.4297H921.351V57.4219ZM927.503 54.5508H929.808V50.332H931.273V54.6484H933.636V44.043H931.273V48.3398H929.808V44.3555H927.503V54.5508Z" fill="white"/>
<path d="M893.495 127H907.659V123.609H899.21V123.5L902.218 120.574C906.292 116.883 907.386 115.037 907.386 112.781C907.386 109.35 904.569 106.93 900.331 106.93C896.161 106.93 893.29 109.404 893.304 113.273H897.214C897.2 111.373 898.417 110.197 900.276 110.211C902.095 110.197 903.421 111.291 903.421 113.055C903.421 114.627 902.423 115.721 900.577 117.484L893.468 124.02L893.495 127ZM917.989 127.273C922.938 127.273 925.946 123.609 925.946 117.102C925.946 110.635 922.924 106.93 917.989 106.93C913.053 106.93 910.032 110.635 910.032 117.102C910.032 123.582 913.026 127.273 917.989 127.273ZM914.243 117.102C914.243 112.576 915.705 110.307 917.989 110.293C920.272 110.307 921.748 112.576 921.735 117.102C921.748 121.668 920.285 123.883 917.989 123.883C915.692 123.883 914.215 121.668 914.243 117.102ZM931.873 106.191H928.564V118.25H938.49V106.191H935.263V109.746H931.873V106.191ZM931.873 123.555H945.599V129.516H949.072V120.766H931.873V123.555ZM931.873 115.488V112.398H935.263V115.488H931.873ZM940.431 119.508H943.685V113.547H945.763V119.645H949.072V104.66H945.763V110.73H943.685V105.098H940.431V119.508ZM964.296 106.684H952.347V118.633H964.296V106.684ZM955.218 129.078H972.253V126.289H958.69V121.012H955.218V129.078ZM955.792 115.898V109.473H960.85V115.898H955.792ZM967.85 122.789H971.35V114.668H974.714V111.797H971.35V104.633H967.85V122.789ZM996.61 104.66H993.11V119.098H988.352V121.477H993.11V123.445H996.61V104.66ZM975.445 115.68L975.856 118.441C977.742 118.441 979.861 118.428 982.09 118.346V121.641H978.617V129.078H997.156V126.289H982.09V122.871H985.59V118.141C987.6 117.99 989.637 117.758 991.606 117.43L991.414 114.941C986.151 115.584 979.998 115.652 975.445 115.68ZM977.278 109.965C977.278 112.631 979.834 114.354 983.539 114.34C987.149 114.354 989.733 112.631 989.746 109.965C989.733 107.312 987.149 105.494 983.539 105.508C979.834 105.494 977.278 107.312 977.278 109.965ZM980.586 109.965C980.572 108.734 981.762 108.051 983.539 108.051C985.207 108.051 986.41 108.734 986.438 109.965C986.41 111.168 985.207 111.838 983.539 111.824C981.762 111.838 980.572 111.168 980.586 109.965ZM1026.46 104.633H1022.93V129.57H1026.46V104.633ZM1006.36 115.242C1006.34 120.711 1009.12 124.129 1012.95 124.129C1016.69 124.129 1019.48 120.711 1019.48 115.242C1019.48 109.814 1016.69 106.383 1012.95 106.383C1009.12 106.383 1006.34 109.814 1006.36 115.242ZM1009.72 115.242C1009.71 111.551 1011.01 109.527 1012.95 109.527C1014.83 109.527 1016.11 111.551 1016.12 115.242C1016.11 118.947 1014.83 120.971 1012.95 120.957C1011.01 120.971 1009.71 118.947 1009.72 115.242ZM1051 104.633H1047.64V114.258H1045.32V105.043H1042.04V128.312H1045.32V117.074H1047.64V129.516H1051V104.633ZM1030.55 123.445H1032.25C1034.82 123.459 1037.66 123.281 1041 122.707L1040.64 119.699C1038.25 120.164 1036.05 120.342 1034.05 120.396V107.395H1030.55V123.445Z" fill="white"/>
<rect x="172" y="167" width="616" height="127" rx="4" fill="#FCFCFC"/>
<path d="M197.191 203H203.188C206.381 203 208.061 201.34 208.07 199.094C208.061 197.004 206.557 195.734 204.965 195.656V195.52C206.42 195.197 207.514 194.152 207.504 192.492C207.514 190.363 205.932 188.859 202.816 188.859H197.191V203ZM200.121 200.578V196.789H202.68C204.125 196.789 205.033 197.629 205.023 198.82C205.033 199.885 204.301 200.588 202.602 200.578H200.121ZM200.121 194.777V191.242H202.445C203.783 191.242 204.545 191.936 204.535 192.961C204.545 194.094 203.617 194.787 202.387 194.777H200.121ZM216.464 198.488C216.464 199.934 215.468 200.686 214.413 200.695C213.28 200.686 212.558 199.904 212.558 198.645V192.395H209.667V199.152C209.667 201.633 211.122 203.137 213.241 203.137C214.843 203.137 215.986 202.316 216.464 201.086H216.581V203H219.355V192.395H216.464V198.488ZM224.291 188.859H221.401V203H224.291V188.859ZM226.337 203H229.228V192.395H226.337V203ZM226.201 189.543C226.201 190.344 226.914 191.008 227.783 191.008C228.642 191.008 229.355 190.344 229.345 189.543C229.355 188.723 228.642 188.068 227.783 188.059C226.914 188.068 226.201 188.723 226.201 189.543ZM235.18 203.176C236.909 203.176 237.788 202.18 238.188 201.301H238.325V203H241.177V188.859H238.286V194.172H238.188C237.807 193.312 236.958 192.258 235.18 192.258C232.837 192.258 230.864 194.074 230.864 197.707C230.864 201.252 232.759 203.176 235.18 203.176ZM233.833 197.688C233.823 195.842 234.604 194.562 236.079 194.562C237.534 194.562 238.345 195.783 238.345 197.688C238.345 199.602 237.524 200.861 236.079 200.871C234.614 200.861 233.823 199.562 233.833 197.688ZM249.883 196.027H243.438V198.332H249.883V196.027ZM260.894 188.859V197.805C260.904 199.436 259.751 200.607 257.984 200.617C256.236 200.607 255.083 199.436 255.073 197.805V188.859H252.144V198.039C252.144 201.135 254.468 203.205 257.984 203.195C261.489 203.205 263.843 201.135 263.843 198.039V188.859H260.894ZM265.967 206.984H268.858V201.301H268.936C269.346 202.18 270.235 203.176 271.963 203.176C274.385 203.176 276.27 201.252 276.26 197.707C276.27 194.074 274.307 192.258 271.963 192.258C270.176 192.258 269.336 193.312 268.936 194.172H268.819V192.395H265.967V206.984ZM268.799 197.688C268.789 195.783 269.6 194.562 271.045 194.562C272.539 194.562 273.321 195.842 273.311 197.688C273.321 199.562 272.52 200.861 271.045 200.871C269.61 200.861 268.789 199.602 268.799 197.688Z" fill="#111827"/>
<path d="M207.945 234.266C208.93 234.258 209.719 233.469 209.727 232.484C209.719 231.516 208.93 230.727 207.945 230.719C206.977 230.727 206.188 231.516 206.18 232.484C206.188 233.469 206.977 234.258 207.945 234.266ZM225.656 227.891V225.5H224.156V227.891C224.156 230.562 222.609 233.242 220.406 234.219L221.312 235.469C222.992 234.648 224.281 232.961 224.93 230.906C225.586 232.82 226.859 234.391 228.469 235.156L229.359 233.984C227.188 233.023 225.641 230.445 225.656 227.891ZM230.625 238.359H232.109V224.328H230.625V238.359ZM246.199 224.328H244.778V238.328H246.199V224.328ZM233.981 234.469L234.887 235.578C236.254 234.727 237.207 233.164 237.707 231.336C238.199 233.023 239.113 234.453 240.449 235.25L241.34 234.156C239.371 233.023 238.403 230.625 238.403 228.234V227.109H240.809V225.906H234.403V227.109H236.981V228.234C236.973 230.727 235.965 233.273 233.981 234.469ZM239.778 230.5H241.949V237.625H243.356V224.625H241.949V229.281H239.778V230.5ZM260.618 231.031H247.852V232.219H253.493V233.719H249.383V238.156H259.055V233.719H254.961V232.219H260.618V231.031ZM249.024 225.969H251.071V228.641H249.086V229.844H259.352V228.641H257.383V225.969H259.414V224.766H249.024V225.969ZM250.852 236.953V234.891H257.618V236.953H250.852ZM252.539 228.641V225.969H255.899V228.641H252.539ZM273.536 224.328H272.114V238.328H273.536V224.328ZM261.317 234.469L262.223 235.578C263.59 234.727 264.543 233.164 265.043 231.336C265.536 233.023 266.45 234.453 267.786 235.25L268.676 234.156C266.707 233.023 265.739 230.625 265.739 228.234V227.109H268.145V225.906H261.739V227.109H264.317V228.234C264.309 230.727 263.301 233.273 261.317 234.469ZM267.114 230.5H269.286V237.625H270.692V224.625H269.286V229.281H267.114V230.5ZM280.079 226.844V226.453H283.094V225.25H275.516V226.453H278.594V226.828C278.587 228.758 277.266 230.57 275.079 231.312L275.876 232.469C277.516 231.891 278.735 230.695 279.344 229.188C279.954 230.562 281.118 231.656 282.704 232.203L283.454 231.047C281.313 230.328 280.071 228.633 280.079 226.844ZM276.938 234.656H284.704V238.328H286.188V233.453H276.938V234.656ZM284.704 232.766H286.188V229.172H288.219V227.922H286.188V224.328H284.704V232.766ZM293.669 225.156H292.184L288.544 238.703H290.028L293.669 225.156ZM305.384 225.203H295.806V226.422H303.915V226.438C303.907 227.742 303.907 229.203 303.493 231.203H294.243V232.422H299.837V238.344H301.337V232.422H307.009V231.203H304.993C305.384 229.211 305.384 227.766 305.384 226.438V225.203ZM320.724 235.359H315.052V232.047H313.567V235.359H307.911V236.578H320.724V235.359ZM308.505 231.406L309.114 232.578C311.333 232.141 313.403 230.805 314.302 228.938C315.216 230.781 317.302 232.094 319.567 232.516L320.161 231.344C317.497 230.93 315.067 229.023 315.067 226.875V226.75H319.614V225.531H308.974V226.75H313.521V226.875C313.521 229.023 311.107 230.969 308.505 231.406ZM323.173 233.156C323.775 233.148 324.275 232.656 324.283 232.047C324.275 231.438 323.775 230.938 323.173 230.938C322.564 230.938 322.056 231.438 322.064 232.047C322.056 232.656 322.564 233.148 323.173 233.156ZM336.669 225.188H327.232V226.406H335.232C335.232 227.609 335.208 229.156 334.787 231.266H325.638V232.484H328.826V238.312H330.31V232.484H333.669V238.312H335.138V232.484H338.404V231.266H336.287C336.677 229.023 336.677 227.438 336.669 226.203V225.188ZM346.728 225.25H340.244V226.453H345.134C344.861 228.68 342.837 230.461 339.509 231.359L340.072 232.531C343.095 231.719 345.252 230.148 346.197 227.953H349.494V229.719H345.962V230.922H349.494V232.672H350.978V224.344H349.494V226.766H346.572C346.673 226.281 346.728 225.781 346.728 225.25ZM341.494 234.453H349.494V238.297H350.978V233.281H341.494V234.453ZM364.111 225.219H357.455V230.969H364.111V225.219ZM358.377 237.141L358.893 238.281C361.096 238.016 362.932 237.094 363.791 235.844C364.635 237.078 366.447 238.016 368.643 238.281L369.143 237.141C366.596 236.859 364.65 235.578 364.549 234.359H368.643V233.234H364.518V231.922H363.049V233.234H358.939V234.359H363.018C362.916 235.617 360.924 236.891 358.377 237.141ZM358.908 229.812V226.406H362.643V229.812H358.908ZM366.846 232.328H368.314V224.328H366.846V232.328ZM386.151 224.328H384.729V238.328H386.151V224.328ZM373.932 234.469L374.838 235.578C376.205 234.727 377.158 233.164 377.658 231.336C378.151 233.023 379.065 234.453 380.401 235.25L381.291 234.156C379.322 233.023 378.354 230.625 378.354 228.234V227.109H380.76V225.906H374.354V227.109H376.932V228.234C376.924 230.727 375.916 233.273 373.932 234.469ZM379.729 230.5H381.901V237.625H383.307V224.625H381.901V229.281H379.729V230.5ZM400.569 231.031H387.803V232.219H393.444V233.719H389.334V238.156H399.006V233.719H394.913V232.219H400.569V231.031ZM388.975 225.969H391.022V228.641H389.038V229.844H399.303V228.641H397.334V225.969H399.366V224.766H388.975V225.969ZM390.803 236.953V234.891H397.569V236.953H390.803ZM392.491 228.641V225.969H395.85V228.641H392.491ZM416.889 224.328H415.405V226.734H412.452V227.938H415.405V231.531H416.889V224.328ZM405.171 230.406L405.967 231.594C407.624 231.023 408.819 229.852 409.428 228.344C410.046 229.68 411.21 230.734 412.749 231.266L413.53 230.109C411.421 229.438 410.139 227.781 410.139 226V224.781H408.671V226C408.663 227.969 407.358 229.711 405.171 230.406ZM407.733 233.359H415.421V234.547H407.764V238.156H417.374V236.969H409.217V235.672H416.889V232.188H407.733V233.359ZM430.917 224.328H429.511V238.328H430.917V224.328ZM418.807 234.281L419.682 235.344C422.323 233.773 423.815 231.727 424.495 229.375H426.651V231.656H424.261V232.875H426.651V237.641H428.057V224.688H426.651V228.156H424.768C424.878 227.477 424.932 226.781 424.932 226.062H419.495V227.281H423.464C423.206 230.164 421.784 232.516 418.807 234.281ZM435.069 235.922H433.319L432.491 240.234H433.819L435.069 235.922ZM451.906 224.328H450.421V226.734H447.468V227.938H450.421V231.531H451.906V224.328ZM440.187 230.406L440.984 231.594C442.64 231.023 443.835 229.852 444.445 228.344C445.062 229.68 446.226 230.734 447.765 231.266L448.546 230.109C446.437 229.438 445.156 227.781 445.156 226V224.781H443.687V226C443.679 227.969 442.374 229.711 440.187 230.406ZM442.749 233.359H450.437V234.547H442.781V238.156H452.39V236.969H444.234V235.672H451.906V232.188H442.749V233.359ZM465.933 224.328H464.527V238.328H465.933V224.328ZM453.824 234.281L454.699 235.344C457.339 233.773 458.832 231.727 459.511 229.375H461.668V231.656H459.277V232.875H461.668V237.641H463.074V224.688H461.668V228.156H459.785C459.894 227.477 459.949 226.781 459.949 226.062H454.511V227.281H458.48C458.222 230.164 456.8 232.516 453.824 234.281ZM479.179 224.344H477.695V234.516H479.179V224.344ZM467.851 228.75C467.859 230.805 469.468 232.234 471.586 232.234C473.695 232.234 475.304 230.805 475.304 228.75C475.304 226.727 473.695 225.289 471.586 225.281C469.468 225.289 467.859 226.727 467.851 228.75ZM469.304 228.75C469.297 227.461 470.281 226.578 471.586 226.578C472.867 226.578 473.851 227.461 473.851 228.75C473.851 230.07 472.867 230.938 471.586 230.938C470.281 230.938 469.297 230.07 469.304 228.75ZM470.023 238.031H479.601V236.828H471.523V233.484H470.023V238.031ZM486.113 228.453V226.969H489.16V225.734H481.488V226.969H484.644V228.453C484.637 230.82 483.098 233.461 480.973 234.484L481.848 235.656C483.441 234.859 484.754 233.133 485.394 231.141C486.027 232.969 487.277 234.547 488.848 235.297L489.691 234.141C487.566 233.133 486.105 230.664 486.113 228.453ZM490.66 238.328H492.144V231.125H494.394V229.875H492.144V224.328H490.66V238.328ZM501.828 226.641H499.094V224.734H497.625V226.641H494.875V227.844H501.828V226.641ZM495.328 231.906C495.32 233.82 496.602 235.164 498.359 235.156C500.133 235.164 501.398 233.82 501.406 231.906C501.398 230.023 500.133 228.688 498.359 228.688C496.602 228.688 495.32 230.023 495.328 231.906ZM496.641 231.906C496.633 230.742 497.352 229.93 498.359 229.922C499.367 229.93 500.094 230.742 500.094 231.906C500.094 233.094 499.367 233.891 498.359 233.891C497.352 233.891 496.633 233.094 496.641 231.906ZM502.469 237.672H503.875V231.375H505.484V238.328H506.891V224.328H505.484V230.156H503.875V224.641H502.469V237.672ZM513.512 226.562V225.047H512.027V226.484C512.02 228.555 510.754 230.398 508.559 231.156L509.356 232.359C510.988 231.734 512.176 230.516 512.793 228.961C513.395 230.375 514.535 231.5 516.074 232.062L516.887 230.875C514.777 230.172 513.504 228.422 513.512 226.562ZM510.762 234.531H518.762V238.328H520.246V233.359H510.762V234.531ZM515.809 228.375H518.762V232.625H520.246V224.328H518.762V227.156H515.809V228.375ZM207.945 260.266C208.93 260.258 209.719 259.469 209.727 258.484C209.719 257.516 208.93 256.727 207.945 256.719C206.977 256.727 206.188 257.516 206.18 258.484C206.188 259.469 206.977 260.258 207.945 260.266ZM225.656 253.891V251.5H224.156V253.891C224.156 256.562 222.609 259.242 220.406 260.219L221.312 261.469C222.992 260.648 224.281 258.961 224.93 256.906C225.586 258.82 226.859 260.391 228.469 261.156L229.359 259.984C227.188 259.023 225.641 256.445 225.656 253.891ZM230.625 264.359H232.109V250.328H230.625V264.359ZM245.856 250.328H244.371V254.531H242.184V255.766H244.371V258.812H245.856V250.328ZM234.199 252.906H242.403V251.719H239.043V250.203H237.574V251.719H234.199V252.906ZM235.012 256.047C235.012 257.555 236.387 258.555 238.309 258.562C240.231 258.555 241.59 257.555 241.59 256.047C241.59 254.578 240.231 253.547 238.309 253.547C236.387 253.547 235.012 254.578 235.012 256.047ZM236.434 256.047C236.434 255.227 237.192 254.68 238.309 254.688C239.41 254.68 240.168 255.227 240.168 256.047C240.168 256.898 239.41 257.43 238.309 257.438C237.192 257.43 236.434 256.898 236.434 256.047ZM236.621 264.156H245.856V259.5H236.621V264.156ZM238.09 262.953V260.672H244.403V262.953H238.09ZM260.649 257.656H247.836V258.844H253.618V261.422H255.086V258.844H260.649V257.656ZM249.43 264.031H259.227V262.828H250.899V260.203H249.43V264.031ZM249.524 256.422H258.961V250.766H257.477V252.469H250.993V250.766H249.524V256.422ZM250.993 255.234V253.578H257.477V255.234H250.993ZM266.457 252.562V251.047H264.973V252.484C264.965 254.555 263.7 256.398 261.504 257.156L262.301 258.359C263.934 257.734 265.122 256.516 265.739 254.961C266.34 256.375 267.481 257.5 269.02 258.062L269.832 256.875C267.723 256.172 266.45 254.422 266.457 252.562ZM263.707 260.531H271.707V264.328H273.192V259.359H263.707V260.531ZM268.754 254.375H271.707V258.625H273.192V250.328H271.707V253.156H268.754V254.375ZM280.001 251.156H278.516L274.876 264.703H276.36L280.001 251.156ZM292.559 250.328H291.137V255.938H289.341V250.609H287.95V263.609H289.341V257.156H291.137V264.328H292.559V250.328ZM281.231 260.766H282.137C283.645 260.773 285.247 260.672 287.169 260.328L287.012 259.031C285.419 259.344 284.005 259.445 282.716 259.461V251.984H281.231V260.766ZM305.384 251.203H295.806V252.422H303.915V252.438C303.907 253.742 303.907 255.203 303.493 257.203H294.243V258.422H299.837V264.344H301.337V258.422H307.009V257.203H304.993C305.384 255.211 305.384 253.766 305.384 252.438V251.203ZM312.88 252.422V251.109H311.411V252.484C311.396 254.586 310.099 256.453 307.864 257.219L308.661 258.406C310.357 257.797 311.575 256.539 312.177 254.938C312.786 256.344 313.919 257.422 315.458 257.984L316.271 256.828C314.146 256.133 312.872 254.383 312.88 252.422ZM310.161 261.656C310.153 263.344 311.95 264.305 314.896 264.297C317.825 264.305 319.622 263.344 319.63 261.656C319.622 259.961 317.825 258.977 314.896 258.984C311.95 258.977 310.153 259.961 310.161 261.656ZM311.63 261.656C311.622 260.695 312.841 260.141 314.896 260.141C316.935 260.141 318.153 260.695 318.161 261.656C318.153 262.586 316.935 263.133 314.896 263.125C312.841 263.133 311.622 262.586 311.63 261.656ZM315.146 254.391H318.099V258.594H319.583V250.328H318.099V253.172H315.146V254.391ZM329.423 251.344H321.986V252.547H323.298V256.961C322.697 256.969 322.118 256.969 321.595 256.969L321.783 258.203C324.025 258.203 327.165 258.156 329.861 257.734L329.798 256.609C329.243 256.68 328.673 256.734 328.079 256.781V252.547H329.423V251.344ZM323.829 261.766C323.822 263.367 325.603 264.305 328.564 264.297C331.517 264.305 333.29 263.367 333.298 261.766C333.29 260.133 331.517 259.203 328.564 259.203C325.603 259.203 323.822 260.133 323.829 261.766ZM324.736 256.938V252.547H326.658V256.867C326.009 256.898 325.368 256.922 324.736 256.938ZM325.298 261.766C325.29 260.859 326.493 260.352 328.564 260.359C330.618 260.352 331.822 260.859 331.829 261.766C331.822 262.648 330.618 263.148 328.564 263.156C326.493 263.148 325.29 262.648 325.298 261.766ZM329.626 256.5H331.767V258.938H333.251V250.328H331.767V252.766H329.626V253.953H331.767V255.312H329.626V256.5ZM346.154 250.328H344.669V264.312H346.154V257.141H348.326V255.906H346.154V250.328ZM335.263 260.578L336.091 261.734C340.701 259.461 342.482 255.844 342.497 251.797H335.966V253.031H340.982C340.677 256.297 338.771 258.828 335.263 260.578ZM353.728 251.156H352.244L348.603 264.703H350.087L353.728 251.156ZM365.49 250.984H355.912V252.188H364.021C364.021 253.188 364.006 254.352 363.678 255.922H354.303V257.125H359.943V259.516H355.615V260.703H364.068V264.328H365.553V259.516H361.428V257.125H367.115V255.922H365.17C365.498 254.297 365.498 253.062 365.49 252.031V250.984ZM379.955 250.328H378.533V255.938H376.736V250.609H375.346V263.609H376.736V257.156H378.533V264.328H379.955V250.328ZM368.627 260.766H369.533C371.041 260.773 372.643 260.672 374.564 260.328L374.408 259.031C372.814 259.344 371.4 259.445 370.111 259.461V251.984H368.627V260.766ZM386.201 251.219C383.998 251.219 382.381 252.578 382.389 254.547C382.381 256.281 383.639 257.547 385.451 257.82V260.094C384.1 260.133 382.818 260.141 381.717 260.141L381.904 261.359C384.404 261.352 387.803 261.336 390.967 260.75L390.857 259.672C389.6 259.852 388.256 259.969 386.936 260.031V257.82C388.756 257.555 390.006 256.289 390.014 254.547C390.006 252.578 388.412 251.219 386.201 251.219ZM383.857 254.547C383.842 253.297 384.842 252.5 386.201 252.5C387.561 252.5 388.561 253.297 388.561 254.547C388.561 255.773 387.561 256.609 386.201 256.594C384.842 256.609 383.842 255.773 383.857 254.547ZM391.732 264.359H393.217V250.328H391.732V264.359ZM406.916 250.344H405.432V260.516H406.916V250.344ZM395.588 254.75C395.596 256.805 397.205 258.234 399.322 258.234C401.432 258.234 403.041 256.805 403.041 254.75C403.041 252.727 401.432 251.289 399.322 251.281C397.205 251.289 395.596 252.727 395.588 254.75ZM397.041 254.75C397.033 253.461 398.018 252.578 399.322 252.578C400.604 252.578 401.588 253.461 401.588 254.75C401.588 256.07 400.604 256.938 399.322 256.938C398.018 256.938 397.033 256.07 397.041 254.75ZM397.76 264.031H407.338V262.828H399.26V259.484H397.76V264.031ZM421.741 256.922H408.975V258.125H421.741V256.922ZM409.647 255.016L410.163 256.188C412.592 255.906 414.584 254.883 415.358 253.406C416.116 254.883 418.123 255.906 420.553 256.188L421.084 255.016C418.491 254.742 416.514 253.594 416.342 252.234H420.6V251.016H410.147V252.234H414.358C414.194 253.602 412.186 254.742 409.647 255.016ZM410.491 261.766C410.491 263.391 412.311 264.305 415.35 264.297C418.366 264.305 420.17 263.391 420.178 261.766C420.17 260.141 418.366 259.203 415.35 259.203C412.311 259.203 410.491 260.141 410.491 261.766ZM411.991 261.766C411.983 260.859 413.209 260.375 415.35 260.359C417.459 260.375 418.694 260.859 418.694 261.766C418.694 262.648 417.459 263.133 415.35 263.125C413.209 263.133 411.983 262.648 411.991 261.766ZM431.546 254.453V252.969H434.733V251.734H426.842V252.969H430.046V254.453C430.03 256.867 428.467 259.492 426.358 260.484L427.217 261.656C428.85 260.859 430.163 259.156 430.811 257.156C431.46 259.023 432.772 260.57 434.421 261.297L435.233 260.141C433.077 259.219 431.538 256.797 431.546 254.453ZM436.499 264.328H437.983V250.328H436.499V264.328ZM451.698 250.344H450.214V258.562H447.401V259.609H450.214V260.953H451.698V250.344ZM439.995 256.734L440.182 257.922C441.315 257.922 442.62 257.922 443.979 257.867V260.516H445.464V257.789C446.698 257.703 447.956 257.578 449.151 257.375L449.057 256.312C446.073 256.688 442.581 256.711 439.995 256.734ZM441.089 253.344C441.081 254.836 442.503 255.781 444.573 255.781C446.62 255.781 448.042 254.836 448.042 253.344C448.042 251.859 446.62 250.875 444.573 250.875C442.495 250.875 441.081 251.859 441.089 253.344ZM441.932 264.031H452.042V262.828H443.401V259.922H441.932V264.031ZM442.495 253.344C442.487 252.508 443.331 251.969 444.573 251.984C445.768 251.969 446.628 252.508 446.636 253.344C446.628 254.172 445.768 254.688 444.573 254.688C443.331 254.688 442.487 254.172 442.495 253.344Z" fill="#4B5563"/>
<rect x="804" y="167" width="273" height="127" rx="4" fill="#008DFF"/>
<path d="M843.508 187.043H841.027V192.18H837.844V194.23H841.027V200.031H843.508V187.043ZM828.762 196.281L829.777 198.254C834.973 196.643 838 193.117 838 188.352H829.68V190.383H835.285C834.826 193 832.443 195.129 828.762 196.281ZM831.789 204.484H843.957V202.492H834.328V198.723H831.789V204.484ZM859.753 187.023H857.214V197.316H859.753V193.273H862.116V191.242H859.753V187.023ZM846.237 196.359H847.722C851.736 196.35 853.825 196.271 856.023 195.793L855.808 193.801C853.825 194.221 852.019 194.328 848.718 194.348V190.207H854.226V188.215H846.237V196.359ZM847.8 201.184C847.79 203.469 850.173 204.807 853.894 204.797C857.546 204.807 859.88 203.469 859.89 201.184C859.88 198.947 857.546 197.629 853.894 197.629C850.173 197.629 847.79 198.947 847.8 201.184ZM850.261 201.184C850.251 200.139 851.56 199.592 853.894 199.602C856.15 199.592 857.458 200.139 857.468 201.184C857.458 202.258 856.15 202.824 853.894 202.824C851.56 202.824 850.251 202.258 850.261 201.184ZM874.002 191.867V190.773H877.713V188.742H867.673V190.773H871.443V191.867C871.443 194.875 869.92 198.166 866.97 199.484L868.396 201.457C870.496 200.49 871.97 198.537 872.771 196.203C873.572 198.352 875.017 200.119 877.107 201.008L878.455 199.055C875.476 197.814 873.992 194.738 874.002 191.867ZM879.47 204.797H881.99V187.023H879.47V204.797ZM899.251 187.043H896.751V197.355H893.352V199.055H896.751V200.461H899.251V187.043ZM884.134 194.914L884.427 196.887C885.774 196.887 887.288 196.877 888.88 196.818V199.172H886.399V204.484H899.641V202.492H888.88V200.051H891.38V196.672C892.815 196.564 894.27 196.398 895.677 196.164L895.54 194.387C891.78 194.846 887.386 194.895 884.134 194.914ZM885.442 190.832C885.442 192.736 887.268 193.967 889.915 193.957C892.493 193.967 894.339 192.736 894.348 190.832C894.339 188.938 892.493 187.639 889.915 187.648C887.268 187.639 885.442 188.938 885.442 190.832ZM887.805 190.832C887.796 189.953 888.645 189.465 889.915 189.465C891.106 189.465 891.966 189.953 891.985 190.832C891.966 191.691 891.106 192.17 889.915 192.16C888.645 192.17 887.796 191.691 887.805 190.832ZM915.613 187.824H903.27V189.816H913.133C913.113 191.066 913.064 192.443 912.684 194.211H901.277V196.223H917.547V194.211H915.193C915.623 192.17 915.623 190.637 915.613 189.25V187.824ZM903.211 204.602H915.555V198.098H903.211V204.602ZM905.652 202.609V200.051H913.074V202.609H905.652ZM922.523 188.098C920.15 188.088 918.431 189.885 918.441 192.434C918.431 195.002 920.15 196.75 922.523 196.75C924.886 196.75 926.634 195.002 926.644 192.434C926.634 189.885 924.886 188.088 922.523 188.098ZM920.667 192.434C920.657 191.027 921.429 190.217 922.523 190.207C923.607 190.217 924.368 191.027 924.378 192.434C924.368 193.83 923.607 194.68 922.523 194.68C921.429 194.68 920.657 193.83 920.667 192.434ZM921.351 200.422H931.155V204.797H933.636V198.43H921.351V200.422ZM927.503 197.551H929.808V193.332H931.273V197.648H933.636V187.043H931.273V191.34H929.808V187.355H927.503V197.551Z" fill="white"/>
<path d="M900.249 270.273C904.72 270.287 907.755 267.402 907.741 263.383C907.755 259.65 905.103 256.984 901.534 256.984C899.347 256.984 897.392 258.01 896.476 259.773H896.284C896.312 255.877 897.72 253.457 900.413 253.457C902.013 253.457 903.148 254.318 903.476 255.699H907.523C907.126 252.445 904.392 249.93 900.413 249.93C895.464 249.93 892.278 253.881 892.265 260.566C892.251 267.812 896.161 270.26 900.249 270.273ZM896.694 263.492C896.722 261.564 898.253 259.979 900.276 259.965C902.286 259.979 903.749 261.51 903.749 263.492C903.749 265.488 902.259 267.033 900.222 267.02C898.198 267.033 896.722 265.434 896.694 263.492ZM917.989 270.273C922.938 270.273 925.946 266.609 925.946 260.102C925.946 253.635 922.924 249.93 917.989 249.93C913.053 249.93 910.032 253.635 910.032 260.102C910.032 266.582 913.026 270.273 917.989 270.273ZM914.243 260.102C914.243 255.576 915.705 253.307 917.989 253.293C920.272 253.307 921.748 255.576 921.735 260.102C921.748 264.668 920.285 266.883 917.989 266.883C915.692 266.883 914.215 264.668 914.243 260.102ZM931.873 249.191H928.564V261.25H938.49V249.191H935.263V252.746H931.873V249.191ZM931.873 266.555H945.599V272.516H949.072V263.766H931.873V266.555ZM931.873 258.488V255.398H935.263V258.488H931.873ZM940.431 262.508H943.685V256.547H945.763V262.645H949.072V247.66H945.763V253.73H943.685V248.098H940.431V262.508ZM964.296 249.684H952.347V261.633H964.296V249.684ZM955.218 272.078H972.253V269.289H958.69V264.012H955.218V272.078ZM955.792 258.898V252.473H960.85V258.898H955.792ZM967.85 265.789H971.35V257.668H974.714V254.797H971.35V247.633H967.85V265.789ZM996.61 247.66H993.11V262.098H988.352V264.477H993.11V266.445H996.61V247.66ZM975.445 258.68L975.856 261.441C977.742 261.441 979.861 261.428 982.09 261.346V264.641H978.617V272.078H997.156V269.289H982.09V265.871H985.59V261.141C987.6 260.99 989.637 260.758 991.606 260.43L991.414 257.941C986.151 258.584 979.998 258.652 975.445 258.68ZM977.278 252.965C977.278 255.631 979.834 257.354 983.539 257.34C987.149 257.354 989.733 255.631 989.746 252.965C989.733 250.312 987.149 248.494 983.539 248.508C979.834 248.494 977.278 250.312 977.278 252.965ZM980.586 252.965C980.572 251.734 981.762 251.051 983.539 251.051C985.207 251.051 986.41 251.734 986.438 252.965C986.41 254.168 985.207 254.838 983.539 254.824C981.762 254.838 980.572 254.168 980.586 252.965ZM1026.46 247.633H1022.93V272.57H1026.46V247.633ZM1006.36 258.242C1006.34 263.711 1009.12 267.129 1012.95 267.129C1016.69 267.129 1019.48 263.711 1019.48 258.242C1019.48 252.814 1016.69 249.383 1012.95 249.383C1009.12 249.383 1006.34 252.814 1006.36 258.242ZM1009.72 258.242C1009.71 254.551 1011.01 252.527 1012.95 252.527C1014.83 252.527 1016.11 254.551 1016.12 258.242C1016.11 261.947 1014.83 263.971 1012.95 263.957C1011.01 263.971 1009.71 261.947 1009.72 258.242ZM1051 247.633H1047.64V257.258H1045.32V248.043H1042.04V271.312H1045.32V260.074H1047.64V272.516H1051V247.633ZM1030.55 266.445H1032.25C1034.82 266.459 1037.66 266.281 1041 265.707L1040.64 262.699C1038.25 263.164 1036.05 263.342 1034.05 263.396V250.395H1030.55V266.445Z" fill="white"/>
<rect x="172" y="310" width="616" height="127" rx="4" fill="#FCFCFC"/>
<path d="M197.191 346H203.188C206.381 346 208.061 344.34 208.07 342.094C208.061 340.004 206.557 338.734 204.965 338.656V338.52C206.42 338.197 207.514 337.152 207.504 335.492C207.514 333.363 205.932 331.859 202.816 331.859H197.191V346ZM200.121 343.578V339.789H202.68C204.125 339.789 205.033 340.629 205.023 341.82C205.033 342.885 204.301 343.588 202.602 343.578H200.121ZM200.121 337.777V334.242H202.445C203.783 334.242 204.545 334.936 204.535 335.961C204.545 337.094 203.617 337.787 202.387 337.777H200.121ZM214.433 346.215C217.646 346.205 219.638 344.008 219.648 340.727C219.638 337.455 217.646 335.258 214.433 335.258C211.23 335.258 209.228 337.455 209.238 340.727C209.228 344.008 211.23 346.205 214.433 346.215ZM212.167 340.727C212.167 338.861 212.939 337.465 214.452 337.465C215.927 337.465 216.708 338.861 216.698 340.727C216.708 342.582 215.927 343.959 214.452 343.969C212.939 343.959 212.167 342.582 212.167 340.727ZM226.03 346.215C229.243 346.205 231.235 344.008 231.245 340.727C231.235 337.455 229.243 335.258 226.03 335.258C222.827 335.258 220.825 337.455 220.834 340.727C220.825 344.008 222.827 346.205 226.03 346.215ZM223.764 340.727C223.764 338.861 224.536 337.465 226.049 337.465C227.524 337.465 228.305 338.861 228.295 340.727C228.305 342.582 227.524 343.959 226.049 343.969C224.536 343.959 223.764 342.582 223.764 340.727ZM238.916 338.539H241.63C241.474 336.527 239.814 335.258 237.138 335.258C234.404 335.258 232.656 336.527 232.666 338.559C232.656 340.131 233.691 341.166 235.713 341.566L237.47 341.918C238.466 342.123 238.916 342.465 238.916 343.012C238.916 343.695 238.213 344.115 237.158 344.125C236.093 344.115 235.42 343.686 235.283 342.855H232.373C232.617 344.926 234.296 346.205 237.158 346.215C239.98 346.205 241.855 344.809 241.865 342.719C241.855 341.195 240.859 340.277 238.798 339.848L236.904 339.457C235.898 339.252 235.527 338.881 235.537 338.402C235.527 337.758 236.24 337.318 237.177 337.309C238.144 337.318 238.789 337.797 238.916 338.539ZM249.028 335.395H247.036V332.855H244.145V335.395H242.68V337.562H244.145V343.148C244.126 345.209 245.552 346.146 247.641 346.137C248.354 346.146 248.872 346.088 249.184 346.039V343.754C248.833 343.783 248.325 343.812 248.032 343.812C247.446 343.793 247.026 343.588 247.036 342.738V337.562H249.028V335.395ZM256.895 339.027H250.449V341.332H256.895V339.027ZM267.905 331.859V340.805C267.915 342.436 266.763 343.607 264.995 343.617C263.247 343.607 262.095 342.436 262.085 340.805V331.859H259.155V341.039C259.155 344.135 261.48 346.205 264.995 346.195C268.501 346.205 270.855 344.135 270.855 341.039V331.859H267.905ZM272.979 349.984H275.87V344.301H275.948C276.358 345.18 277.246 346.176 278.975 346.176C281.397 346.176 283.282 344.252 283.272 340.707C283.282 337.074 281.319 335.258 278.975 335.258C277.188 335.258 276.348 336.312 275.948 337.172H275.83V335.395H272.979V349.984ZM275.811 340.688C275.801 338.783 276.612 337.562 278.057 337.562C279.551 337.562 280.332 338.842 280.323 340.688C280.332 342.562 279.532 343.861 278.057 343.871C276.621 343.861 275.801 342.602 275.811 340.688Z" fill="#111827"/>
<path d="M207.945 377.266C208.93 377.258 209.719 376.469 209.727 375.484C209.719 374.516 208.93 373.727 207.945 373.719C206.977 373.727 206.188 374.516 206.18 375.484C206.188 376.469 206.977 377.258 207.945 377.266ZM232.188 367.344H230.703V369.453H227.211C226.555 368.672 225.547 368.195 224.391 368.188C222.281 368.203 220.711 369.68 220.719 371.75C220.711 373.805 222.281 375.281 224.391 375.281C225.555 375.281 226.57 374.805 227.227 374.016H230.703V377.656H232.188V367.344ZM222.141 371.75C222.133 370.43 223.078 369.523 224.391 369.516C225.648 369.523 226.609 370.43 226.609 371.75C226.609 373.07 225.648 373.977 224.391 373.969C223.078 373.977 222.133 373.07 222.141 371.75ZM223.094 381.031H232.562V379.828H224.578V376.578H223.094V381.031ZM227.867 370.656H230.703V372.812H227.875C227.977 372.484 228.031 372.125 228.031 371.75C228.031 371.359 227.977 371 227.867 370.656ZM245.324 368.203H235.746V369.422H243.856V369.438C243.848 370.742 243.848 372.203 243.434 374.203H234.184V375.422H239.778V381.344H241.278V375.422H246.949V374.203H244.934C245.324 372.211 245.324 370.766 245.324 369.438V368.203ZM260.664 378.328H254.93V375H253.461V378.328H247.852V379.547H260.664V378.328ZM248.289 374.031L248.946 375.25C251.203 374.805 253.266 373.391 254.188 371.484C255.11 373.398 257.188 374.805 259.461 375.25L260.102 374.031C257.399 373.578 254.961 371.5 254.961 369.281V368.219H253.399V369.281C253.391 371.5 250.985 373.578 248.289 374.031ZM273.161 367.328H271.661V381.328H273.161V367.328ZM261.661 377.578L262.442 378.781C267.247 376.477 268.989 372.93 268.989 368.828H262.332V370.016H267.489C267.2 373.281 265.379 375.805 261.661 377.578ZM279.063 367.969C276.923 367.953 275.383 369.312 275.391 371.219C275.383 373.148 276.923 374.5 279.063 374.5C280.923 374.5 282.36 373.422 282.649 371.812H285.376V374.844H286.86V367.328H285.376V370.594H282.641C282.337 369.023 280.907 367.953 279.063 367.969ZM276.813 371.219C276.805 370.016 277.743 369.195 279.063 369.203C280.36 369.195 281.282 370.016 281.282 371.219C281.282 372.414 280.36 373.25 279.063 373.25C277.743 373.25 276.805 372.414 276.813 371.219ZM277.735 381.156H286.86V375.516H285.376V377.141H279.204V375.516H277.735V381.156ZM279.204 379.938V378.312H285.376V379.938H279.204ZM304.196 367.328H302.712V381.359H304.196V367.328ZM293.087 373.281C293.087 376.305 294.595 378.211 296.712 378.203C298.79 378.211 300.321 376.305 300.321 373.281C300.321 370.289 298.79 368.383 296.712 368.375C294.595 368.383 293.087 370.289 293.087 373.281ZM294.524 373.281C294.517 371.086 295.407 369.711 296.712 369.703C297.993 369.711 298.884 371.086 298.884 373.281C298.884 375.508 297.993 376.875 296.712 376.875C295.407 376.875 294.517 375.508 294.524 373.281ZM317.942 367.344H316.458V371.125H313.786V372.328H316.458V377.594H317.942V367.344ZM306.286 374.672L307.052 375.875C308.716 375.281 309.942 374.047 310.552 372.5C311.161 373.891 312.325 375.016 313.896 375.562L314.661 374.375C312.544 373.672 311.278 371.914 311.286 370.172V369.625H314.286V368.406H306.739V369.625H309.771V370.172C309.778 372.102 308.435 373.945 306.286 374.672ZM308.849 381.031H318.317V379.828H310.333V376.672H308.849V381.031ZM331.579 367.328H330.079V381.328H331.579V367.328ZM320.079 377.578L320.861 378.781C325.665 376.477 327.408 372.93 327.408 368.828H320.751V370.016H325.908C325.618 373.281 323.798 375.805 320.079 377.578ZM340.747 367.859V367.391H339.232V367.859C339.224 369.469 337.013 370.82 334.279 371.125L334.794 372.25C337.068 371.969 339.076 371 339.982 369.57C340.88 371 342.888 371.969 345.185 372.25L345.701 371.125C342.974 370.82 340.755 369.469 340.747 367.859ZM333.607 374.25H339.232V375.5H335.138V376.641H343.294V377.734H335.154V381.188H345.154V380.047H336.607V378.812H344.763V375.5H340.716V374.25H346.372V373.062H333.607V374.25ZM352.087 368.156H350.603L346.962 381.703H348.447L352.087 368.156ZM364.271 367.344H362.787V377.594H364.271V367.344ZM352.74 374.438L353.537 375.609C355.178 374.977 356.388 373.68 357.006 372.055C357.631 373.57 358.826 374.758 360.443 375.359L361.209 374.172C359.045 373.422 357.748 371.547 357.756 369.5V368.109H356.24V369.5C356.232 371.609 354.935 373.625 352.74 374.438ZM355.115 381.031H364.693V379.828H356.615V376.625H355.115V381.031ZM377.361 368.188H367.924V369.406H375.924C375.924 370.609 375.9 372.156 375.478 374.266H366.33V375.484H369.518V381.312H371.002V375.484H374.361V381.312H375.83V375.484H379.096V374.266H376.978C377.369 372.023 377.369 370.438 377.361 369.203V368.188ZM391.639 367.328H390.139V381.328H391.639V367.328ZM380.139 377.578L380.92 378.781C385.725 376.477 387.467 372.93 387.467 368.828H380.811V370.016H385.967C385.678 373.281 383.857 375.805 380.139 377.578ZM400.807 367.859V367.391H399.291V367.859C399.283 369.469 397.072 370.82 394.338 371.125L394.854 372.25C397.127 371.969 399.135 371 400.041 369.57C400.94 371 402.947 371.969 405.244 372.25L405.76 371.125C403.033 370.82 400.815 369.469 400.807 367.859ZM393.666 374.25H399.291V375.5H395.197V376.641H403.354V377.734H395.213V381.188H405.213V380.047H396.666V378.812H404.822V375.5H400.776V374.25H406.432V373.062H393.666V374.25ZM415.94 370.891V368.5H414.456V370.891C414.448 373.453 412.995 376.141 410.846 377.172L411.768 378.375C413.362 377.547 414.588 375.867 415.213 373.883C415.831 375.75 417.01 377.312 418.534 378.109L419.456 376.922C417.37 375.906 415.924 373.367 415.94 370.891ZM420.503 381.328H421.987V374.172H424.237V372.906H421.987V367.328H420.503V381.328ZM428.624 367.969C426.483 367.953 424.944 369.312 424.952 371.219C424.944 373.148 426.483 374.5 428.624 374.5C430.483 374.5 431.921 373.422 432.21 371.812H434.936V374.844H436.421V367.328H434.936V370.594H432.202C431.897 369.023 430.467 367.953 428.624 367.969ZM426.374 371.219C426.366 370.016 427.303 369.195 428.624 369.203C429.921 369.195 430.842 370.016 430.842 371.219C430.842 372.414 429.921 373.25 428.624 373.25C427.303 373.25 426.366 372.414 426.374 371.219ZM427.296 381.156H436.421V375.516H434.936V377.141H428.764V375.516H427.296V381.156ZM428.764 379.938V378.312H434.936V379.938H428.764ZM449.386 367.328H447.901V381.328H449.386V374.438H451.495V373.188H449.386V367.328ZM438.245 377.516L438.479 378.75C440.893 378.758 444.167 378.727 447.198 378.188L447.104 377.094C445.94 377.258 444.69 377.359 443.448 377.422V376.055C445.034 375.828 446.081 374.867 446.089 373.516C446.081 371.938 444.698 370.898 442.714 370.891C440.722 370.898 439.354 371.938 439.37 373.516C439.354 374.867 440.386 375.82 441.964 376.055V377.477C440.628 377.516 439.347 377.516 438.245 377.516ZM438.511 370.172H446.901V368.984H443.448V367.359H441.964V368.984H438.511V370.172ZM440.761 373.516C440.761 372.617 441.542 372.047 442.714 372.047C443.886 372.047 444.659 372.617 444.667 373.516C444.659 374.406 443.886 374.961 442.714 374.953C441.542 374.961 440.761 374.406 440.761 373.516ZM460.987 371.453V369.969H464.175V368.734H456.284V369.969H459.487V371.453C459.472 373.867 457.909 376.492 455.8 377.484L456.659 378.656C458.292 377.859 459.605 376.156 460.253 374.156C460.902 376.023 462.214 377.57 463.862 378.297L464.675 377.141C462.519 376.219 460.98 373.797 460.987 371.453ZM465.941 381.328H467.425V367.328H465.941V381.328ZM481.14 367.344H479.656V375.562H476.843V376.609H479.656V377.953H481.14V367.344ZM469.437 373.734L469.624 374.922C470.757 374.922 472.062 374.922 473.421 374.867V377.516H474.906V374.789C476.14 374.703 477.398 374.578 478.593 374.375L478.499 373.312C475.515 373.688 472.023 373.711 469.437 373.734ZM470.531 370.344C470.523 371.836 471.945 372.781 474.015 372.781C476.062 372.781 477.484 371.836 477.484 370.344C477.484 368.859 476.062 367.875 474.015 367.875C471.937 367.875 470.523 368.859 470.531 370.344ZM471.374 381.031H481.484V379.828H472.843V376.922H471.374V381.031ZM471.937 370.344C471.929 369.508 472.773 368.969 474.015 368.984C475.21 368.969 476.07 369.508 476.078 370.344C476.07 371.172 475.21 371.688 474.015 371.688C472.773 371.688 471.929 371.172 471.937 370.344ZM207.945 403.266C208.93 403.258 209.719 402.469 209.727 401.484C209.719 400.516 208.93 399.727 207.945 399.719C206.977 399.727 206.188 400.516 206.18 401.484C206.188 402.469 206.977 403.258 207.945 403.266ZM225.484 395.422V394.109H224.016V395.484C224 397.586 222.703 399.453 220.469 400.219L221.266 401.406C222.961 400.797 224.18 399.539 224.781 397.938C225.391 399.344 226.523 400.422 228.062 400.984L228.875 399.828C226.75 399.133 225.477 397.383 225.484 395.422ZM222.766 404.656C222.758 406.344 224.555 407.305 227.5 407.297C230.43 407.305 232.227 406.344 232.234 404.656C232.227 402.961 230.43 401.977 227.5 401.984C224.555 401.977 222.758 402.961 222.766 404.656ZM224.234 404.656C224.227 403.695 225.445 403.141 227.5 403.141C229.539 403.141 230.758 403.695 230.766 404.656C230.758 405.586 229.539 406.133 227.5 406.125C225.445 406.133 224.227 405.586 224.234 404.656ZM227.75 397.391H230.703V401.594H232.188V393.328H230.703V396.172H227.75V397.391ZM245.496 397.109H237.356V393.578H235.887V398.312H245.496V397.109ZM234.184 401.016H246.965V399.797H234.184V401.016ZM235.699 404.703C235.699 406.344 237.52 407.266 240.559 407.266C243.574 407.266 245.379 406.344 245.387 404.703C245.379 403.07 243.574 402.148 240.559 402.156C237.52 402.148 235.699 403.07 235.699 404.703ZM237.199 404.703C237.192 403.797 238.418 403.32 240.559 403.312C242.668 403.32 243.903 403.797 243.903 404.703C243.903 405.602 242.668 406.117 240.559 406.125C238.418 406.117 237.192 405.602 237.199 404.703ZM252.993 396.891V394.5H251.493V396.891C251.493 399.562 249.946 402.242 247.743 403.219L248.649 404.469C250.328 403.648 251.618 401.961 252.266 399.906C252.922 401.82 254.196 403.391 255.805 404.156L256.696 402.984C254.524 402.023 252.977 399.445 252.993 396.891ZM257.961 407.359H259.446V393.328H257.961V407.359ZM273.192 393.328H271.707V397.531H269.52V398.766H271.707V401.812H273.192V393.328ZM261.536 395.906H269.739V394.719H266.379V393.203H264.911V394.719H261.536V395.906ZM262.348 399.047C262.348 400.555 263.723 401.555 265.645 401.562C267.567 401.555 268.926 400.555 268.926 399.047C268.926 397.578 267.567 396.547 265.645 396.547C263.723 396.547 262.348 397.578 262.348 399.047ZM263.77 399.047C263.77 398.227 264.528 397.68 265.645 397.688C266.747 397.68 267.504 398.227 267.504 399.047C267.504 399.898 266.747 400.43 265.645 400.438C264.528 400.43 263.77 399.898 263.77 399.047ZM263.957 407.156H273.192V402.5H263.957V407.156ZM265.426 405.953V403.672H271.739V405.953H265.426ZM280.001 394.156H278.516L274.876 407.703H276.36L280.001 394.156ZM291.575 393.312H290.091V403.609H291.575V398.75H293.606V397.5H291.575V393.312ZM280.794 397.766C280.778 399.805 282.403 401.258 284.512 401.25C286.63 401.258 288.231 399.805 288.247 397.766C288.231 395.727 286.63 394.289 284.512 394.281C282.403 394.289 280.778 395.727 280.794 397.766ZM282.247 397.766C282.231 396.461 283.231 395.578 284.512 395.578C285.809 395.578 286.786 396.461 286.794 397.766C286.786 399.07 285.809 399.953 284.512 399.953C283.231 399.953 282.231 399.07 282.247 397.766ZM282.7 407.031H292.169V405.828H284.184V402.531H282.7V407.031ZM305.915 393.328H304.431V396.891H301.821V398.109H304.431V401.656H305.915V393.328ZM294.243 400.391L295.024 401.578C296.696 400.961 297.923 399.703 298.532 398.141C299.142 399.523 300.298 400.648 301.868 401.188L302.634 400.016C300.517 399.297 299.251 397.57 299.259 395.797V395.5H302.259V394.297H294.712V395.5H297.743V395.812C297.751 397.742 296.415 399.633 294.243 400.391ZM296.493 404.688C296.485 406.352 298.282 407.32 301.228 407.328C304.157 407.32 305.954 406.352 305.962 404.688C305.954 403.023 304.157 402.055 301.228 402.047C298.282 402.055 296.485 403.023 296.493 404.688ZM297.962 404.688C297.954 403.734 299.173 403.195 301.228 403.203C303.267 403.195 304.485 403.734 304.493 404.688C304.485 405.633 303.267 406.172 301.228 406.156C299.173 406.172 297.954 405.633 297.962 404.688ZM312.88 395.422V394.109H311.411V395.484C311.396 397.586 310.099 399.453 307.864 400.219L308.661 401.406C310.357 400.797 311.575 399.539 312.177 397.938C312.786 399.344 313.919 400.422 315.458 400.984L316.271 399.828C314.146 399.133 312.872 397.383 312.88 395.422ZM310.161 404.656C310.153 406.344 311.95 407.305 314.896 407.297C317.825 407.305 319.622 406.344 319.63 404.656C319.622 402.961 317.825 401.977 314.896 401.984C311.95 401.977 310.153 402.961 310.161 404.656ZM311.63 404.656C311.622 403.695 312.841 403.141 314.896 403.141C316.935 403.141 318.153 403.695 318.161 404.656C318.153 405.586 316.935 406.133 314.896 406.125C312.841 406.133 311.622 405.586 311.63 404.656ZM315.146 397.391H318.099V401.594H319.583V393.328H318.099V396.172H315.146V397.391ZM329.423 394.344H321.986V395.547H323.298V399.961C322.697 399.969 322.118 399.969 321.595 399.969L321.783 401.203C324.025 401.203 327.165 401.156 329.861 400.734L329.798 399.609C329.243 399.68 328.673 399.734 328.079 399.781V395.547H329.423V394.344ZM323.829 404.766C323.822 406.367 325.603 407.305 328.564 407.297C331.517 407.305 333.29 406.367 333.298 404.766C333.29 403.133 331.517 402.203 328.564 402.203C325.603 402.203 323.822 403.133 323.829 404.766ZM324.736 399.938V395.547H326.658V399.867C326.009 399.898 325.368 399.922 324.736 399.938ZM325.298 404.766C325.29 403.859 326.493 403.352 328.564 403.359C330.618 403.352 331.822 403.859 331.829 404.766C331.822 405.648 330.618 406.148 328.564 406.156C326.493 406.148 325.29 405.648 325.298 404.766ZM329.626 399.5H331.767V401.938H333.251V393.328H331.767V395.766H329.626V396.953H331.767V398.312H329.626V399.5ZM346.154 393.328H344.669V407.312H346.154V400.141H348.326V398.906H346.154V393.328ZM335.263 403.578L336.091 404.734C340.701 402.461 342.482 398.844 342.497 394.797H335.966V396.031H340.982C340.677 399.297 338.771 401.828 335.263 403.578ZM353.728 394.156H352.244L348.603 407.703H350.087L353.728 394.156ZM359.443 396.891V394.5H357.943V396.891C357.943 399.562 356.396 402.242 354.193 403.219L355.099 404.469C356.779 403.648 358.068 401.961 358.717 399.906C359.373 401.82 360.646 403.391 362.256 404.156L363.146 402.984C360.974 402.023 359.428 399.445 359.443 396.891ZM364.412 407.359H365.896V393.328H364.412V407.359ZM379.986 393.328H378.564V407.328H379.986V393.328ZM367.768 403.469L368.674 404.578C370.041 403.727 370.994 402.164 371.494 400.336C371.986 402.023 372.9 403.453 374.236 404.25L375.127 403.156C373.158 402.023 372.189 399.625 372.189 397.234V396.109H374.596V394.906H368.189V396.109H370.768V397.234C370.76 399.727 369.752 402.273 367.768 403.469ZM373.564 399.5H375.736V406.625H377.143V393.625H375.736V398.281H373.564V399.5ZM394.404 400.031H381.639V401.219H387.279V402.719H383.17V407.156H392.842V402.719H388.748V401.219H394.404V400.031ZM382.811 394.969H384.857V397.641H382.873V398.844H393.139V397.641H391.17V394.969H393.201V393.766H382.811V394.969ZM384.639 405.953V403.891H391.404V405.953H384.639ZM386.326 397.641V394.969H389.686V397.641H386.326ZM407.291 393.328H405.869V398.859H404.135V393.703H402.744V406.656H404.135V400.062H405.869V407.328H407.291V393.328ZM395.26 403.328L396.119 404.359C400.127 402.102 401.346 398.789 401.354 395.109H395.854V396.328H399.908C399.674 399.18 398.369 401.562 395.26 403.328ZM410.975 393.922H409.522V400.031H416.116V393.922H414.647V395.828H410.975V393.922ZM410.928 402.312H418.506V403.578H410.959V407.188H420.459V406H412.413V404.672H419.975V401.141H410.928V402.312ZM410.975 398.844V396.969H414.647V398.844H410.975ZM418.491 400.531H419.975V397.469H422.006V396.266H419.975V393.328H418.491V400.531Z" fill="#4B5563"/>
<rect x="804" y="310" width="273" height="127" rx="4" fill="#008DFF"/>
<path d="M843.508 330.043H841.027V335.18H837.844V337.23H841.027V343.031H843.508V330.043ZM828.762 339.281L829.777 341.254C834.973 339.643 838 336.117 838 331.352H829.68V333.383H835.285C834.826 336 832.443 338.129 828.762 339.281ZM831.789 347.484H843.957V345.492H834.328V341.723H831.789V347.484ZM859.753 330.023H857.214V340.316H859.753V336.273H862.116V334.242H859.753V330.023ZM846.237 339.359H847.722C851.736 339.35 853.825 339.271 856.023 338.793L855.808 336.801C853.825 337.221 852.019 337.328 848.718 337.348V333.207H854.226V331.215H846.237V339.359ZM847.8 344.184C847.79 346.469 850.173 347.807 853.894 347.797C857.546 347.807 859.88 346.469 859.89 344.184C859.88 341.947 857.546 340.629 853.894 340.629C850.173 340.629 847.79 341.947 847.8 344.184ZM850.261 344.184C850.251 343.139 851.56 342.592 853.894 342.602C856.15 342.592 857.458 343.139 857.468 344.184C857.458 345.258 856.15 345.824 853.894 345.824C851.56 345.824 850.251 345.258 850.261 344.184ZM874.002 334.867V333.773H877.713V331.742H867.673V333.773H871.443V334.867C871.443 337.875 869.92 341.166 866.97 342.484L868.396 344.457C870.496 343.49 871.97 341.537 872.771 339.203C873.572 341.352 875.017 343.119 877.107 344.008L878.455 342.055C875.476 340.814 873.992 337.738 874.002 334.867ZM879.47 347.797H881.99V330.023H879.47V347.797ZM899.251 330.043H896.751V340.355H893.352V342.055H896.751V343.461H899.251V330.043ZM884.134 337.914L884.427 339.887C885.774 339.887 887.288 339.877 888.88 339.818V342.172H886.399V347.484H899.641V345.492H888.88V343.051H891.38V339.672C892.815 339.564 894.27 339.398 895.677 339.164L895.54 337.387C891.78 337.846 887.386 337.895 884.134 337.914ZM885.442 333.832C885.442 335.736 887.268 336.967 889.915 336.957C892.493 336.967 894.339 335.736 894.348 333.832C894.339 331.938 892.493 330.639 889.915 330.648C887.268 330.639 885.442 331.938 885.442 333.832ZM887.805 333.832C887.796 332.953 888.645 332.465 889.915 332.465C891.106 332.465 891.966 332.953 891.985 333.832C891.966 334.691 891.106 335.17 889.915 335.16C888.645 335.17 887.796 334.691 887.805 333.832ZM915.613 330.824H903.27V332.816H913.133C913.113 334.066 913.064 335.443 912.684 337.211H901.277V339.223H917.547V337.211H915.193C915.623 335.17 915.623 333.637 915.613 332.25V330.824ZM903.211 347.602H915.555V341.098H903.211V347.602ZM905.652 345.609V343.051H913.074V345.609H905.652ZM922.523 331.098C920.15 331.088 918.431 332.885 918.441 335.434C918.431 338.002 920.15 339.75 922.523 339.75C924.886 339.75 926.634 338.002 926.644 335.434C926.634 332.885 924.886 331.088 922.523 331.098ZM920.667 335.434C920.657 334.027 921.429 333.217 922.523 333.207C923.607 333.217 924.368 334.027 924.378 335.434C924.368 336.83 923.607 337.68 922.523 337.68C921.429 337.68 920.657 336.83 920.667 335.434ZM921.351 343.422H931.155V347.797H933.636V341.43H921.351V343.422ZM927.503 340.551H929.808V336.332H931.273V340.648H933.636V330.043H931.273V334.34H929.808V330.355H927.503V340.551Z" fill="white"/>
<path d="M895.683 413H899.948L908.288 396.621V393.203H894.315V396.566H904.023V396.703L895.683 413ZM917.989 413.273C922.938 413.273 925.946 409.609 925.946 403.102C925.946 396.635 922.924 392.93 917.989 392.93C913.053 392.93 910.032 396.635 910.032 403.102C910.032 409.582 913.026 413.273 917.989 413.273ZM914.243 403.102C914.243 398.576 915.705 396.307 917.989 396.293C920.272 396.307 921.748 398.576 921.735 403.102C921.748 407.668 920.285 409.883 917.989 409.883C915.692 409.883 914.215 407.668 914.243 403.102ZM931.873 392.191H928.564V404.25H938.49V392.191H935.263V395.746H931.873V392.191ZM931.873 409.555H945.599V415.516H949.072V406.766H931.873V409.555ZM931.873 401.488V398.398H935.263V401.488H931.873ZM940.431 405.508H943.685V399.547H945.763V405.645H949.072V390.66H945.763V396.73H943.685V391.098H940.431V405.508ZM964.296 392.684H952.347V404.633H964.296V392.684ZM955.218 415.078H972.253V412.289H958.69V407.012H955.218V415.078ZM955.792 401.898V395.473H960.85V401.898H955.792ZM967.85 408.789H971.35V400.668H974.714V397.797H971.35V390.633H967.85V408.789ZM996.61 390.66H993.11V405.098H988.352V407.477H993.11V409.445H996.61V390.66ZM975.445 401.68L975.856 404.441C977.742 404.441 979.861 404.428 982.09 404.346V407.641H978.617V415.078H997.156V412.289H982.09V408.871H985.59V404.141C987.6 403.99 989.637 403.758 991.606 403.43L991.414 400.941C986.151 401.584 979.998 401.652 975.445 401.68ZM977.278 395.965C977.278 398.631 979.834 400.354 983.539 400.34C987.149 400.354 989.733 398.631 989.746 395.965C989.733 393.312 987.149 391.494 983.539 391.508C979.834 391.494 977.278 393.312 977.278 395.965ZM980.586 395.965C980.572 394.734 981.762 394.051 983.539 394.051C985.207 394.051 986.41 394.734 986.438 395.965C986.41 397.168 985.207 397.838 983.539 397.824C981.762 397.838 980.572 397.168 980.586 395.965ZM1026.46 390.633H1022.93V415.57H1026.46V390.633ZM1006.36 401.242C1006.34 406.711 1009.12 410.129 1012.95 410.129C1016.69 410.129 1019.48 406.711 1019.48 401.242C1019.48 395.814 1016.69 392.383 1012.95 392.383C1009.12 392.383 1006.34 395.814 1006.36 401.242ZM1009.72 401.242C1009.71 397.551 1011.01 395.527 1012.95 395.527C1014.83 395.527 1016.11 397.551 1016.12 401.242C1016.11 404.947 1014.83 406.971 1012.95 406.957C1011.01 406.971 1009.71 404.947 1009.72 401.242ZM1051 390.633H1047.64V400.258H1045.32V391.043H1042.04V414.312H1045.32V403.074H1047.64V415.516H1051V390.633ZM1030.55 409.445H1032.25C1034.82 409.459 1037.66 409.281 1041 408.707L1040.64 405.699C1038.25 406.164 1036.05 406.342 1034.05 406.396V393.395H1030.55V409.445Z" fill="white"/>
</svg>
