                            <svg
                                width="1100"
                                height="381"
                                viewBox="0 0 1100 381"
                                fill="none"
                                xmlns="http://www.w3.org/2000/svg"
                            >
                               <rect width="1100" height="381" fill="white" />
                                <path
                                    d="M331.344 43.5078V42.6875H335.703V40.2969H331.367V37.2969H328.367V40.2969H323.984V42.6875H328.391V43.5078C328.367 46.707 326.715 50.3398 323.234 51.875L324.875 54.1953C327.289 53.1289 328.965 50.9727 329.891 48.4062C330.781 50.7852 332.363 52.7891 334.648 53.8203L336.312 51.5703C332.914 49.9648 331.344 46.543 331.344 43.5078ZM337.461 58.1562H340.461V47.6094H343.602V45.1016H340.461V36.8281H337.461V58.1562ZM350.979 42.1953V38.6562H348.073V42.3359C348.073 45.9453 346.901 49.707 343.737 51.6641L345.565 53.8672C347.498 52.6953 348.776 50.668 349.537 48.2539C350.217 50.4336 351.377 52.2852 353.229 53.3984L354.846 51.0781C351.928 49.2148 350.967 45.6523 350.979 42.1953ZM352.596 46.4609H355.362V57.1719H358.151V37.1328H355.362V44.0234H352.596V46.4609ZM359.768 58.1562H362.627V36.8281H359.768V58.1562ZM383.083 36.8281H380.247V45.0547H378.184V37.1797H375.442V57.125H378.184V47.4453H380.247V58.1562H383.083V36.8281ZM365.247 53.3281H366.723C369.536 53.3164 371.809 53.2344 374.411 52.7422L374.2 50.3047C372.137 50.668 370.309 50.7852 368.247 50.8203V41.7031H373.192V39.2891H365.247V53.3281ZM398.306 42.6406V41.3281H402.595V38.8906H390.782V41.3281H395.306V42.6406C395.282 46.168 393.489 50.1289 389.938 51.7812L391.673 54.1484C394.134 52.9883 395.892 50.5977 396.841 47.7852C397.802 50.3398 399.489 52.5195 401.868 53.6094L403.532 51.2656C400.028 49.6367 398.294 45.8867 398.306 42.6406ZM404.259 58.1562H407.259V47.4688H410.399V44.9609H407.259V36.8281H404.259V58.1562ZM430.433 46.9062H422.159V45.0781H428.206V42.7344H416.277V40.0859H428.089V37.7656H413.3V45.0781H419.23V46.9062H410.933V49.25H430.433V46.9062ZM413.159 54.2656C413.159 56.7617 415.972 58.1797 420.636 58.1797C425.265 58.1797 428.042 56.7617 428.066 54.2656C428.042 51.7344 425.265 50.3281 420.636 50.3281C415.972 50.3281 413.159 51.7344 413.159 54.2656ZM416.206 54.2656C416.195 53.1641 417.683 52.6016 420.636 52.6016C423.53 52.6016 425.054 53.1641 425.066 54.2656C425.054 55.3789 423.53 55.9062 420.636 55.9062C417.683 55.9062 416.195 55.3789 416.206 54.2656ZM439.146 43.5078V42.6875H443.505V40.2969H439.169V37.2969H436.169V40.2969H431.787V42.6875H436.193V43.5078C436.169 46.707 434.517 50.3398 431.037 51.875L432.677 54.1953C435.091 53.1289 436.767 50.9727 437.693 48.4062C438.583 50.7852 440.165 52.7891 442.451 53.8203L444.115 51.5703C440.716 49.9648 439.146 46.543 439.146 43.5078ZM445.263 58.1562H448.263V47.6094H451.404V45.1016H448.263V36.8281H445.263V58.1562ZM476.728 49.1328H457.205V51.4766H465.432V58.1562H468.385V51.4766H476.728V49.1328ZM459.502 47.0703H474.408V37.6484H471.408V40.1094H462.455V37.6484H459.502V47.0703ZM462.455 44.6797V42.4531H471.408V44.6797H462.455ZM497.184 46.8125H477.731V49.1797H485.957V51.0078H479.981V57.9219H494.863V51.0078H488.934V49.1797H497.184V46.8125ZM479.442 39.8047H482.207V43.0625H479.582V45.4531H495.309V43.0625H492.66V39.8047H495.449V37.4141H479.442V39.8047ZM482.934 55.5312V53.3281H491.934V55.5312H482.934ZM485.207 43.0625V39.8047H489.66V43.0625H485.207ZM515.43 38.6562H511.141V36.6406H508.165V38.6562H503.571V41H515.43V38.6562ZM504.626 45.875C504.602 48.207 506.747 49.9297 509.618 49.9297C512.512 49.9297 514.657 48.207 514.68 45.875C514.657 43.4727 512.512 41.7852 509.618 41.7734C506.747 41.7852 504.602 43.4727 504.626 45.875ZM506.852 53.75H518.524V58.1562H521.501V51.3828H506.852V53.75ZM507.415 45.875C507.403 44.7148 508.305 44.0234 509.618 44.0234C510.907 44.0234 511.891 44.7148 511.891 45.875C511.891 46.9766 510.907 47.6562 509.618 47.6562C508.317 47.6562 507.403 46.9766 507.415 45.875ZM515.618 48.125H518.524V50.375H521.501V36.8281H518.524V41.6094H515.665V43.9766H518.524V45.7109H515.618V48.125ZM541.886 36.8516H538.886V52.4141H541.886V36.8516ZM523.956 47.1406L525.503 49.5078C527.999 48.6523 529.698 46.8945 530.659 44.7148C531.608 46.7422 533.261 48.3359 535.675 49.1328L537.198 46.7891C533.694 45.6641 532.182 42.9102 532.206 40.0859V38.0234H529.089V40.0859C529.089 42.9805 527.53 45.9453 523.956 47.1406ZM527.589 57.7812H542.448V55.3906H530.612V50.9141H527.589V57.7812ZM561.732 37.6016H546.919V39.9453H558.755C558.743 40.3555 558.743 40.7656 558.732 41.1875L546.333 41.4453L546.661 43.7422L558.591 43.2734C558.532 43.8359 558.45 44.4336 558.321 45.0781H544.575V47.4453H563.935V45.0781H561.321C561.743 42.9102 561.743 41.1289 561.732 39.4531V37.6016ZM546.685 50.9844H558.849V52.1562H546.708V57.9219H562.575V55.625H549.685V54.3125H561.825V48.7109H546.685V50.9844ZM583.007 36.8281H580.031V44.5156H576.585V46.9531H580.031V58.2031H583.007V36.8281ZM565.734 41.0234H572.484V44.2344H565.781V53.2344H567.538C571.113 53.2461 574.007 53.1289 577.171 52.6016L576.937 50.1641C574.183 50.6445 571.699 50.75 568.757 50.7734V46.6016H575.39V38.6094H565.734V41.0234ZM596.759 39.6406V38.0938H593.572V39.6406C593.548 42.7344 590.771 46.0859 586.025 46.9297L587.314 49.4141C591.005 48.6641 593.771 46.5547 595.177 43.8477C596.56 46.5781 599.314 48.6758 603.041 49.4141L604.353 46.9297C599.525 46.1094 596.748 42.7695 596.759 39.6406ZM585.533 55.5312H605.056V53.0703H585.533V55.5312ZM623.426 47.8438H611.379V45.4062H622.769V43.0625H611.379V40.8125H623.262V38.3984H608.332V50.2109H623.426V47.8438ZM606.035 55.6719H625.558V53.2344H606.035V55.6719ZM628.037 49.1797C628.025 53.3047 629.115 56.7266 631.365 59.6797H634.693C632.959 57.4883 631.635 53.1055 631.647 49.1797C631.635 45.2539 632.959 40.8828 634.693 38.6797H631.365C629.115 41.6445 628.025 45.0664 628.037 49.1797ZM639.282 56L640.559 52.0859H646.7L647.977 56H651.75L645.891 39.0312H641.367L635.485 56H639.282ZM641.45 49.3438L643.571 42.8516H643.688L645.809 49.3438H641.45ZM658.378 55.0625H661.307V50.6797H665.69V47.75H661.307V43.3672H658.378V47.75H653.995V50.6797H658.378V55.0625ZM668.872 56H672.388V50.4688H675.434C679.348 50.4688 681.598 48.1367 681.598 44.75C681.598 41.4102 679.384 39.0312 675.528 39.0312H668.872V56ZM672.388 47.6328V41.9141H674.872C676.958 41.9258 677.977 43.0625 677.966 44.75C677.977 46.4609 676.958 47.6328 674.872 47.6328H672.388ZM687.101 39.0312H683.585V56H687.101V39.0312ZM701.064 44.9375H704.626C704.158 41.0352 701.204 38.7969 697.29 38.7969C692.814 38.7969 689.392 41.9727 689.392 47.5156C689.392 53.0352 692.755 56.2344 697.29 56.2344C701.603 56.2344 704.24 53.375 704.626 50.2344L701.064 50.2109C700.724 52.0508 699.271 53.1055 697.337 53.1172C694.747 53.1055 692.978 51.1719 692.978 47.5156C692.978 43.9414 694.724 41.9258 697.361 41.9141C699.341 41.9258 700.783 43.0625 701.064 44.9375ZM706.847 56H710.363V51.1484L712.144 48.9922L716.855 56H721.074L714.675 46.625L721.003 39.0312H716.761L710.597 46.5547H710.363V39.0312H706.847V56ZM728.31 49.1797C728.322 45.0547 727.232 41.6328 724.982 38.6797H721.654C723.388 40.8711 724.713 45.2539 724.701 49.1797C724.713 53.1055 723.388 57.4766 721.654 59.6797H724.982C727.232 56.7148 728.322 53.293 728.31 49.1797ZM755.651 53.2578H747.377V48.5H744.377V53.2578H736.127V55.6719H755.651V53.2578ZM736.924 47.0703L738.096 49.4375C741.776 48.7695 744.518 46.8828 745.865 44.3164C747.248 46.8477 750.014 48.6641 753.752 49.3203L754.924 46.9531C750.354 46.2852 747.682 43.6719 747.448 40.8594H753.94V38.4453H737.744V40.8594H744.26C744.002 43.6836 741.354 46.3555 736.924 47.0703ZM764.692 39.7344V37.9297H761.668V39.875C761.657 42.8516 760.086 45.7109 756.442 46.8828L758.012 49.2734C760.579 48.4062 762.301 46.6602 763.239 44.4336C764.141 46.3555 765.7 47.8203 767.997 48.6172L769.567 46.2734C766.145 45.2188 764.68 42.582 764.692 39.7344ZM759.981 54.0312C759.981 56.668 762.77 58.168 767.317 58.1562C771.875 58.168 774.665 56.668 774.676 54.0312C774.665 51.4062 771.875 49.8711 767.317 49.8828C762.77 49.8711 759.981 51.4062 759.981 54.0312ZM762.957 54.0312C762.957 52.8125 764.493 52.2031 767.317 52.2031C770.153 52.2031 771.688 52.8125 771.7 54.0312C771.688 55.2148 770.153 55.8359 767.317 55.8359C764.493 55.8359 762.957 55.2148 762.957 54.0312ZM767.622 43.1797H771.629V49.3203H774.606V36.8281H771.629V40.7422H767.622V43.1797Z"
                                    fill="#111827"
                                />
                                <rect
                                    x="226"
                                    y="79"
                                    width="647"
                                    height="58"
                                    rx="4"
                                    fill="#F4F6F8"
                                />
                                <path
                                    d="M253.555 115L254.619 111.738H259.736L260.801 115H263.945L259.062 100.859H255.293L250.391 115H253.555ZM255.361 109.453L257.129 104.043H257.227L258.994 109.453H255.361ZM363.269 115H366.198V110.391H368.738C371.999 110.391 373.874 108.447 373.874 105.625C373.874 102.842 372.029 100.859 368.816 100.859H363.269V115ZM366.198 108.027V103.262H368.269C370.007 103.271 370.857 104.219 370.847 105.625C370.857 107.051 370.007 108.027 368.269 108.027H366.198ZM419.569 100.859H416.639V115H419.569V100.859ZM527.564 105.781H530.533C530.142 102.529 527.681 100.664 524.42 100.664C520.689 100.664 517.837 103.311 517.837 107.93C517.837 112.529 520.64 115.195 524.42 115.195C528.013 115.195 530.211 112.812 530.533 110.195L527.564 110.176C527.281 111.709 526.07 112.588 524.459 112.598C522.3 112.588 520.826 110.977 520.826 107.93C520.826 104.951 522.281 103.271 524.478 103.262C526.129 103.271 527.33 104.219 527.564 105.781Z"
                                    fill="#008DFF"
                                />
                                <path
                                    d="M272.085 110.488C272.085 111.934 271.089 112.686 270.034 112.695C268.902 112.686 268.179 111.904 268.179 110.645V104.395H265.288V111.152C265.288 113.633 266.743 115.137 268.863 115.137C270.464 115.137 271.607 114.316 272.085 113.086H272.202V115H274.976V104.395H272.085V110.488ZM282.608 104.395H280.616V101.855H277.725V104.395H276.26V106.562H277.725V112.148C277.705 114.209 279.131 115.146 281.221 115.137C281.934 115.146 282.452 115.088 282.764 115.039V112.754C282.413 112.783 281.905 112.812 281.612 112.812C281.026 112.793 280.606 112.588 280.616 111.738V106.562H282.608V104.395ZM288.873 115.215C292.086 115.205 294.078 113.008 294.088 109.727C294.078 106.455 292.086 104.258 288.873 104.258C285.67 104.258 283.668 106.455 283.677 109.727C283.668 113.008 285.67 115.205 288.873 115.215ZM286.607 109.727C286.607 107.861 287.379 106.465 288.892 106.465C290.367 106.465 291.148 107.861 291.138 109.727C291.148 111.582 290.367 112.959 288.892 112.969C287.379 112.959 286.607 111.582 286.607 109.727ZM295.704 115H298.595V108.633C298.585 107.432 299.346 106.641 300.333 106.641C301.319 106.641 301.983 107.314 301.973 108.359V115H304.786V108.516C304.776 107.393 305.421 106.641 306.505 106.641C307.452 106.641 308.175 107.227 308.165 108.438V115H311.055V107.871C311.055 105.557 309.679 104.258 307.716 104.258C306.163 104.258 304.952 105.049 304.513 106.25H304.415C304.063 105.029 302.979 104.258 301.524 104.258C300.098 104.258 299.024 105.01 298.575 106.25H298.458V104.395H295.704V115ZM317.848 115.215C321.061 115.205 323.053 113.008 323.062 109.727C323.053 106.455 321.061 104.258 317.848 104.258C314.645 104.258 312.643 106.455 312.652 109.727C312.643 113.008 314.645 115.205 317.848 115.215ZM315.582 109.727C315.582 107.861 316.354 106.465 317.867 106.465C319.342 106.465 320.123 107.861 320.113 109.727C320.123 111.582 319.342 112.959 317.867 112.969C316.354 112.959 315.582 111.582 315.582 109.727ZM330.265 104.395H328.273V101.855H325.382V104.395H323.917V106.562H325.382V112.148C325.363 114.209 326.788 115.146 328.878 115.137C329.591 115.146 330.109 115.088 330.421 115.039V112.754C330.07 112.783 329.562 112.812 329.269 112.812C328.683 112.793 328.263 112.588 328.273 111.738V106.562H330.265V104.395ZM331.881 115H334.772V104.395H331.881V115ZM331.745 101.543C331.745 102.344 332.457 103.008 333.327 103.008C334.186 103.008 334.899 102.344 334.889 101.543C334.899 100.723 334.186 100.068 333.327 100.059C332.457 100.068 331.745 100.723 331.745 101.543ZM346.662 104.395H343.595L341.369 112.012H341.252L339.025 104.395H335.978L339.689 115H342.931L346.662 104.395ZM352.321 115.215C354.938 115.205 356.696 113.936 357.106 111.973H354.352C354.069 112.607 353.366 113.037 352.38 113.047C350.886 113.037 349.938 112.051 349.938 110.449H357.184V109.629C357.184 106.016 354.987 104.258 352.204 104.258C349.098 104.258 347.077 106.475 347.087 109.746C347.077 113.105 349.069 115.205 352.321 115.215ZM349.938 108.633C349.997 107.412 350.934 106.416 352.262 106.426C353.552 106.416 354.44 107.344 354.45 108.633H349.938ZM374.963 112.031C374.973 114.131 376.467 115.205 378.498 115.195C380.071 115.205 381.086 114.512 381.604 113.535H381.682V115H384.416V107.852C384.426 105.293 382.239 104.258 379.924 104.258C377.112 104.258 375.51 105.703 375.334 107.539H378.088C378.245 106.816 378.86 106.377 379.846 106.367C380.93 106.377 381.536 106.885 381.545 107.773V108.633C381.096 108.652 379.67 108.721 378.909 108.77C376.868 108.896 374.973 109.668 374.963 112.031ZM377.737 111.953C377.737 111.133 378.371 110.654 379.377 110.566C379.866 110.527 381.106 110.459 381.545 110.439V111.211C381.555 112.334 380.637 113.193 379.319 113.203C378.391 113.193 377.737 112.764 377.737 111.953ZM386.423 115H389.314V108.965C389.304 107.666 390.271 106.758 391.58 106.758C391.98 106.758 392.537 106.826 392.81 106.914V104.336C392.556 104.277 392.185 104.238 391.892 104.238C390.701 104.238 389.714 104.932 389.334 106.23H389.216V104.395H386.423V115ZM400.13 104.395H398.137V101.855H395.247V104.395H393.782V106.562H395.247V112.148C395.227 114.209 396.653 115.146 398.743 115.137C399.456 115.146 399.973 115.088 400.286 115.039V112.754C399.934 112.783 399.427 112.812 399.134 112.812C398.548 112.793 398.128 112.588 398.137 111.738V106.562H400.13V104.395ZM407.645 107.539H410.359C410.203 105.527 408.543 104.258 405.867 104.258C403.133 104.258 401.385 105.527 401.395 107.559C401.385 109.131 402.42 110.166 404.441 110.566L406.199 110.918C407.195 111.123 407.645 111.465 407.645 112.012C407.645 112.695 406.941 113.115 405.887 113.125C404.822 113.115 404.148 112.686 404.012 111.855H401.102C401.346 113.926 403.025 115.205 405.887 115.215C408.709 115.205 410.584 113.809 410.594 111.719C410.584 110.195 409.588 109.277 407.527 108.848L405.633 108.457C404.627 108.252 404.256 107.881 404.266 107.402C404.256 106.758 404.969 106.318 405.906 106.309C406.873 106.318 407.518 106.797 407.645 107.539ZM424.584 108.867C424.584 107.471 425.414 106.66 426.615 106.66C427.816 106.66 428.519 107.441 428.529 108.75V115H431.4V108.242C431.41 105.771 429.964 104.258 427.748 104.258C426.175 104.258 425.043 105.029 424.564 106.25H424.447V104.395H421.693V115H424.584V108.867ZM436.337 108.867C436.337 107.471 437.167 106.66 438.368 106.66C439.569 106.66 440.272 107.441 440.282 108.75V115H443.153V108.242C443.163 105.771 441.718 104.258 439.501 104.258C437.929 104.258 436.796 105.029 436.317 106.25H436.2V104.395H433.446V115H436.337V108.867ZM449.965 115.215C453.178 115.205 455.17 113.008 455.18 109.727C455.17 106.455 453.178 104.258 449.965 104.258C446.762 104.258 444.76 106.455 444.77 109.727C444.76 113.008 446.762 115.205 449.965 115.215ZM447.699 109.727C447.699 107.861 448.471 106.465 449.984 106.465C451.459 106.465 452.24 107.861 452.23 109.727C452.24 111.582 451.459 112.959 449.984 112.969C448.471 112.959 447.699 111.582 447.699 109.727ZM466.288 104.395H463.222L460.995 112.012H460.878L458.652 104.395H455.605L459.316 115H462.558L466.288 104.395ZM466.694 112.031C466.704 114.131 468.198 115.205 470.229 115.195C471.801 115.205 472.817 114.512 473.334 113.535H473.413V115H476.147V107.852C476.157 105.293 473.969 104.258 471.655 104.258C468.842 104.258 467.241 105.703 467.065 107.539H469.819C469.975 106.816 470.59 106.377 471.577 106.367C472.661 106.377 473.266 106.885 473.276 107.773V108.633C472.827 108.652 471.401 108.721 470.639 108.77C468.598 108.896 466.704 109.668 466.694 112.031ZM469.467 111.953C469.467 111.133 470.102 110.654 471.108 110.566C471.596 110.527 472.836 110.459 473.276 110.439V111.211C473.286 112.334 472.368 113.193 471.049 113.203C470.121 113.193 469.467 112.764 469.467 111.953ZM483.74 104.395H481.748V101.855H478.857V104.395H477.392V106.562H478.857V112.148C478.837 114.209 480.263 115.146 482.353 115.137C483.066 115.146 483.584 115.088 483.896 115.039V112.754C483.545 112.783 483.037 112.812 482.744 112.812C482.158 112.793 481.738 112.588 481.748 111.738V106.562H483.74V104.395ZM485.356 115H488.247V104.395H485.356V115ZM485.22 101.543C485.22 102.344 485.932 103.008 486.802 103.008C487.661 103.008 488.374 102.344 488.364 101.543C488.374 100.723 487.661 100.068 486.802 100.059C485.932 100.068 485.22 100.723 485.22 101.543ZM495.059 115.215C498.271 115.205 500.264 113.008 500.273 109.727C500.264 106.455 498.271 104.258 495.059 104.258C491.855 104.258 489.854 106.455 489.863 109.727C489.854 113.008 491.855 115.205 495.059 115.215ZM492.793 109.727C492.793 107.861 493.564 106.465 495.078 106.465C496.553 106.465 497.334 107.861 497.324 109.727C497.334 111.582 496.553 112.959 495.078 112.969C493.564 112.959 492.793 111.582 492.793 109.727ZM504.78 108.867C504.78 107.471 505.611 106.66 506.812 106.66C508.013 106.66 508.716 107.441 508.726 108.75V115H511.597V108.242C511.607 105.771 510.161 104.258 507.945 104.258C506.372 104.258 505.239 105.029 504.761 106.25H504.644V104.395H501.89V115H504.78V108.867ZM535.216 100.859H532.325V115H535.216V100.859ZM544.059 110.488C544.059 111.934 543.062 112.686 542.008 112.695C540.875 112.686 540.152 111.904 540.152 110.645V104.395H537.262V111.152C537.262 113.633 538.717 115.137 540.836 115.137C542.438 115.137 543.58 114.316 544.059 113.086H544.176V115H546.949V104.395H544.059V110.488ZM555.05 107.539H557.765C557.609 105.527 555.948 104.258 553.273 104.258C550.538 104.258 548.79 105.527 548.8 107.559C548.79 109.131 549.825 110.166 551.847 110.566L553.605 110.918C554.601 111.123 555.05 111.465 555.05 112.012C555.05 112.695 554.347 113.115 553.292 113.125C552.228 113.115 551.554 112.686 551.417 111.855H548.507C548.751 113.926 550.431 115.205 553.292 115.215C556.114 115.205 557.989 113.809 557.999 111.719C557.989 110.195 556.993 109.277 554.933 108.848L553.038 108.457C552.032 108.252 551.661 107.881 551.671 107.402C551.661 106.758 552.374 106.318 553.312 106.309C554.279 106.318 554.923 106.797 555.05 107.539ZM565.163 104.395H563.17V101.855H560.28V104.395H558.815V106.562H560.28V112.148C560.26 114.209 561.686 115.146 563.776 115.137C564.489 115.146 565.006 115.088 565.319 115.039V112.754C564.967 112.783 564.459 112.812 564.166 112.812C563.58 112.793 563.161 112.588 563.17 111.738V106.562H565.163V104.395ZM571.466 115.215C574.084 115.205 575.841 113.936 576.252 111.973H573.498C573.214 112.607 572.511 113.037 571.525 113.047C570.031 113.037 569.084 112.051 569.084 110.449H576.33V109.629C576.33 106.016 574.132 104.258 571.349 104.258C568.244 104.258 566.222 106.475 566.232 109.746C566.222 113.105 568.214 115.205 571.466 115.215ZM569.084 108.633C569.142 107.412 570.08 106.416 571.408 106.426C572.697 106.416 573.586 107.344 573.595 108.633H569.084ZM577.946 115H580.837V108.965C580.827 107.666 581.794 106.758 583.102 106.758C583.503 106.758 584.059 106.826 584.333 106.914V104.336C584.079 104.277 583.708 104.238 583.415 104.238C582.223 104.238 581.237 104.932 580.856 106.23H580.739V104.395H577.946V115Z"
                                    fill="#111827"
                                />
                                <path
                                    d="M650.223 115H653.289L655.125 108.262H655.262L657.098 115H660.145L663.055 104.395H660.125L658.484 111.523H658.387L656.629 104.395H653.758L652.02 111.562H651.922L650.262 104.395H647.332L650.223 115ZM664.32 115H667.21V104.395H664.32V115ZM664.183 101.543C664.183 102.344 664.896 103.008 665.765 103.008C666.624 103.008 667.337 102.344 667.327 101.543C667.337 100.723 666.624 100.068 665.765 100.059C664.896 100.068 664.183 100.723 664.183 101.543ZM674.842 104.395H672.85V101.855H669.959V104.395H668.495V106.562H669.959V112.148C669.94 114.209 671.366 115.146 673.455 115.137C674.168 115.146 674.686 115.088 674.998 115.039V112.754C674.647 112.783 674.139 112.812 673.846 112.812C673.26 112.793 672.84 112.588 672.85 111.738V106.562H674.842V104.395ZM679.584 108.867C679.584 107.471 680.433 106.66 681.654 106.66C682.865 106.66 683.568 107.432 683.568 108.75V115H686.459V108.242C686.459 105.752 685.004 104.258 682.787 104.258C681.175 104.258 680.111 105.01 679.623 106.25H679.505V100.859H676.693V115H679.584V108.867ZM708.378 115L709.443 111.738H714.56L715.624 115H718.769L713.886 100.859H710.116L705.214 115H708.378ZM710.185 109.453L711.952 104.043H712.05L713.818 109.453H710.185ZM717.885 103.281H722.221V115H725.131V103.281H729.467V100.859H717.885V103.281ZM731.084 115H740.595V112.578H734.013V109.141H740.088V106.719H734.013V103.281H740.576V100.859H731.084V115ZM752.114 105.781H755.083C754.692 102.529 752.231 100.664 748.97 100.664C745.239 100.664 742.387 103.311 742.387 107.93C742.387 112.529 745.19 115.195 748.97 115.195C752.563 115.195 754.761 112.812 755.083 110.195L752.114 110.176C751.831 111.709 750.62 112.588 749.009 112.598C746.85 112.588 745.376 110.977 745.376 107.93C745.376 104.951 746.831 103.271 749.028 103.262C750.679 103.271 751.88 104.219 752.114 105.781ZM756.934 115H759.863V109.141H765.996V115H768.945V100.859H765.996V106.719H759.863V100.859H756.934V115ZM780.245 115.215C783.057 115.205 784.825 113.555 784.952 111.152H782.237C782.051 112.275 781.299 112.91 780.284 112.91C778.877 112.91 777.979 111.738 777.979 109.688C777.979 107.676 778.897 106.514 780.284 106.504C781.377 106.514 782.061 107.236 782.237 108.281H784.952C784.834 105.85 782.979 104.258 780.245 104.258C777.032 104.258 775.039 106.484 775.049 109.727C775.039 112.959 776.993 115.205 780.245 115.215ZM786.041 112.031C786.05 114.131 787.545 115.205 789.576 115.195C791.148 115.205 792.164 114.512 792.681 113.535H792.759V115H795.494V107.852C795.504 105.293 793.316 104.258 791.002 104.258C788.189 104.258 786.587 105.703 786.412 107.539H789.166C789.322 106.816 789.937 106.377 790.923 106.367C792.007 106.377 792.613 106.885 792.623 107.773V108.633C792.173 108.652 790.748 108.721 789.986 108.77C787.945 108.896 786.05 109.668 786.041 112.031ZM788.814 111.953C788.814 111.133 789.449 110.654 790.455 110.566C790.943 110.527 792.183 110.459 792.623 110.439V111.211C792.632 112.334 791.714 113.193 790.396 113.203C789.468 113.193 788.814 112.764 788.814 111.953ZM797.501 115H800.391V108.633C800.382 107.432 801.143 106.641 802.13 106.641C803.116 106.641 803.78 107.314 803.77 108.359V115H806.583V108.516C806.573 107.393 807.218 106.641 808.302 106.641C809.249 106.641 809.971 107.227 809.962 108.438V115H812.852V107.871C812.852 105.557 811.475 104.258 809.512 104.258C807.96 104.258 806.749 105.049 806.309 106.25H806.212C805.86 105.029 804.776 104.258 803.321 104.258C801.895 104.258 800.821 105.01 800.372 106.25H800.255V104.395H797.501V115ZM814.879 118.984H817.77V113.301H817.848C818.258 114.18 819.146 115.176 820.875 115.176C823.297 115.176 825.182 113.252 825.172 109.707C825.182 106.074 823.219 104.258 820.875 104.258C819.088 104.258 818.248 105.312 817.848 106.172H817.73V104.395H814.879V118.984ZM817.711 109.688C817.701 107.783 818.512 106.562 819.957 106.562C821.451 106.562 822.232 107.842 822.223 109.688C822.232 111.562 821.432 112.861 819.957 112.871C818.521 112.861 817.701 111.602 817.711 109.688ZM833.644 110.488C833.644 111.934 832.648 112.686 831.593 112.695C830.46 112.686 829.738 111.904 829.738 110.645V104.395H826.847V111.152C826.847 113.633 828.302 115.137 830.421 115.137C832.023 115.137 833.165 114.316 833.644 113.086H833.761V115H836.534V104.395H833.644V110.488ZM844.635 107.539H847.35C847.194 105.527 845.534 104.258 842.858 104.258C840.123 104.258 838.375 105.527 838.385 107.559C838.375 109.131 839.411 110.166 841.432 110.566L843.19 110.918C844.186 111.123 844.635 111.465 844.635 112.012C844.635 112.695 843.932 113.115 842.877 113.125C841.813 113.115 841.139 112.686 841.002 111.855H838.092C838.336 113.926 840.016 115.205 842.877 115.215C845.7 115.205 847.575 113.809 847.584 111.719C847.575 110.195 846.579 109.277 844.518 108.848L842.623 108.457C841.618 108.252 841.246 107.881 841.256 107.402C841.246 106.758 841.959 106.318 842.897 106.309C843.864 106.318 844.508 106.797 844.635 107.539Z"
                                    fill="#111827"
                                />
                                <path
                                    d="M692.953 115H695.883V110.957L697.367 109.16L701.293 115H704.809L699.477 107.188L704.75 100.859H701.215L696.078 107.129H695.883V100.859H692.953V115Z"
                                    fill="#008DFF"
                                />
                                <path
                                    d="M614.312 114.219H616.754V110.566H620.406V108.125H616.754V104.473H614.312V108.125H610.66V110.566H614.312V114.219Z"
                                    fill="#008DFF"
                                />
                                <g filter="url(#filter0_dd_699_26714)">
                                    <rect
                                        x="136"
                                        y="169"
                                        width="260"
                                        height="180"
                                        rx="4"
                                        fill="white"
                                    />
                                    <path
                                        fill-rule="evenodd"
                                        clip-rule="evenodd"
                                        d="M213 213.5C213 213.5 219.429 205.855 219.429 202.171C219.429 198.487 216.55 195.5 213 195.5C209.45 195.5 206.571 198.487 206.571 202.171C206.571 205.855 213 213.5 213 213.5ZM213 204.5C214.42 204.5 215.571 203.349 215.571 201.929C215.571 200.508 214.42 199.357 213 199.357C211.58 199.357 210.429 200.508 210.429 201.929C210.429 203.349 211.58 204.5 213 204.5Z"
                                        fill="#AAB4C6"
                                    />
                                    <path
                                        d="M225.61 211H228.247V206.482H230.26L232.694 211H235.612L232.905 206.052C234.355 205.428 235.155 204.162 235.155 202.422C235.155 199.899 233.494 198.273 230.603 198.273H225.61V211ZM228.247 204.338V200.436H230.11C231.675 200.444 232.439 201.139 232.431 202.422C232.439 203.696 231.675 204.338 230.11 204.338H228.247ZM240.635 211.193C241.752 211.185 242.965 210.868 243.896 210.121L244.678 211H247.403L245.487 208.803C246.19 207.871 246.638 206.535 246.63 204.812H244.467C244.467 205.639 244.265 206.386 243.931 207.01L241.804 204.566L242.551 204.021C243.624 203.257 244.248 202.29 244.239 201.086C244.248 199.478 242.991 198.106 240.952 198.098C238.869 198.106 237.489 199.521 237.489 201.367C237.489 202.492 238.043 203.433 238.711 204.285C237.322 205.243 236.382 206.14 236.382 207.625C236.382 209.629 237.999 211.185 240.635 211.193ZM238.913 207.484C238.913 206.992 239.247 206.421 239.967 205.902L240.055 205.841L242.49 208.557C241.945 208.899 241.347 209.084 240.758 209.084C239.633 209.093 238.913 208.398 238.913 207.484ZM239.721 201.402C239.73 200.752 240.222 200.207 240.969 200.207C241.716 200.198 242.156 200.734 242.147 201.227C242.156 201.78 241.857 202.229 241.216 202.633L240.548 203.081C240.064 202.466 239.73 201.93 239.721 201.402ZM252.778 211C256.662 211 259.009 208.601 259 204.619C259.009 200.655 256.662 198.273 252.83 198.273H248.295V211H252.778ZM250.932 208.732V200.541H252.69C255.098 200.541 256.364 201.789 256.364 204.619C256.364 207.476 255.098 208.732 252.672 208.732H250.932ZM277.59 196.621H275.357V202.773H272.176V204.602H275.357V212.617H277.59V196.621ZM263.949 208.082L265.109 209.84C270.69 207.071 272.255 203.116 272.263 198.291H264.705V200.049H270.005C269.671 203.556 267.992 206.087 263.949 208.082ZM292.966 196.621H290.734V200.312H288.203V202.141H290.734V205.867H292.966V196.621ZM279.396 204.127L280.538 205.885C282.419 205.287 283.703 204.013 284.406 202.413C285.1 203.854 286.322 205.023 288.097 205.604L289.204 203.828C286.708 202.993 285.557 201.068 285.531 199.24H288.712V197.43H280.029V199.24H283.246C283.184 201.253 281.989 203.292 279.396 204.127ZM282.208 212.441H292.966V206.535H282.208V212.441ZM284.458 210.648V208.293H290.769V210.648H284.458ZM301.066 200.98V199.996H304.405V198.168H295.37V199.996H298.763V200.98C298.763 203.688 297.392 206.649 294.737 207.836L296.021 209.611C297.91 208.741 299.237 206.983 299.958 204.883C300.679 206.816 301.98 208.407 303.86 209.207L305.073 207.449C302.393 206.333 301.057 203.564 301.066 200.98ZM305.987 212.617H308.255V196.621H305.987V212.617ZM323.122 197.553H311.907V199.346H320.889C320.881 200.726 320.845 202.299 320.432 204.355H310.237V206.166H316.337V212.635H318.587V206.166H324.827V204.355H322.709C323.113 202.114 323.113 200.488 323.122 198.994V197.553Z"
                                        fill="#374151"
                                    />
                                    <line
                                        x1="158.407"
                                        y1="239.5"
                                        x2="373.593"
                                        y2="239.5"
                                        stroke="#D1D5DB"
                                    />
                                    <path
                                        d="M217.569 267.639H215.319V279.574H217.569V274.371H219.732V272.543H217.569V267.639ZM204.878 271.084H214.37V269.309H210.749V267.604H208.517V269.309H204.878V271.084ZM205.651 274.74C205.651 276.586 207.295 277.799 209.624 277.799C211.944 277.799 213.562 276.586 213.562 274.74C213.562 272.886 211.944 271.646 209.624 271.646C207.295 271.646 205.651 272.886 205.651 274.74ZM207.198 283.336H218.15V281.543H209.431V278.66H207.198V283.336ZM207.849 274.74C207.84 273.853 208.552 273.36 209.624 273.352C210.705 273.36 211.435 273.853 211.435 274.74C211.435 275.619 210.705 276.094 209.624 276.094C208.552 276.094 207.84 275.619 207.849 274.74ZM233.157 268.324H222.048V270.1H230.925C230.907 271.154 230.863 272.323 230.564 273.826H220.255V275.619H226.425V277.922H221.731V279.68H230.925V283.617H233.175V277.922H228.675V275.619H234.897V273.826H232.832C233.166 272.104 233.166 270.75 233.157 269.572V268.324ZM241.538 271.98V270.996H244.754V269.168H235.895V270.996H239.288V271.98C239.27 274.626 237.925 277.597 235.262 278.836L236.563 280.611C238.409 279.741 239.727 277.948 240.439 275.839C241.16 277.755 242.425 279.39 244.209 280.207L245.458 278.449C242.83 277.228 241.529 274.415 241.538 271.98ZM246.002 283.617H248.252V275.602H250.608V273.721H248.252V267.621H246.002V283.617ZM265.633 275.18H259.428V273.809H263.963V272.051H255.016V270.064H263.875V268.324H252.783V273.809H257.231V275.18H251.008V276.938H265.633V275.18ZM252.678 280.699C252.678 282.571 254.787 283.635 258.285 283.635C261.757 283.635 263.84 282.571 263.858 280.699C263.84 278.801 261.757 277.746 258.285 277.746C254.787 277.746 252.678 278.801 252.678 280.699ZM254.963 280.699C254.954 279.873 256.07 279.451 258.285 279.451C260.456 279.451 261.599 279.873 261.608 280.699C261.599 281.534 260.456 281.93 258.285 281.93C256.07 281.93 254.954 281.534 254.963 280.699ZM272.168 272.631V272.016H275.437V270.223H272.185V267.973H269.935V270.223H266.648V272.016H269.953V272.631C269.935 275.03 268.696 277.755 266.086 278.906L267.316 280.646C269.127 279.847 270.384 278.229 271.078 276.305C271.746 278.089 272.932 279.592 274.646 280.365L275.894 278.678C273.346 277.474 272.168 274.907 272.168 272.631ZM276.756 283.617H279.006V275.707H281.361V273.826H279.006V267.621H276.756V283.617ZM295.244 267.639H293.011V269.871H289.346C288.573 269.054 287.465 268.562 286.226 268.553C283.8 268.562 281.955 270.311 281.972 272.719C281.955 275.092 283.8 276.85 286.226 276.85C287.474 276.85 288.582 276.349 289.355 275.531H293.011V279.328H295.244V267.639ZM284.099 272.719C284.09 271.365 284.978 270.557 286.226 270.557C287.404 270.557 288.309 271.365 288.318 272.719C288.309 274.055 287.404 274.863 286.226 274.863C284.978 274.863 284.09 274.055 284.099 272.719ZM284.626 283.336H295.63V281.543H286.876V278.15H284.626V283.336ZM290.313 271.664H293.011V273.738H290.322C290.401 273.413 290.445 273.07 290.445 272.719C290.445 272.35 290.401 271.998 290.313 271.664ZM310.023 268.553H298.808V270.346H307.79C307.781 271.726 307.746 273.299 307.333 275.355H297.138V277.166H303.238V283.635H305.488V277.166H311.728V275.355H309.61C310.014 273.114 310.014 271.488 310.023 269.994V268.553ZM326.067 267.639H323.817V276.92H320.759V278.449H323.817V279.715H326.067V267.639ZM312.462 274.723L312.725 276.498C313.938 276.498 315.301 276.489 316.733 276.437V278.555H314.501V283.336H326.419V281.543H316.733V279.346H318.983V276.305C320.275 276.208 321.585 276.059 322.85 275.848L322.727 274.248C319.344 274.661 315.389 274.705 312.462 274.723ZM313.64 271.049C313.64 272.763 315.283 273.87 317.665 273.861C319.985 273.87 321.646 272.763 321.655 271.049C321.646 269.344 319.985 268.175 317.665 268.184C315.283 268.175 313.64 269.344 313.64 271.049ZM315.766 271.049C315.758 270.258 316.522 269.818 317.665 269.818C318.737 269.818 319.511 270.258 319.528 271.049C319.511 271.822 318.737 272.253 317.665 272.244C316.522 272.253 315.758 271.822 315.766 271.049Z"
                                        fill="#008DFF"
                                    />
                                    <path
                                        d="M210.438 307.912H209.126V320.162H210.438V307.912ZM200.376 316.881L201.059 317.934C205.264 315.917 206.788 312.813 206.788 309.225H200.964V310.264H205.475C205.223 313.121 203.63 315.329 200.376 316.881ZM218.46 308.377V307.967H217.134V308.377C217.127 309.785 215.193 310.968 212.8 311.234L213.251 312.219C215.241 311.973 216.998 311.125 217.791 309.874C218.577 311.125 220.333 311.973 222.343 312.219L222.794 311.234C220.409 310.968 218.467 309.785 218.46 308.377ZM212.212 313.969H217.134V315.062H213.552V316.061H220.689V317.018H213.566V320.039H222.316V319.041H214.837V317.961H221.974V315.062H218.433V313.969H223.382V312.93H212.212V313.969ZM230.297 309.293H227.863V307.98H226.578V309.293H224.104V310.318H230.297V309.293ZM224.582 313.053C224.582 314.338 225.676 315.213 227.207 315.213C228.773 315.213 229.859 314.338 229.859 313.053C229.859 311.74 228.773 310.858 227.207 310.852C225.676 310.858 224.582 311.74 224.582 313.053ZM225.744 313.053C225.744 312.301 226.339 311.843 227.207 311.836C228.089 311.843 228.691 312.301 228.684 313.053C228.691 313.771 228.089 314.235 227.207 314.242C226.339 314.235 225.744 313.771 225.744 313.053ZM226.291 317.264H233.332V320.162H234.617V316.225H226.291V317.264ZM230.776 315.473H232.006V312.355H233.387V315.555H234.617V307.926H233.387V311.289H232.006V308.117H230.776V315.473ZM246.29 307.926H244.991V314.857H246.29V307.926ZM236.186 313.559L236.829 314.584C238.299 314.071 239.386 313.005 239.932 311.658C240.486 312.916 241.559 313.88 242.981 314.352L243.624 313.354C241.764 312.725 240.582 311.234 240.589 309.58V308.391H239.262V309.58C239.256 311.289 238.1 312.916 236.186 313.559ZM238.237 320.012H246.29V315.514H238.237V320.012ZM239.522 318.959V316.553H245.018V318.959H239.522ZM258.277 307.912H256.964V320.162H258.277V307.912ZM248.214 316.881L248.898 317.934C253.102 315.917 254.626 312.813 254.626 309.225H248.802V310.264H253.314C253.061 313.121 251.468 315.329 248.214 316.881ZM266.873 308.842H260.693V309.908H265.595C265.581 310.681 265.54 311.672 265.273 313.025L266.559 313.148C266.859 311.562 266.859 310.346 266.873 309.525V308.842ZM259.955 314.201L260.078 315.254C262.238 315.247 265.164 315.199 267.721 314.748L267.639 313.805C266.408 313.982 265.055 314.078 263.742 314.133V311.59H262.457V314.174C261.562 314.194 260.707 314.201 259.955 314.201ZM261.814 319.902H270.141V318.85H263.113V316.279H261.814V319.902ZM268.418 317.113H269.744V312.902H271.426V311.809H269.744V307.912H268.418V317.113ZM274.212 318.057H272.68L271.956 321.83H273.118L274.212 318.057ZM279.291 319H280.795V315.268H282.818H282.914L284.924 319H286.633L284.445 315.001C285.648 314.543 286.25 313.538 286.25 312.205C286.25 310.38 285.122 309.102 282.818 309.102H279.291V319ZM280.795 313.969V310.387H282.668C284.124 310.394 284.732 311.091 284.732 312.205C284.732 313.319 284.124 313.962 282.668 313.969H280.795ZM290.54 319.137C291.435 319.137 292.42 318.843 293.096 318.214L293.766 319H295.407L293.992 317.318C294.422 316.758 294.819 315.876 294.819 314.502H293.506C293.506 315.165 293.349 315.753 293.096 316.245L291.114 313.88L291.797 313.381C292.618 312.786 293.11 312.096 293.11 311.152C293.11 309.99 292.173 308.992 290.649 308.992C289.138 308.992 288.154 309.97 288.147 311.344C288.154 312.226 288.612 312.923 289.241 313.688C288.106 314.461 287.327 315.186 287.327 316.375C287.327 317.961 288.55 319.137 290.54 319.137ZM288.79 316.334C288.783 316.02 289.036 315.418 289.815 314.844L290.061 314.659L292.276 317.257C291.77 317.674 291.155 317.906 290.553 317.906C289.48 317.906 288.783 317.182 288.79 316.334ZM289.514 311.357C289.514 310.79 289.993 310.216 290.676 310.209C291.346 310.209 291.784 310.729 291.784 311.193C291.784 311.774 291.463 312.137 290.922 312.492L290.321 312.923C289.87 312.369 289.514 311.863 289.514 311.357ZM299.56 319C302.574 319 304.311 317.127 304.318 314.037C304.311 310.954 302.574 309.102 299.656 309.102H296.347V319H299.56ZM297.851 317.688V310.414H299.56C301.72 310.414 302.827 311.706 302.827 314.037C302.827 316.375 301.72 317.681 299.478 317.688H297.851ZM318.79 307.912H317.504V312.766H314.756V313.832H317.504V320.162H318.79V307.912ZM308.563 316.867L309.247 317.893C313.403 315.835 314.784 312.772 314.797 309.225H309.11V310.264H313.478C313.252 313.073 311.81 315.281 308.563 316.867ZM330.763 307.912H329.464V310.893H327.167V311.973H329.464V315.049H330.763V307.912ZM320.564 313.955L321.234 314.98C322.69 314.468 323.763 313.395 324.296 312.041C324.829 313.258 325.848 314.242 327.222 314.721L327.892 313.695C326.039 313.053 324.932 311.528 324.939 310.004V309.717H327.564V308.65H320.96V309.717H323.612V310.004C323.619 311.679 322.444 313.312 320.564 313.955ZM322.683 320.012H330.763V315.623H322.683V320.012ZM323.968 318.959V316.648H329.491V318.959H323.968Z"
                                        fill="#9CA3AF"
                                    />
                                </g>
                                <g filter="url(#filter1_dd_699_26714)">
                                    <rect
                                        x="420"
                                        y="169"
                                        width="260"
                                        height="180"
                                        rx="4"
                                        fill="white"
                                    />
                                    <path
                                        fill-rule="evenodd"
                                        clip-rule="evenodd"
                                        d="M479.5 213.5C479.5 213.5 485.929 205.855 485.929 202.171C485.929 198.487 483.05 195.5 479.5 195.5C475.95 195.5 473.071 198.487 473.071 202.171C473.071 205.855 479.5 213.5 479.5 213.5ZM479.5 204.5C480.92 204.5 482.071 203.349 482.071 201.929C482.071 200.508 480.92 199.357 479.5 199.357C478.08 199.357 476.929 200.508 476.929 201.929C476.929 203.349 478.08 204.5 479.5 204.5Z"
                                        fill="#AAB4C6"
                                    />
                                    <path
                                        d="M492.249 211H494.886V206.482H496.899L499.333 211H502.251L499.544 206.052C500.995 205.428 501.794 204.162 501.794 202.422C501.794 199.899 500.133 198.273 497.242 198.273H492.249V211ZM494.886 204.338V200.436H496.749C498.314 200.444 499.079 201.139 499.07 202.422C499.079 203.696 498.314 204.338 496.749 204.338H494.886ZM507.275 211.193C508.391 211.185 509.604 210.868 510.535 210.121L511.318 211H514.042L512.126 208.803C512.829 207.871 513.277 206.535 513.269 204.812H511.107C511.107 205.639 510.904 206.386 510.57 207.01L508.444 204.566L509.191 204.021C510.263 203.257 510.887 202.29 510.878 201.086C510.887 199.478 509.63 198.106 507.591 198.098C505.508 198.106 504.128 199.521 504.128 201.367C504.128 202.492 504.682 203.433 505.35 204.285C503.961 205.243 503.021 206.14 503.021 207.625C503.021 209.629 504.638 211.185 507.275 211.193ZM505.552 207.484C505.552 206.992 505.886 206.421 506.607 205.902L506.694 205.841L509.129 208.557C508.584 208.899 507.986 209.084 507.398 209.084C506.273 209.093 505.552 208.398 505.552 207.484ZM506.361 201.402C506.369 200.752 506.861 200.207 507.609 200.207C508.356 200.198 508.795 200.734 508.786 201.227C508.795 201.78 508.496 202.229 507.855 202.633L507.187 203.081C506.703 202.466 506.369 201.93 506.361 201.402ZM519.417 211C523.302 211 525.648 208.601 525.639 204.619C525.648 200.655 523.302 198.273 519.47 198.273H514.934V211H519.417ZM517.571 208.732V200.541H519.329C521.737 200.541 523.003 201.789 523.003 204.619C523.003 207.476 521.737 208.732 519.311 208.732H517.571ZM539.869 198.309H536.67V196.551H534.403V198.309H531.186V200.066H534.403C534.385 201.895 533.198 203.705 530.623 204.408L531.696 206.166C533.576 205.604 534.86 204.443 535.563 202.984C536.283 204.268 537.54 205.278 539.36 205.762L540.379 204.004C537.804 203.336 536.661 201.701 536.635 200.066H539.869V198.309ZM532.715 209.611C532.706 211.501 534.789 212.6 538.199 212.6C541.539 212.6 543.587 211.501 543.596 209.611C543.587 207.669 541.539 206.57 538.199 206.57C534.789 206.57 532.706 207.669 532.715 209.611ZM534.965 209.611C534.947 208.697 536.072 208.293 538.199 208.293C540.274 208.293 541.381 208.697 541.381 209.611C541.381 210.481 540.274 210.912 538.199 210.912C536.072 210.912 534.947 210.481 534.965 209.611ZM541.188 206.271H543.438V202.229H545.6V200.418H543.438V196.621H541.188V206.271ZM550.588 197.307C548.127 197.289 546.316 198.897 546.334 201.086C546.316 203.318 548.127 204.918 550.588 204.918C552.644 204.918 554.288 203.723 554.701 201.965H557.373V205.217H559.605V196.621H557.373V200.172H554.692C554.253 198.458 552.627 197.289 550.588 197.307ZM548.461 201.086C548.452 199.891 549.331 199.161 550.588 199.17C551.801 199.161 552.671 199.891 552.68 201.086C552.671 202.281 551.801 203.037 550.588 203.037C549.331 203.037 548.452 202.281 548.461 201.086ZM548.935 212.441H559.605V205.92H557.373V207.467H551.15V205.92H548.935V212.441ZM551.15 210.631V209.189H557.373V210.631H551.15ZM580.058 203.793H565.468V205.604H568.738V207.476C567.7 207.977 567.138 208.724 567.138 209.699C567.138 211.589 569.239 212.635 572.745 212.635C576.199 212.635 578.3 211.589 578.318 209.699C578.309 208.759 577.781 208.029 576.823 207.537V205.604H580.058V203.793ZM566.927 199.979C566.927 201.877 569.203 203.02 572.763 203.02C576.296 203.02 578.572 201.877 578.581 199.979C578.572 198.045 576.296 196.867 572.763 196.867C569.203 196.867 566.927 198.045 566.927 199.979ZM569.265 199.979C569.247 199.073 570.522 198.607 572.763 198.607C574.969 198.607 576.261 199.073 576.261 199.979C576.261 200.857 574.969 201.314 572.763 201.314C570.522 201.314 569.247 200.857 569.265 199.979ZM569.423 209.699C569.414 208.873 570.531 208.478 572.745 208.469C574.916 208.478 576.059 208.873 576.068 209.699C576.059 210.534 574.916 210.93 572.745 210.93C570.531 210.93 569.414 210.534 569.423 209.699ZM570.97 206.887V205.604H574.573V206.896C574.02 206.816 573.405 206.781 572.745 206.781C572.104 206.781 571.515 206.816 570.97 206.887ZM593.536 196.621H591.286V205.99H593.536V202.334H595.698V200.471H593.536V196.621ZM580.845 199.785H590.337V198.027H586.716V196.516H584.483V198.027H580.845V199.785ZM581.618 203.072C581.618 204.777 583.235 205.902 585.591 205.902C587.92 205.902 589.528 204.777 589.528 203.072C589.528 201.367 587.92 200.242 585.591 200.242C583.235 200.242 581.618 201.367 581.618 203.072ZM583.059 212.441H593.536V206.605H591.286V207.818H585.292V206.605H583.059V212.441ZM583.815 203.072C583.807 202.325 584.518 201.877 585.591 201.895C586.672 201.877 587.401 202.325 587.401 203.072C587.401 203.846 586.672 204.259 585.591 204.268C584.518 204.259 583.807 203.846 583.815 203.072ZM585.292 210.684V209.541H591.286V210.684H585.292ZM602.426 200.98V199.996H605.766V198.168H596.731V199.996H600.124V200.98C600.124 203.688 598.753 206.649 596.098 207.836L597.381 209.611C599.271 208.741 600.598 206.983 601.319 204.883C602.04 206.816 603.34 208.407 605.221 209.207L606.434 207.449C603.754 206.333 602.418 203.564 602.426 200.98ZM607.348 212.617H609.616V196.621H607.348V212.617ZM624.483 197.553H613.268V199.346H622.25C622.241 200.726 622.206 202.299 621.793 204.355H611.598V206.166H617.698V212.635H619.948V206.166H626.188V204.355H624.07C624.474 202.114 624.474 200.488 624.483 198.994V197.553Z"
                                        fill="#374151"
                                    />
                                    <line
                                        x1="442.407"
                                        y1="239.5"
                                        x2="657.593"
                                        y2="239.5"
                                        stroke="#D1D5DB"
                                    />
                                    <path
                                        d="M477.808 268.746C475.356 268.746 473.581 270.952 473.589 274.441C473.581 277.957 475.356 280.154 477.808 280.154C480.251 280.154 482.018 277.957 482.027 274.441C482.018 270.952 480.251 268.746 477.808 268.746ZM475.751 274.441C475.751 272.068 476.586 270.768 477.808 270.768C479.056 270.768 479.873 272.068 479.882 274.441C479.873 276.823 479.056 278.124 477.808 278.115C476.586 278.124 475.751 276.823 475.751 274.441ZM483.872 283.617H486.122V275.514H488.478V273.65H486.122V267.621H483.872V283.617ZM494.784 270.363V268.605H492.534V270.346C492.517 272.525 491.348 274.67 488.614 275.514L489.862 277.289C491.708 276.656 492.983 275.399 493.694 273.8C494.389 275.259 495.602 276.401 497.351 276.99L498.528 275.232C495.936 274.397 494.776 272.411 494.784 270.363ZM491.181 283.336H502.167V281.543H493.466V278.186H491.181V283.336ZM499.319 279.346H501.569V274.143H503.732V272.244H501.569V267.621H499.319V279.346ZM516.946 267.621H514.696V277.342H516.946V273.229H519.108V271.418H516.946V267.621ZM504.852 276.533H506.188C509.423 276.542 511.365 276.48 513.518 276.094L513.272 274.336C511.4 274.652 509.713 274.731 507.12 274.74V273.457H512.077V271.717H507.12V270.416H512.411V268.658H504.852V276.533ZM506.223 280.629C506.215 282.519 508.342 283.626 511.708 283.617C515.039 283.626 517.131 282.519 517.139 280.629C517.131 278.722 515.039 277.632 511.708 277.641C508.342 277.632 506.215 278.722 506.223 280.629ZM508.473 280.629C508.465 279.776 509.572 279.346 511.708 279.346C513.782 279.346 514.881 279.776 514.889 280.629C514.881 281.49 513.782 281.93 511.708 281.93C509.572 281.93 508.465 281.49 508.473 280.629ZM533.114 267.621H530.881V271.523H528.385V273.334H530.881V277.113H533.114V267.621ZM519.526 275.355L520.686 277.131C522.584 276.48 523.868 275.171 524.571 273.545C525.265 274.978 526.487 276.138 528.245 276.709L529.352 274.951C526.865 274.125 525.722 272.244 525.678 270.381H528.86V268.588H520.176V270.381H523.393C523.34 272.385 522.145 274.477 519.526 275.355ZM522.145 280.559C522.145 282.501 524.237 283.635 527.647 283.635C531.066 283.635 533.158 282.501 533.166 280.559C533.158 278.616 531.066 277.474 527.647 277.465C524.237 277.474 522.145 278.616 522.145 280.559ZM524.377 280.559C524.377 279.636 525.529 279.179 527.647 279.188C529.774 279.179 530.925 279.636 530.934 280.559C530.925 281.473 529.774 281.93 527.647 281.93C525.529 281.93 524.377 281.473 524.377 280.559ZM541.899 268.693H535.57V276.762H536.66C539.077 276.771 540.642 276.709 542.514 276.375L542.285 274.582C540.8 274.837 539.49 274.907 537.715 274.925V273.51H541.74V271.805H537.715V270.486H541.899V268.693ZM537.697 279.855H546.522V283.617H548.754V278.062H537.697V279.855ZM543.147 277.271H545.238V273.334H546.627V277.395H548.754V267.639H546.627V271.541H545.238V267.92H543.147V277.271ZM556.59 271.98V270.996H559.93V269.168H550.894V270.996H554.287V271.98C554.287 274.688 552.916 277.649 550.262 278.836L551.545 280.611C553.434 279.741 554.762 277.983 555.482 275.883C556.203 277.816 557.504 279.407 559.385 280.207L560.597 278.449C557.917 277.333 556.581 274.564 556.59 271.98ZM561.512 283.617H563.779V267.621H561.512V283.617ZM579.56 267.621H577.398V273.686H575.939V268.043H573.847V282.914H575.939V275.479H577.398V283.617H579.56V267.621ZM565.568 278.783L566.869 280.33C571.377 277.711 572.713 274.055 572.722 269.59H566.376V271.383H570.534C570.235 274.521 568.829 276.867 565.568 278.783ZM583.845 268.342H581.612V275.32H589.364V268.342H587.114V270.24H583.845V268.342ZM583.212 278.098H591.597V279.1H583.247V283.512H594.286V281.736H585.445V280.699H593.829V276.357H583.212V278.098ZM583.845 273.562V271.928H587.114V273.562H583.845ZM591.579 275.76H593.829V272.543H595.991V270.732H593.829V267.621H591.579V275.76ZM602.72 271.98V270.996H606.059V269.168H597.024V270.996H600.417V271.98C600.417 274.688 599.046 277.649 596.391 278.836L597.675 280.611C599.564 279.741 600.891 277.983 601.612 275.883C602.333 277.816 603.634 279.407 605.515 280.207L606.727 278.449C604.047 277.333 602.711 274.564 602.72 271.98ZM607.641 283.617H609.909V267.621H607.641V283.617ZM624.776 268.553H613.561V270.346H622.544C622.535 271.726 622.5 273.299 622.086 275.355H611.891V277.166H617.991V283.635H620.241V277.166H626.481V275.355H624.363C624.767 273.114 624.767 271.488 624.776 269.994V268.553Z"
                                        fill="#008DFF"
                                    />
                                    <path
                                        d="M460.359 319H461.863V315.268H463.886H463.982L465.992 319H467.701L465.513 315.001C466.716 314.543 467.318 313.538 467.318 312.205C467.318 310.38 466.19 309.102 463.886 309.102H460.359V319ZM461.863 313.969V310.387H463.736C465.192 310.394 465.8 311.091 465.8 312.205C465.8 313.319 465.192 313.962 463.736 313.969H461.863ZM471.608 319.137C472.503 319.137 473.488 318.843 474.164 318.214L474.834 319H476.475L475.06 317.318C475.49 316.758 475.887 315.876 475.887 314.502H474.574C474.574 315.165 474.417 315.753 474.164 316.245L472.182 313.88L472.865 313.381C473.686 312.786 474.178 312.096 474.178 311.152C474.178 309.99 473.241 308.992 471.717 308.992C470.206 308.992 469.222 309.97 469.215 311.344C469.222 312.226 469.68 312.923 470.309 313.688C469.174 314.461 468.395 315.186 468.395 316.375C468.395 317.961 469.618 319.137 471.608 319.137ZM469.858 316.334C469.851 316.02 470.104 315.418 470.883 314.844L471.129 314.659L473.344 317.257C472.838 317.674 472.223 317.906 471.621 317.906C470.548 317.906 469.851 317.182 469.858 316.334ZM470.582 311.357C470.582 310.79 471.061 310.216 471.744 310.209C472.414 310.209 472.852 310.729 472.852 311.193C472.852 311.774 472.531 312.137 471.99 312.492L471.389 312.923C470.938 312.369 470.582 311.863 470.582 311.357ZM480.628 319C483.642 319 485.379 317.127 485.386 314.037C485.379 310.954 483.642 309.102 480.724 309.102H477.415V319H480.628ZM478.919 317.688V310.414H480.628C482.788 310.414 483.895 311.706 483.895 314.037C483.895 316.375 482.788 317.681 480.546 317.688H478.919ZM487.953 318.057H486.421L485.697 321.83H486.859L487.953 318.057ZM496.764 310.537V310.387H499.43V309.334H496.778V307.857H495.479V309.334H492.813V310.387H495.479V310.537C495.479 312.123 494.331 313.565 492.458 314.119L493.1 315.145C494.543 314.673 495.609 313.695 496.149 312.438C496.689 313.552 497.735 314.42 499.143 314.83L499.745 313.805C497.872 313.278 496.764 311.959 496.764 310.537ZM494.03 317.906C494.03 319.314 495.582 320.128 498.145 320.135C500.681 320.128 502.206 319.314 502.206 317.906C502.206 316.471 500.681 315.657 498.145 315.664C495.582 315.657 494.03 316.471 494.03 317.906ZM495.329 317.906C495.322 317.1 496.361 316.676 498.145 316.676C499.902 316.676 500.941 317.1 500.934 317.906C500.941 318.692 499.902 319.13 498.145 319.137C496.361 319.13 495.322 318.692 495.329 317.906ZM500.798 315.377H502.096V312.068H503.874V311.002H502.096V307.912H500.798V315.377ZM507.822 308.473C505.949 308.459 504.602 309.648 504.609 311.316C504.602 313.005 505.949 314.188 507.822 314.188C509.449 314.188 510.706 313.244 510.959 311.836H513.345V314.488H514.644V307.912H513.345V310.77H510.953C510.686 309.396 509.435 308.459 507.822 308.473ZM505.853 311.316C505.846 310.264 506.666 309.546 507.822 309.553C508.956 309.546 509.763 310.264 509.763 311.316C509.763 312.362 508.956 313.094 507.822 313.094C506.666 313.094 505.846 312.362 505.853 311.316ZM506.66 320.012H514.644V315.076H513.345V316.498H507.945V315.076H506.66V320.012ZM507.945 318.945V317.523H513.345V318.945H507.945ZM517.785 315.637C518.312 315.63 518.749 315.199 518.756 314.666C518.749 314.133 518.312 313.695 517.785 313.695C517.252 313.695 516.808 314.133 516.815 314.666C516.808 315.199 517.252 315.63 517.785 315.637ZM531.112 314.816H519.942V315.869H524.864V320.148H526.135V315.869H531.112V314.816ZM520.571 312.861L521.063 313.887C523.046 313.572 524.775 312.581 525.527 311.187C526.272 312.581 528.009 313.572 530.018 313.887L530.497 312.861C528.179 312.547 526.293 311.187 526.272 309.676H530.059V308.637H520.981V309.676H524.796C524.755 311.187 522.854 312.547 520.571 312.861ZM542.101 307.912H540.816V312.766H538.068V313.832H540.816V320.162H542.101V307.912ZM531.874 316.867L532.558 317.893C536.714 315.835 538.095 312.772 538.109 309.225H532.421V310.264H536.789C536.564 313.073 535.121 315.281 531.874 316.867ZM553.606 308.691H547.782V313.723H553.606V308.691ZM548.589 319.123L549.04 320.121C550.967 319.889 552.574 319.082 553.326 317.988C554.064 319.068 555.65 319.889 557.571 320.121L558.008 319.123C555.78 318.877 554.078 317.756 553.989 316.689H557.571V315.705H553.962V314.557H552.676V315.705H549.081V316.689H552.649C552.56 317.79 550.817 318.904 548.589 319.123ZM549.053 312.711V309.73H552.321V312.711H549.053ZM555.999 314.912H557.284V307.912H555.999V314.912ZM572.562 307.912H571.25V320.162H572.562V307.912ZM562.5 316.881L563.184 317.934C567.388 315.917 568.912 312.813 568.912 309.225H563.088V310.264H567.6C567.347 313.121 565.754 315.329 562.5 316.881ZM577.727 308.473C575.854 308.459 574.507 309.648 574.514 311.316C574.507 313.005 575.854 314.188 577.727 314.188C579.354 314.188 580.612 313.244 580.865 311.836H583.251V314.488H584.549V307.912H583.251V310.77H580.858C580.591 309.396 579.34 308.459 577.727 308.473ZM575.758 311.316C575.752 310.264 576.572 309.546 577.727 309.553C578.862 309.546 579.669 310.264 579.669 311.316C579.669 312.362 578.862 313.094 577.727 313.094C576.572 313.094 575.752 312.362 575.758 311.316ZM576.565 320.012H584.549V315.076H583.251V316.498H577.85V315.076H576.565V320.012ZM577.85 318.945V317.523H583.251V318.945H577.85ZM595.152 316.375C592.425 316.375 590.9 317.038 590.9 318.275C590.9 319.506 592.425 320.142 595.152 320.135C597.846 320.142 599.37 319.506 599.377 318.275C599.37 317.038 597.846 316.375 595.152 316.375ZM589.574 315.705H600.744V314.68H595.808V313.832C597.982 313.736 599.179 313.142 599.172 312.109C599.179 310.94 597.736 310.346 595.152 310.346C592.582 310.346 591.126 310.94 591.133 312.109C591.126 313.148 592.343 313.736 594.51 313.832V314.68H589.574V315.705ZM590.148 309.895H600.115V308.896H595.808V307.762H594.51V308.896H590.148V309.895ZM592.226 318.275C592.226 317.66 593.245 317.339 595.152 317.332C597.046 317.339 598.064 317.66 598.064 318.275C598.064 318.877 597.046 319.185 595.152 319.178C593.245 319.185 592.226 318.877 592.226 318.275ZM592.514 312.109C592.507 311.528 593.443 311.241 595.152 311.234C596.875 311.241 597.791 311.528 597.791 312.109C597.791 312.643 596.875 312.937 595.152 312.943C593.443 312.937 592.507 312.643 592.514 312.109ZM612.745 317.564H607.754V315.049H611.418V308.746H610.133V310.852H604.118V308.746H602.819V315.049H606.469V317.564H601.534V318.645H612.745V317.564ZM604.118 313.996V311.904H610.133V313.996H604.118ZM614.888 315.637C615.414 315.63 615.852 315.199 615.859 314.666C615.852 314.133 615.414 313.695 614.888 313.695C614.355 313.695 613.91 314.133 613.917 314.666C613.91 315.199 614.355 315.63 614.888 315.637ZM626.998 309.088H618.193V310.141H625.699V310.4C625.706 311.904 625.706 313.545 625.275 315.76L626.547 315.896C626.984 313.552 626.984 311.938 626.998 310.4V309.088ZM617.045 318.508H628.215V317.428H624.017V313.463H622.746V317.428H620.982V313.463H619.683V317.428H617.045V318.508ZM640.202 315.186H628.991V316.211H631.821V320.162H633.12V316.211H636.073V320.162H637.385V316.211H640.202V315.186ZM630.317 309.416H637.549V310.66H630.358V314.037H639.135V312.984H631.657V311.631H638.875V308.35H630.317V309.416Z"
                                        fill="#9CA3AF"
                                    />
                                </g>
                                <g filter="url(#filter2_dd_699_26714)">
                                    <rect
                                        x="704"
                                        y="169"
                                        width="260"
                                        height="180"
                                        rx="4"
                                        fill="white"
                                    />
                                    <path
                                        fill-rule="evenodd"
                                        clip-rule="evenodd"
                                        d="M773.5 213.5C773.5 213.5 779.929 205.855 779.929 202.171C779.929 198.487 777.05 195.5 773.5 195.5C769.95 195.5 767.071 198.487 767.071 202.171C767.071 205.855 773.5 213.5 773.5 213.5ZM773.5 204.5C774.92 204.5 776.071 203.349 776.071 201.929C776.071 200.508 774.92 199.357 773.5 199.357C772.08 199.357 770.929 200.508 770.929 201.929C770.929 203.349 772.08 204.5 773.5 204.5Z"
                                        fill="#AAB4C6"
                                    />
                                    <path
                                        d="M798.974 196.621H796.706V212.617H798.974V196.621ZM785.579 208.082L786.757 209.875C792.47 207.177 794.166 203.143 794.175 198.291H786.441V200.049H791.89C791.529 203.6 789.71 206.131 785.579 208.082ZM809.358 197.043V196.709H807.056V197.043C807.038 198.607 805.21 200.181 801.624 200.559L802.38 202.246C805.122 201.938 807.152 200.893 808.189 199.425C809.218 200.893 811.257 201.938 814.034 202.246L814.772 200.559C811.195 200.181 809.358 198.607 809.358 197.043ZM800.903 204.672H807.056V205.727H802.591V207.432H811.503V208.275H802.608V212.512H814.139V210.824H804.806V209.857H813.718V205.727H809.306V204.672H815.493V202.914H800.903V204.672ZM826.137 200.242V197.852H823.887V200.242C823.887 203.213 822.612 206.271 819.897 207.52L821.285 209.33C823.096 208.434 824.326 206.737 825.029 204.672C825.689 206.597 826.849 208.179 828.563 209.031L829.916 207.238C827.35 205.999 826.128 203.107 826.137 200.242ZM830.619 212.617H832.869V204.689H835.225V202.791H832.869V196.621H830.619V212.617ZM840.09 197.307C837.629 197.289 835.818 198.897 835.836 201.086C835.818 203.318 837.629 204.918 840.09 204.918C842.146 204.918 843.79 203.723 844.203 201.965H846.875V205.217H849.107V196.621H846.875V200.172H844.194C843.755 198.458 842.129 197.289 840.09 197.307ZM837.963 201.086C837.954 199.891 838.833 199.161 840.09 199.17C841.303 199.161 842.173 199.891 842.182 201.086C842.173 202.281 841.303 203.037 840.09 203.037C838.833 203.037 837.954 202.281 837.963 201.086ZM838.437 212.441H849.107V205.92H846.875V207.467H840.652V205.92H838.437V212.441ZM840.652 210.631V209.189H846.875V210.631H840.652ZM863.798 196.621H861.531V212.617H863.798V204.988H865.89V203.125H863.798V196.621ZM850.808 208.1L851.107 209.928C853.805 209.937 857.479 209.91 860.88 209.277L860.74 207.643C859.553 207.81 858.279 207.915 857.013 207.985V206.693C858.701 206.368 859.826 205.278 859.843 203.793C859.826 202.009 858.191 200.787 855.906 200.787C853.577 200.787 851.96 202.009 851.968 203.793C851.96 205.278 853.067 206.359 854.763 206.693V208.064C853.339 208.1 851.977 208.1 850.808 208.1ZM851.125 200.154H860.617V198.396H857.013V196.709H854.763V198.396H851.125V200.154ZM854.095 203.793C854.086 202.967 854.807 202.501 855.906 202.492C856.969 202.501 857.681 202.967 857.681 203.793C857.681 204.637 856.969 205.094 855.906 205.094C854.807 205.094 854.086 204.637 854.095 203.793ZM876.552 200.98V199.996H879.892V198.168H870.856V199.996H874.249V200.98C874.249 203.688 872.878 206.649 870.224 207.836L871.507 209.611C873.396 208.741 874.724 206.983 875.444 204.883C876.165 206.816 877.466 208.407 879.347 209.207L880.559 207.449C877.879 206.333 876.543 203.564 876.552 200.98ZM881.474 212.617H883.741V196.621H881.474V212.617ZM898.608 197.553H887.393V199.346H896.376C896.367 200.726 896.332 202.299 895.919 204.355H885.723V206.166H891.823V212.635H894.073V206.166H900.313V204.355H898.195C898.599 202.114 898.599 200.488 898.608 198.994V197.553Z"
                                        fill="#374151"
                                    />
                                    <line
                                        x1="726.407"
                                        y1="239.5"
                                        x2="941.593"
                                        y2="239.5"
                                        stroke="#D1D5DB"
                                    />
                                    <path
                                        d="M778.767 271.383V271.26H782.001V269.502H778.802V267.727H776.534V269.502H773.318V271.26H776.534V271.383C776.534 273.334 775.374 275.276 772.773 276.059L773.862 277.816C775.717 277.236 776.983 276.05 777.694 274.547C778.415 275.936 779.681 277.034 781.474 277.553L782.546 275.812C779.944 275.021 778.776 273.185 778.767 271.383ZM775.743 283.336H786.747V281.543H777.993V278.484H775.743V283.336ZM781.474 274.107H784.128V279.504H786.36V267.639H784.128V272.297H781.474V274.107ZM800.946 267.621H798.696V279.275H800.946V274.072H803.108V272.209H800.946V267.621ZM788.36 272.719C788.351 275.065 790.294 276.779 792.755 276.779C795.207 276.779 797.114 275.065 797.114 272.719C797.114 270.337 795.207 268.649 792.755 268.658C790.294 268.649 788.351 270.337 788.36 272.719ZM790.575 283.336H801.526V281.543H792.807V278.045H790.575V283.336ZM790.575 272.719C790.557 271.383 791.533 270.601 792.755 270.609C793.985 270.601 794.926 271.383 794.934 272.719C794.926 274.02 793.985 274.828 792.755 274.828C791.533 274.828 790.557 274.02 790.575 272.719ZM818.221 275.197H803.631V276.973H809.801V278.045C806.971 278.229 805.319 279.205 805.319 280.822C805.319 282.624 807.402 283.626 810.909 283.617C814.389 283.626 816.481 282.624 816.481 280.822C816.481 279.205 814.837 278.238 812.034 278.045V276.973H818.221V275.197ZM804.915 269.941H806.989V272.385H805.02V274.178H816.815V272.385H814.829V269.941H816.92V268.148H804.915V269.941ZM807.569 280.822C807.56 280.058 808.694 279.688 810.909 279.68C813.08 279.688 814.205 280.058 814.213 280.822C814.205 281.596 813.08 281.965 810.909 281.965C808.694 281.965 807.56 281.596 807.569 280.822ZM809.239 272.385V269.941H812.579V272.385H809.239ZM824.141 271.646V268.992H821.961V271.752C821.961 274.459 821.082 277.28 818.709 278.748L820.08 280.4C821.53 279.521 822.488 278.001 823.06 276.19C823.569 277.825 824.44 279.214 825.828 280.049L827.041 278.309C824.853 276.911 824.132 274.239 824.141 271.646ZM825.354 274.846H827.428V282.879H829.52V267.85H827.428V273.018H825.354V274.846ZM830.733 283.617H832.877V267.621H830.733V283.617ZM838.937 268.096C836.468 268.087 834.631 269.616 834.631 271.752C834.631 273.87 836.468 275.382 838.937 275.391C841.372 275.382 843.2 273.87 843.209 271.752C843.2 269.616 841.372 268.087 838.937 268.096ZM836.81 271.752C836.793 270.601 837.707 269.924 838.937 269.924C840.15 269.924 841.038 270.601 841.047 271.752C841.038 272.895 840.15 273.571 838.937 273.58C837.698 273.571 836.793 272.895 836.81 271.752ZM837.039 278.027H845.547V279.012H837.074V283.441H848.219V281.684H839.271V280.646H847.779V276.305H837.039V278.027ZM845.529 275.637H847.779V267.621H845.529V275.637ZM862.453 267.639H860.203V279.416H862.453V273.984H864.615V272.139H862.453V267.639ZM850.236 276.867H857.988V268.764H855.738V271.084H852.468V268.764H850.236V276.867ZM852.082 283.336H863.033V281.543H854.314V278.203H852.082V283.336ZM852.468 275.109V272.807H855.738V275.109H852.468ZM871.044 270.363V268.605H868.794V270.346C868.777 272.525 867.608 274.67 864.874 275.514L866.122 277.289C867.968 276.656 869.242 275.399 869.954 273.8C870.649 275.259 871.862 276.401 873.611 276.99L874.788 275.232C872.196 274.397 871.035 272.411 871.044 270.363ZM867.441 283.336H878.427V281.543H869.726V278.186H867.441V283.336ZM875.579 279.346H877.829V274.143H879.991V272.244H877.829V267.621H875.579V279.346ZM893.206 267.621H890.956V279.188H893.206V273.826H895.368V271.98H893.206V267.621ZM881.13 276.551H882.483C886.025 276.551 887.871 276.454 889.884 276.041L889.655 274.248C887.871 274.626 886.28 274.723 883.38 274.74V270.697H888.354V268.904H881.13V276.551ZM882.835 283.336H893.786V281.543H885.067V277.957H882.835V283.336Z"
                                        fill="#008DFF"
                                    />
                                    <path
                                        d="M766.116 307.912H764.804V320.162H766.116V307.912ZM756.054 316.881L756.738 317.934C760.942 315.917 762.466 312.813 762.466 309.225H756.642V310.264H761.154C760.901 313.121 759.308 315.329 756.054 316.881ZM774.139 308.377V307.967H772.812V308.377C772.806 309.785 770.871 310.968 768.478 311.234L768.93 312.219C770.919 311.973 772.676 311.125 773.469 309.874C774.255 311.125 776.012 311.973 778.021 312.219L778.473 311.234C776.087 310.968 774.145 309.785 774.139 308.377ZM767.89 313.969H772.812V315.062H769.23V316.061H776.367V317.018H769.244V320.039H777.994V319.041H770.515V317.961H777.652V315.062H774.111V313.969H779.06V312.93H767.89V313.969ZM784.102 311.029V308.938H782.803V311.029C782.796 313.271 781.525 315.623 779.645 316.525L780.452 317.578C781.846 316.854 782.919 315.384 783.466 313.647C784.006 315.281 785.039 316.648 786.372 317.346L787.178 316.307C785.353 315.418 784.088 313.196 784.102 311.029ZM788.094 320.162H789.393V313.9H791.362V312.793H789.393V307.912H788.094V320.162ZM795.2 308.473C793.327 308.459 791.981 309.648 791.987 311.316C791.981 313.005 793.327 314.188 795.2 314.188C796.827 314.188 798.085 313.244 798.338 311.836H800.724V314.488H802.023V307.912H800.724V310.77H798.331C798.065 309.396 796.814 308.459 795.2 308.473ZM793.232 311.316C793.225 310.264 794.045 309.546 795.2 309.553C796.335 309.546 797.142 310.264 797.142 311.316C797.142 312.362 796.335 313.094 795.2 313.094C794.045 313.094 793.225 312.362 793.232 311.316ZM794.038 320.012H802.023V315.076H800.724V316.498H795.323V315.076H794.038V320.012ZM795.323 318.945V317.523H800.724V318.945H795.323ZM813.367 307.912H812.068V320.162H813.367V314.133H815.213V313.039H813.367V307.912ZM803.619 316.826L803.824 317.906C805.936 317.913 808.801 317.886 811.453 317.414L811.371 316.457C810.352 316.601 809.259 316.689 808.172 316.744V315.548C809.559 315.35 810.475 314.509 810.482 313.326C810.475 311.945 809.265 311.036 807.529 311.029C805.786 311.036 804.59 311.945 804.603 313.326C804.59 314.509 805.492 315.343 806.873 315.548V316.792C805.704 316.826 804.583 316.826 803.619 316.826ZM803.851 310.4H811.193V309.361H808.172V307.939H806.873V309.361H803.851V310.4ZM805.82 313.326C805.82 312.54 806.504 312.041 807.529 312.041C808.554 312.041 809.231 312.54 809.238 313.326C809.231 314.105 808.554 314.591 807.529 314.584C806.504 314.591 805.82 314.105 805.82 313.326ZM825.474 308.691H819.649V313.723H825.474V308.691ZM820.456 319.123L820.907 320.121C822.835 319.889 824.441 319.082 825.193 317.988C825.932 319.068 827.518 319.889 829.439 320.121L829.876 319.123C827.648 318.877 825.945 317.756 825.856 316.689H829.439V315.705H825.829V314.557H824.544V315.705H820.948V316.689H824.517C824.428 317.79 822.685 318.904 820.456 319.123ZM820.921 312.711V309.73H824.189V312.711H820.921ZM827.866 314.912H829.151V307.912H827.866V314.912ZM844.389 307.912H843.104V314.215H844.389V307.912ZM834.285 313.121L834.942 314.146C836.405 313.647 837.498 312.581 838.052 311.241C838.606 312.485 839.679 313.449 841.108 313.914L841.75 312.902C839.87 312.314 838.695 310.824 838.701 309.184V308.24H837.375V309.184C837.368 310.879 836.2 312.485 834.285 313.121ZM836.35 315.828H843.118V316.881H836.391V320.039H844.813V319H837.649V317.865H844.403V314.803H836.35V315.828ZM857.374 313.682H846.204V314.734H857.374V313.682ZM846.792 312.014L847.243 313.039C849.369 312.793 851.112 311.897 851.789 310.605C852.452 311.897 854.209 312.793 856.335 313.039L856.8 312.014C854.53 311.774 852.801 310.77 852.65 309.58H856.376V308.514H847.229V309.58H850.914C850.77 310.776 849.014 311.774 846.792 312.014ZM847.53 317.92C847.53 319.342 849.123 320.142 851.782 320.135C854.421 320.142 856 319.342 856.007 317.92C856 316.498 854.421 315.678 851.782 315.678C849.123 315.678 847.53 316.498 847.53 317.92ZM848.843 317.92C848.836 317.127 849.909 316.703 851.782 316.689C853.628 316.703 854.708 317.127 854.708 317.92C854.708 318.692 853.628 319.116 851.782 319.109C849.909 319.116 848.836 318.692 848.843 317.92ZM859.558 315.637C860.085 315.63 860.522 315.199 860.529 314.666C860.522 314.133 860.085 313.695 859.558 313.695C859.025 313.695 858.581 314.133 858.588 314.666C858.581 315.199 859.025 315.63 859.558 315.637ZM871.873 307.926H870.574V316.826H871.873V307.926ZM861.961 311.781C861.968 313.579 863.376 314.83 865.229 314.83C867.074 314.83 868.483 313.579 868.483 311.781C868.483 310.011 867.074 308.753 865.229 308.746C863.376 308.753 861.968 310.011 861.961 311.781ZM863.233 311.781C863.226 310.653 864.087 309.881 865.229 309.881C866.35 309.881 867.211 310.653 867.211 311.781C867.211 312.937 866.35 313.695 865.229 313.695C864.087 313.695 863.226 312.937 863.233 311.781ZM863.862 319.902H872.242V318.85H865.174V315.924H863.862V319.902ZM884.845 313.682H873.675V314.734H884.845V313.682ZM874.263 312.014L874.714 313.039C876.84 312.793 878.583 311.897 879.26 310.605C879.923 311.897 881.68 312.793 883.806 313.039L884.27 312.014C882.001 311.774 880.271 310.77 880.121 309.58H883.847V308.514H874.7V309.58H878.385C878.241 310.776 876.484 311.774 874.263 312.014ZM875.001 317.92C875.001 319.342 876.594 320.142 879.253 320.135C881.891 320.142 883.471 319.342 883.477 317.92C883.471 316.498 881.891 315.678 879.253 315.678C876.594 315.678 875.001 316.498 875.001 317.92ZM876.313 317.92C876.307 317.127 877.38 316.703 879.253 316.689C881.099 316.703 882.179 317.127 882.179 317.92C882.179 318.692 881.099 319.116 879.253 319.109C877.38 319.116 876.307 318.692 876.313 317.92ZM899.111 307.912H897.826V312.766H895.078V313.832H897.826V320.162H899.111V307.912ZM888.885 316.867L889.569 317.893C893.725 315.835 895.106 312.772 895.119 309.225H889.432V310.264H893.8C893.574 313.073 892.132 315.281 888.885 316.867ZM911.085 307.912H909.786V310.893H907.489V311.973H909.786V315.049H911.085V307.912ZM900.886 313.955L901.555 314.98C903.012 314.468 904.085 313.395 904.618 312.041C905.151 313.258 906.17 314.242 907.544 314.721L908.214 313.695C906.361 313.053 905.254 311.528 905.261 310.004V309.717H907.886V308.65H901.282V309.717H903.934V310.004C903.941 311.679 902.765 313.312 900.886 313.955ZM903.005 320.012H911.085V315.623H903.005V320.012ZM904.29 318.959V316.648H909.813V318.959H904.29Z"
                                        fill="#9CA3AF"
                                    />
                                </g>
                                <defs>
                                    <filter
                                        id="filter0_dd_699_26714"
                                        x="128"
                                        y="165"
                                        width="276"
                                        height="196"
                                        filterUnits="userSpaceOnUse"
                                        color-interpolation-filters="sRGB"
                                    >
                                        <feFlood
                                            flood-opacity="0"
                                            result="BackgroundImageFix"
                                        />
                                        <feColorMatrix
                                            in="SourceAlpha"
                                            type="matrix"
                                            values="0 0 0 0 0 0 0 0 0 0 0 0 0 0 0 0 0 0 127 0"
                                            result="hardAlpha"
                                        />
                                        <feOffset dy="4" />
                                        <feGaussianBlur stdDeviation="4" />
                                        <feColorMatrix
                                            type="matrix"
                                            values="0 0 0 0 0.458824 0 0 0 0 0.458824 0 0 0 0 0.458824 0 0 0 0.16 0"
                                        />
                                        <feBlend
                                            mode="normal"
                                            in2="BackgroundImageFix"
                                            result="effect1_dropShadow_699_26714"
                                        />
                                        <feColorMatrix
                                            in="SourceAlpha"
                                            type="matrix"
                                            values="0 0 0 0 0 0 0 0 0 0 0 0 0 0 0 0 0 0 127 0"
                                            result="hardAlpha"
                                        />
                                        <feOffset dy="1" />
                                        <feGaussianBlur stdDeviation="1" />
                                        <feColorMatrix
                                            type="matrix"
                                            values="0 0 0 0 0.258824 0 0 0 0 0.258824 0 0 0 0 0.258824 0 0 0 0.04 0"
                                        />
                                        <feBlend
                                            mode="normal"
                                            in2="effect1_dropShadow_699_26714"
                                            result="effect2_dropShadow_699_26714"
                                        />
                                        <feBlend
                                            mode="normal"
                                            in="SourceGraphic"
                                            in2="effect2_dropShadow_699_26714"
                                            result="shape"
                                        />
                                    </filter>
                                    <filter
                                        id="filter1_dd_699_26714"
                                        x="412"
                                        y="165"
                                        width="276"
                                        height="196"
                                        filterUnits="userSpaceOnUse"
                                        color-interpolation-filters="sRGB"
                                    >
                                        <feFlood
                                            flood-opacity="0"
                                            result="BackgroundImageFix"
                                        />
                                        <feColorMatrix
                                            in="SourceAlpha"
                                            type="matrix"
                                            values="0 0 0 0 0 0 0 0 0 0 0 0 0 0 0 0 0 0 127 0"
                                            result="hardAlpha"
                                        />
                                        <feOffset dy="4" />
                                        <feGaussianBlur stdDeviation="4" />
                                        <feColorMatrix
                                            type="matrix"
                                            values="0 0 0 0 0.458824 0 0 0 0 0.458824 0 0 0 0 0.458824 0 0 0 0.16 0"
                                        />
                                        <feBlend
                                            mode="normal"
                                            in2="BackgroundImageFix"
                                            result="effect1_dropShadow_699_26714"
                                        />
                                        <feColorMatrix
                                            in="SourceAlpha"
                                            type="matrix"
                                            values="0 0 0 0 0 0 0 0 0 0 0 0 0 0 0 0 0 0 127 0"
                                            result="hardAlpha"
                                        />
                                        <feOffset dy="1" />
                                        <feGaussianBlur stdDeviation="1" />
                                        <feColorMatrix
                                            type="matrix"
                                            values="0 0 0 0 0.258824 0 0 0 0 0.258824 0 0 0 0 0.258824 0 0 0 0.04 0"
                                        />
                                        <feBlend
                                            mode="normal"
                                            in2="effect1_dropShadow_699_26714"
                                            result="effect2_dropShadow_699_26714"
                                        />
                                        <feBlend
                                            mode="normal"
                                            in="SourceGraphic"
                                            in2="effect2_dropShadow_699_26714"
                                            result="shape"
                                        />
                                    </filter>
                                    <filter
                                        id="filter2_dd_699_26714"
                                        x="696"
                                        y="165"
                                        width="276"
                                        height="196"
                                        filterUnits="userSpaceOnUse"
                                        color-interpolation-filters="sRGB"
                                    >
                                        <feFlood
                                            flood-opacity="0"
                                            result="BackgroundImageFix"
                                        />
                                        <feColorMatrix
                                            in="SourceAlpha"
                                            type="matrix"
                                            values="0 0 0 0 0 0 0 0 0 0 0 0 0 0 0 0 0 0 127 0"
                                            result="hardAlpha"
                                        />
                                        <feOffset dy="4" />
                                        <feGaussianBlur stdDeviation="4" />
                                        <feColorMatrix
                                            type="matrix"
                                            values="0 0 0 0 0.458824 0 0 0 0 0.458824 0 0 0 0 0.458824 0 0 0 0.16 0"
                                        />
                                        <feBlend
                                            mode="normal"
                                            in2="BackgroundImageFix"
                                            result="effect1_dropShadow_699_26714"
                                        />
                                        <feColorMatrix
                                            in="SourceAlpha"
                                            type="matrix"
                                            values="0 0 0 0 0 0 0 0 0 0 0 0 0 0 0 0 0 0 127 0"
                                            result="hardAlpha"
                                        />
                                        <feOffset dy="1" />
                                        <feGaussianBlur stdDeviation="1" />
                                        <feColorMatrix
                                            type="matrix"
                                            values="0 0 0 0 0.258824 0 0 0 0 0.258824 0 0 0 0 0.258824 0 0 0 0.04 0"
                                        />
                                        <feBlend
                                            mode="normal"
                                            in2="effect1_dropShadow_699_26714"
                                            result="effect2_dropShadow_699_26714"
                                        />
                                        <feBlend
                                            mode="normal"
                                            in="SourceGraphic"
                                            in2="effect2_dropShadow_699_26714"
                                            result="shape"
                                        />
                                    </filter>
                                </defs>
                            </svg> 
