<svg width="32" height="32" viewBox="0 0 32 32" fill="none" xmlns="http://www.w3.org/2000/svg">
<path fill-rule="evenodd" clip-rule="evenodd" d="M16 0C7.16344 0 0 7.16344 0 16C0 24.8366 7.16344 32 16 32C24.8366 32 32 24.8366 32 16C32 7.16344 24.8366 0 16 0ZM25.9356 11.9031C25.9244 11.0633 25.7669 10.2319 25.4702 9.44606C25.213 8.78318 24.82 8.18117 24.3165 7.67849C23.813 7.17581 23.21 6.78351 22.546 6.52667C21.7689 6.23546 20.948 6.07799 20.1182 6.06098C19.0498 6.01331 18.711 6 15.9989 6C13.2868 6 12.9391 6 11.8785 6.06098C11.049 6.07812 10.2285 6.23558 9.4518 6.52667C8.78771 6.78333 8.18461 7.17557 7.68107 7.67827C7.17753 8.18097 6.78464 8.78308 6.52754 9.44606C6.23526 10.2212 6.07788 11.0406 6.06219 11.8687C6.01444 12.9365 6 13.2746 6 15.9823C6 18.6899 6 19.0358 6.06219 20.0958C6.07885 20.9252 6.23545 21.7434 6.52754 22.5207C6.78507 23.1835 7.17825 23.7853 7.68196 24.2878C8.18567 24.7903 8.78883 25.1824 9.45291 25.439C10.2275 25.7419 11.0482 25.9106 11.8796 25.9379C12.9491 25.9856 13.2879 26 16 26C18.7121 26 19.0598 26 20.1204 25.9379C20.9502 25.9216 21.7712 25.7645 22.5482 25.4733C23.212 25.2162 23.8149 24.8238 24.3183 24.3211C24.8218 23.8185 25.2149 23.2166 25.4725 22.5539C25.7646 21.7778 25.9211 20.9595 25.9378 20.1291C25.9856 19.0624 26 18.7243 26 16.0155L26 15.9783V15.9781C25.9978 13.3047 25.9975 12.9593 25.9356 11.9031ZM15.9922 21.1026C13.1557 21.1026 10.8578 18.8085 10.8578 15.9767C10.8578 13.1449 13.1557 10.8509 15.9922 10.8509C17.354 10.8509 18.6599 11.3909 19.6228 12.3522C20.5857 13.3135 21.1266 14.6173 21.1266 15.9767C21.1266 17.3362 20.5857 18.64 19.6228 19.6012C18.6599 20.5625 17.354 21.1026 15.9922 21.1026ZM21.331 11.8565C21.1737 11.8567 21.0179 11.8259 20.8726 11.7658C20.7273 11.7058 20.5953 11.6178 20.4841 11.5068C20.3729 11.3958 20.2847 11.2639 20.2246 11.1188C20.1644 10.9738 20.1336 10.8183 20.1337 10.6613C20.1337 10.5044 20.1647 10.349 20.2248 10.2041C20.285 10.0591 20.3731 9.92743 20.4842 9.81649C20.5953 9.70555 20.7273 9.61755 20.8725 9.55751C21.0176 9.49747 21.1733 9.46657 21.3304 9.46657C21.4876 9.46657 21.6432 9.49747 21.7884 9.55751C21.9336 9.61755 22.0655 9.70555 22.1766 9.81649C22.2877 9.92743 22.3759 10.0591 22.436 10.2041C22.4961 10.349 22.5271 10.5044 22.5271 10.6613C22.5271 11.3221 21.9918 11.8565 21.331 11.8565ZM16.0003 19.3333C17.8413 19.3333 19.3337 17.8409 19.3337 16C19.3337 14.159 17.8413 12.6666 16.0003 12.6666C14.1594 12.6666 12.667 14.159 12.667 16C12.667 17.8409 14.1594 19.3333 16.0003 19.3333Z" fill="#9CA3AF"/>
</svg>
